<?xml version="1.0" encoding="utf-8"?>
<!-- Generator: Adobe Illustrator 19.2.0, SVG Export Plug-In . SVG Version: 6.00 Build 0)  -->
<svg version="1.1" xmlns="http://www.w3.org/2000/svg" xmlns:xlink="http://www.w3.org/1999/xlink" x="0px" y="0px"
	 viewBox="0 0 96 96" style="enable-background:new 0 0 96 96;" xml:space="preserve">
<style type="text/css">
	.st0{display:none;}
	.st1{fill:#FFCC00;}
	.st2{fill:#5AC8FA;}
	.st3{fill:#5856D6;}
	.st4{fill:#007AFF;}
	.st5{fill:#FF9500;}
	.st6{fill:#FF3B30;}
</style>
<g id="Base" class="st0">
</g>
<g id="Dibujo">
	<g>
		<polyline class="st1" points="153.7,-624.9 146.7,-611.8 151.9,-611.8 146.1,-600.4 158.3,-614.6 152.1,-614.5 161,-624.9 		"/>
		<polyline class="st1" points="166.5,-629.8 159.5,-616.7 164.7,-616.7 158.9,-605.3 171.1,-619.5 164.9,-619.4 173.8,-629.8 		"/>
	</g>
	<g>
		<polyline class="st1" points="38.8,-625.4 31.8,-612.3 36.9,-612.4 31.1,-601 43.4,-615.2 37.1,-615.1 46,-625.4 		"/>
		<polyline class="st1" points="51.6,-630.3 44.6,-617.2 49.8,-617.3 44,-605.9 56.2,-620.1 50,-620 58.8,-630.3 		"/>
	</g>
	<g>
		<path class="st2" d="M-182.5,54v18c0,1.1,0.9,2,2,2c1.1,0,2-0.9,2-2V54c0-1.1-0.9-2-2-2C-181.6,52-182.5,52.9-182.5,54z"/>
		<path class="st2" d="M-205.5,73h-2c-1.1,0-2,0.9-2,2v2c0,1.1,0.9,2,2,2h2c1.1,0,2-0.9,2-2v-2C-203.5,73.9-204.4,73-205.5,73z"/>
		<path class="st2" d="M-179.5,78h-2c-1.1,0-2,0.9-2,2v2c0,1.1,0.9,2,2,2h2c1.1,0,2-0.9,2-2v-2C-177.5,78.9-178.4,78-179.5,78z"/>
		<path class="st2" d="M-152.5,70h-2c-1.1,0-2,0.9-2,2v2c0,1.1,0.9,2,2,2h2c1.1,0,2-0.9,2-2v-2C-150.5,70.9-151.4,70-152.5,70z"/>
		<path class="st2" d="M-189.5,58c-1.1,0-2,0.9-2,2v15.1c-1.2-0.7-2.5-1.1-4-1.1h-2c-1.1,0-2,0.9-2,2s0.9,2,2,2h2c2.2,0,4,1.8,4,4
			c0,1.1,0.9,2,2,2c1.1,0,2-0.9,2-2V60C-187.5,58.9-188.4,58-189.5,58z"/>
		<path class="st2" d="M-162.5,71c-2.7,0-5.1,0.9-7,2.5V60c0-1.1-0.9-2-2-2s-2,0.9-2,2v22c0,0,0,0,0,0c0,1.1,0.9,2,2,2s2-0.9,2-2v0
			c0-3.9,3.1-7,7-7c1.1,0,2-0.9,2-2S-161.4,71-162.5,71z"/>
	</g>
	<g>
		<path class="st1" d="M174.2,22c-7.7,0-14,6.3-14,14s6.3,14,14,14s14-6.3,14-14S181.9,22,174.2,22z"/>
		<polygon class="st1" points="174.2,9.5 179.1,18 169.3,18 		"/>
		<polygon class="st1" points="200.8,36 192.3,40.9 192.3,31.1 		"/>
		<polygon class="st1" points="191,19.2 189.3,24.8 185.4,20.9 		"/>
		<polygon class="st1" points="157.4,19.2 163,20.9 159.1,24.8 		"/>
	</g>
	<g>
		<path class="st1" d="M287.9-92c-7.7,0-14,6.3-14,14s6.3,14,14,14s14-6.3,14-14S295.6-92,287.9-92z"/>
		<polygon class="st1" points="287.9,-104.5 292.8,-96 283,-96 		"/>
		<polygon class="st1" points="314.4,-78 306,-73.1 306,-82.9 		"/>
		<polygon class="st1" points="304.6,-94.8 302.9,-89.2 299.1,-93.1 		"/>
		<polygon class="st1" points="271.1,-94.8 276.6,-93.1 272.8,-89.2 		"/>
	</g>
	<g>
		<path class="st2" d="M-64-48.1v-12c0-1.1-0.9-2-2-2s-2,0.9-2,2v12c0,1.1,0.9,2,2,2S-64-47-64-48.1z"/>
		<path class="st2" d="M-73-42.1v-12c0-1.1-0.9-2-2-2c-1.1,0-2,0.9-2,2v12c0,1.1,0.9,2,2,2C-73.9-40.1-73-41-73-42.1z"/>
		<path class="st2" d="M-55-42.1v-12c0-1.1-0.9-2-2-2c-1.1,0-2,0.9-2,2v12c0,1.1,0.9,2,2,2C-55.9-40.1-55-41-55-42.1z"/>
		<path class="st2" d="M-74-36.1h-2c-1.1,0-2,0.9-2,2v2c0,1.1,0.9,2,2,2h2c1.1,0,2-0.9,2-2v-2C-72-35.2-72.9-36.1-74-36.1z"/>
		<path class="st2" d="M-65-42.1h-2c-1.1,0-2,0.9-2,2v2c0,1.1,0.9,2,2,2h2c1.1,0,2-0.9,2-2v-2C-63-41.2-63.9-42.1-65-42.1z"/>
		<path class="st2" d="M-56-36.1h-2c-1.1,0-2,0.9-2,2v2c0,1.1,0.9,2,2,2h2c1.1,0,2-0.9,2-2v-2C-54-35.2-54.9-36.1-56-36.1z"/>
	</g>
	<g>
		<path class="st1" d="M-53.9-92c-7.7,0-14,6.3-14,14s6.3,14,14,14s14-6.3,14-14S-46.2-92-53.9-92z"/>
		<polygon class="st1" points="-53.9,-104.5 -49,-96 -58.8,-96 		"/>
		<polygon class="st1" points="-27.3,-78 -35.8,-73.1 -35.8,-82.9 		"/>
		<polygon class="st1" points="-37.1,-94.8 -38.8,-89.2 -42.7,-93.1 		"/>
		<polygon class="st1" points="-70.7,-94.8 -65.1,-93.1 -69,-89.2 		"/>
	</g>
	<g>
		<path class="st1" d="M-168.2-205.9c-7.7,0-14,6.3-14,14s6.3,14,14,14s14-6.3,14-14S-160.5-205.9-168.2-205.9z"/>
		<polygon class="st1" points="-168.2,-218.4 -163.3,-210 -173.1,-210 		"/>
		<polygon class="st1" points="-141.6,-191.9 -150.1,-187 -150.1,-196.8 		"/>
		<polygon class="st1" points="-151.4,-208.7 -153.2,-203.2 -157,-207 		"/>
		<polygon class="st1" points="-185,-208.7 -179.4,-207 -183.3,-203.2 		"/>
	</g>
	<g>
		<path class="st1" d="M174-206c-7.7,0-14,6.3-14,14s6.3,14,14,14s14-6.3,14-14S181.7-206,174-206z"/>
		<polygon class="st1" points="174,-218.5 178.9,-210 169.1,-210 		"/>
		<polygon class="st1" points="200.6,-192 192.1,-187.1 192.1,-196.9 		"/>
		<polygon class="st1" points="190.8,-208.8 189,-203.2 185.2,-207.1 		"/>
		<polygon class="st1" points="157.2,-208.8 162.8,-207.1 158.9,-203.2 		"/>
	</g>
	<g>
		<path class="st1" d="M60.2-320c-7.7,0-14,6.3-14,14s6.3,14,14,14c7.7,0,14-6.3,14-14S68-320,60.2-320z"/>
		<polygon class="st1" points="60.3,-332.5 65.2,-324 55.4,-324 		"/>
		<polygon class="st1" points="86.8,-306 78.3,-301.1 78.3,-310.9 		"/>
		<polygon class="st1" points="77,-322.8 75.3,-317.2 71.5,-321.1 		"/>
		<polygon class="st1" points="43.5,-322.8 49,-321.1 45.2,-317.2 		"/>
	</g>
	<g>
		<path class="st1" d="M285.1-428c-7.7,0-14,6.3-14,14s6.3,14,14,14s14-6.3,14-14S292.8-428,285.1-428z"/>
		<polygon class="st1" points="285.1,-440.5 290,-432 280.2,-432 		"/>
		<polygon class="st1" points="311.7,-414 303.2,-409.1 303.2,-418.9 		"/>
		<polygon class="st1" points="301.9,-430.8 300.2,-425.2 296.3,-429.1 		"/>
		<polygon class="st1" points="268.3,-430.8 273.9,-429.1 270,-425.2 		"/>
	</g>
	<g>
		<path class="st1" d="M-54-434c-7.7,0-14,6.3-14,14s6.3,14,14,14s14-6.3,14-14S-46.3-434-54-434z"/>
		<polygon class="st1" points="-54,-446.5 -49,-438 -58.9,-438 		"/>
		<polygon class="st1" points="-27.4,-420 -35.9,-415.1 -35.9,-424.9 		"/>
		<polygon class="st1" points="-37.2,-436.8 -38.9,-431.2 -42.8,-435.1 		"/>
		<polygon class="st1" points="-70.8,-436.8 -65.2,-435.1 -69,-431.2 		"/>
	</g>
	<g>
		<path class="st1" d="M-53.9-548c-7.7,0-14,6.3-14,14s6.3,14,14,14s14-6.3,14-14S-46.2-548-53.9-548z"/>
		<polygon class="st1" points="-53.9,-560.5 -49,-552 -58.8,-552 		"/>
		<polygon class="st1" points="-27.3,-534 -35.8,-529.1 -35.8,-538.9 		"/>
		<polygon class="st1" points="-37.1,-550.8 -38.8,-545.2 -42.7,-549.1 		"/>
		<polygon class="st1" points="-70.7,-550.8 -65.1,-549.1 -69,-545.2 		"/>
	</g>
	<g>
		<path class="st1" d="M-167.8-662c-7.7,0-14,6.3-14,14s6.3,14,14,14s14-6.3,14-14S-160.1-662-167.8-662z"/>
		<polygon class="st1" points="-167.8,-674.5 -162.9,-666 -172.7,-666 		"/>
		<polygon class="st1" points="-141.2,-648 -149.7,-643.1 -149.7,-652.9 		"/>
		<polygon class="st1" points="-151,-664.8 -152.8,-659.2 -156.6,-663.1 		"/>
		<polygon class="st1" points="-184.6,-664.8 -179,-663.1 -182.9,-659.2 		"/>
	</g>
	<g>
		<path class="st1" d="M173.9-662c-7.7,0-14,6.3-14,14s6.3,14,14,14c7.7,0,14-6.3,14-14S181.6-662,173.9-662z"/>
		<polygon class="st1" points="173.9,-674.5 178.9,-666 169,-666 		"/>
		<polygon class="st1" points="200.5,-648 192,-643.1 192,-652.9 		"/>
		<polygon class="st1" points="190.7,-664.8 189,-659.2 185.1,-663.1 		"/>
		<polygon class="st1" points="157.1,-664.8 162.7,-663.1 158.9,-659.2 		"/>
	</g>
	<g>
		<path class="st1" d="M60-776c-7.7,0-14,6.3-14,14s6.3,14,14,14s14-6.3,14-14S67.7-776,60-776z"/>
		<polygon class="st1" points="60.1,-788.5 65,-780 55.2,-780 		"/>
		<polygon class="st1" points="86.6,-762 78.1,-757.1 78.1,-766.9 		"/>
		<polygon class="st1" points="76.8,-778.8 75.1,-773.2 71.3,-777.1 		"/>
		<polygon class="st1" points="43.3,-778.8 48.8,-777.1 45,-773.2 		"/>
	</g>
	<g>
		<path class="st1" d="M287.9-890c-7.7,0-14,6.3-14,14s6.3,14,14,14s14-6.3,14-14S295.7-890,287.9-890z"/>
		<polygon class="st1" points="288,-902.5 292.9,-894 283.1,-894 		"/>
		<polygon class="st1" points="314.5,-876 306,-871.1 306,-880.9 		"/>
		<polygon class="st1" points="304.7,-892.7 303,-887.2 299.2,-891 		"/>
		<polygon class="st1" points="271.2,-892.7 276.7,-891 272.9,-887.2 		"/>
	</g>
	<g>
		<path class="st1" d="M-54.2-890c-7.7,0-14,6.3-14,14s6.3,14,14,14s14-6.3,14-14S-46.4-890-54.2-890z"/>
		<polygon class="st1" points="-54.1,-902.5 -49.2,-894 -59,-894 		"/>
		<polygon class="st1" points="-27.6,-876 -36.1,-871.1 -36.1,-880.9 		"/>
		<polygon class="st1" points="-37.4,-892.7 -39.1,-887.2 -42.9,-891 		"/>
		<polygon class="st1" points="-70.9,-892.7 -65.4,-891 -69.2,-887.2 		"/>
	</g>
	<path class="st3" d="M-165.5,19.4c0-1.2,0.2-2.3,0.6-3.4c-1-0.2-2-0.3-3-0.3c-7.7,0-14,6.3-14,14s6.3,14,14,14
		c7.7,0,13.9-6.2,14-13.8c-0.3,0-0.7,0.1-1,0.1C-160.8,29.9-165.5,25.2-165.5,19.4z"/>
	<path class="st3" d="M290.5,19.7c0-1.2,0.2-2.3,0.6-3.4c-1-0.2-2-0.3-3-0.3c-7.7,0-14,6.3-14,14s6.3,14,14,14
		c7.7,0,13.9-6.2,14-13.8c-0.3,0-0.7,0.1-1,0.1C295.2,30.3,290.5,25.5,290.5,19.7z"/>
	<path class="st3" d="M62.5-94.6c0-1.2,0.2-2.3,0.6-3.4c-1-0.2-2-0.3-3-0.3c-7.7,0-14,6.3-14,14s6.3,14,14,14
		c7.7,0,13.9-6.2,14-13.8c-0.3,0-0.7,0.1-1,0.1C67.2-84.1,62.5-88.8,62.5-94.6z"/>
	<path class="st3" d="M290.6-208.3c0-1.2,0.2-2.3,0.6-3.4c-1-0.2-2-0.3-3-0.3c-7.7,0-14,6.3-14,14s6.3,14,14,14
		c7.7,0,13.9-6.2,14-13.8c-0.3,0-0.7,0.1-1,0.1C295.3-197.7,290.6-202.5,290.6-208.3z"/>
	<path class="st3" d="M-51.5-208.3c0-1.2,0.2-2.3,0.6-3.4c-1-0.2-2-0.3-3-0.3c-7.7,0-14,6.3-14,14s6.3,14,14,14
		c7.7,0,13.9-6.2,14-13.8c-0.3,0-0.7,0.1-1,0.1C-46.8-197.7-51.5-202.5-51.5-208.3z"/>
	<path class="st3" d="M-168.5-316.3c0-1.2,0.2-2.3,0.6-3.4c-1-0.2-2-0.3-3-0.3c-7.7,0-14,6.3-14,14s6.3,14,14,14
		c7.7,0,13.9-6.2,14-13.8c-0.3,0-0.7,0.1-1,0.1C-163.8-305.7-168.5-310.5-168.5-316.3z"/>
	<path class="st3" d="M62.5-436.3c0-1.2,0.2-2.3,0.6-3.4c-1-0.2-2-0.3-3-0.3c-7.7,0-14,6.3-14,14s6.3,14,14,14
		c7.7,0,13.9-6.2,14-13.8c-0.3,0-0.7,0.1-1,0.1C67.2-425.7,62.5-430.5,62.5-436.3z"/>
	<path class="st3" d="M176.5-322.3c0-1.2,0.2-2.3,0.6-3.4c-1-0.2-2-0.3-3-0.3c-7.7,0-14,6.3-14,14s6.3,14,14,14
		c7.7,0,13.9-6.2,14-13.8c-0.3,0-0.7,0.1-1,0.1C181.2-311.7,176.5-316.5,176.5-322.3z"/>
	<path class="st3" d="M62.5-550.3c0-1.2,0.2-2.3,0.6-3.4c-1-0.2-2-0.3-3-0.3c-7.7,0-14,6.3-14,14s6.3,14,14,14
		c7.7,0,13.9-6.2,14-13.8c-0.3,0-0.7,0.1-1,0.1C67.2-539.7,62.5-544.5,62.5-550.3z"/>
	<path class="st3" d="M-51.5-664.3c0-1.2,0.2-2.3,0.6-3.4c-1-0.2-2-0.3-3-0.3c-7.7,0-14,6.3-14,14s6.3,14,14,14
		c7.7,0,13.9-6.2,14-13.8c-0.3,0-0.7,0.1-1,0.1C-46.8-653.7-51.5-658.5-51.5-664.3z"/>
	<path class="st3" d="M290.6-664.3c0-1.2,0.2-2.3,0.6-3.4c-1-0.2-2-0.3-3-0.3c-7.7,0-14,6.3-14,14s6.3,14,14,14
		c7.7,0,13.9-6.2,14-13.8c-0.3,0-0.7,0.1-1,0.1C295.3-653.7,290.6-658.5,290.6-664.3z"/>
	<path class="st3" d="M-165.5-778.3c0-1.2,0.2-2.3,0.6-3.4c-1-0.2-2-0.3-3-0.3c-7.7,0-14,6.3-14,14s6.3,14,14,14
		c7.7,0,13.9-6.2,14-13.8c-0.3,0-0.7,0.1-1,0.1C-160.8-767.7-165.5-772.5-165.5-778.3z"/>
	<path class="st3" d="M62.4-892.3c0-1.2,0.2-2.3,0.6-3.4c-1-0.2-2-0.3-3-0.3c-7.7,0-14,6.3-14,14s6.3,14,14,14
		c7.7,0,13.9-6.2,14-13.8c-0.3,0-0.7,0.1-1,0.1C67.1-881.7,62.4-886.5,62.4-892.3z"/>
	<path class="st3" d="M176.5-778.3c0-1.2,0.2-2.3,0.6-3.4c-1-0.2-2-0.3-3-0.3c-7.7,0-14,6.3-14,14s6.3,14,14,14
		c7.7,0,13.9-6.2,14-13.8c-0.3,0-0.7,0.1-1,0.1C181.2-767.7,176.5-772.5,176.5-778.3z"/>
	<path class="st3" d="M278.4-1216.2c0-1.2,0.2-2.3,0.6-3.4c-1-0.2-2-0.3-3-0.3c-7.7,0-14,6.3-14,14c0,7.7,6.3,14,14,14
		c7.7,0,13.9-6.2,14-13.8c-0.3,0-0.7,0.1-1,0.1C283.1-1205.7,278.4-1210.4,278.4-1216.2z"/>
	<g>
		<path class="st2" d="M48-734c-1.1,0-2,0.9-2,2v18c0,1.1,0.9,2,2,2c1.1,0,2-0.9,2-2v-18C50-733.1,49.1-734,48-734z"/>
		<path class="st2" d="M75.7-752.2c-0.3-0.6-0.7-1.2-1.2-1.8c-1.3-1.6-3.2-2.9-5.2-3.5c-1-0.3-2.1-0.5-3.3-0.5
			c-0.5,0-1.1,0.1-1.7,0.2C62.2-765,55.7-770,48-770c-7.7,0-14.2,5-16.3,12.2c-0.6-0.1-1.2-0.2-1.7-0.2c-1.1,0-2.2,0.2-3.3,0.5
			c-2.1,0.6-3.9,1.9-5.2,3.5c-0.4,0.5-0.8,1.1-1.2,1.8c-0.8,1.6-1.3,3.3-1.3,5.2s0.5,3.7,1.3,5.2c0.3,0.6,0.7,1.2,1.2,1.8
			c1.3,1.6,3.2,2.9,5.2,3.5c1,0.3,2.1,0.5,3.3,0.5h7v16c0,1.1,0.9,2,2,2c1.1,0,2-0.9,2-2v-16h14v16c0,1.1,0.9,2,2,2c1.1,0,2-0.9,2-2
			v-16h7c1.1,0,2.2-0.2,3.3-0.5c2.1-0.6,3.9-1.9,5.2-3.5c0.4-0.5,0.8-1.1,1.2-1.8c0.8-1.6,1.3-3.3,1.3-5.2S76.5-750.7,75.7-752.2z"
			/>
	</g>
	<path class="st4" d="M-162-872c-0.5,0-1.1,0.1-1.7,0.2c-2.1-7.2-8.6-12.2-16.3-12.2c-7.7,0-14.2,5-16.3,12.2
		c-0.6-0.1-1.2-0.2-1.7-0.2c-6.1,0-11,4.9-11,11s4.9,11,11,11h36c6.1,0,11-4.9,11-11S-155.9-872-162-872z"/>
	<path class="st3" d="M-180-1106c-7.7,0-14,6.3-14,14s6.3,14,14,14s14-6.3,14-14S-172.3-1106-180-1106z"/>
	<path class="st3" d="M-66-1106c-7.7,0-14,6.3-14,14s6.3,14,14,14s14-6.3,14-14S-58.3-1106-66-1106z M-65.3-1082
		c3.2-2.1,5.3-5.8,5.3-10s-2.1-7.8-5.3-10c5.2,0.3,9.3,4.7,9.3,10S-60.1-1082.4-65.3-1082z"/>
	<path class="st3" d="M48-992c-7.7,0-14,6.3-14,14s6.3,14,14,14c7.7,0,14-6.3,14-14S55.7-992,48-992z M38-978c0-5.3,4.1-9.6,9.3-10
		c-3.2,2.1-5.3,5.8-5.3,10s2.1,7.8,5.3,10C42.1-968.4,38-972.7,38-978z"/>
	<path class="st3" d="M48-1106c-7.7,0-14,6.3-14,14s6.3,14,14,14c7.7,0,14-6.3,14-14S55.7-1106,48-1106z M48-1082v-20
		c5.5,0,10,4.5,10,10S53.5-1082,48-1082z"/>
	<path class="st3" d="M-66-992c-7.7,0-14,6.3-14,14s6.3,14,14,14s14-6.3,14-14S-58.3-992-66-992z M-76-978c0-5.5,4.5-10,10-10v20
		C-71.5-968-76-972.5-76-978z"/>
	<path class="st3" d="M162-1106c-7.7,0-14,6.3-14,14s6.3,14,14,14c7.7,0,14-6.3,14-14S169.7-1106,162-1106z M162-1082
		c-0.2,0-0.4,0-0.7,0c-3.2-2.1-5.3-5.8-5.3-10s2.1-7.8,5.3-10c0.2,0,0.4,0,0.7,0c5.5,0,10,4.5,10,10S167.5-1082,162-1082z"/>
	<path class="st3" d="M-180-992c-7.7,0-14,6.3-14,14s6.3,14,14,14s14-6.3,14-14S-172.3-992-180-992z M-190-978c0-5.5,4.5-10,10-10
		c0.2,0,0.4,0,0.7,0c3.2,2.1,5.3,5.8,5.3,10s-2.1,7.8-5.3,10c-0.2,0-0.4,0-0.7,0C-185.5-968-190-972.5-190-978z"/>
	<path class="st3" d="M276-1106c-7.7,0-14,6.3-14,14s6.3,14,14,14c7.7,0,14-6.3,14-14S283.7-1106,276-1106z M276-1082
		c-5.5,0-10-4.5-10-10s4.5-10,10-10s10,4.5,10,10S281.5-1082,276-1082z"/>
	<path class="st4" d="M164-1003.9v-2.1c0-1.1-0.9-2-2-2c-1.1,0-2,0.9-2,2v2.1c-13.4,1-24,12.3-24,25.9c0,1.1,0.9,2,2,2
		c1.1,0,2-0.9,2-2c0-2.2,1.8-4,4-4c2.2,0,4,1.8,4,4c0,1.1,0.9,2,2,2c1.1,0,2-0.9,2-2c0-2.2,1.8-4,4-4c2.2,0,4,1.8,4,4v21
		c0,2.8,2.2,5,5,5c2.8,0,5-2.2,5-5c0-1.1-0.9-2-2-2c-1.1,0-2,0.9-2,2c0,0.6-0.4,1-1,1c-0.6,0-1-0.4-1-1v-21c0-2.2,1.8-4,4-4
		c2.2,0,4,1.8,4,4c0,1.1,0.9,2,2,2c1.1,0,2-0.9,2-2c0-2.2,1.8-4,4-4c2.2,0,4,1.8,4,4c0,1.1,0.9,2,2,2c1.1,0,2-0.9,2-2
		C188-991.7,177.4-1002.9,164-1003.9z"/>
	<g>
		<path class="st5" d="M153-418h12c1.1,0,2-0.9,2-2s-0.9-2-2-2h-12c-1.1,0-2,0.9-2,2S151.9-418,153-418z"/>
		<path class="st5" d="M141-412h24c1.1,0,2-0.9,2-2s-0.9-2-2-2h-24c-1.1,0-2,0.9-2,2S139.9-412,141-412z"/>
		<path class="st5" d="M135-406h24c1.1,0,2-0.9,2-2s-0.9-2-2-2h-24c-1.1,0-2,0.9-2,2S133.9-406,135-406z"/>
		<path class="st5" d="M194-402c0-1.1-0.9-2-2-2h-60c-1.1,0-2,0.9-2,2s0.9,2,2,2h60C193.1-400,194-400.9,194-402z"/>
		<path class="st5" d="M192-398h-57c-1.1,0-2,0.9-2,2s0.9,2,2,2h57c1.1,0,2-0.9,2-2S193.1-398,192-398z"/>
		<path class="st5" d="M153-392l-12,0c-1.1,0-2,0.9-2,2s0.9,2,2,2l12,0c1.1,0,2-0.9,2-2S154.1-392,153-392z"/>
		<path class="st5" d="M172-412h8c1.1,0,2-0.9,2-2s-0.9-2-2-2h-8c-1.1,0-2,0.9-2,2S170.9-412,172-412z"/>
		<path class="st5" d="M163-408c0,1.1,0.9,2,2,2h21c1.1,0,2-0.9,2-2s-0.9-2-2-2h-21C163.9-410,163-409.1,163-408z"/>
		<path class="st5" d="M186-392l-27,0c-1.1,0-2,0.9-2,2s0.9,2,2,2l27,0c1.1,0,2-0.9,2-2S187.1-392,186-392z"/>
	</g>
	<g>
		<path class="st2" d="M-93-289c1.1,0,2-0.9,2-2c0-3.9,3.1-7,7-7c0.3,0,0.7,0.1,1.2,0.2v1.8c0,1.1,0.9,2,2,2s2-0.9,2-2v-3.2
			c1.1-6.3,6.4-10.8,12.8-10.8s11.7,4.5,12.8,10.8v3.2c0,1.1,0.9,2,2,2c1.1,0,2-0.9,2-2v-1.8c0.5-0.1,0.9-0.2,1.2-0.2
			c3.9,0,7,3.1,7,7c0,1.1,0.9,2,2,2c1.1,0,2-0.9,2-2c0-6.1-4.9-11-11-11c-0.5,0-1.1,0.1-1.7,0.2C-51.8-309-58.3-314-66-314
			s-14.2,5-16.3,12.2c-0.6-0.1-1.2-0.2-1.7-0.2c-6.1,0-11,4.9-11,11C-95-289.9-94.1-289-93-289z"/>
		<path class="st2" d="M-74-283c0,1.1,0.9,2,2,2h36c1.1,0,2-0.9,2-2s-0.9-2-2-2h-36C-73.1-285-74-284.1-74-283z"/>
		<path class="st2" d="M-66-278c-1.1,0-2,0.9-2,2s0.9,2,2,2h27c1.1,0,2-0.9,2-2s-0.9-2-2-2H-66z"/>
		<path class="st2" d="M-36-271h-24c-1.1,0-2,0.9-2,2s0.9,2,2,2h24c1.1,0,2-0.9,2-2S-34.9-271-36-271z"/>
		<path class="st2" d="M-96-281h18c1.1,0,2-0.9,2-2s-0.9-2-2-2h-18c-1.1,0-2,0.9-2,2S-97.1-281-96-281z"/>
		<path class="st2" d="M-93-278c-1.1,0-2,0.9-2,2s0.9,2,2,2h21c1.1,0,2-0.9,2-2s-0.9-2-2-2H-93z"/>
		<path class="st2" d="M-66-271h-30c-1.1,0-2,0.9-2,2s0.9,2,2,2h30c1.1,0,2-0.9,2-2S-64.9-271-66-271z"/>
	</g>
	<g>
		<path class="st2" d="M294-308c-0.5,0-1.1,0.1-1.7,0.2c-2.1-7.2-8.6-12.2-16.3-12.2c-7.7,0-14.2,5-16.3,12.2
			c-0.6-0.1-1.2-0.2-1.7-0.2c-6.1,0-11,4.9-11,11s4.9,11,11,11c1.1,0,2-0.9,2-2s-0.9-2-2-2c-3.9,0-7-3.1-7-7s3.1-7,7-7
			c0.3,0,0.7,0.1,1.2,0.2v1.8c0,1.1,0.9,2,2,2c1.1,0,2-0.9,2-2v-3.2c1.1-6.3,6.4-10.8,12.8-10.8c6.4,0,11.7,4.5,12.8,10.8v3.2
			c0,1.1,0.9,2,2,2s2-0.9,2-2v-1.8c0.5-0.1,0.9-0.2,1.2-0.2c3.9,0,7,3.1,7,7s-3.1,7-7,7c-1.1,0-2,0.9-2,2s0.9,2,2,2
			c6.1,0,11-4.9,11-11S300.1-308,294-308z"/>
		<path class="st2" d="M267.6-289.2c-0.8-1-2.4-1-3.2,0c-0.8,1.1-3.4,4.7-3.4,7.2c0,2.9,2.1,5,5,5c2.9,0,5-2.1,5-5
			C271-284.5,268.4-288.1,267.6-289.2z"/>
		<path class="st2" d="M284.4-289.2c-0.8,1.1-3.4,4.7-3.4,7.2c0,2.9,2.1,5,5,5c2.9,0,5-2.1,5-5c0-2.5-2.6-6.1-3.4-7.2
			C286.8-290.2,285.2-290.2,284.4-289.2z"/>
		<path class="st2" d="M274.4-277.2c-0.8,1.1-3.4,4.7-3.4,7.2c0,2.9,2.1,5,5,5c2.9,0,5-2.1,5-5c0-2.5-2.6-6.1-3.4-7.2
			C276.8-278.2,275.2-278.2,274.4-277.2z"/>
	</g>
	<g>
		<path class="st2" d="M-178-48v-12c0-1.1-0.9-2-2-2s-2,0.9-2,2v12c0,1.1,0.9,2,2,2S-178-46.9-178-48z"/>
		<path class="st2" d="M-187-42v-12c0-1.1-0.9-2-2-2c-1.1,0-2,0.9-2,2v12c0,1.1,0.9,2,2,2C-187.9-40-187-40.9-187-42z"/>
		<path class="st2" d="M-169-42v-12c0-1.1-0.9-2-2-2c-1.1,0-2,0.9-2,2v12c0,1.1,0.9,2,2,2C-169.9-40-169-40.9-169-42z"/>
		<path class="st2" d="M-188-36h-2c-1.1,0-2,0.9-2,2v2c0,1.1,0.9,2,2,2h2c1.1,0,2-0.9,2-2v-2C-186-35.1-186.9-36-188-36z"/>
		<path class="st2" d="M-179-42h-2c-1.1,0-2,0.9-2,2v2c0,1.1,0.9,2,2,2h2c1.1,0,2-0.9,2-2v-2C-177-41.1-177.9-42-179-42z"/>
		<path class="st2" d="M-170-36h-2c-1.1,0-2,0.9-2,2v2c0,1.1,0.9,2,2,2h2c1.1,0,2-0.9,2-2v-2C-168-35.1-168.9-36-170-36z"/>
	</g>
	<g>
		<path d="M169.6,286.6l-5.6,5.6V279c0-1.1-0.9-2-2-2c-1.1,0-2,0.9-2,2v13.2l-5.6-5.6c-0.8-0.8-2-0.8-2.8,0c-0.8,0.8-0.8,2,0,2.8
			l9,9c0.1,0.1,0.2,0.2,0.3,0.3c0,0,0.1,0.1,0.1,0.1c0.1,0,0.1,0.1,0.2,0.1c0.1,0,0.1,0,0.2,0.1c0.1,0,0.1,0,0.2,0.1
			c0.1,0,0.3,0,0.4,0c0.1,0,0.3,0,0.4,0c0.1,0,0.1,0,0.2-0.1c0.1,0,0.1,0,0.2-0.1c0.1,0,0.1-0.1,0.2-0.1c0,0,0.1,0,0.1-0.1
			c0.1-0.1,0.2-0.2,0.3-0.3l9-9c0.8-0.8,0.8-2,0-2.8C171.6,285.8,170.4,285.8,169.6,286.6z"/>
		<path d="M180,268c-0.5,0-1.1,0.1-1.7,0.2c-2.1-7.2-8.6-12.2-16.3-12.2c-7.7,0-14.2,5-16.3,12.2c-0.6-0.1-1.2-0.2-1.7-0.2
			c-6.1,0-11,4.9-11,11s4.9,11,11,11l2,0c1.1,0,2-0.9,2-2c0-1.1-0.9-2-2-2h0l-2,0c-3.9,0-7-3.1-7-7s3.1-7,7-7c0.3,0,0.7,0.1,1.2,0.2
			v1.8c0,1.1,0.9,2,2,2c1.1,0,2-0.9,2-2v-3.2c1.1-6.3,6.4-10.8,12.8-10.8c6.4,0,11.7,4.5,12.8,10.8v3.2c0,1.1,0.9,2,2,2
			c1.1,0,2-0.9,2-2v-1.8c0.5-0.1,0.9-0.2,1.2-0.2c3.9,0,7,3.1,7,7s-3.1,7-7,7l-2,0h0c-1.1,0-2,0.9-2,2c0,1.1,0.9,2,2,2l2,0
			c6.1,0,11-4.9,11-11S186.1,268,180,268z"/>
	</g>
	<g>
		<path d="M277.4,277.6c-0.1-0.1-0.2-0.2-0.3-0.3c0,0-0.1-0.1-0.1-0.1c-0.1,0-0.1-0.1-0.2-0.1c-0.1,0-0.1,0-0.2-0.1
			c-0.1,0-0.1,0-0.2-0.1c-0.3-0.1-0.5-0.1-0.8,0c-0.1,0-0.1,0-0.2,0.1c-0.1,0-0.1,0-0.2,0.1c-0.1,0-0.1,0.1-0.2,0.1
			c0,0-0.1,0-0.1,0.1c-0.1,0.1-0.2,0.2-0.3,0.3l-9,9c-0.8,0.8-0.8,2,0,2.8c0.8,0.8,2,0.8,2.8,0l5.6-5.6V297c0,1.1,0.9,2,2,2
			c1.1,0,2-0.9,2-2v-13.2l5.6,5.6c0.4,0.4,0.9,0.6,1.4,0.6c0.5,0,1-0.2,1.4-0.6c0.8-0.8,0.8-2,0-2.8L277.4,277.6z"/>
		<path d="M294,268c-0.5,0-1.1,0.1-1.7,0.2c-2.1-7.2-8.6-12.2-16.3-12.2c-7.7,0-14.2,5-16.3,12.2c-0.6-0.1-1.2-0.2-1.7-0.2
			c-6.1,0-11,4.9-11,11s4.9,11,11,11l2,0c1.1,0,2-0.9,2-2c0-1.1-0.9-2-2-2h0l-2,0c-3.9,0-7-3.1-7-7s3.1-7,7-7c0.3,0,0.7,0.1,1.2,0.2
			v1.8c0,1.1,0.9,2,2,2c1.1,0,2-0.9,2-2v-3.2c1.1-6.3,6.4-10.8,12.8-10.8c6.4,0,11.7,4.5,12.8,10.8v3.2c0,1.1,0.9,2,2,2s2-0.9,2-2
			v-1.8c0.5-0.1,0.9-0.2,1.2-0.2c3.9,0,7,3.1,7,7s-3.1,7-7,7l-2,0h0c-1.1,0-2,0.9-2,2c0,1.1,0.9,2,2,2l2,0c6.1,0,11-4.9,11-11
			S300.1,268,294,268z"/>
	</g>
	<g>
		<path class="st2" d="M159.5-60v18c0,1.1,0.9,2,2,2c1.1,0,2-0.9,2-2v-18c0-1.1-0.9-2-2-2C160.4-62,159.5-61.1,159.5-60z"/>
		<path class="st2" d="M136.5-41h-2c-1.1,0-2,0.9-2,2v2c0,1.1,0.9,2,2,2h2c1.1,0,2-0.9,2-2v-2C138.5-40.1,137.6-41,136.5-41z"/>
		<path class="st2" d="M162.5-36h-2c-1.1,0-2,0.9-2,2v2c0,1.1,0.9,2,2,2h2c1.1,0,2-0.9,2-2v-2C164.5-35.1,163.6-36,162.5-36z"/>
		<path class="st2" d="M189.5-44h-2c-1.1,0-2,0.9-2,2v2c0,1.1,0.9,2,2,2h2c1.1,0,2-0.9,2-2v-2C191.5-43.1,190.6-44,189.5-44z"/>
		<path class="st2" d="M152.5-56c-1.1,0-2,0.9-2,2v15.1c-1.2-0.7-2.5-1.1-4-1.1h-2c-1.1,0-2,0.9-2,2s0.9,2,2,2h2c2.2,0,4,1.8,4,4
			c0,1.1,0.9,2,2,2c1.1,0,2-0.9,2-2v-22C154.5-55.1,153.6-56,152.5-56z"/>
		<path class="st2" d="M179.5-43c-2.7,0-5.1,0.9-7,2.5V-54c0-1.1-0.9-2-2-2c-1.1,0-2,0.9-2,2v22c0,0,0,0,0,0c0,1.1,0.9,2,2,2
			c1.1,0,2-0.9,2-2v0c0-3.9,3.1-7,7-7c1.1,0,2-0.9,2-2S180.6-43,179.5-43z"/>
	</g>
	<g>
		<path class="st2" d="M274-60v18c0,1.1,0.9,2,2,2c1.1,0,2-0.9,2-2v-18c0-1.1-0.9-2-2-2C274.9-62,274-61.1,274-60z"/>
		<path class="st2" d="M251-41h-2c-1.1,0-2,0.9-2,2v2c0,1.1,0.9,2,2,2h2c1.1,0,2-0.9,2-2v-2C253-40.1,252.1-41,251-41z"/>
		<path class="st2" d="M277-36h-2c-1.1,0-2,0.9-2,2v2c0,1.1,0.9,2,2,2h2c1.1,0,2-0.9,2-2v-2C279-35.1,278.1-36,277-36z"/>
		<path class="st2" d="M304-44h-2c-1.1,0-2,0.9-2,2v2c0,1.1,0.9,2,2,2h2c1.1,0,2-0.9,2-2v-2C306-43.1,305.1-44,304-44z"/>
		<path class="st2" d="M267-56c-1.1,0-2,0.9-2,2v15.1c-1.2-0.7-2.5-1.1-4-1.1h-2c-1.1,0-2,0.9-2,2s0.9,2,2,2h2c2.2,0,4,1.8,4,4
			c0,1.1,0.9,2,2,2c1.1,0,2-0.9,2-2v-22C269-55.1,268.1-56,267-56z"/>
		<path class="st2" d="M294-43c-2.7,0-5.1,0.9-7,2.5V-54c0-1.1-0.9-2-2-2c-1.1,0-2,0.9-2,2v22c0,0,0,0,0,0c0,1.1,0.9,2,2,2
			c1.1,0,2-0.9,2-2v0c0-3.9,3.1-7,7-7c1.1,0,2-0.9,2-2S295.1-43,294-43z"/>
	</g>
	<g>
		<path class="st5" d="M-60,46l-30,0c-1.1,0-2,0.9-2,2s0.9,2,2,2l30,0c3.9,0,7,3.1,7,7s-3.1,7-7,7c-1.1,0-2,0.9-2,2s0.9,2,2,2
			c6.1,0,11-4.9,11-11S-53.9,46-60,46z"/>
		<path class="st5" d="M-66,52h-24c-1.1,0-2,0.9-2,2s0.9,2,2,2h24c0.6,0,1,0.4,1,1s-0.4,1-1,1c-1.1,0-2,0.9-2,2s0.9,2,2,2
			c2.8,0,5-2.2,5-5S-63.2,52-66,52z"/>
		<path class="st5" d="M-45,38c-1.1,0-2,0.9-2,2s0.9,2,2,2c0.6,0,1,0.4,1,1s-0.4,1-1,1h-4c-1.1,0-2,0.9-2,2s0.9,2,2,2h4
			c2.8,0,5-2.2,5-5S-42.2,38-45,38z"/>
		<path class="st5" d="M-90,44l33,0c4.4,0,8-3.6,8-8s-3.6-8-8-8s-8,3.6-8,8c0,1.1,0.9,2,2,2c1.1,0,2-0.9,2-2c0-2.2,1.8-4,4-4
			c2.2,0,4,1.8,4,4s-1.8,4-4,4l-33,0c-1.1,0-2,0.9-2,2S-91.1,44-90,44z"/>
	</g>
	<g>
		<path class="st5" d="M-204,140h42c1.1,0,2-0.9,2-2c0-1.1-0.9-2-2-2h-42c-1.1,0-2,0.9-2,2C-206,139.1-205.1,140-204,140z"/>
		<path class="st5" d="M-162,144h-39c-1.1,0-2,0.9-2,2s0.9,2,2,2h39c1.1,0,2-0.9,2-2S-160.9,144-162,144z"/>
		<path class="st5" d="M-166,154c0-1.1-0.9-2-2-2h-36c-1.1,0-2,0.9-2,2s0.9,2,2,2h36C-166.9,156-166,155.1-166,154z"/>
		<path class="st5" d="M-162,160h-33c-1.1,0-2,0.9-2,2s0.9,2,2,2h33c1.1,0,2-0.9,2-2S-160.9,160-162,160z"/>
		<path class="st5" d="M-168,168h-18c-1.1,0-2,0.9-2,2s0.9,2,2,2h18c1.1,0,2-0.9,2-2S-166.9,168-168,168z"/>
		<path class="st5" d="M-174,176h-12c-1.1,0-2,0.9-2,2s0.9,2,2,2h12c1.1,0,2-0.9,2-2S-172.9,176-174,176z"/>
		<path class="st5" d="M-180,184h-6c-1.1,0-2,0.9-2,2s0.9,2,2,2h6c1.1,0,2-0.9,2-2S-178.9,184-180,184z"/>
	</g>
	<g>
		<path class="st2" d="M48,172c-2.8,0-5,2.2-5,5s2.2,5,5,5c2.8,0,5-2.2,5-5S50.8,172,48,172z M48,178c-0.6,0-1-0.4-1-1s0.4-1,1-1
			c0.6,0,1,0.4,1,1S48.6,178,48,178z"/>
		<path class="st2" d="M56,169.5l0-25.5c0-4.4-3.6-8-8-8c-4.4,0-8,3.6-8,8l0,25.5c-1.9,2-3,4.7-3,7.5c0,6.1,4.9,11,11,11
			c6.1,0,11-4.9,11-11C59,174.2,57.9,171.5,56,169.5z M48,184c-3.9,0-7-3.1-7-7c0-2,0.8-3.9,2.3-5.2c0.4-0.4,0.7-0.9,0.7-1.5l0-26.3
			c0-2.2,1.8-4,4-4c2.2,0,4,1.8,4,4l0,26.3c0,0.6,0.2,1.1,0.7,1.5c1.5,1.3,2.3,3.2,2.3,5.2C55,180.9,51.9,184,48,184z"/>
	</g>
	<g>
		<path class="st2" d="M-66,188c-6.1,0-11-4.9-11-11c0-2.8,1.1-5.5,3-7.5l0-25.5c0-4.4,3.6-8,8-8s8,3.6,8,8l0,25.5
			c1.9,2,3,4.7,3,7.5C-55,183.1-59.9,188-66,188L-66,188z M-66,140c-2.2,0-4,1.8-4,4l0,26.3c0,0.6-0.2,1.1-0.7,1.5
			c-1.5,1.3-2.3,3.2-2.3,5.2c0,3.9,3.1,7,7,7c3.9,0,7-3.1,7-7c0-2-0.8-3.9-2.3-5.2c-0.4-0.4-0.7-0.9-0.7-1.5l0-26.3
			C-62,141.8-63.8,140-66,140L-66,140z"/>
	</g>
	<g>
		<path class="st5" d="M164,172.4V161c0-1.1-0.9-2-2-2c-1.1,0-2,0.9-2,2v11.4c-1.8,0.8-3,2.5-3,4.6c0,2.8,2.2,5,5,5c2.8,0,5-2.2,5-5
			C167,175,165.8,173.2,164,172.4z M162,178c-0.6,0-1-0.4-1-1s0.4-1,1-1c0.6,0,1,0.4,1,1S162.6,178,162,178z"/>
		<path class="st5" d="M170,169.5l0-25.5c0-4.4-3.6-8-8-8c-4.4,0-8,3.6-8,8l0,25.5c-1.9,2-3,4.7-3,7.5c0,6.1,4.9,11,11,11
			c6.1,0,11-4.9,11-11C173,174.2,171.9,171.5,170,169.5z M162,184c-3.9,0-7-3.1-7-7c0-2,0.8-3.9,2.3-5.2c0.4-0.4,0.7-0.9,0.7-1.5
			l0-26.3c0-2.2,1.8-4,4-4c2.2,0,4,1.8,4,4l0,26.3c0,0.6,0.2,1.1,0.7,1.5c1.5,1.3,2.3,3.2,2.3,5.2C169,180.9,165.9,184,162,184z"/>
	</g>
	<g>
		<path class="st6" d="M278,172.4V144c0-1.1-0.9-2-2-2c-1.1,0-2,0.9-2,2v28.4c-1.8,0.8-3,2.5-3,4.6c0,2.8,2.2,5,5,5c2.8,0,5-2.2,5-5
			C281,175,279.8,173.2,278,172.4z M276,178c-0.6,0-1-0.4-1-1s0.4-1,1-1c0.6,0,1,0.4,1,1S276.6,178,276,178z"/>
		<path class="st6" d="M284,169.5l0-25.5c0-4.4-3.6-8-8-8s-8,3.6-8,8l0,25.5c-1.9,2-3,4.7-3,7.5c0,6.1,4.9,11,11,11s11-4.9,11-11
			C287,174.2,285.9,171.5,284,169.5z M276,184c-3.9,0-7-3.1-7-7c0-2,0.8-3.9,2.3-5.2c0.4-0.4,0.7-0.9,0.7-1.5l0-26.3
			c0-2.2,1.8-4,4-4c2.2,0,4,1.8,4,4l0,26.3c0,0.6,0.2,1.1,0.7,1.5c1.5,1.3,2.3,3.2,2.3,5.2C283,180.9,279.9,184,276,184z"/>
	</g>
	<path class="st6" d="M308-983.1c0-0.1,0-0.1,0-0.2c0-0.1,0-0.1,0-0.2c0-0.1,0-0.1-0.1-0.2c0-0.1,0-0.1-0.1-0.2c0,0,0,0,0-0.1
		c0,0,0-0.1-0.1-0.1c0-0.1-0.1-0.1-0.1-0.2c0-0.1-0.1-0.1-0.1-0.2c0,0-0.1-0.1-0.1-0.1c-0.1,0-0.1-0.1-0.2-0.1c0,0-0.1-0.1-0.1-0.1
		c-0.1,0-0.1-0.1-0.2-0.1c-0.1,0-0.1-0.1-0.2-0.1c-0.1,0-0.1,0-0.2-0.1c-0.1,0-0.1,0-0.2,0c-0.1,0-0.2,0-0.2,0c0,0-0.1,0-0.1,0h-4
		c0-2.8-2.2-5-5-5h-14c-1.4,0-2.7,0.6-3.6,1.5c-0.3,0.3-0.5,0.7-0.7,1c-0.8-0.4-1.7-0.6-2.7-0.6s-1.8,0.2-2.7,0.6
		c-0.2-0.4-0.4-0.7-0.7-1c-0.9-1-2.2-1.5-3.6-1.5h-14c-2.8,0-5,2.2-5,5h-4c0,0-0.1,0-0.1,0c-0.1,0-0.1,0-0.2,0c-0.1,0-0.1,0-0.2,0
		c-0.1,0-0.1,0-0.2,0.1c-0.1,0-0.1,0.1-0.2,0.1c-0.1,0-0.1,0.1-0.2,0.1c-0.1,0-0.1,0.1-0.2,0.1c-0.1,0-0.1,0.1-0.2,0.1
		c0,0-0.1,0.1-0.1,0.1c0,0-0.1,0.1-0.1,0.1c0,0.1-0.1,0.1-0.1,0.2c0,0,0,0.1-0.1,0.1c0,0,0,0,0,0.1c0,0.1-0.1,0.1-0.1,0.2
		c0,0.1,0,0.1-0.1,0.2c0,0.1,0,0.1,0,0.2c0,0.1,0,0.1,0,0.2c0,0,0,0,0,0.1c0,0,0,0.1,0,0.1c0,0.1,0,0.1,0,0.2c0,0.1,0,0.1,0,0.2
		c0,0.1,0,0.1,0.1,0.2c0,0.1,0,0.1,0.1,0.2c0,0.1,0.1,0.1,0.1,0.2c0,0.1,0.1,0.1,0.1,0.2c0,0.1,0.1,0.1,0.1,0.2c0,0,0.1,0.1,0.1,0.1
		c0,0,0.1,0.1,0.1,0.1c0.1,0,0.1,0.1,0.2,0.1c0,0,0.1,0,0.1,0.1l4.9,2.5c0.1,6,5,10.8,11,10.8c5,0,11-2.5,12.6-13.6
		c0-0.1,0-0.1,0-0.2c0-0.2,0.1-0.4,0.1-0.7c0.3-0.9,1.3-1.6,2.3-1.6c1,0,2,0.7,2.3,1.6c0,0.2,0.1,0.5,0.1,0.7c0,0.1,0,0.1,0,0.2
		C280-970.5,286-968,291-968c6,0,10.9-4.8,11-10.8l4.9-2.5c0,0,0.1,0,0.1-0.1c0.1,0,0.1-0.1,0.2-0.1c0.1,0,0.1-0.1,0.2-0.1
		c0,0,0.1-0.1,0.1-0.1c0-0.1,0.1-0.1,0.1-0.2c0,0,0.1-0.1,0.1-0.1c0-0.1,0.1-0.1,0.1-0.2c0-0.1,0.1-0.1,0.1-0.2c0-0.1,0-0.1,0.1-0.2
		c0-0.1,0-0.1,0-0.2c0-0.1,0-0.1,0-0.2C308-982.9,308-983,308-983.1C308-983,308-983,308-983.1z M262.4-982.6l-5,5
		c-0.4,0.4-0.9,0.6-1.4,0.6c-0.5,0-1-0.2-1.4-0.6c-0.8-0.8-0.8-2,0-2.8l5-5c0.8-0.8,2-0.8,2.8,0
		C263.2-984.6,263.2-983.4,262.4-982.6z M291.4-982.6l-5,5c-0.4,0.4-0.9,0.6-1.4,0.6c-0.5,0-1-0.2-1.4-0.6c-0.8-0.8-0.8-2,0-2.8l5-5
		c0.8-0.8,2-0.8,2.8,0C292.2-984.6,292.2-983.4,291.4-982.6z"/>
	<path class="st5" d="M-149.5,259.1l-24-6c0,0-0.1,0-0.1,0c-0.1,0-0.2,0-0.3,0c-0.1,0-0.1,0-0.1,0c-0.1,0-0.2,0-0.3,0
		c0,0-0.1,0-0.1,0c-0.1,0-0.3,0.1-0.4,0.1c0,0,0,0,0,0c-0.1,0.1-0.2,0.1-0.4,0.2l-8.8,6.6v-6.4c1.8-0.8,3-2.5,3-4.6c0-2.8-2.2-5-5-5
		s-5,2.2-5,5c0,2,1.2,3.8,3,4.6V304h-22c-1.1,0-2,0.9-2,2s0.9,2,2,2h48c1.1,0,2-0.9,2-2s-0.9-2-2-2h-22v-36l8.8,6.6
		c0.1,0.1,0.2,0.1,0.3,0.2c0.1,0,0.1,0.1,0.2,0.1c0.2,0.1,0.4,0.1,0.6,0.1c0,0,0,0,0,0h0c0,0,0,0,0,0c0.2,0,0.3,0,0.4-0.1
		c0,0,0,0,0,0l24-6c0.9-0.2,1.5-1,1.5-1.9v-6C-148,260.1-148.6,259.3-149.5,259.1z M-176,269l-6.7-5l6.7-5V269z M-186,248
		c0.6,0,1,0.4,1,1s-0.4,1-1,1s-1-0.4-1-1S-186.6,248-186,248z M-172,257.6l8,2v8.9l-8,2V257.6z M-152,265.4l-8,2v-6.9l8,2V265.4z"/>
	<path class="st2" d="M75,289.3l-6.2-3.6l3.5-0.9c1.1-0.3,1.7-1.4,1.4-2.4c-0.3-1.1-1.4-1.7-2.4-1.4l-7.4,2l-5.5-3.2l6.5-1.8
		c0.8-0.2,1.4-0.9,1.5-1.8c0.1-0.9-0.4-1.6-1.2-2l-5.8-2.4l4.5-2.6l7.4,2c0.2,0,0.3,0.1,0.5,0.1c0.9,0,1.7-0.6,1.9-1.5
		c0.3-1.1-0.3-2.2-1.4-2.4l-3.5-0.9l6.2-3.6c1-0.6,1.3-1.8,0.7-2.7c-0.6-1-1.8-1.3-2.7-0.7l-6.2,3.6l0.9-3.5
		c0.3-1.1-0.3-2.2-1.4-2.4c-1.1-0.3-2.2,0.3-2.4,1.4l-2,7.4l-4.5,2.6l0.8-6.2c0.1-0.8-0.3-1.6-1-2c-0.7-0.4-1.6-0.3-2.2,0.1l-5,3.8
		v-5.2l5.4-5.4c0.8-0.8,0.8-2,0-2.8c-0.8-0.8-2-0.8-2.8,0l-2.6,2.6V246c0-1.1-0.9-2-2-2c-1.1,0-2,0.9-2,2v7.2l-2.6-2.6
		c-0.8-0.8-2-0.8-2.8,0c-0.8,0.8-0.8,2,0,2.8l5.4,5.4v5.2l-5-3.8c-0.7-0.5-1.6-0.5-2.3-0.1c-0.7,0.5-1,1.4-0.8,2.2l1.8,6.5l-5.5-3.2
		l-2-7.4c-0.3-1.1-1.4-1.7-2.4-1.4c-1.1,0.3-1.7,1.4-1.4,2.4l0.9,3.5l-6.2-3.6c-1-0.6-2.2-0.2-2.7,0.7c-0.6,1-0.2,2.2,0.7,2.7
		l6.2,3.6l-3.5,0.9c-1.1,0.3-1.7,1.4-1.4,2.4c0.2,0.9,1,1.5,1.9,1.5c0.2,0,0.3,0,0.5-0.1l7.4-2l5.5,3.2l-6.5,1.8
		c-0.8,0.2-1.4,0.9-1.5,1.8c-0.1,0.9,0.4,1.6,1.2,2l5.8,2.4l-4.5,2.6l-7.4-2c-1.1-0.3-2.2,0.3-2.4,1.4c-0.3,1.1,0.3,2.2,1.4,2.4
		l3.5,0.9l-6.2,3.6c-1,0.6-1.3,1.8-0.7,2.7c0.4,0.6,1,1,1.7,1c0.3,0,0.7-0.1,1-0.3l6.2-3.6l-0.9,3.5c-0.3,1.1,0.3,2.2,1.4,2.4
		c0.2,0,0.3,0.1,0.5,0.1c0.9,0,1.7-0.6,1.9-1.5l2-7.4l4.5-2.6l-0.8,6.2c-0.1,0.8,0.3,1.6,1,2c0.7,0.4,1.6,0.3,2.2-0.1l5-3.8v5.2
		l-5.4,5.4c-0.8,0.8-0.8,2,0,2.8c0.8,0.8,2,0.8,2.8,0l2.6-2.6v7.2c0,1.1,0.9,2,2,2c1.1,0,2-0.9,2-2v-7.2l2.6,2.6
		c0.4,0.4,0.9,0.6,1.4,0.6c0.5,0,1-0.2,1.4-0.6c0.8-0.8,0.8-2,0-2.8l-5.4-5.4V288l5,3.8c0.4,0.3,0.8,0.4,1.2,0.4
		c0.4,0,0.8-0.1,1.1-0.3c0.7-0.5,1-1.4,0.8-2.2l-1.8-6.5l5.5,3.2l2,7.4c0.2,0.9,1,1.5,1.9,1.5c0.2,0,0.3,0,0.5-0.1
		c1.1-0.3,1.7-1.4,1.4-2.4l-0.9-3.5l6.2,3.6c0.3,0.2,0.7,0.3,1,0.3c0.7,0,1.4-0.4,1.7-1C76.3,291,75.9,289.8,75,289.3z M58.2,275.6
		l-4.8,1.3L52,276l3.1-1.8L58.2,275.6z M53.6,266.3l-0.6,4.5l-3.1,1.8V269L53.6,266.3z M43.2,266.9L46,269v3.5l-1.5-0.9L43.2,266.9z
		 M37.7,276.4l4.8-1.3L44,276l-3.1,1.8L37.7,276.4z M42.4,285.7l0.6-4.5l3.1-1.8v3.5L42.4,285.7z M52.8,285.1L50,283v-3.5l1.5,0.9
		L52.8,285.1z"/>
	<g>
		<path class="st5" d="M-42,254c1.1,0,2-0.9,2-2s-0.9-2-2-2c-7,0-12.9,5.2-13.8,12h-2c1-7.9,7.7-14,15.9-14c1.1,0,2-0.9,2-2
			s-0.9-2-2-2c-10.4,0-18.9,7.9-19.9,18H-70v-10c0-1.5-0.4-2.9-1.1-4.1l1.5-1.5c0.8-0.8,0.8-2,0-2.8c-0.8-0.8-2-0.8-2.8,0l-1.5,1.5
			c-0.6-0.4-1.3-0.7-2.1-0.9V242c0-1.1-0.9-2-2-2s-2,0.9-2,2v2.3c-0.7,0.2-1.4,0.5-2.1,0.9l-1.5-1.5c-0.8-0.8-2-0.8-2.8,0
			c-0.8,0.8-0.8,2,0,2.8l1.5,1.5c-0.5,0.9-0.9,2-1,3.1H-90c-0.9,0-1.7,0.6-1.9,1.5c-0.2,0.9,0.2,1.8,1.1,2.2l4.9,2.4v6.8
			c0,10.4,7.9,18.9,18,19.9V294h-17.2l2.6-2.6c0.8-0.8,0.8-2,0-2.8c-0.8-0.8-2-0.8-2.8,0l-6,6c-0.1,0.1-0.2,0.2-0.2,0.3
			c0,0-0.1,0.1-0.1,0.1c0,0.1-0.1,0.1-0.1,0.2c0,0.1,0,0.1-0.1,0.2c0,0.1,0,0.1-0.1,0.2c-0.1,0.3-0.1,0.5,0,0.8c0,0.1,0,0.1,0.1,0.2
			c0,0.1,0,0.1,0.1,0.2c0,0.1,0.1,0.1,0.1,0.2c0,0,0,0.1,0.1,0.1c0.1,0.1,0.2,0.2,0.2,0.3l6,6c0.4,0.4,0.9,0.6,1.4,0.6
			s1-0.2,1.4-0.6c0.8-0.8,0.8-2,0-2.8l-2.6-2.6H-68v12c0,1.1,0.9,2,2,2s2-0.9,2-2v-12h15.2l5.4,5.4c0.4,0.4,0.9,0.6,1.4,0.6
			c0.5,0,1-0.2,1.4-0.6c0.8-0.8,0.8-2,0-2.8l-4.6-4.6l4.6-4.6c0.8-0.8,0.8-2,0-2.8c-0.8-0.8-2-0.8-2.8,0l-5.4,5.4H-64v-10.1
			c10.1-1,18-9.5,18-19.9c0-2.2,1.8-4,4-4c1.1,0,2-0.9,2-2s-0.9-2-2-2c-3.7,0-6.8,2.6-7.7,6h-2.1C-50.9,257.4-46.8,254-42,254z
			 M-62.6,266c-0.7,1.2-2,2-3.4,2c-1.5,0-2.8-0.8-3.4-2H-62.6z M-50.1,266c-1,7.9-7.7,14-15.9,14c-8.8,0-16-7.2-16-16v-12
			c0-2.2,1.8-4,4-4s4,1.8,4,4v12c0,0,0,0,0,0c0,4.4,3.6,8,8,8c3.7,0,6.8-2.6,7.7-6H-50.1z"/>
		<circle class="st6" cx="-78" cy="252" r="2"/>
	</g>
	<g>
		<path class="st1" d="M-180-1220c-7.7,0-14,6.3-14,14s6.3,14,14,14c7.7,0,14-6.3,14-14S-172.3-1220-180-1220z"/>
		<polygon class="st1" points="-180,-1232.5 -175.1,-1224 -184.9,-1224 		"/>
		<polygon class="st1" points="-180,-1179.6 -184.9,-1188 -175.1,-1188 		"/>
		<polygon class="st1" points="-206.5,-1206 -198,-1210.9 -198,-1201.1 		"/>
		<polygon class="st1" points="-153.4,-1206 -161.9,-1201.1 -161.9,-1210.9 		"/>
		<polygon class="st1" points="-163.3,-1222.8 -165,-1217.2 -168.8,-1221.1 		"/>
		<polygon class="st1" points="-196.8,-1189.2 -195.1,-1194.8 -191.3,-1190.9 		"/>
		<polygon class="st1" points="-196.8,-1222.8 -191.3,-1221.1 -195.1,-1217.2 		"/>
		<polygon class="st1" points="-163.3,-1189.2 -168.8,-1190.9 -165,-1194.8 		"/>
	</g>
	<path class="st4" d="M-48-872c-0.5,0-1.1,0.1-1.7,0.2C-51.8-879-58.3-884-66-884c-7.7,0-14.2,5-16.3,12.2c-0.6-0.1-1.2-0.2-1.7-0.2
		c-6.1,0-11,4.9-11,11s4.9,11,11,11h36c6.1,0,11-4.9,11-11S-41.9-872-48-872z"/>
	<path class="st4" d="M66-872c-0.5,0-1.1,0.1-1.7,0.2C62.2-879,55.7-884,48-884c-7.7,0-14.2,5-16.3,12.2c-0.6-0.1-1.2-0.2-1.7-0.2
		c-6.1,0-11,4.9-11,11s4.9,11,11,11h36c6.1,0,11-4.9,11-11S72.1-872,66-872z"/>
	<g>
		<path class="st2" d="M153-840c-1.1,0-2,0.9-2,2v4c0,1.1,0.9,2,2,2c1.1,0,2-0.9,2-2v-4C155-839.1,154.1-840,153-840z"/>
		<path class="st2" d="M162-834c-1.1,0-2,0.9-2,2v4c0,1.1,0.9,2,2,2c1.1,0,2-0.9,2-2v-4C164-833.1,163.1-834,162-834z"/>
		<path class="st2" d="M162-846c-1.1,0-2,0.9-2,2v4c0,1.1,0.9,2,2,2c1.1,0,2-0.9,2-2v-4C164-845.1,163.1-846,162-846z"/>
		<path class="st2" d="M171-840c-1.1,0-2,0.9-2,2v4c0,1.1,0.9,2,2,2c1.1,0,2-0.9,2-2v-4C173-839.1,172.1-840,171-840z"/>
		<path class="st2" d="M189.7-866.2c-0.3-0.6-0.7-1.2-1.2-1.8c-1.3-1.6-3.2-2.9-5.2-3.5c-1-0.3-2.1-0.5-3.3-0.5
			c-0.5,0-1.1,0.1-1.7,0.2c-0.9-3.1-2.7-5.9-5-7.9c-0.3-0.3-0.7-0.6-1-0.8c-0.7-0.5-1.5-1-2.3-1.4c-2.4-1.3-5.1-2-8-2
			c-7.7,0-14.2,5-16.3,12.2c-0.6-0.1-1.2-0.2-1.7-0.2c-1.1,0-2.2,0.2-3.3,0.5c-2.1,0.6-3.9,1.9-5.2,3.5c-0.4,0.5-0.8,1.1-1.2,1.8
			c-0.8,1.6-1.3,3.3-1.3,5.2s0.5,3.7,1.3,5.2c0.3,0.6,0.7,1.2,1.2,1.8c1.3,1.6,3.2,2.9,5.2,3.5c1,0.3,2.1,0.5,3.3,0.5h7v4
			c0,1.1,0.9,2,2,2c1.1,0,2-0.9,2-2v-4h14v4c0,1.1,0.9,2,2,2c1.1,0,2-0.9,2-2v-4h7c1.1,0,2.2-0.2,3.3-0.5c2.1-0.6,3.9-1.9,5.2-3.5
			c0.4-0.5,0.8-1.1,1.2-1.8c0.8-1.6,1.3-3.3,1.3-5.2S190.5-864.7,189.7-866.2z"/>
	</g>
	<g>
		<path class="st2" d="M267-840c-1.1,0-2,0.9-2,2v4c0,1.1,0.9,2,2,2c1.1,0,2-0.9,2-2v-4C269-839.1,268.1-840,267-840z"/>
		<path class="st2" d="M276-834c-1.1,0-2,0.9-2,2v4c0,1.1,0.9,2,2,2c1.1,0,2-0.9,2-2v-4C278-833.1,277.1-834,276-834z"/>
		<path class="st2" d="M276-846c-1.1,0-2,0.9-2,2v4c0,1.1,0.9,2,2,2c1.1,0,2-0.9,2-2v-4C278-845.1,277.1-846,276-846z"/>
		<path class="st2" d="M285-840c-1.1,0-2,0.9-2,2v4c0,1.1,0.9,2,2,2c1.1,0,2-0.9,2-2v-4C287-839.1,286.1-840,285-840z"/>
		<path class="st2" d="M303.7-866.2c-0.3-0.6-0.7-1.2-1.2-1.8c-1.3-1.6-3.2-2.9-5.2-3.5c-1-0.3-2.1-0.5-3.3-0.5
			c-0.5,0-1.1,0.1-1.7,0.2c-0.9-3.1-2.7-5.9-5-7.9c-0.3-0.3-0.7-0.6-1-0.8c-0.7-0.5-1.5-1-2.3-1.4c-2.4-1.3-5.1-2-8-2
			c-7.7,0-14.2,5-16.3,12.2c-0.6-0.1-1.2-0.2-1.7-0.2c-1.1,0-2.2,0.2-3.3,0.5c-2.1,0.6-3.9,1.9-5.2,3.5c-0.4,0.5-0.8,1.1-1.2,1.8
			c-0.8,1.6-1.3,3.3-1.3,5.2s0.5,3.7,1.3,5.2c0.3,0.6,0.7,1.2,1.2,1.8c1.3,1.6,3.2,2.9,5.2,3.5c1,0.3,2.1,0.5,3.3,0.5h7v4
			c0,1.1,0.9,2,2,2c1.1,0,2-0.9,2-2v-4h14v4c0,1.1,0.9,2,2,2c1.1,0,2-0.9,2-2v-4h7c1.1,0,2.2-0.2,3.3-0.5c2.1-0.6,3.9-1.9,5.2-3.5
			c0.4-0.5,0.8-1.1,1.2-1.8c0.8-1.6,1.3-3.3,1.3-5.2S304.5-864.7,303.7-866.2z"/>
	</g>
	<g>
		<path class="st2" d="M-189-726c-1.1,0-2,0.9-2,2v4c0,1.1,0.9,2,2,2c1.1,0,2-0.9,2-2v-4C-187-725.1-187.9-726-189-726z"/>
		<path class="st2" d="M-180-720c-1.1,0-2,0.9-2,2v4c0,1.1,0.9,2,2,2s2-0.9,2-2v-4C-178-719.1-178.9-720-180-720z"/>
		<path class="st2" d="M-180-732c-1.1,0-2,0.9-2,2v4c0,1.1,0.9,2,2,2s2-0.9,2-2v-4C-178-731.1-178.9-732-180-732z"/>
		<path class="st2" d="M-171-726c-1.1,0-2,0.9-2,2v4c0,1.1,0.9,2,2,2c1.1,0,2-0.9,2-2v-4C-169-725.1-169.9-726-171-726z"/>
		<path class="st2" d="M-152.3-752.2c-0.3-0.6-0.7-1.2-1.2-1.8c-1.3-1.6-3.2-2.9-5.2-3.5c-1-0.3-2.1-0.5-3.3-0.5
			c-0.5,0-1.1,0.1-1.7,0.2c-0.9-3.1-2.7-5.9-5-7.9c-0.3-0.3-0.7-0.6-1-0.8c-0.7-0.5-1.5-1-2.3-1.4c-2.4-1.3-5.1-2-8-2
			c-7.7,0-14.2,5-16.3,12.2c-0.6-0.1-1.2-0.2-1.7-0.2c-1.1,0-2.2,0.2-3.3,0.5c-2.1,0.6-3.9,1.9-5.2,3.5c-0.4,0.5-0.8,1.1-1.2,1.8
			c-0.8,1.6-1.3,3.3-1.3,5.2s0.5,3.7,1.3,5.2c0.3,0.6,0.7,1.2,1.2,1.8c1.3,1.6,3.2,2.9,5.2,3.5c1,0.3,2.1,0.5,3.3,0.5h7v4
			c0,1.1,0.9,2,2,2c1.1,0,2-0.9,2-2v-4h14v4c0,1.1,0.9,2,2,2c1.1,0,2-0.9,2-2v-4h7c1.1,0,2.2-0.2,3.3-0.5c2.1-0.6,3.9-1.9,5.2-3.5
			c0.4-0.5,0.8-1.1,1.2-1.8c0.8-1.6,1.3-3.3,1.3-5.2S-151.5-750.7-152.3-752.2z"/>
	</g>
	<g>
		<path class="st2" d="M-66-734c-1.1,0-2,0.9-2,2v18c0,1.1,0.9,2,2,2s2-0.9,2-2v-18C-64-733.1-64.9-734-66-734z"/>
		<path class="st2" d="M-38.3-752.2c-0.3-0.6-0.7-1.2-1.2-1.8c-1.3-1.6-3.2-2.9-5.2-3.5c-1-0.3-2.1-0.5-3.3-0.5
			c-0.5,0-1.1,0.1-1.7,0.2C-51.8-765-58.3-770-66-770c-7.7,0-14.2,5-16.3,12.2c-0.6-0.1-1.2-0.2-1.7-0.2c-1.1,0-2.2,0.2-3.3,0.5
			c-2.1,0.6-3.9,1.9-5.2,3.5c-0.4,0.5-0.8,1.1-1.2,1.8c-0.8,1.6-1.3,3.3-1.3,5.2s0.5,3.7,1.3,5.2c0.3,0.6,0.7,1.2,1.2,1.8
			c1.3,1.6,3.2,2.9,5.2,3.5c1,0.3,2.1,0.5,3.3,0.5h7v16c0,1.1,0.9,2,2,2s2-0.9,2-2v-16h14v16c0,1.1,0.9,2,2,2c1.1,0,2-0.9,2-2v-16h7
			c1.1,0,2.2-0.2,3.3-0.5c2.1-0.6,3.9-1.9,5.2-3.5c0.4-0.5,0.8-1.1,1.2-1.8c0.8-1.6,1.3-3.3,1.3-5.2S-37.5-750.7-38.3-752.2z"/>
	</g>
	<g>
		<path class="st2" d="M162-734c-1.1,0-2,0.9-2,2v18c0,1.1,0.9,2,2,2c1.1,0,2-0.9,2-2v-18C164-733.1,163.1-734,162-734z"/>
		<path class="st2" d="M189.7-752.2c-0.3-0.6-0.7-1.2-1.2-1.8c-1.3-1.6-3.2-2.9-5.2-3.5c-1-0.3-2.1-0.5-3.3-0.5
			c-0.5,0-1.1,0.1-1.7,0.2c-2.1-7.2-8.6-12.2-16.3-12.2c-7.7,0-14.2,5-16.3,12.2c-0.6-0.1-1.2-0.2-1.7-0.2c-1.1,0-2.2,0.2-3.3,0.5
			c-2.1,0.6-3.9,1.9-5.2,3.5c-0.4,0.5-0.8,1.1-1.2,1.8c-0.8,1.6-1.3,3.3-1.3,5.2s0.5,3.7,1.3,5.2c0.3,0.6,0.7,1.2,1.2,1.8
			c1.3,1.6,3.2,2.9,5.2,3.5c1,0.3,2.1,0.5,3.3,0.5h7v16c0,1.1,0.9,2,2,2c1.1,0,2-0.9,2-2v-16h14v16c0,1.1,0.9,2,2,2c1.1,0,2-0.9,2-2
			v-16h7c1.1,0,2.2-0.2,3.3-0.5c2.1-0.6,3.9-1.9,5.2-3.5c0.4-0.5,0.8-1.1,1.2-1.8c0.8-1.6,1.3-3.3,1.3-5.2S190.5-750.7,189.7-752.2z
			"/>
	</g>
	<g>
		<circle class="st2" cx="267" cy="-732" r="2"/>
		<circle class="st2" cx="285" cy="-732" r="2"/>
		<circle class="st2" cx="276" cy="-726" r="2"/>
		<circle class="st2" cx="285" cy="-720" r="2"/>
		<circle class="st2" cx="276" cy="-714" r="2"/>
		<circle class="st2" cx="267" cy="-720" r="2"/>
		<path class="st2" d="M303.7-752.2c-0.3-0.6-0.7-1.2-1.2-1.8c-1.3-1.6-3.2-2.9-5.2-3.5c-1-0.3-2.1-0.5-3.3-0.5
			c-0.3,0-0.5,0-0.8,0.1c-0.3,0-0.6,0.1-0.9,0.1c-0.9-3.1-2.7-5.9-5-7.9c-0.3-0.3-0.7-0.6-1-0.8c-0.7-0.5-1.5-1-2.3-1.4
			c-2.4-1.3-5.1-2-8-2c-7.7,0-14.2,5-16.3,12.2c-0.1,0-0.1,0-0.2,0c-0.5-0.1-1-0.2-1.5-0.2c-1.1,0-2.2,0.2-3.3,0.5
			c-2.1,0.6-3.9,1.9-5.2,3.5c-0.4,0.5-0.8,1.1-1.2,1.8c-0.8,1.6-1.3,3.3-1.3,5.2s0.5,3.7,1.3,5.2c0.3,0.6,0.7,1.2,1.2,1.8
			c1.3,1.6,3.2,2.9,5.2,3.5c1,0.3,2.1,0.5,3.3,0.5h36c1.1,0,2.2-0.2,3.3-0.5c2.1-0.6,3.9-1.9,5.2-3.5c0.4-0.5,0.8-1.1,1.2-1.8
			c0.8-1.6,1.3-3.3,1.3-5.2S304.5-750.7,303.7-752.2z"/>
	</g>
	<g>
		<circle class="st2" cx="-189" cy="-618" r="2"/>
		<circle class="st2" cx="-171" cy="-618" r="2"/>
		<circle class="st2" cx="-180" cy="-612" r="2"/>
		<circle class="st2" cx="-171" cy="-606" r="2"/>
		<circle class="st2" cx="-180" cy="-600" r="2"/>
		<circle class="st2" cx="-189" cy="-606" r="2"/>
		<path class="st2" d="M-152.3-638.2c-0.3-0.6-0.7-1.2-1.2-1.8c-1.3-1.6-3.2-2.9-5.2-3.5c-1-0.3-2.1-0.5-3.3-0.5
			c-0.3,0-0.5,0-0.8,0.1c-0.3,0-0.6,0.1-0.9,0.1c-0.9-3.1-2.7-5.9-5-7.9c-0.3-0.3-0.7-0.6-1-0.8c-0.7-0.5-1.5-1-2.3-1.4
			c-2.4-1.3-5.1-2-8-2c-7.7,0-14.2,5-16.3,12.2c-0.1,0-0.1,0-0.2,0c-0.5-0.1-1-0.2-1.5-0.2c-1.1,0-2.2,0.2-3.3,0.5
			c-2.1,0.6-3.9,1.9-5.2,3.5c-0.4,0.5-0.8,1.1-1.2,1.8c-0.8,1.6-1.3,3.3-1.3,5.2s0.5,3.7,1.3,5.2c0.3,0.6,0.7,1.2,1.2,1.8
			c1.3,1.6,3.2,2.9,5.2,3.5c1,0.3,2.1,0.5,3.3,0.5h36c1.1,0,2.2-0.2,3.3-0.5c2.1-0.6,3.9-1.9,5.2-3.5c0.4-0.5,0.8-1.1,1.2-1.8
			c0.8-1.6,1.3-3.3,1.3-5.2S-151.5-636.7-152.3-638.2z"/>
	</g>
	<g>
		<circle class="st2" cx="-75" cy="-618" r="2"/>
		<circle class="st2" cx="-57" cy="-618" r="2"/>
		<circle class="st2" cx="-66" cy="-612" r="2"/>
		<circle class="st2" cx="-57" cy="-606" r="2"/>
		<circle class="st2" cx="-66" cy="-600" r="2"/>
		<circle class="st2" cx="-75" cy="-606" r="2"/>
		<path class="st2" d="M-38.3-638.2c-0.3-0.6-0.7-1.2-1.2-1.8c-1.3-1.6-3.2-2.9-5.2-3.5c-1-0.3-2.1-0.5-3.3-0.5
			c-0.3,0-0.5,0-0.8,0.1c-0.3,0-0.6,0.1-0.9,0.1c-0.9-3.1-2.7-5.9-5-7.9c-0.3-0.3-0.7-0.6-1-0.8c-0.7-0.5-1.5-1-2.3-1.4
			c-2.4-1.3-5.1-2-8-2c-7.7,0-14.2,5-16.3,12.2c-0.1,0-0.1,0-0.2,0c-0.5-0.1-1-0.2-1.5-0.2c-1.1,0-2.2,0.2-3.3,0.5
			c-2.1,0.6-3.9,1.9-5.2,3.5c-0.4,0.5-0.8,1.1-1.2,1.8c-0.8,1.6-1.3,3.3-1.3,5.2s0.5,3.7,1.3,5.2c0.3,0.6,0.7,1.2,1.2,1.8
			c1.3,1.6,3.2,2.9,5.2,3.5c1,0.3,2.1,0.5,3.3,0.5h36c1.1,0,2.2-0.2,3.3-0.5c2.1-0.6,3.9-1.9,5.2-3.5c0.4-0.5,0.8-1.1,1.2-1.8
			c0.8-1.6,1.3-3.3,1.3-5.2S-37.5-636.7-38.3-638.2z"/>
	</g>
	<path class="st4" d="M66-644c-0.5,0-1.1,0.1-1.7,0.2C62.2-651,55.7-656,48-656c-7.7,0-14.2,5-16.3,12.2c-0.6-0.1-1.2-0.2-1.7-0.2
		c-6.1,0-11,4.9-11,11s4.9,11,11,11h36c6.1,0,11-4.9,11-11S72.1-644,66-644z"/>
	<path class="st4" d="M180-644c-0.5,0-1.1,0.1-1.7,0.2c-2.1-7.2-8.6-12.2-16.3-12.2c-7.7,0-14.2,5-16.3,12.2
		c-0.6-0.1-1.2-0.2-1.7-0.2c-6.1,0-11,4.9-11,11s4.9,11,11,11h36c6.1,0,11-4.9,11-11S186.1-644,180-644z"/>
	<path class="st1" d="M294-644c-0.5,0-1.1,0.1-1.7,0.2c-2.1-7.2-8.6-12.2-16.3-12.2c-7.7,0-14.2,5-16.3,12.2
		c-0.6-0.1-1.2-0.2-1.7-0.2c-6.1,0-11,4.9-11,11s4.9,11,11,11h11.3l-3.9,5.9c-0.4,0.6-0.4,1.4-0.1,2.1c0.3,0.7,1,1.1,1.8,1.1h2.3
		l-3.9,5.9c-0.6,0.9-0.4,2.2,0.6,2.8c0.3,0.2,0.7,0.3,1.1,0.3c0.6,0,1.3-0.3,1.7-0.9l6-9c0.4-0.6,0.4-1.4,0.1-2.1
		c-0.3-0.7-1-1.1-1.8-1.1h-2.3l3.3-5h5.2l-1.9,2.9c-0.4,0.6-0.4,1.4-0.1,2.1c0.3,0.7,1,1.1,1.8,1.1h2.3l-1.9,2.9
		c-0.6,0.9-0.4,2.2,0.6,2.8c0.3,0.2,0.7,0.3,1.1,0.3c0.6,0,1.3-0.3,1.7-0.9l4-6c0.4-0.6,0.4-1.4,0.1-2.1c-0.3-0.7-1-1.1-1.8-1.1
		h-2.3l1.3-2h9.9c6.1,0,11-4.9,11-11S300.1-644,294-644z M294-626h-36c-3.9,0-7-3.1-7-7s3.1-7,7-7c0.3,0,0.7,0.1,1.2,0.2v1.8
		c0,1.1,0.9,2,2,2s2-0.9,2-2v-3.2c1.1-6.3,6.4-10.8,12.8-10.8c6.4,0,11.7,4.5,12.8,10.8v3.2c0,1.1,0.9,2,2,2c1.1,0,2-0.9,2-2v-1.8
		c0.5-0.1,0.9-0.2,1.2-0.2c3.9,0,7,3.1,7,7S297.9-626,294-626z"/>
	<path class="st4" d="M294-644c-0.5,0-1.1,0.1-1.7,0.2c-2.1-7.2-8.6-12.2-16.3-12.2c-7.7,0-14.2,5-16.3,12.2
		c-0.6-0.1-1.2-0.2-1.7-0.2c-6.1,0-11,4.9-11,11s4.9,11,11,11h36c6.1,0,11-4.9,11-11S300.1-644,294-644z"/>
	<g>
		<path class="st2" d="M-183.3-499.3c-0.6-1-1.8-1.3-2.7-0.7c-1,0.6-1.3,1.8-0.7,2.7l1,1.7c0.4,0.6,1,1,1.7,1c0.3,0,0.7-0.1,1-0.3
			c1-0.6,1.3-1.8,0.7-2.7L-183.3-499.3z"/>
		<path class="st2" d="M-188-500.1c-1-0.6-2.2-0.2-2.7,0.7l-1,1.7c-0.6,1-0.2,2.2,0.7,2.7c0.3,0.2,0.7,0.3,1,0.3
			c0.7,0,1.4-0.4,1.7-1l1-1.7C-186.7-498.3-187-499.5-188-500.1z"/>
		<path class="st2" d="M-189-501.8c0-1.1-0.9-2-2-2h-2c-1.1,0-2,0.9-2,2c0,1.1,0.9,2,2,2h2C-189.9-499.8-189-500.7-189-501.8z"/>
		<path class="st2" d="M-181-503.8h-2c-1.1,0-2,0.9-2,2c0,1.1,0.9,2,2,2h2c1.1,0,2-0.9,2-2C-179-502.9-179.9-503.8-181-503.8z"/>
		<path class="st2" d="M-161-529c-0.5,0-1.1,0.1-1.7,0.2c-2.1-7.2-8.6-12.2-16.3-12.2c-7.7,0-14.2,5-16.3,12.2
			c-0.6-0.1-1.2-0.2-1.7-0.2c-6.1,0-11,4.9-11,11c0,6.1,4.9,11,11,11h5c0,0.3,0.1,0.7,0.3,1l1,1.7c0.4,0.6,1,1,1.7,1
			c0.3,0,0.7-0.1,1-0.3c1-0.6,1.3-1.8,0.7-2.7l-0.4-0.7h1.4l-0.4,0.7c-0.6,1-0.2,2.2,0.7,2.7c0.3,0.2,0.7,0.3,1,0.3
			c0.7,0,1.4-0.4,1.7-1l1-1.7c0.2-0.3,0.3-0.7,0.3-1h21c6.1,0,11-4.9,11-11C-150-524.1-154.9-529-161-529z"/>
		<path class="st2" d="M-166.3-494.3c-0.6-1-1.8-1.3-2.7-0.7c-1,0.6-1.3,1.8-0.7,2.7l1,1.7c0.4,0.6,1,1,1.7,1c0.3,0,0.7-0.1,1-0.3
			c1-0.6,1.3-1.8,0.7-2.7L-166.3-494.3z"/>
		<path class="st2" d="M-171.3-503c-0.6-1-1.8-1.3-2.7-0.7c-1,0.6-1.3,1.8-0.7,2.7l1,1.7c0.4,0.6,1,1,1.7,1c0.3,0,0.7-0.1,1-0.3
			c1-0.6,1.3-1.8,0.7-2.7L-171.3-503z"/>
		<path class="st2" d="M-169-498.5c0.3,0.2,0.7,0.3,1,0.3c0.7,0,1.4-0.4,1.7-1l1-1.7c0.6-1,0.2-2.2-0.7-2.7c-1-0.6-2.2-0.2-2.7,0.7
			l-1,1.7C-170.3-500.3-170-499.1-169-498.5z"/>
		<path class="st2" d="M-171-495.1c-1-0.6-2.2-0.2-2.7,0.7l-1,1.7c-0.6,1-0.2,2.2,0.7,2.7c0.3,0.2,0.7,0.3,1,0.3
			c0.7,0,1.4-0.4,1.7-1l1-1.7C-169.7-493.3-170-494.5-171-495.1z"/>
		<path class="st2" d="M-172-496.8c0-1.1-0.9-2-2-2h-2c-1.1,0-2,0.9-2,2c0,1.1,0.9,2,2,2h2C-172.9-494.8-172-495.7-172-496.8z"/>
		<path class="st2" d="M-164-498.8h-2c-1.1,0-2,0.9-2,2c0,1.1,0.9,2,2,2h2c1.1,0,2-0.9,2-2C-162-497.9-162.9-498.8-164-498.8z"/>
	</g>
	<g>
		<path class="st2" d="M-70.3-500.3c-0.6-1-1.8-1.3-2.7-0.7c-1,0.6-1.3,1.8-0.7,2.7l1,1.7c0.4,0.6,1,1,1.7,1c0.3,0,0.7-0.1,1-0.3
			c1-0.6,1.3-1.8,0.7-2.7L-70.3-500.3z"/>
		<path class="st2" d="M-75-501.1c-1-0.6-2.2-0.2-2.7,0.7l-1,1.7c-0.6,1-0.2,2.2,0.7,2.7c0.3,0.2,0.7,0.3,1,0.3c0.7,0,1.4-0.4,1.7-1
			l1-1.7C-73.7-499.3-74-500.5-75-501.1z"/>
		<path class="st2" d="M-76-502.8c0-1.1-0.9-2-2-2h-2c-1.1,0-2,0.9-2,2c0,1.1,0.9,2,2,2h2C-76.9-500.8-76-501.7-76-502.8z"/>
		<path class="st2" d="M-68-504.8h-2c-1.1,0-2,0.9-2,2c0,1.1,0.9,2,2,2h2c1.1,0,2-0.9,2-2C-66-503.9-66.9-504.8-68-504.8z"/>
		<path class="st2" d="M-48-530c-0.5,0-1.1,0.1-1.7,0.2C-51.8-537-58.3-542-66-542c-7.7,0-14.2,5-16.3,12.2
			c-0.6-0.1-1.2-0.2-1.7-0.2c-6.1,0-11,4.9-11,11s4.9,11,11,11h5c0,0.3,0.1,0.7,0.3,1l1,1.7c0.4,0.6,1,1,1.7,1c0.3,0,0.7-0.1,1-0.3
			c1-0.6,1.3-1.8,0.7-2.7l-0.4-0.7h1.4l-0.4,0.7c-0.6,1-0.2,2.2,0.7,2.7c0.3,0.2,0.7,0.3,1,0.3c0.7,0,1.4-0.4,1.7-1l1-1.7
			c0.2-0.3,0.3-0.7,0.3-1h21c6.1,0,11-4.9,11-11S-41.9-530-48-530z"/>
		<path class="st2" d="M-53.3-495.3c-0.6-1-1.8-1.3-2.7-0.7c-1,0.6-1.3,1.8-0.7,2.7l1,1.7c0.4,0.6,1,1,1.7,1c0.3,0,0.7-0.1,1-0.3
			c1-0.6,1.3-1.8,0.7-2.7L-53.3-495.3z"/>
		<path class="st2" d="M-58.3-504c-0.6-1-1.8-1.3-2.7-0.7c-1,0.6-1.3,1.8-0.7,2.7l1,1.7c0.4,0.6,1,1,1.7,1c0.3,0,0.7-0.1,1-0.3
			c1-0.6,1.3-1.8,0.7-2.7L-58.3-504z"/>
		<path class="st2" d="M-56-499.5c0.3,0.2,0.7,0.3,1,0.3c0.7,0,1.4-0.4,1.7-1l1-1.7c0.6-1,0.2-2.2-0.7-2.7c-1-0.6-2.2-0.2-2.7,0.7
			l-1,1.7C-57.3-501.3-57-500.1-56-499.5z"/>
		<path class="st2" d="M-58-496.1c-1-0.6-2.2-0.2-2.7,0.7l-1,1.7c-0.6,1-0.2,2.2,0.7,2.7c0.3,0.2,0.7,0.3,1,0.3c0.7,0,1.4-0.4,1.7-1
			l1-1.7C-56.7-494.3-57-495.5-58-496.1z"/>
		<path class="st2" d="M-59-497.8c0-1.1-0.9-2-2-2h-2c-1.1,0-2,0.9-2,2c0,1.1,0.9,2,2,2h2C-59.9-495.8-59-496.7-59-497.8z"/>
		<path class="st2" d="M-51-499.8h-2c-1.1,0-2,0.9-2,2c0,1.1,0.9,2,2,2h2c1.1,0,2-0.9,2-2C-49-498.9-49.9-499.8-51-499.8z"/>
	</g>
	<g>
		<path class="st2" d="M43.7-500.3c-0.6-1-1.8-1.3-2.7-0.7c-1,0.6-1.3,1.8-0.7,2.7l1,1.7c0.4,0.6,1,1,1.7,1c0.3,0,0.7-0.1,1-0.3
			c1-0.6,1.3-1.8,0.7-2.7L43.7-500.3z"/>
		<path class="st2" d="M39-501.1c-1-0.6-2.2-0.2-2.7,0.7l-1,1.7c-0.6,1-0.2,2.2,0.7,2.7c0.3,0.2,0.7,0.3,1,0.3c0.7,0,1.4-0.4,1.7-1
			l1-1.7C40.3-499.3,40-500.5,39-501.1z"/>
		<path class="st2" d="M38-502.8c0-1.1-0.9-2-2-2h-2c-1.1,0-2,0.9-2,2c0,1.1,0.9,2,2,2h2C37.1-500.8,38-501.7,38-502.8z"/>
		<path class="st2" d="M46-504.8h-2c-1.1,0-2,0.9-2,2c0,1.1,0.9,2,2,2h2c1.1,0,2-0.9,2-2C48-503.9,47.1-504.8,46-504.8z"/>
		<path class="st2" d="M66-530c-0.5,0-1.1,0.1-1.7,0.2C62.2-537,55.7-542,48-542c-7.7,0-14.2,5-16.3,12.2c-0.6-0.1-1.2-0.2-1.7-0.2
			c-6.1,0-11,4.9-11,11s4.9,11,11,11h5c0,0.3,0.1,0.7,0.3,1l1,1.7c0.4,0.6,1,1,1.7,1c0.3,0,0.7-0.1,1-0.3c1-0.6,1.3-1.8,0.7-2.7
			l-0.4-0.7h1.4l-0.4,0.7c-0.6,1-0.2,2.2,0.7,2.7c0.3,0.2,0.7,0.3,1,0.3c0.7,0,1.4-0.4,1.7-1l1-1.7c0.2-0.3,0.3-0.7,0.3-1h21
			c6.1,0,11-4.9,11-11S72.1-530,66-530z"/>
		<path class="st2" d="M60.7-495.3c-0.6-1-1.8-1.3-2.7-0.7c-1,0.6-1.3,1.8-0.7,2.7l1,1.7c0.4,0.6,1,1,1.7,1c0.3,0,0.7-0.1,1-0.3
			c1-0.6,1.3-1.8,0.7-2.7L60.7-495.3z"/>
		<path class="st2" d="M55.7-504c-0.6-1-1.8-1.3-2.7-0.7c-1,0.6-1.3,1.8-0.7,2.7l1,1.7c0.4,0.6,1,1,1.7,1c0.3,0,0.7-0.1,1-0.3
			c1-0.6,1.3-1.8,0.7-2.7L55.7-504z"/>
		<path class="st2" d="M58-499.5c0.3,0.2,0.7,0.3,1,0.3c0.7,0,1.4-0.4,1.7-1l1-1.7c0.6-1,0.2-2.2-0.7-2.7c-1-0.6-2.2-0.2-2.7,0.7
			l-1,1.7C56.7-501.3,57-500.1,58-499.5z"/>
		<path class="st2" d="M56-496.1c-1-0.6-2.2-0.2-2.7,0.7l-1,1.7c-0.6,1-0.2,2.2,0.7,2.7c0.3,0.2,0.7,0.3,1,0.3c0.7,0,1.4-0.4,1.7-1
			l1-1.7C57.3-494.3,57-495.5,56-496.1z"/>
		<path class="st2" d="M55-497.8c0-1.1-0.9-2-2-2h-2c-1.1,0-2,0.9-2,2c0,1.1,0.9,2,2,2h2C54.1-495.8,55-496.7,55-497.8z"/>
		<path class="st2" d="M63-499.8h-2c-1.1,0-2,0.9-2,2c0,1.1,0.9,2,2,2h2c1.1,0,2-0.9,2-2C65-498.9,64.1-499.8,63-499.8z"/>
	</g>
	<g>
		<path class="st1" d="M166.6-505.4l-2.6,2.6v-5.2c0-1.1-0.9-2-2-2c-1.1,0-2,0.9-2,2v5.2l-2.6-2.6c-0.8-0.8-2-0.8-2.8,0
			c-0.8,0.8-0.8,2,0,2.8l6,6c0.4,0.4,0.9,0.6,1.4,0.6c0.5,0,1-0.2,1.4-0.6l6-6c0.8-0.8,0.8-2,0-2.8
			C168.6-506.2,167.4-506.2,166.6-505.4z"/>
		<path class="st1" d="M171.9-531.9c-1-1-2-1.8-3.2-2.4c-1.6-0.9-3.4-1.4-5.2-1.6c-0.5,0-0.9-0.1-1.4-0.1c-7.7,0-14,6.3-14,14
			c0,1.5,0.3,3.1,0.7,4.5c0.3,0.9,0.7,1.7,1.1,2.5c0.4,0.6,1,1,1.7,1l0,0h20.8c0.2,0,0.4,0,0.5-0.1c0.5-0.1,0.9-0.5,1.2-0.9
			c0.5-0.8,0.8-1.6,1.1-2.5c0.5-1.4,0.7-3,0.7-4.5c0-2.9-0.9-5.6-2.4-7.8C173.1-530.6,172.5-531.3,171.9-531.9z M162.2-532
			c-0.5,0-1,0-1.4,0.1h0c0.4-0.1,0.8-0.1,1.2-0.1C162.1-532,162.1-532,162.2-532z M152.8-518C152.8-518,152.8-518,152.8-518
			C152.8-518,152.9-518,152.8-518L152.8-518z"/>
	</g>
	<g>
		<path class="st1" d="M277.4-509.4c-0.8-0.8-2-0.8-2.8,0l-6,6c-0.8,0.8-0.8,2,0,2.8c0.8,0.8,2,0.8,2.8,0l2.6-2.6v5.2
			c0,1.1,0.9,2,2,2c1.1,0,2-0.9,2-2v-5.2l2.6,2.6c0.4,0.4,0.9,0.6,1.4,0.6c0.5,0,1-0.2,1.4-0.6c0.8-0.8,0.8-2,0-2.8L277.4-509.4z"/>
		<path class="st1" d="M285.9-531.9c-1-1-2-1.8-3.2-2.4c-1.6-0.9-3.4-1.4-5.2-1.6c-0.5,0-0.9-0.1-1.4-0.1c-7.7,0-14,6.3-14,14
			c0,1.5,0.3,3.1,0.7,4.5c0.3,0.9,0.7,1.7,1.1,2.5c0.4,0.6,1,1,1.7,1l0,0h20.8c0.2,0,0.4,0,0.5-0.1c0.5-0.1,0.9-0.5,1.2-0.9
			c0.5-0.8,0.8-1.6,1.1-2.5c0.5-1.4,0.7-3,0.7-4.5c0-2.9-0.9-5.6-2.4-7.8C287.1-530.6,286.5-531.3,285.9-531.9z M276.2-532
			c-0.5,0-1,0-1.4,0.1h0c0.4-0.1,0.8-0.1,1.2-0.1C276.1-532,276.1-532,276.2-532z M266.8-518C266.8-518,266.8-518,266.8-518
			C266.8-518,266.9-518,266.8-518L266.8-518z"/>
	</g>
	<path class="st2" d="M-162-416c-0.5,0-1.1,0.1-1.7,0.2c-2.1-7.2-8.6-12.2-16.3-12.2c-7.7,0-14.2,5-16.3,12.2
		c-0.6-0.1-1.2-0.2-1.7-0.2c-6.1,0-11,4.9-11,11s4.9,11,11,11h5.4l-2.4,9.5c-0.3,1.1,0.4,2.2,1.5,2.4c0.2,0,0.3,0.1,0.5,0.1
		c0.9,0,1.7-0.6,1.9-1.5l2.6-10.5h5.4l-3.9,15.5c-0.3,1.1,0.4,2.2,1.5,2.4c0.2,0,0.3,0.1,0.5,0.1c0.9,0,1.7-0.6,1.9-1.5l4.1-16.5
		h5.4l-2.4,9.5c-0.3,1.1,0.4,2.2,1.5,2.4c0.2,0,0.3,0.1,0.5,0.1c0.9,0,1.7-0.6,1.9-1.5l2.6-10.5h7.4c6.1,0,11-4.9,11-11
		S-155.9-416-162-416z"/>
	<path class="st2" d="M-48-416c-0.5,0-1.1,0.1-1.7,0.2C-51.8-423-58.3-428-66-428c-7.7,0-14.2,5-16.3,12.2c-0.6-0.1-1.2-0.2-1.7-0.2
		c-6.1,0-11,4.9-11,11s4.9,11,11,11h5.4l-2.4,9.5c-0.3,1.1,0.4,2.2,1.5,2.4c0.2,0,0.3,0.1,0.5,0.1c0.9,0,1.7-0.6,1.9-1.5l2.6-10.5
		h5.4l-3.9,15.5c-0.3,1.1,0.4,2.2,1.5,2.4c0.2,0,0.3,0.1,0.5,0.1c0.9,0,1.7-0.6,1.9-1.5l4.1-16.5h5.4l-2.4,9.5
		c-0.3,1.1,0.4,2.2,1.5,2.4c0.2,0,0.3,0.1,0.5,0.1c0.9,0,1.7-0.6,1.9-1.5l2.6-10.5h7.4c6.1,0,11-4.9,11-11S-41.9-416-48-416z"/>
	<path class="st2" d="M66-416c-0.5,0-1.1,0.1-1.7,0.2C62.2-423,55.7-428,48-428c-7.7,0-14.2,5-16.3,12.2c-0.6-0.1-1.2-0.2-1.7-0.2
		c-6.1,0-11,4.9-11,11s4.9,11,11,11h5.4l-2.4,9.5c-0.3,1.1,0.4,2.2,1.5,2.4c0.2,0,0.3,0.1,0.5,0.1c0.9,0,1.7-0.6,1.9-1.5l2.6-10.5
		h5.4l-3.9,15.5c-0.3,1.1,0.4,2.2,1.5,2.4c0.2,0,0.3,0.1,0.5,0.1c0.9,0,1.7-0.6,1.9-1.5l4.1-16.5h5.4l-2.4,9.5
		c-0.3,1.1,0.4,2.2,1.5,2.4c0.2,0,0.3,0.1,0.5,0.1c0.9,0,1.7-0.6,1.9-1.5l2.6-10.5H66c6.1,0,11-4.9,11-11S72.1-416,66-416z"/>
	<g>
		<path class="st5" d="M261-418h12c1.1,0,2-0.9,2-2s-0.9-2-2-2h-12c-1.1,0-2,0.9-2,2S259.9-418,261-418z"/>
		<path class="st5" d="M249-412h24c1.1,0,2-0.9,2-2s-0.9-2-2-2h-24c-1.1,0-2,0.9-2,2S247.9-412,249-412z"/>
		<path class="st5" d="M243-406h24c1.1,0,2-0.9,2-2s-0.9-2-2-2h-24c-1.1,0-2,0.9-2,2S241.9-406,243-406z"/>
		<path class="st5" d="M302-402c0-1.1-0.9-2-2-2h-60c-1.1,0-2,0.9-2,2s0.9,2,2,2h60C301.1-400,302-400.9,302-402z"/>
		<path class="st5" d="M300-398h-57c-1.1,0-2,0.9-2,2s0.9,2,2,2h57c1.1,0,2-0.9,2-2S301.1-398,300-398z"/>
		<path class="st5" d="M261-392l-12,0c-1.1,0-2,0.9-2,2s0.9,2,2,2l12,0c1.1,0,2-0.9,2-2S262.1-392,261-392z"/>
		<path class="st5" d="M280-412h8c1.1,0,2-0.9,2-2s-0.9-2-2-2h-8c-1.1,0-2,0.9-2,2S278.9-412,280-412z"/>
		<path class="st5" d="M271-408c0,1.1,0.9,2,2,2h21c1.1,0,2-0.9,2-2s-0.9-2-2-2h-21C271.9-410,271-409.1,271-408z"/>
		<path class="st5" d="M294-392l-27,0c-1.1,0-2,0.9-2,2s0.9,2,2,2l27,0c1.1,0,2-0.9,2-2S295.1-392,294-392z"/>
	</g>
	<path class="st4" d="M-48-302c-0.5,0-1.1,0.1-1.7,0.2C-51.8-309-58.3-314-66-314c-7.7,0-14.2,5-16.3,12.2c-0.6-0.1-1.2-0.2-1.7-0.2
		c-6.1,0-11,4.9-11,11s4.9,11,11,11h36c6.1,0,11-4.9,11-11S-41.9-302-48-302z"/>
	<g>
		<path class="st2" d="M21-289c1.1,0,2-0.9,2-2c0-3.9,3.1-7,7-7c0.3,0,0.7,0.1,1.2,0.2v1.8c0,1.1,0.9,2,2,2s2-0.9,2-2v-3.2
			c1.1-6.3,6.4-10.8,12.8-10.8c6.4,0,11.7,4.5,12.8,10.8v3.2c0,1.1,0.9,2,2,2s2-0.9,2-2v-1.8c0.5-0.1,0.9-0.2,1.2-0.2
			c3.9,0,7,3.1,7,7c0,1.1,0.9,2,2,2c1.1,0,2-0.9,2-2c0-6.1-4.9-11-11-11c-0.5,0-1.1,0.1-1.7,0.2C62.2-309,55.7-314,48-314
			c-7.7,0-14.2,5-16.3,12.2c-0.6-0.1-1.2-0.2-1.7-0.2c-6.1,0-11,4.9-11,11C19-289.9,19.9-289,21-289z"/>
		<path class="st2" d="M40-283c0,1.1,0.9,2,2,2h36c1.1,0,2-0.9,2-2s-0.9-2-2-2H42C40.9-285,40-284.1,40-283z"/>
		<path class="st2" d="M48-278c-1.1,0-2,0.9-2,2s0.9,2,2,2h27c1.1,0,2-0.9,2-2s-0.9-2-2-2H48z"/>
		<path class="st2" d="M78-271H54c-1.1,0-2,0.9-2,2s0.9,2,2,2h24c1.1,0,2-0.9,2-2S79.1-271,78-271z"/>
		<path class="st2" d="M18-281h18c1.1,0,2-0.9,2-2s-0.9-2-2-2H18c-1.1,0-2,0.9-2,2S16.9-281,18-281z"/>
		<path class="st2" d="M21-278c-1.1,0-2,0.9-2,2s0.9,2,2,2h21c1.1,0,2-0.9,2-2s-0.9-2-2-2H21z"/>
		<path class="st2" d="M48-271H18c-1.1,0-2,0.9-2,2s0.9,2,2,2h30c1.1,0,2-0.9,2-2S49.1-271,48-271z"/>
	</g>
	<path class="st4" d="M66-302c-0.5,0-1.1,0.1-1.7,0.2C62.2-309,55.7-314,48-314c-7.7,0-14.2,5-16.3,12.2c-0.6-0.1-1.2-0.2-1.7-0.2
		c-6.1,0-11,4.9-11,11s4.9,11,11,11h36c6.1,0,11-4.9,11-11S72.1-302,66-302z"/>
	<g>
		<path class="st2" d="M135-289c1.1,0,2-0.9,2-2c0-3.9,3.1-7,7-7c0.3,0,0.7,0.1,1.2,0.2v1.8c0,1.1,0.9,2,2,2c1.1,0,2-0.9,2-2v-3.2
			c1.1-6.3,6.4-10.8,12.8-10.8c6.4,0,11.7,4.5,12.8,10.8v3.2c0,1.1,0.9,2,2,2c1.1,0,2-0.9,2-2v-1.8c0.5-0.1,0.9-0.2,1.2-0.2
			c3.9,0,7,3.1,7,7c0,1.1,0.9,2,2,2c1.1,0,2-0.9,2-2c0-6.1-4.9-11-11-11c-0.5,0-1.1,0.1-1.7,0.2c-2.1-7.2-8.6-12.2-16.3-12.2
			c-7.7,0-14.2,5-16.3,12.2c-0.6-0.1-1.2-0.2-1.7-0.2c-6.1,0-11,4.9-11,11C133-289.9,133.9-289,135-289z"/>
		<path class="st2" d="M154-283c0,1.1,0.9,2,2,2h36c1.1,0,2-0.9,2-2s-0.9-2-2-2h-36C154.9-285,154-284.1,154-283z"/>
		<path class="st2" d="M162-278c-1.1,0-2,0.9-2,2s0.9,2,2,2h27c1.1,0,2-0.9,2-2s-0.9-2-2-2H162z"/>
		<path class="st2" d="M192-271h-24c-1.1,0-2,0.9-2,2s0.9,2,2,2h24c1.1,0,2-0.9,2-2S193.1-271,192-271z"/>
		<path class="st2" d="M132-281h18c1.1,0,2-0.9,2-2s-0.9-2-2-2h-18c-1.1,0-2,0.9-2,2S130.9-281,132-281z"/>
		<path class="st2" d="M135-278c-1.1,0-2,0.9-2,2s0.9,2,2,2h21c1.1,0,2-0.9,2-2s-0.9-2-2-2H135z"/>
		<path class="st2" d="M162-271h-30c-1.1,0-2,0.9-2,2s0.9,2,2,2h30c1.1,0,2-0.9,2-2S163.1-271,162-271z"/>
	</g>
	<path class="st4" d="M180-302c-0.5,0-1.1,0.1-1.7,0.2c-2.1-7.2-8.6-12.2-16.3-12.2c-7.7,0-14.2,5-16.3,12.2
		c-0.6-0.1-1.2-0.2-1.7-0.2c-6.1,0-11,4.9-11,11s4.9,11,11,11h36c6.1,0,11-4.9,11-11S186.1-302,180-302z"/>
	<path class="st4" d="M294-308c-0.5,0-1.1,0.1-1.7,0.2c-2.1-7.2-8.6-12.2-16.3-12.2c-7.7,0-14.2,5-16.3,12.2
		c-0.6-0.1-1.2-0.2-1.7-0.2c-6.1,0-11,4.9-11,11s4.9,11,11,11h36c6.1,0,11-4.9,11-11S300.1-308,294-308z"/>
	<path class="st4" d="M180-872c-0.5,0-1.1,0.1-1.7,0.2c-2.1-7.2-8.6-12.2-16.3-12.2c-7.7,0-14.2,5-16.3,12.2
		c-0.6-0.1-1.2-0.2-1.7-0.2c-6.1,0-11,4.9-11,11s4.9,11,11,11h36c6.1,0,11-4.9,11-11S186.1-872,180-872z"/>
	<path class="st4" d="M294-872c-0.5,0-1.1,0.1-1.7,0.2c-2.1-7.2-8.6-12.2-16.3-12.2c-7.7,0-14.2,5-16.3,12.2
		c-0.6-0.1-1.2-0.2-1.7-0.2c-6.1,0-11,4.9-11,11s4.9,11,11,11h36c6.1,0,11-4.9,11-11S300.1-872,294-872z"/>
	<path class="st4" d="M-162-758c-0.5,0-1.1,0.1-1.7,0.2c-2.1-7.2-8.6-12.2-16.3-12.2c-7.7,0-14.2,5-16.3,12.2
		c-0.6-0.1-1.2-0.2-1.7-0.2c-6.1,0-11,4.9-11,11s4.9,11,11,11h36c6.1,0,11-4.9,11-11S-155.9-758-162-758z"/>
	<path class="st4" d="M-48-758c-0.5,0-1.1,0.1-1.7,0.2C-51.8-765-58.3-770-66-770c-7.7,0-14.2,5-16.3,12.2c-0.6-0.1-1.2-0.2-1.7-0.2
		c-6.1,0-11,4.9-11,11s4.9,11,11,11h36c6.1,0,11-4.9,11-11S-41.9-758-48-758z"/>
	<path class="st4" d="M66-758c-0.5,0-1.1,0.1-1.7,0.2C62.2-765,55.7-770,48-770c-7.7,0-14.2,5-16.3,12.2c-0.6-0.1-1.2-0.2-1.7-0.2
		c-6.1,0-11,4.9-11,11s4.9,11,11,11h36c6.1,0,11-4.9,11-11S72.1-758,66-758z"/>
	<path class="st4" d="M180-758c-0.5,0-1.1,0.1-1.7,0.2c-2.1-7.2-8.6-12.2-16.3-12.2c-7.7,0-14.2,5-16.3,12.2
		c-0.6-0.1-1.2-0.2-1.7-0.2c-6.1,0-11,4.9-11,11s4.9,11,11,11h36c6.1,0,11-4.9,11-11S186.1-758,180-758z"/>
	<path class="st4" d="M294-758c-0.5,0-1.1,0.1-1.7,0.2c-2.1-7.2-8.6-12.2-16.3-12.2c-7.7,0-14.2,5-16.3,12.2
		c-0.6-0.1-1.2-0.2-1.7-0.2c-6.1,0-11,4.9-11,11s4.9,11,11,11h36c6.1,0,11-4.9,11-11S300.1-758,294-758z"/>
	<path class="st4" d="M-162-644c-0.5,0-1.1,0.1-1.7,0.2c-2.1-7.2-8.6-12.2-16.3-12.2c-7.7,0-14.2,5-16.3,12.2
		c-0.6-0.1-1.2-0.2-1.7-0.2c-6.1,0-11,4.9-11,11s4.9,11,11,11h36c6.1,0,11-4.9,11-11S-155.9-644-162-644z"/>
	<path class="st4" d="M-48-644c-0.5,0-1.1,0.1-1.7,0.2C-51.8-651-58.3-656-66-656c-7.7,0-14.2,5-16.3,12.2c-0.6-0.1-1.2-0.2-1.7-0.2
		c-6.1,0-11,4.9-11,11s4.9,11,11,11h36c6.1,0,11-4.9,11-11S-41.9-644-48-644z"/>
	<path class="st4" d="M-161-529c-0.5,0-1.1,0.1-1.7,0.2c-2.1-7.2-8.6-12.2-16.3-12.2c-7.7,0-14.2,5-16.3,12.2
		c-0.6-0.1-1.2-0.2-1.7-0.2c-6.1,0-11,4.9-11,11c0,6.1,4.9,11,11,11h36c6.1,0,11-4.9,11-11C-150-524.1-154.9-529-161-529z"/>
	<path class="st4" d="M-48-530c-0.5,0-1.1,0.1-1.7,0.2C-51.8-537-58.3-542-66-542c-7.7,0-14.2,5-16.3,12.2c-0.6-0.1-1.2-0.2-1.7-0.2
		c-6.1,0-11,4.9-11,11s4.9,11,11,11h36c6.1,0,11-4.9,11-11S-41.9-530-48-530z"/>
	<path class="st4" d="M66-530c-0.5,0-1.1,0.1-1.7,0.2C62.2-537,55.7-542,48-542c-7.7,0-14.2,5-16.3,12.2c-0.6-0.1-1.2-0.2-1.7-0.2
		c-6.1,0-11,4.9-11,11s4.9,11,11,11h36c6.1,0,11-4.9,11-11S72.1-530,66-530z"/>
	<path class="st4" d="M-162-416c-0.5,0-1.1,0.1-1.7,0.2c-2.1-7.2-8.6-12.2-16.3-12.2c-7.7,0-14.2,5-16.3,12.2
		c-0.6-0.1-1.2-0.2-1.7-0.2c-6.1,0-11,4.9-11,11s4.9,11,11,11h36c6.1,0,11-4.9,11-11S-155.9-416-162-416z"/>
	<path class="st4" d="M-48-416c-0.5,0-1.1,0.1-1.7,0.2C-51.8-423-58.3-428-66-428c-7.7,0-14.2,5-16.3,12.2c-0.6-0.1-1.2-0.2-1.7-0.2
		c-6.1,0-11,4.9-11,11s4.9,11,11,11h36c6.1,0,11-4.9,11-11S-41.9-416-48-416z"/>
	<path class="st4" d="M66-416c-0.5,0-1.1,0.1-1.7,0.2C62.2-423,55.7-428,48-428c-7.7,0-14.2,5-16.3,12.2c-0.6-0.1-1.2-0.2-1.7-0.2
		c-6.1,0-11,4.9-11,11s4.9,11,11,11h36c6.1,0,11-4.9,11-11S72.1-416,66-416z"/>
	<path class="st4" d="M-162-188c-0.5,0-1.1,0.1-1.7,0.2c-2.1-7.2-8.6-12.2-16.3-12.2c-7.7,0-14.2,5-16.3,12.2
		c-0.6-0.1-1.2-0.2-1.7-0.2c-6.1,0-11,4.9-11,11s4.9,11,11,11h36c6.1,0,11-4.9,11-11S-155.9-188-162-188z"/>
	<path class="st4" d="M-162-74c-0.5,0-1.1,0.1-1.7,0.2C-165.8-81-172.3-86-180-86c-7.7,0-14.2,5-16.3,12.2c-0.6-0.1-1.2-0.2-1.7-0.2
		c-6.1,0-11,4.9-11,11s4.9,11,11,11h36c6.1,0,11-4.9,11-11S-155.9-74-162-74z"/>
	<path class="st4" d="M180-74c-0.5,0-1.1,0.1-1.7,0.2C176.2-81,169.7-86,162-86c-7.7,0-14.2,5-16.3,12.2c-0.6-0.1-1.2-0.2-1.7-0.2
		c-6.1,0-11,4.9-11,11s4.9,11,11,11h36c6.1,0,11-4.9,11-11S186.1-74,180-74z"/>
	<path class="st4" d="M180-188c-0.5,0-1.1,0.1-1.7,0.2c-2.1-7.2-8.6-12.2-16.3-12.2c-7.7,0-14.2,5-16.3,12.2
		c-0.6-0.1-1.2-0.2-1.7-0.2c-6.1,0-11,4.9-11,11s4.9,11,11,11h36c6.1,0,11-4.9,11-11S186.1-188,180-188z"/>
	<path class="st2" d="M-77.6-164.2c-0.8,1.1-3.4,4.7-3.4,7.2c0,2.9,2.1,5,5,5c2.9,0,5-2.1,5-5c0-2.5-2.6-6.1-3.4-7.2
		C-75.2-165.2-76.8-165.2-77.6-164.2z"/>
	<path class="st2" d="M-59.6-164.2c-0.8,1.1-3.4,4.7-3.4,7.2c0,2.9,2.1,5,5,5c2.9,0,5-2.1,5-5c0-2.5-2.6-6.1-3.4-7.2
		C-57.2-165.2-58.8-165.2-59.6-164.2z"/>
	<path class="st2" d="M-68.6-153.2c-0.8,1.1-3.4,4.7-3.4,7.2c0,2.9,2.1,5,5,5c2.9,0,5-2.1,5-5c0-2.5-2.6-6.1-3.4-7.2
		C-66.2-154.2-67.8-154.2-68.6-153.2z"/>
	<path class="st4" d="M-48-188c-0.5,0-1.1,0.1-1.7,0.2C-51.8-195-58.3-200-66-200c-7.7,0-14.2,5-16.3,12.2c-0.6-0.1-1.2-0.2-1.7-0.2
		c-6.1,0-11,4.9-11,11s4.9,11,11,11h36c6.1,0,11-4.9,11-11S-41.9-188-48-188z"/>
	<path class="st2" d="M-191.6-164.2c-0.8,1.1-3.4,4.7-3.4,7.2c0,2.9,2.1,5,5,5s5-2.1,5-5c0-2.5-2.6-6.1-3.4-7.2
		C-189.2-165.3-190.8-165.3-191.6-164.2z"/>
	<path class="st2" d="M-173.6-164.2c-0.8,1.1-3.4,4.7-3.4,7.2c0,2.9,2.1,5,5,5s5-2.1,5-5c0-2.5-2.6-6.1-3.4-7.2
		C-171.2-165.3-172.8-165.3-173.6-164.2z"/>
	<path class="st2" d="M-182.6-153.2c-0.8,1.1-3.4,4.7-3.4,7.2c0,2.9,2.1,5,5,5s5-2.1,5-5c0-2.5-2.6-6.1-3.4-7.2
		C-180.2-154.3-181.8-154.3-182.6-153.2z"/>
	<path class="st2" d="M50.7-164.4c-0.7-0.8-2.1-0.8-2.8,0c-0.6,0.7-5.9,7-5.9,12.1c0,1.9,0.6,3.6,1.8,5c0.9,1.1,2.6,2.3,5.5,2.3
		c4.8,0,7.3-3.7,7.3-7.3C56.5-157.4,51.3-163.7,50.7-164.4z M49.3-147.7C49.3-147.7,49.3-147.7,49.3-147.7l0,0.9L49.3-147.7z"/>
	<path class="st4" d="M66-188c-0.5,0-1.1,0.1-1.7,0.2C62.2-195,55.7-200,48-200c-7.7,0-14.2,5-16.3,12.2c-0.6-0.1-1.2-0.2-1.7-0.2
		c-6.1,0-11,4.9-11,11s4.9,11,11,11h36c6.1,0,11-4.9,11-11S72.1-188,66-188z"/>
	<path class="st2" d="M165.1-164.4c-0.7-0.8-2.1-0.8-2.8,0c-0.6,0.7-5.9,7-5.9,12.1c0,1.9,0.6,3.6,1.8,5c0.9,1.1,2.6,2.3,5.5,2.3
		c4.8,0,7.3-3.7,7.3-7.3C171-157.3,165.7-163.7,165.1-164.4z M163.7-147.7L163.7-147.7l0,0.9L163.7-147.7z"/>
	<path class="st4" d="M66-74c-0.5,0-1.1,0.1-1.7,0.2C62.2-81,55.7-86,48-86c-7.7,0-14.2,5-16.3,12.2C31.1-73.9,30.5-74,30-74
		c-6.1,0-11,4.9-11,11s4.9,11,11,11h36c6.1,0,11-4.9,11-11S72.1-74,66-74z"/>
	<path class="st4" d="M-48-74c-0.5,0-1.1,0.1-1.7,0.2C-51.8-81-58.3-86-66-86c-7.7,0-14.2,5-16.3,12.2c-0.6-0.1-1.2-0.2-1.7-0.2
		c-6.1,0-11,4.9-11,11s4.9,11,11,11h36c6.1,0,11-4.9,11-11S-41.9-74-48-74z"/>
	<path class="st4" d="M294-74c-0.5,0-1.1,0.1-1.7,0.2C290.2-81,283.7-86,276-86c-7.7,0-14.2,5-16.3,12.2c-0.6-0.1-1.2-0.2-1.7-0.2
		c-6.1,0-11,4.9-11,11s4.9,11,11,11h36c6.1,0,11-4.9,11-11S300.1-74,294-74z"/>
	<path class="st4" d="M294-188c-0.5,0-1.1,0.1-1.7,0.2c-2.1-7.2-8.6-12.2-16.3-12.2c-7.7,0-14.2,5-16.3,12.2
		c-0.6-0.1-1.2-0.2-1.7-0.2c-6.1,0-11,4.9-11,11s4.9,11,11,11h36c6.1,0,11-4.9,11-11S300.1-188,294-188z"/>
	<path class="st2" d="M279.1-164.4c-0.7-0.8-2.1-0.8-2.8,0c-0.6,0.7-5.9,7-5.9,12.1c0,1.9,0.6,3.6,1.8,5c0.9,1.1,2.6,2.3,5.5,2.3
		c4.8,0,7.3-3.7,7.3-7.3C285-157.3,279.7-163.7,279.1-164.4z M277.7-147.7L277.7-147.7l0,0.9L277.7-147.7z"/>
	<path class="st4" d="M-162,40c-0.5,0-1.1,0.1-1.7,0.2C-165.8,33-172.3,28-180,28c-7.7,0-14.2,5-16.3,12.2c-0.6-0.1-1.2-0.2-1.7-0.2
		c-6.1,0-11,4.9-11,11s4.9,11,11,11h36c6.1,0,11-4.9,11-11S-155.9,40-162,40z"/>
	<path class="st4" d="M294.8,39.4c-0.5,0-1.1,0.1-1.7,0.2C291,32.2,284.3,27,276.5,27c-7.8,0-14.5,5.2-16.6,12.5
		c-0.6-0.1-1.2-0.2-1.7-0.2c-6.2,0-11.2,5.1-11.2,11.3c0,6.2,5,11.3,11.2,11.3h36.6c6.2,0,11.2-5.1,11.2-11.3
		C306,44.4,301,39.4,294.8,39.4z"/>
	<path class="st4" d="M181,39c-0.5,0-1.1,0.1-1.7,0.2C177.2,32,170.7,27,163,27c-7.7,0-14.2,5-16.3,12.2c-0.6-0.1-1.2-0.2-1.7-0.2
		c-6.1,0-11,4.9-11,11s4.9,11,11,11h36c6.1,0,11-4.9,11-11S187.1,39,181,39z"/>
	<g>
		<path class="st5" d="M-195-304h12c1.1,0,2-0.9,2-2s-0.9-2-2-2h-12c-1.1,0-2,0.9-2,2S-196.1-304-195-304z"/>
		<path class="st5" d="M-207-298h24c1.1,0,2-0.9,2-2s-0.9-2-2-2h-24c-1.1,0-2,0.9-2,2S-208.1-298-207-298z"/>
		<path class="st5" d="M-213-292h24c1.1,0,2-0.9,2-2s-0.9-2-2-2h-24c-1.1,0-2,0.9-2,2S-214.1-292-213-292z"/>
		<path class="st5" d="M-154-288c0-1.1-0.9-2-2-2h-60c-1.1,0-2,0.9-2,2s0.9,2,2,2h60C-154.9-286-154-286.9-154-288z"/>
		<path class="st5" d="M-156-284h-57c-1.1,0-2,0.9-2,2s0.9,2,2,2h57c1.1,0,2-0.9,2-2S-154.9-284-156-284z"/>
		<path class="st5" d="M-195-278l-12,0c-1.1,0-2,0.9-2,2s0.9,2,2,2l12,0c1.1,0,2-0.9,2-2S-193.9-278-195-278z"/>
		<path class="st5" d="M-176-298h8c1.1,0,2-0.9,2-2s-0.9-2-2-2h-8c-1.1,0-2,0.9-2,2S-177.1-298-176-298z"/>
		<path class="st5" d="M-185-294c0,1.1,0.9,2,2,2h21c1.1,0,2-0.9,2-2s-0.9-2-2-2h-21C-184.1-296-185-295.1-185-294z"/>
		<path class="st5" d="M-162-278l-27,0c-1.1,0-2,0.9-2,2s0.9,2,2,2l27,0c1.1,0,2-0.9,2-2S-160.9-278-162-278z"/>
	</g>
	<g>
		<path class="st1" d="M-80-1200c0,2.4,0.7,4.9,1.9,7c0.4,0.6,1,1,1.7,1h20.8c0.7,0,1.4-0.4,1.7-1c1.2-2.1,1.9-4.6,1.9-7
			c0-7.7-6.3-14-14-14S-80-1207.7-80-1200z M-75.2-1196C-75.2-1196-75.2-1196-75.2-1196C-75.2-1196-75.1-1196-75.2-1196L-75.2-1196z
			 M-67.2-1209.9c0.4-0.1,0.8-0.1,1.2-0.1c0.1,0,0.1,0,0.2,0C-66.3-1210-66.8-1210-67.2-1209.9z"/>
		<polygon class="st1" points="-65.9,-1226.4 -70.8,-1217.9 -61,-1217.9 		"/>
		<polygon class="st1" points="-83.9,-1204.8 -92.4,-1199.8 -83.9,-1194.9 		"/>
		<polygon class="st1" points="-47.9,-1194.9 -39.4,-1199.8 -47.9,-1204.8 		"/>
		<polygon class="st1" points="-49.2,-1216.6 -54.7,-1214.9 -50.9,-1211.1 		"/>
		<polygon class="st1" points="-81,-1211.1 -77.2,-1214.9 -82.7,-1216.6 		"/>
	</g>
	<g>
		<path class="st1" d="M60.3-1200.6c-2.4-4.4-7-7.4-12.3-7.4c-7.7,0-14,6.3-14,14c0,1.1,0.9,2,2,2h24c1.1,0,2-0.9,2-2
			c0-2-0.4-3.9-1.2-5.6C60.7-1200,60.5-1200.3,60.3-1200.6z"/>
		<path class="st1" d="M38.7-1189.9L38.7-1189.9C38.7-1189.9,38.7-1189.9,38.7-1189.9C38.7-1189.9,38.7-1189.9,38.7-1189.9z"/>
		<polygon class="st1" points="47.9,-1220.2 43,-1211.7 52.8,-1211.7 		"/>
		<polygon class="st1" points="59.1,-1208.8 63,-1204.9 64.7,-1210.5 		"/>
		<polygon class="st1" points="31.1,-1210.5 32.8,-1204.9 36.7,-1208.8 		"/>
	</g>
	<g>
		<path class="st1" d="M162-1202c-5,0-9.6,2.7-12.1,7c-0.4,0.6-0.4,1.4,0,2c0.4,0.6,1,1,1.7,1h20.8c0.7,0,1.4-0.4,1.7-1
			c0.4-0.6,0.4-1.4,0-2C171.6-1199.3,167-1202,162-1202z M161.8-1198c0.1,0,0.1,0,0.2,0c0,0,0.1,0,0.1,0
			C162-1198,161.9-1198,161.8-1198z"/>
		<path class="st1" d="M152.8-1183.8L152.8-1183.8C152.8-1183.8,152.8-1183.8,152.8-1183.8C152.8-1183.8,152.8-1183.8,152.8-1183.8z
			"/>
		<polygon class="st1" points="162,-1214.2 157.1,-1205.7 166.9,-1205.7 		"/>
		<polygon class="st1" points="173.2,-1202.7 177,-1198.9 178.7,-1204.4 		"/>
		<polygon class="st1" points="145.2,-1204.4 146.9,-1198.9 150.7,-1202.7 		"/>
	</g>
	<g>
		<path class="st1" d="M147.9-521.6c0,2.4,0.7,4.9,1.9,7c0.4,0.6,1,1,1.7,1h20.8c0.7,0,1.4-0.4,1.7-1c1.2-2.1,1.9-4.6,1.9-7
			c0-7.7-6.3-14-14-14C154.2-535.6,147.9-529.4,147.9-521.6z M152.8-517.6C152.7-517.7,152.7-517.7,152.8-517.6
			C152.8-517.7,152.8-517.7,152.8-517.6L152.8-517.6z M160.7-531.6c0.4-0.1,0.8-0.1,1.2-0.1c0.1,0,0.1,0,0.2,0
			C161.6-531.6,161.1-531.6,160.7-531.6z"/>
		<polygon class="st1" points="162,-548 157.1,-539.5 166.9,-539.5 		"/>
		<polygon class="st1" points="144,-526.4 135.5,-521.5 144,-516.6 		"/>
		<polygon class="st1" points="180,-516.6 188.5,-521.5 180,-526.4 		"/>
		<polygon class="st1" points="178.7,-538.3 173.2,-536.6 177,-532.7 		"/>
		<polygon class="st1" points="146.9,-532.7 150.7,-536.6 145.2,-538.3 		"/>
	</g>
	<g>
		<path class="st1" d="M262.1-522c0,2.4,0.7,4.9,1.9,7c0.4,0.6,1,1,1.7,1h20.8c0.7,0,1.4-0.4,1.7-1c1.2-2.1,1.9-4.6,1.9-7
			c0-7.7-6.3-14-14-14C268.4-536,262.1-529.7,262.1-522z M266.9-518C266.9-518,266.9-518,266.9-518C266.9-518,267-518,266.9-518
			L266.9-518z M274.8-531.9c0.4-0.1,0.8-0.1,1.2-0.1c0.1,0,0.1,0,0.2,0C275.8-532,275.3-532,274.8-531.9z"/>
		<polygon class="st1" points="276.1,-548.4 271.2,-539.9 281,-539.9 		"/>
		<polygon class="st1" points="258.1,-526.8 249.7,-521.8 258.1,-516.9 		"/>
		<polygon class="st1" points="294.2,-516.9 302.7,-521.8 294.2,-526.8 		"/>
		<polygon class="st1" points="292.9,-538.6 287.3,-536.9 291.2,-533.1 		"/>
		<polygon class="st1" points="261.1,-533.1 264.9,-536.9 259.3,-538.6 		"/>
	</g>
	<g>
		<path class="st4" d="M66,39c-0.5,0-1.1,0.1-1.7,0.2C62.2,32,55.7,27,48,27c-7.7,0-14.2,5-16.3,12.2C31.1,39.1,30.5,39,30,39
			c-6.1,0-11,4.9-11,11s4.9,11,11,11h36c6.1,0,11-4.9,11-11S72.1,39,66,39z"/>
		<g>
			<path class="st5" d="M61.8,66l-30,0c-1.1,0-2,0.9-2,2s0.9,2,2,2l30,0c3.9,0,7,3.1,7,7s-3.1,7-7,7c-1.1,0-2,0.9-2,2s0.9,2,2,2
				c6.1,0,11-4.9,11-11S67.9,66,61.8,66z"/>
			<path class="st5" d="M55.8,72h-24c-1.1,0-2,0.9-2,2s0.9,2,2,2h24c0.6,0,1,0.4,1,1s-0.4,1-1,1c-1.1,0-2,0.9-2,2s0.9,2,2,2
				c2.8,0,5-2.2,5-5S58.6,72,55.8,72z"/>
			<path class="st5" d="M76.8,58c-1.1,0-2,0.9-2,2s0.9,2,2,2c0.6,0,1,0.4,1,1s-0.4,1-1,1h-4c-1.1,0-2,0.9-2,2s0.9,2,2,2h4
				c2.8,0,5-2.2,5-5C81.8,60.2,79.6,58,76.8,58z"/>
			<path class="st5" d="M31.8,64l33,0c4.4,0,8-3.6,8-8s-3.6-8-8-8c-4.4,0-8,3.6-8,8c0,1.1,0.9,2,2,2c1.1,0,2-0.9,2-2
				c0-2.2,1.8-4,4-4c2.2,0,4,1.8,4,4s-1.8,4-4,4l-33,0c-1.1,0-2,0.9-2,2S30.7,64,31.8,64z"/>
		</g>
	</g>
	<g>
		<path class="st5" d="M176.5,66l-30,0c-1.1,0-2,0.9-2,2s0.9,2,2,2l30,0c3.9,0,7,3.1,7,7s-3.1,7-7,7c-1.1,0-2,0.9-2,2s0.9,2,2,2
			c6.1,0,11-4.9,11-11S182.6,66,176.5,66z"/>
		<path class="st5" d="M170.5,72h-24c-1.1,0-2,0.9-2,2s0.9,2,2,2h24c0.6,0,1,0.4,1,1s-0.4,1-1,1c-1.1,0-2,0.9-2,2s0.9,2,2,2
			c2.8,0,5-2.2,5-5S173.3,72,170.5,72z"/>
		<path class="st5" d="M191.5,58c-1.1,0-2,0.9-2,2s0.9,2,2,2c0.6,0,1,0.4,1,1s-0.4,1-1,1h-4c-1.1,0-2,0.9-2,2s0.9,2,2,2h4
			c2.8,0,5-2.2,5-5C196.5,60.2,194.3,58,191.5,58z"/>
		<path class="st5" d="M146.5,64l33,0c4.4,0,8-3.6,8-8s-3.6-8-8-8s-8,3.6-8,8c0,1.1,0.9,2,2,2c1.1,0,2-0.9,2-2c0-2.2,1.8-4,4-4
			s4,1.8,4,4s-1.8,4-4,4l-33,0c-1.1,0-2,0.9-2,2S145.4,64,146.5,64z"/>
	</g>
	<g>
		<path class="st5" d="M291.3,66l-30,0c-1.1,0-2,0.9-2,2s0.9,2,2,2l30,0c3.9,0,7,3.1,7,7s-3.1,7-7,7c-1.1,0-2,0.9-2,2s0.9,2,2,2
			c6.1,0,11-4.9,11-11S297.3,66,291.3,66z"/>
		<path class="st5" d="M285.3,72h-24c-1.1,0-2,0.9-2,2s0.9,2,2,2h24c0.6,0,1,0.4,1,1s-0.4,1-1,1c-1.1,0-2,0.9-2,2s0.9,2,2,2
			c2.8,0,5-2.2,5-5S288,72,285.3,72z"/>
		<path class="st5" d="M306.3,58c-1.1,0-2,0.9-2,2s0.9,2,2,2c0.6,0,1,0.4,1,1s-0.4,1-1,1h-4c-1.1,0-2,0.9-2,2s0.9,2,2,2h4
			c2.8,0,5-2.2,5-5C311.3,60.2,309,58,306.3,58z"/>
		<path class="st5" d="M261.3,64l33,0c4.4,0,8-3.6,8-8s-3.6-8-8-8s-8,3.6-8,8c0,1.1,0.9,2,2,2s2-0.9,2-2c0-2.2,1.8-4,4-4
			c2.2,0,4,1.8,4,4s-1.8,4-4,4l-33,0c-1.1,0-2,0.9-2,2S260.2,64,261.3,64z"/>
	</g>
</g>
</svg>
