<?xml version="1.0" encoding="utf-8"?>
<!-- Generator: Adobe Illustrator 19.2.0, SVG Export Plug-In . SVG Version: 6.00 Build 0)  -->
<svg version="1.1" xmlns="http://www.w3.org/2000/svg" xmlns:xlink="http://www.w3.org/1999/xlink" x="0px" y="0px"
	 viewBox="0 0 96 96" style="enable-background:new 0 0 96 96;" xml:space="preserve">
<style type="text/css">
	.st0{display:none;}
	.st1{fill:#FFCC00;}
	.st2{fill:#5AC8FA;}
	.st3{fill:#5856D6;}
	.st4{fill:#007AFF;}
	.st5{fill:#FF9500;}
	.st6{fill:#FF3B30;}
</style>
<g id="Base" class="st0">
</g>
<g id="Dibujo">
	<g>
		<polyline class="st1" points="267.7,173.1 260.7,186.2 265.9,186.2 260.1,197.6 272.3,183.4 266.1,183.5 275,173.1 		"/>
		<polyline class="st1" points="280.5,168.2 273.5,181.3 278.7,181.3 272.9,192.7 285.1,178.5 278.9,178.6 287.8,168.2 		"/>
	</g>
	<g>
		<path class="st2" d="M-68.5,852v18c0,1.1,0.9,2,2,2c1.1,0,2-0.9,2-2v-18c0-1.1-0.9-2-2-2C-67.6,850-68.5,850.9-68.5,852z"/>
		<path class="st2" d="M-91.5,871h-2c-1.1,0-2,0.9-2,2v2c0,1.1,0.9,2,2,2h2c1.1,0,2-0.9,2-2v-2C-89.5,871.9-90.4,871-91.5,871z"/>
		<path class="st2" d="M-65.5,876h-2c-1.1,0-2,0.9-2,2v2c0,1.1,0.9,2,2,2h2c1.1,0,2-0.9,2-2v-2C-63.5,876.9-64.4,876-65.5,876z"/>
		<path class="st2" d="M-38.5,868h-2c-1.1,0-2,0.9-2,2v2c0,1.1,0.9,2,2,2h2c1.1,0,2-0.9,2-2v-2C-36.5,868.9-37.4,868-38.5,868z"/>
		<path class="st2" d="M-75.5,856c-1.1,0-2,0.9-2,2v15.1c-1.2-0.7-2.5-1.1-4-1.1h-2c-1.1,0-2,0.9-2,2s0.9,2,2,2h2c2.2,0,4,1.8,4,4
			c0,1.1,0.9,2,2,2c1.1,0,2-0.9,2-2v-22C-73.5,856.9-74.4,856-75.5,856z"/>
		<path class="st2" d="M-48.5,869c-2.7,0-5.1,0.9-7,2.5V858c0-1.1-0.9-2-2-2c-1.1,0-2,0.9-2,2v22c0,0,0,0,0,0c0,1.1,0.9,2,2,2
			c1.1,0,2-0.9,2-2v0c0-3.9,3.1-7,7-7c1.1,0,2-0.9,2-2S-47.4,869-48.5,869z"/>
	</g>
	<g>
		<path class="st1" d="M288.2,820c-7.7,0-14,6.3-14,14s6.3,14,14,14c7.7,0,14-6.3,14-14S295.9,820,288.2,820z"/>
		<polygon class="st1" points="288.2,807.5 293.1,816 283.3,816 		"/>
		<polygon class="st1" points="314.8,834 306.3,838.9 306.3,829.1 		"/>
		<polygon class="st1" points="305,817.2 303.3,822.8 299.4,818.9 		"/>
		<polygon class="st1" points="271.4,817.2 277,818.9 273.1,822.8 		"/>
	</g>
	<g>
		<path class="st1" d="M401.9,706c-7.7,0-14,6.3-14,14s6.3,14,14,14s14-6.3,14-14S409.6,706,401.9,706z"/>
		<polygon class="st1" points="401.9,693.5 406.8,702 397,702 		"/>
		<polygon class="st1" points="428.4,720 420,724.9 420,715.1 		"/>
		<polygon class="st1" points="418.6,703.2 416.9,708.8 413.1,704.9 		"/>
		<polygon class="st1" points="385.1,703.2 390.6,704.9 386.8,708.8 		"/>
	</g>
	<g>
		<path class="st2" d="M50,749.9v-12c0-1.1-0.9-2-2-2s-2,0.9-2,2v12c0,1.1,0.9,2,2,2S50,751,50,749.9z"/>
		<path class="st2" d="M41,755.9v-12c0-1.1-0.9-2-2-2c-1.1,0-2,0.9-2,2v12c0,1.1,0.9,2,2,2C40.1,757.9,41,757,41,755.9z"/>
		<path class="st2" d="M59,755.9v-12c0-1.1-0.9-2-2-2c-1.1,0-2,0.9-2,2v12c0,1.1,0.9,2,2,2C58.1,757.9,59,757,59,755.9z"/>
		<path class="st2" d="M40,761.9h-2c-1.1,0-2,0.9-2,2v2c0,1.1,0.9,2,2,2h2c1.1,0,2-0.9,2-2v-2C42,762.8,41.1,761.9,40,761.9z"/>
		<path class="st2" d="M49,755.9h-2c-1.1,0-2,0.9-2,2v2c0,1.1,0.9,2,2,2h2c1.1,0,2-0.9,2-2v-2C51,756.8,50.1,755.9,49,755.9z"/>
		<path class="st2" d="M58,761.9h-2c-1.1,0-2,0.9-2,2v2c0,1.1,0.9,2,2,2h2c1.1,0,2-0.9,2-2v-2C60,762.8,59.1,761.9,58,761.9z"/>
	</g>
	<g>
		<path class="st1" d="M60.1,706c-7.7,0-14,6.3-14,14s6.3,14,14,14s14-6.3,14-14S67.8,706,60.1,706z"/>
		<polygon class="st1" points="60.1,693.5 65,702 55.2,702 		"/>
		<polygon class="st1" points="86.7,720 78.2,724.9 78.2,715.1 		"/>
		<polygon class="st1" points="76.9,703.2 75.2,708.8 71.3,704.9 		"/>
		<polygon class="st1" points="43.3,703.2 48.9,704.9 45,708.8 		"/>
	</g>
	<g>
		<path class="st1" d="M-54.2,592.1c-7.7,0-14,6.3-14,14s6.3,14,14,14s14-6.3,14-14S-46.5,592.1-54.2,592.1z"/>
		<polygon class="st1" points="-54.2,579.6 -49.3,588 -59.1,588 		"/>
		<polygon class="st1" points="-27.6,606.1 -36.1,611 -36.1,601.2 		"/>
		<polygon class="st1" points="-37.4,589.3 -39.2,594.8 -43,591 		"/>
		<polygon class="st1" points="-71,589.3 -65.4,591 -69.3,594.8 		"/>
	</g>
	<g>
		<path class="st1" d="M288,592c-7.7,0-14,6.3-14,14s6.3,14,14,14s14-6.3,14-14S295.7,592,288,592z"/>
		<polygon class="st1" points="288,579.5 292.9,588 283.1,588 		"/>
		<polygon class="st1" points="314.6,606 306.1,610.9 306.1,601.1 		"/>
		<polygon class="st1" points="304.8,589.2 303,594.8 299.2,590.9 		"/>
		<polygon class="st1" points="271.2,589.2 276.8,590.9 272.9,594.8 		"/>
	</g>
	<g>
		<path class="st1" d="M174.2,478c-7.7,0-14,6.3-14,14s6.3,14,14,14s14-6.3,14-14S182,478,174.2,478z"/>
		<polygon class="st1" points="174.3,465.5 179.2,474 169.4,474 		"/>
		<polygon class="st1" points="200.8,492 192.3,496.9 192.3,487.1 		"/>
		<polygon class="st1" points="191,475.2 189.3,480.8 185.5,476.9 		"/>
		<polygon class="st1" points="157.5,475.2 163,476.9 159.2,480.8 		"/>
	</g>
	<g>
		<path class="st1" d="M399.1,370c-7.7,0-14,6.3-14,14s6.3,14,14,14s14-6.3,14-14S406.8,370,399.1,370z"/>
		<polygon class="st1" points="399.1,357.5 404,366 394.2,366 		"/>
		<polygon class="st1" points="425.7,384 417.2,388.9 417.2,379.1 		"/>
		<polygon class="st1" points="415.9,367.2 414.2,372.8 410.3,368.9 		"/>
		<polygon class="st1" points="382.3,367.2 387.9,368.9 384,372.8 		"/>
	</g>
	<g>
		<path class="st1" d="M60,364c-7.7,0-14,6.3-14,14s6.3,14,14,14s14-6.3,14-14S67.7,364,60,364z"/>
		<polygon class="st1" points="60,351.5 65,360 55.1,360 		"/>
		<polygon class="st1" points="86.6,378 78.1,382.9 78.1,373.1 		"/>
		<polygon class="st1" points="76.8,361.2 75.1,366.8 71.2,362.9 		"/>
		<polygon class="st1" points="43.2,361.2 48.8,362.9 45,366.8 		"/>
	</g>
	<g>
		<path class="st1" d="M60.1,250c-7.7,0-14,6.3-14,14s6.3,14,14,14c7.7,0,14-6.3,14-14S67.8,250,60.1,250z"/>
		<polygon class="st1" points="60.1,237.5 65,246 55.2,246 		"/>
		<polygon class="st1" points="86.7,264 78.2,268.9 78.2,259.1 		"/>
		<polygon class="st1" points="76.9,247.2 75.2,252.8 71.3,248.9 		"/>
		<polygon class="st1" points="43.3,247.2 48.9,248.9 45,252.8 		"/>
	</g>
	<g>
		<path class="st1" d="M-53.8,136c-7.7,0-14,6.3-14,14s6.3,14,14,14s14-6.3,14-14S-46.1,136-53.8,136z"/>
		<polygon class="st1" points="-53.8,123.5 -48.9,132 -58.7,132 		"/>
		<polygon class="st1" points="-27.2,150 -35.7,154.9 -35.7,145.1 		"/>
		<polygon class="st1" points="-37,133.2 -38.8,138.8 -42.6,134.9 		"/>
		<polygon class="st1" points="-70.6,133.2 -65,134.9 -68.9,138.8 		"/>
	</g>
	<g>
		<path class="st1" d="M287.9,136c-7.7,0-14,6.3-14,14s6.3,14,14,14s14-6.3,14-14S295.6,136,287.9,136z"/>
		<polygon class="st1" points="287.9,123.5 292.9,132 283,132 		"/>
		<polygon class="st1" points="314.5,150 306,154.9 306,145.1 		"/>
		<polygon class="st1" points="304.7,133.2 303,138.8 299.1,134.9 		"/>
		<polygon class="st1" points="271.1,133.2 276.7,134.9 272.9,138.8 		"/>
	</g>
	<g>
		<path class="st1" d="M174,22c-7.7,0-14,6.3-14,14s6.3,14,14,14s14-6.3,14-14S181.7,22,174,22z"/>
		<polygon class="st1" points="174.1,9.5 179,18 169.2,18 		"/>
		<polygon class="st1" points="200.6,36 192.1,40.9 192.1,31.1 		"/>
		<polygon class="st1" points="190.8,19.2 189.1,24.8 185.3,20.9 		"/>
		<polygon class="st1" points="157.3,19.2 162.8,20.9 159,24.8 		"/>
	</g>
	<g>
		<path class="st1" d="M401.9-92c-7.7,0-14,6.3-14,14s6.3,14,14,14s14-6.3,14-14S409.7-92,401.9-92z"/>
		<polygon class="st1" points="402,-104.5 406.9,-96 397.1,-96 		"/>
		<polygon class="st1" points="428.5,-78 420,-73.1 420,-82.9 		"/>
		<polygon class="st1" points="418.7,-94.7 417,-89.2 413.2,-93 		"/>
		<polygon class="st1" points="385.2,-94.7 390.7,-93 386.9,-89.2 		"/>
	</g>
	<g>
		<path class="st1" d="M59.8-92c-7.7,0-14,6.3-14,14s6.3,14,14,14s14-6.3,14-14S67.6-92,59.8-92z"/>
		<polygon class="st1" points="59.9,-104.5 64.8,-96 55,-96 		"/>
		<polygon class="st1" points="86.4,-78 77.9,-73.1 77.9,-82.9 		"/>
		<polygon class="st1" points="76.6,-94.7 74.9,-89.2 71.1,-93 		"/>
		<polygon class="st1" points="43.1,-94.7 48.6,-93 44.8,-89.2 		"/>
	</g>
	<path class="st3" d="M-51.5,817.4c0-1.2,0.2-2.3,0.6-3.4c-1-0.2-2-0.3-3-0.3c-7.7,0-14,6.3-14,14c0,7.7,6.3,14,14,14
		c7.7,0,13.9-6.2,14-13.8c-0.3,0-0.7,0.1-1,0.1C-46.8,827.9-51.5,823.2-51.5,817.4z"/>
	<path class="st3" d="M404.5,817.7c0-1.2,0.2-2.3,0.6-3.4c-1-0.2-2-0.3-3-0.3c-7.7,0-14,6.3-14,14s6.3,14,14,14
		c7.7,0,13.9-6.2,14-13.8c-0.3,0-0.7,0.1-1,0.1C409.2,828.3,404.5,823.5,404.5,817.7z"/>
	<path class="st3" d="M176.5,703.4c0-1.2,0.2-2.3,0.6-3.4c-1-0.2-2-0.3-3-0.3c-7.7,0-14,6.3-14,14c0,7.7,6.3,14,14,14
		c7.7,0,13.9-6.2,14-13.8c-0.3,0-0.7,0.1-1,0.1C181.2,713.9,176.5,709.2,176.5,703.4z"/>
	<path class="st3" d="M404.6,589.7c0-1.2,0.2-2.3,0.6-3.4c-1-0.2-2-0.3-3-0.3c-7.7,0-14,6.3-14,14s6.3,14,14,14
		c7.7,0,13.9-6.2,14-13.8c-0.3,0-0.7,0.1-1,0.1C409.3,600.3,404.6,595.5,404.6,589.7z"/>
	<path class="st3" d="M62.5,589.7c0-1.2,0.2-2.3,0.6-3.4c-1-0.2-2-0.3-3-0.3c-7.7,0-14,6.3-14,14s6.3,14,14,14
		c7.7,0,13.9-6.2,14-13.8c-0.3,0-0.7,0.1-1,0.1C67.2,600.3,62.5,595.5,62.5,589.7z"/>
	<path class="st3" d="M-54.5,481.7c0-1.2,0.2-2.3,0.6-3.4c-1-0.2-2-0.3-3-0.3c-7.7,0-14,6.3-14,14s6.3,14,14,14
		c7.7,0,13.9-6.2,14-13.8c-0.3,0-0.7,0.1-1,0.1C-49.8,492.3-54.5,487.5-54.5,481.7z"/>
	<path class="st3" d="M176.5,361.7c0-1.2,0.2-2.3,0.6-3.4c-1-0.2-2-0.3-3-0.3c-7.7,0-14,6.3-14,14s6.3,14,14,14
		c7.7,0,13.9-6.2,14-13.8c-0.3,0-0.7,0.1-1,0.1C181.2,372.3,176.5,367.5,176.5,361.7z"/>
	<path class="st3" d="M290.5,475.7c0-1.2,0.2-2.3,0.6-3.4c-1-0.2-2-0.3-3-0.3c-7.7,0-14,6.3-14,14s6.3,14,14,14
		c7.7,0,13.9-6.2,14-13.8c-0.3,0-0.7,0.1-1,0.1C295.2,486.3,290.5,481.5,290.5,475.7z"/>
	<path class="st3" d="M176.5,247.7c0-1.2,0.2-2.3,0.6-3.4c-1-0.2-2-0.3-3-0.3c-7.7,0-14,6.3-14,14s6.3,14,14,14
		c7.7,0,13.9-6.2,14-13.8c-0.3,0-0.7,0.1-1,0.1C181.2,258.3,176.5,253.5,176.5,247.7z"/>
	<path class="st3" d="M62.5,133.7c0-1.2,0.2-2.3,0.6-3.4c-1-0.2-2-0.3-3-0.3c-7.7,0-14,6.3-14,14s6.3,14,14,14
		c7.7,0,13.9-6.2,14-13.8c-0.3,0-0.7,0.1-1,0.1C67.2,144.3,62.5,139.5,62.5,133.7z"/>
	<path class="st3" d="M404.6,133.7c0-1.2,0.2-2.3,0.6-3.4c-1-0.2-2-0.3-3-0.3c-7.7,0-14,6.3-14,14s6.3,14,14,14
		c7.7,0,13.9-6.2,14-13.8c-0.3,0-0.7,0.1-1,0.1C409.3,144.3,404.6,139.5,404.6,133.7z"/>
	<path class="st3" d="M-51.5,19.7c0-1.2,0.2-2.3,0.6-3.4c-1-0.2-2-0.3-3-0.3c-7.7,0-14,6.3-14,14s6.3,14,14,14
		c7.7,0,13.9-6.2,14-13.8c-0.3,0-0.7,0.1-1,0.1C-46.8,30.3-51.5,25.5-51.5,19.7z"/>
	<path class="st3" d="M176.4-94.3c0-1.2,0.2-2.3,0.6-3.4c-1-0.2-2-0.3-3-0.3c-7.7,0-14,6.3-14,14s6.3,14,14,14
		c7.7,0,13.9-6.2,14-13.8c-0.3,0-0.7,0.1-1,0.1C181.1-83.7,176.4-88.5,176.4-94.3z"/>
	<path class="st3" d="M290.5,19.7c0-1.2,0.2-2.3,0.6-3.4c-1-0.2-2-0.3-3-0.3c-7.7,0-14,6.3-14,14s6.3,14,14,14
		c7.7,0,13.9-6.2,14-13.8c-0.3,0-0.7,0.1-1,0.1C295.2,30.3,290.5,25.5,290.5,19.7z"/>
	<path class="st3" d="M392.4-418.2c0-1.2,0.2-2.3,0.6-3.4c-1-0.2-2-0.3-3-0.3c-7.7,0-14,6.3-14,14c0,7.7,6.3,14,14,14
		c7.7,0,13.9-6.2,14-13.8c-0.3,0-0.7,0.1-1,0.1C397.1-407.7,392.4-412.4,392.4-418.2z"/>
	<g>
		<path class="st2" d="M162,64c-1.1,0-2,0.9-2,2v18c0,1.1,0.9,2,2,2c1.1,0,2-0.9,2-2V66C164,64.9,163.1,64,162,64z"/>
		<path class="st2" d="M189.7,45.8c-0.3-0.6-0.7-1.2-1.2-1.8c-1.3-1.6-3.2-2.9-5.2-3.5c-1-0.3-2.1-0.5-3.3-0.5
			c-0.5,0-1.1,0.1-1.7,0.2C176.2,33,169.7,28,162,28c-7.7,0-14.2,5-16.3,12.2c-0.6-0.1-1.2-0.2-1.7-0.2c-1.1,0-2.2,0.2-3.3,0.5
			c-2.1,0.6-3.9,1.9-5.2,3.5c-0.4,0.5-0.8,1.1-1.2,1.8c-0.8,1.6-1.3,3.3-1.3,5.2s0.5,3.7,1.3,5.2c0.3,0.6,0.7,1.2,1.2,1.8
			c1.3,1.6,3.2,2.9,5.2,3.5c1,0.3,2.1,0.5,3.3,0.5h7v16c0,1.1,0.9,2,2,2c1.1,0,2-0.9,2-2V62h14v16c0,1.1,0.9,2,2,2c1.1,0,2-0.9,2-2
			V62h7c1.1,0,2.2-0.2,3.3-0.5c2.1-0.6,3.9-1.9,5.2-3.5c0.4-0.5,0.8-1.1,1.2-1.8c0.8-1.6,1.3-3.3,1.3-5.2S190.5,47.3,189.7,45.8z"/>
	</g>
	<path class="st4" d="M-48-74c-0.5,0-1.1,0.1-1.7,0.2C-51.8-81-58.3-86-66-86c-7.7,0-14.2,5-16.3,12.2c-0.6-0.1-1.2-0.2-1.7-0.2
		c-6.1,0-11,4.9-11,11s4.9,11,11,11h36c6.1,0,11-4.9,11-11S-41.9-74-48-74z"/>
	<path class="st3" d="M-66-308c-7.7,0-14,6.3-14,14s6.3,14,14,14s14-6.3,14-14S-58.3-308-66-308z"/>
	<path class="st3" d="M48-308c-7.7,0-14,6.3-14,14s6.3,14,14,14s14-6.3,14-14S55.7-308,48-308z M48.7-284c3.2-2.1,5.3-5.8,5.3-10
		s-2.1-7.8-5.3-10c5.2,0.3,9.3,4.7,9.3,10S53.9-284.4,48.7-284z"/>
	<path class="st3" d="M162-194c-7.7,0-14,6.3-14,14s6.3,14,14,14c7.7,0,14-6.3,14-14S169.7-194,162-194z M152-180
		c0-5.3,4.1-9.6,9.3-10c-3.2,2.1-5.3,5.8-5.3,10s2.1,7.8,5.3,10C156.1-170.4,152-174.7,152-180z"/>
	<path class="st3" d="M162-308c-7.7,0-14,6.3-14,14s6.3,14,14,14c7.7,0,14-6.3,14-14S169.7-308,162-308z M162-284v-20
		c5.5,0,10,4.5,10,10S167.5-284,162-284z"/>
	<path class="st3" d="M48-194c-7.7,0-14,6.3-14,14s6.3,14,14,14s14-6.3,14-14S55.7-194,48-194z M38-180c0-5.5,4.5-10,10-10v20
		C42.5-170,38-174.5,38-180z"/>
	<path class="st3" d="M276-308c-7.7,0-14,6.3-14,14s6.3,14,14,14s14-6.3,14-14S283.7-308,276-308z M276-284c-0.2,0-0.4,0-0.7,0
		c-3.2-2.1-5.3-5.8-5.3-10s2.1-7.8,5.3-10c0.2,0,0.4,0,0.7,0c5.5,0,10,4.5,10,10S281.5-284,276-284z"/>
	<path class="st3" d="M-66-194c-7.7,0-14,6.3-14,14s6.3,14,14,14s14-6.3,14-14S-58.3-194-66-194z M-76-180c0-5.5,4.5-10,10-10
		c0.2,0,0.4,0,0.7,0c3.2,2.1,5.3,5.8,5.3,10s-2.1,7.8-5.3,10c-0.2,0-0.4,0-0.7,0C-71.5-170-76-174.5-76-180z"/>
	<path class="st3" d="M390-308c-7.7,0-14,6.3-14,14s6.3,14,14,14c7.7,0,14-6.3,14-14S397.7-308,390-308z M390-284
		c-5.5,0-10-4.5-10-10s4.5-10,10-10s10,4.5,10,10S395.5-284,390-284z"/>
	<path class="st4" d="M278-205.9v-2.1c0-1.1-0.9-2-2-2c-1.1,0-2,0.9-2,2v2.1c-13.4,1-24,12.3-24,25.9c0,1.1,0.9,2,2,2
		c1.1,0,2-0.9,2-2c0-2.2,1.8-4,4-4c2.2,0,4,1.8,4,4c0,1.1,0.9,2,2,2c1.1,0,2-0.9,2-2c0-2.2,1.8-4,4-4c2.2,0,4,1.8,4,4v21
		c0,2.8,2.2,5,5,5s5-2.2,5-5c0-1.1-0.9-2-2-2c-1.1,0-2,0.9-2,2c0,0.6-0.4,1-1,1c-0.6,0-1-0.4-1-1v-21c0-2.2,1.8-4,4-4
		c2.2,0,4,1.8,4,4c0,1.1,0.9,2,2,2c1.1,0,2-0.9,2-2c0-2.2,1.8-4,4-4c2.2,0,4,1.8,4,4c0,1.1,0.9,2,2,2c1.1,0,2-0.9,2-2
		C302-193.7,291.4-204.9,278-205.9z"/>
	<g>
		<path class="st5" d="M267,380h12c1.1,0,2-0.9,2-2s-0.9-2-2-2h-12c-1.1,0-2,0.9-2,2S265.9,380,267,380z"/>
		<path class="st5" d="M255,386h24c1.1,0,2-0.9,2-2s-0.9-2-2-2h-24c-1.1,0-2,0.9-2,2S253.9,386,255,386z"/>
		<path class="st5" d="M249,392h24c1.1,0,2-0.9,2-2s-0.9-2-2-2h-24c-1.1,0-2,0.9-2,2S247.9,392,249,392z"/>
		<path class="st5" d="M308,396c0-1.1-0.9-2-2-2h-60c-1.1,0-2,0.9-2,2s0.9,2,2,2h60C307.1,398,308,397.1,308,396z"/>
		<path class="st5" d="M306,400h-57c-1.1,0-2,0.9-2,2s0.9,2,2,2h57c1.1,0,2-0.9,2-2S307.1,400,306,400z"/>
		<path class="st5" d="M267,406l-12,0c-1.1,0-2,0.9-2,2s0.9,2,2,2l12,0c1.1,0,2-0.9,2-2S268.1,406,267,406z"/>
		<path class="st5" d="M286,386h8c1.1,0,2-0.9,2-2s-0.9-2-2-2h-8c-1.1,0-2,0.9-2,2S284.9,386,286,386z"/>
		<path class="st5" d="M277,390c0,1.1,0.9,2,2,2h21c1.1,0,2-0.9,2-2s-0.9-2-2-2h-21C277.9,388,277,388.9,277,390z"/>
		<path class="st5" d="M300,406l-27,0c-1.1,0-2,0.9-2,2s0.9,2,2,2l27,0c1.1,0,2-0.9,2-2S301.1,406,300,406z"/>
	</g>
	<g>
		<path class="st2" d="M21,509c1.1,0,2-0.9,2-2c0-3.9,3.1-7,7-7c0.3,0,0.7,0.1,1.2,0.2v1.8c0,1.1,0.9,2,2,2c1.1,0,2-0.9,2-2v-3.2
			c1.1-6.3,6.4-10.8,12.8-10.8s11.7,4.5,12.8,10.8v3.2c0,1.1,0.9,2,2,2c1.1,0,2-0.9,2-2v-1.8c0.5-0.1,0.9-0.2,1.2-0.2
			c3.9,0,7,3.1,7,7c0,1.1,0.9,2,2,2s2-0.9,2-2c0-6.1-4.9-11-11-11c-0.5,0-1.1,0.1-1.7,0.2C62.2,489,55.7,484,48,484
			s-14.2,5-16.3,12.2c-0.6-0.1-1.2-0.2-1.7-0.2c-6.1,0-11,4.9-11,11C19,508.1,19.9,509,21,509z"/>
		<path class="st2" d="M40,515c0,1.1,0.9,2,2,2h36c1.1,0,2-0.9,2-2s-0.9-2-2-2H42C40.9,513,40,513.9,40,515z"/>
		<path class="st2" d="M48,520c-1.1,0-2,0.9-2,2s0.9,2,2,2h27c1.1,0,2-0.9,2-2s-0.9-2-2-2H48z"/>
		<path class="st2" d="M78,527H54c-1.1,0-2,0.9-2,2s0.9,2,2,2h24c1.1,0,2-0.9,2-2S79.1,527,78,527z"/>
		<path class="st2" d="M18,517h18c1.1,0,2-0.9,2-2s-0.9-2-2-2H18c-1.1,0-2,0.9-2,2S16.9,517,18,517z"/>
		<path class="st2" d="M21,520c-1.1,0-2,0.9-2,2s0.9,2,2,2h21c1.1,0,2-0.9,2-2s-0.9-2-2-2H21z"/>
		<path class="st2" d="M48,527H18c-1.1,0-2,0.9-2,2s0.9,2,2,2h30c1.1,0,2-0.9,2-2S49.1,527,48,527z"/>
	</g>
	<g>
		<path class="st2" d="M408,490c-0.5,0-1.1,0.1-1.7,0.2c-2.1-7.2-8.6-12.2-16.3-12.2c-7.7,0-14.2,5-16.3,12.2
			c-0.6-0.1-1.2-0.2-1.7-0.2c-6.1,0-11,4.9-11,11s4.9,11,11,11c1.1,0,2-0.9,2-2s-0.9-2-2-2c-3.9,0-7-3.1-7-7s3.1-7,7-7
			c0.3,0,0.7,0.1,1.2,0.2v1.8c0,1.1,0.9,2,2,2c1.1,0,2-0.9,2-2v-3.2c1.1-6.3,6.4-10.8,12.8-10.8c6.4,0,11.7,4.5,12.8,10.8v3.2
			c0,1.1,0.9,2,2,2s2-0.9,2-2v-1.8c0.5-0.1,0.9-0.2,1.2-0.2c3.9,0,7,3.1,7,7s-3.1,7-7,7c-1.1,0-2,0.9-2,2s0.9,2,2,2
			c6.1,0,11-4.9,11-11S414.1,490,408,490z"/>
		<path class="st2" d="M381.6,508.8c-0.8-1-2.4-1-3.2,0c-0.8,1.1-3.4,4.7-3.4,7.2c0,2.9,2.1,5,5,5c2.9,0,5-2.1,5-5
			C385,513.5,382.4,509.9,381.6,508.8z"/>
		<path class="st2" d="M398.4,508.8c-0.8,1.1-3.4,4.7-3.4,7.2c0,2.9,2.1,5,5,5c2.9,0,5-2.1,5-5c0-2.5-2.6-6.1-3.4-7.2
			C400.8,507.8,399.2,507.8,398.4,508.8z"/>
		<path class="st2" d="M388.4,520.8c-0.8,1.1-3.4,4.7-3.4,7.2c0,2.9,2.1,5,5,5c2.9,0,5-2.1,5-5c0-2.5-2.6-6.1-3.4-7.2
			C390.8,519.8,389.2,519.8,388.4,520.8z"/>
	</g>
	<g>
		<path d="M283.6,1084.6l-5.6,5.6V1077c0-1.1-0.9-2-2-2c-1.1,0-2,0.9-2,2v13.2l-5.6-5.6c-0.8-0.8-2-0.8-2.8,0c-0.8,0.8-0.8,2,0,2.8
			l9,9c0.1,0.1,0.2,0.2,0.3,0.3c0,0,0.1,0.1,0.1,0.1c0.1,0,0.1,0.1,0.2,0.1c0.1,0,0.1,0,0.2,0.1c0.1,0,0.1,0,0.2,0.1
			c0.1,0,0.3,0,0.4,0c0.1,0,0.3,0,0.4,0c0.1,0,0.1,0,0.2-0.1c0.1,0,0.1,0,0.2-0.1c0.1,0,0.1-0.1,0.2-0.1c0,0,0.1,0,0.1-0.1
			c0.1-0.1,0.2-0.2,0.3-0.3l9-9c0.8-0.8,0.8-2,0-2.8C285.6,1083.8,284.4,1083.8,283.6,1084.6z"/>
		<path d="M294,1066c-0.5,0-1.1,0.1-1.7,0.2c-2.1-7.2-8.6-12.2-16.3-12.2c-7.7,0-14.2,5-16.3,12.2c-0.6-0.1-1.2-0.2-1.7-0.2
			c-6.1,0-11,4.9-11,11s4.9,11,11,11l2,0c1.1,0,2-0.9,2-2s-0.9-2-2-2h0l-2,0c-3.9,0-7-3.1-7-7s3.1-7,7-7c0.3,0,0.7,0.1,1.2,0.2v1.8
			c0,1.1,0.9,2,2,2c1.1,0,2-0.9,2-2v-3.2c1.1-6.3,6.4-10.8,12.8-10.8c6.4,0,11.7,4.5,12.8,10.8v3.2c0,1.1,0.9,2,2,2s2-0.9,2-2v-1.8
			c0.5-0.1,0.9-0.2,1.2-0.2c3.9,0,7,3.1,7,7s-3.1,7-7,7l-2,0h0c-1.1,0-2,0.9-2,2s0.9,2,2,2l2,0c6.1,0,11-4.9,11-11
			S300.1,1066,294,1066z"/>
	</g>
	<g>
		<path d="M391.4,1075.6c-0.1-0.1-0.2-0.2-0.3-0.3c0,0-0.1-0.1-0.1-0.1c-0.1,0-0.1-0.1-0.2-0.1c-0.1,0-0.1,0-0.2-0.1
			c-0.1,0-0.1,0-0.2-0.1c-0.3-0.1-0.5-0.1-0.8,0c-0.1,0-0.1,0-0.2,0.1c-0.1,0-0.1,0-0.2,0.1c-0.1,0-0.1,0.1-0.2,0.1
			c0,0-0.1,0-0.1,0.1c-0.1,0.1-0.2,0.2-0.3,0.3l-9,9c-0.8,0.8-0.8,2,0,2.8c0.8,0.8,2,0.8,2.8,0l5.6-5.6v13.2c0,1.1,0.9,2,2,2
			c1.1,0,2-0.9,2-2v-13.2l5.6,5.6c0.4,0.4,0.9,0.6,1.4,0.6c0.5,0,1-0.2,1.4-0.6c0.8-0.8,0.8-2,0-2.8L391.4,1075.6z"/>
		<path d="M408,1066c-0.5,0-1.1,0.1-1.7,0.2c-2.1-7.2-8.6-12.2-16.3-12.2c-7.7,0-14.2,5-16.3,12.2c-0.6-0.1-1.2-0.2-1.7-0.2
			c-6.1,0-11,4.9-11,11s4.9,11,11,11l2,0c1.1,0,2-0.9,2-2s-0.9-2-2-2h0l-2,0c-3.9,0-7-3.1-7-7s3.1-7,7-7c0.3,0,0.7,0.1,1.2,0.2v1.8
			c0,1.1,0.9,2,2,2c1.1,0,2-0.9,2-2v-3.2c1.1-6.3,6.4-10.8,12.8-10.8c6.4,0,11.7,4.5,12.8,10.8v3.2c0,1.1,0.9,2,2,2s2-0.9,2-2v-1.8
			c0.5-0.1,0.9-0.2,1.2-0.2c3.9,0,7,3.1,7,7s-3.1,7-7,7l-2,0h0c-1.1,0-2,0.9-2,2s0.9,2,2,2l2,0c6.1,0,11-4.9,11-11
			S414.1,1066,408,1066z"/>
	</g>
	<g>
		<path class="st2" d="M273.5,738v18c0,1.1,0.9,2,2,2c1.1,0,2-0.9,2-2v-18c0-1.1-0.9-2-2-2C274.4,736,273.5,736.9,273.5,738z"/>
		<path class="st2" d="M250.5,757h-2c-1.1,0-2,0.9-2,2v2c0,1.1,0.9,2,2,2h2c1.1,0,2-0.9,2-2v-2C252.5,757.9,251.6,757,250.5,757z"/>
		<path class="st2" d="M276.5,762h-2c-1.1,0-2,0.9-2,2v2c0,1.1,0.9,2,2,2h2c1.1,0,2-0.9,2-2v-2C278.5,762.9,277.6,762,276.5,762z"/>
		<path class="st2" d="M303.5,754h-2c-1.1,0-2,0.9-2,2v2c0,1.1,0.9,2,2,2h2c1.1,0,2-0.9,2-2v-2C305.5,754.9,304.6,754,303.5,754z"/>
		<path class="st2" d="M266.5,742c-1.1,0-2,0.9-2,2v15.1c-1.2-0.7-2.5-1.1-4-1.1h-2c-1.1,0-2,0.9-2,2s0.9,2,2,2h2c2.2,0,4,1.8,4,4
			c0,1.1,0.9,2,2,2c1.1,0,2-0.9,2-2v-22C268.5,742.9,267.6,742,266.5,742z"/>
		<path class="st2" d="M293.5,755c-2.7,0-5.1,0.9-7,2.5V744c0-1.1-0.9-2-2-2c-1.1,0-2,0.9-2,2v22c0,0,0,0,0,0c0,1.1,0.9,2,2,2
			c1.1,0,2-0.9,2-2v0c0-3.9,3.1-7,7-7c1.1,0,2-0.9,2-2S294.6,755,293.5,755z"/>
	</g>
	<g>
		<path class="st2" d="M388,738v18c0,1.1,0.9,2,2,2c1.1,0,2-0.9,2-2v-18c0-1.1-0.9-2-2-2C388.9,736,388,736.9,388,738z"/>
		<path class="st2" d="M365,757h-2c-1.1,0-2,0.9-2,2v2c0,1.1,0.9,2,2,2h2c1.1,0,2-0.9,2-2v-2C367,757.9,366.1,757,365,757z"/>
		<path class="st2" d="M391,762h-2c-1.1,0-2,0.9-2,2v2c0,1.1,0.9,2,2,2h2c1.1,0,2-0.9,2-2v-2C393,762.9,392.1,762,391,762z"/>
		<path class="st2" d="M418,754h-2c-1.1,0-2,0.9-2,2v2c0,1.1,0.9,2,2,2h2c1.1,0,2-0.9,2-2v-2C420,754.9,419.1,754,418,754z"/>
		<path class="st2" d="M381,742c-1.1,0-2,0.9-2,2v15.1c-1.2-0.7-2.5-1.1-4-1.1h-2c-1.1,0-2,0.9-2,2s0.9,2,2,2h2c2.2,0,4,1.8,4,4
			c0,1.1,0.9,2,2,2c1.1,0,2-0.9,2-2v-22C383,742.9,382.1,742,381,742z"/>
		<path class="st2" d="M408,755c-2.7,0-5.1,0.9-7,2.5V744c0-1.1-0.9-2-2-2c-1.1,0-2,0.9-2,2v22c0,0,0,0,0,0c0,1.1,0.9,2,2,2
			c1.1,0,2-0.9,2-2v0c0-3.9,3.1-7,7-7c1.1,0,2-0.9,2-2S409.1,755,408,755z"/>
	</g>
	<g>
		<path class="st5" d="M54,844l-30,0c-1.1,0-2,0.9-2,2c0,1.1,0.9,2,2,2l30,0c3.9,0,7,3.1,7,7s-3.1,7-7,7c-1.1,0-2,0.9-2,2s0.9,2,2,2
			c6.1,0,11-4.9,11-11S60.1,844,54,844z"/>
		<path class="st5" d="M48,850H24c-1.1,0-2,0.9-2,2s0.9,2,2,2h24c0.6,0,1,0.4,1,1s-0.4,1-1,1c-1.1,0-2,0.9-2,2s0.9,2,2,2
			c2.8,0,5-2.2,5-5S50.8,850,48,850z"/>
		<path class="st5" d="M69,836c-1.1,0-2,0.9-2,2s0.9,2,2,2c0.6,0,1,0.4,1,1s-0.4,1-1,1h-4c-1.1,0-2,0.9-2,2s0.9,2,2,2h4
			c2.8,0,5-2.2,5-5S71.8,836,69,836z"/>
		<path class="st5" d="M24,842l33,0c4.4,0,8-3.6,8-8s-3.6-8-8-8s-8,3.6-8,8c0,1.1,0.9,2,2,2c1.1,0,2-0.9,2-2c0-2.2,1.8-4,4-4
			c2.2,0,4,1.8,4,4s-1.8,4-4,4l-33,0c-1.1,0-2,0.9-2,2C22,841.1,22.9,842,24,842z"/>
	</g>
	<g>
		<path class="st5" d="M-90,938h42c1.1,0,2-0.9,2-2c0-1.1-0.9-2-2-2h-42c-1.1,0-2,0.9-2,2C-92,937.1-91.1,938-90,938z"/>
		<path class="st5" d="M-48,942h-39c-1.1,0-2,0.9-2,2s0.9,2,2,2h39c1.1,0,2-0.9,2-2S-46.9,942-48,942z"/>
		<path class="st5" d="M-52,952c0-1.1-0.9-2-2-2h-36c-1.1,0-2,0.9-2,2s0.9,2,2,2h36C-52.9,954-52,953.1-52,952z"/>
		<path class="st5" d="M-48,958h-33c-1.1,0-2,0.9-2,2s0.9,2,2,2h33c1.1,0,2-0.9,2-2S-46.9,958-48,958z"/>
		<path class="st5" d="M-54,966h-18c-1.1,0-2,0.9-2,2s0.9,2,2,2h18c1.1,0,2-0.9,2-2S-52.9,966-54,966z"/>
		<path class="st5" d="M-60,974h-12c-1.1,0-2,0.9-2,2s0.9,2,2,2h12c1.1,0,2-0.9,2-2S-58.9,974-60,974z"/>
		<path class="st5" d="M-66,982h-6c-1.1,0-2,0.9-2,2s0.9,2,2,2h6c1.1,0,2-0.9,2-2S-64.9,982-66,982z"/>
	</g>
	<g>
		<path class="st2" d="M162,970c-2.8,0-5,2.2-5,5s2.2,5,5,5c2.8,0,5-2.2,5-5S164.8,970,162,970z M162,976c-0.6,0-1-0.4-1-1
			s0.4-1,1-1c0.6,0,1,0.4,1,1S162.6,976,162,976z"/>
		<path class="st2" d="M170,967.5l0-25.5c0-4.4-3.6-8-8-8c-4.4,0-8,3.6-8,8l0,25.5c-1.9,2-3,4.7-3,7.5c0,6.1,4.9,11,11,11
			s11-4.9,11-11C173,972.2,171.9,969.5,170,967.5z M162,982c-3.9,0-7-3.1-7-7c0-2,0.8-3.9,2.3-5.2c0.4-0.4,0.7-0.9,0.7-1.5l0-26.3
			c0-2.2,1.8-4,4-4s4,1.8,4,4l0,26.3c0,0.6,0.2,1.1,0.7,1.5c1.5,1.3,2.3,3.2,2.3,5.2C169,978.9,165.9,982,162,982z"/>
	</g>
	<g>
		<path class="st2" d="M48,986c-6.1,0-11-4.9-11-11c0-2.8,1.1-5.5,3-7.5l0-25.5c0-4.4,3.6-8,8-8s8,3.6,8,8l0,25.5c1.9,2,3,4.7,3,7.5
			C59,981.1,54.1,986,48,986L48,986z M48,938c-2.2,0-4,1.8-4,4l0,26.3c0,0.6-0.2,1.1-0.7,1.5c-1.5,1.3-2.3,3.2-2.3,5.2
			c0,3.9,3.1,7,7,7s7-3.1,7-7c0-2-0.8-3.9-2.3-5.2c-0.4-0.4-0.7-0.9-0.7-1.5l0-26.3C52,939.8,50.2,938,48,938L48,938z"/>
	</g>
	<g>
		<path class="st5" d="M278,970.4V959c0-1.1-0.9-2-2-2c-1.1,0-2,0.9-2,2v11.4c-1.8,0.8-3,2.5-3,4.6c0,2.8,2.2,5,5,5s5-2.2,5-5
			C281,973,279.8,971.2,278,970.4z M276,976c-0.6,0-1-0.4-1-1s0.4-1,1-1c0.6,0,1,0.4,1,1S276.6,976,276,976z"/>
		<path class="st5" d="M284,967.5l0-25.5c0-4.4-3.6-8-8-8s-8,3.6-8,8l0,25.5c-1.9,2-3,4.7-3,7.5c0,6.1,4.9,11,11,11s11-4.9,11-11
			C287,972.2,285.9,969.5,284,967.5z M276,982c-3.9,0-7-3.1-7-7c0-2,0.8-3.9,2.3-5.2c0.4-0.4,0.7-0.9,0.7-1.5l0-26.3
			c0-2.2,1.8-4,4-4c2.2,0,4,1.8,4,4l0,26.3c0,0.6,0.2,1.1,0.7,1.5c1.5,1.3,2.3,3.2,2.3,5.2C283,978.9,279.9,982,276,982z"/>
	</g>
	<g>
		<path class="st6" d="M392,970.4V942c0-1.1-0.9-2-2-2c-1.1,0-2,0.9-2,2v28.4c-1.8,0.8-3,2.5-3,4.6c0,2.8,2.2,5,5,5c2.8,0,5-2.2,5-5
			C395,973,393.8,971.2,392,970.4z M390,976c-0.6,0-1-0.4-1-1s0.4-1,1-1c0.6,0,1,0.4,1,1S390.6,976,390,976z"/>
		<path class="st6" d="M398,967.5l0-25.5c0-4.4-3.6-8-8-8s-8,3.6-8,8l0,25.5c-1.9,2-3,4.7-3,7.5c0,6.1,4.9,11,11,11s11-4.9,11-11
			C401,972.2,399.9,969.5,398,967.5z M390,982c-3.9,0-7-3.1-7-7c0-2,0.8-3.9,2.3-5.2c0.4-0.4,0.7-0.9,0.7-1.5l0-26.3
			c0-2.2,1.8-4,4-4c2.2,0,4,1.8,4,4l0,26.3c0,0.6,0.2,1.1,0.7,1.5c1.5,1.3,2.3,3.2,2.3,5.2C397,978.9,393.9,982,390,982z"/>
	</g>
	<path class="st6" d="M422-185.1c0-0.1,0-0.1,0-0.2c0-0.1,0-0.1,0-0.2c0-0.1,0-0.1-0.1-0.2c0-0.1,0-0.1-0.1-0.2c0,0,0,0,0-0.1
		c0,0,0-0.1-0.1-0.1c0-0.1-0.1-0.1-0.1-0.2c0-0.1-0.1-0.1-0.1-0.2c0,0-0.1-0.1-0.1-0.1c-0.1,0-0.1-0.1-0.2-0.1c0,0-0.1-0.1-0.1-0.1
		c-0.1,0-0.1-0.1-0.2-0.1c-0.1,0-0.1-0.1-0.2-0.1c-0.1,0-0.1,0-0.2-0.1c-0.1,0-0.1,0-0.2,0c-0.1,0-0.2,0-0.2,0c0,0-0.1,0-0.1,0h-4
		c0-2.8-2.2-5-5-5h-14c-1.4,0-2.7,0.6-3.6,1.5c-0.3,0.3-0.5,0.7-0.7,1c-0.8-0.4-1.7-0.6-2.7-0.6s-1.8,0.2-2.7,0.6
		c-0.2-0.4-0.4-0.7-0.7-1c-0.9-1-2.2-1.5-3.6-1.5h-14c-2.8,0-5,2.2-5,5h-4c0,0-0.1,0-0.1,0c-0.1,0-0.1,0-0.2,0c-0.1,0-0.1,0-0.2,0
		c-0.1,0-0.1,0-0.2,0.1c-0.1,0-0.1,0.1-0.2,0.1c-0.1,0-0.1,0.1-0.2,0.1c-0.1,0-0.1,0.1-0.2,0.1c-0.1,0-0.1,0.1-0.2,0.1
		c0,0-0.1,0.1-0.1,0.1c0,0-0.1,0.1-0.1,0.1c0,0.1-0.1,0.1-0.1,0.2c0,0,0,0.1-0.1,0.1c0,0,0,0,0,0.1c0,0.1-0.1,0.1-0.1,0.2
		c0,0.1,0,0.1-0.1,0.2c0,0.1,0,0.1,0,0.2c0,0.1,0,0.1,0,0.2c0,0,0,0,0,0.1c0,0,0,0.1,0,0.1c0,0.1,0,0.1,0,0.2c0,0.1,0,0.1,0,0.2
		c0,0.1,0,0.1,0.1,0.2c0,0.1,0,0.1,0.1,0.2c0,0.1,0.1,0.1,0.1,0.2c0,0.1,0.1,0.1,0.1,0.2c0,0.1,0.1,0.1,0.1,0.2c0,0,0.1,0.1,0.1,0.1
		c0,0,0.1,0.1,0.1,0.1c0.1,0,0.1,0.1,0.2,0.1c0,0,0.1,0,0.1,0.1l4.9,2.5c0.1,6,5,10.8,11,10.8c5,0,11-2.5,12.6-13.6
		c0-0.1,0-0.1,0-0.2c0-0.2,0.1-0.4,0.1-0.7c0.3-0.9,1.3-1.6,2.3-1.6c1,0,2,0.7,2.3,1.6c0,0.2,0.1,0.5,0.1,0.7c0,0.1,0,0.1,0,0.2
		C394-172.5,400-170,405-170c6,0,10.9-4.8,11-10.8l4.9-2.5c0,0,0.1,0,0.1-0.1c0.1,0,0.1-0.1,0.2-0.1c0.1,0,0.1-0.1,0.2-0.1
		c0,0,0.1-0.1,0.1-0.1c0-0.1,0.1-0.1,0.1-0.2c0,0,0.1-0.1,0.1-0.1c0-0.1,0.1-0.1,0.1-0.2c0-0.1,0.1-0.1,0.1-0.2c0-0.1,0-0.1,0.1-0.2
		c0-0.1,0-0.1,0-0.2c0-0.1,0-0.1,0-0.2C422-184.9,422-185,422-185.1C422-185,422-185,422-185.1z M376.4-184.6l-5,5
		c-0.4,0.4-0.9,0.6-1.4,0.6c-0.5,0-1-0.2-1.4-0.6c-0.8-0.8-0.8-2,0-2.8l5-5c0.8-0.8,2-0.8,2.8,0
		C377.2-186.6,377.2-185.4,376.4-184.6z M405.4-184.6l-5,5c-0.4,0.4-0.9,0.6-1.4,0.6c-0.5,0-1-0.2-1.4-0.6c-0.8-0.8-0.8-2,0-2.8l5-5
		c0.8-0.8,2-0.8,2.8,0C406.2-186.6,406.2-185.4,405.4-184.6z"/>
	<path class="st5" d="M-35.5,1057.1l-24-6c0,0-0.1,0-0.1,0c-0.1,0-0.2,0-0.3,0c-0.1,0-0.1,0-0.1,0c-0.1,0-0.2,0-0.3,0
		c0,0-0.1,0-0.1,0c-0.1,0-0.3,0.1-0.4,0.1c0,0,0,0,0,0c-0.1,0.1-0.2,0.1-0.4,0.2l-8.8,6.6v-6.4c1.8-0.8,3-2.5,3-4.6c0-2.8-2.2-5-5-5
		s-5,2.2-5,5c0,2,1.2,3.8,3,4.6v50.4h-22c-1.1,0-2,0.9-2,2s0.9,2,2,2h48c1.1,0,2-0.9,2-2s-0.9-2-2-2h-22v-36l8.8,6.6
		c0.1,0.1,0.2,0.1,0.3,0.2c0.1,0,0.1,0.1,0.2,0.1c0.2,0.1,0.4,0.1,0.6,0.1c0,0,0,0,0,0h0c0,0,0,0,0,0c0.2,0,0.3,0,0.4-0.1
		c0,0,0,0,0,0l24-6c0.9-0.2,1.5-1,1.5-1.9v-6C-34,1058.1-34.6,1057.3-35.5,1057.1z M-62,1067l-6.7-5l6.7-5V1067z M-72,1046
		c0.6,0,1,0.4,1,1s-0.4,1-1,1s-1-0.4-1-1S-72.6,1046-72,1046z M-58,1055.6l8,2v8.9l-8,2V1055.6z M-38,1063.4l-8,2v-6.9l8,2V1063.4z"
		/>
	<path class="st2" d="M189,1087.3l-6.2-3.6l3.5-0.9c1.1-0.3,1.7-1.4,1.4-2.4c-0.3-1.1-1.4-1.7-2.4-1.4l-7.4,2l-5.5-3.2l6.5-1.8
		c0.8-0.2,1.4-0.9,1.5-1.8c0.1-0.9-0.4-1.6-1.2-2l-5.8-2.4l4.5-2.6l7.4,2c0.2,0,0.3,0.1,0.5,0.1c0.9,0,1.7-0.6,1.9-1.5
		c0.3-1.1-0.3-2.2-1.4-2.4l-3.5-0.9l6.2-3.6c1-0.6,1.3-1.8,0.7-2.7c-0.6-1-1.8-1.3-2.7-0.7l-6.2,3.6l0.9-3.5
		c0.3-1.1-0.3-2.2-1.4-2.4c-1.1-0.3-2.2,0.3-2.4,1.4l-2,7.4l-4.5,2.6l0.8-6.2c0.1-0.8-0.3-1.6-1-2c-0.7-0.4-1.6-0.3-2.2,0.1l-5,3.8
		v-5.2l5.4-5.4c0.8-0.8,0.8-2,0-2.8c-0.8-0.8-2-0.8-2.8,0l-2.6,2.6v-7.2c0-1.1-0.9-2-2-2c-1.1,0-2,0.9-2,2v7.2l-2.6-2.6
		c-0.8-0.8-2-0.8-2.8,0c-0.8,0.8-0.8,2,0,2.8l5.4,5.4v5.2l-5-3.8c-0.7-0.5-1.6-0.5-2.3-0.1c-0.7,0.5-1,1.4-0.8,2.2l1.8,6.5l-5.5-3.2
		l-2-7.4c-0.3-1.1-1.4-1.7-2.4-1.4c-1.1,0.3-1.7,1.4-1.4,2.4l0.9,3.5l-6.2-3.6c-1-0.6-2.2-0.2-2.7,0.7c-0.6,1-0.2,2.2,0.7,2.7
		l6.2,3.6l-3.5,0.9c-1.1,0.3-1.7,1.4-1.4,2.4c0.2,0.9,1,1.5,1.9,1.5c0.2,0,0.3,0,0.5-0.1l7.4-2l5.5,3.2l-6.5,1.8
		c-0.8,0.2-1.4,0.9-1.5,1.8c-0.1,0.9,0.4,1.6,1.2,2l5.8,2.4l-4.5,2.6l-7.4-2c-1.1-0.3-2.2,0.3-2.4,1.4c-0.3,1.1,0.3,2.2,1.4,2.4
		l3.5,0.9l-6.2,3.6c-1,0.6-1.3,1.8-0.7,2.7c0.4,0.6,1,1,1.7,1c0.3,0,0.7-0.1,1-0.3l6.2-3.6l-0.9,3.5c-0.3,1.1,0.3,2.2,1.4,2.4
		c0.2,0,0.3,0.1,0.5,0.1c0.9,0,1.7-0.6,1.9-1.5l2-7.4l4.5-2.6l-0.8,6.2c-0.1,0.8,0.3,1.6,1,2c0.7,0.4,1.6,0.3,2.2-0.1l5-3.8v5.2
		l-5.4,5.4c-0.8,0.8-0.8,2,0,2.8c0.8,0.8,2,0.8,2.8,0l2.6-2.6v7.2c0,1.1,0.9,2,2,2c1.1,0,2-0.9,2-2v-7.2l2.6,2.6
		c0.4,0.4,0.9,0.6,1.4,0.6s1-0.2,1.4-0.6c0.8-0.8,0.8-2,0-2.8l-5.4-5.4v-5.2l5,3.8c0.4,0.3,0.8,0.4,1.2,0.4c0.4,0,0.8-0.1,1.1-0.3
		c0.7-0.5,1-1.4,0.8-2.2l-1.8-6.5l5.5,3.2l2,7.4c0.2,0.9,1,1.5,1.9,1.5c0.2,0,0.3,0,0.5-0.1c1.1-0.3,1.7-1.4,1.4-2.4l-0.9-3.5
		l6.2,3.6c0.3,0.2,0.7,0.3,1,0.3c0.7,0,1.4-0.4,1.7-1C190.3,1089,189.9,1087.8,189,1087.3z M172.2,1073.6l-4.8,1.3l-1.5-0.9l3.1-1.8
		L172.2,1073.6z M167.6,1064.3l-0.6,4.5l-3.1,1.8v-3.5L167.6,1064.3z M157.2,1064.9l2.8,2.1v3.5l-1.5-0.9L157.2,1064.9z
		 M151.7,1074.4l4.8-1.3l1.5,0.9l-3.1,1.8L151.7,1074.4z M156.4,1083.7l0.6-4.5l3.1-1.8v3.5L156.4,1083.7z M166.8,1083.1l-2.8-2.1
		v-3.5l1.5,0.9L166.8,1083.1z"/>
	<g>
		<path class="st5" d="M72,1052c1.1,0,2-0.9,2-2s-0.9-2-2-2c-7,0-12.9,5.2-13.8,12h-2c1-7.9,7.7-14,15.9-14c1.1,0,2-0.9,2-2
			s-0.9-2-2-2c-10.4,0-18.9,7.9-19.9,18H44v-10c0-1.5-0.4-2.9-1.1-4.1l1.5-1.5c0.8-0.8,0.8-2,0-2.8c-0.8-0.8-2-0.8-2.8,0l-1.5,1.5
			c-0.6-0.4-1.3-0.7-2.1-0.9v-2.3c0-1.1-0.9-2-2-2c-1.1,0-2,0.9-2,2v2.3c-0.7,0.2-1.4,0.5-2.1,0.9l-1.5-1.5c-0.8-0.8-2-0.8-2.8,0
			c-0.8,0.8-0.8,2,0,2.8l1.5,1.5c-0.5,0.9-0.9,2-1,3.1H24c-0.9,0-1.7,0.6-1.9,1.5c-0.2,0.9,0.2,1.8,1.1,2.2l4.9,2.4v6.8
			c0,10.4,7.9,18.9,18,19.9v10.1H28.8l2.6-2.6c0.8-0.8,0.8-2,0-2.8c-0.8-0.8-2-0.8-2.8,0l-6,6c-0.1,0.1-0.2,0.2-0.2,0.3
			c0,0-0.1,0.1-0.1,0.1c0,0.1-0.1,0.1-0.1,0.2c0,0.1,0,0.1-0.1,0.2c0,0.1,0,0.1-0.1,0.2c-0.1,0.3-0.1,0.5,0,0.8c0,0.1,0,0.1,0.1,0.2
			c0,0.1,0,0.1,0.1,0.2c0,0.1,0.1,0.1,0.1,0.2c0,0,0,0.1,0.1,0.1c0.1,0.1,0.2,0.2,0.2,0.3l6,6c0.4,0.4,0.9,0.6,1.4,0.6
			s1-0.2,1.4-0.6c0.8-0.8,0.8-2,0-2.8l-2.6-2.6H46v12c0,1.1,0.9,2,2,2c1.1,0,2-0.9,2-2v-12h15.2l5.4,5.4c0.4,0.4,0.9,0.6,1.4,0.6
			c0.5,0,1-0.2,1.4-0.6c0.8-0.8,0.8-2,0-2.8l-4.6-4.6l4.6-4.6c0.8-0.8,0.8-2,0-2.8c-0.8-0.8-2-0.8-2.8,0l-5.4,5.4H50v-10.1
			c10.1-1,18-9.5,18-19.9c0-2.2,1.8-4,4-4c1.1,0,2-0.9,2-2s-0.9-2-2-2c-3.7,0-6.8,2.6-7.7,6h-2.1C63.1,1055.4,67.2,1052,72,1052z
			 M51.4,1064c-0.7,1.2-2,2-3.4,2c-1.5,0-2.8-0.8-3.4-2H51.4z M63.9,1064c-1,7.9-7.7,14-15.9,14c-8.8,0-16-7.2-16-16v-12
			c0-2.2,1.8-4,4-4c2.2,0,4,1.8,4,4v12c0,0,0,0,0,0c0,4.4,3.6,8,8,8c3.7,0,6.8-2.6,7.7-6H63.9z"/>
		<circle class="st6" cx="36" cy="1050" r="2"/>
	</g>
	<g>
		<path class="st1" d="M-66-422c-7.7,0-14,6.3-14,14s6.3,14,14,14s14-6.3,14-14S-58.3-422-66-422z"/>
		<polygon class="st1" points="-66,-434.5 -61.1,-426 -70.9,-426 		"/>
		<polygon class="st1" points="-66,-381.6 -70.9,-390 -61.1,-390 		"/>
		<polygon class="st1" points="-92.5,-408 -84,-412.9 -84,-403.1 		"/>
		<polygon class="st1" points="-39.4,-408 -47.9,-403.1 -47.9,-412.9 		"/>
		<polygon class="st1" points="-49.3,-424.8 -51,-419.2 -54.8,-423.1 		"/>
		<polygon class="st1" points="-82.8,-391.2 -81.1,-396.8 -77.3,-392.9 		"/>
		<polygon class="st1" points="-82.8,-424.8 -77.3,-423.1 -81.1,-419.2 		"/>
		<polygon class="st1" points="-49.3,-391.2 -54.8,-392.9 -51,-396.8 		"/>
	</g>
	<path class="st4" d="M66-74c-0.5,0-1.1,0.1-1.7,0.2C62.2-81,55.7-86,48-86c-7.7,0-14.2,5-16.3,12.2C31.1-73.9,30.5-74,30-74
		c-6.1,0-11,4.9-11,11s4.9,11,11,11h36c6.1,0,11-4.9,11-11S72.1-74,66-74z"/>
	<path class="st4" d="M180-74c-0.5,0-1.1,0.1-1.7,0.2C176.2-81,169.7-86,162-86c-7.7,0-14.2,5-16.3,12.2c-0.6-0.1-1.2-0.2-1.7-0.2
		c-6.1,0-11,4.9-11,11s4.9,11,11,11h36c6.1,0,11-4.9,11-11S186.1-74,180-74z"/>
	<g>
		<path class="st2" d="M267-42c-1.1,0-2,0.9-2,2v4c0,1.1,0.9,2,2,2c1.1,0,2-0.9,2-2v-4C269-41.1,268.1-42,267-42z"/>
		<path class="st2" d="M276-36c-1.1,0-2,0.9-2,2v4c0,1.1,0.9,2,2,2c1.1,0,2-0.9,2-2v-4C278-35.1,277.1-36,276-36z"/>
		<path class="st2" d="M276-48c-1.1,0-2,0.9-2,2v4c0,1.1,0.9,2,2,2c1.1,0,2-0.9,2-2v-4C278-47.1,277.1-48,276-48z"/>
		<path class="st2" d="M285-42c-1.1,0-2,0.9-2,2v4c0,1.1,0.9,2,2,2c1.1,0,2-0.9,2-2v-4C287-41.1,286.1-42,285-42z"/>
		<path class="st2" d="M303.7-68.2c-0.3-0.6-0.7-1.2-1.2-1.8c-1.3-1.6-3.2-2.9-5.2-3.5c-1-0.3-2.1-0.5-3.3-0.5
			c-0.5,0-1.1,0.1-1.7,0.2c-0.9-3.1-2.7-5.9-5-7.9c-0.3-0.3-0.7-0.6-1-0.8c-0.7-0.5-1.5-1-2.3-1.4c-2.4-1.3-5.1-2-8-2
			c-7.7,0-14.2,5-16.3,12.2c-0.6-0.1-1.2-0.2-1.7-0.2c-1.1,0-2.2,0.2-3.3,0.5c-2.1,0.6-3.9,1.9-5.2,3.5c-0.4,0.5-0.8,1.1-1.2,1.8
			c-0.8,1.6-1.3,3.3-1.3,5.2s0.5,3.7,1.3,5.2c0.3,0.6,0.7,1.2,1.2,1.8c1.3,1.6,3.2,2.9,5.2,3.5c1,0.3,2.1,0.5,3.3,0.5h7v4
			c0,1.1,0.9,2,2,2c1.1,0,2-0.9,2-2v-4h14v4c0,1.1,0.9,2,2,2c1.1,0,2-0.9,2-2v-4h7c1.1,0,2.2-0.2,3.3-0.5c2.1-0.6,3.9-1.9,5.2-3.5
			c0.4-0.5,0.8-1.1,1.2-1.8c0.8-1.6,1.3-3.3,1.3-5.2S304.5-66.7,303.7-68.2z"/>
	</g>
	<g>
		<path class="st2" d="M381-42c-1.1,0-2,0.9-2,2v4c0,1.1,0.9,2,2,2c1.1,0,2-0.9,2-2v-4C383-41.1,382.1-42,381-42z"/>
		<path class="st2" d="M390-36c-1.1,0-2,0.9-2,2v4c0,1.1,0.9,2,2,2c1.1,0,2-0.9,2-2v-4C392-35.1,391.1-36,390-36z"/>
		<path class="st2" d="M390-48c-1.1,0-2,0.9-2,2v4c0,1.1,0.9,2,2,2c1.1,0,2-0.9,2-2v-4C392-47.1,391.1-48,390-48z"/>
		<path class="st2" d="M399-42c-1.1,0-2,0.9-2,2v4c0,1.1,0.9,2,2,2c1.1,0,2-0.9,2-2v-4C401-41.1,400.1-42,399-42z"/>
		<path class="st2" d="M417.7-68.2c-0.3-0.6-0.7-1.2-1.2-1.8c-1.3-1.6-3.2-2.9-5.2-3.5c-1-0.3-2.1-0.5-3.3-0.5
			c-0.5,0-1.1,0.1-1.7,0.2c-0.9-3.1-2.7-5.9-5-7.9c-0.3-0.3-0.7-0.6-1-0.8c-0.7-0.5-1.5-1-2.3-1.4c-2.4-1.3-5.1-2-8-2
			c-7.7,0-14.2,5-16.3,12.2c-0.6-0.1-1.2-0.2-1.7-0.2c-1.1,0-2.2,0.2-3.3,0.5c-2.1,0.6-3.9,1.9-5.2,3.5c-0.4,0.5-0.8,1.1-1.2,1.8
			c-0.8,1.6-1.3,3.3-1.3,5.2s0.5,3.7,1.3,5.2c0.3,0.6,0.7,1.2,1.2,1.8c1.3,1.6,3.2,2.9,5.2,3.5c1,0.3,2.1,0.5,3.3,0.5h7v4
			c0,1.1,0.9,2,2,2c1.1,0,2-0.9,2-2v-4h14v4c0,1.1,0.9,2,2,2c1.1,0,2-0.9,2-2v-4h7c1.1,0,2.2-0.2,3.3-0.5c2.1-0.6,3.9-1.9,5.2-3.5
			c0.4-0.5,0.8-1.1,1.2-1.8c0.8-1.6,1.3-3.3,1.3-5.2S418.5-66.7,417.7-68.2z"/>
	</g>
	<g>
		<path class="st2" d="M-75,72c-1.1,0-2,0.9-2,2v4c0,1.1,0.9,2,2,2c1.1,0,2-0.9,2-2v-4C-73,72.9-73.9,72-75,72z"/>
		<path class="st2" d="M-66,78c-1.1,0-2,0.9-2,2v4c0,1.1,0.9,2,2,2s2-0.9,2-2v-4C-64,78.9-64.9,78-66,78z"/>
		<path class="st2" d="M-66,66c-1.1,0-2,0.9-2,2v4c0,1.1,0.9,2,2,2s2-0.9,2-2v-4C-64,66.9-64.9,66-66,66z"/>
		<path class="st2" d="M-57,72c-1.1,0-2,0.9-2,2v4c0,1.1,0.9,2,2,2c1.1,0,2-0.9,2-2v-4C-55,72.9-55.9,72-57,72z"/>
		<path class="st2" d="M-38.3,45.8c-0.3-0.6-0.7-1.2-1.2-1.8c-1.3-1.6-3.2-2.9-5.2-3.5c-1-0.3-2.1-0.5-3.3-0.5
			c-0.5,0-1.1,0.1-1.7,0.2c-0.9-3.1-2.7-5.9-5-7.9c-0.3-0.3-0.7-0.6-1-0.8c-0.7-0.5-1.5-1-2.3-1.4c-2.4-1.3-5.1-2-8-2
			c-7.7,0-14.2,5-16.3,12.2c-0.6-0.1-1.2-0.2-1.7-0.2c-1.1,0-2.2,0.2-3.3,0.5c-2.1,0.6-3.9,1.9-5.2,3.5c-0.4,0.5-0.8,1.1-1.2,1.8
			c-0.8,1.6-1.3,3.3-1.3,5.2s0.5,3.7,1.3,5.2c0.3,0.6,0.7,1.2,1.2,1.8c1.3,1.6,3.2,2.9,5.2,3.5c1,0.3,2.1,0.5,3.3,0.5h7v4
			c0,1.1,0.9,2,2,2c1.1,0,2-0.9,2-2v-4h14v4c0,1.1,0.9,2,2,2c1.1,0,2-0.9,2-2v-4h7c1.1,0,2.2-0.2,3.3-0.5c2.1-0.6,3.9-1.9,5.2-3.5
			c0.4-0.5,0.8-1.1,1.2-1.8c0.8-1.6,1.3-3.3,1.3-5.2S-37.5,47.3-38.3,45.8z"/>
	</g>
	<g>
		<path class="st2" d="M276,64c-1.1,0-2,0.9-2,2v18c0,1.1,0.9,2,2,2c1.1,0,2-0.9,2-2V66C278,64.9,277.1,64,276,64z"/>
		<path class="st2" d="M303.7,45.8c-0.3-0.6-0.7-1.2-1.2-1.8c-1.3-1.6-3.2-2.9-5.2-3.5c-1-0.3-2.1-0.5-3.3-0.5
			c-0.5,0-1.1,0.1-1.7,0.2C290.2,33,283.7,28,276,28c-7.7,0-14.2,5-16.3,12.2c-0.6-0.1-1.2-0.2-1.7-0.2c-1.1,0-2.2,0.2-3.3,0.5
			c-2.1,0.6-3.9,1.9-5.2,3.5c-0.4,0.5-0.8,1.1-1.2,1.8c-0.8,1.6-1.3,3.3-1.3,5.2s0.5,3.7,1.3,5.2c0.3,0.6,0.7,1.2,1.2,1.8
			c1.3,1.6,3.2,2.9,5.2,3.5c1,0.3,2.1,0.5,3.3,0.5h7v16c0,1.1,0.9,2,2,2c1.1,0,2-0.9,2-2V62h14v16c0,1.1,0.9,2,2,2c1.1,0,2-0.9,2-2
			V62h7c1.1,0,2.2-0.2,3.3-0.5c2.1-0.6,3.9-1.9,5.2-3.5c0.4-0.5,0.8-1.1,1.2-1.8c0.8-1.6,1.3-3.3,1.3-5.2S304.5,47.3,303.7,45.8z"/>
	</g>
	<g>
		<circle class="st2" cx="-75" cy="180" r="2"/>
		<circle class="st2" cx="-57" cy="180" r="2"/>
		<circle class="st2" cx="-66" cy="186" r="2"/>
		<circle class="st2" cx="-57" cy="192" r="2"/>
		<circle class="st2" cx="-66" cy="198" r="2"/>
		<circle class="st2" cx="-75" cy="192" r="2"/>
		<path class="st2" d="M-38.3,159.8c-0.3-0.6-0.7-1.2-1.2-1.8c-1.3-1.6-3.2-2.9-5.2-3.5c-1-0.3-2.1-0.5-3.3-0.5
			c-0.3,0-0.5,0-0.8,0.1c-0.3,0-0.6,0.1-0.9,0.1c-0.9-3.1-2.7-5.9-5-7.9c-0.3-0.3-0.7-0.6-1-0.8c-0.7-0.5-1.5-1-2.3-1.4
			c-2.4-1.3-5.1-2-8-2c-7.7,0-14.2,5-16.3,12.2c-0.1,0-0.1,0-0.2,0c-0.5-0.1-1-0.2-1.5-0.2c-1.1,0-2.2,0.2-3.3,0.5
			c-2.1,0.6-3.9,1.9-5.2,3.5c-0.4,0.5-0.8,1.1-1.2,1.8c-0.8,1.6-1.3,3.3-1.3,5.2s0.5,3.7,1.3,5.2c0.3,0.6,0.7,1.2,1.2,1.8
			c1.3,1.6,3.2,2.9,5.2,3.5c1,0.3,2.1,0.5,3.3,0.5h36c1.1,0,2.2-0.2,3.3-0.5c2.1-0.6,3.9-1.9,5.2-3.5c0.4-0.5,0.8-1.1,1.2-1.8
			c0.8-1.6,1.3-3.3,1.3-5.2S-37.5,161.3-38.3,159.8z"/>
	</g>
	<g>
		<circle class="st2" cx="39" cy="180" r="2"/>
		<circle class="st2" cx="57" cy="180" r="2"/>
		<circle class="st2" cx="48" cy="186" r="2"/>
		<circle class="st2" cx="57" cy="192" r="2"/>
		<circle class="st2" cx="48" cy="198" r="2"/>
		<circle class="st2" cx="39" cy="192" r="2"/>
		<path class="st2" d="M75.7,159.8c-0.3-0.6-0.7-1.2-1.2-1.8c-1.3-1.6-3.2-2.9-5.2-3.5c-1-0.3-2.1-0.5-3.3-0.5c-0.3,0-0.5,0-0.8,0.1
			c-0.3,0-0.6,0.1-0.9,0.1c-0.9-3.1-2.7-5.9-5-7.9c-0.3-0.3-0.7-0.6-1-0.8c-0.7-0.5-1.5-1-2.3-1.4c-2.4-1.3-5.1-2-8-2
			c-7.7,0-14.2,5-16.3,12.2c-0.1,0-0.1,0-0.2,0c-0.5-0.1-1-0.2-1.5-0.2c-1.1,0-2.2,0.2-3.3,0.5c-2.1,0.6-3.9,1.9-5.2,3.5
			c-0.4,0.5-0.8,1.1-1.2,1.8c-0.8,1.6-1.3,3.3-1.3,5.2s0.5,3.7,1.3,5.2c0.3,0.6,0.7,1.2,1.2,1.8c1.3,1.6,3.2,2.9,5.2,3.5
			c1,0.3,2.1,0.5,3.3,0.5h36c1.1,0,2.2-0.2,3.3-0.5c2.1-0.6,3.9-1.9,5.2-3.5c0.4-0.5,0.8-1.1,1.2-1.8c0.8-1.6,1.3-3.3,1.3-5.2
			S76.5,161.3,75.7,159.8z"/>
	</g>
	<g>
		<g>
			<polyline class="st1" points="152.8,172.6 145.8,185.7 150.9,185.6 145.1,197 157.4,182.8 151.1,182.9 160,172.6 			"/>
			<polyline class="st1" points="165.6,167.7 158.6,180.8 163.8,180.7 158,192.1 170.2,177.9 164,178 172.8,167.7 			"/>
		</g>
		<path class="st4" d="M180,154c-0.5,0-1.1,0.1-1.7,0.2c-2.1-7.2-8.6-12.2-16.3-12.2c-7.7,0-14.2,5-16.3,12.2
			c-0.6-0.1-1.2-0.2-1.7-0.2c-6.1,0-11,4.9-11,11s4.9,11,11,11h36c6.1,0,11-4.9,11-11S186.1,154,180,154z"/>
	</g>
	<path class="st4" d="M294,154c-0.5,0-1.1,0.1-1.7,0.2c-2.1-7.2-8.6-12.2-16.3-12.2c-7.7,0-14.2,5-16.3,12.2
		c-0.6-0.1-1.2-0.2-1.7-0.2c-6.1,0-11,4.9-11,11s4.9,11,11,11h36c6.1,0,11-4.9,11-11S300.1,154,294,154z"/>
	<path class="st1" d="M408,154c-0.5,0-1.1,0.1-1.7,0.2c-2.1-7.2-8.6-12.2-16.3-12.2c-7.7,0-14.2,5-16.3,12.2
		c-0.6-0.1-1.2-0.2-1.7-0.2c-6.1,0-11,4.9-11,11s4.9,11,11,11h11.3l-3.9,5.9c-0.4,0.6-0.4,1.4-0.1,2.1c0.3,0.7,1,1.1,1.8,1.1h2.3
		l-3.9,5.9c-0.6,0.9-0.4,2.2,0.6,2.8c0.3,0.2,0.7,0.3,1.1,0.3c0.6,0,1.3-0.3,1.7-0.9l6-9c0.4-0.6,0.4-1.4,0.1-2.1
		c-0.3-0.7-1-1.1-1.8-1.1h-2.3l3.3-5h5.2l-1.9,2.9c-0.4,0.6-0.4,1.4-0.1,2.1c0.3,0.7,1,1.1,1.8,1.1h2.3l-1.9,2.9
		c-0.6,0.9-0.4,2.2,0.6,2.8c0.3,0.2,0.7,0.3,1.1,0.3c0.6,0,1.3-0.3,1.7-0.9l4-6c0.4-0.6,0.4-1.4,0.1-2.1c-0.3-0.7-1-1.1-1.8-1.1
		h-2.3l1.3-2h9.9c6.1,0,11-4.9,11-11S414.1,154,408,154z M408,172h-36c-3.9,0-7-3.1-7-7s3.1-7,7-7c0.3,0,0.7,0.1,1.2,0.2v1.8
		c0,1.1,0.9,2,2,2s2-0.9,2-2v-3.2c1.1-6.3,6.4-10.8,12.8-10.8c6.4,0,11.7,4.5,12.8,10.8v3.2c0,1.1,0.9,2,2,2c1.1,0,2-0.9,2-2v-1.8
		c0.5-0.1,0.9-0.2,1.2-0.2c3.9,0,7,3.1,7,7S411.9,172,408,172z"/>
	<path class="st4" d="M408,154c-0.5,0-1.1,0.1-1.7,0.2c-2.1-7.2-8.6-12.2-16.3-12.2c-7.7,0-14.2,5-16.3,12.2
		c-0.6-0.1-1.2-0.2-1.7-0.2c-6.1,0-11,4.9-11,11s4.9,11,11,11h36c6.1,0,11-4.9,11-11S414.1,154,408,154z"/>
	<g>
		<path class="st2" d="M43.7,297.7c-0.6-1-1.8-1.3-2.7-0.7c-1,0.6-1.3,1.8-0.7,2.7l1,1.7c0.4,0.6,1,1,1.7,1c0.3,0,0.7-0.1,1-0.3
			c1-0.6,1.3-1.8,0.7-2.7L43.7,297.7z"/>
		<path class="st2" d="M39,296.9c-1-0.6-2.2-0.2-2.7,0.7l-1,1.7c-0.6,1-0.2,2.2,0.7,2.7c0.3,0.2,0.7,0.3,1,0.3c0.7,0,1.4-0.4,1.7-1
			l1-1.7C40.3,298.7,40,297.5,39,296.9z"/>
		<path class="st2" d="M38,295.2c0-1.1-0.9-2-2-2h-2c-1.1,0-2,0.9-2,2c0,1.1,0.9,2,2,2h2C37.1,297.2,38,296.3,38,295.2z"/>
		<path class="st2" d="M46,293.2h-2c-1.1,0-2,0.9-2,2c0,1.1,0.9,2,2,2h2c1.1,0,2-0.9,2-2C48,294.1,47.1,293.2,46,293.2z"/>
		<path class="st2" d="M66,268c-0.5,0-1.1,0.1-1.7,0.2C62.2,261,55.7,256,48,256c-7.7,0-14.2,5-16.3,12.2c-0.6-0.1-1.2-0.2-1.7-0.2
			c-6.1,0-11,4.9-11,11s4.9,11,11,11h5c0,0.3,0.1,0.7,0.3,1l1,1.7c0.4,0.6,1,1,1.7,1c0.3,0,0.7-0.1,1-0.3c1-0.6,1.3-1.8,0.7-2.7
			l-0.4-0.7h1.4l-0.4,0.7c-0.6,1-0.2,2.2,0.7,2.7c0.3,0.2,0.7,0.3,1,0.3c0.7,0,1.4-0.4,1.7-1l1-1.7c0.2-0.3,0.3-0.7,0.3-1h21
			c6.1,0,11-4.9,11-11S72.1,268,66,268z"/>
		<path class="st2" d="M60.7,302.7c-0.6-1-1.8-1.3-2.7-0.7c-1,0.6-1.3,1.8-0.7,2.7l1,1.7c0.4,0.6,1,1,1.7,1c0.3,0,0.7-0.1,1-0.3
			c1-0.6,1.3-1.8,0.7-2.7L60.7,302.7z"/>
		<path class="st2" d="M55.7,294c-0.6-1-1.8-1.3-2.7-0.7c-1,0.6-1.3,1.8-0.7,2.7l1,1.7c0.4,0.6,1,1,1.7,1c0.3,0,0.7-0.1,1-0.3
			c1-0.6,1.3-1.8,0.7-2.7L55.7,294z"/>
		<path class="st2" d="M58,298.5c0.3,0.2,0.7,0.3,1,0.3c0.7,0,1.4-0.4,1.7-1l1-1.7c0.6-1,0.2-2.2-0.7-2.7c-1-0.6-2.2-0.2-2.7,0.7
			l-1,1.7C56.7,296.7,57,297.9,58,298.5z"/>
		<path class="st2" d="M56,301.9c-1-0.6-2.2-0.2-2.7,0.7l-1,1.7c-0.6,1-0.2,2.2,0.7,2.7c0.3,0.2,0.7,0.3,1,0.3c0.7,0,1.4-0.4,1.7-1
			l1-1.7C57.3,303.7,57,302.5,56,301.9z"/>
		<path class="st2" d="M55,300.2c0-1.1-0.9-2-2-2h-2c-1.1,0-2,0.9-2,2c0,1.1,0.9,2,2,2h2C54.1,302.2,55,301.3,55,300.2z"/>
		<path class="st2" d="M63,298.2h-2c-1.1,0-2,0.9-2,2c0,1.1,0.9,2,2,2h2c1.1,0,2-0.9,2-2C65,299.1,64.1,298.2,63,298.2z"/>
	</g>
	<g>
		<path class="st2" d="M157.7,297.7c-0.6-1-1.8-1.3-2.7-0.7c-1,0.6-1.3,1.8-0.7,2.7l1,1.7c0.4,0.6,1,1,1.7,1c0.3,0,0.7-0.1,1-0.3
			c1-0.6,1.3-1.8,0.7-2.7L157.7,297.7z"/>
		<path class="st2" d="M153,296.9c-1-0.6-2.2-0.2-2.7,0.7l-1,1.7c-0.6,1-0.2,2.2,0.7,2.7c0.3,0.2,0.7,0.3,1,0.3c0.7,0,1.4-0.4,1.7-1
			l1-1.7C154.3,298.7,154,297.5,153,296.9z"/>
		<path class="st2" d="M152,295.2c0-1.1-0.9-2-2-2h-2c-1.1,0-2,0.9-2,2c0,1.1,0.9,2,2,2h2C151.1,297.2,152,296.3,152,295.2z"/>
		<path class="st2" d="M160,293.2h-2c-1.1,0-2,0.9-2,2c0,1.1,0.9,2,2,2h2c1.1,0,2-0.9,2-2C162,294.1,161.1,293.2,160,293.2z"/>
		<path class="st2" d="M180,268c-0.5,0-1.1,0.1-1.7,0.2c-2.1-7.2-8.6-12.2-16.3-12.2c-7.7,0-14.2,5-16.3,12.2
			c-0.6-0.1-1.2-0.2-1.7-0.2c-6.1,0-11,4.9-11,11s4.9,11,11,11h5c0,0.3,0.1,0.7,0.3,1l1,1.7c0.4,0.6,1,1,1.7,1c0.3,0,0.7-0.1,1-0.3
			c1-0.6,1.3-1.8,0.7-2.7l-0.4-0.7h1.4l-0.4,0.7c-0.6,1-0.2,2.2,0.7,2.7c0.3,0.2,0.7,0.3,1,0.3c0.7,0,1.4-0.4,1.7-1l1-1.7
			c0.2-0.3,0.3-0.7,0.3-1h21c6.1,0,11-4.9,11-11S186.1,268,180,268z"/>
		<path class="st2" d="M174.7,302.7c-0.6-1-1.8-1.3-2.7-0.7c-1,0.6-1.3,1.8-0.7,2.7l1,1.7c0.4,0.6,1,1,1.7,1c0.3,0,0.7-0.1,1-0.3
			c1-0.6,1.3-1.8,0.7-2.7L174.7,302.7z"/>
		<path class="st2" d="M169.7,294c-0.6-1-1.8-1.3-2.7-0.7c-1,0.6-1.3,1.8-0.7,2.7l1,1.7c0.4,0.6,1,1,1.7,1c0.3,0,0.7-0.1,1-0.3
			c1-0.6,1.3-1.8,0.7-2.7L169.7,294z"/>
		<path class="st2" d="M172,298.5c0.3,0.2,0.7,0.3,1,0.3c0.7,0,1.4-0.4,1.7-1l1-1.7c0.6-1,0.2-2.2-0.7-2.7c-1-0.6-2.2-0.2-2.7,0.7
			l-1,1.7C170.7,296.7,171,297.9,172,298.5z"/>
		<path class="st2" d="M170,301.9c-1-0.6-2.2-0.2-2.7,0.7l-1,1.7c-0.6,1-0.2,2.2,0.7,2.7c0.3,0.2,0.7,0.3,1,0.3c0.7,0,1.4-0.4,1.7-1
			l1-1.7C171.3,303.7,171,302.5,170,301.9z"/>
		<path class="st2" d="M169,300.2c0-1.1-0.9-2-2-2h-2c-1.1,0-2,0.9-2,2c0,1.1,0.9,2,2,2h2C168.1,302.2,169,301.3,169,300.2z"/>
		<path class="st2" d="M177,298.2h-2c-1.1,0-2,0.9-2,2c0,1.1,0.9,2,2,2h2c1.1,0,2-0.9,2-2C179,299.1,178.1,298.2,177,298.2z"/>
	</g>
	<g>
		<path class="st1" d="M280.6,292.6l-2.6,2.6V290c0-1.1-0.9-2-2-2c-1.1,0-2,0.9-2,2v5.2l-2.6-2.6c-0.8-0.8-2-0.8-2.8,0
			c-0.8,0.8-0.8,2,0,2.8l6,6c0.4,0.4,0.9,0.6,1.4,0.6c0.5,0,1-0.2,1.4-0.6l6-6c0.8-0.8,0.8-2,0-2.8
			C282.6,291.8,281.4,291.8,280.6,292.6z"/>
		<path class="st1" d="M285.9,266.1c-1-1-2-1.8-3.2-2.4c-1.6-0.9-3.4-1.4-5.2-1.6c-0.5,0-0.9-0.1-1.4-0.1c-7.7,0-14,6.3-14,14
			c0,1.5,0.3,3.1,0.7,4.5c0.3,0.9,0.7,1.7,1.1,2.5c0.4,0.6,1,1,1.7,1l0,0h20.8c0.2,0,0.4,0,0.5-0.1c0.5-0.1,0.9-0.5,1.2-0.9
			c0.5-0.8,0.8-1.6,1.1-2.5c0.5-1.4,0.7-3,0.7-4.5c0-2.9-0.9-5.6-2.4-7.8C287.1,267.4,286.5,266.7,285.9,266.1z M276.2,266
			c-0.5,0-1,0-1.4,0.1h0c0.4-0.1,0.8-0.1,1.2-0.1C276.1,266,276.1,266,276.2,266z M266.8,280C266.8,280,266.8,280,266.8,280
			C266.8,280,266.9,280,266.8,280L266.8,280z"/>
	</g>
	<g>
		<path class="st1" d="M391.4,288.6c-0.8-0.8-2-0.8-2.8,0l-6,6c-0.8,0.8-0.8,2,0,2.8c0.8,0.8,2,0.8,2.8,0l2.6-2.6v5.2
			c0,1.1,0.9,2,2,2c1.1,0,2-0.9,2-2v-5.2l2.6,2.6c0.4,0.4,0.9,0.6,1.4,0.6c0.5,0,1-0.2,1.4-0.6c0.8-0.8,0.8-2,0-2.8L391.4,288.6z"/>
		<path class="st1" d="M399.9,266.1c-1-1-2-1.8-3.2-2.4c-1.6-0.9-3.4-1.4-5.2-1.6c-0.5,0-0.9-0.1-1.4-0.1c-7.7,0-14,6.3-14,14
			c0,1.5,0.3,3.1,0.7,4.5c0.3,0.9,0.7,1.7,1.1,2.5c0.4,0.6,1,1,1.7,1l0,0h20.8c0.2,0,0.4,0,0.5-0.1c0.5-0.1,0.9-0.5,1.2-0.9
			c0.5-0.8,0.8-1.6,1.1-2.5c0.5-1.4,0.7-3,0.7-4.5c0-2.9-0.9-5.6-2.4-7.8C401.1,267.4,400.5,266.7,399.9,266.1z M390.2,266
			c-0.5,0-1,0-1.4,0.1h0c0.4-0.1,0.8-0.1,1.2-0.1C390.1,266,390.1,266,390.2,266z M380.8,280C380.8,280,380.8,280,380.8,280
			C380.8,280,380.9,280,380.8,280L380.8,280z"/>
	</g>
	<g>
		<path class="st2" d="M-48,382c-0.5,0-1.1,0.1-1.7,0.2C-51.8,375-58.3,370-66,370c-7.7,0-14.2,5-16.3,12.2
			c-0.6-0.1-1.2-0.2-1.7-0.2c-6.1,0-11,4.9-11,11s4.9,11,11,11h5.4l-2.4,9.5c-0.3,1.1,0.4,2.2,1.5,2.4c0.2,0,0.3,0.1,0.5,0.1
			c0.9,0,1.7-0.6,1.9-1.5l2.6-10.5h5.4l-3.9,15.5c-0.3,1.1,0.4,2.2,1.5,2.4c0.2,0,0.3,0.1,0.5,0.1c0.9,0,1.7-0.6,1.9-1.5l4.1-16.5
			h5.4l-2.4,9.5c-0.3,1.1,0.4,2.2,1.5,2.4c0.2,0,0.3,0.1,0.5,0.1c0.9,0,1.7-0.6,1.9-1.5l2.6-10.5h7.4c6.1,0,11-4.9,11-11
			S-41.9,382-48,382z"/>
	</g>
	<path class="st2" d="M66,382c-0.5,0-1.1,0.1-1.7,0.2C62.2,375,55.7,370,48,370c-7.7,0-14.2,5-16.3,12.2c-0.6-0.1-1.2-0.2-1.7-0.2
		c-6.1,0-11,4.9-11,11s4.9,11,11,11h5.4l-2.4,9.5c-0.3,1.1,0.4,2.2,1.5,2.4c0.2,0,0.3,0.1,0.5,0.1c0.9,0,1.7-0.6,1.9-1.5l2.6-10.5
		h5.4l-3.9,15.5c-0.3,1.1,0.4,2.2,1.5,2.4c0.2,0,0.3,0.1,0.5,0.1c0.9,0,1.7-0.6,1.9-1.5l4.1-16.5h5.4l-2.4,9.5
		c-0.3,1.1,0.4,2.2,1.5,2.4c0.2,0,0.3,0.1,0.5,0.1c0.9,0,1.7-0.6,1.9-1.5l2.6-10.5H66c6.1,0,11-4.9,11-11S72.1,382,66,382z"/>
	<path class="st2" d="M180,382c-0.5,0-1.1,0.1-1.7,0.2c-2.1-7.2-8.6-12.2-16.3-12.2c-7.7,0-14.2,5-16.3,12.2
		c-0.6-0.1-1.2-0.2-1.7-0.2c-6.1,0-11,4.9-11,11s4.9,11,11,11h5.4l-2.4,9.5c-0.3,1.1,0.4,2.2,1.5,2.4c0.2,0,0.3,0.1,0.5,0.1
		c0.9,0,1.7-0.6,1.9-1.5l2.6-10.5h5.4l-3.9,15.5c-0.3,1.1,0.4,2.2,1.5,2.4c0.2,0,0.3,0.1,0.5,0.1c0.9,0,1.7-0.6,1.9-1.5l4.1-16.5
		h5.4l-2.4,9.5c-0.3,1.1,0.4,2.2,1.5,2.4c0.2,0,0.3,0.1,0.5,0.1c0.9,0,1.7-0.6,1.9-1.5l2.6-10.5h7.4c6.1,0,11-4.9,11-11
		S186.1,382,180,382z"/>
	<g>
		<path class="st5" d="M375,380h12c1.1,0,2-0.9,2-2s-0.9-2-2-2h-12c-1.1,0-2,0.9-2,2S373.9,380,375,380z"/>
		<path class="st5" d="M363,386h24c1.1,0,2-0.9,2-2s-0.9-2-2-2h-24c-1.1,0-2,0.9-2,2S361.9,386,363,386z"/>
		<path class="st5" d="M357,392h24c1.1,0,2-0.9,2-2s-0.9-2-2-2h-24c-1.1,0-2,0.9-2,2S355.9,392,357,392z"/>
		<path class="st5" d="M416,396c0-1.1-0.9-2-2-2h-60c-1.1,0-2,0.9-2,2s0.9,2,2,2h60C415.1,398,416,397.1,416,396z"/>
		<path class="st5" d="M414,400h-57c-1.1,0-2,0.9-2,2s0.9,2,2,2h57c1.1,0,2-0.9,2-2S415.1,400,414,400z"/>
		<path class="st5" d="M375,406l-12,0c-1.1,0-2,0.9-2,2s0.9,2,2,2l12,0c1.1,0,2-0.9,2-2S376.1,406,375,406z"/>
		<path class="st5" d="M394,386h8c1.1,0,2-0.9,2-2s-0.9-2-2-2h-8c-1.1,0-2,0.9-2,2S392.9,386,394,386z"/>
		<path class="st5" d="M385,390c0,1.1,0.9,2,2,2h21c1.1,0,2-0.9,2-2s-0.9-2-2-2h-21C385.9,388,385,388.9,385,390z"/>
		<path class="st5" d="M408,406l-27,0c-1.1,0-2,0.9-2,2s0.9,2,2,2l27,0c1.1,0,2-0.9,2-2S409.1,406,408,406z"/>
	</g>
	<path class="st4" d="M66,496c-0.5,0-1.1,0.1-1.7,0.2C62.2,489,55.7,484,48,484c-7.7,0-14.2,5-16.3,12.2c-0.6-0.1-1.2-0.2-1.7-0.2
		c-6.1,0-11,4.9-11,11c0,6.1,4.9,11,11,11h36c6.1,0,11-4.9,11-11C77,500.9,72.1,496,66,496z"/>
	<g>
		<path class="st2" d="M135,509c1.1,0,2-0.9,2-2c0-3.9,3.1-7,7-7c0.3,0,0.7,0.1,1.2,0.2v1.8c0,1.1,0.9,2,2,2c1.1,0,2-0.9,2-2v-3.2
			c1.1-6.3,6.4-10.8,12.8-10.8c6.4,0,11.7,4.5,12.8,10.8v3.2c0,1.1,0.9,2,2,2c1.1,0,2-0.9,2-2v-1.8c0.5-0.1,0.9-0.2,1.2-0.2
			c3.9,0,7,3.1,7,7c0,1.1,0.9,2,2,2c1.1,0,2-0.9,2-2c0-6.1-4.9-11-11-11c-0.5,0-1.1,0.1-1.7,0.2c-2.1-7.2-8.6-12.2-16.3-12.2
			c-7.7,0-14.2,5-16.3,12.2c-0.6-0.1-1.2-0.2-1.7-0.2c-6.1,0-11,4.9-11,11C133,508.1,133.9,509,135,509z"/>
		<path class="st2" d="M154,515c0,1.1,0.9,2,2,2h36c1.1,0,2-0.9,2-2s-0.9-2-2-2h-36C154.9,513,154,513.9,154,515z"/>
		<path class="st2" d="M162,520c-1.1,0-2,0.9-2,2s0.9,2,2,2h27c1.1,0,2-0.9,2-2s-0.9-2-2-2H162z"/>
		<path class="st2" d="M192,527h-24c-1.1,0-2,0.9-2,2s0.9,2,2,2h24c1.1,0,2-0.9,2-2S193.1,527,192,527z"/>
		<path class="st2" d="M132,517h18c1.1,0,2-0.9,2-2s-0.9-2-2-2h-18c-1.1,0-2,0.9-2,2S130.9,517,132,517z"/>
		<path class="st2" d="M135,520c-1.1,0-2,0.9-2,2s0.9,2,2,2h21c1.1,0,2-0.9,2-2s-0.9-2-2-2H135z"/>
		<path class="st2" d="M162,527h-30c-1.1,0-2,0.9-2,2s0.9,2,2,2h30c1.1,0,2-0.9,2-2S163.1,527,162,527z"/>
	</g>
	<path class="st4" d="M180,496c-0.5,0-1.1,0.1-1.7,0.2c-2.1-7.2-8.6-12.2-16.3-12.2c-7.7,0-14.2,5-16.3,12.2
		c-0.6-0.1-1.2-0.2-1.7-0.2c-6.1,0-11,4.9-11,11c0,6.1,4.9,11,11,11h36c6.1,0,11-4.9,11-11C191,500.9,186.1,496,180,496z"/>
	<g>
		<path class="st2" d="M249,509c1.1,0,2-0.9,2-2c0-3.9,3.1-7,7-7c0.3,0,0.7,0.1,1.2,0.2v1.8c0,1.1,0.9,2,2,2s2-0.9,2-2v-3.2
			c1.1-6.3,6.4-10.8,12.8-10.8s11.7,4.5,12.8,10.8v3.2c0,1.1,0.9,2,2,2c1.1,0,2-0.9,2-2v-1.8c0.5-0.1,0.9-0.2,1.2-0.2
			c3.9,0,7,3.1,7,7c0,1.1,0.9,2,2,2c1.1,0,2-0.9,2-2c0-6.1-4.9-11-11-11c-0.5,0-1.1,0.1-1.7,0.2c-2.1-7.2-8.6-12.2-16.3-12.2
			c-7.7,0-14.2,5-16.3,12.2c-0.6-0.1-1.2-0.2-1.7-0.2c-6.1,0-11,4.9-11,11C247,508.1,247.9,509,249,509z"/>
		<path class="st2" d="M268,515c0,1.1,0.9,2,2,2h36c1.1,0,2-0.9,2-2s-0.9-2-2-2h-36C268.9,513,268,513.9,268,515z"/>
		<path class="st2" d="M276,520c-1.1,0-2,0.9-2,2s0.9,2,2,2h27c1.1,0,2-0.9,2-2s-0.9-2-2-2H276z"/>
		<path class="st2" d="M306,527h-24c-1.1,0-2,0.9-2,2s0.9,2,2,2h24c1.1,0,2-0.9,2-2S307.1,527,306,527z"/>
		<path class="st2" d="M246,517h18c1.1,0,2-0.9,2-2s-0.9-2-2-2h-18c-1.1,0-2,0.9-2,2S244.9,517,246,517z"/>
		<path class="st2" d="M249,520c-1.1,0-2,0.9-2,2s0.9,2,2,2h21c1.1,0,2-0.9,2-2s-0.9-2-2-2H249z"/>
		<path class="st2" d="M276,527h-30c-1.1,0-2,0.9-2,2s0.9,2,2,2h30c1.1,0,2-0.9,2-2S277.1,527,276,527z"/>
	</g>
	<path class="st4" d="M294,496c-0.5,0-1.1,0.1-1.7,0.2c-2.1-7.2-8.6-12.2-16.3-12.2c-7.7,0-14.2,5-16.3,12.2
		c-0.6-0.1-1.2-0.2-1.7-0.2c-6.1,0-11,4.9-11,11c0,6.1,4.9,11,11,11h36c6.1,0,11-4.9,11-11C305,500.9,300.1,496,294,496z"/>
	<path class="st4" d="M408,490c-0.5,0-1.1,0.1-1.7,0.2c-2.1-7.2-8.6-12.2-16.3-12.2c-7.7,0-14.2,5-16.3,12.2
		c-0.6-0.1-1.2-0.2-1.7-0.2c-6.1,0-11,4.9-11,11s4.9,11,11,11h36c6.1,0,11-4.9,11-11S414.1,490,408,490z"/>
	<path class="st4" d="M294-74c-0.5,0-1.1,0.1-1.7,0.2C290.2-81,283.7-86,276-86c-7.7,0-14.2,5-16.3,12.2c-0.6-0.1-1.2-0.2-1.7-0.2
		c-6.1,0-11,4.9-11,11s4.9,11,11,11h36c6.1,0,11-4.9,11-11S300.1-74,294-74z"/>
	<path class="st4" d="M408-74c-0.5,0-1.1,0.1-1.7,0.2C404.2-81,397.7-86,390-86c-7.7,0-14.2,5-16.3,12.2c-0.6-0.1-1.2-0.2-1.7-0.2
		c-6.1,0-11,4.9-11,11s4.9,11,11,11h36c6.1,0,11-4.9,11-11S414.1-74,408-74z"/>
	<path class="st4" d="M-48,40c-0.5,0-1.1,0.1-1.7,0.2C-51.8,33-58.3,28-66,28c-7.7,0-14.2,5-16.3,12.2c-0.6-0.1-1.2-0.2-1.7-0.2
		c-6.1,0-11,4.9-11,11s4.9,11,11,11h36c6.1,0,11-4.9,11-11S-41.9,40-48,40z"/>
	<g>
		<g>
			<path class="st2" d="M48,64c-1.1,0-2,0.9-2,2v18c0,1.1,0.9,2,2,2c1.1,0,2-0.9,2-2V66C50,64.9,49.1,64,48,64z"/>
			<path class="st2" d="M75.7,45.8c-0.3-0.6-0.7-1.2-1.2-1.8c-1.3-1.6-3.2-2.9-5.2-3.5c-1-0.3-2.1-0.5-3.3-0.5
				c-0.5,0-1.1,0.1-1.7,0.2C62.2,33,55.7,28,48,28c-7.7,0-14.2,5-16.3,12.2C31.1,40.1,30.5,40,30,40c-1.1,0-2.2,0.2-3.3,0.5
				c-2.1,0.6-3.9,1.9-5.2,3.5c-0.4,0.5-0.8,1.1-1.2,1.8C19.5,47.3,19,49.1,19,51s0.5,3.7,1.3,5.2c0.3,0.6,0.7,1.2,1.2,1.8
				c1.3,1.6,3.2,2.9,5.2,3.5c1,0.3,2.1,0.5,3.3,0.5h7v16c0,1.1,0.9,2,2,2c1.1,0,2-0.9,2-2V62h14v16c0,1.1,0.9,2,2,2c1.1,0,2-0.9,2-2
				V62h7c1.1,0,2.2-0.2,3.3-0.5c2.1-0.6,3.9-1.9,5.2-3.5c0.4-0.5,0.8-1.1,1.2-1.8c0.8-1.6,1.3-3.3,1.3-5.2S76.5,47.3,75.7,45.8z"/>
		</g>
		<path class="st4" d="M66,40c-0.5,0-1.1,0.1-1.7,0.2C62.2,33,55.7,28,48,28c-7.7,0-14.2,5-16.3,12.2C31.1,40.1,30.5,40,30,40
			c-6.1,0-11,4.9-11,11s4.9,11,11,11h36c6.1,0,11-4.9,11-11S72.1,40,66,40z"/>
	</g>
	<path class="st4" d="M180,40c-0.5,0-1.1,0.1-1.7,0.2C176.2,33,169.7,28,162,28c-7.7,0-14.2,5-16.3,12.2c-0.6-0.1-1.2-0.2-1.7-0.2
		c-6.1,0-11,4.9-11,11s4.9,11,11,11h36c6.1,0,11-4.9,11-11S186.1,40,180,40z"/>
	<path class="st4" d="M294,40c-0.5,0-1.1,0.1-1.7,0.2C290.2,33,283.7,28,276,28c-7.7,0-14.2,5-16.3,12.2c-0.6-0.1-1.2-0.2-1.7-0.2
		c-6.1,0-11,4.9-11,11s4.9,11,11,11h36c6.1,0,11-4.9,11-11S300.1,40,294,40z"/>
	<g>
		<g>
			<circle class="st2" cx="381" cy="66" r="2"/>
			<circle class="st2" cx="399" cy="66" r="2"/>
			<circle class="st2" cx="390" cy="72" r="2"/>
			<circle class="st2" cx="399" cy="78" r="2"/>
			<circle class="st2" cx="390" cy="84" r="2"/>
			<circle class="st2" cx="381" cy="78" r="2"/>
			<path class="st2" d="M417.7,45.8c-0.3-0.6-0.7-1.2-1.2-1.8c-1.3-1.6-3.2-2.9-5.2-3.5c-1-0.3-2.1-0.5-3.3-0.5
				c-0.3,0-0.5,0-0.8,0.1c-0.3,0-0.6,0.1-0.9,0.1c-0.9-3.1-2.7-5.9-5-7.9c-0.3-0.3-0.7-0.6-1-0.8c-0.7-0.5-1.5-1-2.3-1.4
				c-2.4-1.3-5.1-2-8-2c-7.7,0-14.2,5-16.3,12.2c-0.1,0-0.1,0-0.2,0c-0.5-0.1-1-0.2-1.5-0.2c-1.1,0-2.2,0.2-3.3,0.5
				c-2.1,0.6-3.9,1.9-5.2,3.5c-0.4,0.5-0.8,1.1-1.2,1.8c-0.8,1.6-1.3,3.3-1.3,5.2s0.5,3.7,1.3,5.2c0.3,0.6,0.7,1.2,1.2,1.8
				c1.3,1.6,3.2,2.9,5.2,3.5c1,0.3,2.1,0.5,3.3,0.5h36c1.1,0,2.2-0.2,3.3-0.5c2.1-0.6,3.9-1.9,5.2-3.5c0.4-0.5,0.8-1.1,1.2-1.8
				c0.8-1.6,1.3-3.3,1.3-5.2S418.5,47.3,417.7,45.8z"/>
		</g>
		<path class="st4" d="M408,40c-0.5,0-1.1,0.1-1.7,0.2C404.2,33,397.7,28,390,28c-7.7,0-14.2,5-16.3,12.2c-0.6-0.1-1.2-0.2-1.7-0.2
			c-6.1,0-11,4.9-11,11s4.9,11,11,11h36c6.1,0,11-4.9,11-11S414.1,40,408,40z"/>
	</g>
	<path class="st4" d="M-48,154c-0.5,0-1.1,0.1-1.7,0.2C-51.8,147-58.3,142-66,142c-7.7,0-14.2,5-16.3,12.2c-0.6-0.1-1.2-0.2-1.7-0.2
		c-6.1,0-11,4.9-11,11s4.9,11,11,11h36c6.1,0,11-4.9,11-11S-41.9,154-48,154z"/>
	<path class="st4" d="M66,154c-0.5,0-1.1,0.1-1.7,0.2C62.2,147,55.7,142,48,142c-7.7,0-14.2,5-16.3,12.2c-0.6-0.1-1.2-0.2-1.7-0.2
		c-6.1,0-11,4.9-11,11s4.9,11,11,11h36c6.1,0,11-4.9,11-11S72.1,154,66,154z"/>
	<g>
		<g>
			<path class="st2" d="M-69.3,298.7c-0.6-1-1.8-1.3-2.7-0.7c-1,0.6-1.3,1.8-0.7,2.7l1,1.7c0.4,0.6,1,1,1.7,1c0.3,0,0.7-0.1,1-0.3
				c1-0.6,1.3-1.8,0.7-2.7L-69.3,298.7z"/>
			<path class="st2" d="M-74,297.9c-1-0.6-2.2-0.2-2.7,0.7l-1,1.7c-0.6,1-0.2,2.2,0.7,2.7c0.3,0.2,0.7,0.3,1,0.3
				c0.7,0,1.4-0.4,1.7-1l1-1.7C-72.7,299.7-73,298.5-74,297.9z"/>
			<path class="st2" d="M-75,296.2c0-1.1-0.9-2-2-2h-2c-1.1,0-2,0.9-2,2c0,1.1,0.9,2,2,2h2C-75.9,298.2-75,297.3-75,296.2z"/>
			<path class="st2" d="M-67,294.2h-2c-1.1,0-2,0.9-2,2c0,1.1,0.9,2,2,2h2c1.1,0,2-0.9,2-2C-65,295.1-65.9,294.2-67,294.2z"/>
			<path class="st2" d="M-47,269c-0.5,0-1.1,0.1-1.7,0.2C-50.8,262-57.3,257-65,257c-7.7,0-14.2,5-16.3,12.2
				c-0.6-0.1-1.2-0.2-1.7-0.2c-6.1,0-11,4.9-11,11s4.9,11,11,11h5c0,0.3,0.1,0.7,0.3,1l1,1.7c0.4,0.6,1,1,1.7,1c0.3,0,0.7-0.1,1-0.3
				c1-0.6,1.3-1.8,0.7-2.7l-0.4-0.7h1.4l-0.4,0.7c-0.6,1-0.2,2.2,0.7,2.7c0.3,0.2,0.7,0.3,1,0.3c0.7,0,1.4-0.4,1.7-1l1-1.7
				c0.2-0.3,0.3-0.7,0.3-1h21c6.1,0,11-4.9,11-11S-40.9,269-47,269z"/>
			<path class="st2" d="M-52.3,303.7c-0.6-1-1.8-1.3-2.7-0.7c-1,0.6-1.3,1.8-0.7,2.7l1,1.7c0.4,0.6,1,1,1.7,1c0.3,0,0.7-0.1,1-0.3
				c1-0.6,1.3-1.8,0.7-2.7L-52.3,303.7z"/>
			<path class="st2" d="M-57.3,295c-0.6-1-1.8-1.3-2.7-0.7c-1,0.6-1.3,1.8-0.7,2.7l1,1.7c0.4,0.6,1,1,1.7,1c0.3,0,0.7-0.1,1-0.3
				c1-0.6,1.3-1.8,0.7-2.7L-57.3,295z"/>
			<path class="st2" d="M-55,299.5c0.3,0.2,0.7,0.3,1,0.3c0.7,0,1.4-0.4,1.7-1l1-1.7c0.6-1,0.2-2.2-0.7-2.7c-1-0.6-2.2-0.2-2.7,0.7
				l-1,1.7C-56.3,297.7-56,298.9-55,299.5z"/>
			<path class="st2" d="M-57,302.9c-1-0.6-2.2-0.2-2.7,0.7l-1,1.7c-0.6,1-0.2,2.2,0.7,2.7c0.3,0.2,0.7,0.3,1,0.3
				c0.7,0,1.4-0.4,1.7-1l1-1.7C-55.7,304.7-56,303.5-57,302.9z"/>
			<path class="st2" d="M-58,301.2c0-1.1-0.9-2-2-2h-2c-1.1,0-2,0.9-2,2c0,1.1,0.9,2,2,2h2C-58.9,303.2-58,302.3-58,301.2z"/>
			<path class="st2" d="M-50,299.2h-2c-1.1,0-2,0.9-2,2c0,1.1,0.9,2,2,2h2c1.1,0,2-0.9,2-2C-48,300.1-48.9,299.2-50,299.2z"/>
		</g>
		<path class="st4" d="M-47,269c-0.5,0-1.1,0.1-1.7,0.2C-50.8,262-57.3,257-65,257c-7.7,0-14.2,5-16.3,12.2
			c-0.6-0.1-1.2-0.2-1.7-0.2c-6.1,0-11,4.9-11,11s4.9,11,11,11h36c6.1,0,11-4.9,11-11S-40.9,269-47,269z"/>
	</g>
	<path class="st4" d="M66,268c-0.5,0-1.1,0.1-1.7,0.2C62.2,261,55.7,256,48,256c-7.7,0-14.2,5-16.3,12.2c-0.6-0.1-1.2-0.2-1.7-0.2
		c-6.1,0-11,4.9-11,11s4.9,11,11,11h36c6.1,0,11-4.9,11-11S72.1,268,66,268z"/>
	<path class="st4" d="M180,268c-0.5,0-1.1,0.1-1.7,0.2c-2.1-7.2-8.6-12.2-16.3-12.2c-7.7,0-14.2,5-16.3,12.2
		c-0.6-0.1-1.2-0.2-1.7-0.2c-6.1,0-11,4.9-11,11s4.9,11,11,11h36c6.1,0,11-4.9,11-11S186.1,268,180,268z"/>
	<path class="st4" d="M-48,382c-0.5,0-1.1,0.1-1.7,0.2C-51.8,375-58.3,370-66,370c-7.7,0-14.2,5-16.3,12.2c-0.6-0.1-1.2-0.2-1.7-0.2
		c-6.1,0-11,4.9-11,11s4.9,11,11,11h36c6.1,0,11-4.9,11-11S-41.9,382-48,382z"/>
	<path class="st4" d="M66,382c-0.5,0-1.1,0.1-1.7,0.2C62.2,375,55.7,370,48,370c-7.7,0-14.2,5-16.3,12.2c-0.6-0.1-1.2-0.2-1.7-0.2
		c-6.1,0-11,4.9-11,11s4.9,11,11,11h36c6.1,0,11-4.9,11-11S72.1,382,66,382z"/>
	<path class="st4" d="M180,382c-0.5,0-1.1,0.1-1.7,0.2c-2.1-7.2-8.6-12.2-16.3-12.2c-7.7,0-14.2,5-16.3,12.2
		c-0.6-0.1-1.2-0.2-1.7-0.2c-6.1,0-11,4.9-11,11s4.9,11,11,11h36c6.1,0,11-4.9,11-11S186.1,382,180,382z"/>
	<path class="st4" d="M-48,610c-0.5,0-1.1,0.1-1.7,0.2C-51.8,603-58.3,598-66,598c-7.7,0-14.2,5-16.3,12.2c-0.6-0.1-1.2-0.2-1.7-0.2
		c-6.1,0-11,4.9-11,11s4.9,11,11,11h36c6.1,0,11-4.9,11-11S-41.9,610-48,610z"/>
	<g>
		<g>
			<path class="st2" d="M-64,750v-12c0-1.1-0.9-2-2-2s-2,0.9-2,2v12c0,1.1,0.9,2,2,2S-64,751.1-64,750z"/>
			<path class="st2" d="M-73,756v-12c0-1.1-0.9-2-2-2c-1.1,0-2,0.9-2,2v12c0,1.1,0.9,2,2,2C-73.9,758-73,757.1-73,756z"/>
			<path class="st2" d="M-55,756v-12c0-1.1-0.9-2-2-2c-1.1,0-2,0.9-2,2v12c0,1.1,0.9,2,2,2C-55.9,758-55,757.1-55,756z"/>
			<path class="st2" d="M-74,762h-2c-1.1,0-2,0.9-2,2v2c0,1.1,0.9,2,2,2h2c1.1,0,2-0.9,2-2v-2C-72,762.9-72.9,762-74,762z"/>
			<path class="st2" d="M-65,756h-2c-1.1,0-2,0.9-2,2v2c0,1.1,0.9,2,2,2h2c1.1,0,2-0.9,2-2v-2C-63,756.9-63.9,756-65,756z"/>
			<path class="st2" d="M-56,762h-2c-1.1,0-2,0.9-2,2v2c0,1.1,0.9,2,2,2h2c1.1,0,2-0.9,2-2v-2C-54,762.9-54.9,762-56,762z"/>
		</g>
		<path class="st4" d="M-48,724c-0.5,0-1.1,0.1-1.7,0.2C-51.8,717-58.3,712-66,712c-7.7,0-14.2,5-16.3,12.2
			c-0.6-0.1-1.2-0.2-1.7-0.2c-6.1,0-11,4.9-11,11s4.9,11,11,11h36c6.1,0,11-4.9,11-11S-41.9,724-48,724z"/>
	</g>
	<path class="st4" d="M294,724c-0.5,0-1.1,0.1-1.7,0.2c-2.1-7.2-8.6-12.2-16.3-12.2c-7.7,0-14.2,5-16.3,12.2
		c-0.6-0.1-1.2-0.2-1.7-0.2c-6.1,0-11,4.9-11,11s4.9,11,11,11h36c6.1,0,11-4.9,11-11S300.1,724,294,724z"/>
	<path class="st4" d="M294,610c-0.5,0-1.1,0.1-1.7,0.2c-2.1-7.2-8.6-12.2-16.3-12.2c-7.7,0-14.2,5-16.3,12.2
		c-0.6-0.1-1.2-0.2-1.7-0.2c-6.1,0-11,4.9-11,11s4.9,11,11,11h36c6.1,0,11-4.9,11-11S300.1,610,294,610z"/>
	<path class="st2" d="M36.4,633.8c-0.8,1.1-3.4,4.7-3.4,7.2c0,2.9,2.1,5,5,5c2.9,0,5-2.1,5-5c0-2.5-2.6-6.1-3.4-7.2
		C38.8,632.8,37.2,632.8,36.4,633.8z"/>
	<path class="st2" d="M54.4,633.8c-0.8,1.1-3.4,4.7-3.4,7.2c0,2.9,2.1,5,5,5c2.9,0,5-2.1,5-5c0-2.5-2.6-6.1-3.4-7.2
		C56.8,632.8,55.2,632.8,54.4,633.8z"/>
	<path class="st2" d="M45.4,644.8c-0.8,1.1-3.4,4.7-3.4,7.2c0,2.9,2.1,5,5,5c2.9,0,5-2.1,5-5c0-2.5-2.6-6.1-3.4-7.2
		C47.8,643.8,46.2,643.8,45.4,644.8z"/>
	<path class="st4" d="M66,610c-0.5,0-1.1,0.1-1.7,0.2C62.2,603,55.7,598,48,598c-7.7,0-14.2,5-16.3,12.2c-0.6-0.1-1.2-0.2-1.7-0.2
		c-6.1,0-11,4.9-11,11s4.9,11,11,11h36c6.1,0,11-4.9,11-11S72.1,610,66,610z"/>
	<path class="st2" d="M-77.6,633.8c-0.8,1.1-3.4,4.7-3.4,7.2c0,2.9,2.1,5,5,5s5-2.1,5-5c0-2.5-2.6-6.1-3.4-7.2
		C-75.2,632.7-76.8,632.7-77.6,633.8z"/>
	<path class="st2" d="M-59.6,633.8c-0.8,1.1-3.4,4.7-3.4,7.2c0,2.9,2.1,5,5,5s5-2.1,5-5c0-2.5-2.6-6.1-3.4-7.2
		C-57.2,632.7-58.8,632.7-59.6,633.8z"/>
	<path class="st2" d="M-68.6,644.8c-0.8,1.1-3.4,4.7-3.4,7.2c0,2.9,2.1,5,5,5s5-2.1,5-5c0-2.5-2.6-6.1-3.4-7.2
		C-66.2,643.7-67.8,643.7-68.6,644.8z"/>
	<path class="st2" d="M164.7,633.6c-0.7-0.8-2.1-0.8-2.8,0c-0.6,0.7-5.9,7-5.9,12.1c0,1.9,0.6,3.6,1.8,5c0.9,1.1,2.6,2.3,5.5,2.3
		c4.8,0,7.3-3.7,7.3-7.3C170.5,640.6,165.3,634.3,164.7,633.6z M163.3,650.3C163.3,650.3,163.3,650.3,163.3,650.3l0,0.9L163.3,650.3
		z"/>
	<path class="st4" d="M180,610c-0.5,0-1.1,0.1-1.7,0.2c-2.1-7.2-8.6-12.2-16.3-12.2c-7.7,0-14.2,5-16.3,12.2
		c-0.6-0.1-1.2-0.2-1.7-0.2c-6.1,0-11,4.9-11,11s4.9,11,11,11h36c6.1,0,11-4.9,11-11S186.1,610,180,610z"/>
	<path class="st2" d="M279.1,633.6c-0.7-0.8-2.1-0.8-2.8,0c-0.6,0.7-5.9,7-5.9,12.1c0,1.9,0.6,3.6,1.8,5c0.9,1.1,2.6,2.3,5.5,2.3
		c4.8,0,7.3-3.7,7.3-7.3C285,640.7,279.7,634.3,279.1,633.6z M277.7,650.3L277.7,650.3l0,0.9L277.7,650.3z"/>
	<path class="st4" d="M180,724c-0.5,0-1.1,0.1-1.7,0.2c-2.1-7.2-8.6-12.2-16.3-12.2c-7.7,0-14.2,5-16.3,12.2
		c-0.6-0.1-1.2-0.2-1.7-0.2c-6.1,0-11,4.9-11,11s4.9,11,11,11h36c6.1,0,11-4.9,11-11S186.1,724,180,724z"/>
	<path class="st4" d="M66,724c-0.5,0-1.1,0.1-1.7,0.2C62.2,717,55.7,712,48,712c-7.7,0-14.2,5-16.3,12.2c-0.6-0.1-1.2-0.2-1.7-0.2
		c-6.1,0-11,4.9-11,11s4.9,11,11,11h36c6.1,0,11-4.9,11-11S72.1,724,66,724z"/>
	<path class="st4" d="M408,724c-0.5,0-1.1,0.1-1.7,0.2c-2.1-7.2-8.6-12.2-16.3-12.2c-7.7,0-14.2,5-16.3,12.2
		c-0.6-0.1-1.2-0.2-1.7-0.2c-6.1,0-11,4.9-11,11s4.9,11,11,11h36c6.1,0,11-4.9,11-11S414.1,724,408,724z"/>
	<path class="st4" d="M408,610c-0.5,0-1.1,0.1-1.7,0.2c-2.1-7.2-8.6-12.2-16.3-12.2c-7.7,0-14.2,5-16.3,12.2
		c-0.6-0.1-1.2-0.2-1.7-0.2c-6.1,0-11,4.9-11,11s4.9,11,11,11h36c6.1,0,11-4.9,11-11S414.1,610,408,610z"/>
	<path class="st2" d="M393.1,633.6c-0.7-0.8-2.1-0.8-2.8,0c-0.6,0.7-5.9,7-5.9,12.1c0,1.9,0.6,3.6,1.8,5c0.9,1.1,2.6,2.3,5.5,2.3
		c4.8,0,7.3-3.7,7.3-7.3C399,640.7,393.7,634.3,393.1,633.6z M391.7,650.3L391.7,650.3l0,0.9L391.7,650.3z"/>
	<path class="st4" d="M-48,838c-0.5,0-1.1,0.1-1.7,0.2C-51.8,831-58.3,826-66,826c-7.7,0-14.2,5-16.3,12.2c-0.6-0.1-1.2-0.2-1.7-0.2
		c-6.1,0-11,4.9-11,11s4.9,11,11,11h36c6.1,0,11-4.9,11-11S-41.9,838-48,838z"/>
	<path class="st4" d="M408.8,837.4c-0.5,0-1.1,0.1-1.7,0.2c-2.1-7.4-8.8-12.5-16.6-12.5c-7.8,0-14.5,5.2-16.6,12.5
		c-0.6-0.1-1.2-0.2-1.7-0.2c-6.2,0-11.2,5.1-11.2,11.3c0,6.2,5,11.3,11.2,11.3h36.6c6.2,0,11.2-5.1,11.2-11.3
		C420,842.4,415,837.4,408.8,837.4z"/>
	<path class="st4" d="M295,837c-0.5,0-1.1,0.1-1.7,0.2c-2.1-7.2-8.6-12.2-16.3-12.2c-7.7,0-14.2,5-16.3,12.2
		c-0.6-0.1-1.2-0.2-1.7-0.2c-6.1,0-11,4.9-11,11s4.9,11,11,11h36c6.1,0,11-4.9,11-11S301.1,837,295,837z"/>
	<g>
		<path class="st5" d="M-81,494h12c1.1,0,2-0.9,2-2s-0.9-2-2-2h-12c-1.1,0-2,0.9-2,2S-82.1,494-81,494z"/>
		<path class="st5" d="M-93,500h24c1.1,0,2-0.9,2-2s-0.9-2-2-2h-24c-1.1,0-2,0.9-2,2S-94.1,500-93,500z"/>
		<path class="st5" d="M-99,506h24c1.1,0,2-0.9,2-2s-0.9-2-2-2h-24c-1.1,0-2,0.9-2,2S-100.1,506-99,506z"/>
		<path class="st5" d="M-40,510c0-1.1-0.9-2-2-2h-60c-1.1,0-2,0.9-2,2s0.9,2,2,2h60C-40.9,512-40,511.1-40,510z"/>
		<path class="st5" d="M-42,514h-57c-1.1,0-2,0.9-2,2s0.9,2,2,2h57c1.1,0,2-0.9,2-2S-40.9,514-42,514z"/>
		<path class="st5" d="M-81,520l-12,0c-1.1,0-2,0.9-2,2c0,1.1,0.9,2,2,2l12,0c1.1,0,2-0.9,2-2S-79.9,520-81,520z"/>
		<path class="st5" d="M-62,500h8c1.1,0,2-0.9,2-2s-0.9-2-2-2h-8c-1.1,0-2,0.9-2,2S-63.1,500-62,500z"/>
		<path class="st5" d="M-71,504c0,1.1,0.9,2,2,2h21c1.1,0,2-0.9,2-2s-0.9-2-2-2h-21C-70.1,502-71,502.9-71,504z"/>
		<path class="st5" d="M-48,520l-27,0c-1.1,0-2,0.9-2,2s0.9,2,2,2l27,0c1.1,0,2-0.9,2-2C-46,520.9-46.9,520-48,520z"/>
	</g>
	<g>
		<path class="st1" d="M34-402c0,2.4,0.7,4.9,1.9,7c0.4,0.6,1,1,1.7,1h20.8c0.7,0,1.4-0.4,1.7-1c1.2-2.1,1.9-4.6,1.9-7
			c0-7.7-6.3-14-14-14S34-409.7,34-402z M38.8-398C38.8-398,38.8-398,38.8-398C38.8-398,38.9-398,38.8-398L38.8-398z M46.8-411.9
			c0.4-0.1,0.8-0.1,1.2-0.1c0.1,0,0.1,0,0.2,0C47.7-412,47.2-412,46.8-411.9z"/>
		<polygon class="st1" points="48.1,-428.4 43.2,-419.9 53,-419.9 		"/>
		<polygon class="st1" points="30.1,-406.8 21.6,-401.8 30.1,-396.9 		"/>
		<polygon class="st1" points="66.1,-396.9 74.6,-401.8 66.1,-406.8 		"/>
		<polygon class="st1" points="64.8,-418.6 59.3,-416.9 63.1,-413.1 		"/>
		<polygon class="st1" points="33,-413.1 36.8,-416.9 31.3,-418.6 		"/>
	</g>
	<g>
		<path class="st1" d="M174.3-402.6c-2.4-4.4-7-7.4-12.3-7.4c-7.7,0-14,6.3-14,14c0,1.1,0.9,2,2,2h24c1.1,0,2-0.9,2-2
			c0-2-0.4-3.9-1.2-5.6C174.7-402,174.5-402.3,174.3-402.6z"/>
		<path class="st1" d="M152.7-391.9L152.7-391.9C152.7-391.9,152.7-391.9,152.7-391.9C152.7-391.9,152.7-391.9,152.7-391.9z"/>
		<polygon class="st1" points="161.9,-422.2 157,-413.7 166.8,-413.7 		"/>
		<polygon class="st1" points="173.1,-410.8 177,-406.9 178.7,-412.5 		"/>
		<polygon class="st1" points="145.1,-412.5 146.8,-406.9 150.7,-410.8 		"/>
	</g>
	<g>
		<path class="st1" d="M276-404c-5,0-9.6,2.7-12.1,7c-0.4,0.6-0.4,1.4,0,2c0.4,0.6,1,1,1.7,1h20.8c0.7,0,1.4-0.4,1.7-1
			c0.4-0.6,0.4-1.4,0-2C285.6-401.3,281-404,276-404z M275.8-400c0.1,0,0.1,0,0.2,0c0,0,0.1,0,0.1,0C276-400,275.9-400,275.8-400z"
			/>
		<path class="st1" d="M266.8-385.8L266.8-385.8C266.8-385.8,266.8-385.8,266.8-385.8C266.8-385.8,266.8-385.8,266.8-385.8z"/>
		<polygon class="st1" points="276,-416.2 271.1,-407.7 280.9,-407.7 		"/>
		<polygon class="st1" points="287.2,-404.7 291,-400.9 292.7,-406.4 		"/>
		<polygon class="st1" points="259.2,-406.4 260.9,-400.9 264.7,-404.7 		"/>
	</g>
	<g>
		<path class="st1" d="M261.9,276.4c0,2.4,0.7,4.9,1.9,7c0.4,0.6,1,1,1.7,1h20.8c0.7,0,1.4-0.4,1.7-1c1.2-2.1,1.9-4.6,1.9-7
			c0-7.7-6.3-14-14-14S261.9,268.6,261.9,276.4z M266.8,280.4C266.7,280.3,266.7,280.3,266.8,280.4
			C266.8,280.3,266.8,280.3,266.8,280.4L266.8,280.4z M274.7,266.4c0.4-0.1,0.8-0.1,1.2-0.1c0.1,0,0.1,0,0.2,0
			C275.6,266.4,275.1,266.4,274.7,266.4z"/>
		<polygon class="st1" points="276,250 271.1,258.5 280.9,258.5 		"/>
		<polygon class="st1" points="258,271.6 249.5,276.5 258,281.4 		"/>
		<polygon class="st1" points="294,281.4 302.5,276.5 294,271.6 		"/>
		<polygon class="st1" points="292.7,259.7 287.2,261.4 291,265.3 		"/>
		<polygon class="st1" points="260.9,265.3 264.7,261.4 259.2,259.7 		"/>
	</g>
	<g>
		<path class="st1" d="M376.1,276c0,2.4,0.7,4.9,1.9,7c0.4,0.6,1,1,1.7,1h20.8c0.7,0,1.4-0.4,1.7-1c1.2-2.1,1.9-4.6,1.9-7
			c0-7.7-6.3-14-14-14C382.4,262,376.1,268.3,376.1,276z M380.9,280C380.9,280,380.9,280,380.9,280C380.9,280,381,280,380.9,280
			L380.9,280z M388.8,266.1c0.4-0.1,0.8-0.1,1.2-0.1c0.1,0,0.1,0,0.2,0C389.8,266,389.3,266,388.8,266.1z"/>
		<polygon class="st1" points="390.1,249.6 385.2,258.1 395,258.1 		"/>
		<polygon class="st1" points="372.1,271.2 363.7,276.2 372.1,281.1 		"/>
		<polygon class="st1" points="408.2,281.1 416.7,276.2 408.2,271.2 		"/>
		<polygon class="st1" points="406.9,259.4 401.3,261.1 405.2,264.9 		"/>
		<polygon class="st1" points="375.1,264.9 378.9,261.1 373.3,259.4 		"/>
	</g>
	<g>
		<path class="st4" d="M180,838c-0.5,0-1.1,0.1-1.7,0.2c-2.1-7.2-8.6-12.2-16.3-12.2c-7.7,0-14.2,5-16.3,12.2
			c-0.6-0.1-1.2-0.2-1.7-0.2c-6.1,0-11,4.9-11,11s4.9,11,11,11h36c6.1,0,11-4.9,11-11S186.1,838,180,838z"/>
		<g>
			<path class="st5" d="M175.8,865l-30,0c-1.1,0-2,0.9-2,2c0,1.1,0.9,2,2,2l30,0c3.9,0,7,3.1,7,7s-3.1,7-7,7c-1.1,0-2,0.9-2,2
				s0.9,2,2,2c6.1,0,11-4.9,11-11S181.9,865,175.8,865z"/>
			<path class="st5" d="M169.8,871h-24c-1.1,0-2,0.9-2,2s0.9,2,2,2h24c0.6,0,1,0.4,1,1s-0.4,1-1,1c-1.1,0-2,0.9-2,2s0.9,2,2,2
				c2.8,0,5-2.2,5-5S172.6,871,169.8,871z"/>
			<path class="st5" d="M190.8,857c-1.1,0-2,0.9-2,2s0.9,2,2,2c0.6,0,1,0.4,1,1s-0.4,1-1,1h-4c-1.1,0-2,0.9-2,2s0.9,2,2,2h4
				c2.8,0,5-2.2,5-5S193.6,857,190.8,857z"/>
			<path class="st5" d="M145.8,863l33,0c4.4,0,8-3.6,8-8s-3.6-8-8-8s-8,3.6-8,8c0,1.1,0.9,2,2,2c1.1,0,2-0.9,2-2c0-2.2,1.8-4,4-4
				s4,1.8,4,4s-1.8,4-4,4l-33,0c-1.1,0-2,0.9-2,2C143.8,862.1,144.7,863,145.8,863z"/>
		</g>
	</g>
	<g>
		<path class="st5" d="M290.5,864l-30,0c-1.1,0-2,0.9-2,2c0,1.1,0.9,2,2,2l30,0c3.9,0,7,3.1,7,7s-3.1,7-7,7c-1.1,0-2,0.9-2,2
			s0.9,2,2,2c6.1,0,11-4.9,11-11S296.6,864,290.5,864z"/>
		<path class="st5" d="M284.5,870h-24c-1.1,0-2,0.9-2,2s0.9,2,2,2h24c0.6,0,1,0.4,1,1s-0.4,1-1,1c-1.1,0-2,0.9-2,2s0.9,2,2,2
			c2.8,0,5-2.2,5-5S287.3,870,284.5,870z"/>
		<path class="st5" d="M305.5,856c-1.1,0-2,0.9-2,2s0.9,2,2,2c0.6,0,1,0.4,1,1s-0.4,1-1,1h-4c-1.1,0-2,0.9-2,2s0.9,2,2,2h4
			c2.8,0,5-2.2,5-5S308.3,856,305.5,856z"/>
		<path class="st5" d="M260.5,862l33,0c4.4,0,8-3.6,8-8s-3.6-8-8-8c-4.4,0-8,3.6-8,8c0,1.1,0.9,2,2,2c1.1,0,2-0.9,2-2
			c0-2.2,1.8-4,4-4c2.2,0,4,1.8,4,4s-1.8,4-4,4l-33,0c-1.1,0-2,0.9-2,2C258.5,861.1,259.4,862,260.5,862z"/>
	</g>
	<g>
		<path class="st5" d="M405.3,864l-30,0c-1.1,0-2,0.9-2,2c0,1.1,0.9,2,2,2l30,0c3.9,0,7,3.1,7,7s-3.1,7-7,7c-1.1,0-2,0.9-2,2
			s0.9,2,2,2c6.1,0,11-4.9,11-11S411.3,864,405.3,864z"/>
		<path class="st5" d="M399.3,870h-24c-1.1,0-2,0.9-2,2s0.9,2,2,2h24c0.6,0,1,0.4,1,1s-0.4,1-1,1c-1.1,0-2,0.9-2,2s0.9,2,2,2
			c2.8,0,5-2.2,5-5S402,870,399.3,870z"/>
		<path class="st5" d="M420.3,856c-1.1,0-2,0.9-2,2s0.9,2,2,2c0.6,0,1,0.4,1,1s-0.4,1-1,1h-4c-1.1,0-2,0.9-2,2s0.9,2,2,2h4
			c2.8,0,5-2.2,5-5S423,856,420.3,856z"/>
		<path class="st5" d="M375.3,862l33,0c4.4,0,8-3.6,8-8s-3.6-8-8-8s-8,3.6-8,8c0,1.1,0.9,2,2,2s2-0.9,2-2c0-2.2,1.8-4,4-4
			c2.2,0,4,1.8,4,4s-1.8,4-4,4l-33,0c-1.1,0-2,0.9-2,2C373.3,861.1,374.2,862,375.3,862z"/>
	</g>
</g>
</svg>
