<?xml version="1.0" encoding="utf-8"?>
<!-- Generator: Adobe Illustrator 19.2.0, SVG Export Plug-In . SVG Version: 6.00 Build 0)  -->
<svg version="1.1" xmlns="http://www.w3.org/2000/svg" xmlns:xlink="http://www.w3.org/1999/xlink" x="0px" y="0px"
	 viewBox="0 0 96 96" style="enable-background:new 0 0 96 96;" xml:space="preserve">
<style type="text/css">
	.st0{display:none;}
	.st1{fill:#FFCC00;}
	.st2{fill:#5AC8FA;}
	.st3{fill:#5856D6;}
	.st4{fill:#007AFF;}
	.st5{fill:#FF9500;}
	.st6{fill:#FF3B30;}
</style>
<g id="Base" class="st0">
</g>
<g id="Dibujo">
	<g>
		<polyline class="st1" points="381.7,-54.9 374.7,-41.8 379.9,-41.8 374.1,-30.4 386.3,-44.6 380.1,-44.5 389,-54.9 		"/>
		<polyline class="st1" points="394.5,-59.8 387.5,-46.7 392.7,-46.7 386.9,-35.3 399.1,-49.5 392.9,-49.4 401.8,-59.8 		"/>
	</g>
	<g>
		<path class="st2" d="M45.5,624v18c0,1.1,0.9,2,2,2c1.1,0,2-0.9,2-2v-18c0-1.1-0.9-2-2-2C46.4,622,45.5,622.9,45.5,624z"/>
		<path class="st2" d="M22.5,643h-2c-1.1,0-2,0.9-2,2v2c0,1.1,0.9,2,2,2h2c1.1,0,2-0.9,2-2v-2C24.5,643.9,23.6,643,22.5,643z"/>
		<path class="st2" d="M48.5,648h-2c-1.1,0-2,0.9-2,2v2c0,1.1,0.9,2,2,2h2c1.1,0,2-0.9,2-2v-2C50.5,648.9,49.6,648,48.5,648z"/>
		<path class="st2" d="M75.5,640h-2c-1.1,0-2,0.9-2,2v2c0,1.1,0.9,2,2,2h2c1.1,0,2-0.9,2-2v-2C77.5,640.9,76.6,640,75.5,640z"/>
		<path class="st2" d="M38.5,628c-1.1,0-2,0.9-2,2v15.1c-1.2-0.7-2.5-1.1-4-1.1h-2c-1.1,0-2,0.9-2,2s0.9,2,2,2h2c2.2,0,4,1.8,4,4
			c0,1.1,0.9,2,2,2c1.1,0,2-0.9,2-2v-22C40.5,628.9,39.6,628,38.5,628z"/>
		<path class="st2" d="M65.5,641c-2.7,0-5.1,0.9-7,2.5V630c0-1.1-0.9-2-2-2c-1.1,0-2,0.9-2,2v22c0,0,0,0,0,0c0,1.1,0.9,2,2,2
			c1.1,0,2-0.9,2-2v0c0-3.9,3.1-7,7-7c1.1,0,2-0.9,2-2S66.6,641,65.5,641z"/>
	</g>
	<g>
		<path class="st1" d="M402.2,592c-7.7,0-14,6.3-14,14s6.3,14,14,14c7.7,0,14-6.3,14-14S409.9,592,402.2,592z"/>
		<polygon class="st1" points="402.2,579.5 407.1,588 397.3,588 		"/>
		<polygon class="st1" points="428.8,606 420.3,610.9 420.3,601.1 		"/>
		<polygon class="st1" points="419,589.2 417.3,594.8 413.4,590.9 		"/>
		<polygon class="st1" points="385.4,589.2 391,590.9 387.1,594.8 		"/>
	</g>
	<g>
		<path class="st1" d="M515.9,478c-7.7,0-14,6.3-14,14s6.3,14,14,14s14-6.3,14-14S523.6,478,515.9,478z"/>
		<polygon class="st1" points="515.9,465.5 520.8,474 511,474 		"/>
		<polygon class="st1" points="542.4,492 534,496.9 534,487.1 		"/>
		<polygon class="st1" points="532.6,475.2 530.9,480.8 527.1,476.9 		"/>
		<polygon class="st1" points="499.1,475.2 504.6,476.9 500.8,480.8 		"/>
	</g>
	<g>
		<path class="st2" d="M164,521.9v-12c0-1.1-0.9-2-2-2s-2,0.9-2,2v12c0,1.1,0.9,2,2,2S164,523,164,521.9z"/>
		<path class="st2" d="M155,527.9v-12c0-1.1-0.9-2-2-2c-1.1,0-2,0.9-2,2v12c0,1.1,0.9,2,2,2C154.1,529.9,155,529,155,527.9z"/>
		<path class="st2" d="M173,527.9v-12c0-1.1-0.9-2-2-2c-1.1,0-2,0.9-2,2v12c0,1.1,0.9,2,2,2C172.1,529.9,173,529,173,527.9z"/>
		<path class="st2" d="M154,533.9h-2c-1.1,0-2,0.9-2,2v2c0,1.1,0.9,2,2,2h2c1.1,0,2-0.9,2-2v-2C156,534.8,155.1,533.9,154,533.9z"/>
		<path class="st2" d="M163,527.9h-2c-1.1,0-2,0.9-2,2v2c0,1.1,0.9,2,2,2h2c1.1,0,2-0.9,2-2v-2C165,528.8,164.1,527.9,163,527.9z"/>
		<path class="st2" d="M172,533.9h-2c-1.1,0-2,0.9-2,2v2c0,1.1,0.9,2,2,2h2c1.1,0,2-0.9,2-2v-2C174,534.8,173.1,533.9,172,533.9z"/>
	</g>
	<g>
		<path class="st1" d="M174.1,478c-7.7,0-14,6.3-14,14s6.3,14,14,14s14-6.3,14-14S181.8,478,174.1,478z"/>
		<polygon class="st1" points="174.1,465.5 179,474 169.2,474 		"/>
		<polygon class="st1" points="200.7,492 192.2,496.9 192.2,487.1 		"/>
		<polygon class="st1" points="190.9,475.2 189.2,480.8 185.3,476.9 		"/>
		<polygon class="st1" points="157.3,475.2 162.9,476.9 159,480.8 		"/>
	</g>
	<g>
		<path class="st1" d="M59.8,364.1c-7.7,0-14,6.3-14,14c0,7.7,6.3,14,14,14s14-6.3,14-14C73.8,370.3,67.5,364.1,59.8,364.1z"/>
		<polygon class="st1" points="59.8,351.6 64.7,360 54.9,360 		"/>
		<polygon class="st1" points="86.4,378.1 77.9,383 77.9,373.2 		"/>
		<polygon class="st1" points="76.6,361.3 74.8,366.8 71,363 		"/>
		<polygon class="st1" points="43,361.3 48.6,363 44.7,366.8 		"/>
	</g>
	<g>
		<path class="st1" d="M402,364c-7.7,0-14,6.3-14,14s6.3,14,14,14s14-6.3,14-14S409.7,364,402,364z"/>
		<polygon class="st1" points="402,351.5 406.9,360 397.1,360 		"/>
		<polygon class="st1" points="428.6,378 420.1,382.9 420.1,373.1 		"/>
		<polygon class="st1" points="418.8,361.2 417,366.8 413.2,362.9 		"/>
		<polygon class="st1" points="385.2,361.2 390.8,362.9 386.9,366.8 		"/>
	</g>
	<g>
		<path class="st1" d="M288.2,250c-7.7,0-14,6.3-14,14s6.3,14,14,14s14-6.3,14-14S296,250,288.2,250z"/>
		<polygon class="st1" points="288.3,237.5 293.2,246 283.4,246 		"/>
		<polygon class="st1" points="314.8,264 306.3,268.9 306.3,259.1 		"/>
		<polygon class="st1" points="305,247.2 303.3,252.8 299.5,248.9 		"/>
		<polygon class="st1" points="271.5,247.2 277,248.9 273.2,252.8 		"/>
	</g>
	<g>
		<path class="st1" d="M513.1,142c-7.7,0-14,6.3-14,14s6.3,14,14,14c7.7,0,14-6.3,14-14S520.8,142,513.1,142z"/>
		<polygon class="st1" points="513.1,129.5 518,138 508.2,138 		"/>
		<polygon class="st1" points="539.7,156 531.2,160.9 531.2,151.1 		"/>
		<polygon class="st1" points="529.9,139.2 528.2,144.8 524.3,140.9 		"/>
		<polygon class="st1" points="496.3,139.2 501.9,140.9 498,144.8 		"/>
	</g>
	<g>
		<path class="st1" d="M174,136c-7.7,0-14,6.3-14,14s6.3,14,14,14c7.7,0,14-6.3,14-14S181.7,136,174,136z"/>
		<polygon class="st1" points="174,123.5 179,132 169.1,132 		"/>
		<polygon class="st1" points="200.6,150 192.1,154.9 192.1,145.1 		"/>
		<polygon class="st1" points="190.8,133.2 189.1,138.8 185.2,134.9 		"/>
		<polygon class="st1" points="157.2,133.2 162.8,134.9 159,138.8 		"/>
	</g>
	<g>
		<path class="st1" d="M174.1,22c-7.7,0-14,6.3-14,14s6.3,14,14,14s14-6.3,14-14S181.8,22,174.1,22z"/>
		<polygon class="st1" points="174.1,9.5 179,18 169.2,18 		"/>
		<polygon class="st1" points="200.7,36 192.2,40.9 192.2,31.1 		"/>
		<polygon class="st1" points="190.9,19.2 189.2,24.8 185.3,20.9 		"/>
		<polygon class="st1" points="157.3,19.2 162.9,20.9 159,24.8 		"/>
	</g>
	<g>
		<path class="st1" d="M60.2-92c-7.7,0-14,6.3-14,14s6.3,14,14,14s14-6.3,14-14S67.9-92,60.2-92z"/>
		<polygon class="st1" points="60.2,-104.5 65.1,-96 55.3,-96 		"/>
		<polygon class="st1" points="86.8,-78 78.3,-73.1 78.3,-82.9 		"/>
		<polygon class="st1" points="77,-94.8 75.2,-89.2 71.4,-93.1 		"/>
		<polygon class="st1" points="43.4,-94.8 49,-93.1 45.1,-89.2 		"/>
	</g>
	<g>
		<path class="st1" d="M401.9-92c-7.7,0-14,6.3-14,14s6.3,14,14,14s14-6.3,14-14S409.6-92,401.9-92z"/>
		<polygon class="st1" points="401.9,-104.5 406.9,-96 397,-96 		"/>
		<polygon class="st1" points="428.5,-78 420,-73.1 420,-82.9 		"/>
		<polygon class="st1" points="418.7,-94.8 417,-89.2 413.1,-93.1 		"/>
		<polygon class="st1" points="385.1,-94.8 390.7,-93.1 386.9,-89.2 		"/>
	</g>
	<g>
		<path class="st1" d="M288-206c-7.7,0-14,6.3-14,14s6.3,14,14,14s14-6.3,14-14S295.7-206,288-206z"/>
		<polygon class="st1" points="288.1,-218.5 293,-210 283.2,-210 		"/>
		<polygon class="st1" points="314.6,-192 306.1,-187.1 306.1,-196.9 		"/>
		<polygon class="st1" points="304.8,-208.8 303.1,-203.2 299.3,-207.1 		"/>
		<polygon class="st1" points="271.3,-208.8 276.8,-207.1 273,-203.2 		"/>
	</g>
	<g>
		<path class="st1" d="M515.9-320c-7.7,0-14,6.3-14,14s6.3,14,14,14s14-6.3,14-14S523.7-320,515.9-320z"/>
		<polygon class="st1" points="516,-332.5 520.9,-324 511.1,-324 		"/>
		<polygon class="st1" points="542.5,-306 534,-301.1 534,-310.9 		"/>
		<polygon class="st1" points="532.7,-322.7 531,-317.2 527.2,-321 		"/>
		<polygon class="st1" points="499.2,-322.7 504.7,-321 500.9,-317.2 		"/>
	</g>
	<g>
		<path class="st1" d="M173.8-320c-7.7,0-14,6.3-14,14s6.3,14,14,14c7.7,0,14-6.3,14-14S181.6-320,173.8-320z"/>
		<polygon class="st1" points="173.9,-332.5 178.8,-324 169,-324 		"/>
		<polygon class="st1" points="200.4,-306 191.9,-301.1 191.9,-310.9 		"/>
		<polygon class="st1" points="190.6,-322.7 188.9,-317.2 185.1,-321 		"/>
		<polygon class="st1" points="157.1,-322.7 162.6,-321 158.8,-317.2 		"/>
	</g>
	<path class="st3" d="M62.5,589.4c0-1.2,0.2-2.3,0.6-3.4c-1-0.2-2-0.3-3-0.3c-7.7,0-14,6.3-14,14c0,7.7,6.3,14,14,14
		c7.7,0,13.9-6.2,14-13.8c-0.3,0-0.7,0.1-1,0.1C67.2,599.9,62.5,595.2,62.5,589.4z"/>
	<path class="st3" d="M518.5,589.7c0-1.2,0.2-2.3,0.6-3.4c-1-0.2-2-0.3-3-0.3c-7.7,0-14,6.3-14,14s6.3,14,14,14
		c7.7,0,13.9-6.2,14-13.8c-0.3,0-0.7,0.1-1,0.1C523.2,600.3,518.5,595.5,518.5,589.7z"/>
	<path class="st3" d="M290.5,475.4c0-1.2,0.2-2.3,0.6-3.4c-1-0.2-2-0.3-3-0.3c-7.7,0-14,6.3-14,14c0,7.7,6.3,14,14,14
		c7.7,0,13.9-6.2,14-13.8c-0.3,0-0.7,0.1-1,0.1C295.2,485.9,290.5,481.2,290.5,475.4z"/>
	<path class="st3" d="M518.6,361.7c0-1.2,0.2-2.3,0.6-3.4c-1-0.2-2-0.3-3-0.3c-7.7,0-14,6.3-14,14s6.3,14,14,14
		c7.7,0,13.9-6.2,14-13.8c-0.3,0-0.7,0.1-1,0.1C523.3,372.3,518.6,367.5,518.6,361.7z"/>
	<path class="st3" d="M176.5,361.7c0-1.2,0.2-2.3,0.6-3.4c-1-0.2-2-0.3-3-0.3c-7.7,0-14,6.3-14,14s6.3,14,14,14
		c7.7,0,13.9-6.2,14-13.8c-0.3,0-0.7,0.1-1,0.1C181.2,372.3,176.5,367.5,176.5,361.7z"/>
	<path class="st3" d="M59.5,253.7c0-1.2,0.2-2.3,0.6-3.4c-1-0.2-2-0.3-3-0.3c-7.7,0-14,6.3-14,14s6.3,14,14,14
		c7.7,0,13.9-6.2,14-13.8c-0.3,0-0.7,0.1-1,0.1C64.2,264.3,59.5,259.5,59.5,253.7z"/>
	<path class="st3" d="M290.5,133.7c0-1.2,0.2-2.3,0.6-3.4c-1-0.2-2-0.3-3-0.3c-7.7,0-14,6.3-14,14s6.3,14,14,14
		c7.7,0,13.9-6.2,14-13.8c-0.3,0-0.7,0.1-1,0.1C295.2,144.3,290.5,139.5,290.5,133.7z"/>
	<path class="st3" d="M404.5,247.7c0-1.2,0.2-2.3,0.6-3.4c-1-0.2-2-0.3-3-0.3c-7.7,0-14,6.3-14,14s6.3,14,14,14
		c7.7,0,13.9-6.2,14-13.8c-0.3,0-0.7,0.1-1,0.1C409.2,258.3,404.5,253.5,404.5,247.7z"/>
	<path class="st3" d="M290.5,19.7c0-1.2,0.2-2.3,0.6-3.4c-1-0.2-2-0.3-3-0.3c-7.7,0-14,6.3-14,14s6.3,14,14,14
		c7.7,0,13.9-6.2,14-13.8c-0.3,0-0.7,0.1-1,0.1C295.2,30.3,290.5,25.5,290.5,19.7z"/>
	<path class="st3" d="M176.5-94.3c0-1.2,0.2-2.3,0.6-3.4c-1-0.2-2-0.3-3-0.3c-7.7,0-14,6.3-14,14s6.3,14,14,14
		c7.7,0,13.9-6.2,14-13.8c-0.3,0-0.7,0.1-1,0.1C181.2-83.7,176.5-88.5,176.5-94.3z"/>
	<path class="st3" d="M518.6-94.3c0-1.2,0.2-2.3,0.6-3.4c-1-0.2-2-0.3-3-0.3c-7.7,0-14,6.3-14,14s6.3,14,14,14
		c7.7,0,13.9-6.2,14-13.8c-0.3,0-0.7,0.1-1,0.1C523.3-83.7,518.6-88.5,518.6-94.3z"/>
	<path class="st3" d="M62.5-208.3c0-1.2,0.2-2.3,0.6-3.4c-1-0.2-2-0.3-3-0.3c-7.7,0-14,6.3-14,14s6.3,14,14,14
		c7.7,0,13.9-6.2,14-13.8c-0.3,0-0.7,0.1-1,0.1C67.2-197.7,62.5-202.5,62.5-208.3z"/>
	<path class="st3" d="M290.4-322.3c0-1.2,0.2-2.3,0.6-3.4c-1-0.2-2-0.3-3-0.3c-7.7,0-14,6.3-14,14s6.3,14,14,14
		c7.7,0,13.9-6.2,14-13.8c-0.3,0-0.7,0.1-1,0.1C295.1-311.7,290.4-316.5,290.4-322.3z"/>
	<path class="st3" d="M404.5-208.3c0-1.2,0.2-2.3,0.6-3.4c-1-0.2-2-0.3-3-0.3c-7.7,0-14,6.3-14,14s6.3,14,14,14
		c7.7,0,13.9-6.2,14-13.8c-0.3,0-0.7,0.1-1,0.1C409.2-197.7,404.5-202.5,404.5-208.3z"/>
	<path class="st3" d="M506.4-646.2c0-1.2,0.2-2.3,0.6-3.4c-1-0.2-2-0.3-3-0.3c-7.7,0-14,6.3-14,14c0,7.7,6.3,14,14,14
		c7.7,0,13.9-6.2,14-13.8c-0.3,0-0.7,0.1-1,0.1C511.1-635.7,506.4-640.4,506.4-646.2z"/>
	<g>
		<path class="st2" d="M276-164c-1.1,0-2,0.9-2,2v18c0,1.1,0.9,2,2,2s2-0.9,2-2v-18C278-163.1,277.1-164,276-164z"/>
		<path class="st2" d="M303.7-182.2c-0.3-0.6-0.7-1.2-1.2-1.8c-1.3-1.6-3.2-2.9-5.2-3.5c-1-0.3-2.1-0.5-3.3-0.5
			c-0.5,0-1.1,0.1-1.7,0.2c-2.1-7.2-8.6-12.2-16.3-12.2c-7.7,0-14.2,5-16.3,12.2c-0.6-0.1-1.2-0.2-1.7-0.2c-1.1,0-2.2,0.2-3.3,0.5
			c-2.1,0.6-3.9,1.9-5.2,3.5c-0.4,0.5-0.8,1.1-1.2,1.8c-0.8,1.6-1.3,3.3-1.3,5.2s0.5,3.7,1.3,5.2c0.3,0.6,0.7,1.2,1.2,1.8
			c1.3,1.6,3.2,2.9,5.2,3.5c1,0.3,2.1,0.5,3.3,0.5h7v16c0,1.1,0.9,2,2,2s2-0.9,2-2v-16h14v16c0,1.1,0.9,2,2,2s2-0.9,2-2v-16h7
			c1.1,0,2.2-0.2,3.3-0.5c2.1-0.6,3.9-1.9,5.2-3.5c0.4-0.5,0.8-1.1,1.2-1.8c0.8-1.6,1.3-3.3,1.3-5.2S304.5-180.7,303.7-182.2z"/>
	</g>
	<path class="st4" d="M66-302c-0.5,0-1.1,0.1-1.7,0.2C62.2-309,55.7-314,48-314c-7.7,0-14.2,5-16.3,12.2c-0.6-0.1-1.2-0.2-1.7-0.2
		c-6.1,0-11,4.9-11,11s4.9,11,11,11h36c6.1,0,11-4.9,11-11S72.1-302,66-302z"/>
	<path class="st3" d="M48-536c-7.7,0-14,6.3-14,14s6.3,14,14,14s14-6.3,14-14S55.7-536,48-536z"/>
	<path class="st3" d="M162-536c-7.7,0-14,6.3-14,14s6.3,14,14,14s14-6.3,14-14S169.7-536,162-536z M162.7-512
		c3.2-2.1,5.3-5.8,5.3-10s-2.1-7.8-5.3-10c5.2,0.3,9.3,4.7,9.3,10S167.9-512.4,162.7-512z"/>
	<path class="st3" d="M276-422c-7.7,0-14,6.3-14,14s6.3,14,14,14s14-6.3,14-14S283.7-422,276-422z M266-408c0-5.3,4.1-9.6,9.3-10
		c-3.2,2.1-5.3,5.8-5.3,10s2.1,7.8,5.3,10C270.1-398.4,266-402.7,266-408z"/>
	<path class="st3" d="M276-536c-7.7,0-14,6.3-14,14s6.3,14,14,14s14-6.3,14-14S283.7-536,276-536z M276-512v-20c5.5,0,10,4.5,10,10
		S281.5-512,276-512z"/>
	<path class="st3" d="M162-422c-7.7,0-14,6.3-14,14s6.3,14,14,14s14-6.3,14-14S169.7-422,162-422z M152-408c0-5.5,4.5-10,10-10v20
		C156.5-398,152-402.5,152-408z"/>
	<path class="st3" d="M390-536c-7.7,0-14,6.3-14,14s6.3,14,14,14s14-6.3,14-14S397.7-536,390-536z M390-512c-0.2,0-0.4,0-0.7,0
		c-3.2-2.1-5.3-5.8-5.3-10s2.1-7.8,5.3-10c0.2,0,0.4,0,0.7,0c5.5,0,10,4.5,10,10S395.5-512,390-512z"/>
	<path class="st3" d="M48-422c-7.7,0-14,6.3-14,14s6.3,14,14,14s14-6.3,14-14S55.7-422,48-422z M38-408c0-5.5,4.5-10,10-10
		c0.2,0,0.4,0,0.7,0c3.2,2.1,5.3,5.8,5.3,10s-2.1,7.8-5.3,10c-0.2,0-0.4,0-0.7,0C42.5-398,38-402.5,38-408z"/>
	<path class="st3" d="M504-536c-7.7,0-14,6.3-14,14s6.3,14,14,14c7.7,0,14-6.3,14-14S511.7-536,504-536z M504-512
		c-5.5,0-10-4.5-10-10s4.5-10,10-10s10,4.5,10,10S509.5-512,504-512z"/>
	<path class="st4" d="M392-433.9v-2.1c0-1.1-0.9-2-2-2c-1.1,0-2,0.9-2,2v2.1c-13.4,1-24,12.3-24,25.9c0,1.1,0.9,2,2,2
		c1.1,0,2-0.9,2-2c0-2.2,1.8-4,4-4c2.2,0,4,1.8,4,4c0,1.1,0.9,2,2,2c1.1,0,2-0.9,2-2c0-2.2,1.8-4,4-4c2.2,0,4,1.8,4,4v21
		c0,2.8,2.2,5,5,5s5-2.2,5-5c0-1.1-0.9-2-2-2c-1.1,0-2,0.9-2,2c0,0.6-0.4,1-1,1c-0.6,0-1-0.4-1-1v-21c0-2.2,1.8-4,4-4
		c2.2,0,4,1.8,4,4c0,1.1,0.9,2,2,2c1.1,0,2-0.9,2-2c0-2.2,1.8-4,4-4c2.2,0,4,1.8,4,4c0,1.1,0.9,2,2,2c1.1,0,2-0.9,2-2
		C416-421.7,405.4-432.9,392-433.9z"/>
	<g>
		<path class="st5" d="M381,152h12c1.1,0,2-0.9,2-2s-0.9-2-2-2h-12c-1.1,0-2,0.9-2,2S379.9,152,381,152z"/>
		<path class="st5" d="M369,158h24c1.1,0,2-0.9,2-2s-0.9-2-2-2h-24c-1.1,0-2,0.9-2,2S367.9,158,369,158z"/>
		<path class="st5" d="M363,164h24c1.1,0,2-0.9,2-2s-0.9-2-2-2h-24c-1.1,0-2,0.9-2,2S361.9,164,363,164z"/>
		<path class="st5" d="M422,168c0-1.1-0.9-2-2-2h-60c-1.1,0-2,0.9-2,2s0.9,2,2,2h60C421.1,170,422,169.1,422,168z"/>
		<path class="st5" d="M420,172h-57c-1.1,0-2,0.9-2,2s0.9,2,2,2h57c1.1,0,2-0.9,2-2S421.1,172,420,172z"/>
		<path class="st5" d="M381,178l-12,0c-1.1,0-2,0.9-2,2c0,1.1,0.9,2,2,2l12,0c1.1,0,2-0.9,2-2S382.1,178,381,178z"/>
		<path class="st5" d="M400,158h8c1.1,0,2-0.9,2-2s-0.9-2-2-2h-8c-1.1,0-2,0.9-2,2S398.9,158,400,158z"/>
		<path class="st5" d="M391,162c0,1.1,0.9,2,2,2h21c1.1,0,2-0.9,2-2s-0.9-2-2-2h-21C391.9,160,391,160.9,391,162z"/>
		<path class="st5" d="M414,178l-27,0c-1.1,0-2,0.9-2,2s0.9,2,2,2l27,0c1.1,0,2-0.9,2-2C416,178.9,415.1,178,414,178z"/>
	</g>
	<g>
		<path class="st2" d="M135,281c1.1,0,2-0.9,2-2c0-3.9,3.1-7,7-7c0.3,0,0.7,0.1,1.2,0.2v1.8c0,1.1,0.9,2,2,2c1.1,0,2-0.9,2-2v-3.2
			c1.1-6.3,6.4-10.8,12.8-10.8c6.4,0,11.7,4.5,12.8,10.8v3.2c0,1.1,0.9,2,2,2c1.1,0,2-0.9,2-2v-1.8c0.5-0.1,0.9-0.2,1.2-0.2
			c3.9,0,7,3.1,7,7c0,1.1,0.9,2,2,2c1.1,0,2-0.9,2-2c0-6.1-4.9-11-11-11c-0.5,0-1.1,0.1-1.7,0.2c-2.1-7.2-8.6-12.2-16.3-12.2
			c-7.7,0-14.2,5-16.3,12.2c-0.6-0.1-1.2-0.2-1.7-0.2c-6.1,0-11,4.9-11,11C133,280.1,133.9,281,135,281z"/>
		<path class="st2" d="M154,287c0,1.1,0.9,2,2,2h36c1.1,0,2-0.9,2-2s-0.9-2-2-2h-36C154.9,285,154,285.9,154,287z"/>
		<path class="st2" d="M162,292c-1.1,0-2,0.9-2,2s0.9,2,2,2h27c1.1,0,2-0.9,2-2s-0.9-2-2-2H162z"/>
		<path class="st2" d="M192,299h-24c-1.1,0-2,0.9-2,2s0.9,2,2,2h24c1.1,0,2-0.9,2-2S193.1,299,192,299z"/>
		<path class="st2" d="M132,289h18c1.1,0,2-0.9,2-2s-0.9-2-2-2h-18c-1.1,0-2,0.9-2,2S130.9,289,132,289z"/>
		<path class="st2" d="M135,292c-1.1,0-2,0.9-2,2s0.9,2,2,2h21c1.1,0,2-0.9,2-2s-0.9-2-2-2H135z"/>
		<path class="st2" d="M162,299h-30c-1.1,0-2,0.9-2,2s0.9,2,2,2h30c1.1,0,2-0.9,2-2S163.1,299,162,299z"/>
	</g>
	<g>
		<path class="st2" d="M522,262c-0.5,0-1.1,0.1-1.7,0.2c-2.1-7.2-8.6-12.2-16.3-12.2c-7.7,0-14.2,5-16.3,12.2
			c-0.6-0.1-1.2-0.2-1.7-0.2c-6.1,0-11,4.9-11,11s4.9,11,11,11c1.1,0,2-0.9,2-2s-0.9-2-2-2c-3.9,0-7-3.1-7-7s3.1-7,7-7
			c0.3,0,0.7,0.1,1.2,0.2v1.8c0,1.1,0.9,2,2,2c1.1,0,2-0.9,2-2v-3.2c1.1-6.3,6.4-10.8,12.8-10.8c6.4,0,11.7,4.5,12.8,10.8v3.2
			c0,1.1,0.9,2,2,2c1.1,0,2-0.9,2-2v-1.8c0.5-0.1,0.9-0.2,1.2-0.2c3.9,0,7,3.1,7,7s-3.1,7-7,7c-1.1,0-2,0.9-2,2s0.9,2,2,2
			c6.1,0,11-4.9,11-11S528.1,262,522,262z"/>
		<path class="st2" d="M495.6,280.8c-0.8-1-2.4-1-3.2,0c-0.8,1.1-3.4,4.7-3.4,7.2c0,2.9,2.1,5,5,5c2.9,0,5-2.1,5-5
			C499,285.5,496.4,281.9,495.6,280.8z"/>
		<path class="st2" d="M512.4,280.8c-0.8,1.1-3.4,4.7-3.4,7.2c0,2.9,2.1,5,5,5c2.9,0,5-2.1,5-5c0-2.5-2.6-6.1-3.4-7.2
			C514.8,279.8,513.2,279.8,512.4,280.8z"/>
		<path class="st2" d="M502.4,292.8c-0.8,1.1-3.4,4.7-3.4,7.2c0,2.9,2.1,5,5,5c2.9,0,5-2.1,5-5c0-2.5-2.6-6.1-3.4-7.2
			C504.8,291.8,503.2,291.8,502.4,292.8z"/>
	</g>
	<g>
		<path d="M397.6,856.6l-5.6,5.6V849c0-1.1-0.9-2-2-2c-1.1,0-2,0.9-2,2v13.2l-5.6-5.6c-0.8-0.8-2-0.8-2.8,0c-0.8,0.8-0.8,2,0,2.8
			l9,9c0.1,0.1,0.2,0.2,0.3,0.3c0,0,0.1,0.1,0.1,0.1c0.1,0,0.1,0.1,0.2,0.1c0.1,0,0.1,0,0.2,0.1c0.1,0,0.1,0,0.2,0.1
			c0.1,0,0.3,0,0.4,0c0.1,0,0.3,0,0.4,0c0.1,0,0.1,0,0.2-0.1c0.1,0,0.1,0,0.2-0.1c0.1,0,0.1-0.1,0.2-0.1c0,0,0.1,0,0.1-0.1
			c0.1-0.1,0.2-0.2,0.3-0.3l9-9c0.8-0.8,0.8-2,0-2.8C399.6,855.8,398.4,855.8,397.6,856.6z"/>
		<path d="M408,838c-0.5,0-1.1,0.1-1.7,0.2c-2.1-7.2-8.6-12.2-16.3-12.2c-7.7,0-14.2,5-16.3,12.2c-0.6-0.1-1.2-0.2-1.7-0.2
			c-6.1,0-11,4.9-11,11s4.9,11,11,11l2,0c1.1,0,2-0.9,2-2c0-1.1-0.9-2-2-2h0l-2,0c-3.9,0-7-3.1-7-7s3.1-7,7-7c0.3,0,0.7,0.1,1.2,0.2
			v1.8c0,1.1,0.9,2,2,2c1.1,0,2-0.9,2-2v-3.2c1.1-6.3,6.4-10.8,12.8-10.8c6.4,0,11.7,4.5,12.8,10.8v3.2c0,1.1,0.9,2,2,2s2-0.9,2-2
			v-1.8c0.5-0.1,0.9-0.2,1.2-0.2c3.9,0,7,3.1,7,7s-3.1,7-7,7l-2,0h0c-1.1,0-2,0.9-2,2c0,1.1,0.9,2,2,2l2,0c6.1,0,11-4.9,11-11
			S414.1,838,408,838z"/>
	</g>
	<g>
		<path d="M505.4,847.6c-0.1-0.1-0.2-0.2-0.3-0.3c0,0-0.1-0.1-0.1-0.1c-0.1,0-0.1-0.1-0.2-0.1c-0.1,0-0.1,0-0.2-0.1
			c-0.1,0-0.1,0-0.2-0.1c-0.3-0.1-0.5-0.1-0.8,0c-0.1,0-0.1,0-0.2,0.1c-0.1,0-0.1,0-0.2,0.1c-0.1,0-0.1,0.1-0.2,0.1
			c0,0-0.1,0-0.1,0.1c-0.1,0.1-0.2,0.2-0.3,0.3l-9,9c-0.8,0.8-0.8,2,0,2.8c0.8,0.8,2,0.8,2.8,0l5.6-5.6V867c0,1.1,0.9,2,2,2
			c1.1,0,2-0.9,2-2v-13.2l5.6,5.6c0.4,0.4,0.9,0.6,1.4,0.6s1-0.2,1.4-0.6c0.8-0.8,0.8-2,0-2.8L505.4,847.6z"/>
		<path d="M522,838c-0.5,0-1.1,0.1-1.7,0.2c-2.1-7.2-8.6-12.2-16.3-12.2c-7.7,0-14.2,5-16.3,12.2c-0.6-0.1-1.2-0.2-1.7-0.2
			c-6.1,0-11,4.9-11,11s4.9,11,11,11l2,0c1.1,0,2-0.9,2-2c0-1.1-0.9-2-2-2h0l-2,0c-3.9,0-7-3.1-7-7s3.1-7,7-7c0.3,0,0.7,0.1,1.2,0.2
			v1.8c0,1.1,0.9,2,2,2c1.1,0,2-0.9,2-2v-3.2c1.1-6.3,6.4-10.8,12.8-10.8c6.4,0,11.7,4.5,12.8,10.8v3.2c0,1.1,0.9,2,2,2
			c1.1,0,2-0.9,2-2v-1.8c0.5-0.1,0.9-0.2,1.2-0.2c3.9,0,7,3.1,7,7s-3.1,7-7,7l-2,0h0c-1.1,0-2,0.9-2,2c0,1.1,0.9,2,2,2l2,0
			c6.1,0,11-4.9,11-11S528.1,838,522,838z"/>
	</g>
	<g>
		<path class="st2" d="M387.5,510v18c0,1.1,0.9,2,2,2c1.1,0,2-0.9,2-2v-18c0-1.1-0.9-2-2-2C388.4,508,387.5,508.9,387.5,510z"/>
		<path class="st2" d="M364.5,529h-2c-1.1,0-2,0.9-2,2v2c0,1.1,0.9,2,2,2h2c1.1,0,2-0.9,2-2v-2C366.5,529.9,365.6,529,364.5,529z"/>
		<path class="st2" d="M390.5,534h-2c-1.1,0-2,0.9-2,2v2c0,1.1,0.9,2,2,2h2c1.1,0,2-0.9,2-2v-2C392.5,534.9,391.6,534,390.5,534z"/>
		<path class="st2" d="M417.5,526h-2c-1.1,0-2,0.9-2,2v2c0,1.1,0.9,2,2,2h2c1.1,0,2-0.9,2-2v-2C419.5,526.9,418.6,526,417.5,526z"/>
		<path class="st2" d="M380.5,514c-1.1,0-2,0.9-2,2v15.1c-1.2-0.7-2.5-1.1-4-1.1h-2c-1.1,0-2,0.9-2,2s0.9,2,2,2h2c2.2,0,4,1.8,4,4
			c0,1.1,0.9,2,2,2c1.1,0,2-0.9,2-2v-22C382.5,514.9,381.6,514,380.5,514z"/>
		<path class="st2" d="M407.5,527c-2.7,0-5.1,0.9-7,2.5V516c0-1.1-0.9-2-2-2c-1.1,0-2,0.9-2,2v22c0,0,0,0,0,0c0,1.1,0.9,2,2,2
			c1.1,0,2-0.9,2-2v0c0-3.9,3.1-7,7-7c1.1,0,2-0.9,2-2S408.6,527,407.5,527z"/>
	</g>
	<g>
		<path class="st2" d="M502,510v18c0,1.1,0.9,2,2,2c1.1,0,2-0.9,2-2v-18c0-1.1-0.9-2-2-2C502.9,508,502,508.9,502,510z"/>
		<path class="st2" d="M479,529h-2c-1.1,0-2,0.9-2,2v2c0,1.1,0.9,2,2,2h2c1.1,0,2-0.9,2-2v-2C481,529.9,480.1,529,479,529z"/>
		<path class="st2" d="M505,534h-2c-1.1,0-2,0.9-2,2v2c0,1.1,0.9,2,2,2h2c1.1,0,2-0.9,2-2v-2C507,534.9,506.1,534,505,534z"/>
		<path class="st2" d="M532,526h-2c-1.1,0-2,0.9-2,2v2c0,1.1,0.9,2,2,2h2c1.1,0,2-0.9,2-2v-2C534,526.9,533.1,526,532,526z"/>
		<path class="st2" d="M495,514c-1.1,0-2,0.9-2,2v15.1c-1.2-0.7-2.5-1.1-4-1.1h-2c-1.1,0-2,0.9-2,2s0.9,2,2,2h2c2.2,0,4,1.8,4,4
			c0,1.1,0.9,2,2,2c1.1,0,2-0.9,2-2v-22C497,514.9,496.1,514,495,514z"/>
		<path class="st2" d="M522,527c-2.7,0-5.1,0.9-7,2.5V516c0-1.1-0.9-2-2-2c-1.1,0-2,0.9-2,2v22c0,0,0,0,0,0c0,1.1,0.9,2,2,2
			c1.1,0,2-0.9,2-2v0c0-3.9,3.1-7,7-7c1.1,0,2-0.9,2-2S523.1,527,522,527z"/>
	</g>
	<g>
		<path class="st5" d="M168,616l-30,0c-1.1,0-2,0.9-2,2c0,1.1,0.9,2,2,2l30,0c3.9,0,7,3.1,7,7s-3.1,7-7,7c-1.1,0-2,0.9-2,2
			s0.9,2,2,2c6.1,0,11-4.9,11-11S174.1,616,168,616z"/>
		<path class="st5" d="M162,622h-24c-1.1,0-2,0.9-2,2s0.9,2,2,2h24c0.6,0,1,0.4,1,1s-0.4,1-1,1c-1.1,0-2,0.9-2,2s0.9,2,2,2
			c2.8,0,5-2.2,5-5S164.8,622,162,622z"/>
		<path class="st5" d="M183,608c-1.1,0-2,0.9-2,2s0.9,2,2,2c0.6,0,1,0.4,1,1s-0.4,1-1,1h-4c-1.1,0-2,0.9-2,2s0.9,2,2,2h4
			c2.8,0,5-2.2,5-5S185.8,608,183,608z"/>
		<path class="st5" d="M138,614l33,0c4.4,0,8-3.6,8-8s-3.6-8-8-8s-8,3.6-8,8c0,1.1,0.9,2,2,2c1.1,0,2-0.9,2-2c0-2.2,1.8-4,4-4
			s4,1.8,4,4s-1.8,4-4,4l-33,0c-1.1,0-2,0.9-2,2C136,613.1,136.9,614,138,614z"/>
	</g>
	<g>
		<path class="st5" d="M24,710h42c1.1,0,2-0.9,2-2c0-1.1-0.9-2-2-2H24c-1.1,0-2,0.9-2,2C22,709.1,22.9,710,24,710z"/>
		<path class="st5" d="M66,714H27c-1.1,0-2,0.9-2,2s0.9,2,2,2h39c1.1,0,2-0.9,2-2S67.1,714,66,714z"/>
		<path class="st5" d="M62,724c0-1.1-0.9-2-2-2H24c-1.1,0-2,0.9-2,2s0.9,2,2,2h36C61.1,726,62,725.1,62,724z"/>
		<path class="st5" d="M66,730H33c-1.1,0-2,0.9-2,2s0.9,2,2,2h33c1.1,0,2-0.9,2-2S67.1,730,66,730z"/>
		<path class="st5" d="M60,738H42c-1.1,0-2,0.9-2,2s0.9,2,2,2h18c1.1,0,2-0.9,2-2S61.1,738,60,738z"/>
		<path class="st5" d="M54,746H42c-1.1,0-2,0.9-2,2s0.9,2,2,2h12c1.1,0,2-0.9,2-2S55.1,746,54,746z"/>
		<path class="st5" d="M48,754h-6c-1.1,0-2,0.9-2,2s0.9,2,2,2h6c1.1,0,2-0.9,2-2S49.1,754,48,754z"/>
	</g>
	<g>
		<path class="st2" d="M276,742c-2.8,0-5,2.2-5,5s2.2,5,5,5s5-2.2,5-5S278.8,742,276,742z M276,748c-0.6,0-1-0.4-1-1s0.4-1,1-1
			c0.6,0,1,0.4,1,1S276.6,748,276,748z"/>
		<path class="st2" d="M284,739.5l0-25.5c0-4.4-3.6-8-8-8s-8,3.6-8,8l0,25.5c-1.9,2-3,4.7-3,7.5c0,6.1,4.9,11,11,11s11-4.9,11-11
			C287,744.2,285.9,741.5,284,739.5z M276,754c-3.9,0-7-3.1-7-7c0-2,0.8-3.9,2.3-5.2c0.4-0.4,0.7-0.9,0.7-1.5l0-26.3
			c0-2.2,1.8-4,4-4c2.2,0,4,1.8,4,4l0,26.3c0,0.6,0.2,1.1,0.7,1.5c1.5,1.3,2.3,3.2,2.3,5.2C283,750.9,279.9,754,276,754z"/>
	</g>
	<g>
		<path class="st2" d="M162,758c-6.1,0-11-4.9-11-11c0-2.8,1.1-5.5,3-7.5l0-25.5c0-4.4,3.6-8,8-8s8,3.6,8,8l0,25.5
			c1.9,2,3,4.7,3,7.5C173,753.1,168.1,758,162,758L162,758z M162,710c-2.2,0-4,1.8-4,4l0,26.3c0,0.6-0.2,1.1-0.7,1.5
			c-1.5,1.3-2.3,3.2-2.3,5.2c0,3.9,3.1,7,7,7c3.9,0,7-3.1,7-7c0-2-0.8-3.9-2.3-5.2c-0.4-0.4-0.7-0.9-0.7-1.5l0-26.3
			C166,711.8,164.2,710,162,710L162,710z"/>
	</g>
	<g>
		<path class="st5" d="M392,742.4V731c0-1.1-0.9-2-2-2c-1.1,0-2,0.9-2,2v11.4c-1.8,0.8-3,2.5-3,4.6c0,2.8,2.2,5,5,5s5-2.2,5-5
			C395,745,393.8,743.2,392,742.4z M390,748c-0.6,0-1-0.4-1-1s0.4-1,1-1c0.6,0,1,0.4,1,1S390.6,748,390,748z"/>
		<path class="st5" d="M398,739.5l0-25.5c0-4.4-3.6-8-8-8s-8,3.6-8,8l0,25.5c-1.9,2-3,4.7-3,7.5c0,6.1,4.9,11,11,11s11-4.9,11-11
			C401,744.2,399.9,741.5,398,739.5z M390,754c-3.9,0-7-3.1-7-7c0-2,0.8-3.9,2.3-5.2c0.4-0.4,0.7-0.9,0.7-1.5l0-26.3
			c0-2.2,1.8-4,4-4c2.2,0,4,1.8,4,4l0,26.3c0,0.6,0.2,1.1,0.7,1.5c1.5,1.3,2.3,3.2,2.3,5.2C397,750.9,393.9,754,390,754z"/>
	</g>
	<g>
		<path class="st6" d="M506,742.4V714c0-1.1-0.9-2-2-2c-1.1,0-2,0.9-2,2v28.4c-1.8,0.8-3,2.5-3,4.6c0,2.8,2.2,5,5,5c2.8,0,5-2.2,5-5
			C509,745,507.8,743.2,506,742.4z M504,748c-0.6,0-1-0.4-1-1s0.4-1,1-1c0.6,0,1,0.4,1,1S504.6,748,504,748z"/>
		<path class="st6" d="M512,739.5l0-25.5c0-4.4-3.6-8-8-8s-8,3.6-8,8l0,25.5c-1.9,2-3,4.7-3,7.5c0,6.1,4.9,11,11,11s11-4.9,11-11
			C515,744.2,513.9,741.5,512,739.5z M504,754c-3.9,0-7-3.1-7-7c0-2,0.8-3.9,2.3-5.2c0.4-0.4,0.7-0.9,0.7-1.5l0-26.3
			c0-2.2,1.8-4,4-4c2.2,0,4,1.8,4,4l0,26.3c0,0.6,0.2,1.1,0.7,1.5c1.5,1.3,2.3,3.2,2.3,5.2C511,750.9,507.9,754,504,754z"/>
	</g>
	<path class="st6" d="M536-413.1c0-0.1,0-0.1,0-0.2c0-0.1,0-0.1,0-0.2c0-0.1,0-0.1-0.1-0.2c0-0.1,0-0.1-0.1-0.2c0,0,0,0,0-0.1
		c0,0,0-0.1-0.1-0.1c0-0.1-0.1-0.1-0.1-0.2c0-0.1-0.1-0.1-0.1-0.2c0,0-0.1-0.1-0.1-0.1c-0.1,0-0.1-0.1-0.2-0.1c0,0-0.1-0.1-0.1-0.1
		c-0.1,0-0.1-0.1-0.2-0.1c-0.1,0-0.1-0.1-0.2-0.1c-0.1,0-0.1,0-0.2-0.1c-0.1,0-0.1,0-0.2,0c-0.1,0-0.2,0-0.2,0c0,0-0.1,0-0.1,0h-4
		c0-2.8-2.2-5-5-5h-14c-1.4,0-2.7,0.6-3.6,1.5c-0.3,0.3-0.5,0.7-0.7,1c-0.8-0.4-1.7-0.6-2.7-0.6s-1.8,0.2-2.7,0.6
		c-0.2-0.4-0.4-0.7-0.7-1c-0.9-1-2.2-1.5-3.6-1.5h-14c-2.8,0-5,2.2-5,5h-4c0,0-0.1,0-0.1,0c-0.1,0-0.1,0-0.2,0c-0.1,0-0.1,0-0.2,0
		c-0.1,0-0.1,0-0.2,0.1c-0.1,0-0.1,0.1-0.2,0.1c-0.1,0-0.1,0.1-0.2,0.1c-0.1,0-0.1,0.1-0.2,0.1c-0.1,0-0.1,0.1-0.2,0.1
		c0,0-0.1,0.1-0.1,0.1c0,0-0.1,0.1-0.1,0.1c0,0.1-0.1,0.1-0.1,0.2c0,0,0,0.1-0.1,0.1c0,0,0,0,0,0.1c0,0.1-0.1,0.1-0.1,0.2
		c0,0.1,0,0.1-0.1,0.2c0,0.1,0,0.1,0,0.2c0,0.1,0,0.1,0,0.2c0,0,0,0,0,0.1c0,0,0,0.1,0,0.1c0,0.1,0,0.1,0,0.2c0,0.1,0,0.1,0,0.2
		c0,0.1,0,0.1,0.1,0.2c0,0.1,0,0.1,0.1,0.2c0,0.1,0.1,0.1,0.1,0.2c0,0.1,0.1,0.1,0.1,0.2c0,0.1,0.1,0.1,0.1,0.2c0,0,0.1,0.1,0.1,0.1
		c0,0,0.1,0.1,0.1,0.1c0.1,0,0.1,0.1,0.2,0.1c0,0,0.1,0,0.1,0.1l4.9,2.5c0.1,6,5,10.8,11,10.8c5,0,11-2.5,12.6-13.6
		c0-0.1,0-0.1,0-0.2c0-0.2,0.1-0.4,0.1-0.7c0.3-0.9,1.3-1.6,2.3-1.6c1,0,2,0.7,2.3,1.6c0,0.2,0.1,0.5,0.1,0.7c0,0.1,0,0.1,0,0.2
		C508-400.5,514-398,519-398c6,0,10.9-4.8,11-10.8l4.9-2.5c0,0,0.1,0,0.1-0.1c0.1,0,0.1-0.1,0.2-0.1c0.1,0,0.1-0.1,0.2-0.1
		c0,0,0.1-0.1,0.1-0.1c0-0.1,0.1-0.1,0.1-0.2c0,0,0.1-0.1,0.1-0.1c0-0.1,0.1-0.1,0.1-0.2c0-0.1,0.1-0.1,0.1-0.2c0-0.1,0-0.1,0.1-0.2
		c0-0.1,0-0.1,0-0.2c0-0.1,0-0.1,0-0.2C536-412.9,536-413,536-413.1C536-413,536-413,536-413.1z M490.4-412.6l-5,5
		c-0.4,0.4-0.9,0.6-1.4,0.6c-0.5,0-1-0.2-1.4-0.6c-0.8-0.8-0.8-2,0-2.8l5-5c0.8-0.8,2-0.8,2.8,0
		C491.2-414.6,491.2-413.4,490.4-412.6z M519.4-412.6l-5,5c-0.4,0.4-0.9,0.6-1.4,0.6s-1-0.2-1.4-0.6c-0.8-0.8-0.8-2,0-2.8l5-5
		c0.8-0.8,2-0.8,2.8,0C520.2-414.6,520.2-413.4,519.4-412.6z"/>
	<path class="st5" d="M78.5,829.1l-24-6c0,0-0.1,0-0.1,0c-0.1,0-0.2,0-0.3,0c-0.1,0-0.1,0-0.1,0c-0.1,0-0.2,0-0.3,0c0,0-0.1,0-0.1,0
		c-0.1,0-0.3,0.1-0.4,0.1c0,0,0,0,0,0c-0.1,0.1-0.2,0.1-0.4,0.2L44,830v-6.4c1.8-0.8,3-2.5,3-4.6c0-2.8-2.2-5-5-5s-5,2.2-5,5
		c0,2,1.2,3.8,3,4.6V874H18c-1.1,0-2,0.9-2,2s0.9,2,2,2h48c1.1,0,2-0.9,2-2s-0.9-2-2-2H44v-36l8.8,6.6c0.1,0.1,0.2,0.1,0.3,0.2
		c0.1,0,0.1,0.1,0.2,0.1c0.2,0.1,0.4,0.1,0.6,0.1c0,0,0,0,0,0h0c0,0,0,0,0,0c0.2,0,0.3,0,0.4-0.1c0,0,0,0,0,0l24-6
		c0.9-0.2,1.5-1,1.5-1.9v-6C80,830.1,79.4,829.3,78.5,829.1z M52,839l-6.7-5l6.7-5V839z M42,818c0.6,0,1,0.4,1,1s-0.4,1-1,1
		s-1-0.4-1-1S41.4,818,42,818z M56,827.6l8,2v8.9l-8,2V827.6z M76,835.4l-8,2v-6.9l8,2V835.4z"/>
	<path class="st2" d="M303,859.3l-6.2-3.6l3.5-0.9c1.1-0.3,1.7-1.4,1.4-2.4c-0.3-1.1-1.4-1.7-2.4-1.4l-7.4,2l-5.5-3.2l6.5-1.8
		c0.8-0.2,1.4-0.9,1.5-1.8c0.1-0.9-0.4-1.6-1.2-2l-5.8-2.4l4.5-2.6l7.4,2c0.2,0,0.3,0.1,0.5,0.1c0.9,0,1.7-0.6,1.9-1.5
		c0.3-1.1-0.3-2.2-1.4-2.4l-3.5-0.9l6.2-3.6c1-0.6,1.3-1.8,0.7-2.7c-0.6-1-1.8-1.3-2.7-0.7l-6.2,3.6l0.9-3.5
		c0.3-1.1-0.3-2.2-1.4-2.4c-1.1-0.3-2.2,0.3-2.4,1.4l-2,7.4l-4.5,2.6l0.8-6.2c0.1-0.8-0.3-1.6-1-2c-0.7-0.4-1.6-0.3-2.2,0.1l-5,3.8
		v-5.2l5.4-5.4c0.8-0.8,0.8-2,0-2.8c-0.8-0.8-2-0.8-2.8,0l-2.6,2.6V816c0-1.1-0.9-2-2-2s-2,0.9-2,2v7.2l-2.6-2.6
		c-0.8-0.8-2-0.8-2.8,0c-0.8,0.8-0.8,2,0,2.8l5.4,5.4v5.2l-5-3.8c-0.7-0.5-1.6-0.5-2.3-0.1c-0.7,0.5-1,1.4-0.8,2.2l1.8,6.5l-5.5-3.2
		l-2-7.4c-0.3-1.1-1.4-1.7-2.4-1.4c-1.1,0.3-1.7,1.4-1.4,2.4l0.9,3.5l-6.2-3.6c-1-0.6-2.2-0.2-2.7,0.7c-0.6,1-0.2,2.2,0.7,2.7
		l6.2,3.6l-3.5,0.9c-1.1,0.3-1.7,1.4-1.4,2.4c0.2,0.9,1,1.5,1.9,1.5c0.2,0,0.3,0,0.5-0.1l7.4-2l5.5,3.2l-6.5,1.8
		c-0.8,0.2-1.4,0.9-1.5,1.8c-0.1,0.9,0.4,1.6,1.2,2l5.8,2.4l-4.5,2.6l-7.4-2c-1.1-0.3-2.2,0.3-2.4,1.4c-0.3,1.1,0.3,2.2,1.4,2.4
		l3.5,0.9l-6.2,3.6c-1,0.6-1.3,1.8-0.7,2.7c0.4,0.6,1,1,1.7,1c0.3,0,0.7-0.1,1-0.3l6.2-3.6l-0.9,3.5c-0.3,1.1,0.3,2.2,1.4,2.4
		c0.2,0,0.3,0.1,0.5,0.1c0.9,0,1.7-0.6,1.9-1.5l2-7.4l4.5-2.6l-0.8,6.2c-0.1,0.8,0.3,1.6,1,2c0.7,0.4,1.6,0.3,2.2-0.1l5-3.8v5.2
		l-5.4,5.4c-0.8,0.8-0.8,2,0,2.8c0.8,0.8,2,0.8,2.8,0l2.6-2.6v7.2c0,1.1,0.9,2,2,2s2-0.9,2-2v-7.2l2.6,2.6c0.4,0.4,0.9,0.6,1.4,0.6
		s1-0.2,1.4-0.6c0.8-0.8,0.8-2,0-2.8l-5.4-5.4V858l5,3.8c0.4,0.3,0.8,0.4,1.2,0.4c0.4,0,0.8-0.1,1.1-0.3c0.7-0.5,1-1.4,0.8-2.2
		l-1.8-6.5l5.5,3.2l2,7.4c0.2,0.9,1,1.5,1.9,1.5c0.2,0,0.3,0,0.5-0.1c1.1-0.3,1.7-1.4,1.4-2.4l-0.9-3.5l6.2,3.6
		c0.3,0.2,0.7,0.3,1,0.3c0.7,0,1.4-0.4,1.7-1C304.3,861,303.9,859.8,303,859.3z M286.2,845.6l-4.8,1.3L280,846l3.1-1.8L286.2,845.6z
		 M281.6,836.3l-0.6,4.5l-3.1,1.8V839L281.6,836.3z M271.2,836.9l2.8,2.1v3.5l-1.5-0.9L271.2,836.9z M265.7,846.4l4.8-1.3l1.5,0.9
		l-3.1,1.8L265.7,846.4z M270.4,855.7l0.6-4.5l3.1-1.8v3.5L270.4,855.7z M280.8,855.1L278,853v-3.5l1.5,0.9L280.8,855.1z"/>
	<g>
		<path class="st5" d="M186,824c1.1,0,2-0.9,2-2s-0.9-2-2-2c-7,0-12.9,5.2-13.8,12h-2c1-7.9,7.7-14,15.9-14c1.1,0,2-0.9,2-2
			s-0.9-2-2-2c-10.4,0-18.9,7.9-19.9,18H158v-10c0-1.5-0.4-2.9-1.1-4.1l1.5-1.5c0.8-0.8,0.8-2,0-2.8c-0.8-0.8-2-0.8-2.8,0l-1.5,1.5
			c-0.6-0.4-1.3-0.7-2.1-0.9V812c0-1.1-0.9-2-2-2c-1.1,0-2,0.9-2,2v2.3c-0.7,0.2-1.4,0.5-2.1,0.9l-1.5-1.5c-0.8-0.8-2-0.8-2.8,0
			c-0.8,0.8-0.8,2,0,2.8l1.5,1.5c-0.5,0.9-0.9,2-1,3.1H138c-0.9,0-1.7,0.6-1.9,1.5c-0.2,0.9,0.2,1.8,1.1,2.2l4.9,2.4v6.8
			c0,10.4,7.9,18.9,18,19.9V864h-17.2l2.6-2.6c0.8-0.8,0.8-2,0-2.8c-0.8-0.8-2-0.8-2.8,0l-6,6c-0.1,0.1-0.2,0.2-0.2,0.3
			c0,0-0.1,0.1-0.1,0.1c0,0.1-0.1,0.1-0.1,0.2c0,0.1,0,0.1-0.1,0.2c0,0.1,0,0.1-0.1,0.2c-0.1,0.3-0.1,0.5,0,0.8c0,0.1,0,0.1,0.1,0.2
			c0,0.1,0,0.1,0.1,0.2c0,0.1,0.1,0.1,0.1,0.2c0,0,0,0.1,0.1,0.1c0.1,0.1,0.2,0.2,0.2,0.3l6,6c0.4,0.4,0.9,0.6,1.4,0.6
			s1-0.2,1.4-0.6c0.8-0.8,0.8-2,0-2.8l-2.6-2.6H160v12c0,1.1,0.9,2,2,2c1.1,0,2-0.9,2-2v-12h15.2l5.4,5.4c0.4,0.4,0.9,0.6,1.4,0.6
			s1-0.2,1.4-0.6c0.8-0.8,0.8-2,0-2.8l-4.6-4.6l4.6-4.6c0.8-0.8,0.8-2,0-2.8c-0.8-0.8-2-0.8-2.8,0l-5.4,5.4H164v-10.1
			c10.1-1,18-9.5,18-19.9c0-2.2,1.8-4,4-4c1.1,0,2-0.9,2-2s-0.9-2-2-2c-3.7,0-6.8,2.6-7.7,6h-2.1C177.1,827.4,181.2,824,186,824z
			 M165.4,836c-0.7,1.2-2,2-3.4,2c-1.5,0-2.8-0.8-3.4-2H165.4z M177.9,836c-1,7.9-7.7,14-15.9,14c-8.8,0-16-7.2-16-16v-12
			c0-2.2,1.8-4,4-4s4,1.8,4,4v12c0,0,0,0,0,0c0,4.4,3.6,8,8,8c3.7,0,6.8-2.6,7.7-6H177.9z"/>
		<circle class="st6" cx="150" cy="822" r="2"/>
	</g>
	<g>
		<path class="st1" d="M48-650c-7.7,0-14,6.3-14,14s6.3,14,14,14s14-6.3,14-14S55.7-650,48-650z"/>
		<polygon class="st1" points="48,-662.5 52.9,-654 43.1,-654 		"/>
		<polygon class="st1" points="48,-609.6 43.1,-618 52.9,-618 		"/>
		<polygon class="st1" points="21.5,-636 30,-640.9 30,-631.1 		"/>
		<polygon class="st1" points="74.6,-636 66.1,-631.1 66.1,-640.9 		"/>
		<polygon class="st1" points="64.7,-652.8 63,-647.2 59.2,-651.1 		"/>
		<polygon class="st1" points="31.2,-619.2 32.9,-624.8 36.7,-620.9 		"/>
		<polygon class="st1" points="31.2,-652.8 36.7,-651.1 32.9,-647.2 		"/>
		<polygon class="st1" points="64.7,-619.2 59.2,-620.9 63,-624.8 		"/>
	</g>
	<path class="st4" d="M180-302c-0.5,0-1.1,0.1-1.7,0.2c-2.1-7.2-8.6-12.2-16.3-12.2c-7.7,0-14.2,5-16.3,12.2
		c-0.6-0.1-1.2-0.2-1.7-0.2c-6.1,0-11,4.9-11,11s4.9,11,11,11h36c6.1,0,11-4.9,11-11S186.1-302,180-302z"/>
	<path class="st4" d="M294-302c-0.5,0-1.1,0.1-1.7,0.2c-2.1-7.2-8.6-12.2-16.3-12.2c-7.7,0-14.2,5-16.3,12.2
		c-0.6-0.1-1.2-0.2-1.7-0.2c-6.1,0-11,4.9-11,11s4.9,11,11,11h36c6.1,0,11-4.9,11-11S300.1-302,294-302z"/>
	<g>
		<path class="st2" d="M381-270c-1.1,0-2,0.9-2,2v4c0,1.1,0.9,2,2,2c1.1,0,2-0.9,2-2v-4C383-269.1,382.1-270,381-270z"/>
		<path class="st2" d="M390-264c-1.1,0-2,0.9-2,2v4c0,1.1,0.9,2,2,2c1.1,0,2-0.9,2-2v-4C392-263.1,391.1-264,390-264z"/>
		<path class="st2" d="M390-276c-1.1,0-2,0.9-2,2v4c0,1.1,0.9,2,2,2c1.1,0,2-0.9,2-2v-4C392-275.1,391.1-276,390-276z"/>
		<path class="st2" d="M399-270c-1.1,0-2,0.9-2,2v4c0,1.1,0.9,2,2,2c1.1,0,2-0.9,2-2v-4C401-269.1,400.1-270,399-270z"/>
		<path class="st2" d="M417.7-296.2c-0.3-0.6-0.7-1.2-1.2-1.8c-1.3-1.6-3.2-2.9-5.2-3.5c-1-0.3-2.1-0.5-3.3-0.5
			c-0.5,0-1.1,0.1-1.7,0.2c-0.9-3.1-2.7-5.9-5-7.9c-0.3-0.3-0.7-0.6-1-0.8c-0.7-0.5-1.5-1-2.3-1.4c-2.4-1.3-5.1-2-8-2
			c-7.7,0-14.2,5-16.3,12.2c-0.6-0.1-1.2-0.2-1.7-0.2c-1.1,0-2.2,0.2-3.3,0.5c-2.1,0.6-3.9,1.9-5.2,3.5c-0.4,0.5-0.8,1.1-1.2,1.8
			c-0.8,1.6-1.3,3.3-1.3,5.2s0.5,3.7,1.3,5.2c0.3,0.6,0.7,1.2,1.2,1.8c1.3,1.6,3.2,2.9,5.2,3.5c1,0.3,2.1,0.5,3.3,0.5h7v4
			c0,1.1,0.9,2,2,2c1.1,0,2-0.9,2-2v-4h14v4c0,1.1,0.9,2,2,2c1.1,0,2-0.9,2-2v-4h7c1.1,0,2.2-0.2,3.3-0.5c2.1-0.6,3.9-1.9,5.2-3.5
			c0.4-0.5,0.8-1.1,1.2-1.8c0.8-1.6,1.3-3.3,1.3-5.2S418.5-294.7,417.7-296.2z"/>
	</g>
	<g>
		<path class="st2" d="M495-270c-1.1,0-2,0.9-2,2v4c0,1.1,0.9,2,2,2c1.1,0,2-0.9,2-2v-4C497-269.1,496.1-270,495-270z"/>
		<path class="st2" d="M504-264c-1.1,0-2,0.9-2,2v4c0,1.1,0.9,2,2,2c1.1,0,2-0.9,2-2v-4C506-263.1,505.1-264,504-264z"/>
		<path class="st2" d="M504-276c-1.1,0-2,0.9-2,2v4c0,1.1,0.9,2,2,2c1.1,0,2-0.9,2-2v-4C506-275.1,505.1-276,504-276z"/>
		<path class="st2" d="M513-270c-1.1,0-2,0.9-2,2v4c0,1.1,0.9,2,2,2c1.1,0,2-0.9,2-2v-4C515-269.1,514.1-270,513-270z"/>
		<path class="st2" d="M531.7-296.2c-0.3-0.6-0.7-1.2-1.2-1.8c-1.3-1.6-3.2-2.9-5.2-3.5c-1-0.3-2.1-0.5-3.3-0.5
			c-0.5,0-1.1,0.1-1.7,0.2c-0.9-3.1-2.7-5.9-5-7.9c-0.3-0.3-0.7-0.6-1-0.8c-0.7-0.5-1.5-1-2.3-1.4c-2.4-1.3-5.1-2-8-2
			c-7.7,0-14.2,5-16.3,12.2c-0.6-0.1-1.2-0.2-1.7-0.2c-1.1,0-2.2,0.2-3.3,0.5c-2.1,0.6-3.9,1.9-5.2,3.5c-0.4,0.5-0.8,1.1-1.2,1.8
			c-0.8,1.6-1.3,3.3-1.3,5.2s0.5,3.7,1.3,5.2c0.3,0.6,0.7,1.2,1.2,1.8c1.3,1.6,3.2,2.9,5.2,3.5c1,0.3,2.1,0.5,3.3,0.5h7v4
			c0,1.1,0.9,2,2,2c1.1,0,2-0.9,2-2v-4h14v4c0,1.1,0.9,2,2,2c1.1,0,2-0.9,2-2v-4h7c1.1,0,2.2-0.2,3.3-0.5c2.1-0.6,3.9-1.9,5.2-3.5
			c0.4-0.5,0.8-1.1,1.2-1.8c0.8-1.6,1.3-3.3,1.3-5.2S532.5-294.7,531.7-296.2z"/>
	</g>
	<g>
		<path class="st2" d="M39-156c-1.1,0-2,0.9-2,2v4c0,1.1,0.9,2,2,2c1.1,0,2-0.9,2-2v-4C41-155.1,40.1-156,39-156z"/>
		<path class="st2" d="M48-150c-1.1,0-2,0.9-2,2v4c0,1.1,0.9,2,2,2s2-0.9,2-2v-4C50-149.1,49.1-150,48-150z"/>
		<path class="st2" d="M48-162c-1.1,0-2,0.9-2,2v4c0,1.1,0.9,2,2,2s2-0.9,2-2v-4C50-161.1,49.1-162,48-162z"/>
		<path class="st2" d="M57-156c-1.1,0-2,0.9-2,2v4c0,1.1,0.9,2,2,2c1.1,0,2-0.9,2-2v-4C59-155.1,58.1-156,57-156z"/>
		<path class="st2" d="M75.7-182.2c-0.3-0.6-0.7-1.2-1.2-1.8c-1.3-1.6-3.2-2.9-5.2-3.5c-1-0.3-2.1-0.5-3.3-0.5
			c-0.5,0-1.1,0.1-1.7,0.2c-0.9-3.1-2.7-5.9-5-7.9c-0.3-0.3-0.7-0.6-1-0.8c-0.7-0.5-1.5-1-2.3-1.4c-2.4-1.3-5.1-2-8-2
			c-7.7,0-14.2,5-16.3,12.2c-0.6-0.1-1.2-0.2-1.7-0.2c-1.1,0-2.2,0.2-3.3,0.5c-2.1,0.6-3.9,1.9-5.2,3.5c-0.4,0.5-0.8,1.1-1.2,1.8
			c-0.8,1.6-1.3,3.3-1.3,5.2s0.5,3.7,1.3,5.2c0.3,0.6,0.7,1.2,1.2,1.8c1.3,1.6,3.2,2.9,5.2,3.5c1,0.3,2.1,0.5,3.3,0.5h7v4
			c0,1.1,0.9,2,2,2c1.1,0,2-0.9,2-2v-4h14v4c0,1.1,0.9,2,2,2c1.1,0,2-0.9,2-2v-4h7c1.1,0,2.2-0.2,3.3-0.5c2.1-0.6,3.9-1.9,5.2-3.5
			c0.4-0.5,0.8-1.1,1.2-1.8c0.8-1.6,1.3-3.3,1.3-5.2S76.5-180.7,75.7-182.2z"/>
	</g>
	<g>
		<path class="st2" d="M390-164c-1.1,0-2,0.9-2,2v18c0,1.1,0.9,2,2,2c1.1,0,2-0.9,2-2v-18C392-163.1,391.1-164,390-164z"/>
		<path class="st2" d="M417.7-182.2c-0.3-0.6-0.7-1.2-1.2-1.8c-1.3-1.6-3.2-2.9-5.2-3.5c-1-0.3-2.1-0.5-3.3-0.5
			c-0.5,0-1.1,0.1-1.7,0.2c-2.1-7.2-8.6-12.2-16.3-12.2c-7.7,0-14.2,5-16.3,12.2c-0.6-0.1-1.2-0.2-1.7-0.2c-1.1,0-2.2,0.2-3.3,0.5
			c-2.1,0.6-3.9,1.9-5.2,3.5c-0.4,0.5-0.8,1.1-1.2,1.8c-0.8,1.6-1.3,3.3-1.3,5.2s0.5,3.7,1.3,5.2c0.3,0.6,0.7,1.2,1.2,1.8
			c1.3,1.6,3.2,2.9,5.2,3.5c1,0.3,2.1,0.5,3.3,0.5h7v16c0,1.1,0.9,2,2,2c1.1,0,2-0.9,2-2v-16h14v16c0,1.1,0.9,2,2,2c1.1,0,2-0.9,2-2
			v-16h7c1.1,0,2.2-0.2,3.3-0.5c2.1-0.6,3.9-1.9,5.2-3.5c0.4-0.5,0.8-1.1,1.2-1.8c0.8-1.6,1.3-3.3,1.3-5.2S418.5-180.7,417.7-182.2z
			"/>
	</g>
	<g>
		<circle class="st2" cx="39" cy="-48" r="2"/>
		<circle class="st2" cx="57" cy="-48" r="2"/>
		<circle class="st2" cx="48" cy="-42" r="2"/>
		<circle class="st2" cx="57" cy="-36" r="2"/>
		<circle class="st2" cx="48" cy="-30" r="2"/>
		<circle class="st2" cx="39" cy="-36" r="2"/>
		<path class="st2" d="M75.7-68.2c-0.3-0.6-0.7-1.2-1.2-1.8c-1.3-1.6-3.2-2.9-5.2-3.5c-1-0.3-2.1-0.5-3.3-0.5c-0.3,0-0.5,0-0.8,0.1
			c-0.3,0-0.6,0.1-0.9,0.1c-0.9-3.1-2.7-5.9-5-7.9c-0.3-0.3-0.7-0.6-1-0.8c-0.7-0.5-1.5-1-2.3-1.4c-2.4-1.3-5.1-2-8-2
			c-7.7,0-14.2,5-16.3,12.2c-0.1,0-0.1,0-0.2,0C31-73.9,30.4-74,30-74c-1.1,0-2.2,0.2-3.3,0.5c-2.1,0.6-3.9,1.9-5.2,3.5
			c-0.4,0.5-0.8,1.1-1.2,1.8C19.5-66.7,19-64.9,19-63s0.5,3.7,1.3,5.2c0.3,0.6,0.7,1.2,1.2,1.8c1.3,1.6,3.2,2.9,5.2,3.5
			c1,0.3,2.1,0.5,3.3,0.5h36c1.1,0,2.2-0.2,3.3-0.5c2.1-0.6,3.9-1.9,5.2-3.5c0.4-0.5,0.8-1.1,1.2-1.8c0.8-1.6,1.3-3.3,1.3-5.2
			S76.5-66.7,75.7-68.2z"/>
	</g>
	<g>
		<circle class="st2" cx="153" cy="-48" r="2"/>
		<circle class="st2" cx="171" cy="-48" r="2"/>
		<circle class="st2" cx="162" cy="-42" r="2"/>
		<circle class="st2" cx="171" cy="-36" r="2"/>
		<circle class="st2" cx="162" cy="-30" r="2"/>
		<circle class="st2" cx="153" cy="-36" r="2"/>
		<path class="st2" d="M189.7-68.2c-0.3-0.6-0.7-1.2-1.2-1.8c-1.3-1.6-3.2-2.9-5.2-3.5c-1-0.3-2.1-0.5-3.3-0.5c-0.3,0-0.5,0-0.8,0.1
			c-0.3,0-0.6,0.1-0.9,0.1c-0.9-3.1-2.7-5.9-5-7.9c-0.3-0.3-0.7-0.6-1-0.8c-0.7-0.5-1.5-1-2.3-1.4c-2.4-1.3-5.1-2-8-2
			c-7.7,0-14.2,5-16.3,12.2c-0.1,0-0.1,0-0.2,0c-0.5-0.1-1-0.2-1.5-0.2c-1.1,0-2.2,0.2-3.3,0.5c-2.1,0.6-3.9,1.9-5.2,3.5
			c-0.4,0.5-0.8,1.1-1.2,1.8c-0.8,1.6-1.3,3.3-1.3,5.2s0.5,3.7,1.3,5.2c0.3,0.6,0.7,1.2,1.2,1.8c1.3,1.6,3.2,2.9,5.2,3.5
			c1,0.3,2.1,0.5,3.3,0.5h36c1.1,0,2.2-0.2,3.3-0.5c2.1-0.6,3.9-1.9,5.2-3.5c0.4-0.5,0.8-1.1,1.2-1.8c0.8-1.6,1.3-3.3,1.3-5.2
			S190.5-66.7,189.7-68.2z"/>
	</g>
	<g>
		<g>
			<polyline class="st1" points="266.8,-55.4 259.8,-42.3 264.9,-42.4 259.1,-31 271.4,-45.2 265.1,-45.1 274,-55.4 			"/>
			<polyline class="st1" points="279.6,-60.3 272.6,-47.2 277.8,-47.3 272,-35.9 284.2,-50.1 278,-50 286.8,-60.3 			"/>
		</g>
		<path class="st4" d="M294-74c-0.5,0-1.1,0.1-1.7,0.2C290.2-81,283.7-86,276-86c-7.7,0-14.2,5-16.3,12.2c-0.6-0.1-1.2-0.2-1.7-0.2
			c-6.1,0-11,4.9-11,11s4.9,11,11,11h36c6.1,0,11-4.9,11-11S300.1-74,294-74z"/>
	</g>
	<path class="st4" d="M408-74c-0.5,0-1.1,0.1-1.7,0.2C404.2-81,397.7-86,390-86c-7.7,0-14.2,5-16.3,12.2c-0.6-0.1-1.2-0.2-1.7-0.2
		c-6.1,0-11,4.9-11,11s4.9,11,11,11h36c6.1,0,11-4.9,11-11S414.1-74,408-74z"/>
	<path class="st1" d="M522-74c-0.5,0-1.1,0.1-1.7,0.2C518.2-81,511.7-86,504-86c-7.7,0-14.2,5-16.3,12.2c-0.6-0.1-1.2-0.2-1.7-0.2
		c-6.1,0-11,4.9-11,11s4.9,11,11,11h11.3l-3.9,5.9c-0.4,0.6-0.4,1.4-0.1,2.1c0.3,0.7,1,1.1,1.8,1.1h2.3l-3.9,5.9
		c-0.6,0.9-0.4,2.2,0.6,2.8c0.3,0.2,0.7,0.3,1.1,0.3c0.6,0,1.3-0.3,1.7-0.9l6-9c0.4-0.6,0.4-1.4,0.1-2.1c-0.3-0.7-1-1.1-1.8-1.1
		h-2.3l3.3-5h5.2l-1.9,2.9c-0.4,0.6-0.4,1.4-0.1,2.1c0.3,0.7,1,1.1,1.8,1.1h2.3l-1.9,2.9c-0.6,0.9-0.4,2.2,0.6,2.8
		c0.3,0.2,0.7,0.3,1.1,0.3c0.6,0,1.3-0.3,1.7-0.9l4-6c0.4-0.6,0.4-1.4,0.1-2.1c-0.3-0.7-1-1.1-1.8-1.1h-2.3l1.3-2h9.9
		c6.1,0,11-4.9,11-11S528.1-74,522-74z M522-56h-36c-3.9,0-7-3.1-7-7s3.1-7,7-7c0.3,0,0.7,0.1,1.2,0.2v1.8c0,1.1,0.9,2,2,2
		s2-0.9,2-2v-3.2c1.1-6.3,6.4-10.8,12.8-10.8c6.4,0,11.7,4.5,12.8,10.8v3.2c0,1.1,0.9,2,2,2s2-0.9,2-2v-1.8c0.5-0.1,0.9-0.2,1.2-0.2
		c3.9,0,7,3.1,7,7S525.9-56,522-56z"/>
	<path class="st4" d="M522-74c-0.5,0-1.1,0.1-1.7,0.2C518.2-81,511.7-86,504-86c-7.7,0-14.2,5-16.3,12.2c-0.6-0.1-1.2-0.2-1.7-0.2
		c-6.1,0-11,4.9-11,11s4.9,11,11,11h36c6.1,0,11-4.9,11-11S528.1-74,522-74z"/>
	<g>
		<path class="st2" d="M157.7,69.7c-0.6-1-1.8-1.3-2.7-0.7c-1,0.6-1.3,1.8-0.7,2.7l1,1.7c0.4,0.6,1,1,1.7,1c0.3,0,0.7-0.1,1-0.3
			c1-0.6,1.3-1.8,0.7-2.7L157.7,69.7z"/>
		<path class="st2" d="M153,68.9c-1-0.6-2.2-0.2-2.7,0.7l-1,1.7c-0.6,1-0.2,2.2,0.7,2.7c0.3,0.2,0.7,0.3,1,0.3c0.7,0,1.4-0.4,1.7-1
			l1-1.7C154.3,70.7,154,69.5,153,68.9z"/>
		<path class="st2" d="M152,67.2c0-1.1-0.9-2-2-2h-2c-1.1,0-2,0.9-2,2c0,1.1,0.9,2,2,2h2C151.1,69.2,152,68.3,152,67.2z"/>
		<path class="st2" d="M160,65.2h-2c-1.1,0-2,0.9-2,2c0,1.1,0.9,2,2,2h2c1.1,0,2-0.9,2-2C162,66.1,161.1,65.2,160,65.2z"/>
		<path class="st2" d="M180,40c-0.5,0-1.1,0.1-1.7,0.2C176.2,33,169.7,28,162,28c-7.7,0-14.2,5-16.3,12.2c-0.6-0.1-1.2-0.2-1.7-0.2
			c-6.1,0-11,4.9-11,11s4.9,11,11,11h5c0,0.3,0.1,0.7,0.3,1l1,1.7c0.4,0.6,1,1,1.7,1c0.3,0,0.7-0.1,1-0.3c1-0.6,1.3-1.8,0.7-2.7
			l-0.4-0.7h1.4l-0.4,0.7c-0.6,1-0.2,2.2,0.7,2.7c0.3,0.2,0.7,0.3,1,0.3c0.7,0,1.4-0.4,1.7-1l1-1.7c0.2-0.3,0.3-0.7,0.3-1h21
			c6.1,0,11-4.9,11-11S186.1,40,180,40z"/>
		<path class="st2" d="M174.7,74.7c-0.6-1-1.8-1.3-2.7-0.7c-1,0.6-1.3,1.8-0.7,2.7l1,1.7c0.4,0.6,1,1,1.7,1c0.3,0,0.7-0.1,1-0.3
			c1-0.6,1.3-1.8,0.7-2.7L174.7,74.7z"/>
		<path class="st2" d="M169.7,66c-0.6-1-1.8-1.3-2.7-0.7c-1,0.6-1.3,1.8-0.7,2.7l1,1.7c0.4,0.6,1,1,1.7,1c0.3,0,0.7-0.1,1-0.3
			c1-0.6,1.3-1.8,0.7-2.7L169.7,66z"/>
		<path class="st2" d="M172,70.5c0.3,0.2,0.7,0.3,1,0.3c0.7,0,1.4-0.4,1.7-1l1-1.7c0.6-1,0.2-2.2-0.7-2.7c-1-0.6-2.2-0.2-2.7,0.7
			l-1,1.7C170.7,68.7,171,69.9,172,70.5z"/>
		<path class="st2" d="M170,73.9c-1-0.6-2.2-0.2-2.7,0.7l-1,1.7c-0.6,1-0.2,2.2,0.7,2.7c0.3,0.2,0.7,0.3,1,0.3c0.7,0,1.4-0.4,1.7-1
			l1-1.7C171.3,75.7,171,74.5,170,73.9z"/>
		<path class="st2" d="M169,72.2c0-1.1-0.9-2-2-2h-2c-1.1,0-2,0.9-2,2c0,1.1,0.9,2,2,2h2C168.1,74.2,169,73.3,169,72.2z"/>
		<path class="st2" d="M177,70.2h-2c-1.1,0-2,0.9-2,2c0,1.1,0.9,2,2,2h2c1.1,0,2-0.9,2-2C179,71.1,178.1,70.2,177,70.2z"/>
	</g>
	<g>
		<path class="st2" d="M271.7,69.7c-0.6-1-1.8-1.3-2.7-0.7c-1,0.6-1.3,1.8-0.7,2.7l1,1.7c0.4,0.6,1,1,1.7,1c0.3,0,0.7-0.1,1-0.3
			c1-0.6,1.3-1.8,0.7-2.7L271.7,69.7z"/>
		<path class="st2" d="M267,68.9c-1-0.6-2.2-0.2-2.7,0.7l-1,1.7c-0.6,1-0.2,2.2,0.7,2.7c0.3,0.2,0.7,0.3,1,0.3c0.7,0,1.4-0.4,1.7-1
			l1-1.7C268.3,70.7,268,69.5,267,68.9z"/>
		<path class="st2" d="M266,67.2c0-1.1-0.9-2-2-2h-2c-1.1,0-2,0.9-2,2c0,1.1,0.9,2,2,2h2C265.1,69.2,266,68.3,266,67.2z"/>
		<path class="st2" d="M274,65.2h-2c-1.1,0-2,0.9-2,2c0,1.1,0.9,2,2,2h2c1.1,0,2-0.9,2-2C276,66.1,275.1,65.2,274,65.2z"/>
		<path class="st2" d="M294,40c-0.5,0-1.1,0.1-1.7,0.2C290.2,33,283.7,28,276,28c-7.7,0-14.2,5-16.3,12.2c-0.6-0.1-1.2-0.2-1.7-0.2
			c-6.1,0-11,4.9-11,11s4.9,11,11,11h5c0,0.3,0.1,0.7,0.3,1l1,1.7c0.4,0.6,1,1,1.7,1c0.3,0,0.7-0.1,1-0.3c1-0.6,1.3-1.8,0.7-2.7
			l-0.4-0.7h1.4l-0.4,0.7c-0.6,1-0.2,2.2,0.7,2.7c0.3,0.2,0.7,0.3,1,0.3c0.7,0,1.4-0.4,1.7-1l1-1.7c0.2-0.3,0.3-0.7,0.3-1h21
			c6.1,0,11-4.9,11-11S300.1,40,294,40z"/>
		<path class="st2" d="M288.7,74.7c-0.6-1-1.8-1.3-2.7-0.7c-1,0.6-1.3,1.8-0.7,2.7l1,1.7c0.4,0.6,1,1,1.7,1c0.3,0,0.7-0.1,1-0.3
			c1-0.6,1.3-1.8,0.7-2.7L288.7,74.7z"/>
		<path class="st2" d="M283.7,66c-0.6-1-1.8-1.3-2.7-0.7c-1,0.6-1.3,1.8-0.7,2.7l1,1.7c0.4,0.6,1,1,1.7,1c0.3,0,0.7-0.1,1-0.3
			c1-0.6,1.3-1.8,0.7-2.7L283.7,66z"/>
		<path class="st2" d="M286,70.5c0.3,0.2,0.7,0.3,1,0.3c0.7,0,1.4-0.4,1.7-1l1-1.7c0.6-1,0.2-2.2-0.7-2.7c-1-0.6-2.2-0.2-2.7,0.7
			l-1,1.7C284.7,68.7,285,69.9,286,70.5z"/>
		<path class="st2" d="M284,73.9c-1-0.6-2.2-0.2-2.7,0.7l-1,1.7c-0.6,1-0.2,2.2,0.7,2.7c0.3,0.2,0.7,0.3,1,0.3c0.7,0,1.4-0.4,1.7-1
			l1-1.7C285.3,75.7,285,74.5,284,73.9z"/>
		<path class="st2" d="M283,72.2c0-1.1-0.9-2-2-2h-2c-1.1,0-2,0.9-2,2c0,1.1,0.9,2,2,2h2C282.1,74.2,283,73.3,283,72.2z"/>
		<path class="st2" d="M291,70.2h-2c-1.1,0-2,0.9-2,2c0,1.1,0.9,2,2,2h2c1.1,0,2-0.9,2-2C293,71.1,292.1,70.2,291,70.2z"/>
	</g>
	<g>
		<path class="st1" d="M394.6,64.6l-2.6,2.6V62c0-1.1-0.9-2-2-2c-1.1,0-2,0.9-2,2v5.2l-2.6-2.6c-0.8-0.8-2-0.8-2.8,0
			c-0.8,0.8-0.8,2,0,2.8l6,6c0.4,0.4,0.9,0.6,1.4,0.6c0.5,0,1-0.2,1.4-0.6l6-6c0.8-0.8,0.8-2,0-2.8
			C396.6,63.8,395.4,63.8,394.6,64.6z"/>
		<path class="st1" d="M399.9,38.1c-1-1-2-1.8-3.2-2.4c-1.6-0.9-3.4-1.4-5.2-1.6c-0.5,0-0.9-0.1-1.4-0.1c-7.7,0-14,6.3-14,14
			c0,1.5,0.3,3.1,0.7,4.5c0.3,0.9,0.7,1.7,1.1,2.5c0.4,0.6,1,1,1.7,1l0,0h20.8c0.2,0,0.4,0,0.5-0.1c0.5-0.1,0.9-0.5,1.2-0.9
			c0.5-0.8,0.8-1.6,1.1-2.5c0.5-1.4,0.7-3,0.7-4.5c0-2.9-0.9-5.6-2.4-7.8C401.1,39.4,400.5,38.7,399.9,38.1z M390.2,38
			c-0.5,0-1,0-1.4,0.1h0c0.4-0.1,0.8-0.1,1.2-0.1C390.1,38,390.1,38,390.2,38z M380.8,52C380.8,52,380.8,52,380.8,52
			C380.8,52,380.9,52,380.8,52L380.8,52z"/>
	</g>
	<g>
		<path class="st1" d="M505.4,60.6c-0.8-0.8-2-0.8-2.8,0l-6,6c-0.8,0.8-0.8,2,0,2.8c0.8,0.8,2,0.8,2.8,0l2.6-2.6V72c0,1.1,0.9,2,2,2
			c1.1,0,2-0.9,2-2v-5.2l2.6,2.6c0.4,0.4,0.9,0.6,1.4,0.6c0.5,0,1-0.2,1.4-0.6c0.8-0.8,0.8-2,0-2.8L505.4,60.6z"/>
		<path class="st1" d="M513.9,38.1c-1-1-2-1.8-3.2-2.4c-1.6-0.9-3.4-1.4-5.2-1.6c-0.5,0-0.9-0.1-1.4-0.1c-7.7,0-14,6.3-14,14
			c0,1.5,0.3,3.1,0.7,4.5c0.3,0.9,0.7,1.7,1.1,2.5c0.4,0.6,1,1,1.7,1l0,0h20.8c0.2,0,0.4,0,0.5-0.1c0.5-0.1,0.9-0.5,1.2-0.9
			c0.5-0.8,0.8-1.6,1.1-2.5c0.5-1.4,0.7-3,0.7-4.5c0-2.9-0.9-5.6-2.4-7.8C515.1,39.4,514.5,38.7,513.9,38.1z M504.2,38
			c-0.5,0-1,0-1.4,0.1h0c0.4-0.1,0.8-0.1,1.2-0.1C504.1,38,504.1,38,504.2,38z M494.8,52C494.8,52,494.8,52,494.8,52
			C494.8,52,494.9,52,494.8,52L494.8,52z"/>
	</g>
	<g>
		<path class="st2" d="M66,154c-0.5,0-1.1,0.1-1.7,0.2C62.2,147,55.7,142,48,142c-7.7,0-14.2,5-16.3,12.2c-0.6-0.1-1.2-0.2-1.7-0.2
			c-6.1,0-11,4.9-11,11s4.9,11,11,11h5.4l-2.4,9.5c-0.3,1.1,0.4,2.2,1.5,2.4c0.2,0,0.3,0.1,0.5,0.1c0.9,0,1.7-0.6,1.9-1.5l2.6-10.5
			h5.4l-3.9,15.5c-0.3,1.1,0.4,2.2,1.5,2.4c0.2,0,0.3,0.1,0.5,0.1c0.9,0,1.7-0.6,1.9-1.5l4.1-16.5h5.4l-2.4,9.5
			c-0.3,1.1,0.4,2.2,1.5,2.4c0.2,0,0.3,0.1,0.5,0.1c0.9,0,1.7-0.6,1.9-1.5l2.6-10.5H66c6.1,0,11-4.9,11-11S72.1,154,66,154z"/>
	</g>
	<path class="st2" d="M180,154c-0.5,0-1.1,0.1-1.7,0.2c-2.1-7.2-8.6-12.2-16.3-12.2c-7.7,0-14.2,5-16.3,12.2
		c-0.6-0.1-1.2-0.2-1.7-0.2c-6.1,0-11,4.9-11,11s4.9,11,11,11h5.4l-2.4,9.5c-0.3,1.1,0.4,2.2,1.5,2.4c0.2,0,0.3,0.1,0.5,0.1
		c0.9,0,1.7-0.6,1.9-1.5l2.6-10.5h5.4l-3.9,15.5c-0.3,1.1,0.4,2.2,1.5,2.4c0.2,0,0.3,0.1,0.5,0.1c0.9,0,1.7-0.6,1.9-1.5l4.1-16.5
		h5.4l-2.4,9.5c-0.3,1.1,0.4,2.2,1.5,2.4c0.2,0,0.3,0.1,0.5,0.1c0.9,0,1.7-0.6,1.9-1.5l2.6-10.5h7.4c6.1,0,11-4.9,11-11
		S186.1,154,180,154z"/>
	<path class="st2" d="M294,154c-0.5,0-1.1,0.1-1.7,0.2c-2.1-7.2-8.6-12.2-16.3-12.2c-7.7,0-14.2,5-16.3,12.2
		c-0.6-0.1-1.2-0.2-1.7-0.2c-6.1,0-11,4.9-11,11s4.9,11,11,11h5.4l-2.4,9.5c-0.3,1.1,0.4,2.2,1.5,2.4c0.2,0,0.3,0.1,0.5,0.1
		c0.9,0,1.7-0.6,1.9-1.5l2.6-10.5h5.4l-3.9,15.5c-0.3,1.1,0.4,2.2,1.5,2.4c0.2,0,0.3,0.1,0.5,0.1c0.9,0,1.7-0.6,1.9-1.5l4.1-16.5
		h5.4l-2.4,9.5c-0.3,1.1,0.4,2.2,1.5,2.4c0.2,0,0.3,0.1,0.5,0.1c0.9,0,1.7-0.6,1.9-1.5l2.6-10.5h7.4c6.1,0,11-4.9,11-11
		S300.1,154,294,154z"/>
	<g>
		<path class="st5" d="M489,152h12c1.1,0,2-0.9,2-2s-0.9-2-2-2h-12c-1.1,0-2,0.9-2,2S487.9,152,489,152z"/>
		<path class="st5" d="M477,158h24c1.1,0,2-0.9,2-2s-0.9-2-2-2h-24c-1.1,0-2,0.9-2,2S475.9,158,477,158z"/>
		<path class="st5" d="M471,164h24c1.1,0,2-0.9,2-2s-0.9-2-2-2h-24c-1.1,0-2,0.9-2,2S469.9,164,471,164z"/>
		<path class="st5" d="M530,168c0-1.1-0.9-2-2-2h-60c-1.1,0-2,0.9-2,2s0.9,2,2,2h60C529.1,170,530,169.1,530,168z"/>
		<path class="st5" d="M528,172h-57c-1.1,0-2,0.9-2,2s0.9,2,2,2h57c1.1,0,2-0.9,2-2S529.1,172,528,172z"/>
		<path class="st5" d="M489,178l-12,0c-1.1,0-2,0.9-2,2c0,1.1,0.9,2,2,2l12,0c1.1,0,2-0.9,2-2S490.1,178,489,178z"/>
		<path class="st5" d="M508,158h8c1.1,0,2-0.9,2-2s-0.9-2-2-2h-8c-1.1,0-2,0.9-2,2S506.9,158,508,158z"/>
		<path class="st5" d="M499,162c0,1.1,0.9,2,2,2h21c1.1,0,2-0.9,2-2s-0.9-2-2-2h-21C499.9,160,499,160.9,499,162z"/>
		<path class="st5" d="M522,178l-27,0c-1.1,0-2,0.9-2,2s0.9,2,2,2l27,0c1.1,0,2-0.9,2-2C524,178.9,523.1,178,522,178z"/>
	</g>
	<path class="st4" d="M180,268c-0.5,0-1.1,0.1-1.7,0.2c-2.1-7.2-8.6-12.2-16.3-12.2c-7.7,0-14.2,5-16.3,12.2
		c-0.6-0.1-1.2-0.2-1.7-0.2c-6.1,0-11,4.9-11,11s4.9,11,11,11h36c6.1,0,11-4.9,11-11S186.1,268,180,268z"/>
	<g>
		<path class="st2" d="M249,281c1.1,0,2-0.9,2-2c0-3.9,3.1-7,7-7c0.3,0,0.7,0.1,1.2,0.2v1.8c0,1.1,0.9,2,2,2s2-0.9,2-2v-3.2
			c1.1-6.3,6.4-10.8,12.8-10.8s11.7,4.5,12.8,10.8v3.2c0,1.1,0.9,2,2,2c1.1,0,2-0.9,2-2v-1.8c0.5-0.1,0.9-0.2,1.2-0.2
			c3.9,0,7,3.1,7,7c0,1.1,0.9,2,2,2s2-0.9,2-2c0-6.1-4.9-11-11-11c-0.5,0-1.1,0.1-1.7,0.2c-2.1-7.2-8.6-12.2-16.3-12.2
			s-14.2,5-16.3,12.2c-0.6-0.1-1.2-0.2-1.7-0.2c-6.1,0-11,4.9-11,11C247,280.1,247.9,281,249,281z"/>
		<path class="st2" d="M268,287c0,1.1,0.9,2,2,2h36c1.1,0,2-0.9,2-2s-0.9-2-2-2h-36C268.9,285,268,285.9,268,287z"/>
		<path class="st2" d="M276,292c-1.1,0-2,0.9-2,2s0.9,2,2,2h27c1.1,0,2-0.9,2-2s-0.9-2-2-2H276z"/>
		<path class="st2" d="M306,299h-24c-1.1,0-2,0.9-2,2s0.9,2,2,2h24c1.1,0,2-0.9,2-2S307.1,299,306,299z"/>
		<path class="st2" d="M246,289h18c1.1,0,2-0.9,2-2s-0.9-2-2-2h-18c-1.1,0-2,0.9-2,2S244.9,289,246,289z"/>
		<path class="st2" d="M249,292c-1.1,0-2,0.9-2,2s0.9,2,2,2h21c1.1,0,2-0.9,2-2s-0.9-2-2-2H249z"/>
		<path class="st2" d="M276,299h-30c-1.1,0-2,0.9-2,2s0.9,2,2,2h30c1.1,0,2-0.9,2-2S277.1,299,276,299z"/>
	</g>
	<path class="st4" d="M294,268c-0.5,0-1.1,0.1-1.7,0.2c-2.1-7.2-8.6-12.2-16.3-12.2c-7.7,0-14.2,5-16.3,12.2
		c-0.6-0.1-1.2-0.2-1.7-0.2c-6.1,0-11,4.9-11,11s4.9,11,11,11h36c6.1,0,11-4.9,11-11S300.1,268,294,268z"/>
	<g>
		<path class="st2" d="M363,281c1.1,0,2-0.9,2-2c0-3.9,3.1-7,7-7c0.3,0,0.7,0.1,1.2,0.2v1.8c0,1.1,0.9,2,2,2s2-0.9,2-2v-3.2
			c1.1-6.3,6.4-10.8,12.8-10.8s11.7,4.5,12.8,10.8v3.2c0,1.1,0.9,2,2,2c1.1,0,2-0.9,2-2v-1.8c0.5-0.1,0.9-0.2,1.2-0.2
			c3.9,0,7,3.1,7,7c0,1.1,0.9,2,2,2c1.1,0,2-0.9,2-2c0-6.1-4.9-11-11-11c-0.5,0-1.1,0.1-1.7,0.2c-2.1-7.2-8.6-12.2-16.3-12.2
			c-7.7,0-14.2,5-16.3,12.2c-0.6-0.1-1.2-0.2-1.7-0.2c-6.1,0-11,4.9-11,11C361,280.1,361.9,281,363,281z"/>
		<path class="st2" d="M382,287c0,1.1,0.9,2,2,2h36c1.1,0,2-0.9,2-2s-0.9-2-2-2h-36C382.9,285,382,285.9,382,287z"/>
		<path class="st2" d="M390,292c-1.1,0-2,0.9-2,2s0.9,2,2,2h27c1.1,0,2-0.9,2-2s-0.9-2-2-2H390z"/>
		<path class="st2" d="M420,299h-24c-1.1,0-2,0.9-2,2s0.9,2,2,2h24c1.1,0,2-0.9,2-2S421.1,299,420,299z"/>
		<path class="st2" d="M360,289h18c1.1,0,2-0.9,2-2s-0.9-2-2-2h-18c-1.1,0-2,0.9-2,2S358.9,289,360,289z"/>
		<path class="st2" d="M363,292c-1.1,0-2,0.9-2,2s0.9,2,2,2h21c1.1,0,2-0.9,2-2s-0.9-2-2-2H363z"/>
		<path class="st2" d="M390,299h-30c-1.1,0-2,0.9-2,2s0.9,2,2,2h30c1.1,0,2-0.9,2-2S391.1,299,390,299z"/>
	</g>
	<path class="st4" d="M408,268c-0.5,0-1.1,0.1-1.7,0.2c-2.1-7.2-8.6-12.2-16.3-12.2c-7.7,0-14.2,5-16.3,12.2
		c-0.6-0.1-1.2-0.2-1.7-0.2c-6.1,0-11,4.9-11,11s4.9,11,11,11h36c6.1,0,11-4.9,11-11S414.1,268,408,268z"/>
	<path class="st4" d="M522,262c-0.5,0-1.1,0.1-1.7,0.2c-2.1-7.2-8.6-12.2-16.3-12.2c-7.7,0-14.2,5-16.3,12.2
		c-0.6-0.1-1.2-0.2-1.7-0.2c-6.1,0-11,4.9-11,11s4.9,11,11,11h36c6.1,0,11-4.9,11-11S528.1,262,522,262z"/>
	<path class="st4" d="M408-302c-0.5,0-1.1,0.1-1.7,0.2c-2.1-7.2-8.6-12.2-16.3-12.2c-7.7,0-14.2,5-16.3,12.2
		c-0.6-0.1-1.2-0.2-1.7-0.2c-6.1,0-11,4.9-11,11s4.9,11,11,11h36c6.1,0,11-4.9,11-11S414.1-302,408-302z"/>
	<path class="st4" d="M522-302c-0.5,0-1.1,0.1-1.7,0.2c-2.1-7.2-8.6-12.2-16.3-12.2c-7.7,0-14.2,5-16.3,12.2
		c-0.6-0.1-1.2-0.2-1.7-0.2c-6.1,0-11,4.9-11,11s4.9,11,11,11h36c6.1,0,11-4.9,11-11S528.1-302,522-302z"/>
	<path class="st4" d="M66-188c-0.5,0-1.1,0.1-1.7,0.2C62.2-195,55.7-200,48-200c-7.7,0-14.2,5-16.3,12.2c-0.6-0.1-1.2-0.2-1.7-0.2
		c-6.1,0-11,4.9-11,11s4.9,11,11,11h36c6.1,0,11-4.9,11-11S72.1-188,66-188z"/>
	<g>
		<g>
			<path class="st2" d="M162-164c-1.1,0-2,0.9-2,2v18c0,1.1,0.9,2,2,2c1.1,0,2-0.9,2-2v-18C164-163.1,163.1-164,162-164z"/>
			<path class="st2" d="M189.7-182.2c-0.3-0.6-0.7-1.2-1.2-1.8c-1.3-1.6-3.2-2.9-5.2-3.5c-1-0.3-2.1-0.5-3.3-0.5
				c-0.5,0-1.1,0.1-1.7,0.2c-2.1-7.2-8.6-12.2-16.3-12.2c-7.7,0-14.2,5-16.3,12.2c-0.6-0.1-1.2-0.2-1.7-0.2c-1.1,0-2.2,0.2-3.3,0.5
				c-2.1,0.6-3.9,1.9-5.2,3.5c-0.4,0.5-0.8,1.1-1.2,1.8c-0.8,1.6-1.3,3.3-1.3,5.2s0.5,3.7,1.3,5.2c0.3,0.6,0.7,1.2,1.2,1.8
				c1.3,1.6,3.2,2.9,5.2,3.5c1,0.3,2.1,0.5,3.3,0.5h7v16c0,1.1,0.9,2,2,2c1.1,0,2-0.9,2-2v-16h14v16c0,1.1,0.9,2,2,2
				c1.1,0,2-0.9,2-2v-16h7c1.1,0,2.2-0.2,3.3-0.5c2.1-0.6,3.9-1.9,5.2-3.5c0.4-0.5,0.8-1.1,1.2-1.8c0.8-1.6,1.3-3.3,1.3-5.2
				S190.5-180.7,189.7-182.2z"/>
		</g>
		<path class="st4" d="M180-188c-0.5,0-1.1,0.1-1.7,0.2c-2.1-7.2-8.6-12.2-16.3-12.2c-7.7,0-14.2,5-16.3,12.2
			c-0.6-0.1-1.2-0.2-1.7-0.2c-6.1,0-11,4.9-11,11s4.9,11,11,11h36c6.1,0,11-4.9,11-11S186.1-188,180-188z"/>
	</g>
	<path class="st4" d="M294-188c-0.5,0-1.1,0.1-1.7,0.2c-2.1-7.2-8.6-12.2-16.3-12.2c-7.7,0-14.2,5-16.3,12.2
		c-0.6-0.1-1.2-0.2-1.7-0.2c-6.1,0-11,4.9-11,11s4.9,11,11,11h36c6.1,0,11-4.9,11-11S300.1-188,294-188z"/>
	<path class="st4" d="M408-188c-0.5,0-1.1,0.1-1.7,0.2c-2.1-7.2-8.6-12.2-16.3-12.2c-7.7,0-14.2,5-16.3,12.2
		c-0.6-0.1-1.2-0.2-1.7-0.2c-6.1,0-11,4.9-11,11s4.9,11,11,11h36c6.1,0,11-4.9,11-11S414.1-188,408-188z"/>
	<g>
		<g>
			<circle class="st2" cx="495" cy="-162" r="2"/>
			<circle class="st2" cx="513" cy="-162" r="2"/>
			<circle class="st2" cx="504" cy="-156" r="2"/>
			<circle class="st2" cx="513" cy="-150" r="2"/>
			<circle class="st2" cx="504" cy="-144" r="2"/>
			<circle class="st2" cx="495" cy="-150" r="2"/>
			<path class="st2" d="M531.7-182.2c-0.3-0.6-0.7-1.2-1.2-1.8c-1.3-1.6-3.2-2.9-5.2-3.5c-1-0.3-2.1-0.5-3.3-0.5
				c-0.3,0-0.5,0-0.8,0.1c-0.3,0-0.6,0.1-0.9,0.1c-0.9-3.1-2.7-5.9-5-7.9c-0.3-0.3-0.7-0.6-1-0.8c-0.7-0.5-1.5-1-2.3-1.4
				c-2.4-1.3-5.1-2-8-2c-7.7,0-14.2,5-16.3,12.2c-0.1,0-0.1,0-0.2,0c-0.5-0.1-1-0.2-1.5-0.2c-1.1,0-2.2,0.2-3.3,0.5
				c-2.1,0.6-3.9,1.9-5.2,3.5c-0.4,0.5-0.8,1.1-1.2,1.8c-0.8,1.6-1.3,3.3-1.3,5.2s0.5,3.7,1.3,5.2c0.3,0.6,0.7,1.2,1.2,1.8
				c1.3,1.6,3.2,2.9,5.2,3.5c1,0.3,2.1,0.5,3.3,0.5h36c1.1,0,2.2-0.2,3.3-0.5c2.1-0.6,3.9-1.9,5.2-3.5c0.4-0.5,0.8-1.1,1.2-1.8
				c0.8-1.6,1.3-3.3,1.3-5.2S532.5-180.7,531.7-182.2z"/>
		</g>
		<path class="st4" d="M522-188c-0.5,0-1.1,0.1-1.7,0.2c-2.1-7.2-8.6-12.2-16.3-12.2c-7.7,0-14.2,5-16.3,12.2
			c-0.6-0.1-1.2-0.2-1.7-0.2c-6.1,0-11,4.9-11,11s4.9,11,11,11h36c6.1,0,11-4.9,11-11S528.1-188,522-188z"/>
	</g>
	<path class="st4" d="M66-74c-0.5,0-1.1,0.1-1.7,0.2C62.2-81,55.7-86,48-86c-7.7,0-14.2,5-16.3,12.2C31.1-73.9,30.5-74,30-74
		c-6.1,0-11,4.9-11,11s4.9,11,11,11h36c6.1,0,11-4.9,11-11S72.1-74,66-74z"/>
	<path class="st4" d="M180-74c-0.5,0-1.1,0.1-1.7,0.2C176.2-81,169.7-86,162-86c-7.7,0-14.2,5-16.3,12.2c-0.6-0.1-1.2-0.2-1.7-0.2
		c-6.1,0-11,4.9-11,11s4.9,11,11,11h36c6.1,0,11-4.9,11-11S186.1-74,180-74z"/>
	<g>
		<g>
			<path class="st2" d="M44.7,70.7c-0.6-1-1.8-1.3-2.7-0.7c-1,0.6-1.3,1.8-0.7,2.7l1,1.7c0.4,0.6,1,1,1.7,1c0.3,0,0.7-0.1,1-0.3
				c1-0.6,1.3-1.8,0.7-2.7L44.7,70.7z"/>
			<path class="st2" d="M40,69.9c-1-0.6-2.2-0.2-2.7,0.7l-1,1.7c-0.6,1-0.2,2.2,0.7,2.7c0.3,0.2,0.7,0.3,1,0.3c0.7,0,1.4-0.4,1.7-1
				l1-1.7C41.3,71.7,41,70.5,40,69.9z"/>
			<path class="st2" d="M39,68.2c0-1.1-0.9-2-2-2h-2c-1.1,0-2,0.9-2,2c0,1.1,0.9,2,2,2h2C38.1,70.2,39,69.3,39,68.2z"/>
			<path class="st2" d="M47,66.2h-2c-1.1,0-2,0.9-2,2c0,1.1,0.9,2,2,2h2c1.1,0,2-0.9,2-2C49,67.1,48.1,66.2,47,66.2z"/>
			<path class="st2" d="M67,41c-0.5,0-1.1,0.1-1.7,0.2C63.2,34,56.7,29,49,29c-7.7,0-14.2,5-16.3,12.2C32.1,41.1,31.5,41,31,41
				c-6.1,0-11,4.9-11,11s4.9,11,11,11h5c0,0.3,0.1,0.7,0.3,1l1,1.7c0.4,0.6,1,1,1.7,1c0.3,0,0.7-0.1,1-0.3c1-0.6,1.3-1.8,0.7-2.7
				L40.3,63h1.4l-0.4,0.7c-0.6,1-0.2,2.2,0.7,2.7c0.3,0.2,0.7,0.3,1,0.3c0.7,0,1.4-0.4,1.7-1l1-1.7c0.2-0.3,0.3-0.7,0.3-1h21
				c6.1,0,11-4.9,11-11S73.1,41,67,41z"/>
			<path class="st2" d="M61.7,75.7c-0.6-1-1.8-1.3-2.7-0.7c-1,0.6-1.3,1.8-0.7,2.7l1,1.7c0.4,0.6,1,1,1.7,1c0.3,0,0.7-0.1,1-0.3
				c1-0.6,1.3-1.8,0.7-2.7L61.7,75.7z"/>
			<path class="st2" d="M56.7,67c-0.6-1-1.8-1.3-2.7-0.7c-1,0.6-1.3,1.8-0.7,2.7l1,1.7c0.4,0.6,1,1,1.7,1c0.3,0,0.7-0.1,1-0.3
				c1-0.6,1.3-1.8,0.7-2.7L56.7,67z"/>
			<path class="st2" d="M59,71.5c0.3,0.2,0.7,0.3,1,0.3c0.7,0,1.4-0.4,1.7-1l1-1.7c0.6-1,0.2-2.2-0.7-2.7c-1-0.6-2.2-0.2-2.7,0.7
				l-1,1.7C57.7,69.7,58,70.9,59,71.5z"/>
			<path class="st2" d="M57,74.9c-1-0.6-2.2-0.2-2.7,0.7l-1,1.7c-0.6,1-0.2,2.2,0.7,2.7c0.3,0.2,0.7,0.3,1,0.3c0.7,0,1.4-0.4,1.7-1
				l1-1.7C58.3,76.7,58,75.5,57,74.9z"/>
			<path class="st2" d="M56,73.2c0-1.1-0.9-2-2-2h-2c-1.1,0-2,0.9-2,2c0,1.1,0.9,2,2,2h2C55.1,75.2,56,74.3,56,73.2z"/>
			<path class="st2" d="M64,71.2h-2c-1.1,0-2,0.9-2,2c0,1.1,0.9,2,2,2h2c1.1,0,2-0.9,2-2C66,72.1,65.1,71.2,64,71.2z"/>
		</g>
		<path class="st4" d="M67,41c-0.5,0-1.1,0.1-1.7,0.2C63.2,34,56.7,29,49,29c-7.7,0-14.2,5-16.3,12.2C32.1,41.1,31.5,41,31,41
			c-6.1,0-11,4.9-11,11s4.9,11,11,11h36c6.1,0,11-4.9,11-11S73.1,41,67,41z"/>
	</g>
	<path class="st4" d="M180,40c-0.5,0-1.1,0.1-1.7,0.2C176.2,33,169.7,28,162,28c-7.7,0-14.2,5-16.3,12.2c-0.6-0.1-1.2-0.2-1.7-0.2
		c-6.1,0-11,4.9-11,11s4.9,11,11,11h36c6.1,0,11-4.9,11-11S186.1,40,180,40z"/>
	<path class="st4" d="M294,40c-0.5,0-1.1,0.1-1.7,0.2C290.2,33,283.7,28,276,28c-7.7,0-14.2,5-16.3,12.2c-0.6-0.1-1.2-0.2-1.7-0.2
		c-6.1,0-11,4.9-11,11s4.9,11,11,11h36c6.1,0,11-4.9,11-11S300.1,40,294,40z"/>
	<path class="st4" d="M66,154c-0.5,0-1.1,0.1-1.7,0.2C62.2,147,55.7,142,48,142c-7.7,0-14.2,5-16.3,12.2c-0.6-0.1-1.2-0.2-1.7-0.2
		c-6.1,0-11,4.9-11,11s4.9,11,11,11h36c6.1,0,11-4.9,11-11S72.1,154,66,154z"/>
	<path class="st4" d="M180,154c-0.5,0-1.1,0.1-1.7,0.2c-2.1-7.2-8.6-12.2-16.3-12.2c-7.7,0-14.2,5-16.3,12.2
		c-0.6-0.1-1.2-0.2-1.7-0.2c-6.1,0-11,4.9-11,11s4.9,11,11,11h36c6.1,0,11-4.9,11-11S186.1,154,180,154z"/>
	<path class="st4" d="M294,154c-0.5,0-1.1,0.1-1.7,0.2c-2.1-7.2-8.6-12.2-16.3-12.2c-7.7,0-14.2,5-16.3,12.2
		c-0.6-0.1-1.2-0.2-1.7-0.2c-6.1,0-11,4.9-11,11s4.9,11,11,11h36c6.1,0,11-4.9,11-11S300.1,154,294,154z"/>
	<path class="st4" d="M66,382c-0.5,0-1.1,0.1-1.7,0.2C62.2,375,55.7,370,48,370c-7.7,0-14.2,5-16.3,12.2c-0.6-0.1-1.2-0.2-1.7-0.2
		c-6.1,0-11,4.9-11,11s4.9,11,11,11h36c6.1,0,11-4.9,11-11S72.1,382,66,382z"/>
	<g>
		<g>
			<path class="st2" d="M50,522v-12c0-1.1-0.9-2-2-2s-2,0.9-2,2v12c0,1.1,0.9,2,2,2S50,523.1,50,522z"/>
			<path class="st2" d="M41,528v-12c0-1.1-0.9-2-2-2c-1.1,0-2,0.9-2,2v12c0,1.1,0.9,2,2,2C40.1,530,41,529.1,41,528z"/>
			<path class="st2" d="M59,528v-12c0-1.1-0.9-2-2-2c-1.1,0-2,0.9-2,2v12c0,1.1,0.9,2,2,2C58.1,530,59,529.1,59,528z"/>
			<path class="st2" d="M40,534h-2c-1.1,0-2,0.9-2,2v2c0,1.1,0.9,2,2,2h2c1.1,0,2-0.9,2-2v-2C42,534.9,41.1,534,40,534z"/>
			<path class="st2" d="M49,528h-2c-1.1,0-2,0.9-2,2v2c0,1.1,0.9,2,2,2h2c1.1,0,2-0.9,2-2v-2C51,528.9,50.1,528,49,528z"/>
			<path class="st2" d="M58,534h-2c-1.1,0-2,0.9-2,2v2c0,1.1,0.9,2,2,2h2c1.1,0,2-0.9,2-2v-2C60,534.9,59.1,534,58,534z"/>
		</g>
		<path class="st4" d="M66,496c-0.5,0-1.1,0.1-1.7,0.2C62.2,489,55.7,484,48,484c-7.7,0-14.2,5-16.3,12.2c-0.6-0.1-1.2-0.2-1.7-0.2
			c-6.1,0-11,4.9-11,11c0,6.1,4.9,11,11,11h36c6.1,0,11-4.9,11-11C77,500.9,72.1,496,66,496z"/>
	</g>
	<path class="st4" d="M408,496c-0.5,0-1.1,0.1-1.7,0.2c-2.1-7.2-8.6-12.2-16.3-12.2c-7.7,0-14.2,5-16.3,12.2
		c-0.6-0.1-1.2-0.2-1.7-0.2c-6.1,0-11,4.9-11,11c0,6.1,4.9,11,11,11h36c6.1,0,11-4.9,11-11C419,500.9,414.1,496,408,496z"/>
	<path class="st4" d="M408,382c-0.5,0-1.1,0.1-1.7,0.2c-2.1-7.2-8.6-12.2-16.3-12.2c-7.7,0-14.2,5-16.3,12.2
		c-0.6-0.1-1.2-0.2-1.7-0.2c-6.1,0-11,4.9-11,11s4.9,11,11,11h36c6.1,0,11-4.9,11-11S414.1,382,408,382z"/>
	<path class="st2" d="M150.4,405.8c-0.8,1.1-3.4,4.7-3.4,7.2c0,2.9,2.1,5,5,5c2.9,0,5-2.1,5-5c0-2.5-2.6-6.1-3.4-7.2
		C152.8,404.8,151.2,404.8,150.4,405.8z"/>
	<path class="st2" d="M168.4,405.8c-0.8,1.1-3.4,4.7-3.4,7.2c0,2.9,2.1,5,5,5c2.9,0,5-2.1,5-5c0-2.5-2.6-6.1-3.4-7.2
		C170.8,404.8,169.2,404.8,168.4,405.8z"/>
	<path class="st2" d="M159.4,416.8c-0.8,1.1-3.4,4.7-3.4,7.2c0,2.9,2.1,5,5,5c2.9,0,5-2.1,5-5c0-2.5-2.6-6.1-3.4-7.2
		C161.8,415.8,160.2,415.8,159.4,416.8z"/>
	<path class="st4" d="M180,382c-0.5,0-1.1,0.1-1.7,0.2c-2.1-7.2-8.6-12.2-16.3-12.2c-7.7,0-14.2,5-16.3,12.2
		c-0.6-0.1-1.2-0.2-1.7-0.2c-6.1,0-11,4.9-11,11s4.9,11,11,11h36c6.1,0,11-4.9,11-11S186.1,382,180,382z"/>
	<path class="st2" d="M36.4,405.8c-0.8,1.1-3.4,4.7-3.4,7.2c0,2.9,2.1,5,5,5s5-2.1,5-5c0-2.5-2.6-6.1-3.4-7.2
		C38.8,404.7,37.2,404.7,36.4,405.8z"/>
	<path class="st2" d="M54.4,405.8c-0.8,1.1-3.4,4.7-3.4,7.2c0,2.9,2.1,5,5,5s5-2.1,5-5c0-2.5-2.6-6.1-3.4-7.2
		C56.8,404.7,55.2,404.7,54.4,405.8z"/>
	<path class="st2" d="M45.4,416.8c-0.8,1.1-3.4,4.7-3.4,7.2c0,2.9,2.1,5,5,5s5-2.1,5-5c0-2.5-2.6-6.1-3.4-7.2
		C47.8,415.7,46.2,415.7,45.4,416.8z"/>
	<path class="st2" d="M278.7,405.6c-0.7-0.8-2.1-0.8-2.8,0c-0.6,0.7-5.9,7-5.9,12.1c0,1.9,0.6,3.6,1.8,5c0.9,1.1,2.6,2.3,5.5,2.3
		c4.8,0,7.3-3.7,7.3-7.3C284.5,412.6,279.3,406.3,278.7,405.6z M277.3,422.3C277.3,422.3,277.3,422.3,277.3,422.3l0,0.9L277.3,422.3
		z"/>
	<path class="st4" d="M294,382c-0.5,0-1.1,0.1-1.7,0.2c-2.1-7.2-8.6-12.2-16.3-12.2c-7.7,0-14.2,5-16.3,12.2
		c-0.6-0.1-1.2-0.2-1.7-0.2c-6.1,0-11,4.9-11,11s4.9,11,11,11h36c6.1,0,11-4.9,11-11S300.1,382,294,382z"/>
	<path class="st2" d="M393.1,405.6c-0.7-0.8-2.1-0.8-2.8,0c-0.6,0.7-5.9,7-5.9,12.1c0,1.9,0.6,3.6,1.8,5c0.9,1.1,2.6,2.3,5.5,2.3
		c4.8,0,7.3-3.7,7.3-7.3C399,412.7,393.7,406.3,393.1,405.6z M391.7,422.3L391.7,422.3l0,0.9L391.7,422.3z"/>
	<path class="st4" d="M294,496c-0.5,0-1.1,0.1-1.7,0.2c-2.1-7.2-8.6-12.2-16.3-12.2c-7.7,0-14.2,5-16.3,12.2
		c-0.6-0.1-1.2-0.2-1.7-0.2c-6.1,0-11,4.9-11,11c0,6.1,4.9,11,11,11h36c6.1,0,11-4.9,11-11C305,500.9,300.1,496,294,496z"/>
	<path class="st4" d="M180,496c-0.5,0-1.1,0.1-1.7,0.2c-2.1-7.2-8.6-12.2-16.3-12.2c-7.7,0-14.2,5-16.3,12.2
		c-0.6-0.1-1.2-0.2-1.7-0.2c-6.1,0-11,4.9-11,11c0,6.1,4.9,11,11,11h36c6.1,0,11-4.9,11-11C191,500.9,186.1,496,180,496z"/>
	<path class="st4" d="M522,496c-0.5,0-1.1,0.1-1.7,0.2c-2.1-7.2-8.6-12.2-16.3-12.2c-7.7,0-14.2,5-16.3,12.2
		c-0.6-0.1-1.2-0.2-1.7-0.2c-6.1,0-11,4.9-11,11c0,6.1,4.9,11,11,11h36c6.1,0,11-4.9,11-11C533,500.9,528.1,496,522,496z"/>
	<path class="st4" d="M522,382c-0.5,0-1.1,0.1-1.7,0.2c-2.1-7.2-8.6-12.2-16.3-12.2c-7.7,0-14.2,5-16.3,12.2
		c-0.6-0.1-1.2-0.2-1.7-0.2c-6.1,0-11,4.9-11,11s4.9,11,11,11h36c6.1,0,11-4.9,11-11S528.1,382,522,382z"/>
	<path class="st2" d="M507.1,405.6c-0.7-0.8-2.1-0.8-2.8,0c-0.6,0.7-5.9,7-5.9,12.1c0,1.9,0.6,3.6,1.8,5c0.9,1.1,2.6,2.3,5.5,2.3
		c4.8,0,7.3-3.7,7.3-7.3C513,412.7,507.7,406.3,507.1,405.6z M505.7,422.3L505.7,422.3l0,0.9L505.7,422.3z"/>
	<path class="st4" d="M66,610c-0.5,0-1.1,0.1-1.7,0.2C62.2,603,55.7,598,48,598c-7.7,0-14.2,5-16.3,12.2c-0.6-0.1-1.2-0.2-1.7-0.2
		c-6.1,0-11,4.9-11,11s4.9,11,11,11h36c6.1,0,11-4.9,11-11S72.1,610,66,610z"/>
	<path class="st4" d="M522.8,609.4c-0.5,0-1.1,0.1-1.7,0.2c-2.1-7.4-8.8-12.5-16.6-12.5c-7.8,0-14.5,5.2-16.6,12.5
		c-0.6-0.1-1.2-0.2-1.7-0.2c-6.2,0-11.2,5.1-11.2,11.3c0,6.2,5,11.3,11.2,11.3h36.6c6.2,0,11.2-5.1,11.2-11.3
		C534,614.4,529,609.4,522.8,609.4z"/>
	<path class="st4" d="M409,609c-0.5,0-1.1,0.1-1.7,0.2c-2.1-7.2-8.6-12.2-16.3-12.2c-7.7,0-14.2,5-16.3,12.2
		c-0.6-0.1-1.2-0.2-1.7-0.2c-6.1,0-11,4.9-11,11s4.9,11,11,11h36c6.1,0,11-4.9,11-11S415.1,609,409,609z"/>
	<g>
		<path class="st5" d="M33,266h12c1.1,0,2-0.9,2-2s-0.9-2-2-2H33c-1.1,0-2,0.9-2,2S31.9,266,33,266z"/>
		<path class="st5" d="M21,272h24c1.1,0,2-0.9,2-2s-0.9-2-2-2H21c-1.1,0-2,0.9-2,2S19.9,272,21,272z"/>
		<path class="st5" d="M15,278h24c1.1,0,2-0.9,2-2s-0.9-2-2-2H15c-1.1,0-2,0.9-2,2S13.9,278,15,278z"/>
		<path class="st5" d="M74,282c0-1.1-0.9-2-2-2H12c-1.1,0-2,0.9-2,2s0.9,2,2,2h60C73.1,284,74,283.1,74,282z"/>
		<path class="st5" d="M72,286H15c-1.1,0-2,0.9-2,2s0.9,2,2,2h57c1.1,0,2-0.9,2-2S73.1,286,72,286z"/>
		<path class="st5" d="M33,292l-12,0c-1.1,0-2,0.9-2,2s0.9,2,2,2l12,0c1.1,0,2-0.9,2-2S34.1,292,33,292z"/>
		<path class="st5" d="M52,272h8c1.1,0,2-0.9,2-2s-0.9-2-2-2h-8c-1.1,0-2,0.9-2,2S50.9,272,52,272z"/>
		<path class="st5" d="M43,276c0,1.1,0.9,2,2,2h21c1.1,0,2-0.9,2-2s-0.9-2-2-2H45C43.9,274,43,274.9,43,276z"/>
		<path class="st5" d="M66,292l-27,0c-1.1,0-2,0.9-2,2s0.9,2,2,2l27,0c1.1,0,2-0.9,2-2S67.1,292,66,292z"/>
	</g>
	<g>
		<path class="st1" d="M148-630c0,2.4,0.7,4.9,1.9,7c0.4,0.6,1,1,1.7,1h20.8c0.7,0,1.4-0.4,1.7-1c1.2-2.1,1.9-4.6,1.9-7
			c0-7.7-6.3-14-14-14S148-637.7,148-630z M152.8-626C152.8-626,152.8-626,152.8-626C152.8-626,152.9-626,152.8-626L152.8-626z
			 M160.8-639.9c0.4-0.1,0.8-0.1,1.2-0.1c0.1,0,0.1,0,0.2,0C161.7-640,161.2-640,160.8-639.9z"/>
		<polygon class="st1" points="162.1,-656.4 157.2,-647.9 167,-647.9 		"/>
		<polygon class="st1" points="144.1,-634.8 135.6,-629.8 144.1,-624.9 		"/>
		<polygon class="st1" points="180.1,-624.9 188.6,-629.8 180.1,-634.8 		"/>
		<polygon class="st1" points="178.8,-646.6 173.3,-644.9 177.1,-641.1 		"/>
		<polygon class="st1" points="147,-641.1 150.8,-644.9 145.3,-646.6 		"/>
	</g>
	<g>
		<path class="st1" d="M288.3-630.6c-2.4-4.4-7-7.4-12.3-7.4c-7.7,0-14,6.3-14,14c0,1.1,0.9,2,2,2h24c1.1,0,2-0.9,2-2
			c0-2-0.4-3.9-1.2-5.6C288.7-630,288.5-630.3,288.3-630.6z"/>
		<path class="st1" d="M266.7-619.9L266.7-619.9C266.7-619.9,266.7-619.9,266.7-619.9C266.7-619.9,266.7-619.9,266.7-619.9z"/>
		<polygon class="st1" points="275.9,-650.2 271,-641.7 280.8,-641.7 		"/>
		<polygon class="st1" points="287.1,-638.8 291,-634.9 292.7,-640.5 		"/>
		<polygon class="st1" points="259.1,-640.5 260.8,-634.9 264.7,-638.8 		"/>
	</g>
	<g>
		<path class="st1" d="M390-632c-5,0-9.6,2.7-12.1,7c-0.4,0.6-0.4,1.4,0,2c0.4,0.6,1,1,1.7,1h20.8c0.7,0,1.4-0.4,1.7-1
			c0.4-0.6,0.4-1.4,0-2C399.6-629.3,395-632,390-632z M389.8-628c0.1,0,0.1,0,0.2,0c0,0,0.1,0,0.1,0C390-628,389.9-628,389.8-628z"
			/>
		<path class="st1" d="M380.8-613.8L380.8-613.8C380.8-613.8,380.8-613.8,380.8-613.8C380.8-613.8,380.8-613.8,380.8-613.8z"/>
		<polygon class="st1" points="390,-644.2 385.1,-635.7 394.9,-635.7 		"/>
		<polygon class="st1" points="401.2,-632.7 405,-628.9 406.7,-634.4 		"/>
		<polygon class="st1" points="373.2,-634.4 374.9,-628.9 378.7,-632.7 		"/>
	</g>
	<g>
		<path class="st1" d="M375.9,48.4c0,2.4,0.7,4.9,1.9,7c0.4,0.6,1,1,1.7,1h20.8c0.7,0,1.4-0.4,1.7-1c1.2-2.1,1.9-4.6,1.9-7
			c0-7.7-6.3-14-14-14S375.9,40.6,375.9,48.4z M380.8,52.4C380.7,52.3,380.7,52.3,380.8,52.4C380.8,52.3,380.8,52.3,380.8,52.4
			L380.8,52.4z M388.7,38.4c0.4-0.1,0.8-0.1,1.2-0.1c0.1,0,0.1,0,0.2,0C389.6,38.4,389.1,38.4,388.7,38.4z"/>
		<polygon class="st1" points="390,22 385.1,30.5 394.9,30.5 		"/>
		<polygon class="st1" points="372,43.6 363.5,48.5 372,53.4 		"/>
		<polygon class="st1" points="408,53.4 416.5,48.5 408,43.6 		"/>
		<polygon class="st1" points="406.7,31.7 401.2,33.4 405,37.3 		"/>
		<polygon class="st1" points="374.9,37.3 378.7,33.4 373.2,31.7 		"/>
	</g>
	<g>
		<path class="st1" d="M490.1,48c0,2.4,0.7,4.9,1.9,7c0.4,0.6,1,1,1.7,1h20.8c0.7,0,1.4-0.4,1.7-1c1.2-2.1,1.9-4.6,1.9-7
			c0-7.7-6.3-14-14-14C496.4,34,490.1,40.3,490.1,48z M494.9,52C494.9,52,494.9,52,494.9,52C494.9,52,495,52,494.9,52L494.9,52z
			 M502.8,38.1c0.4-0.1,0.8-0.1,1.2-0.1c0.1,0,0.1,0,0.2,0C503.8,38,503.3,38,502.8,38.1z"/>
		<polygon class="st1" points="504.1,21.6 499.2,30.1 509,30.1 		"/>
		<polygon class="st1" points="486.1,43.2 477.7,48.2 486.1,53.1 		"/>
		<polygon class="st1" points="522.2,53.1 530.7,48.2 522.2,43.2 		"/>
		<polygon class="st1" points="520.9,31.4 515.3,33.1 519.2,36.9 		"/>
		<polygon class="st1" points="489.1,36.9 492.9,33.1 487.3,31.4 		"/>
	</g>
	<g>
		<path class="st4" d="M294,610c-0.5,0-1.1,0.1-1.7,0.2c-2.1-7.2-8.6-12.2-16.3-12.2c-7.7,0-14.2,5-16.3,12.2
			c-0.6-0.1-1.2-0.2-1.7-0.2c-6.1,0-11,4.9-11,11s4.9,11,11,11h36c6.1,0,11-4.9,11-11S300.1,610,294,610z"/>
		<g>
			<path class="st5" d="M289.8,637l-30,0c-1.1,0-2,0.9-2,2c0,1.1,0.9,2,2,2l30,0c3.9,0,7,3.1,7,7s-3.1,7-7,7c-1.1,0-2,0.9-2,2
				s0.9,2,2,2c6.1,0,11-4.9,11-11S295.9,637,289.8,637z"/>
			<path class="st5" d="M283.8,643h-24c-1.1,0-2,0.9-2,2s0.9,2,2,2h24c0.6,0,1,0.4,1,1s-0.4,1-1,1c-1.1,0-2,0.9-2,2s0.9,2,2,2
				c2.8,0,5-2.2,5-5S286.6,643,283.8,643z"/>
			<path class="st5" d="M304.8,629c-1.1,0-2,0.9-2,2s0.9,2,2,2c0.6,0,1,0.4,1,1s-0.4,1-1,1h-4c-1.1,0-2,0.9-2,2s0.9,2,2,2h4
				c2.8,0,5-2.2,5-5S307.6,629,304.8,629z"/>
			<path class="st5" d="M259.8,635l33,0c4.4,0,8-3.6,8-8s-3.6-8-8-8s-8,3.6-8,8c0,1.1,0.9,2,2,2s2-0.9,2-2c0-2.2,1.8-4,4-4
				c2.2,0,4,1.8,4,4s-1.8,4-4,4l-33,0c-1.1,0-2,0.9-2,2C257.8,634.1,258.7,635,259.8,635z"/>
		</g>
	</g>
	<g>
		<path class="st5" d="M404.5,636l-30,0c-1.1,0-2,0.9-2,2c0,1.1,0.9,2,2,2l30,0c3.9,0,7,3.1,7,7s-3.1,7-7,7c-1.1,0-2,0.9-2,2
			s0.9,2,2,2c6.1,0,11-4.9,11-11S410.6,636,404.5,636z"/>
		<path class="st5" d="M398.5,642h-24c-1.1,0-2,0.9-2,2s0.9,2,2,2h24c0.6,0,1,0.4,1,1s-0.4,1-1,1c-1.1,0-2,0.9-2,2s0.9,2,2,2
			c2.8,0,5-2.2,5-5S401.3,642,398.5,642z"/>
		<path class="st5" d="M419.5,628c-1.1,0-2,0.9-2,2s0.9,2,2,2c0.6,0,1,0.4,1,1s-0.4,1-1,1h-4c-1.1,0-2,0.9-2,2s0.9,2,2,2h4
			c2.8,0,5-2.2,5-5S422.3,628,419.5,628z"/>
		<path class="st5" d="M374.5,634l33,0c4.4,0,8-3.6,8-8s-3.6-8-8-8c-4.4,0-8,3.6-8,8c0,1.1,0.9,2,2,2c1.1,0,2-0.9,2-2
			c0-2.2,1.8-4,4-4c2.2,0,4,1.8,4,4s-1.8,4-4,4l-33,0c-1.1,0-2,0.9-2,2C372.5,633.1,373.4,634,374.5,634z"/>
	</g>
	<g>
		<path class="st5" d="M519.3,636l-30,0c-1.1,0-2,0.9-2,2c0,1.1,0.9,2,2,2l30,0c3.9,0,7,3.1,7,7s-3.1,7-7,7c-1.1,0-2,0.9-2,2
			s0.9,2,2,2c6.1,0,11-4.9,11-11S525.3,636,519.3,636z"/>
		<path class="st5" d="M513.3,642h-24c-1.1,0-2,0.9-2,2s0.9,2,2,2h24c0.6,0,1,0.4,1,1s-0.4,1-1,1c-1.1,0-2,0.9-2,2s0.9,2,2,2
			c2.8,0,5-2.2,5-5S516,642,513.3,642z"/>
		<path class="st5" d="M534.3,628c-1.1,0-2,0.9-2,2s0.9,2,2,2c0.6,0,1,0.4,1,1s-0.4,1-1,1h-4c-1.1,0-2,0.9-2,2s0.9,2,2,2h4
			c2.8,0,5-2.2,5-5S537,628,534.3,628z"/>
		<path class="st5" d="M489.3,634l33,0c4.4,0,8-3.6,8-8s-3.6-8-8-8c-4.4,0-8,3.6-8,8c0,1.1,0.9,2,2,2s2-0.9,2-2c0-2.2,1.8-4,4-4
			s4,1.8,4,4s-1.8,4-4,4l-33,0c-1.1,0-2,0.9-2,2C487.3,633.1,488.2,634,489.3,634z"/>
	</g>
</g>
</svg>
