<?xml version="1.0" encoding="utf-8"?>
<!-- Generator: Adobe Illustrator 19.2.0, SVG Export Plug-In . SVG Version: 6.00 Build 0)  -->
<svg version="1.1" xmlns="http://www.w3.org/2000/svg" xmlns:xlink="http://www.w3.org/1999/xlink" x="0px" y="0px"
	 viewBox="0 0 96 96" style="enable-background:new 0 0 96 96;" xml:space="preserve">
<style type="text/css">
	.st0{display:none;}
	.st1{fill:#FFCC00;}
	.st2{fill:#5AC8FA;}
	.st3{fill:#5856D6;}
	.st4{fill:#007AFF;}
	.st5{fill:#FF9500;}
	.st6{fill:#FF3B30;}
</style>
<g id="Base" class="st0">
</g>
<g id="Dibujo">
	<g>
		<polyline class="st1" points="39.7,-510.9 32.7,-497.8 37.9,-497.8 32.1,-486.4 44.3,-500.6 38.1,-500.5 47,-510.9 		"/>
		<polyline class="st1" points="52.5,-515.8 45.5,-502.7 50.7,-502.7 44.9,-491.3 57.1,-505.5 50.9,-505.4 59.8,-515.8 		"/>
	</g>
	<g>
		<path class="st2" d="M-296.5,168v18c0,1.1,0.9,2,2,2c1.1,0,2-0.9,2-2v-18c0-1.1-0.9-2-2-2C-295.6,166-296.5,166.9-296.5,168z"/>
		<path class="st2" d="M-319.5,187h-2c-1.1,0-2,0.9-2,2v2c0,1.1,0.9,2,2,2h2c1.1,0,2-0.9,2-2v-2C-317.5,187.9-318.4,187-319.5,187z"
			/>
		<path class="st2" d="M-293.5,192h-2c-1.1,0-2,0.9-2,2v2c0,1.1,0.9,2,2,2h2c1.1,0,2-0.9,2-2v-2C-291.5,192.9-292.4,192-293.5,192z"
			/>
		<path class="st2" d="M-266.5,184h-2c-1.1,0-2,0.9-2,2v2c0,1.1,0.9,2,2,2h2c1.1,0,2-0.9,2-2v-2C-264.5,184.9-265.4,184-266.5,184z"
			/>
		<path class="st2" d="M-303.5,172c-1.1,0-2,0.9-2,2v15.1c-1.2-0.7-2.5-1.1-4-1.1h-2c-1.1,0-2,0.9-2,2c0,1.1,0.9,2,2,2h2
			c2.2,0,4,1.8,4,4c0,1.1,0.9,2,2,2s2-0.9,2-2v-22C-301.5,172.9-302.4,172-303.5,172z"/>
		<path class="st2" d="M-276.5,185c-2.7,0-5.1,0.9-7,2.5V174c0-1.1-0.9-2-2-2c-1.1,0-2,0.9-2,2v22c0,0,0,0,0,0c0,1.1,0.9,2,2,2
			c1.1,0,2-0.9,2-2v0c0-3.9,3.1-7,7-7c1.1,0,2-0.9,2-2C-274.5,185.9-275.4,185-276.5,185z"/>
	</g>
	<g>
		<path class="st1" d="M60.2,136c-7.7,0-14,6.3-14,14s6.3,14,14,14s14-6.3,14-14S67.9,136,60.2,136z"/>
		<polygon class="st1" points="60.2,123.5 65.1,132 55.3,132 		"/>
		<polygon class="st1" points="86.8,150 78.3,154.9 78.3,145.1 		"/>
		<polygon class="st1" points="77,133.2 75.3,138.8 71.4,134.9 		"/>
		<polygon class="st1" points="43.4,133.2 49,134.9 45.1,138.8 		"/>
	</g>
	<g>
		<path class="st1" d="M173.9,22c-7.7,0-14,6.3-14,14s6.3,14,14,14c7.7,0,14-6.3,14-14S181.6,22,173.9,22z"/>
		<polygon class="st1" points="173.9,9.5 178.8,18 169,18 		"/>
		<polygon class="st1" points="200.4,36 192,40.9 192,31.1 		"/>
		<polygon class="st1" points="190.6,19.2 188.9,24.8 185.1,20.9 		"/>
		<polygon class="st1" points="157.1,19.2 162.6,20.9 158.8,24.8 		"/>
	</g>
	<g>
		<path class="st2" d="M-178,65.9v-12c0-1.1-0.9-2-2-2s-2,0.9-2,2v12c0,1.1,0.9,2,2,2S-178,67-178,65.9z"/>
		<path class="st2" d="M-187,71.9v-12c0-1.1-0.9-2-2-2c-1.1,0-2,0.9-2,2v12c0,1.1,0.9,2,2,2C-187.9,73.9-187,73-187,71.9z"/>
		<path class="st2" d="M-169,71.9v-12c0-1.1-0.9-2-2-2c-1.1,0-2,0.9-2,2v12c0,1.1,0.9,2,2,2C-169.9,73.9-169,73-169,71.9z"/>
		<path class="st2" d="M-188,77.9h-2c-1.1,0-2,0.9-2,2v2c0,1.1,0.9,2,2,2h2c1.1,0,2-0.9,2-2v-2C-186,78.8-186.9,77.9-188,77.9z"/>
		<path class="st2" d="M-179,71.9h-2c-1.1,0-2,0.9-2,2v2c0,1.1,0.9,2,2,2h2c1.1,0,2-0.9,2-2v-2C-177,72.8-177.9,71.9-179,71.9z"/>
		<path class="st2" d="M-170,77.9h-2c-1.1,0-2,0.9-2,2v2c0,1.1,0.9,2,2,2h2c1.1,0,2-0.9,2-2v-2C-168,78.8-168.9,77.9-170,77.9z"/>
	</g>
	<g>
		<path class="st1" d="M-167.9,22c-7.7,0-14,6.3-14,14s6.3,14,14,14s14-6.3,14-14S-160.2,22-167.9,22z"/>
		<polygon class="st1" points="-167.9,9.5 -163,18 -172.8,18 		"/>
		<polygon class="st1" points="-141.3,36 -149.8,40.9 -149.8,31.1 		"/>
		<polygon class="st1" points="-151.1,19.2 -152.8,24.8 -156.7,20.9 		"/>
		<polygon class="st1" points="-184.7,19.2 -179.1,20.9 -183,24.8 		"/>
	</g>
	<g>
		<path class="st1" d="M-282.2-91.9c-7.7,0-14,6.3-14,14s6.3,14,14,14s14-6.3,14-14S-274.5-91.9-282.2-91.9z"/>
		<polygon class="st1" points="-282.2,-104.4 -277.3,-96 -287.1,-96 		"/>
		<polygon class="st1" points="-255.6,-77.9 -264.1,-73 -264.1,-82.8 		"/>
		<polygon class="st1" points="-265.4,-94.7 -267.2,-89.2 -271,-93 		"/>
		<polygon class="st1" points="-299,-94.7 -293.4,-93 -297.3,-89.2 		"/>
	</g>
	<g>
		<path class="st1" d="M60-92c-7.7,0-14,6.3-14,14s6.3,14,14,14s14-6.3,14-14S67.7-92,60-92z"/>
		<polygon class="st1" points="60,-104.5 64.9,-96 55.1,-96 		"/>
		<polygon class="st1" points="86.6,-78 78.1,-73.1 78.1,-82.9 		"/>
		<polygon class="st1" points="76.8,-94.8 75,-89.2 71.2,-93.1 		"/>
		<polygon class="st1" points="43.2,-94.8 48.8,-93.1 44.9,-89.2 		"/>
	</g>
	<g>
		<path class="st1" d="M-53.8-206c-7.7,0-14,6.3-14,14s6.3,14,14,14s14-6.3,14-14S-46-206-53.8-206z"/>
		<polygon class="st1" points="-53.7,-218.5 -48.8,-210 -58.6,-210 		"/>
		<polygon class="st1" points="-27.2,-192 -35.7,-187.1 -35.7,-196.9 		"/>
		<polygon class="st1" points="-37,-208.8 -38.7,-203.2 -42.5,-207.1 		"/>
		<polygon class="st1" points="-70.5,-208.8 -65,-207.1 -68.8,-203.2 		"/>
	</g>
	<g>
		<path class="st1" d="M171.1-314c-7.7,0-14,6.3-14,14s6.3,14,14,14s14-6.3,14-14S178.8-314,171.1-314z"/>
		<polygon class="st1" points="171.1,-326.5 176,-318 166.2,-318 		"/>
		<polygon class="st1" points="197.7,-300 189.2,-295.1 189.2,-304.9 		"/>
		<polygon class="st1" points="187.9,-316.8 186.2,-311.2 182.3,-315.1 		"/>
		<polygon class="st1" points="154.3,-316.8 159.9,-315.1 156,-311.2 		"/>
	</g>
	<g>
		<path class="st1" d="M-168-320c-7.7,0-14,6.3-14,14s6.3,14,14,14c7.7,0,14-6.3,14-14S-160.3-320-168-320z"/>
		<polygon class="st1" points="-168,-332.5 -163,-324 -172.9,-324 		"/>
		<polygon class="st1" points="-141.4,-306 -149.9,-301.1 -149.9,-310.9 		"/>
		<polygon class="st1" points="-151.2,-322.8 -152.9,-317.2 -156.8,-321.1 		"/>
		<polygon class="st1" points="-184.8,-322.8 -179.2,-321.1 -183,-317.2 		"/>
	</g>
	<g>
		<path class="st1" d="M-167.9-434c-7.7,0-14,6.3-14,14s6.3,14,14,14s14-6.3,14-14S-160.2-434-167.9-434z"/>
		<polygon class="st1" points="-167.9,-446.5 -163,-438 -172.8,-438 		"/>
		<polygon class="st1" points="-141.3,-420 -149.8,-415.1 -149.8,-424.9 		"/>
		<polygon class="st1" points="-151.1,-436.8 -152.8,-431.2 -156.7,-435.1 		"/>
		<polygon class="st1" points="-184.7,-436.8 -179.1,-435.1 -183,-431.2 		"/>
	</g>
	<g>
		<path class="st1" d="M-281.8-548c-7.7,0-14,6.3-14,14s6.3,14,14,14s14-6.3,14-14S-274.1-548-281.8-548z"/>
		<polygon class="st1" points="-281.8,-560.5 -276.9,-552 -286.7,-552 		"/>
		<polygon class="st1" points="-255.2,-534 -263.7,-529.1 -263.7,-538.9 		"/>
		<polygon class="st1" points="-265,-550.8 -266.8,-545.2 -270.6,-549.1 		"/>
		<polygon class="st1" points="-298.6,-550.8 -293,-549.1 -296.9,-545.2 		"/>
	</g>
	<g>
		<path class="st1" d="M59.9-548c-7.7,0-14,6.3-14,14s6.3,14,14,14s14-6.3,14-14S67.6-548,59.9-548z"/>
		<polygon class="st1" points="59.9,-560.5 64.9,-552 55,-552 		"/>
		<polygon class="st1" points="86.5,-534 78,-529.1 78,-538.9 		"/>
		<polygon class="st1" points="76.7,-550.8 75,-545.2 71.1,-549.1 		"/>
		<polygon class="st1" points="43.1,-550.8 48.7,-549.1 44.9,-545.2 		"/>
	</g>
	<g>
		<path class="st1" d="M-54-662c-7.7,0-14,6.3-14,14s6.3,14,14,14s14-6.3,14-14S-46.3-662-54-662z"/>
		<polygon class="st1" points="-53.9,-674.5 -49,-666 -58.8,-666 		"/>
		<polygon class="st1" points="-27.4,-648 -35.9,-643.1 -35.9,-652.9 		"/>
		<polygon class="st1" points="-37.2,-664.8 -38.9,-659.2 -42.7,-663.1 		"/>
		<polygon class="st1" points="-70.7,-664.8 -65.2,-663.1 -69,-659.2 		"/>
	</g>
	<g>
		<path class="st1" d="M173.9-776c-7.7,0-14,6.3-14,14s6.3,14,14,14s14-6.3,14-14S181.7-776,173.9-776z"/>
		<polygon class="st1" points="174,-788.5 178.9,-780 169.1,-780 		"/>
		<polygon class="st1" points="200.5,-762 192,-757.1 192,-766.9 		"/>
		<polygon class="st1" points="190.7,-778.7 189,-773.2 185.2,-777 		"/>
		<polygon class="st1" points="157.2,-778.7 162.7,-777 158.9,-773.2 		"/>
	</g>
	<g>
		<path class="st1" d="M-168.2-776c-7.7,0-14,6.3-14,14s6.3,14,14,14c7.7,0,14-6.3,14-14S-160.4-776-168.2-776z"/>
		<polygon class="st1" points="-168.1,-788.5 -163.2,-780 -173,-780 		"/>
		<polygon class="st1" points="-141.6,-762 -150.1,-757.1 -150.1,-766.9 		"/>
		<polygon class="st1" points="-151.4,-778.7 -153.1,-773.2 -156.9,-777 		"/>
		<polygon class="st1" points="-184.9,-778.7 -179.4,-777 -183.2,-773.2 		"/>
	</g>
	<path class="st3" d="M-279.5,133.4c0-1.2,0.2-2.3,0.6-3.4c-1-0.2-2-0.3-3-0.3c-7.7,0-14,6.3-14,14s6.3,14,14,14
		c7.7,0,13.9-6.2,14-13.8c-0.3,0-0.7,0.1-1,0.1C-274.8,143.9-279.5,139.2-279.5,133.4z"/>
	<path class="st3" d="M176.5,133.7c0-1.2,0.2-2.3,0.6-3.4c-1-0.2-2-0.3-3-0.3c-7.7,0-14,6.3-14,14s6.3,14,14,14
		c7.7,0,13.9-6.2,14-13.8c-0.3,0-0.7,0.1-1,0.1C181.2,144.3,176.5,139.5,176.5,133.7z"/>
	<path class="st3" d="M-51.5,19.4c0-1.2,0.2-2.3,0.6-3.4c-1-0.2-2-0.3-3-0.3c-7.7,0-14,6.3-14,14s6.3,14,14,14
		c7.7,0,13.9-6.2,14-13.8c-0.3,0-0.7,0.1-1,0.1C-46.8,29.9-51.5,25.2-51.5,19.4z"/>
	<path class="st3" d="M176.6-94.3c0-1.2,0.2-2.3,0.6-3.4c-1-0.2-2-0.3-3-0.3c-7.7,0-14,6.3-14,14s6.3,14,14,14
		c7.7,0,13.9-6.2,14-13.8c-0.3,0-0.7,0.1-1,0.1C181.3-83.7,176.6-88.5,176.6-94.3z"/>
	<path class="st3" d="M-165.5-94.3c0-1.2,0.2-2.3,0.6-3.4c-1-0.2-2-0.3-3-0.3c-7.7,0-14,6.3-14,14s6.3,14,14,14
		c7.7,0,13.9-6.2,14-13.8c-0.3,0-0.7,0.1-1,0.1C-160.8-83.7-165.5-88.5-165.5-94.3z"/>
	<path class="st3" d="M-282.5-202.3c0-1.2,0.2-2.3,0.6-3.4c-1-0.2-2-0.3-3-0.3c-7.7,0-14,6.3-14,14s6.3,14,14,14
		c7.7,0,13.9-6.2,14-13.8c-0.3,0-0.7,0.1-1,0.1C-277.8-191.7-282.5-196.5-282.5-202.3z"/>
	<path class="st3" d="M-51.5-322.3c0-1.2,0.2-2.3,0.6-3.4c-1-0.2-2-0.3-3-0.3c-7.7,0-14,6.3-14,14s6.3,14,14,14
		c7.7,0,13.9-6.2,14-13.8c-0.3,0-0.7,0.1-1,0.1C-46.8-311.7-51.5-316.5-51.5-322.3z"/>
	<path class="st3" d="M62.5-208.3c0-1.2,0.2-2.3,0.6-3.4c-1-0.2-2-0.3-3-0.3c-7.7,0-14,6.3-14,14s6.3,14,14,14
		c7.7,0,13.9-6.2,14-13.8c-0.3,0-0.7,0.1-1,0.1C67.2-197.7,62.5-202.5,62.5-208.3z"/>
	<path class="st3" d="M-51.5-436.3c0-1.2,0.2-2.3,0.6-3.4c-1-0.2-2-0.3-3-0.3c-7.7,0-14,6.3-14,14s6.3,14,14,14
		c7.7,0,13.9-6.2,14-13.8c-0.3,0-0.7,0.1-1,0.1C-46.8-425.7-51.5-430.5-51.5-436.3z"/>
	<path class="st3" d="M-165.5-550.3c0-1.2,0.2-2.3,0.6-3.4c-1-0.2-2-0.3-3-0.3c-7.7,0-14,6.3-14,14s6.3,14,14,14
		c7.7,0,13.9-6.2,14-13.8c-0.3,0-0.7,0.1-1,0.1C-160.8-539.7-165.5-544.5-165.5-550.3z"/>
	<path class="st3" d="M176.6-550.3c0-1.2,0.2-2.3,0.6-3.4c-1-0.2-2-0.3-3-0.3c-7.7,0-14,6.3-14,14s6.3,14,14,14
		c7.7,0,13.9-6.2,14-13.8c-0.3,0-0.7,0.1-1,0.1C181.3-539.7,176.6-544.5,176.6-550.3z"/>
	<path class="st3" d="M-279.5-664.3c0-1.2,0.2-2.3,0.6-3.4c-1-0.2-2-0.3-3-0.3c-7.7,0-14,6.3-14,14s6.3,14,14,14
		c7.7,0,13.9-6.2,14-13.8c-0.3,0-0.7,0.1-1,0.1C-274.8-653.7-279.5-658.5-279.5-664.3z"/>
	<path class="st3" d="M-51.6-778.3c0-1.2,0.2-2.3,0.6-3.4c-1-0.2-2-0.3-3-0.3c-7.7,0-14,6.3-14,14s6.3,14,14,14
		c7.7,0,13.9-6.2,14-13.8c-0.3,0-0.7,0.1-1,0.1C-46.9-767.7-51.6-772.5-51.6-778.3z"/>
	<path class="st3" d="M62.5-664.3c0-1.2,0.2-2.3,0.6-3.4c-1-0.2-2-0.3-3-0.3c-7.7,0-14,6.3-14,14s6.3,14,14,14
		c7.7,0,13.9-6.2,14-13.8c-0.3,0-0.7,0.1-1,0.1C67.2-653.7,62.5-658.5,62.5-664.3z"/>
	<path class="st3" d="M164.4-1102.2c0-1.2,0.2-2.3,0.6-3.4c-1-0.2-2-0.3-3-0.3c-7.7,0-14,6.3-14,14c0,7.7,6.3,14,14,14
		c7.7,0,13.9-6.2,14-13.8c-0.3,0-0.7,0.1-1,0.1C169.1-1091.7,164.4-1096.4,164.4-1102.2z"/>
	<g>
		<path class="st2" d="M-66-620c-1.1,0-2,0.9-2,2v18c0,1.1,0.9,2,2,2c1.1,0,2-0.9,2-2v-18C-64-619.1-64.9-620-66-620z"/>
		<path class="st2" d="M-38.3-638.2c-0.3-0.6-0.7-1.2-1.2-1.8c-1.3-1.6-3.2-2.9-5.2-3.5c-1-0.3-2.1-0.5-3.3-0.5
			c-0.5,0-1.1,0.1-1.7,0.2C-51.8-651-58.3-656-66-656c-7.7,0-14.2,5-16.3,12.2c-0.6-0.1-1.2-0.2-1.7-0.2c-1.1,0-2.2,0.2-3.3,0.5
			c-2.1,0.6-3.9,1.9-5.2,3.5c-0.4,0.5-0.8,1.1-1.2,1.8c-0.8,1.6-1.3,3.3-1.3,5.2s0.5,3.7,1.3,5.2c0.3,0.6,0.7,1.2,1.2,1.8
			c1.3,1.6,3.2,2.9,5.2,3.5c1,0.3,2.1,0.5,3.3,0.5h7v16c0,1.1,0.9,2,2,2c1.1,0,2-0.9,2-2v-16h14v16c0,1.1,0.9,2,2,2c1.1,0,2-0.9,2-2
			v-16h7c1.1,0,2.2-0.2,3.3-0.5c2.1-0.6,3.9-1.9,5.2-3.5c0.4-0.5,0.8-1.1,1.2-1.8c0.8-1.6,1.3-3.3,1.3-5.2S-37.5-636.7-38.3-638.2z"
			/>
	</g>
	<path class="st4" d="M-276-758c-0.5,0-1.1,0.1-1.7,0.2c-2.1-7.2-8.6-12.2-16.3-12.2c-7.7,0-14.2,5-16.3,12.2
		c-0.6-0.1-1.2-0.2-1.7-0.2c-6.1,0-11,4.9-11,11s4.9,11,11,11h36c6.1,0,11-4.9,11-11S-269.9-758-276-758z"/>
	<path class="st3" d="M-294-992c-7.7,0-14,6.3-14,14s6.3,14,14,14s14-6.3,14-14S-286.3-992-294-992z"/>
	<path class="st3" d="M-180-992c-7.7,0-14,6.3-14,14s6.3,14,14,14s14-6.3,14-14S-172.3-992-180-992z M-179.3-968
		c3.2-2.1,5.3-5.8,5.3-10s-2.1-7.8-5.3-10c5.2,0.3,9.3,4.7,9.3,10S-174.1-968.4-179.3-968z"/>
	<path class="st3" d="M-66-878c-7.7,0-14,6.3-14,14s6.3,14,14,14c7.7,0,14-6.3,14-14S-58.3-878-66-878z M-76-864
		c0-5.3,4.1-9.6,9.3-10c-3.2,2.1-5.3,5.8-5.3,10s2.1,7.8,5.3,10C-71.9-854.4-76-858.7-76-864z"/>
	<path class="st3" d="M-66-992c-7.7,0-14,6.3-14,14s6.3,14,14,14c7.7,0,14-6.3,14-14S-58.3-992-66-992z M-66-968v-20
		c5.5,0,10,4.5,10,10S-60.5-968-66-968z"/>
	<path class="st3" d="M-180-878c-7.7,0-14,6.3-14,14s6.3,14,14,14s14-6.3,14-14S-172.3-878-180-878z M-190-864c0-5.5,4.5-10,10-10
		v20C-185.5-854-190-858.5-190-864z"/>
	<path class="st3" d="M48-992c-7.7,0-14,6.3-14,14s6.3,14,14,14c7.7,0,14-6.3,14-14S55.7-992,48-992z M48-968c-0.2,0-0.4,0-0.7,0
		c-3.2-2.1-5.3-5.8-5.3-10s2.1-7.8,5.3-10c0.2,0,0.4,0,0.7,0c5.5,0,10,4.5,10,10S53.5-968,48-968z"/>
	<path class="st3" d="M-294-878c-7.7,0-14,6.3-14,14s6.3,14,14,14s14-6.3,14-14S-286.3-878-294-878z M-304-864c0-5.5,4.5-10,10-10
		c0.2,0,0.4,0,0.7,0c3.2,2.1,5.3,5.8,5.3,10s-2.1,7.8-5.3,10c-0.2,0-0.4,0-0.7,0C-299.5-854-304-858.5-304-864z"/>
	<path class="st3" d="M162-992c-7.7,0-14,6.3-14,14s6.3,14,14,14c7.7,0,14-6.3,14-14S169.7-992,162-992z M162-968
		c-5.5,0-10-4.5-10-10s4.5-10,10-10c5.5,0,10,4.5,10,10S167.5-968,162-968z"/>
	<path class="st4" d="M50-889.9v-2.1c0-1.1-0.9-2-2-2c-1.1,0-2,0.9-2,2v2.1c-13.4,1-24,12.3-24,25.9c0,1.1,0.9,2,2,2
		c1.1,0,2-0.9,2-2c0-2.2,1.8-4,4-4c2.2,0,4,1.8,4,4c0,1.1,0.9,2,2,2c1.1,0,2-0.9,2-2c0-2.2,1.8-4,4-4c2.2,0,4,1.8,4,4v21
		c0,2.8,2.2,5,5,5c2.8,0,5-2.2,5-5c0-1.1-0.9-2-2-2c-1.1,0-2,0.9-2,2c0,0.6-0.4,1-1,1c-0.6,0-1-0.4-1-1v-21c0-2.2,1.8-4,4-4
		c2.2,0,4,1.8,4,4c0,1.1,0.9,2,2,2c1.1,0,2-0.9,2-2c0-2.2,1.8-4,4-4c2.2,0,4,1.8,4,4c0,1.1,0.9,2,2,2c1.1,0,2-0.9,2-2
		C74-877.7,63.4-888.9,50-889.9z"/>
	<g>
		<path class="st5" d="M39-304h12c1.1,0,2-0.9,2-2s-0.9-2-2-2H39c-1.1,0-2,0.9-2,2S37.9-304,39-304z"/>
		<path class="st5" d="M27-298h24c1.1,0,2-0.9,2-2s-0.9-2-2-2H27c-1.1,0-2,0.9-2,2S25.9-298,27-298z"/>
		<path class="st5" d="M21-292h24c1.1,0,2-0.9,2-2s-0.9-2-2-2H21c-1.1,0-2,0.9-2,2S19.9-292,21-292z"/>
		<path class="st5" d="M80-288c0-1.1-0.9-2-2-2H18c-1.1,0-2,0.9-2,2s0.9,2,2,2h60C79.1-286,80-286.9,80-288z"/>
		<path class="st5" d="M78-284H21c-1.1,0-2,0.9-2,2s0.9,2,2,2h57c1.1,0,2-0.9,2-2S79.1-284,78-284z"/>
		<path class="st5" d="M39-278l-12,0c-1.1,0-2,0.9-2,2c0,1.1,0.9,2,2,2l12,0c1.1,0,2-0.9,2-2S40.1-278,39-278z"/>
		<path class="st5" d="M58-298h8c1.1,0,2-0.9,2-2s-0.9-2-2-2h-8c-1.1,0-2,0.9-2,2S56.9-298,58-298z"/>
		<path class="st5" d="M49-294c0,1.1,0.9,2,2,2h21c1.1,0,2-0.9,2-2s-0.9-2-2-2H51C49.9-296,49-295.1,49-294z"/>
		<path class="st5" d="M72-278l-27,0c-1.1,0-2,0.9-2,2s0.9,2,2,2l27,0c1.1,0,2-0.9,2-2C74-277.1,73.1-278,72-278z"/>
	</g>
	<g>
		<path class="st2" d="M-207-175c1.1,0,2-0.9,2-2c0-3.9,3.1-7,7-7c0.3,0,0.7,0.1,1.2,0.2v1.8c0,1.1,0.9,2,2,2c1.1,0,2-0.9,2-2v-3.2
			c1.1-6.3,6.4-10.8,12.8-10.8c6.4,0,11.7,4.5,12.8,10.8v3.2c0,1.1,0.9,2,2,2c1.1,0,2-0.9,2-2v-1.8c0.5-0.1,0.9-0.2,1.2-0.2
			c3.9,0,7,3.1,7,7c0,1.1,0.9,2,2,2c1.1,0,2-0.9,2-2c0-6.1-4.9-11-11-11c-0.5,0-1.1,0.1-1.7,0.2c-2.1-7.2-8.6-12.2-16.3-12.2
			c-7.7,0-14.2,5-16.3,12.2c-0.6-0.1-1.2-0.2-1.7-0.2c-6.1,0-11,4.9-11,11C-209-175.9-208.1-175-207-175z"/>
		<path class="st2" d="M-188-169c0,1.1,0.9,2,2,2h36c1.1,0,2-0.9,2-2c0-1.1-0.9-2-2-2h-36C-187.1-171-188-170.1-188-169z"/>
		<path class="st2" d="M-180-164c-1.1,0-2,0.9-2,2c0,1.1,0.9,2,2,2h27c1.1,0,2-0.9,2-2c0-1.1-0.9-2-2-2H-180z"/>
		<path class="st2" d="M-150-157h-24c-1.1,0-2,0.9-2,2c0,1.1,0.9,2,2,2h24c1.1,0,2-0.9,2-2C-148-156.1-148.9-157-150-157z"/>
		<path class="st2" d="M-210-167h18c1.1,0,2-0.9,2-2c0-1.1-0.9-2-2-2h-18c-1.1,0-2,0.9-2,2C-212-167.9-211.1-167-210-167z"/>
		<path class="st2" d="M-207-164c-1.1,0-2,0.9-2,2c0,1.1,0.9,2,2,2h21c1.1,0,2-0.9,2-2c0-1.1-0.9-2-2-2H-207z"/>
		<path class="st2" d="M-180-157h-30c-1.1,0-2,0.9-2,2c0,1.1,0.9,2,2,2h30c1.1,0,2-0.9,2-2C-178-156.1-178.9-157-180-157z"/>
	</g>
	<g>
		<path class="st2" d="M180-194c-0.5,0-1.1,0.1-1.7,0.2c-2.1-7.2-8.6-12.2-16.3-12.2c-7.7,0-14.2,5-16.3,12.2
			c-0.6-0.1-1.2-0.2-1.7-0.2c-6.1,0-11,4.9-11,11s4.9,11,11,11c1.1,0,2-0.9,2-2c0-1.1-0.9-2-2-2c-3.9,0-7-3.1-7-7s3.1-7,7-7
			c0.3,0,0.7,0.1,1.2,0.2v1.8c0,1.1,0.9,2,2,2c1.1,0,2-0.9,2-2v-3.2c1.1-6.3,6.4-10.8,12.8-10.8c6.4,0,11.7,4.5,12.8,10.8v3.2
			c0,1.1,0.9,2,2,2c1.1,0,2-0.9,2-2v-1.8c0.5-0.1,0.9-0.2,1.2-0.2c3.9,0,7,3.1,7,7s-3.1,7-7,7c-1.1,0-2,0.9-2,2c0,1.1,0.9,2,2,2
			c6.1,0,11-4.9,11-11S186.1-194,180-194z"/>
		<path class="st2" d="M153.6-175.2c-0.8-1-2.4-1-3.2,0c-0.8,1.1-3.4,4.7-3.4,7.2c0,2.9,2.1,5,5,5c2.9,0,5-2.1,5-5
			C157-170.5,154.4-174.1,153.6-175.2z"/>
		<path class="st2" d="M170.4-175.2c-0.8,1.1-3.4,4.7-3.4,7.2c0,2.9,2.1,5,5,5c2.9,0,5-2.1,5-5c0-2.5-2.6-6.1-3.4-7.2
			C172.8-176.2,171.2-176.2,170.4-175.2z"/>
		<path class="st2" d="M160.4-163.2c-0.8,1.1-3.4,4.7-3.4,7.2c0,2.9,2.1,5,5,5c2.9,0,5-2.1,5-5c0-2.5-2.6-6.1-3.4-7.2
			C162.8-164.2,161.2-164.2,160.4-163.2z"/>
	</g>
	<g>
		<path d="M55.6,400.6l-5.6,5.6V393c0-1.1-0.9-2-2-2c-1.1,0-2,0.9-2,2v13.2l-5.6-5.6c-0.8-0.8-2-0.8-2.8,0c-0.8,0.8-0.8,2,0,2.8l9,9
			c0.1,0.1,0.2,0.2,0.3,0.3c0,0,0.1,0.1,0.1,0.1c0.1,0,0.1,0.1,0.2,0.1c0.1,0,0.1,0,0.2,0.1c0.1,0,0.1,0,0.2,0.1c0.1,0,0.3,0,0.4,0
			c0.1,0,0.3,0,0.4,0c0.1,0,0.1,0,0.2-0.1c0.1,0,0.1,0,0.2-0.1c0.1,0,0.1-0.1,0.2-0.1c0,0,0.1,0,0.1-0.1c0.1-0.1,0.2-0.2,0.3-0.3
			l9-9c0.8-0.8,0.8-2,0-2.8C57.6,399.8,56.4,399.8,55.6,400.6z"/>
		<path d="M66,382c-0.5,0-1.1,0.1-1.7,0.2C62.2,375,55.7,370,48,370c-7.7,0-14.2,5-16.3,12.2c-0.6-0.1-1.2-0.2-1.7-0.2
			c-6.1,0-11,4.9-11,11s4.9,11,11,11l2,0c1.1,0,2-0.9,2-2c0-1.1-0.9-2-2-2h0l-2,0c-3.9,0-7-3.1-7-7s3.1-7,7-7c0.3,0,0.7,0.1,1.2,0.2
			v1.8c0,1.1,0.9,2,2,2s2-0.9,2-2v-3.2c1.1-6.3,6.4-10.8,12.8-10.8c6.4,0,11.7,4.5,12.8,10.8v3.2c0,1.1,0.9,2,2,2s2-0.9,2-2v-1.8
			c0.5-0.1,0.9-0.2,1.2-0.2c3.9,0,7,3.1,7,7s-3.1,7-7,7l-2,0h0c-1.1,0-2,0.9-2,2c0,1.1,0.9,2,2,2l2,0c6.1,0,11-4.9,11-11
			S72.1,382,66,382z"/>
	</g>
	<g>
		<path d="M163.4,391.6c-0.1-0.1-0.2-0.2-0.3-0.3c0,0-0.1-0.1-0.1-0.1c-0.1,0-0.1-0.1-0.2-0.1c-0.1,0-0.1,0-0.2-0.1
			c-0.1,0-0.1,0-0.2-0.1c-0.3-0.1-0.5-0.1-0.8,0c-0.1,0-0.1,0-0.2,0.1c-0.1,0-0.1,0-0.2,0.1c-0.1,0-0.1,0.1-0.2,0.1
			c0,0-0.1,0-0.1,0.1c-0.1,0.1-0.2,0.2-0.3,0.3l-9,9c-0.8,0.8-0.8,2,0,2.8c0.8,0.8,2,0.8,2.8,0l5.6-5.6V411c0,1.1,0.9,2,2,2
			c1.1,0,2-0.9,2-2v-13.2l5.6,5.6c0.4,0.4,0.9,0.6,1.4,0.6c0.5,0,1-0.2,1.4-0.6c0.8-0.8,0.8-2,0-2.8L163.4,391.6z"/>
		<path d="M180,382c-0.5,0-1.1,0.1-1.7,0.2c-2.1-7.2-8.6-12.2-16.3-12.2c-7.7,0-14.2,5-16.3,12.2c-0.6-0.1-1.2-0.2-1.7-0.2
			c-6.1,0-11,4.9-11,11s4.9,11,11,11l2,0c1.1,0,2-0.9,2-2c0-1.1-0.9-2-2-2h0l-2,0c-3.9,0-7-3.1-7-7s3.1-7,7-7c0.3,0,0.7,0.1,1.2,0.2
			v1.8c0,1.1,0.9,2,2,2c1.1,0,2-0.9,2-2v-3.2c1.1-6.3,6.4-10.8,12.8-10.8c6.4,0,11.7,4.5,12.8,10.8v3.2c0,1.1,0.9,2,2,2
			c1.1,0,2-0.9,2-2v-1.8c0.5-0.1,0.9-0.2,1.2-0.2c3.9,0,7,3.1,7,7s-3.1,7-7,7l-2,0h0c-1.1,0-2,0.9-2,2c0,1.1,0.9,2,2,2l2,0
			c6.1,0,11-4.9,11-11S186.1,382,180,382z"/>
	</g>
	<g>
		<path class="st2" d="M160,54v18c0,1.1,0.9,2,2,2c1.1,0,2-0.9,2-2V54c0-1.1-0.9-2-2-2C160.9,52,160,52.9,160,54z"/>
		<path class="st2" d="M137,73h-2c-1.1,0-2,0.9-2,2v2c0,1.1,0.9,2,2,2h2c1.1,0,2-0.9,2-2v-2C139,73.9,138.1,73,137,73z"/>
		<path class="st2" d="M163,78h-2c-1.1,0-2,0.9-2,2v2c0,1.1,0.9,2,2,2h2c1.1,0,2-0.9,2-2v-2C165,78.9,164.1,78,163,78z"/>
		<path class="st2" d="M190,70h-2c-1.1,0-2,0.9-2,2v2c0,1.1,0.9,2,2,2h2c1.1,0,2-0.9,2-2v-2C192,70.9,191.1,70,190,70z"/>
		<path class="st2" d="M153,58c-1.1,0-2,0.9-2,2v15.1c-1.2-0.7-2.5-1.1-4-1.1h-2c-1.1,0-2,0.9-2,2s0.9,2,2,2h2c2.2,0,4,1.8,4,4
			c0,1.1,0.9,2,2,2c1.1,0,2-0.9,2-2V60C155,58.9,154.1,58,153,58z"/>
		<path class="st2" d="M180,71c-2.7,0-5.1,0.9-7,2.5V60c0-1.1-0.9-2-2-2c-1.1,0-2,0.9-2,2v22c0,0,0,0,0,0c0,1.1,0.9,2,2,2
			c1.1,0,2-0.9,2-2v0c0-3.9,3.1-7,7-7c1.1,0,2-0.9,2-2C182,71.9,181.1,71,180,71z"/>
	</g>
	<g>
		<path class="st5" d="M-174,160l-30,0c-1.1,0-2,0.9-2,2c0,1.1,0.9,2,2,2l30,0c3.9,0,7,3.1,7,7s-3.1,7-7,7c-1.1,0-2,0.9-2,2
			c0,1.1,0.9,2,2,2c6.1,0,11-4.9,11-11S-167.9,160-174,160z"/>
		<path class="st5" d="M-180,166h-24c-1.1,0-2,0.9-2,2c0,1.1,0.9,2,2,2h24c0.6,0,1,0.4,1,1s-0.4,1-1,1c-1.1,0-2,0.9-2,2
			c0,1.1,0.9,2,2,2c2.8,0,5-2.2,5-5S-177.2,166-180,166z"/>
		<path class="st5" d="M-159,152c-1.1,0-2,0.9-2,2c0,1.1,0.9,2,2,2c0.6,0,1,0.4,1,1s-0.4,1-1,1h-4c-1.1,0-2,0.9-2,2c0,1.1,0.9,2,2,2
			h4c2.8,0,5-2.2,5-5S-156.2,152-159,152z"/>
		<path class="st5" d="M-204,158l33,0c4.4,0,8-3.6,8-8s-3.6-8-8-8s-8,3.6-8,8c0,1.1,0.9,2,2,2c1.1,0,2-0.9,2-2c0-2.2,1.8-4,4-4
			s4,1.8,4,4s-1.8,4-4,4l-33,0c-1.1,0-2,0.9-2,2C-206,157.1-205.1,158-204,158z"/>
	</g>
	<g>
		<path class="st5" d="M-318,254h42c1.1,0,2-0.9,2-2c0-1.1-0.9-2-2-2h-42c-1.1,0-2,0.9-2,2C-320,253.1-319.1,254-318,254z"/>
		<path class="st5" d="M-276,258h-39c-1.1,0-2,0.9-2,2s0.9,2,2,2h39c1.1,0,2-0.9,2-2S-274.9,258-276,258z"/>
		<path class="st5" d="M-280,268c0-1.1-0.9-2-2-2h-36c-1.1,0-2,0.9-2,2s0.9,2,2,2h36C-280.9,270-280,269.1-280,268z"/>
		<path class="st5" d="M-276,274h-33c-1.1,0-2,0.9-2,2s0.9,2,2,2h33c1.1,0,2-0.9,2-2S-274.9,274-276,274z"/>
		<path class="st5" d="M-282,282h-18c-1.1,0-2,0.9-2,2s0.9,2,2,2h18c1.1,0,2-0.9,2-2S-280.9,282-282,282z"/>
		<path class="st5" d="M-288,290h-12c-1.1,0-2,0.9-2,2s0.9,2,2,2h12c1.1,0,2-0.9,2-2S-286.9,290-288,290z"/>
		<path class="st5" d="M-294,298h-6c-1.1,0-2,0.9-2,2s0.9,2,2,2h6c1.1,0,2-0.9,2-2S-292.9,298-294,298z"/>
	</g>
	<g>
		<path class="st2" d="M-66,286c-2.8,0-5,2.2-5,5s2.2,5,5,5c2.8,0,5-2.2,5-5S-63.2,286-66,286z M-66,292c-0.6,0-1-0.4-1-1s0.4-1,1-1
			c0.6,0,1,0.4,1,1S-65.4,292-66,292z"/>
		<path class="st2" d="M-58,283.5l0-25.5c0-4.4-3.6-8-8-8c-4.4,0-8,3.6-8,8l0,25.5c-1.9,2-3,4.7-3,7.5c0,6.1,4.9,11,11,11
			c6.1,0,11-4.9,11-11C-55,288.2-56.1,285.5-58,283.5z M-66,298c-3.9,0-7-3.1-7-7c0-2,0.8-3.9,2.3-5.2c0.4-0.4,0.7-0.9,0.7-1.5
			l0-26.3c0-2.2,1.8-4,4-4c2.2,0,4,1.8,4,4l0,26.3c0,0.6,0.2,1.1,0.7,1.5c1.5,1.3,2.3,3.2,2.3,5.2C-59,294.9-62.1,298-66,298z"/>
	</g>
	<g>
		<path class="st2" d="M-180,302c-6.1,0-11-4.9-11-11c0-2.8,1.1-5.5,3-7.5l0-25.5c0-4.4,3.6-8,8-8s8,3.6,8,8l0,25.5
			c1.9,2,3,4.7,3,7.5C-169,297.1-173.9,302-180,302L-180,302z M-180,254c-2.2,0-4,1.8-4,4l0,26.3c0,0.6-0.2,1.1-0.7,1.5
			c-1.5,1.3-2.3,3.2-2.3,5.2c0,3.9,3.1,7,7,7c3.9,0,7-3.1,7-7c0-2-0.8-3.9-2.3-5.2c-0.4-0.4-0.7-0.9-0.7-1.5l0-26.3
			C-176,255.8-177.8,254-180,254L-180,254z"/>
	</g>
	<g>
		<path class="st5" d="M50,286.4V275c0-1.1-0.9-2-2-2c-1.1,0-2,0.9-2,2v11.4c-1.8,0.8-3,2.5-3,4.6c0,2.8,2.2,5,5,5c2.8,0,5-2.2,5-5
			C53,289,51.8,287.2,50,286.4z M48,292c-0.6,0-1-0.4-1-1s0.4-1,1-1c0.6,0,1,0.4,1,1S48.6,292,48,292z"/>
		<path class="st5" d="M56,283.5l0-25.5c0-4.4-3.6-8-8-8c-4.4,0-8,3.6-8,8l0,25.5c-1.9,2-3,4.7-3,7.5c0,6.1,4.9,11,11,11
			c6.1,0,11-4.9,11-11C59,288.2,57.9,285.5,56,283.5z M48,298c-3.9,0-7-3.1-7-7c0-2,0.8-3.9,2.3-5.2c0.4-0.4,0.7-0.9,0.7-1.5l0-26.3
			c0-2.2,1.8-4,4-4c2.2,0,4,1.8,4,4l0,26.3c0,0.6,0.2,1.1,0.7,1.5c1.5,1.3,2.3,3.2,2.3,5.2C55,294.9,51.9,298,48,298z"/>
	</g>
	<g>
		<path class="st6" d="M164,286.4V258c0-1.1-0.9-2-2-2c-1.1,0-2,0.9-2,2v28.4c-1.8,0.8-3,2.5-3,4.6c0,2.8,2.2,5,5,5c2.8,0,5-2.2,5-5
			C167,289,165.8,287.2,164,286.4z M162,292c-0.6,0-1-0.4-1-1s0.4-1,1-1c0.6,0,1,0.4,1,1S162.6,292,162,292z"/>
		<path class="st6" d="M170,283.5l0-25.5c0-4.4-3.6-8-8-8c-4.4,0-8,3.6-8,8l0,25.5c-1.9,2-3,4.7-3,7.5c0,6.1,4.9,11,11,11
			c6.1,0,11-4.9,11-11C173,288.2,171.9,285.5,170,283.5z M162,298c-3.9,0-7-3.1-7-7c0-2,0.8-3.9,2.3-5.2c0.4-0.4,0.7-0.9,0.7-1.5
			l0-26.3c0-2.2,1.8-4,4-4c2.2,0,4,1.8,4,4l0,26.3c0,0.6,0.2,1.1,0.7,1.5c1.5,1.3,2.3,3.2,2.3,5.2C169,294.9,165.9,298,162,298z"/>
	</g>
	<path class="st6" d="M194-869.1c0-0.1,0-0.1,0-0.2c0-0.1,0-0.1,0-0.2c0-0.1,0-0.1-0.1-0.2c0-0.1,0-0.1-0.1-0.2c0,0,0,0,0-0.1
		c0,0,0-0.1-0.1-0.1c0-0.1-0.1-0.1-0.1-0.2c0-0.1-0.1-0.1-0.1-0.2c0,0-0.1-0.1-0.1-0.1c-0.1,0-0.1-0.1-0.2-0.1c0,0-0.1-0.1-0.1-0.1
		c-0.1,0-0.1-0.1-0.2-0.1c-0.1,0-0.1-0.1-0.2-0.1c-0.1,0-0.1,0-0.2-0.1c-0.1,0-0.1,0-0.2,0c-0.1,0-0.2,0-0.2,0c0,0-0.1,0-0.1,0h-4
		c0-2.8-2.2-5-5-5h-14c-1.4,0-2.7,0.6-3.6,1.5c-0.3,0.3-0.5,0.7-0.7,1c-0.8-0.4-1.7-0.6-2.7-0.6c-0.9,0-1.8,0.2-2.7,0.6
		c-0.2-0.4-0.4-0.7-0.7-1c-0.9-1-2.2-1.5-3.6-1.5h-14c-2.8,0-5,2.2-5,5h-4c0,0-0.1,0-0.1,0c-0.1,0-0.1,0-0.2,0c-0.1,0-0.1,0-0.2,0
		c-0.1,0-0.1,0-0.2,0.1c-0.1,0-0.1,0.1-0.2,0.1c-0.1,0-0.1,0.1-0.2,0.1c-0.1,0-0.1,0.1-0.2,0.1c-0.1,0-0.1,0.1-0.2,0.1
		c0,0-0.1,0.1-0.1,0.1c0,0-0.1,0.1-0.1,0.1c0,0.1-0.1,0.1-0.1,0.2c0,0,0,0.1-0.1,0.1c0,0,0,0,0,0.1c0,0.1-0.1,0.1-0.1,0.2
		c0,0.1,0,0.1-0.1,0.2c0,0.1,0,0.1,0,0.2c0,0.1,0,0.1,0,0.2c0,0,0,0,0,0.1c0,0,0,0.1,0,0.1c0,0.1,0,0.1,0,0.2c0,0.1,0,0.1,0,0.2
		c0,0.1,0,0.1,0.1,0.2c0,0.1,0,0.1,0.1,0.2c0,0.1,0.1,0.1,0.1,0.2c0,0.1,0.1,0.1,0.1,0.2c0,0.1,0.1,0.1,0.1,0.2c0,0,0.1,0.1,0.1,0.1
		c0,0,0.1,0.1,0.1,0.1c0.1,0,0.1,0.1,0.2,0.1c0,0,0.1,0,0.1,0.1l4.9,2.5c0.1,6,5,10.8,11,10.8c5,0,11-2.5,12.6-13.6
		c0-0.1,0-0.1,0-0.2c0-0.2,0.1-0.4,0.1-0.7c0.3-0.9,1.3-1.6,2.3-1.6c1,0,2,0.7,2.3,1.6c0,0.2,0.1,0.5,0.1,0.7c0,0.1,0,0.1,0,0.2
		C166-856.5,172-854,177-854c6,0,10.9-4.8,11-10.8l4.9-2.5c0,0,0.1,0,0.1-0.1c0.1,0,0.1-0.1,0.2-0.1c0.1,0,0.1-0.1,0.2-0.1
		c0,0,0.1-0.1,0.1-0.1c0-0.1,0.1-0.1,0.1-0.2c0,0,0.1-0.1,0.1-0.1c0-0.1,0.1-0.1,0.1-0.2c0-0.1,0.1-0.1,0.1-0.2c0-0.1,0-0.1,0.1-0.2
		c0-0.1,0-0.1,0-0.2c0-0.1,0-0.1,0-0.2C194-868.9,194-869,194-869.1C194-869,194-869,194-869.1z M148.4-868.6l-5,5
		c-0.4,0.4-0.9,0.6-1.4,0.6c-0.5,0-1-0.2-1.4-0.6c-0.8-0.8-0.8-2,0-2.8l5-5c0.8-0.8,2-0.8,2.8,0
		C149.2-870.6,149.2-869.4,148.4-868.6z M177.4-868.6l-5,5c-0.4,0.4-0.9,0.6-1.4,0.6c-0.5,0-1-0.2-1.4-0.6c-0.8-0.8-0.8-2,0-2.8l5-5
		c0.8-0.8,2-0.8,2.8,0C178.2-870.6,178.2-869.4,177.4-868.6z"/>
	<path class="st5" d="M-263.5,373.1l-24-6c0,0-0.1,0-0.1,0c-0.1,0-0.2,0-0.3,0c-0.1,0-0.1,0-0.1,0c-0.1,0-0.2,0-0.3,0
		c0,0-0.1,0-0.1,0c-0.1,0-0.3,0.1-0.4,0.1c0,0,0,0,0,0c-0.1,0.1-0.2,0.1-0.4,0.2l-8.8,6.6v-6.4c1.8-0.8,3-2.5,3-4.6c0-2.8-2.2-5-5-5
		s-5,2.2-5,5c0,2,1.2,3.8,3,4.6V418h-22c-1.1,0-2,0.9-2,2s0.9,2,2,2h48c1.1,0,2-0.9,2-2s-0.9-2-2-2h-22v-36l8.8,6.6
		c0.1,0.1,0.2,0.1,0.3,0.2c0.1,0,0.1,0.1,0.2,0.1c0.2,0.1,0.4,0.1,0.6,0.1c0,0,0,0,0,0h0c0,0,0,0,0,0c0.2,0,0.3,0,0.4-0.1
		c0,0,0,0,0,0l24-6c0.9-0.2,1.5-1,1.5-1.9v-6C-262,374.1-262.6,373.3-263.5,373.1z M-290,383l-6.7-5l6.7-5V383z M-300,362
		c0.6,0,1,0.4,1,1s-0.4,1-1,1s-1-0.4-1-1S-300.6,362-300,362z M-286,371.6l8,2v8.9l-8,2V371.6z M-266,379.4l-8,2v-6.9l8,2V379.4z"/>
	<path class="st2" d="M-39,403.3l-6.2-3.6l3.5-0.9c1.1-0.3,1.7-1.4,1.4-2.4c-0.3-1.1-1.4-1.7-2.4-1.4l-7.4,2l-5.5-3.2l6.5-1.8
		c0.8-0.2,1.4-0.9,1.5-1.8c0.1-0.9-0.4-1.6-1.2-2l-5.8-2.4l4.5-2.6l7.4,2c0.2,0,0.3,0.1,0.5,0.1c0.9,0,1.7-0.6,1.9-1.5
		c0.3-1.1-0.3-2.2-1.4-2.4l-3.5-0.9l6.2-3.6c1-0.6,1.3-1.8,0.7-2.7c-0.6-1-1.8-1.3-2.7-0.7l-6.2,3.6l0.9-3.5
		c0.3-1.1-0.3-2.2-1.4-2.4c-1.1-0.3-2.2,0.3-2.4,1.4l-2,7.4l-4.5,2.6l0.8-6.2c0.1-0.8-0.3-1.6-1-2c-0.7-0.4-1.6-0.3-2.2,0.1l-5,3.8
		v-5.2l5.4-5.4c0.8-0.8,0.8-2,0-2.8c-0.8-0.8-2-0.8-2.8,0l-2.6,2.6V360c0-1.1-0.9-2-2-2c-1.1,0-2,0.9-2,2v7.2l-2.6-2.6
		c-0.8-0.8-2-0.8-2.8,0c-0.8,0.8-0.8,2,0,2.8l5.4,5.4v5.2l-5-3.8c-0.7-0.5-1.6-0.5-2.3-0.1c-0.7,0.5-1,1.4-0.8,2.2l1.8,6.5l-5.5-3.2
		l-2-7.4c-0.3-1.1-1.4-1.7-2.4-1.4c-1.1,0.3-1.7,1.4-1.4,2.4l0.9,3.5l-6.2-3.6c-1-0.6-2.2-0.2-2.7,0.7c-0.6,1-0.2,2.2,0.7,2.7
		l6.2,3.6l-3.5,0.9c-1.1,0.3-1.7,1.4-1.4,2.4c0.2,0.9,1,1.5,1.9,1.5c0.2,0,0.3,0,0.5-0.1l7.4-2l5.5,3.2l-6.5,1.8
		c-0.8,0.2-1.4,0.9-1.5,1.8c-0.1,0.9,0.4,1.6,1.2,2l5.8,2.4l-4.5,2.6l-7.4-2c-1.1-0.3-2.2,0.3-2.4,1.4c-0.3,1.1,0.3,2.2,1.4,2.4
		l3.5,0.9l-6.2,3.6c-1,0.6-1.3,1.8-0.7,2.7c0.4,0.6,1,1,1.7,1c0.3,0,0.7-0.1,1-0.3l6.2-3.6l-0.9,3.5c-0.3,1.1,0.3,2.2,1.4,2.4
		c0.2,0,0.3,0.1,0.5,0.1c0.9,0,1.7-0.6,1.9-1.5l2-7.4l4.5-2.6l-0.8,6.2c-0.1,0.8,0.3,1.6,1,2c0.7,0.4,1.6,0.3,2.2-0.1l5-3.8v5.2
		l-5.4,5.4c-0.8,0.8-0.8,2,0,2.8c0.8,0.8,2,0.8,2.8,0l2.6-2.6v7.2c0,1.1,0.9,2,2,2c1.1,0,2-0.9,2-2v-7.2l2.6,2.6
		c0.4,0.4,0.9,0.6,1.4,0.6c0.5,0,1-0.2,1.4-0.6c0.8-0.8,0.8-2,0-2.8l-5.4-5.4V402l5,3.8c0.4,0.3,0.8,0.4,1.2,0.4
		c0.4,0,0.8-0.1,1.1-0.3c0.7-0.5,1-1.4,0.8-2.2l-1.8-6.5l5.5,3.2l2,7.4c0.2,0.9,1,1.5,1.9,1.5c0.2,0,0.3,0,0.5-0.1
		c1.1-0.3,1.7-1.4,1.4-2.4l-0.9-3.5l6.2,3.6c0.3,0.2,0.7,0.3,1,0.3c0.7,0,1.4-0.4,1.7-1C-37.7,405-38.1,403.8-39,403.3z
		 M-55.8,389.6l-4.8,1.3L-62,390l3.1-1.8L-55.8,389.6z M-60.4,380.3l-0.6,4.5l-3.1,1.8V383L-60.4,380.3z M-70.8,380.9l2.8,2.1v3.5
		l-1.5-0.9L-70.8,380.9z M-76.3,390.4l4.8-1.3l1.5,0.9l-3.1,1.8L-76.3,390.4z M-71.6,399.7l0.6-4.5l3.1-1.8v3.5L-71.6,399.7z
		 M-61.2,399.1L-64,397v-3.5l1.5,0.9L-61.2,399.1z"/>
	<g>
		<path class="st5" d="M-156,368c1.1,0,2-0.9,2-2s-0.9-2-2-2c-7,0-12.9,5.2-13.8,12h-2c1-7.9,7.7-14,15.9-14c1.1,0,2-0.9,2-2
			s-0.9-2-2-2c-10.4,0-18.9,7.9-19.9,18h-8.1v-10c0-1.5-0.4-2.9-1.1-4.1l1.5-1.5c0.8-0.8,0.8-2,0-2.8c-0.8-0.8-2-0.8-2.8,0l-1.5,1.5
			c-0.6-0.4-1.3-0.7-2.1-0.9V356c0-1.1-0.9-2-2-2c-1.1,0-2,0.9-2,2v2.3c-0.7,0.2-1.4,0.5-2.1,0.9l-1.5-1.5c-0.8-0.8-2-0.8-2.8,0
			c-0.8,0.8-0.8,2,0,2.8l1.5,1.5c-0.5,0.9-0.9,2-1,3.1h-4.1c-0.9,0-1.7,0.6-1.9,1.5c-0.2,0.9,0.2,1.8,1.1,2.2l4.9,2.4v6.8
			c0,10.4,7.9,18.9,18,19.9V408h-17.2l2.6-2.6c0.8-0.8,0.8-2,0-2.8c-0.8-0.8-2-0.8-2.8,0l-6,6c-0.1,0.1-0.2,0.2-0.2,0.3
			c0,0-0.1,0.1-0.1,0.1c0,0.1-0.1,0.1-0.1,0.2c0,0.1,0,0.1-0.1,0.2c0,0.1,0,0.1-0.1,0.2c-0.1,0.3-0.1,0.5,0,0.8c0,0.1,0,0.1,0.1,0.2
			c0,0.1,0,0.1,0.1,0.2c0,0.1,0.1,0.1,0.1,0.2c0,0,0,0.1,0.1,0.1c0.1,0.1,0.2,0.2,0.2,0.3l6,6c0.4,0.4,0.9,0.6,1.4,0.6
			s1-0.2,1.4-0.6c0.8-0.8,0.8-2,0-2.8l-2.6-2.6h17.2v12c0,1.1,0.9,2,2,2c1.1,0,2-0.9,2-2v-12h15.2l5.4,5.4c0.4,0.4,0.9,0.6,1.4,0.6
			s1-0.2,1.4-0.6c0.8-0.8,0.8-2,0-2.8l-4.6-4.6l4.6-4.6c0.8-0.8,0.8-2,0-2.8c-0.8-0.8-2-0.8-2.8,0l-5.4,5.4H-178v-10.1
			c10.1-1,18-9.5,18-19.9c0-2.2,1.8-4,4-4c1.1,0,2-0.9,2-2s-0.9-2-2-2c-3.7,0-6.8,2.6-7.7,6h-2.1C-164.9,371.4-160.8,368-156,368z
			 M-176.6,380c-0.7,1.2-2,2-3.4,2c-1.5,0-2.8-0.8-3.4-2H-176.6z M-164.1,380c-1,7.9-7.7,14-15.9,14c-8.8,0-16-7.2-16-16v-12
			c0-2.2,1.8-4,4-4s4,1.8,4,4v12c0,0,0,0,0,0c0,4.4,3.6,8,8,8c3.7,0,6.8-2.6,7.7-6H-164.1z"/>
		<circle class="st6" cx="-192" cy="366" r="2"/>
	</g>
	<g>
		<path class="st1" d="M-294-1106c-7.7,0-14,6.3-14,14s6.3,14,14,14s14-6.3,14-14S-286.3-1106-294-1106z"/>
		<polygon class="st1" points="-294,-1118.5 -289.1,-1110 -298.9,-1110 		"/>
		<polygon class="st1" points="-294,-1065.5 -298.9,-1074 -289.1,-1074 		"/>
		<polygon class="st1" points="-320.5,-1092 -312,-1096.9 -312,-1087.1 		"/>
		<polygon class="st1" points="-267.4,-1092 -275.9,-1087.1 -275.9,-1096.9 		"/>
		<polygon class="st1" points="-277.3,-1108.8 -279,-1103.2 -282.8,-1107.1 		"/>
		<polygon class="st1" points="-310.8,-1075.2 -309.1,-1080.8 -305.3,-1076.9 		"/>
		<polygon class="st1" points="-310.8,-1108.8 -305.3,-1107.1 -309.1,-1103.2 		"/>
		<polygon class="st1" points="-277.3,-1075.2 -282.8,-1076.9 -279,-1080.8 		"/>
	</g>
	<path class="st4" d="M-162-758c-0.5,0-1.1,0.1-1.7,0.2c-2.1-7.2-8.6-12.2-16.3-12.2c-7.7,0-14.2,5-16.3,12.2
		c-0.6-0.1-1.2-0.2-1.7-0.2c-6.1,0-11,4.9-11,11s4.9,11,11,11h36c6.1,0,11-4.9,11-11S-155.9-758-162-758z"/>
	<path class="st4" d="M-48-758c-0.5,0-1.1,0.1-1.7,0.2C-51.8-765-58.3-770-66-770c-7.7,0-14.2,5-16.3,12.2c-0.6-0.1-1.2-0.2-1.7-0.2
		c-6.1,0-11,4.9-11,11s4.9,11,11,11h36c6.1,0,11-4.9,11-11S-41.9-758-48-758z"/>
	<g>
		<path class="st2" d="M39-726c-1.1,0-2,0.9-2,2v4c0,1.1,0.9,2,2,2c1.1,0,2-0.9,2-2v-4C41-725.1,40.1-726,39-726z"/>
		<path class="st2" d="M48-720c-1.1,0-2,0.9-2,2v4c0,1.1,0.9,2,2,2c1.1,0,2-0.9,2-2v-4C50-719.1,49.1-720,48-720z"/>
		<path class="st2" d="M48-732c-1.1,0-2,0.9-2,2v4c0,1.1,0.9,2,2,2c1.1,0,2-0.9,2-2v-4C50-731.1,49.1-732,48-732z"/>
		<path class="st2" d="M57-726c-1.1,0-2,0.9-2,2v4c0,1.1,0.9,2,2,2c1.1,0,2-0.9,2-2v-4C59-725.1,58.1-726,57-726z"/>
		<path class="st2" d="M75.7-752.2c-0.3-0.6-0.7-1.2-1.2-1.8c-1.3-1.6-3.2-2.9-5.2-3.5c-1-0.3-2.1-0.5-3.3-0.5
			c-0.5,0-1.1,0.1-1.7,0.2c-0.9-3.1-2.7-5.9-5-7.9c-0.3-0.3-0.7-0.6-1-0.8c-0.7-0.5-1.5-1-2.3-1.4c-2.4-1.3-5.1-2-8-2
			c-7.7,0-14.2,5-16.3,12.2c-0.6-0.1-1.2-0.2-1.7-0.2c-1.1,0-2.2,0.2-3.3,0.5c-2.1,0.6-3.9,1.9-5.2,3.5c-0.4,0.5-0.8,1.1-1.2,1.8
			c-0.8,1.6-1.3,3.3-1.3,5.2s0.5,3.7,1.3,5.2c0.3,0.6,0.7,1.2,1.2,1.8c1.3,1.6,3.2,2.9,5.2,3.5c1,0.3,2.1,0.5,3.3,0.5h7v4
			c0,1.1,0.9,2,2,2c1.1,0,2-0.9,2-2v-4h14v4c0,1.1,0.9,2,2,2c1.1,0,2-0.9,2-2v-4h7c1.1,0,2.2-0.2,3.3-0.5c2.1-0.6,3.9-1.9,5.2-3.5
			c0.4-0.5,0.8-1.1,1.2-1.8c0.8-1.6,1.3-3.3,1.3-5.2S76.5-750.7,75.7-752.2z"/>
	</g>
	<g>
		<path class="st2" d="M153-726c-1.1,0-2,0.9-2,2v4c0,1.1,0.9,2,2,2c1.1,0,2-0.9,2-2v-4C155-725.1,154.1-726,153-726z"/>
		<path class="st2" d="M162-720c-1.1,0-2,0.9-2,2v4c0,1.1,0.9,2,2,2c1.1,0,2-0.9,2-2v-4C164-719.1,163.1-720,162-720z"/>
		<path class="st2" d="M162-732c-1.1,0-2,0.9-2,2v4c0,1.1,0.9,2,2,2c1.1,0,2-0.9,2-2v-4C164-731.1,163.1-732,162-732z"/>
		<path class="st2" d="M171-726c-1.1,0-2,0.9-2,2v4c0,1.1,0.9,2,2,2c1.1,0,2-0.9,2-2v-4C173-725.1,172.1-726,171-726z"/>
		<path class="st2" d="M189.7-752.2c-0.3-0.6-0.7-1.2-1.2-1.8c-1.3-1.6-3.2-2.9-5.2-3.5c-1-0.3-2.1-0.5-3.3-0.5
			c-0.5,0-1.1,0.1-1.7,0.2c-0.9-3.1-2.7-5.9-5-7.9c-0.3-0.3-0.7-0.6-1-0.8c-0.7-0.5-1.5-1-2.3-1.4c-2.4-1.3-5.1-2-8-2
			c-7.7,0-14.2,5-16.3,12.2c-0.6-0.1-1.2-0.2-1.7-0.2c-1.1,0-2.2,0.2-3.3,0.5c-2.1,0.6-3.9,1.9-5.2,3.5c-0.4,0.5-0.8,1.1-1.2,1.8
			c-0.8,1.6-1.3,3.3-1.3,5.2s0.5,3.7,1.3,5.2c0.3,0.6,0.7,1.2,1.2,1.8c1.3,1.6,3.2,2.9,5.2,3.5c1,0.3,2.1,0.5,3.3,0.5h7v4
			c0,1.1,0.9,2,2,2c1.1,0,2-0.9,2-2v-4h14v4c0,1.1,0.9,2,2,2c1.1,0,2-0.9,2-2v-4h7c1.1,0,2.2-0.2,3.3-0.5c2.1-0.6,3.9-1.9,5.2-3.5
			c0.4-0.5,0.8-1.1,1.2-1.8c0.8-1.6,1.3-3.3,1.3-5.2S190.5-750.7,189.7-752.2z"/>
	</g>
	<g>
		<path class="st2" d="M-303-612c-1.1,0-2,0.9-2,2v4c0,1.1,0.9,2,2,2s2-0.9,2-2v-4C-301-611.1-301.9-612-303-612z"/>
		<path class="st2" d="M-294-606c-1.1,0-2,0.9-2,2v4c0,1.1,0.9,2,2,2s2-0.9,2-2v-4C-292-605.1-292.9-606-294-606z"/>
		<path class="st2" d="M-294-618c-1.1,0-2,0.9-2,2v4c0,1.1,0.9,2,2,2s2-0.9,2-2v-4C-292-617.1-292.9-618-294-618z"/>
		<path class="st2" d="M-285-612c-1.1,0-2,0.9-2,2v4c0,1.1,0.9,2,2,2s2-0.9,2-2v-4C-283-611.1-283.9-612-285-612z"/>
		<path class="st2" d="M-266.3-638.2c-0.3-0.6-0.7-1.2-1.2-1.8c-1.3-1.6-3.2-2.9-5.2-3.5c-1-0.3-2.1-0.5-3.3-0.5
			c-0.5,0-1.1,0.1-1.7,0.2c-0.9-3.1-2.7-5.9-5-7.9c-0.3-0.3-0.7-0.6-1-0.8c-0.7-0.5-1.5-1-2.3-1.4c-2.4-1.3-5.1-2-8-2
			c-7.7,0-14.2,5-16.3,12.2c-0.6-0.1-1.2-0.2-1.7-0.2c-1.1,0-2.2,0.2-3.3,0.5c-2.1,0.6-3.9,1.9-5.2,3.5c-0.4,0.5-0.8,1.1-1.2,1.8
			c-0.8,1.6-1.3,3.3-1.3,5.2s0.5,3.7,1.3,5.2c0.3,0.6,0.7,1.2,1.2,1.8c1.3,1.6,3.2,2.9,5.2,3.5c1,0.3,2.1,0.5,3.3,0.5h7v4
			c0,1.1,0.9,2,2,2s2-0.9,2-2v-4h14v4c0,1.1,0.9,2,2,2s2-0.9,2-2v-4h7c1.1,0,2.2-0.2,3.3-0.5c2.1-0.6,3.9-1.9,5.2-3.5
			c0.4-0.5,0.8-1.1,1.2-1.8c0.8-1.6,1.3-3.3,1.3-5.2S-265.5-636.7-266.3-638.2z"/>
	</g>
	<g>
		<path class="st2" d="M48-620c-1.1,0-2,0.9-2,2v18c0,1.1,0.9,2,2,2c1.1,0,2-0.9,2-2v-18C50-619.1,49.1-620,48-620z"/>
		<path class="st2" d="M75.7-638.2c-0.3-0.6-0.7-1.2-1.2-1.8c-1.3-1.6-3.2-2.9-5.2-3.5c-1-0.3-2.1-0.5-3.3-0.5
			c-0.5,0-1.1,0.1-1.7,0.2C62.2-651,55.7-656,48-656c-7.7,0-14.2,5-16.3,12.2c-0.6-0.1-1.2-0.2-1.7-0.2c-1.1,0-2.2,0.2-3.3,0.5
			c-2.1,0.6-3.9,1.9-5.2,3.5c-0.4,0.5-0.8,1.1-1.2,1.8c-0.8,1.6-1.3,3.3-1.3,5.2s0.5,3.7,1.3,5.2c0.3,0.6,0.7,1.2,1.2,1.8
			c1.3,1.6,3.2,2.9,5.2,3.5c1,0.3,2.1,0.5,3.3,0.5h7v16c0,1.1,0.9,2,2,2c1.1,0,2-0.9,2-2v-16h14v16c0,1.1,0.9,2,2,2c1.1,0,2-0.9,2-2
			v-16h7c1.1,0,2.2-0.2,3.3-0.5c2.1-0.6,3.9-1.9,5.2-3.5c0.4-0.5,0.8-1.1,1.2-1.8c0.8-1.6,1.3-3.3,1.3-5.2S76.5-636.7,75.7-638.2z"
			/>
	</g>
	<g>
		<circle class="st2" cx="-303" cy="-504" r="2"/>
		<circle class="st2" cx="-285" cy="-504" r="2"/>
		<circle class="st2" cx="-294" cy="-498" r="2"/>
		<circle class="st2" cx="-285" cy="-492" r="2"/>
		<circle class="st2" cx="-294" cy="-486" r="2"/>
		<circle class="st2" cx="-303" cy="-492" r="2"/>
		<path class="st2" d="M-266.3-524.2c-0.3-0.6-0.7-1.2-1.2-1.8c-1.3-1.6-3.2-2.9-5.2-3.5c-1-0.3-2.1-0.5-3.3-0.5
			c-0.3,0-0.5,0-0.8,0.1c-0.3,0-0.6,0.1-0.9,0.1c-0.9-3.1-2.7-5.9-5-7.9c-0.3-0.3-0.7-0.6-1-0.8c-0.7-0.5-1.5-1-2.3-1.4
			c-2.4-1.3-5.1-2-8-2c-7.7,0-14.2,5-16.3,12.2c-0.1,0-0.1,0-0.2,0c-0.5-0.1-1-0.2-1.5-0.2c-1.1,0-2.2,0.2-3.3,0.5
			c-2.1,0.6-3.9,1.9-5.2,3.5c-0.4,0.5-0.8,1.1-1.2,1.8c-0.8,1.6-1.3,3.3-1.3,5.2s0.5,3.7,1.3,5.2c0.3,0.6,0.7,1.2,1.2,1.8
			c1.3,1.6,3.2,2.9,5.2,3.5c1,0.3,2.1,0.5,3.3,0.5h36c1.1,0,2.2-0.2,3.3-0.5c2.1-0.6,3.9-1.9,5.2-3.5c0.4-0.5,0.8-1.1,1.2-1.8
			c0.8-1.6,1.3-3.3,1.3-5.2S-265.5-522.7-266.3-524.2z"/>
	</g>
	<g>
		<circle class="st2" cx="-189" cy="-504" r="2"/>
		<circle class="st2" cx="-171" cy="-504" r="2"/>
		<circle class="st2" cx="-180" cy="-498" r="2"/>
		<circle class="st2" cx="-171" cy="-492" r="2"/>
		<circle class="st2" cx="-180" cy="-486" r="2"/>
		<circle class="st2" cx="-189" cy="-492" r="2"/>
		<path class="st2" d="M-152.3-524.2c-0.3-0.6-0.7-1.2-1.2-1.8c-1.3-1.6-3.2-2.9-5.2-3.5c-1-0.3-2.1-0.5-3.3-0.5
			c-0.3,0-0.5,0-0.8,0.1c-0.3,0-0.6,0.1-0.9,0.1c-0.9-3.1-2.7-5.9-5-7.9c-0.3-0.3-0.7-0.6-1-0.8c-0.7-0.5-1.5-1-2.3-1.4
			c-2.4-1.3-5.1-2-8-2c-7.7,0-14.2,5-16.3,12.2c-0.1,0-0.1,0-0.2,0c-0.5-0.1-1-0.2-1.5-0.2c-1.1,0-2.2,0.2-3.3,0.5
			c-2.1,0.6-3.9,1.9-5.2,3.5c-0.4,0.5-0.8,1.1-1.2,1.8c-0.8,1.6-1.3,3.3-1.3,5.2s0.5,3.7,1.3,5.2c0.3,0.6,0.7,1.2,1.2,1.8
			c1.3,1.6,3.2,2.9,5.2,3.5c1,0.3,2.1,0.5,3.3,0.5h36c1.1,0,2.2-0.2,3.3-0.5c2.1-0.6,3.9-1.9,5.2-3.5c0.4-0.5,0.8-1.1,1.2-1.8
			c0.8-1.6,1.3-3.3,1.3-5.2S-151.5-522.7-152.3-524.2z"/>
	</g>
	<g>
		<g>
			<polyline class="st1" points="-75.2,-511.4 -82.2,-498.3 -77.1,-498.4 -82.9,-487 -70.6,-501.2 -76.9,-501.1 -68,-511.4 			"/>
			<polyline class="st1" points="-62.4,-516.3 -69.4,-503.2 -64.2,-503.3 -70,-491.9 -57.8,-506.1 -64,-506 -55.2,-516.3 			"/>
		</g>
		<path class="st4" d="M-48-530c-0.5,0-1.1,0.1-1.7,0.2C-51.8-537-58.3-542-66-542c-7.7,0-14.2,5-16.3,12.2
			c-0.6-0.1-1.2-0.2-1.7-0.2c-6.1,0-11,4.9-11,11s4.9,11,11,11h36c6.1,0,11-4.9,11-11S-41.9-530-48-530z"/>
	</g>
	<path class="st4" d="M66-530c-0.5,0-1.1,0.1-1.7,0.2C62.2-537,55.7-542,48-542c-7.7,0-14.2,5-16.3,12.2c-0.6-0.1-1.2-0.2-1.7-0.2
		c-6.1,0-11,4.9-11,11s4.9,11,11,11h36c6.1,0,11-4.9,11-11S72.1-530,66-530z"/>
	<path class="st1" d="M180-530c-0.5,0-1.1,0.1-1.7,0.2c-2.1-7.2-8.6-12.2-16.3-12.2c-7.7,0-14.2,5-16.3,12.2
		c-0.6-0.1-1.2-0.2-1.7-0.2c-6.1,0-11,4.9-11,11s4.9,11,11,11h11.3l-3.9,5.9c-0.4,0.6-0.4,1.4-0.1,2.1c0.3,0.7,1,1.1,1.8,1.1h2.3
		l-3.9,5.9c-0.6,0.9-0.4,2.2,0.6,2.8c0.3,0.2,0.7,0.3,1.1,0.3c0.6,0,1.3-0.3,1.7-0.9l6-9c0.4-0.6,0.4-1.4,0.1-2.1
		c-0.3-0.7-1-1.1-1.8-1.1h-2.3l3.3-5h5.2l-1.9,2.9c-0.4,0.6-0.4,1.4-0.1,2.1c0.3,0.7,1,1.1,1.8,1.1h2.3l-1.9,2.9
		c-0.6,0.9-0.4,2.2,0.6,2.8c0.3,0.2,0.7,0.3,1.1,0.3c0.6,0,1.3-0.3,1.7-0.9l4-6c0.4-0.6,0.4-1.4,0.1-2.1c-0.3-0.7-1-1.1-1.8-1.1
		h-2.3l1.3-2h9.9c6.1,0,11-4.9,11-11S186.1-530,180-530z M180-512h-36c-3.9,0-7-3.1-7-7s3.1-7,7-7c0.3,0,0.7,0.1,1.2,0.2v1.8
		c0,1.1,0.9,2,2,2c1.1,0,2-0.9,2-2v-3.2c1.1-6.3,6.4-10.8,12.8-10.8c6.4,0,11.7,4.5,12.8,10.8v3.2c0,1.1,0.9,2,2,2c1.1,0,2-0.9,2-2
		v-1.8c0.5-0.1,0.9-0.2,1.2-0.2c3.9,0,7,3.1,7,7S183.9-512,180-512z"/>
	<path class="st4" d="M180-530c-0.5,0-1.1,0.1-1.7,0.2c-2.1-7.2-8.6-12.2-16.3-12.2c-7.7,0-14.2,5-16.3,12.2
		c-0.6-0.1-1.2-0.2-1.7-0.2c-6.1,0-11,4.9-11,11s4.9,11,11,11h36c6.1,0,11-4.9,11-11S186.1-530,180-530z"/>
	<g>
		<path class="st2" d="M-184.3-386.3c-0.6-1-1.8-1.3-2.7-0.7c-1,0.6-1.3,1.8-0.7,2.7l1,1.7c0.4,0.6,1,1,1.7,1c0.3,0,0.7-0.1,1-0.3
			c1-0.6,1.3-1.8,0.7-2.7L-184.3-386.3z"/>
		<path class="st2" d="M-189-387.1c-1-0.6-2.2-0.2-2.7,0.7l-1,1.7c-0.6,1-0.2,2.2,0.7,2.7c0.3,0.2,0.7,0.3,1,0.3
			c0.7,0,1.4-0.4,1.7-1l1-1.7C-187.7-385.3-188-386.5-189-387.1z"/>
		<path class="st2" d="M-190-388.8c0-1.1-0.9-2-2-2h-2c-1.1,0-2,0.9-2,2c0,1.1,0.9,2,2,2h2C-190.9-386.8-190-387.7-190-388.8z"/>
		<path class="st2" d="M-182-390.8h-2c-1.1,0-2,0.9-2,2c0,1.1,0.9,2,2,2h2c1.1,0,2-0.9,2-2C-180-389.9-180.9-390.8-182-390.8z"/>
		<path class="st2" d="M-162-416c-0.5,0-1.1,0.1-1.7,0.2c-2.1-7.2-8.6-12.2-16.3-12.2c-7.7,0-14.2,5-16.3,12.2
			c-0.6-0.1-1.2-0.2-1.7-0.2c-6.1,0-11,4.9-11,11s4.9,11,11,11h5c0,0.3,0.1,0.7,0.3,1l1,1.7c0.4,0.6,1,1,1.7,1c0.3,0,0.7-0.1,1-0.3
			c1-0.6,1.3-1.8,0.7-2.7l-0.4-0.7h1.4l-0.4,0.7c-0.6,1-0.2,2.2,0.7,2.7c0.3,0.2,0.7,0.3,1,0.3c0.7,0,1.4-0.4,1.7-1l1-1.7
			c0.2-0.3,0.3-0.7,0.3-1h21c6.1,0,11-4.9,11-11S-155.9-416-162-416z"/>
		<path class="st2" d="M-167.3-381.3c-0.6-1-1.8-1.3-2.7-0.7c-1,0.6-1.3,1.8-0.7,2.7l1,1.7c0.4,0.6,1,1,1.7,1c0.3,0,0.7-0.1,1-0.3
			c1-0.6,1.3-1.8,0.7-2.7L-167.3-381.3z"/>
		<path class="st2" d="M-172.3-390c-0.6-1-1.8-1.3-2.7-0.7c-1,0.6-1.3,1.8-0.7,2.7l1,1.7c0.4,0.6,1,1,1.7,1c0.3,0,0.7-0.1,1-0.3
			c1-0.6,1.3-1.8,0.7-2.7L-172.3-390z"/>
		<path class="st2" d="M-170-385.5c0.3,0.2,0.7,0.3,1,0.3c0.7,0,1.4-0.4,1.7-1l1-1.7c0.6-1,0.2-2.2-0.7-2.7c-1-0.6-2.2-0.2-2.7,0.7
			l-1,1.7C-171.3-387.3-171-386.1-170-385.5z"/>
		<path class="st2" d="M-172-382.1c-1-0.6-2.2-0.2-2.7,0.7l-1,1.7c-0.6,1-0.2,2.2,0.7,2.7c0.3,0.2,0.7,0.3,1,0.3
			c0.7,0,1.4-0.4,1.7-1l1-1.7C-170.7-380.3-171-381.5-172-382.1z"/>
		<path class="st2" d="M-173-383.8c0-1.1-0.9-2-2-2h-2c-1.1,0-2,0.9-2,2c0,1.1,0.9,2,2,2h2C-173.9-381.8-173-382.7-173-383.8z"/>
		<path class="st2" d="M-165-385.8h-2c-1.1,0-2,0.9-2,2c0,1.1,0.9,2,2,2h2c1.1,0,2-0.9,2-2C-163-384.9-163.9-385.8-165-385.8z"/>
	</g>
	<g>
		<path class="st2" d="M-70.3-386.3c-0.6-1-1.8-1.3-2.7-0.7c-1,0.6-1.3,1.8-0.7,2.7l1,1.7c0.4,0.6,1,1,1.7,1c0.3,0,0.7-0.1,1-0.3
			c1-0.6,1.3-1.8,0.7-2.7L-70.3-386.3z"/>
		<path class="st2" d="M-75-387.1c-1-0.6-2.2-0.2-2.7,0.7l-1,1.7c-0.6,1-0.2,2.2,0.7,2.7c0.3,0.2,0.7,0.3,1,0.3c0.7,0,1.4-0.4,1.7-1
			l1-1.7C-73.7-385.3-74-386.5-75-387.1z"/>
		<path class="st2" d="M-76-388.8c0-1.1-0.9-2-2-2h-2c-1.1,0-2,0.9-2,2c0,1.1,0.9,2,2,2h2C-76.9-386.8-76-387.7-76-388.8z"/>
		<path class="st2" d="M-68-390.8h-2c-1.1,0-2,0.9-2,2c0,1.1,0.9,2,2,2h2c1.1,0,2-0.9,2-2C-66-389.9-66.9-390.8-68-390.8z"/>
		<path class="st2" d="M-48-416c-0.5,0-1.1,0.1-1.7,0.2C-51.8-423-58.3-428-66-428c-7.7,0-14.2,5-16.3,12.2
			c-0.6-0.1-1.2-0.2-1.7-0.2c-6.1,0-11,4.9-11,11s4.9,11,11,11h5c0,0.3,0.1,0.7,0.3,1l1,1.7c0.4,0.6,1,1,1.7,1c0.3,0,0.7-0.1,1-0.3
			c1-0.6,1.3-1.8,0.7-2.7l-0.4-0.7h1.4l-0.4,0.7c-0.6,1-0.2,2.2,0.7,2.7c0.3,0.2,0.7,0.3,1,0.3c0.7,0,1.4-0.4,1.7-1l1-1.7
			c0.2-0.3,0.3-0.7,0.3-1h21c6.1,0,11-4.9,11-11S-41.9-416-48-416z"/>
		<path class="st2" d="M-53.3-381.3c-0.6-1-1.8-1.3-2.7-0.7c-1,0.6-1.3,1.8-0.7,2.7l1,1.7c0.4,0.6,1,1,1.7,1c0.3,0,0.7-0.1,1-0.3
			c1-0.6,1.3-1.8,0.7-2.7L-53.3-381.3z"/>
		<path class="st2" d="M-58.3-390c-0.6-1-1.8-1.3-2.7-0.7c-1,0.6-1.3,1.8-0.7,2.7l1,1.7c0.4,0.6,1,1,1.7,1c0.3,0,0.7-0.1,1-0.3
			c1-0.6,1.3-1.8,0.7-2.7L-58.3-390z"/>
		<path class="st2" d="M-56-385.5c0.3,0.2,0.7,0.3,1,0.3c0.7,0,1.4-0.4,1.7-1l1-1.7c0.6-1,0.2-2.2-0.7-2.7c-1-0.6-2.2-0.2-2.7,0.7
			l-1,1.7C-57.3-387.3-57-386.1-56-385.5z"/>
		<path class="st2" d="M-58-382.1c-1-0.6-2.2-0.2-2.7,0.7l-1,1.7c-0.6,1-0.2,2.2,0.7,2.7c0.3,0.2,0.7,0.3,1,0.3c0.7,0,1.4-0.4,1.7-1
			l1-1.7C-56.7-380.3-57-381.5-58-382.1z"/>
		<path class="st2" d="M-59-383.8c0-1.1-0.9-2-2-2h-2c-1.1,0-2,0.9-2,2c0,1.1,0.9,2,2,2h2C-59.9-381.8-59-382.7-59-383.8z"/>
		<path class="st2" d="M-51-385.8h-2c-1.1,0-2,0.9-2,2c0,1.1,0.9,2,2,2h2c1.1,0,2-0.9,2-2C-49-384.9-49.9-385.8-51-385.8z"/>
	</g>
	<g>
		<path class="st1" d="M52.6-391.4l-2.6,2.6v-5.2c0-1.1-0.9-2-2-2c-1.1,0-2,0.9-2,2v5.2l-2.6-2.6c-0.8-0.8-2-0.8-2.8,0
			c-0.8,0.8-0.8,2,0,2.8l6,6c0.4,0.4,0.9,0.6,1.4,0.6c0.5,0,1-0.2,1.4-0.6l6-6c0.8-0.8,0.8-2,0-2.8
			C54.6-392.2,53.4-392.2,52.6-391.4z"/>
		<path class="st1" d="M57.9-417.9c-1-1-2-1.8-3.2-2.4c-1.6-0.9-3.4-1.4-5.2-1.6c-0.5,0-0.9-0.1-1.4-0.1c-7.7,0-14,6.3-14,14
			c0,1.5,0.3,3.1,0.7,4.5c0.3,0.9,0.7,1.7,1.1,2.5c0.4,0.6,1,1,1.7,1l0,0h20.8c0.2,0,0.4,0,0.5-0.1c0.5-0.1,0.9-0.5,1.2-0.9
			c0.5-0.8,0.8-1.6,1.1-2.5c0.5-1.4,0.7-3,0.7-4.5c0-2.9-0.9-5.6-2.4-7.8C59.1-416.6,58.5-417.3,57.9-417.9z M48.2-418
			c-0.5,0-1,0-1.4,0.1h0c0.4-0.1,0.8-0.1,1.2-0.1C48.1-418,48.1-418,48.2-418z M38.8-404C38.8-404,38.8-404,38.8-404
			C38.8-404,38.9-404,38.8-404L38.8-404z"/>
	</g>
	<g>
		<path class="st1" d="M163.4-395.4c-0.8-0.8-2-0.8-2.8,0l-6,6c-0.8,0.8-0.8,2,0,2.8c0.8,0.8,2,0.8,2.8,0l2.6-2.6v5.2
			c0,1.1,0.9,2,2,2c1.1,0,2-0.9,2-2v-5.2l2.6,2.6c0.4,0.4,0.9,0.6,1.4,0.6c0.5,0,1-0.2,1.4-0.6c0.8-0.8,0.8-2,0-2.8L163.4-395.4z"/>
		<path class="st1" d="M171.9-417.9c-1-1-2-1.8-3.2-2.4c-1.6-0.9-3.4-1.4-5.2-1.6c-0.5,0-0.9-0.1-1.4-0.1c-7.7,0-14,6.3-14,14
			c0,1.5,0.3,3.1,0.7,4.5c0.3,0.9,0.7,1.7,1.1,2.5c0.4,0.6,1,1,1.7,1l0,0h20.8c0.2,0,0.4,0,0.5-0.1c0.5-0.1,0.9-0.5,1.2-0.9
			c0.5-0.8,0.8-1.6,1.1-2.5c0.5-1.4,0.7-3,0.7-4.5c0-2.9-0.9-5.6-2.4-7.8C173.1-416.6,172.5-417.3,171.9-417.9z M162.2-418
			c-0.5,0-1,0-1.4,0.1h0c0.4-0.1,0.8-0.1,1.2-0.1C162.1-418,162.1-418,162.2-418z M152.8-404C152.8-404,152.8-404,152.8-404
			C152.8-404,152.9-404,152.8-404L152.8-404z"/>
	</g>
	<g>
		<path class="st2" d="M-276-302c-0.5,0-1.1,0.1-1.7,0.2c-2.1-7.2-8.6-12.2-16.3-12.2c-7.7,0-14.2,5-16.3,12.2
			c-0.6-0.1-1.2-0.2-1.7-0.2c-6.1,0-11,4.9-11,11s4.9,11,11,11h5.4l-2.4,9.5c-0.3,1.1,0.4,2.2,1.5,2.4c0.2,0,0.3,0.1,0.5,0.1
			c0.9,0,1.7-0.6,1.9-1.5l2.6-10.5h5.4l-3.9,15.5c-0.3,1.1,0.4,2.2,1.5,2.4c0.2,0,0.3,0.1,0.5,0.1c0.9,0,1.7-0.6,1.9-1.5l4.1-16.5
			h5.4l-2.4,9.5c-0.3,1.1,0.4,2.2,1.5,2.4c0.2,0,0.3,0.1,0.5,0.1c0.9,0,1.7-0.6,1.9-1.5l2.6-10.5h7.4c6.1,0,11-4.9,11-11
			S-269.9-302-276-302z"/>
	</g>
	<path class="st2" d="M-162-302c-0.5,0-1.1,0.1-1.7,0.2c-2.1-7.2-8.6-12.2-16.3-12.2c-7.7,0-14.2,5-16.3,12.2
		c-0.6-0.1-1.2-0.2-1.7-0.2c-6.1,0-11,4.9-11,11s4.9,11,11,11h5.4l-2.4,9.5c-0.3,1.1,0.4,2.2,1.5,2.4c0.2,0,0.3,0.1,0.5,0.1
		c0.9,0,1.7-0.6,1.9-1.5l2.6-10.5h5.4l-3.9,15.5c-0.3,1.1,0.4,2.2,1.5,2.4c0.2,0,0.3,0.1,0.5,0.1c0.9,0,1.7-0.6,1.9-1.5l4.1-16.5
		h5.4l-2.4,9.5c-0.3,1.1,0.4,2.2,1.5,2.4c0.2,0,0.3,0.1,0.5,0.1c0.9,0,1.7-0.6,1.9-1.5l2.6-10.5h7.4c6.1,0,11-4.9,11-11
		S-155.9-302-162-302z"/>
	<path class="st2" d="M-48-302c-0.5,0-1.1,0.1-1.7,0.2C-51.8-309-58.3-314-66-314c-7.7,0-14.2,5-16.3,12.2c-0.6-0.1-1.2-0.2-1.7-0.2
		c-6.1,0-11,4.9-11,11s4.9,11,11,11h5.4l-2.4,9.5c-0.3,1.1,0.4,2.2,1.5,2.4c0.2,0,0.3,0.1,0.5,0.1c0.9,0,1.7-0.6,1.9-1.5l2.6-10.5
		h5.4l-3.9,15.5c-0.3,1.1,0.4,2.2,1.5,2.4c0.2,0,0.3,0.1,0.5,0.1c0.9,0,1.7-0.6,1.9-1.5l4.1-16.5h5.4l-2.4,9.5
		c-0.3,1.1,0.4,2.2,1.5,2.4c0.2,0,0.3,0.1,0.5,0.1c0.9,0,1.7-0.6,1.9-1.5l2.6-10.5h7.4c6.1,0,11-4.9,11-11S-41.9-302-48-302z"/>
	<g>
		<path class="st5" d="M147-304h12c1.1,0,2-0.9,2-2s-0.9-2-2-2h-12c-1.1,0-2,0.9-2,2S145.9-304,147-304z"/>
		<path class="st5" d="M135-298h24c1.1,0,2-0.9,2-2s-0.9-2-2-2h-24c-1.1,0-2,0.9-2,2S133.9-298,135-298z"/>
		<path class="st5" d="M129-292h24c1.1,0,2-0.9,2-2s-0.9-2-2-2h-24c-1.1,0-2,0.9-2,2S127.9-292,129-292z"/>
		<path class="st5" d="M188-288c0-1.1-0.9-2-2-2h-60c-1.1,0-2,0.9-2,2s0.9,2,2,2h60C187.1-286,188-286.9,188-288z"/>
		<path class="st5" d="M186-284h-57c-1.1,0-2,0.9-2,2s0.9,2,2,2h57c1.1,0,2-0.9,2-2S187.1-284,186-284z"/>
		<path class="st5" d="M147-278l-12,0c-1.1,0-2,0.9-2,2c0,1.1,0.9,2,2,2l12,0c1.1,0,2-0.9,2-2S148.1-278,147-278z"/>
		<path class="st5" d="M166-298h8c1.1,0,2-0.9,2-2s-0.9-2-2-2h-8c-1.1,0-2,0.9-2,2S164.9-298,166-298z"/>
		<path class="st5" d="M157-294c0,1.1,0.9,2,2,2h21c1.1,0,2-0.9,2-2s-0.9-2-2-2h-21C157.9-296,157-295.1,157-294z"/>
		<path class="st5" d="M180-278l-27,0c-1.1,0-2,0.9-2,2s0.9,2,2,2l27,0c1.1,0,2-0.9,2-2C182-277.1,181.1-278,180-278z"/>
	</g>
	<path class="st4" d="M-162-188c-0.5,0-1.1,0.1-1.7,0.2c-2.1-7.2-8.6-12.2-16.3-12.2c-7.7,0-14.2,5-16.3,12.2
		c-0.6-0.1-1.2-0.2-1.7-0.2c-6.1,0-11,4.9-11,11s4.9,11,11,11h36c6.1,0,11-4.9,11-11S-155.9-188-162-188z"/>
	<g>
		<path class="st2" d="M-93-175c1.1,0,2-0.9,2-2c0-3.9,3.1-7,7-7c0.3,0,0.7,0.1,1.2,0.2v1.8c0,1.1,0.9,2,2,2s2-0.9,2-2v-3.2
			c1.1-6.3,6.4-10.8,12.8-10.8c6.4,0,11.7,4.5,12.8,10.8v3.2c0,1.1,0.9,2,2,2s2-0.9,2-2v-1.8c0.5-0.1,0.9-0.2,1.2-0.2
			c3.9,0,7,3.1,7,7c0,1.1,0.9,2,2,2c1.1,0,2-0.9,2-2c0-6.1-4.9-11-11-11c-0.5,0-1.1,0.1-1.7,0.2C-51.8-195-58.3-200-66-200
			c-7.7,0-14.2,5-16.3,12.2c-0.6-0.1-1.2-0.2-1.7-0.2c-6.1,0-11,4.9-11,11C-95-175.9-94.1-175-93-175z"/>
		<path class="st2" d="M-74-169c0,1.1,0.9,2,2,2h36c1.1,0,2-0.9,2-2c0-1.1-0.9-2-2-2h-36C-73.1-171-74-170.1-74-169z"/>
		<path class="st2" d="M-66-164c-1.1,0-2,0.9-2,2c0,1.1,0.9,2,2,2h27c1.1,0,2-0.9,2-2c0-1.1-0.9-2-2-2H-66z"/>
		<path class="st2" d="M-36-157h-24c-1.1,0-2,0.9-2,2c0,1.1,0.9,2,2,2h24c1.1,0,2-0.9,2-2C-34-156.1-34.9-157-36-157z"/>
		<path class="st2" d="M-96-167h18c1.1,0,2-0.9,2-2c0-1.1-0.9-2-2-2h-18c-1.1,0-2,0.9-2,2C-98-167.9-97.1-167-96-167z"/>
		<path class="st2" d="M-93-164c-1.1,0-2,0.9-2,2c0,1.1,0.9,2,2,2h21c1.1,0,2-0.9,2-2c0-1.1-0.9-2-2-2H-93z"/>
		<path class="st2" d="M-66-157h-30c-1.1,0-2,0.9-2,2c0,1.1,0.9,2,2,2h30c1.1,0,2-0.9,2-2C-64-156.1-64.9-157-66-157z"/>
	</g>
	<path class="st4" d="M-48-188c-0.5,0-1.1,0.1-1.7,0.2C-51.8-195-58.3-200-66-200c-7.7,0-14.2,5-16.3,12.2c-0.6-0.1-1.2-0.2-1.7-0.2
		c-6.1,0-11,4.9-11,11s4.9,11,11,11h36c6.1,0,11-4.9,11-11S-41.9-188-48-188z"/>
	<g>
		<path class="st2" d="M21-175c1.1,0,2-0.9,2-2c0-3.9,3.1-7,7-7c0.3,0,0.7,0.1,1.2,0.2v1.8c0,1.1,0.9,2,2,2c1.1,0,2-0.9,2-2v-3.2
			c1.1-6.3,6.4-10.8,12.8-10.8c6.4,0,11.7,4.5,12.8,10.8v3.2c0,1.1,0.9,2,2,2s2-0.9,2-2v-1.8c0.5-0.1,0.9-0.2,1.2-0.2
			c3.9,0,7,3.1,7,7c0,1.1,0.9,2,2,2c1.1,0,2-0.9,2-2c0-6.1-4.9-11-11-11c-0.5,0-1.1,0.1-1.7,0.2C62.2-195,55.7-200,48-200
			c-7.7,0-14.2,5-16.3,12.2c-0.6-0.1-1.2-0.2-1.7-0.2c-6.1,0-11,4.9-11,11C19-175.9,19.9-175,21-175z"/>
		<path class="st2" d="M40-169c0,1.1,0.9,2,2,2h36c1.1,0,2-0.9,2-2c0-1.1-0.9-2-2-2H42C40.9-171,40-170.1,40-169z"/>
		<path class="st2" d="M48-164c-1.1,0-2,0.9-2,2c0,1.1,0.9,2,2,2h27c1.1,0,2-0.9,2-2c0-1.1-0.9-2-2-2H48z"/>
		<path class="st2" d="M78-157H54c-1.1,0-2,0.9-2,2c0,1.1,0.9,2,2,2h24c1.1,0,2-0.9,2-2C80-156.1,79.1-157,78-157z"/>
		<path class="st2" d="M18-167h18c1.1,0,2-0.9,2-2c0-1.1-0.9-2-2-2H18c-1.1,0-2,0.9-2,2C16-167.9,16.9-167,18-167z"/>
		<path class="st2" d="M21-164c-1.1,0-2,0.9-2,2c0,1.1,0.9,2,2,2h21c1.1,0,2-0.9,2-2c0-1.1-0.9-2-2-2H21z"/>
		<path class="st2" d="M48-157H18c-1.1,0-2,0.9-2,2c0,1.1,0.9,2,2,2h30c1.1,0,2-0.9,2-2C50-156.1,49.1-157,48-157z"/>
	</g>
	<path class="st4" d="M66-188c-0.5,0-1.1,0.1-1.7,0.2C62.2-195,55.7-200,48-200c-7.7,0-14.2,5-16.3,12.2c-0.6-0.1-1.2-0.2-1.7-0.2
		c-6.1,0-11,4.9-11,11s4.9,11,11,11h36c6.1,0,11-4.9,11-11S72.1-188,66-188z"/>
	<path class="st4" d="M180-194c-0.5,0-1.1,0.1-1.7,0.2c-2.1-7.2-8.6-12.2-16.3-12.2c-7.7,0-14.2,5-16.3,12.2
		c-0.6-0.1-1.2-0.2-1.7-0.2c-6.1,0-11,4.9-11,11s4.9,11,11,11h36c6.1,0,11-4.9,11-11S186.1-194,180-194z"/>
	<path class="st4" d="M66-758c-0.5,0-1.1,0.1-1.7,0.2C62.2-765,55.7-770,48-770c-7.7,0-14.2,5-16.3,12.2c-0.6-0.1-1.2-0.2-1.7-0.2
		c-6.1,0-11,4.9-11,11s4.9,11,11,11h36c6.1,0,11-4.9,11-11S72.1-758,66-758z"/>
	<path class="st4" d="M180-758c-0.5,0-1.1,0.1-1.7,0.2c-2.1-7.2-8.6-12.2-16.3-12.2c-7.7,0-14.2,5-16.3,12.2
		c-0.6-0.1-1.2-0.2-1.7-0.2c-6.1,0-11,4.9-11,11s4.9,11,11,11h36c6.1,0,11-4.9,11-11S186.1-758,180-758z"/>
	<path class="st4" d="M-276-644c-0.5,0-1.1,0.1-1.7,0.2c-2.1-7.2-8.6-12.2-16.3-12.2c-7.7,0-14.2,5-16.3,12.2
		c-0.6-0.1-1.2-0.2-1.7-0.2c-6.1,0-11,4.9-11,11s4.9,11,11,11h36c6.1,0,11-4.9,11-11S-269.9-644-276-644z"/>
	<g>
		<g>
			<path class="st2" d="M-180-620c-1.1,0-2,0.9-2,2v18c0,1.1,0.9,2,2,2c1.1,0,2-0.9,2-2v-18C-178-619.1-178.9-620-180-620z"/>
			<path class="st2" d="M-152.3-638.2c-0.3-0.6-0.7-1.2-1.2-1.8c-1.3-1.6-3.2-2.9-5.2-3.5c-1-0.3-2.1-0.5-3.3-0.5
				c-0.5,0-1.1,0.1-1.7,0.2c-2.1-7.2-8.6-12.2-16.3-12.2c-7.7,0-14.2,5-16.3,12.2c-0.6-0.1-1.2-0.2-1.7-0.2c-1.1,0-2.2,0.2-3.3,0.5
				c-2.1,0.6-3.9,1.9-5.2,3.5c-0.4,0.5-0.8,1.1-1.2,1.8c-0.8,1.6-1.3,3.3-1.3,5.2s0.5,3.7,1.3,5.2c0.3,0.6,0.7,1.2,1.2,1.8
				c1.3,1.6,3.2,2.9,5.2,3.5c1,0.3,2.1,0.5,3.3,0.5h7v16c0,1.1,0.9,2,2,2c1.1,0,2-0.9,2-2v-16h14v16c0,1.1,0.9,2,2,2
				c1.1,0,2-0.9,2-2v-16h7c1.1,0,2.2-0.2,3.3-0.5c2.1-0.6,3.9-1.9,5.2-3.5c0.4-0.5,0.8-1.1,1.2-1.8c0.8-1.6,1.3-3.3,1.3-5.2
				S-151.5-636.7-152.3-638.2z"/>
		</g>
		<path class="st4" d="M-162-644c-0.5,0-1.1,0.1-1.7,0.2c-2.1-7.2-8.6-12.2-16.3-12.2c-7.7,0-14.2,5-16.3,12.2
			c-0.6-0.1-1.2-0.2-1.7-0.2c-6.1,0-11,4.9-11,11s4.9,11,11,11h36c6.1,0,11-4.9,11-11S-155.9-644-162-644z"/>
	</g>
	<path class="st4" d="M-48-644c-0.5,0-1.1,0.1-1.7,0.2C-51.8-651-58.3-656-66-656c-7.7,0-14.2,5-16.3,12.2c-0.6-0.1-1.2-0.2-1.7-0.2
		c-6.1,0-11,4.9-11,11s4.9,11,11,11h36c6.1,0,11-4.9,11-11S-41.9-644-48-644z"/>
	<path class="st4" d="M66-644c-0.5,0-1.1,0.1-1.7,0.2C62.2-651,55.7-656,48-656c-7.7,0-14.2,5-16.3,12.2c-0.6-0.1-1.2-0.2-1.7-0.2
		c-6.1,0-11,4.9-11,11s4.9,11,11,11h36c6.1,0,11-4.9,11-11S72.1-644,66-644z"/>
	<g>
		<g>
			<circle class="st2" cx="153" cy="-618" r="2"/>
			<circle class="st2" cx="171" cy="-618" r="2"/>
			<circle class="st2" cx="162" cy="-612" r="2"/>
			<circle class="st2" cx="171" cy="-606" r="2"/>
			<circle class="st2" cx="162" cy="-600" r="2"/>
			<circle class="st2" cx="153" cy="-606" r="2"/>
			<path class="st2" d="M189.7-638.2c-0.3-0.6-0.7-1.2-1.2-1.8c-1.3-1.6-3.2-2.9-5.2-3.5c-1-0.3-2.1-0.5-3.3-0.5
				c-0.3,0-0.5,0-0.8,0.1c-0.3,0-0.6,0.1-0.9,0.1c-0.9-3.1-2.7-5.9-5-7.9c-0.3-0.3-0.7-0.6-1-0.8c-0.7-0.5-1.5-1-2.3-1.4
				c-2.4-1.3-5.1-2-8-2c-7.7,0-14.2,5-16.3,12.2c-0.1,0-0.1,0-0.2,0c-0.5-0.1-1-0.2-1.5-0.2c-1.1,0-2.2,0.2-3.3,0.5
				c-2.1,0.6-3.9,1.9-5.2,3.5c-0.4,0.5-0.8,1.1-1.2,1.8c-0.8,1.6-1.3,3.3-1.3,5.2s0.5,3.7,1.3,5.2c0.3,0.6,0.7,1.2,1.2,1.8
				c1.3,1.6,3.2,2.9,5.2,3.5c1,0.3,2.1,0.5,3.3,0.5h36c1.1,0,2.2-0.2,3.3-0.5c2.1-0.6,3.9-1.9,5.2-3.5c0.4-0.5,0.8-1.1,1.2-1.8
				c0.8-1.6,1.3-3.3,1.3-5.2S190.5-636.7,189.7-638.2z"/>
		</g>
		<path class="st4" d="M180-644c-0.5,0-1.1,0.1-1.7,0.2c-2.1-7.2-8.6-12.2-16.3-12.2c-7.7,0-14.2,5-16.3,12.2
			c-0.6-0.1-1.2-0.2-1.7-0.2c-6.1,0-11,4.9-11,11s4.9,11,11,11h36c6.1,0,11-4.9,11-11S186.1-644,180-644z"/>
	</g>
	<path class="st4" d="M-276-530c-0.5,0-1.1,0.1-1.7,0.2c-2.1-7.2-8.6-12.2-16.3-12.2c-7.7,0-14.2,5-16.3,12.2
		c-0.6-0.1-1.2-0.2-1.7-0.2c-6.1,0-11,4.9-11,11s4.9,11,11,11h36c6.1,0,11-4.9,11-11S-269.9-530-276-530z"/>
	<path class="st4" d="M-162-530c-0.5,0-1.1,0.1-1.7,0.2c-2.1-7.2-8.6-12.2-16.3-12.2c-7.7,0-14.2,5-16.3,12.2
		c-0.6-0.1-1.2-0.2-1.7-0.2c-6.1,0-11,4.9-11,11s4.9,11,11,11h36c6.1,0,11-4.9,11-11S-155.9-530-162-530z"/>
	<g>
		<g>
			<path class="st2" d="M-297.3-385.3c-0.6-1-1.8-1.3-2.7-0.7c-1,0.6-1.3,1.8-0.7,2.7l1,1.7c0.4,0.6,1,1,1.7,1c0.3,0,0.7-0.1,1-0.3
				c1-0.6,1.3-1.8,0.7-2.7L-297.3-385.3z"/>
			<path class="st2" d="M-302-386.1c-1-0.6-2.2-0.2-2.7,0.7l-1,1.7c-0.6,1-0.2,2.2,0.7,2.7c0.3,0.2,0.7,0.3,1,0.3
				c0.7,0,1.4-0.4,1.7-1l1-1.7C-300.7-384.3-301-385.5-302-386.1z"/>
			<path class="st2" d="M-303-387.8c0-1.1-0.9-2-2-2h-2c-1.1,0-2,0.9-2,2c0,1.1,0.9,2,2,2h2C-303.9-385.8-303-386.7-303-387.8z"/>
			<path class="st2" d="M-295-389.8h-2c-1.1,0-2,0.9-2,2c0,1.1,0.9,2,2,2h2c1.1,0,2-0.9,2-2C-293-388.9-293.9-389.8-295-389.8z"/>
			<path class="st2" d="M-275-415c-0.5,0-1.1,0.1-1.7,0.2c-2.1-7.2-8.6-12.2-16.3-12.2c-7.7,0-14.2,5-16.3,12.2
				c-0.6-0.1-1.2-0.2-1.7-0.2c-6.1,0-11,4.9-11,11s4.9,11,11,11h5c0,0.3,0.1,0.7,0.3,1l1,1.7c0.4,0.6,1,1,1.7,1c0.3,0,0.7-0.1,1-0.3
				c1-0.6,1.3-1.8,0.7-2.7l-0.4-0.7h1.4l-0.4,0.7c-0.6,1-0.2,2.2,0.7,2.7c0.3,0.2,0.7,0.3,1,0.3c0.7,0,1.4-0.4,1.7-1l1-1.7
				c0.2-0.3,0.3-0.7,0.3-1h21c6.1,0,11-4.9,11-11S-268.9-415-275-415z"/>
			<path class="st2" d="M-280.3-380.3c-0.6-1-1.8-1.3-2.7-0.7c-1,0.6-1.3,1.8-0.7,2.7l1,1.7c0.4,0.6,1,1,1.7,1c0.3,0,0.7-0.1,1-0.3
				c1-0.6,1.3-1.8,0.7-2.7L-280.3-380.3z"/>
			<path class="st2" d="M-285.3-389c-0.6-1-1.8-1.3-2.7-0.7c-1,0.6-1.3,1.8-0.7,2.7l1,1.7c0.4,0.6,1,1,1.7,1c0.3,0,0.7-0.1,1-0.3
				c1-0.6,1.3-1.8,0.7-2.7L-285.3-389z"/>
			<path class="st2" d="M-283-384.5c0.3,0.2,0.7,0.3,1,0.3c0.7,0,1.4-0.4,1.7-1l1-1.7c0.6-1,0.2-2.2-0.7-2.7c-1-0.6-2.2-0.2-2.7,0.7
				l-1,1.7C-284.3-386.3-284-385.1-283-384.5z"/>
			<path class="st2" d="M-285-381.1c-1-0.6-2.2-0.2-2.7,0.7l-1,1.7c-0.6,1-0.2,2.2,0.7,2.7c0.3,0.2,0.7,0.3,1,0.3
				c0.7,0,1.4-0.4,1.7-1l1-1.7C-283.7-379.3-284-380.5-285-381.1z"/>
			<path class="st2" d="M-286-382.8c0-1.1-0.9-2-2-2h-2c-1.1,0-2,0.9-2,2c0,1.1,0.9,2,2,2h2C-286.9-380.8-286-381.7-286-382.8z"/>
			<path class="st2" d="M-278-384.8h-2c-1.1,0-2,0.9-2,2c0,1.1,0.9,2,2,2h2c1.1,0,2-0.9,2-2C-276-383.9-276.9-384.8-278-384.8z"/>
		</g>
		<path class="st4" d="M-275-415c-0.5,0-1.1,0.1-1.7,0.2c-2.1-7.2-8.6-12.2-16.3-12.2c-7.7,0-14.2,5-16.3,12.2
			c-0.6-0.1-1.2-0.2-1.7-0.2c-6.1,0-11,4.9-11,11s4.9,11,11,11h36c6.1,0,11-4.9,11-11S-268.9-415-275-415z"/>
	</g>
	<path class="st4" d="M-162-416c-0.5,0-1.1,0.1-1.7,0.2c-2.1-7.2-8.6-12.2-16.3-12.2c-7.7,0-14.2,5-16.3,12.2
		c-0.6-0.1-1.2-0.2-1.7-0.2c-6.1,0-11,4.9-11,11s4.9,11,11,11h36c6.1,0,11-4.9,11-11S-155.9-416-162-416z"/>
	<path class="st4" d="M-48-416c-0.5,0-1.1,0.1-1.7,0.2C-51.8-423-58.3-428-66-428c-7.7,0-14.2,5-16.3,12.2c-0.6-0.1-1.2-0.2-1.7-0.2
		c-6.1,0-11,4.9-11,11s4.9,11,11,11h36c6.1,0,11-4.9,11-11S-41.9-416-48-416z"/>
	<path class="st4" d="M-276-302c-0.5,0-1.1,0.1-1.7,0.2c-2.1-7.2-8.6-12.2-16.3-12.2c-7.7,0-14.2,5-16.3,12.2
		c-0.6-0.1-1.2-0.2-1.7-0.2c-6.1,0-11,4.9-11,11s4.9,11,11,11h36c6.1,0,11-4.9,11-11S-269.9-302-276-302z"/>
	<path class="st4" d="M-162-302c-0.5,0-1.1,0.1-1.7,0.2c-2.1-7.2-8.6-12.2-16.3-12.2c-7.7,0-14.2,5-16.3,12.2
		c-0.6-0.1-1.2-0.2-1.7-0.2c-6.1,0-11,4.9-11,11s4.9,11,11,11h36c6.1,0,11-4.9,11-11S-155.9-302-162-302z"/>
	<path class="st4" d="M-48-302c-0.5,0-1.1,0.1-1.7,0.2C-51.8-309-58.3-314-66-314c-7.7,0-14.2,5-16.3,12.2c-0.6-0.1-1.2-0.2-1.7-0.2
		c-6.1,0-11,4.9-11,11s4.9,11,11,11h36c6.1,0,11-4.9,11-11S-41.9-302-48-302z"/>
	<path class="st4" d="M-276-74c-0.5,0-1.1,0.1-1.7,0.2C-279.8-81-286.3-86-294-86c-7.7,0-14.2,5-16.3,12.2c-0.6-0.1-1.2-0.2-1.7-0.2
		c-6.1,0-11,4.9-11,11s4.9,11,11,11h36c6.1,0,11-4.9,11-11S-269.9-74-276-74z"/>
	<g>
		<g>
			<path class="st2" d="M-292,66V54c0-1.1-0.9-2-2-2s-2,0.9-2,2v12c0,1.1,0.9,2,2,2S-292,67.1-292,66z"/>
			<path class="st2" d="M-301,72V60c0-1.1-0.9-2-2-2s-2,0.9-2,2v12c0,1.1,0.9,2,2,2S-301,73.1-301,72z"/>
			<path class="st2" d="M-283,72V60c0-1.1-0.9-2-2-2s-2,0.9-2,2v12c0,1.1,0.9,2,2,2S-283,73.1-283,72z"/>
			<path class="st2" d="M-302,78h-2c-1.1,0-2,0.9-2,2v2c0,1.1,0.9,2,2,2h2c1.1,0,2-0.9,2-2v-2C-300,78.9-300.9,78-302,78z"/>
			<path class="st2" d="M-293,72h-2c-1.1,0-2,0.9-2,2v2c0,1.1,0.9,2,2,2h2c1.1,0,2-0.9,2-2v-2C-291,72.9-291.9,72-293,72z"/>
			<path class="st2" d="M-284,78h-2c-1.1,0-2,0.9-2,2v2c0,1.1,0.9,2,2,2h2c1.1,0,2-0.9,2-2v-2C-282,78.9-282.9,78-284,78z"/>
		</g>
		<path class="st4" d="M-276,40c-0.5,0-1.1,0.1-1.7,0.2C-279.8,33-286.3,28-294,28c-7.7,0-14.2,5-16.3,12.2
			c-0.6-0.1-1.2-0.2-1.7-0.2c-6.1,0-11,4.9-11,11s4.9,11,11,11h36c6.1,0,11-4.9,11-11S-269.9,40-276,40z"/>
	</g>
	<g>
		<g>
			<path class="st2" d="M45.5,54v18c0,1.1,0.9,2,2,2c1.1,0,2-0.9,2-2V54c0-1.1-0.9-2-2-2C46.4,52,45.5,52.9,45.5,54z"/>
			<path class="st2" d="M22.5,73h-2c-1.1,0-2,0.9-2,2v2c0,1.1,0.9,2,2,2h2c1.1,0,2-0.9,2-2v-2C24.5,73.9,23.6,73,22.5,73z"/>
			<path class="st2" d="M48.5,78h-2c-1.1,0-2,0.9-2,2v2c0,1.1,0.9,2,2,2h2c1.1,0,2-0.9,2-2v-2C50.5,78.9,49.6,78,48.5,78z"/>
			<path class="st2" d="M75.5,70h-2c-1.1,0-2,0.9-2,2v2c0,1.1,0.9,2,2,2h2c1.1,0,2-0.9,2-2v-2C77.5,70.9,76.6,70,75.5,70z"/>
			<path class="st2" d="M38.5,58c-1.1,0-2,0.9-2,2v15.1c-1.2-0.7-2.5-1.1-4-1.1h-2c-1.1,0-2,0.9-2,2s0.9,2,2,2h2c2.2,0,4,1.8,4,4
				c0,1.1,0.9,2,2,2c1.1,0,2-0.9,2-2V60C40.5,58.9,39.6,58,38.5,58z"/>
			<path class="st2" d="M65.5,71c-2.7,0-5.1,0.9-7,2.5V60c0-1.1-0.9-2-2-2c-1.1,0-2,0.9-2,2v22c0,0,0,0,0,0c0,1.1,0.9,2,2,2
				c1.1,0,2-0.9,2-2v0c0-3.9,3.1-7,7-7c1.1,0,2-0.9,2-2C67.5,71.9,66.6,71,65.5,71z"/>
		</g>
		<path class="st4" d="M66,40c-0.5,0-1.1,0.1-1.7,0.2C62.2,33,55.7,28,48,28c-7.7,0-14.2,5-16.3,12.2C31.1,40.1,30.5,40,30,40
			c-6.1,0-11,4.9-11,11s4.9,11,11,11h36c6.1,0,11-4.9,11-11S72.1,40,66,40z"/>
	</g>
	<path class="st4" d="M66-74c-0.5,0-1.1,0.1-1.7,0.2C62.2-81,55.7-86,48-86c-7.7,0-14.2,5-16.3,12.2C31.1-73.9,30.5-74,30-74
		c-6.1,0-11,4.9-11,11s4.9,11,11,11h36c6.1,0,11-4.9,11-11S72.1-74,66-74z"/>
	<path class="st2" d="M-191.6-50.2c-0.8,1.1-3.4,4.7-3.4,7.2c0,2.9,2.1,5,5,5c2.9,0,5-2.1,5-5c0-2.5-2.6-6.1-3.4-7.2
		C-189.2-51.2-190.8-51.2-191.6-50.2z"/>
	<path class="st2" d="M-173.6-50.2c-0.8,1.1-3.4,4.7-3.4,7.2c0,2.9,2.1,5,5,5c2.9,0,5-2.1,5-5c0-2.5-2.6-6.1-3.4-7.2
		C-171.2-51.2-172.8-51.2-173.6-50.2z"/>
	<path class="st2" d="M-182.6-39.2c-0.8,1.1-3.4,4.7-3.4,7.2c0,2.9,2.1,5,5,5c2.9,0,5-2.1,5-5c0-2.5-2.6-6.1-3.4-7.2
		C-180.2-40.2-181.8-40.2-182.6-39.2z"/>
	<path class="st4" d="M-162-74c-0.5,0-1.1,0.1-1.7,0.2C-165.8-81-172.3-86-180-86c-7.7,0-14.2,5-16.3,12.2c-0.6-0.1-1.2-0.2-1.7-0.2
		c-6.1,0-11,4.9-11,11s4.9,11,11,11h36c6.1,0,11-4.9,11-11S-155.9-74-162-74z"/>
	<path class="st2" d="M-305.6-50.2c-0.8,1.1-3.4,4.7-3.4,7.2c0,2.9,2.1,5,5,5s5-2.1,5-5c0-2.5-2.6-6.1-3.4-7.2
		C-303.2-51.3-304.8-51.3-305.6-50.2z"/>
	<path class="st2" d="M-287.6-50.2c-0.8,1.1-3.4,4.7-3.4,7.2c0,2.9,2.1,5,5,5s5-2.1,5-5c0-2.5-2.6-6.1-3.4-7.2
		C-285.2-51.3-286.8-51.3-287.6-50.2z"/>
	<path class="st2" d="M-296.6-39.2c-0.8,1.1-3.4,4.7-3.4,7.2c0,2.9,2.1,5,5,5s5-2.1,5-5c0-2.5-2.6-6.1-3.4-7.2
		C-294.2-40.3-295.8-40.3-296.6-39.2z"/>
	<path class="st2" d="M-63.3-50.4c-0.7-0.8-2.1-0.8-2.8,0c-0.6,0.7-5.9,7-5.9,12.1c0,1.9,0.6,3.6,1.8,5c0.9,1.1,2.6,2.3,5.5,2.3
		c4.8,0,7.3-3.7,7.3-7.3C-57.5-43.4-62.7-49.7-63.3-50.4z M-64.7-33.7C-64.7-33.7-64.7-33.7-64.7-33.7l0,0.9L-64.7-33.7z"/>
	<path class="st4" d="M-48-74c-0.5,0-1.1,0.1-1.7,0.2C-51.8-81-58.3-86-66-86c-7.7,0-14.2,5-16.3,12.2c-0.6-0.1-1.2-0.2-1.7-0.2
		c-6.1,0-11,4.9-11,11s4.9,11,11,11h36c6.1,0,11-4.9,11-11S-41.9-74-48-74z"/>
	<path class="st2" d="M51.1-50.4c-0.7-0.8-2.1-0.8-2.8,0c-0.6,0.7-5.9,7-5.9,12.1c0,1.9,0.6,3.6,1.8,5c0.9,1.1,2.6,2.3,5.5,2.3
		c4.8,0,7.3-3.7,7.3-7.3C57-43.3,51.7-49.7,51.1-50.4z M49.7-33.7L49.7-33.7l0,0.9L49.7-33.7z"/>
	<path class="st4" d="M-48,40c-0.5,0-1.1,0.1-1.7,0.2C-51.8,33-58.3,28-66,28c-7.7,0-14.2,5-16.3,12.2c-0.6-0.1-1.2-0.2-1.7-0.2
		c-6.1,0-11,4.9-11,11s4.9,11,11,11h36c6.1,0,11-4.9,11-11S-41.9,40-48,40z"/>
	<path class="st4" d="M-162,40c-0.5,0-1.1,0.1-1.7,0.2C-165.8,33-172.3,28-180,28c-7.7,0-14.2,5-16.3,12.2c-0.6-0.1-1.2-0.2-1.7-0.2
		c-6.1,0-11,4.9-11,11s4.9,11,11,11h36c6.1,0,11-4.9,11-11S-155.9,40-162,40z"/>
	<path class="st4" d="M180,40c-0.5,0-1.1,0.1-1.7,0.2C176.2,33,169.7,28,162,28c-7.7,0-14.2,5-16.3,12.2c-0.6-0.1-1.2-0.2-1.7-0.2
		c-6.1,0-11,4.9-11,11s4.9,11,11,11h36c6.1,0,11-4.9,11-11S186.1,40,180,40z"/>
	<path class="st4" d="M180-74c-0.5,0-1.1,0.1-1.7,0.2C176.2-81,169.7-86,162-86c-7.7,0-14.2,5-16.3,12.2c-0.6-0.1-1.2-0.2-1.7-0.2
		c-6.1,0-11,4.9-11,11s4.9,11,11,11h36c6.1,0,11-4.9,11-11S186.1-74,180-74z"/>
	<path class="st2" d="M165.1-50.4c-0.7-0.8-2.1-0.8-2.8,0c-0.6,0.7-5.9,7-5.9,12.1c0,1.9,0.6,3.6,1.8,5c0.9,1.1,2.6,2.3,5.5,2.3
		c4.8,0,7.3-3.7,7.3-7.3C171-43.3,165.7-49.7,165.1-50.4z M163.7-33.7L163.7-33.7l0,0.9L163.7-33.7z"/>
	<path class="st4" d="M-276,154c-0.5,0-1.1,0.1-1.7,0.2c-2.1-7.2-8.6-12.2-16.3-12.2c-7.7,0-14.2,5-16.3,12.2
		c-0.6-0.1-1.2-0.2-1.7-0.2c-6.1,0-11,4.9-11,11s4.9,11,11,11h36c6.1,0,11-4.9,11-11S-269.9,154-276,154z"/>
	<path class="st4" d="M180.8,153.4c-0.5,0-1.1,0.1-1.7,0.2c-2.1-7.4-8.8-12.5-16.6-12.5c-7.8,0-14.5,5.2-16.6,12.5
		c-0.6-0.1-1.2-0.2-1.7-0.2c-6.2,0-11.2,5.1-11.2,11.3c0,6.2,5,11.3,11.2,11.3h36.6c6.2,0,11.2-5.1,11.2-11.3
		C192,158.4,187,153.4,180.8,153.4z"/>
	<path class="st4" d="M67,153c-0.5,0-1.1,0.1-1.7,0.2C63.2,146,56.7,141,49,141c-7.7,0-14.2,5-16.3,12.2c-0.6-0.1-1.2-0.2-1.7-0.2
		c-6.1,0-11,4.9-11,11s4.9,11,11,11h36c6.1,0,11-4.9,11-11S73.1,153,67,153z"/>
	<g>
		<path class="st5" d="M-309-190h12c1.1,0,2-0.9,2-2c0-1.1-0.9-2-2-2h-12c-1.1,0-2,0.9-2,2C-311-190.9-310.1-190-309-190z"/>
		<path class="st5" d="M-321-184h24c1.1,0,2-0.9,2-2c0-1.1-0.9-2-2-2h-24c-1.1,0-2,0.9-2,2C-323-184.9-322.1-184-321-184z"/>
		<path class="st5" d="M-327-178h24c1.1,0,2-0.9,2-2c0-1.1-0.9-2-2-2h-24c-1.1,0-2,0.9-2,2C-329-178.9-328.1-178-327-178z"/>
		<path class="st5" d="M-268-174c0-1.1-0.9-2-2-2h-60c-1.1,0-2,0.9-2,2c0,1.1,0.9,2,2,2h60C-268.9-172-268-172.9-268-174z"/>
		<path class="st5" d="M-270-170h-57c-1.1,0-2,0.9-2,2c0,1.1,0.9,2,2,2h57c1.1,0,2-0.9,2-2C-268-169.1-268.9-170-270-170z"/>
		<path class="st5" d="M-309-164l-12,0c-1.1,0-2,0.9-2,2c0,1.1,0.9,2,2,2l12,0c1.1,0,2-0.9,2-2C-307-163.1-307.9-164-309-164z"/>
		<path class="st5" d="M-290-184h8c1.1,0,2-0.9,2-2c0-1.1-0.9-2-2-2h-8c-1.1,0-2,0.9-2,2C-292-184.9-291.1-184-290-184z"/>
		<path class="st5" d="M-299-180c0,1.1,0.9,2,2,2h21c1.1,0,2-0.9,2-2c0-1.1-0.9-2-2-2h-21C-298.1-182-299-181.1-299-180z"/>
		<path class="st5" d="M-276-164l-27,0c-1.1,0-2,0.9-2,2c0,1.1,0.9,2,2,2l27,0c1.1,0,2-0.9,2-2C-274-163.1-274.9-164-276-164z"/>
	</g>
	<g>
		<path class="st1" d="M-194-1086c0,2.4,0.7,4.9,1.9,7c0.4,0.6,1,1,1.7,1h20.8c0.7,0,1.4-0.4,1.7-1c1.2-2.1,1.9-4.6,1.9-7
			c0-7.7-6.3-14-14-14S-194-1093.7-194-1086z M-189.2-1082C-189.2-1082-189.2-1082-189.2-1082C-189.2-1082-189.1-1082-189.2-1082
			L-189.2-1082z M-181.2-1095.9c0.4-0.1,0.8-0.1,1.2-0.1c0.1,0,0.1,0,0.2,0C-180.3-1096-180.8-1096-181.2-1095.9z"/>
		<polygon class="st1" points="-179.9,-1112.4 -184.8,-1103.9 -175,-1103.9 		"/>
		<polygon class="st1" points="-197.9,-1090.8 -206.4,-1085.8 -197.9,-1080.9 		"/>
		<polygon class="st1" points="-161.9,-1080.9 -153.4,-1085.8 -161.9,-1090.8 		"/>
		<polygon class="st1" points="-163.2,-1102.6 -168.7,-1100.9 -164.9,-1097.1 		"/>
		<polygon class="st1" points="-195,-1097.1 -191.2,-1100.9 -196.7,-1102.6 		"/>
	</g>
	<g>
		<path class="st1" d="M-53.7-1086.6c-2.4-4.4-7-7.4-12.3-7.4c-7.7,0-14,6.3-14,14c0,1.1,0.9,2,2,2h24c1.1,0,2-0.9,2-2
			c0-2-0.4-3.9-1.2-5.6C-53.3-1086-53.5-1086.3-53.7-1086.6z"/>
		<path class="st1" d="M-75.3-1075.9L-75.3-1075.9C-75.3-1075.9-75.3-1075.9-75.3-1075.9C-75.3-1075.9-75.3-1075.9-75.3-1075.9z"/>
		<polygon class="st1" points="-66.1,-1106.2 -71,-1097.7 -61.2,-1097.7 		"/>
		<polygon class="st1" points="-54.9,-1094.8 -51,-1090.9 -49.3,-1096.5 		"/>
		<polygon class="st1" points="-82.9,-1096.5 -81.2,-1090.9 -77.3,-1094.8 		"/>
	</g>
	<g>
		<path class="st1" d="M48-1088c-5,0-9.6,2.7-12.1,7c-0.4,0.6-0.4,1.4,0,2c0.4,0.6,1,1,1.7,1h20.8c0.7,0,1.4-0.4,1.7-1
			c0.4-0.6,0.4-1.4,0-2C57.6-1085.3,53-1088,48-1088z M47.8-1084c0.1,0,0.1,0,0.2,0c0,0,0.1,0,0.1,0C48-1084,47.9-1084,47.8-1084z"
			/>
		<path class="st1" d="M38.8-1069.8L38.8-1069.8C38.8-1069.8,38.8-1069.8,38.8-1069.8C38.8-1069.8,38.8-1069.8,38.8-1069.8z"/>
		<polygon class="st1" points="48,-1100.2 43.1,-1091.7 52.9,-1091.7 		"/>
		<polygon class="st1" points="59.2,-1088.7 63,-1084.9 64.7,-1090.4 		"/>
		<polygon class="st1" points="31.2,-1090.4 32.9,-1084.9 36.7,-1088.7 		"/>
	</g>
	<g>
		<path class="st1" d="M33.9-407.6c0,2.4,0.7,4.9,1.9,7c0.4,0.6,1,1,1.7,1h20.8c0.7,0,1.4-0.4,1.7-1c1.2-2.1,1.9-4.6,1.9-7
			c0-7.7-6.3-14-14-14S33.9-415.4,33.9-407.6z M38.8-403.6C38.7-403.7,38.7-403.7,38.8-403.6C38.8-403.7,38.8-403.7,38.8-403.6
			L38.8-403.6z M46.7-417.6c0.4-0.1,0.8-0.1,1.2-0.1c0.1,0,0.1,0,0.2,0C47.6-417.6,47.1-417.6,46.7-417.6z"/>
		<polygon class="st1" points="48,-434 43.1,-425.5 52.9,-425.5 		"/>
		<polygon class="st1" points="30,-412.4 21.5,-407.5 30,-402.6 		"/>
		<polygon class="st1" points="66,-402.6 74.5,-407.5 66,-412.4 		"/>
		<polygon class="st1" points="64.7,-424.3 59.2,-422.6 63,-418.7 		"/>
		<polygon class="st1" points="32.9,-418.7 36.7,-422.6 31.2,-424.3 		"/>
	</g>
	<g>
		<path class="st1" d="M148.1-408c0,2.4,0.7,4.9,1.9,7c0.4,0.6,1,1,1.7,1h20.8c0.7,0,1.4-0.4,1.7-1c1.2-2.1,1.9-4.6,1.9-7
			c0-7.7-6.3-14-14-14S148.1-415.7,148.1-408z M152.9-404C152.9-404,152.9-404,152.9-404C152.9-404,153-404,152.9-404L152.9-404z
			 M160.8-417.9c0.4-0.1,0.8-0.1,1.2-0.1c0.1,0,0.1,0,0.2,0C161.8-418,161.3-418,160.8-417.9z"/>
		<polygon class="st1" points="162.1,-434.4 157.2,-425.9 167,-425.9 		"/>
		<polygon class="st1" points="144.1,-412.8 135.7,-407.8 144.1,-402.9 		"/>
		<polygon class="st1" points="180.2,-402.9 188.7,-407.8 180.2,-412.8 		"/>
		<polygon class="st1" points="178.9,-424.6 173.3,-422.9 177.2,-419.1 		"/>
		<polygon class="st1" points="147.1,-419.1 150.9,-422.9 145.3,-424.6 		"/>
	</g>
	<g>
		<path class="st4" d="M-48,154c-0.5,0-1.1,0.1-1.7,0.2C-51.8,147-58.3,142-66,142c-7.7,0-14.2,5-16.3,12.2
			c-0.6-0.1-1.2-0.2-1.7-0.2c-6.1,0-11,4.9-11,11s4.9,11,11,11h36c6.1,0,11-4.9,11-11S-41.9,154-48,154z"/>
		<g>
			<path class="st5" d="M-52.2,181l-30,0c-1.1,0-2,0.9-2,2c0,1.1,0.9,2,2,2l30,0c3.9,0,7,3.1,7,7s-3.1,7-7,7c-1.1,0-2,0.9-2,2
				c0,1.1,0.9,2,2,2c6.1,0,11-4.9,11-11S-46.1,181-52.2,181z"/>
			<path class="st5" d="M-58.2,187h-24c-1.1,0-2,0.9-2,2c0,1.1,0.9,2,2,2h24c0.6,0,1,0.4,1,1s-0.4,1-1,1c-1.1,0-2,0.9-2,2
				c0,1.1,0.9,2,2,2c2.8,0,5-2.2,5-5S-55.4,187-58.2,187z"/>
			<path class="st5" d="M-37.2,173c-1.1,0-2,0.9-2,2c0,1.1,0.9,2,2,2c0.6,0,1,0.4,1,1s-0.4,1-1,1h-4c-1.1,0-2,0.9-2,2
				c0,1.1,0.9,2,2,2h4c2.8,0,5-2.2,5-5S-34.4,173-37.2,173z"/>
			<path class="st5" d="M-82.2,179l33,0c4.4,0,8-3.6,8-8s-3.6-8-8-8c-4.4,0-8,3.6-8,8c0,1.1,0.9,2,2,2c1.1,0,2-0.9,2-2
				c0-2.2,1.8-4,4-4c2.2,0,4,1.8,4,4s-1.8,4-4,4l-33,0c-1.1,0-2,0.9-2,2C-84.2,178.1-83.3,179-82.2,179z"/>
		</g>
	</g>
	<g>
		<path class="st5" d="M62.5,180l-30,0c-1.1,0-2,0.9-2,2c0,1.1,0.9,2,2,2l30,0c3.9,0,7,3.1,7,7s-3.1,7-7,7c-1.1,0-2,0.9-2,2
			c0,1.1,0.9,2,2,2c6.1,0,11-4.9,11-11S68.6,180,62.5,180z"/>
		<path class="st5" d="M56.5,186h-24c-1.1,0-2,0.9-2,2c0,1.1,0.9,2,2,2h24c0.6,0,1,0.4,1,1s-0.4,1-1,1c-1.1,0-2,0.9-2,2
			c0,1.1,0.9,2,2,2c2.8,0,5-2.2,5-5S59.3,186,56.5,186z"/>
		<path class="st5" d="M77.5,172c-1.1,0-2,0.9-2,2c0,1.1,0.9,2,2,2c0.6,0,1,0.4,1,1s-0.4,1-1,1h-4c-1.1,0-2,0.9-2,2c0,1.1,0.9,2,2,2
			h4c2.8,0,5-2.2,5-5S80.3,172,77.5,172z"/>
		<path class="st5" d="M32.5,178l33,0c4.4,0,8-3.6,8-8s-3.6-8-8-8s-8,3.6-8,8c0,1.1,0.9,2,2,2c1.1,0,2-0.9,2-2c0-2.2,1.8-4,4-4
			s4,1.8,4,4s-1.8,4-4,4l-33,0c-1.1,0-2,0.9-2,2C30.5,177.1,31.4,178,32.5,178z"/>
	</g>
	<g>
		<path class="st5" d="M177.3,180l-30,0c-1.1,0-2,0.9-2,2c0,1.1,0.9,2,2,2l30,0c3.9,0,7,3.1,7,7s-3.1,7-7,7c-1.1,0-2,0.9-2,2
			c0,1.1,0.9,2,2,2c6.1,0,11-4.9,11-11S183.3,180,177.3,180z"/>
		<path class="st5" d="M171.3,186h-24c-1.1,0-2,0.9-2,2c0,1.1,0.9,2,2,2h24c0.6,0,1,0.4,1,1s-0.4,1-1,1c-1.1,0-2,0.9-2,2
			c0,1.1,0.9,2,2,2c2.8,0,5-2.2,5-5S174,186,171.3,186z"/>
		<path class="st5" d="M192.3,172c-1.1,0-2,0.9-2,2c0,1.1,0.9,2,2,2c0.6,0,1,0.4,1,1s-0.4,1-1,1h-4c-1.1,0-2,0.9-2,2
			c0,1.1,0.9,2,2,2h4c2.8,0,5-2.2,5-5S195,172,192.3,172z"/>
		<path class="st5" d="M147.3,178l33,0c4.4,0,8-3.6,8-8s-3.6-8-8-8s-8,3.6-8,8c0,1.1,0.9,2,2,2c1.1,0,2-0.9,2-2c0-2.2,1.8-4,4-4
			s4,1.8,4,4s-1.8,4-4,4l-33,0c-1.1,0-2,0.9-2,2C145.3,177.1,146.2,178,147.3,178z"/>
	</g>
</g>
</svg>
