<?xml version="1.0" encoding="utf-8"?>
<!-- Generator: Adobe Illustrator 19.2.0, SVG Export Plug-In . SVG Version: 6.00 Build 0)  -->
<svg version="1.1" xmlns="http://www.w3.org/2000/svg" xmlns:xlink="http://www.w3.org/1999/xlink" x="0px" y="0px"
	 viewBox="0 0 96 96" style="enable-background:new 0 0 96 96;" xml:space="preserve">
<style type="text/css">
	.st0{display:none;}
	.st1{fill:#FFCC00;}
	.st2{fill:#5AC8FA;}
	.st3{fill:#5856D6;}
	.st4{fill:#007AFF;}
	.st5{fill:#FF9500;}
	.st6{fill:#FF3B30;}
</style>
<g id="Base" class="st0">
</g>
<g id="Dibujo">
	<g>
		<polyline class="st1" points="-74.3,-168.9 -81.3,-155.8 -76.1,-155.8 -81.9,-144.4 -69.7,-158.6 -75.9,-158.5 -67,-168.9 		"/>
		<polyline class="st1" points="-61.5,-173.8 -68.5,-160.7 -63.3,-160.7 -69.1,-149.3 -56.9,-163.5 -63.1,-163.4 -54.2,-173.8 		"/>
	</g>
	<g>
		<path class="st2" d="M-410.5,510v18c0,1.1,0.9,2,2,2c1.1,0,2-0.9,2-2v-18c0-1.1-0.9-2-2-2C-409.6,508-410.5,508.9-410.5,510z"/>
		<path class="st2" d="M-433.5,529h-2c-1.1,0-2,0.9-2,2v2c0,1.1,0.9,2,2,2h2c1.1,0,2-0.9,2-2v-2C-431.5,529.9-432.4,529-433.5,529z"
			/>
		<path class="st2" d="M-407.5,534h-2c-1.1,0-2,0.9-2,2v2c0,1.1,0.9,2,2,2h2c1.1,0,2-0.9,2-2v-2C-405.5,534.9-406.4,534-407.5,534z"
			/>
		<path class="st2" d="M-380.5,526h-2c-1.1,0-2,0.9-2,2v2c0,1.1,0.9,2,2,2h2c1.1,0,2-0.9,2-2v-2C-378.5,526.9-379.4,526-380.5,526z"
			/>
		<path class="st2" d="M-417.5,514c-1.1,0-2,0.9-2,2v15.1c-1.2-0.7-2.5-1.1-4-1.1h-2c-1.1,0-2,0.9-2,2s0.9,2,2,2h2c2.2,0,4,1.8,4,4
			c0,1.1,0.9,2,2,2s2-0.9,2-2v-22C-415.5,514.9-416.4,514-417.5,514z"/>
		<path class="st2" d="M-390.5,527c-2.7,0-5.1,0.9-7,2.5V516c0-1.1-0.9-2-2-2c-1.1,0-2,0.9-2,2v22c0,0,0,0,0,0c0,1.1,0.9,2,2,2
			c1.1,0,2-0.9,2-2v0c0-3.9,3.1-7,7-7c1.1,0,2-0.9,2-2S-389.4,527-390.5,527z"/>
	</g>
	<g>
		<path class="st1" d="M-53.8,478c-7.7,0-14,6.3-14,14s6.3,14,14,14c7.7,0,14-6.3,14-14S-46.1,478-53.8,478z"/>
		<polygon class="st1" points="-53.8,465.5 -48.9,474 -58.7,474 		"/>
		<polygon class="st1" points="-27.2,492 -35.7,496.9 -35.7,487.1 		"/>
		<polygon class="st1" points="-37,475.2 -38.7,480.8 -42.6,476.9 		"/>
		<polygon class="st1" points="-70.6,475.2 -65,476.9 -68.9,480.8 		"/>
	</g>
	<g>
		<path class="st1" d="M59.9,364c-7.7,0-14,6.3-14,14s6.3,14,14,14s14-6.3,14-14S67.6,364,59.9,364z"/>
		<polygon class="st1" points="59.9,351.5 64.8,360 55,360 		"/>
		<polygon class="st1" points="86.4,378 78,382.9 78,373.1 		"/>
		<polygon class="st1" points="76.6,361.2 74.9,366.8 71.1,362.9 		"/>
		<polygon class="st1" points="43.1,361.2 48.6,362.9 44.8,366.8 		"/>
	</g>
	<g>
		<path class="st2" d="M-292,407.9v-12c0-1.1-0.9-2-2-2s-2,0.9-2,2v12c0,1.1,0.9,2,2,2S-292,409-292,407.9z"/>
		<path class="st2" d="M-301,413.9v-12c0-1.1-0.9-2-2-2s-2,0.9-2,2v12c0,1.1,0.9,2,2,2S-301,415-301,413.9z"/>
		<path class="st2" d="M-283,413.9v-12c0-1.1-0.9-2-2-2s-2,0.9-2,2v12c0,1.1,0.9,2,2,2S-283,415-283,413.9z"/>
		<path class="st2" d="M-302,419.9h-2c-1.1,0-2,0.9-2,2v2c0,1.1,0.9,2,2,2h2c1.1,0,2-0.9,2-2v-2C-300,420.8-300.9,419.9-302,419.9z"
			/>
		<path class="st2" d="M-293,413.9h-2c-1.1,0-2,0.9-2,2v2c0,1.1,0.9,2,2,2h2c1.1,0,2-0.9,2-2v-2C-291,414.8-291.9,413.9-293,413.9z"
			/>
		<path class="st2" d="M-284,419.9h-2c-1.1,0-2,0.9-2,2v2c0,1.1,0.9,2,2,2h2c1.1,0,2-0.9,2-2v-2C-282,420.8-282.9,419.9-284,419.9z"
			/>
	</g>
	<g>
		<path class="st1" d="M-281.9,364c-7.7,0-14,6.3-14,14s6.3,14,14,14c7.7,0,14-6.3,14-14S-274.2,364-281.9,364z"/>
		<polygon class="st1" points="-281.9,351.5 -277,360 -286.8,360 		"/>
		<polygon class="st1" points="-255.3,378 -263.8,382.9 -263.8,373.1 		"/>
		<polygon class="st1" points="-265.1,361.2 -266.8,366.8 -270.7,362.9 		"/>
		<polygon class="st1" points="-298.7,361.2 -293.1,362.9 -297,366.8 		"/>
	</g>
	<g>
		<path class="st1" d="M-396.2,250.1c-7.7,0-14,6.3-14,14c0,7.7,6.3,14,14,14s14-6.3,14-14C-382.2,256.3-388.5,250.1-396.2,250.1z"
			/>
		<polygon class="st1" points="-396.2,237.6 -391.3,246 -401.1,246 		"/>
		<polygon class="st1" points="-369.6,264.1 -378.1,269 -378.1,259.2 		"/>
		<polygon class="st1" points="-379.4,247.3 -381.2,252.8 -385,249 		"/>
		<polygon class="st1" points="-413,247.3 -407.4,249 -411.3,252.8 		"/>
	</g>
	<g>
		<path class="st1" d="M-54,250c-7.7,0-14,6.3-14,14s6.3,14,14,14c7.7,0,14-6.3,14-14S-46.3,250-54,250z"/>
		<polygon class="st1" points="-54,237.5 -49.1,246 -58.9,246 		"/>
		<polygon class="st1" points="-27.4,264 -35.9,268.9 -35.9,259.1 		"/>
		<polygon class="st1" points="-37.2,247.2 -39,252.8 -42.8,248.9 		"/>
		<polygon class="st1" points="-70.8,247.2 -65.2,248.9 -69.1,252.8 		"/>
	</g>
	<g>
		<path class="st1" d="M-167.8,136c-7.7,0-14,6.3-14,14s6.3,14,14,14s14-6.3,14-14S-160,136-167.8,136z"/>
		<polygon class="st1" points="-167.7,123.5 -162.8,132 -172.6,132 		"/>
		<polygon class="st1" points="-141.2,150 -149.7,154.9 -149.7,145.1 		"/>
		<polygon class="st1" points="-151,133.2 -152.7,138.8 -156.5,134.9 		"/>
		<polygon class="st1" points="-184.5,133.2 -179,134.9 -182.8,138.8 		"/>
	</g>
	<g>
		<path class="st1" d="M-282,22c-7.7,0-14,6.3-14,14s6.3,14,14,14s14-6.3,14-14S-274.3,22-282,22z"/>
		<polygon class="st1" points="-282,9.5 -277,18 -286.9,18 		"/>
		<polygon class="st1" points="-255.4,36 -263.9,40.9 -263.9,31.1 		"/>
		<polygon class="st1" points="-265.2,19.2 -266.9,24.8 -270.8,20.9 		"/>
		<polygon class="st1" points="-298.8,19.2 -293.2,20.9 -297,24.8 		"/>
	</g>
	<g>
		<path class="st1" d="M-281.9-92c-7.7,0-14,6.3-14,14s6.3,14,14,14s14-6.3,14-14S-274.2-92-281.9-92z"/>
		<polygon class="st1" points="-281.9,-104.5 -277,-96 -286.8,-96 		"/>
		<polygon class="st1" points="-255.3,-78 -263.8,-73.1 -263.8,-82.9 		"/>
		<polygon class="st1" points="-265.1,-94.8 -266.8,-89.2 -270.7,-93.1 		"/>
		<polygon class="st1" points="-298.7,-94.8 -293.1,-93.1 -297,-89.2 		"/>
	</g>
	<g>
		<path class="st1" d="M-395.8-206c-7.7,0-14,6.3-14,14s6.3,14,14,14s14-6.3,14-14S-388.1-206-395.8-206z"/>
		<polygon class="st1" points="-395.8,-218.5 -390.9,-210 -400.7,-210 		"/>
		<polygon class="st1" points="-369.2,-192 -377.7,-187.1 -377.7,-196.9 		"/>
		<polygon class="st1" points="-379,-208.8 -380.8,-203.2 -384.6,-207.1 		"/>
		<polygon class="st1" points="-412.6,-208.8 -407,-207.1 -410.9,-203.2 		"/>
	</g>
	<g>
		<path class="st1" d="M-54.1-206c-7.7,0-14,6.3-14,14s6.3,14,14,14s14-6.3,14-14S-46.4-206-54.1-206z"/>
		<polygon class="st1" points="-54.1,-218.5 -49.1,-210 -59,-210 		"/>
		<polygon class="st1" points="-27.5,-192 -36,-187.1 -36,-196.9 		"/>
		<polygon class="st1" points="-37.3,-208.8 -39,-203.2 -42.9,-207.1 		"/>
		<polygon class="st1" points="-70.9,-208.8 -65.3,-207.1 -69.1,-203.2 		"/>
	</g>
	<g>
		<path class="st1" d="M-168-320c-7.7,0-14,6.3-14,14s6.3,14,14,14s14-6.3,14-14S-160.3-320-168-320z"/>
		<polygon class="st1" points="-167.9,-332.5 -163,-324 -172.8,-324 		"/>
		<polygon class="st1" points="-141.4,-306 -149.9,-301.1 -149.9,-310.9 		"/>
		<polygon class="st1" points="-151.2,-322.8 -152.9,-317.2 -156.7,-321.1 		"/>
		<polygon class="st1" points="-184.7,-322.8 -179.2,-321.1 -183,-317.2 		"/>
	</g>
	<g>
		<path class="st1" d="M59.9-434c-7.7,0-14,6.3-14,14s6.3,14,14,14s14-6.3,14-14S67.7-434,59.9-434z"/>
		<polygon class="st1" points="60,-446.5 64.9,-438 55.1,-438 		"/>
		<polygon class="st1" points="86.5,-420 78,-415.1 78,-424.9 		"/>
		<polygon class="st1" points="76.7,-436.7 75,-431.2 71.2,-435 		"/>
		<polygon class="st1" points="43.2,-436.7 48.7,-435 44.9,-431.2 		"/>
	</g>
	<g>
		<path class="st1" d="M-282.2-434c-7.7,0-14,6.3-14,14s6.3,14,14,14s14-6.3,14-14S-274.4-434-282.2-434z"/>
		<polygon class="st1" points="-282.1,-446.5 -277.2,-438 -287,-438 		"/>
		<polygon class="st1" points="-255.6,-420 -264.1,-415.1 -264.1,-424.9 		"/>
		<polygon class="st1" points="-265.4,-436.7 -267.1,-431.2 -270.9,-435 		"/>
		<polygon class="st1" points="-298.9,-436.7 -293.4,-435 -297.2,-431.2 		"/>
	</g>
	<path class="st3" d="M-393.5,475.4c0-1.2,0.2-2.3,0.6-3.4c-1-0.2-2-0.3-3-0.3c-7.7,0-14,6.3-14,14c0,7.7,6.3,14,14,14
		c7.7,0,13.9-6.2,14-13.8c-0.3,0-0.7,0.1-1,0.1C-388.8,485.9-393.5,481.2-393.5,475.4z"/>
	<path class="st3" d="M62.5,475.7c0-1.2,0.2-2.3,0.6-3.4c-1-0.2-2-0.3-3-0.3c-7.7,0-14,6.3-14,14s6.3,14,14,14
		c7.7,0,13.9-6.2,14-13.8c-0.3,0-0.7,0.1-1,0.1C67.2,486.3,62.5,481.5,62.5,475.7z"/>
	<path class="st3" d="M-165.5,361.4c0-1.2,0.2-2.3,0.6-3.4c-1-0.2-2-0.3-3-0.3c-7.7,0-14,6.3-14,14c0,7.7,6.3,14,14,14
		c7.7,0,13.9-6.2,14-13.8c-0.3,0-0.7,0.1-1,0.1C-160.8,371.9-165.5,367.2-165.5,361.4z"/>
	<path class="st3" d="M62.6,247.7c0-1.2,0.2-2.3,0.6-3.4c-1-0.2-2-0.3-3-0.3c-7.7,0-14,6.3-14,14s6.3,14,14,14
		c7.7,0,13.9-6.2,14-13.8c-0.3,0-0.7,0.1-1,0.1C67.3,258.3,62.6,253.5,62.6,247.7z"/>
	<path class="st3" d="M-279.5,247.7c0-1.2,0.2-2.3,0.6-3.4c-1-0.2-2-0.3-3-0.3c-7.7,0-14,6.3-14,14s6.3,14,14,14
		c7.7,0,13.9-6.2,14-13.8c-0.3,0-0.7,0.1-1,0.1C-274.8,258.3-279.5,253.5-279.5,247.7z"/>
	<path class="st3" d="M-396.5,139.7c0-1.2,0.2-2.3,0.6-3.4c-1-0.2-2-0.3-3-0.3c-7.7,0-14,6.3-14,14s6.3,14,14,14
		c7.7,0,13.9-6.2,14-13.8c-0.3,0-0.7,0.1-1,0.1C-391.8,150.3-396.5,145.5-396.5,139.7z"/>
	<path class="st3" d="M-165.5,19.7c0-1.2,0.2-2.3,0.6-3.4c-1-0.2-2-0.3-3-0.3c-7.7,0-14,6.3-14,14s6.3,14,14,14
		c7.7,0,13.9-6.2,14-13.8c-0.3,0-0.7,0.1-1,0.1C-160.8,30.3-165.5,25.5-165.5,19.7z"/>
	<path class="st3" d="M-51.5,133.7c0-1.2,0.2-2.3,0.6-3.4c-1-0.2-2-0.3-3-0.3c-7.7,0-14,6.3-14,14s6.3,14,14,14
		c7.7,0,13.9-6.2,14-13.8c-0.3,0-0.7,0.1-1,0.1C-46.8,144.3-51.5,139.5-51.5,133.7z"/>
	<path class="st3" d="M-165.5-94.3c0-1.2,0.2-2.3,0.6-3.4c-1-0.2-2-0.3-3-0.3c-7.7,0-14,6.3-14,14s6.3,14,14,14
		c7.7,0,13.9-6.2,14-13.8c-0.3,0-0.7,0.1-1,0.1C-160.8-83.7-165.5-88.5-165.5-94.3z"/>
	<path class="st3" d="M-279.5-208.3c0-1.2,0.2-2.3,0.6-3.4c-1-0.2-2-0.3-3-0.3c-7.7,0-14,6.3-14,14s6.3,14,14,14
		c7.7,0,13.9-6.2,14-13.8c-0.3,0-0.7,0.1-1,0.1C-274.8-197.7-279.5-202.5-279.5-208.3z"/>
	<path class="st3" d="M62.6-208.3c0-1.2,0.2-2.3,0.6-3.4c-1-0.2-2-0.3-3-0.3c-7.7,0-14,6.3-14,14s6.3,14,14,14
		c7.7,0,13.9-6.2,14-13.8c-0.3,0-0.7,0.1-1,0.1C67.3-197.7,62.6-202.5,62.6-208.3z"/>
	<path class="st3" d="M-393.5-322.3c0-1.2,0.2-2.3,0.6-3.4c-1-0.2-2-0.3-3-0.3c-7.7,0-14,6.3-14,14s6.3,14,14,14
		c7.7,0,13.9-6.2,14-13.8c-0.3,0-0.7,0.1-1,0.1C-388.8-311.7-393.5-316.5-393.5-322.3z"/>
	<path class="st3" d="M-165.6-436.3c0-1.2,0.2-2.3,0.6-3.4c-1-0.2-2-0.3-3-0.3c-7.7,0-14,6.3-14,14s6.3,14,14,14
		c7.7,0,13.9-6.2,14-13.8c-0.3,0-0.7,0.1-1,0.1C-160.9-425.7-165.6-430.5-165.6-436.3z"/>
	<path class="st3" d="M-51.5-322.3c0-1.2,0.2-2.3,0.6-3.4c-1-0.2-2-0.3-3-0.3c-7.7,0-14,6.3-14,14s6.3,14,14,14
		c7.7,0,13.9-6.2,14-13.8c-0.3,0-0.7,0.1-1,0.1C-46.8-311.7-51.5-316.5-51.5-322.3z"/>
	<path class="st3" d="M50.4-760.2c0-1.2,0.2-2.3,0.6-3.4c-1-0.2-2-0.3-3-0.3c-7.7,0-14,6.3-14,14c0,7.7,6.3,14,14,14
		c7.7,0,13.9-6.2,14-13.8c-0.3,0-0.7,0.1-1,0.1C55.1-749.7,50.4-754.4,50.4-760.2z"/>
	<g>
		<path class="st2" d="M-180-278c-1.1,0-2,0.9-2,2v18c0,1.1,0.9,2,2,2c1.1,0,2-0.9,2-2v-18C-178-277.1-178.9-278-180-278z"/>
		<path class="st2" d="M-152.3-296.2c-0.3-0.6-0.7-1.2-1.2-1.8c-1.3-1.6-3.2-2.9-5.2-3.5c-1-0.3-2.1-0.5-3.3-0.5
			c-0.5,0-1.1,0.1-1.7,0.2c-2.1-7.2-8.6-12.2-16.3-12.2c-7.7,0-14.2,5-16.3,12.2c-0.6-0.1-1.2-0.2-1.7-0.2c-1.1,0-2.2,0.2-3.3,0.5
			c-2.1,0.6-3.9,1.9-5.2,3.5c-0.4,0.5-0.8,1.1-1.2,1.8c-0.8,1.6-1.3,3.3-1.3,5.2s0.5,3.7,1.3,5.2c0.3,0.6,0.7,1.2,1.2,1.8
			c1.3,1.6,3.2,2.9,5.2,3.5c1,0.3,2.1,0.5,3.3,0.5h7v16c0,1.1,0.9,2,2,2c1.1,0,2-0.9,2-2v-16h14v16c0,1.1,0.9,2,2,2c1.1,0,2-0.9,2-2
			v-16h7c1.1,0,2.2-0.2,3.3-0.5c2.1-0.6,3.9-1.9,5.2-3.5c0.4-0.5,0.8-1.1,1.2-1.8c0.8-1.6,1.3-3.3,1.3-5.2S-151.5-294.7-152.3-296.2
			z"/>
	</g>
	<path class="st4" d="M-390-416c-0.5,0-1.1,0.1-1.7,0.2c-2.1-7.2-8.6-12.2-16.3-12.2c-7.7,0-14.2,5-16.3,12.2
		c-0.6-0.1-1.2-0.2-1.7-0.2c-6.1,0-11,4.9-11,11s4.9,11,11,11h36c6.1,0,11-4.9,11-11S-383.9-416-390-416z"/>
	<path class="st3" d="M-408-650c-7.7,0-14,6.3-14,14s6.3,14,14,14s14-6.3,14-14S-400.3-650-408-650z"/>
	<path class="st3" d="M-294-650c-7.7,0-14,6.3-14,14s6.3,14,14,14s14-6.3,14-14S-286.3-650-294-650z M-293.3-626
		c3.2-2.1,5.3-5.8,5.3-10s-2.1-7.8-5.3-10c5.2,0.3,9.3,4.7,9.3,10S-288.1-626.4-293.3-626z"/>
	<path class="st3" d="M-180-536c-7.7,0-14,6.3-14,14s6.3,14,14,14c7.7,0,14-6.3,14-14S-172.3-536-180-536z M-190-522
		c0-5.3,4.1-9.6,9.3-10c-3.2,2.1-5.3,5.8-5.3,10s2.1,7.8,5.3,10C-185.9-512.4-190-516.7-190-522z"/>
	<path class="st3" d="M-180-650c-7.7,0-14,6.3-14,14s6.3,14,14,14c7.7,0,14-6.3,14-14S-172.3-650-180-650z M-180-626v-20
		c5.5,0,10,4.5,10,10S-174.5-626-180-626z"/>
	<path class="st3" d="M-294-536c-7.7,0-14,6.3-14,14s6.3,14,14,14s14-6.3,14-14S-286.3-536-294-536z M-304-522c0-5.5,4.5-10,10-10
		v20C-299.5-512-304-516.5-304-522z"/>
	<path class="st3" d="M-66-650c-7.7,0-14,6.3-14,14s6.3,14,14,14c7.7,0,14-6.3,14-14S-58.3-650-66-650z M-66-626c-0.2,0-0.4,0-0.7,0
		c-3.2-2.1-5.3-5.8-5.3-10s2.1-7.8,5.3-10c0.2,0,0.4,0,0.7,0c5.5,0,10,4.5,10,10S-60.5-626-66-626z"/>
	<path class="st3" d="M-408-536c-7.7,0-14,6.3-14,14s6.3,14,14,14s14-6.3,14-14S-400.3-536-408-536z M-418-522c0-5.5,4.5-10,10-10
		c0.2,0,0.4,0,0.7,0c3.2,2.1,5.3,5.8,5.3,10s-2.1,7.8-5.3,10c-0.2,0-0.4,0-0.7,0C-413.5-512-418-516.5-418-522z"/>
	<path class="st3" d="M48-650c-7.7,0-14,6.3-14,14s6.3,14,14,14c7.7,0,14-6.3,14-14S55.7-650,48-650z M48-626c-5.5,0-10-4.5-10-10
		s4.5-10,10-10c5.5,0,10,4.5,10,10S53.5-626,48-626z"/>
	<path class="st4" d="M-64-547.9v-2.1c0-1.1-0.9-2-2-2c-1.1,0-2,0.9-2,2v2.1c-13.4,1-24,12.3-24,25.9c0,1.1,0.9,2,2,2
		c1.1,0,2-0.9,2-2c0-2.2,1.8-4,4-4c2.2,0,4,1.8,4,4c0,1.1,0.9,2,2,2c1.1,0,2-0.9,2-2c0-2.2,1.8-4,4-4c2.2,0,4,1.8,4,4v21
		c0,2.8,2.2,5,5,5c2.8,0,5-2.2,5-5c0-1.1-0.9-2-2-2c-1.1,0-2,0.9-2,2c0,0.6-0.4,1-1,1c-0.6,0-1-0.4-1-1v-21c0-2.2,1.8-4,4-4
		c2.2,0,4,1.8,4,4c0,1.1,0.9,2,2,2c1.1,0,2-0.9,2-2c0-2.2,1.8-4,4-4c2.2,0,4,1.8,4,4c0,1.1,0.9,2,2,2c1.1,0,2-0.9,2-2
		C-40-535.7-50.6-546.9-64-547.9z"/>
	<g>
		<path class="st5" d="M-75,38h12c1.1,0,2-0.9,2-2s-0.9-2-2-2h-12c-1.1,0-2,0.9-2,2S-76.1,38-75,38z"/>
		<path class="st5" d="M-87,44h24c1.1,0,2-0.9,2-2s-0.9-2-2-2h-24c-1.1,0-2,0.9-2,2S-88.1,44-87,44z"/>
		<path class="st5" d="M-93,50h24c1.1,0,2-0.9,2-2s-0.9-2-2-2h-24c-1.1,0-2,0.9-2,2S-94.1,50-93,50z"/>
		<path class="st5" d="M-34,54c0-1.1-0.9-2-2-2h-60c-1.1,0-2,0.9-2,2s0.9,2,2,2h60C-34.9,56-34,55.1-34,54z"/>
		<path class="st5" d="M-36,58h-57c-1.1,0-2,0.9-2,2s0.9,2,2,2h57c1.1,0,2-0.9,2-2S-34.9,58-36,58z"/>
		<path class="st5" d="M-75,64l-12,0c-1.1,0-2,0.9-2,2s0.9,2,2,2l12,0c1.1,0,2-0.9,2-2S-73.9,64-75,64z"/>
		<path class="st5" d="M-56,44h8c1.1,0,2-0.9,2-2s-0.9-2-2-2h-8c-1.1,0-2,0.9-2,2S-57.1,44-56,44z"/>
		<path class="st5" d="M-65,48c0,1.1,0.9,2,2,2h21c1.1,0,2-0.9,2-2s-0.9-2-2-2h-21C-64.1,46-65,46.9-65,48z"/>
		<path class="st5" d="M-42,64l-27,0c-1.1,0-2,0.9-2,2s0.9,2,2,2l27,0c1.1,0,2-0.9,2-2S-40.9,64-42,64z"/>
	</g>
	<g>
		<path class="st2" d="M-321,167c1.1,0,2-0.9,2-2c0-3.9,3.1-7,7-7c0.3,0,0.7,0.1,1.2,0.2v1.8c0,1.1,0.9,2,2,2c1.1,0,2-0.9,2-2v-3.2
			c1.1-6.3,6.4-10.8,12.8-10.8s11.7,4.5,12.8,10.8v3.2c0,1.1,0.9,2,2,2c1.1,0,2-0.9,2-2v-1.8c0.5-0.1,0.9-0.2,1.2-0.2
			c3.9,0,7,3.1,7,7c0,1.1,0.9,2,2,2s2-0.9,2-2c0-6.1-4.9-11-11-11c-0.5,0-1.1,0.1-1.7,0.2c-2.1-7.2-8.6-12.2-16.3-12.2
			s-14.2,5-16.3,12.2c-0.6-0.1-1.2-0.2-1.7-0.2c-6.1,0-11,4.9-11,11C-323,166.1-322.1,167-321,167z"/>
		<path class="st2" d="M-302,173c0,1.1,0.9,2,2,2h36c1.1,0,2-0.9,2-2s-0.9-2-2-2h-36C-301.1,171-302,171.9-302,173z"/>
		<path class="st2" d="M-294,178c-1.1,0-2,0.9-2,2s0.9,2,2,2h27c1.1,0,2-0.9,2-2s-0.9-2-2-2H-294z"/>
		<path class="st2" d="M-264,185h-24c-1.1,0-2,0.9-2,2s0.9,2,2,2h24c1.1,0,2-0.9,2-2S-262.9,185-264,185z"/>
		<path class="st2" d="M-324,175h18c1.1,0,2-0.9,2-2s-0.9-2-2-2h-18c-1.1,0-2,0.9-2,2S-325.1,175-324,175z"/>
		<path class="st2" d="M-321,178c-1.1,0-2,0.9-2,2s0.9,2,2,2h21c1.1,0,2-0.9,2-2s-0.9-2-2-2H-321z"/>
		<path class="st2" d="M-294,185h-30c-1.1,0-2,0.9-2,2s0.9,2,2,2h30c1.1,0,2-0.9,2-2S-292.9,185-294,185z"/>
	</g>
	<g>
		<path class="st2" d="M66,148c-0.5,0-1.1,0.1-1.7,0.2C62.2,141,55.7,136,48,136c-7.7,0-14.2,5-16.3,12.2c-0.6-0.1-1.2-0.2-1.7-0.2
			c-6.1,0-11,4.9-11,11s4.9,11,11,11c1.1,0,2-0.9,2-2s-0.9-2-2-2c-3.9,0-7-3.1-7-7s3.1-7,7-7c0.3,0,0.7,0.1,1.2,0.2v1.8
			c0,1.1,0.9,2,2,2s2-0.9,2-2v-3.2c1.1-6.3,6.4-10.8,12.8-10.8c6.4,0,11.7,4.5,12.8,10.8v3.2c0,1.1,0.9,2,2,2s2-0.9,2-2v-1.8
			c0.5-0.1,0.9-0.2,1.2-0.2c3.9,0,7,3.1,7,7s-3.1,7-7,7c-1.1,0-2,0.9-2,2s0.9,2,2,2c6.1,0,11-4.9,11-11S72.1,148,66,148z"/>
		<path class="st2" d="M39.6,166.8c-0.8-1-2.4-1-3.2,0c-0.8,1.1-3.4,4.7-3.4,7.2c0,2.9,2.1,5,5,5c2.9,0,5-2.1,5-5
			C43,171.5,40.4,167.9,39.6,166.8z"/>
		<path class="st2" d="M56.4,166.8c-0.8,1.1-3.4,4.7-3.4,7.2c0,2.9,2.1,5,5,5c2.9,0,5-2.1,5-5c0-2.5-2.6-6.1-3.4-7.2
			C58.8,165.8,57.2,165.8,56.4,166.8z"/>
		<path class="st2" d="M46.4,178.8c-0.8,1.1-3.4,4.7-3.4,7.2c0,2.9,2.1,5,5,5c2.9,0,5-2.1,5-5c0-2.5-2.6-6.1-3.4-7.2
			C48.8,177.8,47.2,177.8,46.4,178.8z"/>
	</g>
	<g>
		<path d="M-58.4,742.6l-5.6,5.6V735c0-1.1-0.9-2-2-2c-1.1,0-2,0.9-2,2v13.2l-5.6-5.6c-0.8-0.8-2-0.8-2.8,0c-0.8,0.8-0.8,2,0,2.8
			l9,9c0.1,0.1,0.2,0.2,0.3,0.3c0,0,0.1,0.1,0.1,0.1c0.1,0,0.1,0.1,0.2,0.1c0.1,0,0.1,0,0.2,0.1c0.1,0,0.1,0,0.2,0.1
			c0.1,0,0.3,0,0.4,0c0.1,0,0.3,0,0.4,0c0.1,0,0.1,0,0.2-0.1c0.1,0,0.1,0,0.2-0.1c0.1,0,0.1-0.1,0.2-0.1c0,0,0.1,0,0.1-0.1
			c0.1-0.1,0.2-0.2,0.3-0.3l9-9c0.8-0.8,0.8-2,0-2.8C-56.4,741.8-57.6,741.8-58.4,742.6z"/>
		<path d="M-48,724c-0.5,0-1.1,0.1-1.7,0.2C-51.8,717-58.3,712-66,712c-7.7,0-14.2,5-16.3,12.2c-0.6-0.1-1.2-0.2-1.7-0.2
			c-6.1,0-11,4.9-11,11s4.9,11,11,11l2,0c1.1,0,2-0.9,2-2c0-1.1-0.9-2-2-2h0l-2,0c-3.9,0-7-3.1-7-7s3.1-7,7-7c0.3,0,0.7,0.1,1.2,0.2
			v1.8c0,1.1,0.9,2,2,2s2-0.9,2-2v-3.2c1.1-6.3,6.4-10.8,12.8-10.8c6.4,0,11.7,4.5,12.8,10.8v3.2c0,1.1,0.9,2,2,2s2-0.9,2-2v-1.8
			c0.5-0.1,0.9-0.2,1.2-0.2c3.9,0,7,3.1,7,7s-3.1,7-7,7l-2,0h0c-1.1,0-2,0.9-2,2c0,1.1,0.9,2,2,2l2,0c6.1,0,11-4.9,11-11
			S-41.9,724-48,724z"/>
	</g>
	<g>
		<path d="M49.4,733.6c-0.1-0.1-0.2-0.2-0.3-0.3c0,0-0.1-0.1-0.1-0.1c-0.1,0-0.1-0.1-0.2-0.1c-0.1,0-0.1,0-0.2-0.1
			c-0.1,0-0.1,0-0.2-0.1c-0.3-0.1-0.5-0.1-0.8,0c-0.1,0-0.1,0-0.2,0.1c-0.1,0-0.1,0-0.2,0.1c-0.1,0-0.1,0.1-0.2,0.1
			c0,0-0.1,0-0.1,0.1c-0.1,0.1-0.2,0.2-0.3,0.3l-9,9c-0.8,0.8-0.8,2,0,2.8c0.8,0.8,2,0.8,2.8,0l5.6-5.6V753c0,1.1,0.9,2,2,2
			c1.1,0,2-0.9,2-2v-13.2l5.6,5.6c0.4,0.4,0.9,0.6,1.4,0.6c0.5,0,1-0.2,1.4-0.6c0.8-0.8,0.8-2,0-2.8L49.4,733.6z"/>
		<path d="M66,724c-0.5,0-1.1,0.1-1.7,0.2C62.2,717,55.7,712,48,712c-7.7,0-14.2,5-16.3,12.2c-0.6-0.1-1.2-0.2-1.7-0.2
			c-6.1,0-11,4.9-11,11s4.9,11,11,11l2,0c1.1,0,2-0.9,2-2c0-1.1-0.9-2-2-2h0l-2,0c-3.9,0-7-3.1-7-7s3.1-7,7-7c0.3,0,0.7,0.1,1.2,0.2
			v1.8c0,1.1,0.9,2,2,2s2-0.9,2-2v-3.2c1.1-6.3,6.4-10.8,12.8-10.8c6.4,0,11.7,4.5,12.8,10.8v3.2c0,1.1,0.9,2,2,2s2-0.9,2-2v-1.8
			c0.5-0.1,0.9-0.2,1.2-0.2c3.9,0,7,3.1,7,7s-3.1,7-7,7l-2,0h0c-1.1,0-2,0.9-2,2c0,1.1,0.9,2,2,2l2,0c6.1,0,11-4.9,11-11
			S72.1,724,66,724z"/>
	</g>
	<g>
		<path class="st2" d="M46,396v18c0,1.1,0.9,2,2,2c1.1,0,2-0.9,2-2v-18c0-1.1-0.9-2-2-2C46.9,394,46,394.9,46,396z"/>
		<path class="st2" d="M23,415h-2c-1.1,0-2,0.9-2,2v2c0,1.1,0.9,2,2,2h2c1.1,0,2-0.9,2-2v-2C25,415.9,24.1,415,23,415z"/>
		<path class="st2" d="M49,420h-2c-1.1,0-2,0.9-2,2v2c0,1.1,0.9,2,2,2h2c1.1,0,2-0.9,2-2v-2C51,420.9,50.1,420,49,420z"/>
		<path class="st2" d="M76,412h-2c-1.1,0-2,0.9-2,2v2c0,1.1,0.9,2,2,2h2c1.1,0,2-0.9,2-2v-2C78,412.9,77.1,412,76,412z"/>
		<path class="st2" d="M39,400c-1.1,0-2,0.9-2,2v15.1c-1.2-0.7-2.5-1.1-4-1.1h-2c-1.1,0-2,0.9-2,2c0,1.1,0.9,2,2,2h2
			c2.2,0,4,1.8,4,4c0,1.1,0.9,2,2,2c1.1,0,2-0.9,2-2v-22C41,400.9,40.1,400,39,400z"/>
		<path class="st2" d="M66,413c-2.7,0-5.1,0.9-7,2.5V402c0-1.1-0.9-2-2-2c-1.1,0-2,0.9-2,2v22c0,0,0,0,0,0c0,1.1,0.9,2,2,2
			c1.1,0,2-0.9,2-2v0c0-3.9,3.1-7,7-7c1.1,0,2-0.9,2-2C68,413.9,67.1,413,66,413z"/>
	</g>
	<g>
		<path class="st5" d="M-288,502l-30,0c-1.1,0-2,0.9-2,2s0.9,2,2,2l30,0c3.9,0,7,3.1,7,7c0,3.9-3.1,7-7,7c-1.1,0-2,0.9-2,2
			s0.9,2,2,2c6.1,0,11-4.9,11-11C-277,506.9-281.9,502-288,502z"/>
		<path class="st5" d="M-294,508h-24c-1.1,0-2,0.9-2,2s0.9,2,2,2h24c0.6,0,1,0.4,1,1s-0.4,1-1,1c-1.1,0-2,0.9-2,2s0.9,2,2,2
			c2.8,0,5-2.2,5-5C-289,510.2-291.2,508-294,508z"/>
		<path class="st5" d="M-273,494c-1.1,0-2,0.9-2,2s0.9,2,2,2c0.6,0,1,0.4,1,1s-0.4,1-1,1h-4c-1.1,0-2,0.9-2,2s0.9,2,2,2h4
			c2.8,0,5-2.2,5-5S-270.2,494-273,494z"/>
		<path class="st5" d="M-318,500l33,0c4.4,0,8-3.6,8-8s-3.6-8-8-8s-8,3.6-8,8c0,1.1,0.9,2,2,2s2-0.9,2-2c0-2.2,1.8-4,4-4
			c2.2,0,4,1.8,4,4s-1.8,4-4,4l-33,0c-1.1,0-2,0.9-2,2S-319.1,500-318,500z"/>
	</g>
	<g>
		<path class="st5" d="M-432,596h42c1.1,0,2-0.9,2-2c0-1.1-0.9-2-2-2h-42c-1.1,0-2,0.9-2,2C-434,595.1-433.1,596-432,596z"/>
		<path class="st5" d="M-390,600h-39c-1.1,0-2,0.9-2,2s0.9,2,2,2h39c1.1,0,2-0.9,2-2S-388.9,600-390,600z"/>
		<path class="st5" d="M-394,610c0-1.1-0.9-2-2-2h-36c-1.1,0-2,0.9-2,2s0.9,2,2,2h36C-394.9,612-394,611.1-394,610z"/>
		<path class="st5" d="M-390,616h-33c-1.1,0-2,0.9-2,2s0.9,2,2,2h33c1.1,0,2-0.9,2-2S-388.9,616-390,616z"/>
		<path class="st5" d="M-396,624h-18c-1.1,0-2,0.9-2,2s0.9,2,2,2h18c1.1,0,2-0.9,2-2S-394.9,624-396,624z"/>
		<path class="st5" d="M-402,632h-12c-1.1,0-2,0.9-2,2s0.9,2,2,2h12c1.1,0,2-0.9,2-2S-400.9,632-402,632z"/>
		<path class="st5" d="M-408,640h-6c-1.1,0-2,0.9-2,2s0.9,2,2,2h6c1.1,0,2-0.9,2-2S-406.9,640-408,640z"/>
	</g>
	<g>
		<path class="st2" d="M-180,628c-2.8,0-5,2.2-5,5s2.2,5,5,5c2.8,0,5-2.2,5-5S-177.2,628-180,628z M-180,634c-0.6,0-1-0.4-1-1
			s0.4-1,1-1c0.6,0,1,0.4,1,1S-179.4,634-180,634z"/>
		<path class="st2" d="M-172,625.5l0-25.5c0-4.4-3.6-8-8-8c-4.4,0-8,3.6-8,8l0,25.5c-1.9,2-3,4.7-3,7.5c0,6.1,4.9,11,11,11
			s11-4.9,11-11C-169,630.2-170.1,627.5-172,625.5z M-180,640c-3.9,0-7-3.1-7-7c0-2,0.8-3.9,2.3-5.2c0.4-0.4,0.7-0.9,0.7-1.5l0-26.3
			c0-2.2,1.8-4,4-4s4,1.8,4,4l0,26.3c0,0.6,0.2,1.1,0.7,1.5c1.5,1.3,2.3,3.2,2.3,5.2C-173,636.9-176.1,640-180,640z"/>
	</g>
	<g>
		<path class="st2" d="M-294,644c-6.1,0-11-4.9-11-11c0-2.8,1.1-5.5,3-7.5l0-25.5c0-4.4,3.6-8,8-8s8,3.6,8,8l0,25.5
			c1.9,2,3,4.7,3,7.5C-283,639.1-287.9,644-294,644L-294,644z M-294,596c-2.2,0-4,1.8-4,4l0,26.3c0,0.6-0.2,1.1-0.7,1.5
			c-1.5,1.3-2.3,3.2-2.3,5.2c0,3.9,3.1,7,7,7s7-3.1,7-7c0-2-0.8-3.9-2.3-5.2c-0.4-0.4-0.7-0.9-0.7-1.5l0-26.3
			C-290,597.8-291.8,596-294,596L-294,596z"/>
	</g>
	<g>
		<path class="st5" d="M-64,628.4V617c0-1.1-0.9-2-2-2c-1.1,0-2,0.9-2,2v11.4c-1.8,0.8-3,2.5-3,4.6c0,2.8,2.2,5,5,5c2.8,0,5-2.2,5-5
			C-61,631-62.2,629.2-64,628.4z M-66,634c-0.6,0-1-0.4-1-1s0.4-1,1-1c0.6,0,1,0.4,1,1S-65.4,634-66,634z"/>
		<path class="st5" d="M-58,625.5l0-25.5c0-4.4-3.6-8-8-8c-4.4,0-8,3.6-8,8l0,25.5c-1.9,2-3,4.7-3,7.5c0,6.1,4.9,11,11,11
			c6.1,0,11-4.9,11-11C-55,630.2-56.1,627.5-58,625.5z M-66,640c-3.9,0-7-3.1-7-7c0-2,0.8-3.9,2.3-5.2c0.4-0.4,0.7-0.9,0.7-1.5
			l0-26.3c0-2.2,1.8-4,4-4c2.2,0,4,1.8,4,4l0,26.3c0,0.6,0.2,1.1,0.7,1.5c1.5,1.3,2.3,3.2,2.3,5.2C-59,636.9-62.1,640-66,640z"/>
	</g>
	<g>
		<path class="st6" d="M50,628.4V600c0-1.1-0.9-2-2-2c-1.1,0-2,0.9-2,2v28.4c-1.8,0.8-3,2.5-3,4.6c0,2.8,2.2,5,5,5c2.8,0,5-2.2,5-5
			C53,631,51.8,629.2,50,628.4z M48,634c-0.6,0-1-0.4-1-1s0.4-1,1-1c0.6,0,1,0.4,1,1S48.6,634,48,634z"/>
		<path class="st6" d="M56,625.5l0-25.5c0-4.4-3.6-8-8-8c-4.4,0-8,3.6-8,8l0,25.5c-1.9,2-3,4.7-3,7.5c0,6.1,4.9,11,11,11
			c6.1,0,11-4.9,11-11C59,630.2,57.9,627.5,56,625.5z M48,640c-3.9,0-7-3.1-7-7c0-2,0.8-3.9,2.3-5.2c0.4-0.4,0.7-0.9,0.7-1.5l0-26.3
			c0-2.2,1.8-4,4-4c2.2,0,4,1.8,4,4l0,26.3c0,0.6,0.2,1.1,0.7,1.5c1.5,1.3,2.3,3.2,2.3,5.2C55,636.9,51.9,640,48,640z"/>
	</g>
	<path class="st6" d="M80-527.1c0-0.1,0-0.1,0-0.2c0-0.1,0-0.1,0-0.2c0-0.1,0-0.1-0.1-0.2c0-0.1,0-0.1-0.1-0.2c0,0,0,0,0-0.1
		c0,0,0-0.1-0.1-0.1c0-0.1-0.1-0.1-0.1-0.2c0-0.1-0.1-0.1-0.1-0.2c0,0-0.1-0.1-0.1-0.1c-0.1,0-0.1-0.1-0.2-0.1c0,0-0.1-0.1-0.1-0.1
		c-0.1,0-0.1-0.1-0.2-0.1c-0.1,0-0.1-0.1-0.2-0.1c-0.1,0-0.1,0-0.2-0.1c-0.1,0-0.1,0-0.2,0c-0.1,0-0.2,0-0.2,0c0,0-0.1,0-0.1,0h-4
		c0-2.8-2.2-5-5-5H55c-1.4,0-2.7,0.6-3.6,1.5c-0.3,0.3-0.5,0.7-0.7,1c-0.8-0.4-1.7-0.6-2.7-0.6c-0.9,0-1.8,0.2-2.7,0.6
		c-0.2-0.4-0.4-0.7-0.7-1c-0.9-1-2.2-1.5-3.6-1.5H27c-2.8,0-5,2.2-5,5h-4c0,0-0.1,0-0.1,0c-0.1,0-0.1,0-0.2,0c-0.1,0-0.1,0-0.2,0
		c-0.1,0-0.1,0-0.2,0.1c-0.1,0-0.1,0.1-0.2,0.1c-0.1,0-0.1,0.1-0.2,0.1c-0.1,0-0.1,0.1-0.2,0.1c-0.1,0-0.1,0.1-0.2,0.1
		c0,0-0.1,0.1-0.1,0.1c0,0-0.1,0.1-0.1,0.1c0,0.1-0.1,0.1-0.1,0.2c0,0,0,0.1-0.1,0.1c0,0,0,0,0,0.1c0,0.1-0.1,0.1-0.1,0.2
		c0,0.1,0,0.1-0.1,0.2c0,0.1,0,0.1,0,0.2c0,0.1,0,0.1,0,0.2c0,0,0,0,0,0.1c0,0,0,0.1,0,0.1c0,0.1,0,0.1,0,0.2c0,0.1,0,0.1,0,0.2
		c0,0.1,0,0.1,0.1,0.2c0,0.1,0,0.1,0.1,0.2c0,0.1,0.1,0.1,0.1,0.2c0,0.1,0.1,0.1,0.1,0.2c0,0.1,0.1,0.1,0.1,0.2c0,0,0.1,0.1,0.1,0.1
		c0,0,0.1,0.1,0.1,0.1c0.1,0,0.1,0.1,0.2,0.1c0,0,0.1,0,0.1,0.1l4.9,2.5c0.1,6,5,10.8,11,10.8c5,0,11-2.5,12.6-13.6
		c0-0.1,0-0.1,0-0.2c0-0.2,0.1-0.4,0.1-0.7C46-527.3,47-528,48-528c1,0,2,0.7,2.3,1.6c0,0.2,0.1,0.5,0.1,0.7c0,0.1,0,0.1,0,0.2
		C52-514.5,58-512,63-512c6,0,10.9-4.8,11-10.8l4.9-2.5c0,0,0.1,0,0.1-0.1c0.1,0,0.1-0.1,0.2-0.1c0.1,0,0.1-0.1,0.2-0.1
		c0,0,0.1-0.1,0.1-0.1c0-0.1,0.1-0.1,0.1-0.2c0,0,0.1-0.1,0.1-0.1c0-0.1,0.1-0.1,0.1-0.2c0-0.1,0.1-0.1,0.1-0.2c0-0.1,0-0.1,0.1-0.2
		c0-0.1,0-0.1,0-0.2c0-0.1,0-0.1,0-0.2C80-526.9,80-527,80-527.1C80-527,80-527,80-527.1z M34.4-526.6l-5,5
		c-0.4,0.4-0.9,0.6-1.4,0.6c-0.5,0-1-0.2-1.4-0.6c-0.8-0.8-0.8-2,0-2.8l5-5c0.8-0.8,2-0.8,2.8,0C35.2-528.6,35.2-527.4,34.4-526.6z
		 M63.4-526.6l-5,5c-0.4,0.4-0.9,0.6-1.4,0.6c-0.5,0-1-0.2-1.4-0.6c-0.8-0.8-0.8-2,0-2.8l5-5c0.8-0.8,2-0.8,2.8,0
		C64.2-528.6,64.2-527.4,63.4-526.6z"/>
	<path class="st5" d="M-377.5,715.1l-24-6c0,0-0.1,0-0.1,0c-0.1,0-0.2,0-0.3,0c-0.1,0-0.1,0-0.1,0c-0.1,0-0.2,0-0.3,0
		c0,0-0.1,0-0.1,0c-0.1,0-0.3,0.1-0.4,0.1c0,0,0,0,0,0c-0.1,0.1-0.2,0.1-0.4,0.2l-8.8,6.6v-6.4c1.8-0.8,3-2.5,3-4.6c0-2.8-2.2-5-5-5
		s-5,2.2-5,5c0,2,1.2,3.8,3,4.6V760h-22c-1.1,0-2,0.9-2,2s0.9,2,2,2h48c1.1,0,2-0.9,2-2s-0.9-2-2-2h-22v-36l8.8,6.6
		c0.1,0.1,0.2,0.1,0.3,0.2c0.1,0,0.1,0.1,0.2,0.1c0.2,0.1,0.4,0.1,0.6,0.1c0,0,0,0,0,0h0c0,0,0,0,0,0c0.2,0,0.3,0,0.4-0.1
		c0,0,0,0,0,0l24-6c0.9-0.2,1.5-1,1.5-1.9v-6C-376,716.1-376.6,715.3-377.5,715.1z M-404,725l-6.7-5l6.7-5V725z M-414,704
		c0.6,0,1,0.4,1,1s-0.4,1-1,1s-1-0.4-1-1S-414.6,704-414,704z M-400,713.6l8,2v8.9l-8,2V713.6z M-380,721.4l-8,2v-6.9l8,2V721.4z"/>
	<path class="st2" d="M-153,745.3l-6.2-3.6l3.5-0.9c1.1-0.3,1.7-1.4,1.4-2.4c-0.3-1.1-1.4-1.7-2.4-1.4l-7.4,2l-5.5-3.2l6.5-1.8
		c0.8-0.2,1.4-0.9,1.5-1.8c0.1-0.9-0.4-1.6-1.2-2l-5.8-2.4l4.5-2.6l7.4,2c0.2,0,0.3,0.1,0.5,0.1c0.9,0,1.7-0.6,1.9-1.5
		c0.3-1.1-0.3-2.2-1.4-2.4l-3.5-0.9l6.2-3.6c1-0.6,1.3-1.8,0.7-2.7c-0.6-1-1.8-1.3-2.7-0.7l-6.2,3.6l0.9-3.5
		c0.3-1.1-0.3-2.2-1.4-2.4c-1.1-0.3-2.2,0.3-2.4,1.4l-2,7.4l-4.5,2.6l0.8-6.2c0.1-0.8-0.3-1.6-1-2c-0.7-0.4-1.6-0.3-2.2,0.1l-5,3.8
		v-5.2l5.4-5.4c0.8-0.8,0.8-2,0-2.8c-0.8-0.8-2-0.8-2.8,0l-2.6,2.6V702c0-1.1-0.9-2-2-2c-1.1,0-2,0.9-2,2v7.2l-2.6-2.6
		c-0.8-0.8-2-0.8-2.8,0c-0.8,0.8-0.8,2,0,2.8l5.4,5.4v5.2l-5-3.8c-0.7-0.5-1.6-0.5-2.3-0.1c-0.7,0.5-1,1.4-0.8,2.2l1.8,6.5l-5.5-3.2
		l-2-7.4c-0.3-1.1-1.4-1.7-2.4-1.4c-1.1,0.3-1.7,1.4-1.4,2.4l0.9,3.5l-6.2-3.6c-1-0.6-2.2-0.2-2.7,0.7c-0.6,1-0.2,2.2,0.7,2.7
		l6.2,3.6l-3.5,0.9c-1.1,0.3-1.7,1.4-1.4,2.4c0.2,0.9,1,1.5,1.9,1.5c0.2,0,0.3,0,0.5-0.1l7.4-2l5.5,3.2l-6.5,1.8
		c-0.8,0.2-1.4,0.9-1.5,1.8c-0.1,0.9,0.4,1.6,1.2,2l5.8,2.4l-4.5,2.6l-7.4-2c-1.1-0.3-2.2,0.3-2.4,1.4c-0.3,1.1,0.3,2.2,1.4,2.4
		l3.5,0.9l-6.2,3.6c-1,0.6-1.3,1.8-0.7,2.7c0.4,0.6,1,1,1.7,1c0.3,0,0.7-0.1,1-0.3l6.2-3.6l-0.9,3.5c-0.3,1.1,0.3,2.2,1.4,2.4
		c0.2,0,0.3,0.1,0.5,0.1c0.9,0,1.7-0.6,1.9-1.5l2-7.4l4.5-2.6l-0.8,6.2c-0.1,0.8,0.3,1.6,1,2c0.7,0.4,1.6,0.3,2.2-0.1l5-3.8v5.2
		l-5.4,5.4c-0.8,0.8-0.8,2,0,2.8c0.8,0.8,2,0.8,2.8,0l2.6-2.6v7.2c0,1.1,0.9,2,2,2c1.1,0,2-0.9,2-2v-7.2l2.6,2.6
		c0.4,0.4,0.9,0.6,1.4,0.6s1-0.2,1.4-0.6c0.8-0.8,0.8-2,0-2.8l-5.4-5.4V744l5,3.8c0.4,0.3,0.8,0.4,1.2,0.4c0.4,0,0.8-0.1,1.1-0.3
		c0.7-0.5,1-1.4,0.8-2.2l-1.8-6.5l5.5,3.2l2,7.4c0.2,0.9,1,1.5,1.9,1.5c0.2,0,0.3,0,0.5-0.1c1.1-0.3,1.7-1.4,1.4-2.4l-0.9-3.5
		l6.2,3.6c0.3,0.2,0.7,0.3,1,0.3c0.7,0,1.4-0.4,1.7-1C-151.7,747-152.1,745.8-153,745.3z M-169.8,731.6l-4.8,1.3l-1.5-0.9l3.1-1.8
		L-169.8,731.6z M-174.4,722.3l-0.6,4.5l-3.1,1.8V725L-174.4,722.3z M-184.8,722.9l2.8,2.1v3.5l-1.5-0.9L-184.8,722.9z
		 M-190.3,732.4l4.8-1.3l1.5,0.9l-3.1,1.8L-190.3,732.4z M-185.6,741.7l0.6-4.5l3.1-1.8v3.5L-185.6,741.7z M-175.2,741.1l-2.8-2.1
		v-3.5l1.5,0.9L-175.2,741.1z"/>
	<g>
		<path class="st5" d="M-270,710c1.1,0,2-0.9,2-2s-0.9-2-2-2c-7,0-12.9,5.2-13.8,12h-2c1-7.9,7.7-14,15.9-14c1.1,0,2-0.9,2-2
			s-0.9-2-2-2c-10.4,0-18.9,7.9-19.9,18h-8.1v-10c0-1.5-0.4-2.9-1.1-4.1l1.5-1.5c0.8-0.8,0.8-2,0-2.8c-0.8-0.8-2-0.8-2.8,0l-1.5,1.5
			c-0.6-0.4-1.3-0.7-2.1-0.9V698c0-1.1-0.9-2-2-2s-2,0.9-2,2v2.3c-0.7,0.2-1.4,0.5-2.1,0.9l-1.5-1.5c-0.8-0.8-2-0.8-2.8,0
			c-0.8,0.8-0.8,2,0,2.8l1.5,1.5c-0.5,0.9-0.9,2-1,3.1h-4.1c-0.9,0-1.7,0.6-1.9,1.5c-0.2,0.9,0.2,1.8,1.1,2.2l4.9,2.4v6.8
			c0,10.4,7.9,18.9,18,19.9V750h-17.2l2.6-2.6c0.8-0.8,0.8-2,0-2.8c-0.8-0.8-2-0.8-2.8,0l-6,6c-0.1,0.1-0.2,0.2-0.2,0.3
			c0,0-0.1,0.1-0.1,0.1c0,0.1-0.1,0.1-0.1,0.2c0,0.1,0,0.1-0.1,0.2c0,0.1,0,0.1-0.1,0.2c-0.1,0.3-0.1,0.5,0,0.8c0,0.1,0,0.1,0.1,0.2
			c0,0.1,0,0.1,0.1,0.2c0,0.1,0.1,0.1,0.1,0.2c0,0,0,0.1,0.1,0.1c0.1,0.1,0.2,0.2,0.2,0.3l6,6c0.4,0.4,0.9,0.6,1.4,0.6
			s1-0.2,1.4-0.6c0.8-0.8,0.8-2,0-2.8l-2.6-2.6h17.2v12c0,1.1,0.9,2,2,2s2-0.9,2-2v-12h15.2l5.4,5.4c0.4,0.4,0.9,0.6,1.4,0.6
			s1-0.2,1.4-0.6c0.8-0.8,0.8-2,0-2.8l-4.6-4.6l4.6-4.6c0.8-0.8,0.8-2,0-2.8c-0.8-0.8-2-0.8-2.8,0l-5.4,5.4H-292v-10.1
			c10.1-1,18-9.5,18-19.9c0-2.2,1.8-4,4-4c1.1,0,2-0.9,2-2s-0.9-2-2-2c-3.7,0-6.8,2.6-7.7,6h-2.1C-278.9,713.4-274.8,710-270,710z
			 M-290.6,722c-0.7,1.2-2,2-3.4,2c-1.5,0-2.8-0.8-3.4-2H-290.6z M-278.1,722c-1,7.9-7.7,14-15.9,14c-8.8,0-16-7.2-16-16v-12
			c0-2.2,1.8-4,4-4s4,1.8,4,4v12c0,0,0,0,0,0c0,4.4,3.6,8,8,8c3.7,0,6.8-2.6,7.7-6H-278.1z"/>
		<circle class="st6" cx="-306" cy="708" r="2"/>
	</g>
	<g>
		<path class="st1" d="M-408-764c-7.7,0-14,6.3-14,14s6.3,14,14,14s14-6.3,14-14S-400.3-764-408-764z"/>
		<polygon class="st1" points="-408,-776.5 -403.1,-768 -412.9,-768 		"/>
		<polygon class="st1" points="-408,-723.6 -412.9,-732 -403.1,-732 		"/>
		<polygon class="st1" points="-434.5,-750 -426,-754.9 -426,-745.1 		"/>
		<polygon class="st1" points="-381.4,-750 -389.9,-745.1 -389.9,-754.9 		"/>
		<polygon class="st1" points="-391.3,-766.8 -393,-761.2 -396.8,-765.1 		"/>
		<polygon class="st1" points="-424.8,-733.2 -423.1,-738.8 -419.3,-734.9 		"/>
		<polygon class="st1" points="-424.8,-766.8 -419.3,-765.1 -423.1,-761.2 		"/>
		<polygon class="st1" points="-391.3,-733.2 -396.8,-734.9 -393,-738.8 		"/>
	</g>
	<path class="st4" d="M-276-416c-0.5,0-1.1,0.1-1.7,0.2c-2.1-7.2-8.6-12.2-16.3-12.2c-7.7,0-14.2,5-16.3,12.2
		c-0.6-0.1-1.2-0.2-1.7-0.2c-6.1,0-11,4.9-11,11s4.9,11,11,11h36c6.1,0,11-4.9,11-11S-269.9-416-276-416z"/>
	<path class="st4" d="M-162-416c-0.5,0-1.1,0.1-1.7,0.2c-2.1-7.2-8.6-12.2-16.3-12.2c-7.7,0-14.2,5-16.3,12.2
		c-0.6-0.1-1.2-0.2-1.7-0.2c-6.1,0-11,4.9-11,11s4.9,11,11,11h36c6.1,0,11-4.9,11-11S-155.9-416-162-416z"/>
	<g>
		<path class="st2" d="M-75-384c-1.1,0-2,0.9-2,2v4c0,1.1,0.9,2,2,2c1.1,0,2-0.9,2-2v-4C-73-383.1-73.9-384-75-384z"/>
		<path class="st2" d="M-66-378c-1.1,0-2,0.9-2,2v4c0,1.1,0.9,2,2,2c1.1,0,2-0.9,2-2v-4C-64-377.1-64.9-378-66-378z"/>
		<path class="st2" d="M-66-390c-1.1,0-2,0.9-2,2v4c0,1.1,0.9,2,2,2c1.1,0,2-0.9,2-2v-4C-64-389.1-64.9-390-66-390z"/>
		<path class="st2" d="M-57-384c-1.1,0-2,0.9-2,2v4c0,1.1,0.9,2,2,2c1.1,0,2-0.9,2-2v-4C-55-383.1-55.9-384-57-384z"/>
		<path class="st2" d="M-38.3-410.2c-0.3-0.6-0.7-1.2-1.2-1.8c-1.3-1.6-3.2-2.9-5.2-3.5c-1-0.3-2.1-0.5-3.3-0.5
			c-0.5,0-1.1,0.1-1.7,0.2c-0.9-3.1-2.7-5.9-5-7.9c-0.3-0.3-0.7-0.6-1-0.8c-0.7-0.5-1.5-1-2.3-1.4c-2.4-1.3-5.1-2-8-2
			c-7.7,0-14.2,5-16.3,12.2c-0.6-0.1-1.2-0.2-1.7-0.2c-1.1,0-2.2,0.2-3.3,0.5c-2.1,0.6-3.9,1.9-5.2,3.5c-0.4,0.5-0.8,1.1-1.2,1.8
			c-0.8,1.6-1.3,3.3-1.3,5.2s0.5,3.7,1.3,5.2c0.3,0.6,0.7,1.2,1.2,1.8c1.3,1.6,3.2,2.9,5.2,3.5c1,0.3,2.1,0.5,3.3,0.5h7v4
			c0,1.1,0.9,2,2,2c1.1,0,2-0.9,2-2v-4h14v4c0,1.1,0.9,2,2,2c1.1,0,2-0.9,2-2v-4h7c1.1,0,2.2-0.2,3.3-0.5c2.1-0.6,3.9-1.9,5.2-3.5
			c0.4-0.5,0.8-1.1,1.2-1.8c0.8-1.6,1.3-3.3,1.3-5.2S-37.5-408.7-38.3-410.2z"/>
	</g>
	<g>
		<path class="st2" d="M39-384c-1.1,0-2,0.9-2,2v4c0,1.1,0.9,2,2,2c1.1,0,2-0.9,2-2v-4C41-383.1,40.1-384,39-384z"/>
		<path class="st2" d="M48-378c-1.1,0-2,0.9-2,2v4c0,1.1,0.9,2,2,2c1.1,0,2-0.9,2-2v-4C50-377.1,49.1-378,48-378z"/>
		<path class="st2" d="M48-390c-1.1,0-2,0.9-2,2v4c0,1.1,0.9,2,2,2c1.1,0,2-0.9,2-2v-4C50-389.1,49.1-390,48-390z"/>
		<path class="st2" d="M57-384c-1.1,0-2,0.9-2,2v4c0,1.1,0.9,2,2,2c1.1,0,2-0.9,2-2v-4C59-383.1,58.1-384,57-384z"/>
		<path class="st2" d="M75.7-410.2c-0.3-0.6-0.7-1.2-1.2-1.8c-1.3-1.6-3.2-2.9-5.2-3.5c-1-0.3-2.1-0.5-3.3-0.5
			c-0.5,0-1.1,0.1-1.7,0.2c-0.9-3.1-2.7-5.9-5-7.9c-0.3-0.3-0.7-0.6-1-0.8c-0.7-0.5-1.5-1-2.3-1.4c-2.4-1.3-5.1-2-8-2
			c-7.7,0-14.2,5-16.3,12.2c-0.6-0.1-1.2-0.2-1.7-0.2c-1.1,0-2.2,0.2-3.3,0.5c-2.1,0.6-3.9,1.9-5.2,3.5c-0.4,0.5-0.8,1.1-1.2,1.8
			c-0.8,1.6-1.3,3.3-1.3,5.2s0.5,3.7,1.3,5.2c0.3,0.6,0.7,1.2,1.2,1.8c1.3,1.6,3.2,2.9,5.2,3.5c1,0.3,2.1,0.5,3.3,0.5h7v4
			c0,1.1,0.9,2,2,2c1.1,0,2-0.9,2-2v-4h14v4c0,1.1,0.9,2,2,2c1.1,0,2-0.9,2-2v-4h7c1.1,0,2.2-0.2,3.3-0.5c2.1-0.6,3.9-1.9,5.2-3.5
			c0.4-0.5,0.8-1.1,1.2-1.8c0.8-1.6,1.3-3.3,1.3-5.2S76.5-408.7,75.7-410.2z"/>
	</g>
	<g>
		<path class="st2" d="M-417-270c-1.1,0-2,0.9-2,2v4c0,1.1,0.9,2,2,2s2-0.9,2-2v-4C-415-269.1-415.9-270-417-270z"/>
		<path class="st2" d="M-408-264c-1.1,0-2,0.9-2,2v4c0,1.1,0.9,2,2,2s2-0.9,2-2v-4C-406-263.1-406.9-264-408-264z"/>
		<path class="st2" d="M-408-276c-1.1,0-2,0.9-2,2v4c0,1.1,0.9,2,2,2s2-0.9,2-2v-4C-406-275.1-406.9-276-408-276z"/>
		<path class="st2" d="M-399-270c-1.1,0-2,0.9-2,2v4c0,1.1,0.9,2,2,2s2-0.9,2-2v-4C-397-269.1-397.9-270-399-270z"/>
		<path class="st2" d="M-380.3-296.2c-0.3-0.6-0.7-1.2-1.2-1.8c-1.3-1.6-3.2-2.9-5.2-3.5c-1-0.3-2.1-0.5-3.3-0.5
			c-0.5,0-1.1,0.1-1.7,0.2c-0.9-3.1-2.7-5.9-5-7.9c-0.3-0.3-0.7-0.6-1-0.8c-0.7-0.5-1.5-1-2.3-1.4c-2.4-1.3-5.1-2-8-2
			c-7.7,0-14.2,5-16.3,12.2c-0.6-0.1-1.2-0.2-1.7-0.2c-1.1,0-2.2,0.2-3.3,0.5c-2.1,0.6-3.9,1.9-5.2,3.5c-0.4,0.5-0.8,1.1-1.2,1.8
			c-0.8,1.6-1.3,3.3-1.3,5.2s0.5,3.7,1.3,5.2c0.3,0.6,0.7,1.2,1.2,1.8c1.3,1.6,3.2,2.9,5.2,3.5c1,0.3,2.1,0.5,3.3,0.5h7v4
			c0,1.1,0.9,2,2,2s2-0.9,2-2v-4h14v4c0,1.1,0.9,2,2,2s2-0.9,2-2v-4h7c1.1,0,2.2-0.2,3.3-0.5c2.1-0.6,3.9-1.9,5.2-3.5
			c0.4-0.5,0.8-1.1,1.2-1.8c0.8-1.6,1.3-3.3,1.3-5.2S-379.5-294.7-380.3-296.2z"/>
	</g>
	<g>
		<path class="st2" d="M-66-278c-1.1,0-2,0.9-2,2v18c0,1.1,0.9,2,2,2c1.1,0,2-0.9,2-2v-18C-64-277.1-64.9-278-66-278z"/>
		<path class="st2" d="M-38.3-296.2c-0.3-0.6-0.7-1.2-1.2-1.8c-1.3-1.6-3.2-2.9-5.2-3.5c-1-0.3-2.1-0.5-3.3-0.5
			c-0.5,0-1.1,0.1-1.7,0.2C-51.8-309-58.3-314-66-314c-7.7,0-14.2,5-16.3,12.2c-0.6-0.1-1.2-0.2-1.7-0.2c-1.1,0-2.2,0.2-3.3,0.5
			c-2.1,0.6-3.9,1.9-5.2,3.5c-0.4,0.5-0.8,1.1-1.2,1.8c-0.8,1.6-1.3,3.3-1.3,5.2s0.5,3.7,1.3,5.2c0.3,0.6,0.7,1.2,1.2,1.8
			c1.3,1.6,3.2,2.9,5.2,3.5c1,0.3,2.1,0.5,3.3,0.5h7v16c0,1.1,0.9,2,2,2c1.1,0,2-0.9,2-2v-16h14v16c0,1.1,0.9,2,2,2c1.1,0,2-0.9,2-2
			v-16h7c1.1,0,2.2-0.2,3.3-0.5c2.1-0.6,3.9-1.9,5.2-3.5c0.4-0.5,0.8-1.1,1.2-1.8c0.8-1.6,1.3-3.3,1.3-5.2S-37.5-294.7-38.3-296.2z"
			/>
	</g>
	<g>
		<circle class="st2" cx="-417" cy="-162" r="2"/>
		<circle class="st2" cx="-399" cy="-162" r="2"/>
		<circle class="st2" cx="-408" cy="-156" r="2"/>
		<circle class="st2" cx="-399" cy="-150" r="2"/>
		<circle class="st2" cx="-408" cy="-144" r="2"/>
		<circle class="st2" cx="-417" cy="-150" r="2"/>
		<path class="st2" d="M-380.3-182.2c-0.3-0.6-0.7-1.2-1.2-1.8c-1.3-1.6-3.2-2.9-5.2-3.5c-1-0.3-2.1-0.5-3.3-0.5
			c-0.3,0-0.5,0-0.8,0.1c-0.3,0-0.6,0.1-0.9,0.1c-0.9-3.1-2.7-5.9-5-7.9c-0.3-0.3-0.7-0.6-1-0.8c-0.7-0.5-1.5-1-2.3-1.4
			c-2.4-1.3-5.1-2-8-2c-7.7,0-14.2,5-16.3,12.2c-0.1,0-0.1,0-0.2,0c-0.5-0.1-1-0.2-1.5-0.2c-1.1,0-2.2,0.2-3.3,0.5
			c-2.1,0.6-3.9,1.9-5.2,3.5c-0.4,0.5-0.8,1.1-1.2,1.8c-0.8,1.6-1.3,3.3-1.3,5.2s0.5,3.7,1.3,5.2c0.3,0.6,0.7,1.2,1.2,1.8
			c1.3,1.6,3.2,2.9,5.2,3.5c1,0.3,2.1,0.5,3.3,0.5h36c1.1,0,2.2-0.2,3.3-0.5c2.1-0.6,3.9-1.9,5.2-3.5c0.4-0.5,0.8-1.1,1.2-1.8
			c0.8-1.6,1.3-3.3,1.3-5.2S-379.5-180.7-380.3-182.2z"/>
	</g>
	<g>
		<circle class="st2" cx="-303" cy="-162" r="2"/>
		<circle class="st2" cx="-285" cy="-162" r="2"/>
		<circle class="st2" cx="-294" cy="-156" r="2"/>
		<circle class="st2" cx="-285" cy="-150" r="2"/>
		<circle class="st2" cx="-294" cy="-144" r="2"/>
		<circle class="st2" cx="-303" cy="-150" r="2"/>
		<path class="st2" d="M-266.3-182.2c-0.3-0.6-0.7-1.2-1.2-1.8c-1.3-1.6-3.2-2.9-5.2-3.5c-1-0.3-2.1-0.5-3.3-0.5
			c-0.3,0-0.5,0-0.8,0.1c-0.3,0-0.6,0.1-0.9,0.1c-0.9-3.1-2.7-5.9-5-7.9c-0.3-0.3-0.7-0.6-1-0.8c-0.7-0.5-1.5-1-2.3-1.4
			c-2.4-1.3-5.1-2-8-2c-7.7,0-14.2,5-16.3,12.2c-0.1,0-0.1,0-0.2,0c-0.5-0.1-1-0.2-1.5-0.2c-1.1,0-2.2,0.2-3.3,0.5
			c-2.1,0.6-3.9,1.9-5.2,3.5c-0.4,0.5-0.8,1.1-1.2,1.8c-0.8,1.6-1.3,3.3-1.3,5.2s0.5,3.7,1.3,5.2c0.3,0.6,0.7,1.2,1.2,1.8
			c1.3,1.6,3.2,2.9,5.2,3.5c1,0.3,2.1,0.5,3.3,0.5h36c1.1,0,2.2-0.2,3.3-0.5c2.1-0.6,3.9-1.9,5.2-3.5c0.4-0.5,0.8-1.1,1.2-1.8
			c0.8-1.6,1.3-3.3,1.3-5.2S-265.5-180.7-266.3-182.2z"/>
	</g>
	<g>
		<g>
			<polyline class="st1" points="-189.2,-169.4 -196.2,-156.3 -191.1,-156.4 -196.9,-145 -184.6,-159.2 -190.9,-159.1 -182,-169.4 
							"/>
			<polyline class="st1" points="-176.4,-174.3 -183.4,-161.2 -178.2,-161.3 -184,-149.9 -171.8,-164.1 -178,-164 -169.2,-174.3 			
				"/>
		</g>
		<path class="st4" d="M-162-188c-0.5,0-1.1,0.1-1.7,0.2c-2.1-7.2-8.6-12.2-16.3-12.2c-7.7,0-14.2,5-16.3,12.2
			c-0.6-0.1-1.2-0.2-1.7-0.2c-6.1,0-11,4.9-11,11s4.9,11,11,11h36c6.1,0,11-4.9,11-11S-155.9-188-162-188z"/>
	</g>
	<path class="st4" d="M-48-188c-0.5,0-1.1,0.1-1.7,0.2C-51.8-195-58.3-200-66-200c-7.7,0-14.2,5-16.3,12.2c-0.6-0.1-1.2-0.2-1.7-0.2
		c-6.1,0-11,4.9-11,11s4.9,11,11,11h36c6.1,0,11-4.9,11-11S-41.9-188-48-188z"/>
	<path class="st1" d="M66-188c-0.5,0-1.1,0.1-1.7,0.2C62.2-195,55.7-200,48-200c-7.7,0-14.2,5-16.3,12.2c-0.6-0.1-1.2-0.2-1.7-0.2
		c-6.1,0-11,4.9-11,11s4.9,11,11,11h11.3l-3.9,5.9c-0.4,0.6-0.4,1.4-0.1,2.1c0.3,0.7,1,1.1,1.8,1.1h2.3l-3.9,5.9
		c-0.6,0.9-0.4,2.2,0.6,2.8c0.3,0.2,0.7,0.3,1.1,0.3c0.6,0,1.3-0.3,1.7-0.9l6-9c0.4-0.6,0.4-1.4,0.1-2.1c-0.3-0.7-1-1.1-1.8-1.1
		h-2.3l3.3-5h5.2l-1.9,2.9c-0.4,0.6-0.4,1.4-0.1,2.1c0.3,0.7,1,1.1,1.8,1.1h2.3l-1.9,2.9c-0.6,0.9-0.4,2.2,0.6,2.8
		c0.3,0.2,0.7,0.3,1.1,0.3c0.6,0,1.3-0.3,1.7-0.9l4-6c0.4-0.6,0.4-1.4,0.1-2.1c-0.3-0.7-1-1.1-1.8-1.1h-2.3l1.3-2H66
		c6.1,0,11-4.9,11-11S72.1-188,66-188z M66-170H30c-3.9,0-7-3.1-7-7s3.1-7,7-7c0.3,0,0.7,0.1,1.2,0.2v1.8c0,1.1,0.9,2,2,2s2-0.9,2-2
		v-3.2c1.1-6.3,6.4-10.8,12.8-10.8c6.4,0,11.7,4.5,12.8,10.8v3.2c0,1.1,0.9,2,2,2s2-0.9,2-2v-1.8c0.5-0.1,0.9-0.2,1.2-0.2
		c3.9,0,7,3.1,7,7S69.9-170,66-170z"/>
	<path class="st4" d="M66-188c-0.5,0-1.1,0.1-1.7,0.2C62.2-195,55.7-200,48-200c-7.7,0-14.2,5-16.3,12.2c-0.6-0.1-1.2-0.2-1.7-0.2
		c-6.1,0-11,4.9-11,11s4.9,11,11,11h36c6.1,0,11-4.9,11-11S72.1-188,66-188z"/>
	<g>
		<path class="st2" d="M-298.3-44.3c-0.6-1-1.8-1.3-2.7-0.7c-1,0.6-1.3,1.8-0.7,2.7l1,1.7c0.4,0.6,1,1,1.7,1c0.3,0,0.7-0.1,1-0.3
			c1-0.6,1.3-1.8,0.7-2.7L-298.3-44.3z"/>
		<path class="st2" d="M-303-45.1c-1-0.6-2.2-0.2-2.7,0.7l-1,1.7c-0.6,1-0.2,2.2,0.7,2.7c0.3,0.2,0.7,0.3,1,0.3c0.7,0,1.4-0.4,1.7-1
			l1-1.7C-301.7-43.3-302-44.5-303-45.1z"/>
		<path class="st2" d="M-304-46.8c0-1.1-0.9-2-2-2h-2c-1.1,0-2,0.9-2,2c0,1.1,0.9,2,2,2h2C-304.9-44.8-304-45.7-304-46.8z"/>
		<path class="st2" d="M-296-48.8h-2c-1.1,0-2,0.9-2,2c0,1.1,0.9,2,2,2h2c1.1,0,2-0.9,2-2C-294-47.9-294.9-48.8-296-48.8z"/>
		<path class="st2" d="M-276-74c-0.5,0-1.1,0.1-1.7,0.2C-279.8-81-286.3-86-294-86c-7.7,0-14.2,5-16.3,12.2
			c-0.6-0.1-1.2-0.2-1.7-0.2c-6.1,0-11,4.9-11,11s4.9,11,11,11h5c0,0.3,0.1,0.7,0.3,1l1,1.7c0.4,0.6,1,1,1.7,1c0.3,0,0.7-0.1,1-0.3
			c1-0.6,1.3-1.8,0.7-2.7l-0.4-0.7h1.4l-0.4,0.7c-0.6,1-0.2,2.2,0.7,2.7c0.3,0.2,0.7,0.3,1,0.3c0.7,0,1.4-0.4,1.7-1l1-1.7
			c0.2-0.3,0.3-0.7,0.3-1h21c6.1,0,11-4.9,11-11S-269.9-74-276-74z"/>
		<path class="st2" d="M-281.3-39.3c-0.6-1-1.8-1.3-2.7-0.7c-1,0.6-1.3,1.8-0.7,2.7l1,1.7c0.4,0.6,1,1,1.7,1c0.3,0,0.7-0.1,1-0.3
			c1-0.6,1.3-1.8,0.7-2.7L-281.3-39.3z"/>
		<path class="st2" d="M-286.3-48c-0.6-1-1.8-1.3-2.7-0.7c-1,0.6-1.3,1.8-0.7,2.7l1,1.7c0.4,0.6,1,1,1.7,1c0.3,0,0.7-0.1,1-0.3
			c1-0.6,1.3-1.8,0.7-2.7L-286.3-48z"/>
		<path class="st2" d="M-284-43.5c0.3,0.2,0.7,0.3,1,0.3c0.7,0,1.4-0.4,1.7-1l1-1.7c0.6-1,0.2-2.2-0.7-2.7c-1-0.6-2.2-0.2-2.7,0.7
			l-1,1.7C-285.3-45.3-285-44.1-284-43.5z"/>
		<path class="st2" d="M-286-40.1c-1-0.6-2.2-0.2-2.7,0.7l-1,1.7c-0.6,1-0.2,2.2,0.7,2.7c0.3,0.2,0.7,0.3,1,0.3c0.7,0,1.4-0.4,1.7-1
			l1-1.7C-284.7-38.3-285-39.5-286-40.1z"/>
		<path class="st2" d="M-287-41.8c0-1.1-0.9-2-2-2h-2c-1.1,0-2,0.9-2,2c0,1.1,0.9,2,2,2h2C-287.9-39.8-287-40.7-287-41.8z"/>
		<path class="st2" d="M-279-43.8h-2c-1.1,0-2,0.9-2,2c0,1.1,0.9,2,2,2h2c1.1,0,2-0.9,2-2C-277-42.9-277.9-43.8-279-43.8z"/>
	</g>
	<g>
		<path class="st2" d="M-184.3-44.3c-0.6-1-1.8-1.3-2.7-0.7c-1,0.6-1.3,1.8-0.7,2.7l1,1.7c0.4,0.6,1,1,1.7,1c0.3,0,0.7-0.1,1-0.3
			c1-0.6,1.3-1.8,0.7-2.7L-184.3-44.3z"/>
		<path class="st2" d="M-189-45.1c-1-0.6-2.2-0.2-2.7,0.7l-1,1.7c-0.6,1-0.2,2.2,0.7,2.7c0.3,0.2,0.7,0.3,1,0.3c0.7,0,1.4-0.4,1.7-1
			l1-1.7C-187.7-43.3-188-44.5-189-45.1z"/>
		<path class="st2" d="M-190-46.8c0-1.1-0.9-2-2-2h-2c-1.1,0-2,0.9-2,2c0,1.1,0.9,2,2,2h2C-190.9-44.8-190-45.7-190-46.8z"/>
		<path class="st2" d="M-182-48.8h-2c-1.1,0-2,0.9-2,2c0,1.1,0.9,2,2,2h2c1.1,0,2-0.9,2-2C-180-47.9-180.9-48.8-182-48.8z"/>
		<path class="st2" d="M-162-74c-0.5,0-1.1,0.1-1.7,0.2C-165.8-81-172.3-86-180-86c-7.7,0-14.2,5-16.3,12.2
			c-0.6-0.1-1.2-0.2-1.7-0.2c-6.1,0-11,4.9-11,11s4.9,11,11,11h5c0,0.3,0.1,0.7,0.3,1l1,1.7c0.4,0.6,1,1,1.7,1c0.3,0,0.7-0.1,1-0.3
			c1-0.6,1.3-1.8,0.7-2.7l-0.4-0.7h1.4l-0.4,0.7c-0.6,1-0.2,2.2,0.7,2.7c0.3,0.2,0.7,0.3,1,0.3c0.7,0,1.4-0.4,1.7-1l1-1.7
			c0.2-0.3,0.3-0.7,0.3-1h21c6.1,0,11-4.9,11-11S-155.9-74-162-74z"/>
		<path class="st2" d="M-167.3-39.3c-0.6-1-1.8-1.3-2.7-0.7c-1,0.6-1.3,1.8-0.7,2.7l1,1.7c0.4,0.6,1,1,1.7,1c0.3,0,0.7-0.1,1-0.3
			c1-0.6,1.3-1.8,0.7-2.7L-167.3-39.3z"/>
		<path class="st2" d="M-172.3-48c-0.6-1-1.8-1.3-2.7-0.7c-1,0.6-1.3,1.8-0.7,2.7l1,1.7c0.4,0.6,1,1,1.7,1c0.3,0,0.7-0.1,1-0.3
			c1-0.6,1.3-1.8,0.7-2.7L-172.3-48z"/>
		<path class="st2" d="M-170-43.5c0.3,0.2,0.7,0.3,1,0.3c0.7,0,1.4-0.4,1.7-1l1-1.7c0.6-1,0.2-2.2-0.7-2.7c-1-0.6-2.2-0.2-2.7,0.7
			l-1,1.7C-171.3-45.3-171-44.1-170-43.5z"/>
		<path class="st2" d="M-172-40.1c-1-0.6-2.2-0.2-2.7,0.7l-1,1.7c-0.6,1-0.2,2.2,0.7,2.7c0.3,0.2,0.7,0.3,1,0.3c0.7,0,1.4-0.4,1.7-1
			l1-1.7C-170.7-38.3-171-39.5-172-40.1z"/>
		<path class="st2" d="M-173-41.8c0-1.1-0.9-2-2-2h-2c-1.1,0-2,0.9-2,2c0,1.1,0.9,2,2,2h2C-173.9-39.8-173-40.7-173-41.8z"/>
		<path class="st2" d="M-165-43.8h-2c-1.1,0-2,0.9-2,2c0,1.1,0.9,2,2,2h2c1.1,0,2-0.9,2-2C-163-42.9-163.9-43.8-165-43.8z"/>
	</g>
	<g>
		<path class="st1" d="M-61.4-49.4l-2.6,2.6V-52c0-1.1-0.9-2-2-2c-1.1,0-2,0.9-2,2v5.2l-2.6-2.6c-0.8-0.8-2-0.8-2.8,0
			c-0.8,0.8-0.8,2,0,2.8l6,6C-67-40.2-66.5-40-66-40c0.5,0,1-0.2,1.4-0.6l6-6c0.8-0.8,0.8-2,0-2.8C-59.4-50.2-60.6-50.2-61.4-49.4z"
			/>
		<path class="st1" d="M-56.1-75.9c-1-1-2-1.8-3.2-2.4c-1.6-0.9-3.4-1.4-5.2-1.6C-65-80-65.5-80-66-80c-7.7,0-14,6.3-14,14
			c0,1.5,0.3,3.1,0.7,4.5c0.3,0.9,0.7,1.7,1.1,2.5c0.4,0.6,1,1,1.7,1l0,0h20.8c0.2,0,0.4,0,0.5-0.1c0.5-0.1,0.9-0.5,1.2-0.9
			c0.5-0.8,0.8-1.6,1.1-2.5c0.5-1.4,0.7-3,0.7-4.5c0-2.9-0.9-5.6-2.4-7.8C-54.9-74.6-55.5-75.3-56.1-75.9z M-65.8-76
			c-0.5,0-1,0-1.4,0.1h0C-66.8-76-66.4-76-66-76C-65.9-76-65.9-76-65.8-76z M-75.2-62C-75.2-62-75.2-62-75.2-62
			C-75.2-62-75.1-62-75.2-62L-75.2-62z"/>
	</g>
	<g>
		<path class="st1" d="M49.4-53.4c-0.8-0.8-2-0.8-2.8,0l-6,6c-0.8,0.8-0.8,2,0,2.8c0.8,0.8,2,0.8,2.8,0l2.6-2.6v5.2c0,1.1,0.9,2,2,2
			c1.1,0,2-0.9,2-2v-5.2l2.6,2.6C53-44.2,53.5-44,54-44c0.5,0,1-0.2,1.4-0.6c0.8-0.8,0.8-2,0-2.8L49.4-53.4z"/>
		<path class="st1" d="M57.9-75.9c-1-1-2-1.8-3.2-2.4c-1.6-0.9-3.4-1.4-5.2-1.6C49-80,48.5-80,48-80c-7.7,0-14,6.3-14,14
			c0,1.5,0.3,3.1,0.7,4.5c0.3,0.9,0.7,1.7,1.1,2.5c0.4,0.6,1,1,1.7,1l0,0h20.8c0.2,0,0.4,0,0.5-0.1c0.5-0.1,0.9-0.5,1.2-0.9
			c0.5-0.8,0.8-1.6,1.1-2.5c0.5-1.4,0.7-3,0.7-4.5c0-2.9-0.9-5.6-2.4-7.8C59.1-74.6,58.5-75.3,57.9-75.9z M48.2-76
			c-0.5,0-1,0-1.4,0.1h0C47.2-76,47.6-76,48-76C48.1-76,48.1-76,48.2-76z M38.8-62C38.8-62,38.8-62,38.8-62C38.8-62,38.9-62,38.8-62
			L38.8-62z"/>
	</g>
	<g>
		<path class="st2" d="M-390,40c-0.5,0-1.1,0.1-1.7,0.2C-393.8,33-400.3,28-408,28c-7.7,0-14.2,5-16.3,12.2
			c-0.6-0.1-1.2-0.2-1.7-0.2c-6.1,0-11,4.9-11,11s4.9,11,11,11h5.4l-2.4,9.5c-0.3,1.1,0.4,2.2,1.5,2.4c0.2,0,0.3,0.1,0.5,0.1
			c0.9,0,1.7-0.6,1.9-1.5l2.6-10.5h5.4l-3.9,15.5c-0.3,1.1,0.4,2.2,1.5,2.4c0.2,0,0.3,0.1,0.5,0.1c0.9,0,1.7-0.6,1.9-1.5l4.1-16.5
			h5.4l-2.4,9.5c-0.3,1.1,0.4,2.2,1.5,2.4c0.2,0,0.3,0.1,0.5,0.1c0.9,0,1.7-0.6,1.9-1.5l2.6-10.5h7.4c6.1,0,11-4.9,11-11
			S-383.9,40-390,40z"/>
	</g>
	<path class="st2" d="M-276,40c-0.5,0-1.1,0.1-1.7,0.2C-279.8,33-286.3,28-294,28c-7.7,0-14.2,5-16.3,12.2c-0.6-0.1-1.2-0.2-1.7-0.2
		c-6.1,0-11,4.9-11,11s4.9,11,11,11h5.4l-2.4,9.5c-0.3,1.1,0.4,2.2,1.5,2.4c0.2,0,0.3,0.1,0.5,0.1c0.9,0,1.7-0.6,1.9-1.5l2.6-10.5
		h5.4l-3.9,15.5c-0.3,1.1,0.4,2.2,1.5,2.4c0.2,0,0.3,0.1,0.5,0.1c0.9,0,1.7-0.6,1.9-1.5l4.1-16.5h5.4l-2.4,9.5
		c-0.3,1.1,0.4,2.2,1.5,2.4c0.2,0,0.3,0.1,0.5,0.1c0.9,0,1.7-0.6,1.9-1.5l2.6-10.5h7.4c6.1,0,11-4.9,11-11S-269.9,40-276,40z"/>
	<path class="st2" d="M-162,40c-0.5,0-1.1,0.1-1.7,0.2C-165.8,33-172.3,28-180,28c-7.7,0-14.2,5-16.3,12.2c-0.6-0.1-1.2-0.2-1.7-0.2
		c-6.1,0-11,4.9-11,11s4.9,11,11,11h5.4l-2.4,9.5c-0.3,1.1,0.4,2.2,1.5,2.4c0.2,0,0.3,0.1,0.5,0.1c0.9,0,1.7-0.6,1.9-1.5l2.6-10.5
		h5.4l-3.9,15.5c-0.3,1.1,0.4,2.2,1.5,2.4c0.2,0,0.3,0.1,0.5,0.1c0.9,0,1.7-0.6,1.9-1.5l4.1-16.5h5.4l-2.4,9.5
		c-0.3,1.1,0.4,2.2,1.5,2.4c0.2,0,0.3,0.1,0.5,0.1c0.9,0,1.7-0.6,1.9-1.5l2.6-10.5h7.4c6.1,0,11-4.9,11-11S-155.9,40-162,40z"/>
	<g>
		<path class="st2" d="M37.8,37h12c1.1,0,2-0.9,2-2s-0.9-2-2-2h-12c-1.1,0-2,0.9-2,2S36.7,37,37.8,37z"/>
		<path class="st2" d="M25.8,43h24c1.1,0,2-0.9,2-2s-0.9-2-2-2h-24c-1.1,0-2,0.9-2,2S24.7,43,25.8,43z"/>
		<path class="st2" d="M19.8,49h24c1.1,0,2-0.9,2-2s-0.9-2-2-2h-24c-1.1,0-2,0.9-2,2S18.7,49,19.8,49z"/>
		<path class="st2" d="M78.8,53c0-1.1-0.9-2-2-2h-60c-1.1,0-2,0.9-2,2s0.9,2,2,2h60C77.9,55,78.8,54.1,78.8,53z"/>
		<path class="st2" d="M76.8,57h-57c-1.1,0-2,0.9-2,2s0.9,2,2,2h57c1.1,0,2-0.9,2-2S77.9,57,76.8,57z"/>
		<path class="st2" d="M37.8,63l-12,0c-1.1,0-2,0.9-2,2s0.9,2,2,2l12,0c1.1,0,2-0.9,2-2S38.9,63,37.8,63z"/>
		<path class="st2" d="M56.8,43h8c1.1,0,2-0.9,2-2s-0.9-2-2-2h-8c-1.1,0-2,0.9-2,2S55.7,43,56.8,43z"/>
		<path class="st2" d="M47.8,47c0,1.1,0.9,2,2,2h21c1.1,0,2-0.9,2-2s-0.9-2-2-2h-21C48.7,45,47.8,45.9,47.8,47z"/>
		<path class="st2" d="M70.8,63l-27,0c-1.1,0-2,0.9-2,2s0.9,2,2,2l27,0c1.1,0,2-0.9,2-2S71.9,63,70.8,63z"/>
	</g>
	<path class="st4" d="M-276,154c-0.5,0-1.1,0.1-1.7,0.2c-2.1-7.2-8.6-12.2-16.3-12.2c-7.7,0-14.2,5-16.3,12.2
		c-0.6-0.1-1.2-0.2-1.7-0.2c-6.1,0-11,4.9-11,11s4.9,11,11,11h36c6.1,0,11-4.9,11-11S-269.9,154-276,154z"/>
	<g>
		<path class="st2" d="M-207,167c1.1,0,2-0.9,2-2c0-3.9,3.1-7,7-7c0.3,0,0.7,0.1,1.2,0.2v1.8c0,1.1,0.9,2,2,2c1.1,0,2-0.9,2-2v-3.2
			c1.1-6.3,6.4-10.8,12.8-10.8c6.4,0,11.7,4.5,12.8,10.8v3.2c0,1.1,0.9,2,2,2c1.1,0,2-0.9,2-2v-1.8c0.5-0.1,0.9-0.2,1.2-0.2
			c3.9,0,7,3.1,7,7c0,1.1,0.9,2,2,2c1.1,0,2-0.9,2-2c0-6.1-4.9-11-11-11c-0.5,0-1.1,0.1-1.7,0.2c-2.1-7.2-8.6-12.2-16.3-12.2
			c-7.7,0-14.2,5-16.3,12.2c-0.6-0.1-1.2-0.2-1.7-0.2c-6.1,0-11,4.9-11,11C-209,166.1-208.1,167-207,167z"/>
		<path class="st2" d="M-188,173c0,1.1,0.9,2,2,2h36c1.1,0,2-0.9,2-2s-0.9-2-2-2h-36C-187.1,171-188,171.9-188,173z"/>
		<path class="st2" d="M-180,178c-1.1,0-2,0.9-2,2s0.9,2,2,2h27c1.1,0,2-0.9,2-2s-0.9-2-2-2H-180z"/>
		<path class="st2" d="M-150,185h-24c-1.1,0-2,0.9-2,2s0.9,2,2,2h24c1.1,0,2-0.9,2-2S-148.9,185-150,185z"/>
		<path class="st2" d="M-210,175h18c1.1,0,2-0.9,2-2s-0.9-2-2-2h-18c-1.1,0-2,0.9-2,2S-211.1,175-210,175z"/>
		<path class="st2" d="M-207,178c-1.1,0-2,0.9-2,2s0.9,2,2,2h21c1.1,0,2-0.9,2-2s-0.9-2-2-2H-207z"/>
		<path class="st2" d="M-180,185h-30c-1.1,0-2,0.9-2,2s0.9,2,2,2h30c1.1,0,2-0.9,2-2S-178.9,185-180,185z"/>
	</g>
	<path class="st4" d="M-162,154c-0.5,0-1.1,0.1-1.7,0.2c-2.1-7.2-8.6-12.2-16.3-12.2c-7.7,0-14.2,5-16.3,12.2
		c-0.6-0.1-1.2-0.2-1.7-0.2c-6.1,0-11,4.9-11,11s4.9,11,11,11h36c6.1,0,11-4.9,11-11S-155.9,154-162,154z"/>
	<g>
		<path class="st2" d="M-93,167c1.1,0,2-0.9,2-2c0-3.9,3.1-7,7-7c0.3,0,0.7,0.1,1.2,0.2v1.8c0,1.1,0.9,2,2,2s2-0.9,2-2v-3.2
			c1.1-6.3,6.4-10.8,12.8-10.8c6.4,0,11.7,4.5,12.8,10.8v3.2c0,1.1,0.9,2,2,2s2-0.9,2-2v-1.8c0.5-0.1,0.9-0.2,1.2-0.2
			c3.9,0,7,3.1,7,7c0,1.1,0.9,2,2,2c1.1,0,2-0.9,2-2c0-6.1-4.9-11-11-11c-0.5,0-1.1,0.1-1.7,0.2C-51.8,147-58.3,142-66,142
			c-7.7,0-14.2,5-16.3,12.2c-0.6-0.1-1.2-0.2-1.7-0.2c-6.1,0-11,4.9-11,11C-95,166.1-94.1,167-93,167z"/>
		<path class="st2" d="M-74,173c0,1.1,0.9,2,2,2h36c1.1,0,2-0.9,2-2s-0.9-2-2-2h-36C-73.1,171-74,171.9-74,173z"/>
		<path class="st2" d="M-66,178c-1.1,0-2,0.9-2,2s0.9,2,2,2h27c1.1,0,2-0.9,2-2s-0.9-2-2-2H-66z"/>
		<path class="st2" d="M-36,185h-24c-1.1,0-2,0.9-2,2s0.9,2,2,2h24c1.1,0,2-0.9,2-2S-34.9,185-36,185z"/>
		<path class="st2" d="M-96,175h18c1.1,0,2-0.9,2-2s-0.9-2-2-2h-18c-1.1,0-2,0.9-2,2S-97.1,175-96,175z"/>
		<path class="st2" d="M-93,178c-1.1,0-2,0.9-2,2s0.9,2,2,2h21c1.1,0,2-0.9,2-2s-0.9-2-2-2H-93z"/>
		<path class="st2" d="M-66,185h-30c-1.1,0-2,0.9-2,2s0.9,2,2,2h30c1.1,0,2-0.9,2-2S-64.9,185-66,185z"/>
	</g>
	<path class="st4" d="M-48,154c-0.5,0-1.1,0.1-1.7,0.2C-51.8,147-58.3,142-66,142c-7.7,0-14.2,5-16.3,12.2c-0.6-0.1-1.2-0.2-1.7-0.2
		c-6.1,0-11,4.9-11,11s4.9,11,11,11h36c6.1,0,11-4.9,11-11S-41.9,154-48,154z"/>
	<path class="st4" d="M66,148c-0.5,0-1.1,0.1-1.7,0.2C62.2,141,55.7,136,48,136c-7.7,0-14.2,5-16.3,12.2c-0.6-0.1-1.2-0.2-1.7-0.2
		c-6.1,0-11,4.9-11,11s4.9,11,11,11h36c6.1,0,11-4.9,11-11S72.1,148,66,148z"/>
	<path class="st4" d="M-48-416c-0.5,0-1.1,0.1-1.7,0.2C-51.8-423-58.3-428-66-428c-7.7,0-14.2,5-16.3,12.2c-0.6-0.1-1.2-0.2-1.7-0.2
		c-6.1,0-11,4.9-11,11s4.9,11,11,11h36c6.1,0,11-4.9,11-11S-41.9-416-48-416z"/>
	<path class="st4" d="M66-416c-0.5,0-1.1,0.1-1.7,0.2C62.2-423,55.7-428,48-428c-7.7,0-14.2,5-16.3,12.2c-0.6-0.1-1.2-0.2-1.7-0.2
		c-6.1,0-11,4.9-11,11s4.9,11,11,11h36c6.1,0,11-4.9,11-11S72.1-416,66-416z"/>
	<path class="st4" d="M-390-302c-0.5,0-1.1,0.1-1.7,0.2c-2.1-7.2-8.6-12.2-16.3-12.2c-7.7,0-14.2,5-16.3,12.2
		c-0.6-0.1-1.2-0.2-1.7-0.2c-6.1,0-11,4.9-11,11s4.9,11,11,11h36c6.1,0,11-4.9,11-11S-383.9-302-390-302z"/>
	<g>
		<g>
			<path class="st2" d="M-294-278c-1.1,0-2,0.9-2,2v18c0,1.1,0.9,2,2,2s2-0.9,2-2v-18C-292-277.1-292.9-278-294-278z"/>
			<path class="st2" d="M-266.3-296.2c-0.3-0.6-0.7-1.2-1.2-1.8c-1.3-1.6-3.2-2.9-5.2-3.5c-1-0.3-2.1-0.5-3.3-0.5
				c-0.5,0-1.1,0.1-1.7,0.2c-2.1-7.2-8.6-12.2-16.3-12.2c-7.7,0-14.2,5-16.3,12.2c-0.6-0.1-1.2-0.2-1.7-0.2c-1.1,0-2.2,0.2-3.3,0.5
				c-2.1,0.6-3.9,1.9-5.2,3.5c-0.4,0.5-0.8,1.1-1.2,1.8c-0.8,1.6-1.3,3.3-1.3,5.2s0.5,3.7,1.3,5.2c0.3,0.6,0.7,1.2,1.2,1.8
				c1.3,1.6,3.2,2.9,5.2,3.5c1,0.3,2.1,0.5,3.3,0.5h7v16c0,1.1,0.9,2,2,2s2-0.9,2-2v-16h14v16c0,1.1,0.9,2,2,2s2-0.9,2-2v-16h7
				c1.1,0,2.2-0.2,3.3-0.5c2.1-0.6,3.9-1.9,5.2-3.5c0.4-0.5,0.8-1.1,1.2-1.8c0.8-1.6,1.3-3.3,1.3-5.2S-265.5-294.7-266.3-296.2z"/>
		</g>
		<path class="st4" d="M-276-302c-0.5,0-1.1,0.1-1.7,0.2c-2.1-7.2-8.6-12.2-16.3-12.2c-7.7,0-14.2,5-16.3,12.2
			c-0.6-0.1-1.2-0.2-1.7-0.2c-6.1,0-11,4.9-11,11s4.9,11,11,11h36c6.1,0,11-4.9,11-11S-269.9-302-276-302z"/>
	</g>
	<path class="st4" d="M-162-302c-0.5,0-1.1,0.1-1.7,0.2c-2.1-7.2-8.6-12.2-16.3-12.2c-7.7,0-14.2,5-16.3,12.2
		c-0.6-0.1-1.2-0.2-1.7-0.2c-6.1,0-11,4.9-11,11s4.9,11,11,11h36c6.1,0,11-4.9,11-11S-155.9-302-162-302z"/>
	<path class="st4" d="M-48-302c-0.5,0-1.1,0.1-1.7,0.2C-51.8-309-58.3-314-66-314c-7.7,0-14.2,5-16.3,12.2c-0.6-0.1-1.2-0.2-1.7-0.2
		c-6.1,0-11,4.9-11,11s4.9,11,11,11h36c6.1,0,11-4.9,11-11S-41.9-302-48-302z"/>
	<g>
		<g>
			<circle class="st2" cx="39" cy="-276" r="2"/>
			<circle class="st2" cx="57" cy="-276" r="2"/>
			<circle class="st2" cx="48" cy="-270" r="2"/>
			<circle class="st2" cx="57" cy="-264" r="2"/>
			<circle class="st2" cx="48" cy="-258" r="2"/>
			<circle class="st2" cx="39" cy="-264" r="2"/>
			<path class="st2" d="M75.7-296.2c-0.3-0.6-0.7-1.2-1.2-1.8c-1.3-1.6-3.2-2.9-5.2-3.5c-1-0.3-2.1-0.5-3.3-0.5
				c-0.3,0-0.5,0-0.8,0.1c-0.3,0-0.6,0.1-0.9,0.1c-0.9-3.1-2.7-5.9-5-7.9c-0.3-0.3-0.7-0.6-1-0.8c-0.7-0.5-1.5-1-2.3-1.4
				c-2.4-1.3-5.1-2-8-2c-7.7,0-14.2,5-16.3,12.2c-0.1,0-0.1,0-0.2,0c-0.5-0.1-1-0.2-1.5-0.2c-1.1,0-2.2,0.2-3.3,0.5
				c-2.1,0.6-3.9,1.9-5.2,3.5c-0.4,0.5-0.8,1.1-1.2,1.8c-0.8,1.6-1.3,3.3-1.3,5.2s0.5,3.7,1.3,5.2c0.3,0.6,0.7,1.2,1.2,1.8
				c1.3,1.6,3.2,2.9,5.2,3.5c1,0.3,2.1,0.5,3.3,0.5h36c1.1,0,2.2-0.2,3.3-0.5c2.1-0.6,3.9-1.9,5.2-3.5c0.4-0.5,0.8-1.1,1.2-1.8
				c0.8-1.6,1.3-3.3,1.3-5.2S76.5-294.7,75.7-296.2z"/>
		</g>
		<path class="st4" d="M66-302c-0.5,0-1.1,0.1-1.7,0.2C62.2-309,55.7-314,48-314c-7.7,0-14.2,5-16.3,12.2c-0.6-0.1-1.2-0.2-1.7-0.2
			c-6.1,0-11,4.9-11,11s4.9,11,11,11h36c6.1,0,11-4.9,11-11S72.1-302,66-302z"/>
	</g>
	<path class="st4" d="M-390-188c-0.5,0-1.1,0.1-1.7,0.2c-2.1-7.2-8.6-12.2-16.3-12.2c-7.7,0-14.2,5-16.3,12.2
		c-0.6-0.1-1.2-0.2-1.7-0.2c-6.1,0-11,4.9-11,11s4.9,11,11,11h36c6.1,0,11-4.9,11-11S-383.9-188-390-188z"/>
	<path class="st4" d="M-276-188c-0.5,0-1.1,0.1-1.7,0.2c-2.1-7.2-8.6-12.2-16.3-12.2c-7.7,0-14.2,5-16.3,12.2
		c-0.6-0.1-1.2-0.2-1.7-0.2c-6.1,0-11,4.9-11,11s4.9,11,11,11h36c6.1,0,11-4.9,11-11S-269.9-188-276-188z"/>
	<g>
		<g>
			<path class="st2" d="M-411.3-43.3c-0.6-1-1.8-1.3-2.7-0.7c-1,0.6-1.3,1.8-0.7,2.7l1,1.7c0.4,0.6,1,1,1.7,1c0.3,0,0.7-0.1,1-0.3
				c1-0.6,1.3-1.8,0.7-2.7L-411.3-43.3z"/>
			<path class="st2" d="M-416-44.1c-1-0.6-2.2-0.2-2.7,0.7l-1,1.7c-0.6,1-0.2,2.2,0.7,2.7c0.3,0.2,0.7,0.3,1,0.3
				c0.7,0,1.4-0.4,1.7-1l1-1.7C-414.7-42.3-415-43.5-416-44.1z"/>
			<path class="st2" d="M-417-45.8c0-1.1-0.9-2-2-2h-2c-1.1,0-2,0.9-2,2c0,1.1,0.9,2,2,2h2C-417.9-43.8-417-44.7-417-45.8z"/>
			<path class="st2" d="M-409-47.8h-2c-1.1,0-2,0.9-2,2c0,1.1,0.9,2,2,2h2c1.1,0,2-0.9,2-2C-407-46.9-407.9-47.8-409-47.8z"/>
			<path class="st2" d="M-389-73c-0.5,0-1.1,0.1-1.7,0.2C-392.8-80-399.3-85-407-85c-7.7,0-14.2,5-16.3,12.2
				c-0.6-0.1-1.2-0.2-1.7-0.2c-6.1,0-11,4.9-11,11s4.9,11,11,11h5c0,0.3,0.1,0.7,0.3,1l1,1.7c0.4,0.6,1,1,1.7,1c0.3,0,0.7-0.1,1-0.3
				c1-0.6,1.3-1.8,0.7-2.7l-0.4-0.7h1.4l-0.4,0.7c-0.6,1-0.2,2.2,0.7,2.7c0.3,0.2,0.7,0.3,1,0.3c0.7,0,1.4-0.4,1.7-1l1-1.7
				c0.2-0.3,0.3-0.7,0.3-1h21c6.1,0,11-4.9,11-11S-382.9-73-389-73z"/>
			<path class="st2" d="M-394.3-38.3c-0.6-1-1.8-1.3-2.7-0.7c-1,0.6-1.3,1.8-0.7,2.7l1,1.7c0.4,0.6,1,1,1.7,1c0.3,0,0.7-0.1,1-0.3
				c1-0.6,1.3-1.8,0.7-2.7L-394.3-38.3z"/>
			<path class="st2" d="M-399.3-47c-0.6-1-1.8-1.3-2.7-0.7c-1,0.6-1.3,1.8-0.7,2.7l1,1.7c0.4,0.6,1,1,1.7,1c0.3,0,0.7-0.1,1-0.3
				c1-0.6,1.3-1.8,0.7-2.7L-399.3-47z"/>
			<path class="st2" d="M-397-42.5c0.3,0.2,0.7,0.3,1,0.3c0.7,0,1.4-0.4,1.7-1l1-1.7c0.6-1,0.2-2.2-0.7-2.7c-1-0.6-2.2-0.2-2.7,0.7
				l-1,1.7C-398.3-44.3-398-43.1-397-42.5z"/>
			<path class="st2" d="M-399-39.1c-1-0.6-2.2-0.2-2.7,0.7l-1,1.7c-0.6,1-0.2,2.2,0.7,2.7c0.3,0.2,0.7,0.3,1,0.3
				c0.7,0,1.4-0.4,1.7-1l1-1.7C-397.7-37.3-398-38.5-399-39.1z"/>
			<path class="st2" d="M-400-40.8c0-1.1-0.9-2-2-2h-2c-1.1,0-2,0.9-2,2c0,1.1,0.9,2,2,2h2C-400.9-38.8-400-39.7-400-40.8z"/>
			<path class="st2" d="M-392-42.8h-2c-1.1,0-2,0.9-2,2c0,1.1,0.9,2,2,2h2c1.1,0,2-0.9,2-2C-390-41.9-390.9-42.8-392-42.8z"/>
		</g>
		<path class="st4" d="M-389-73c-0.5,0-1.1,0.1-1.7,0.2C-392.8-80-399.3-85-407-85c-7.7,0-14.2,5-16.3,12.2
			c-0.6-0.1-1.2-0.2-1.7-0.2c-6.1,0-11,4.9-11,11s4.9,11,11,11h36c6.1,0,11-4.9,11-11S-382.9-73-389-73z"/>
	</g>
	<path class="st4" d="M-276-74c-0.5,0-1.1,0.1-1.7,0.2C-279.8-81-286.3-86-294-86c-7.7,0-14.2,5-16.3,12.2c-0.6-0.1-1.2-0.2-1.7-0.2
		c-6.1,0-11,4.9-11,11s4.9,11,11,11h36c6.1,0,11-4.9,11-11S-269.9-74-276-74z"/>
	<path class="st4" d="M-162-74c-0.5,0-1.1,0.1-1.7,0.2C-165.8-81-172.3-86-180-86c-7.7,0-14.2,5-16.3,12.2c-0.6-0.1-1.2-0.2-1.7-0.2
		c-6.1,0-11,4.9-11,11s4.9,11,11,11h36c6.1,0,11-4.9,11-11S-155.9-74-162-74z"/>
	<path class="st4" d="M-390,40c-0.5,0-1.1,0.1-1.7,0.2C-393.8,33-400.3,28-408,28c-7.7,0-14.2,5-16.3,12.2c-0.6-0.1-1.2-0.2-1.7-0.2
		c-6.1,0-11,4.9-11,11s4.9,11,11,11h36c6.1,0,11-4.9,11-11S-383.9,40-390,40z"/>
	<path class="st4" d="M-276,40c-0.5,0-1.1,0.1-1.7,0.2C-279.8,33-286.3,28-294,28c-7.7,0-14.2,5-16.3,12.2c-0.6-0.1-1.2-0.2-1.7-0.2
		c-6.1,0-11,4.9-11,11s4.9,11,11,11h36c6.1,0,11-4.9,11-11S-269.9,40-276,40z"/>
	<path class="st4" d="M-162,40c-0.5,0-1.1,0.1-1.7,0.2C-165.8,33-172.3,28-180,28c-7.7,0-14.2,5-16.3,12.2c-0.6-0.1-1.2-0.2-1.7-0.2
		c-6.1,0-11,4.9-11,11s4.9,11,11,11h36c6.1,0,11-4.9,11-11S-155.9,40-162,40z"/>
	<path class="st4" d="M-390,268c-0.5,0-1.1,0.1-1.7,0.2c-2.1-7.2-8.6-12.2-16.3-12.2c-7.7,0-14.2,5-16.3,12.2
		c-0.6-0.1-1.2-0.2-1.7-0.2c-6.1,0-11,4.9-11,11s4.9,11,11,11h36c6.1,0,11-4.9,11-11S-383.9,268-390,268z"/>
	<g>
		<g>
			<path class="st2" d="M-406,408v-12c0-1.1-0.9-2-2-2s-2,0.9-2,2v12c0,1.1,0.9,2,2,2S-406,409.1-406,408z"/>
			<path class="st2" d="M-415,414v-12c0-1.1-0.9-2-2-2s-2,0.9-2,2v12c0,1.1,0.9,2,2,2S-415,415.1-415,414z"/>
			<path class="st2" d="M-397,414v-12c0-1.1-0.9-2-2-2s-2,0.9-2,2v12c0,1.1,0.9,2,2,2S-397,415.1-397,414z"/>
			<path class="st2" d="M-416,420h-2c-1.1,0-2,0.9-2,2v2c0,1.1,0.9,2,2,2h2c1.1,0,2-0.9,2-2v-2C-414,420.9-414.9,420-416,420z"/>
			<path class="st2" d="M-407,414h-2c-1.1,0-2,0.9-2,2v2c0,1.1,0.9,2,2,2h2c1.1,0,2-0.9,2-2v-2C-405,414.9-405.9,414-407,414z"/>
			<path class="st2" d="M-398,420h-2c-1.1,0-2,0.9-2,2v2c0,1.1,0.9,2,2,2h2c1.1,0,2-0.9,2-2v-2C-396,420.9-396.9,420-398,420z"/>
		</g>
		<path class="st4" d="M-390,382c-0.5,0-1.1,0.1-1.7,0.2c-2.1-7.2-8.6-12.2-16.3-12.2c-7.7,0-14.2,5-16.3,12.2
			c-0.6-0.1-1.2-0.2-1.7-0.2c-6.1,0-11,4.9-11,11s4.9,11,11,11h36c6.1,0,11-4.9,11-11S-383.9,382-390,382z"/>
	</g>
	<g>
		<g>
			<path class="st2" d="M-68.5,396v18c0,1.1,0.9,2,2,2c1.1,0,2-0.9,2-2v-18c0-1.1-0.9-2-2-2C-67.6,394-68.5,394.9-68.5,396z"/>
			<path class="st2" d="M-91.5,415h-2c-1.1,0-2,0.9-2,2v2c0,1.1,0.9,2,2,2h2c1.1,0,2-0.9,2-2v-2C-89.5,415.9-90.4,415-91.5,415z"/>
			<path class="st2" d="M-65.5,420h-2c-1.1,0-2,0.9-2,2v2c0,1.1,0.9,2,2,2h2c1.1,0,2-0.9,2-2v-2C-63.5,420.9-64.4,420-65.5,420z"/>
			<path class="st2" d="M-38.5,412h-2c-1.1,0-2,0.9-2,2v2c0,1.1,0.9,2,2,2h2c1.1,0,2-0.9,2-2v-2C-36.5,412.9-37.4,412-38.5,412z"/>
			<path class="st2" d="M-75.5,400c-1.1,0-2,0.9-2,2v15.1c-1.2-0.7-2.5-1.1-4-1.1h-2c-1.1,0-2,0.9-2,2c0,1.1,0.9,2,2,2h2
				c2.2,0,4,1.8,4,4c0,1.1,0.9,2,2,2c1.1,0,2-0.9,2-2v-22C-73.5,400.9-74.4,400-75.5,400z"/>
			<path class="st2" d="M-48.5,413c-2.7,0-5.1,0.9-7,2.5V402c0-1.1-0.9-2-2-2c-1.1,0-2,0.9-2,2v22c0,0,0,0,0,0c0,1.1,0.9,2,2,2
				c1.1,0,2-0.9,2-2v0c0-3.9,3.1-7,7-7c1.1,0,2-0.9,2-2C-46.5,413.9-47.4,413-48.5,413z"/>
		</g>
		<path class="st4" d="M-48,382c-0.5,0-1.1,0.1-1.7,0.2C-51.8,375-58.3,370-66,370c-7.7,0-14.2,5-16.3,12.2
			c-0.6-0.1-1.2-0.2-1.7-0.2c-6.1,0-11,4.9-11,11s4.9,11,11,11h36c6.1,0,11-4.9,11-11S-41.9,382-48,382z"/>
	</g>
	<path class="st4" d="M-48,268c-0.5,0-1.1,0.1-1.7,0.2C-51.8,261-58.3,256-66,256c-7.7,0-14.2,5-16.3,12.2c-0.6-0.1-1.2-0.2-1.7-0.2
		c-6.1,0-11,4.9-11,11s4.9,11,11,11h36c6.1,0,11-4.9,11-11S-41.9,268-48,268z"/>
	<path class="st2" d="M-305.6,291.8c-0.8,1.1-3.4,4.7-3.4,7.2c0,2.9,2.1,5,5,5s5-2.1,5-5c0-2.5-2.6-6.1-3.4-7.2
		C-303.2,290.8-304.8,290.8-305.6,291.8z"/>
	<path class="st2" d="M-287.6,291.8c-0.8,1.1-3.4,4.7-3.4,7.2c0,2.9,2.1,5,5,5s5-2.1,5-5c0-2.5-2.6-6.1-3.4-7.2
		C-285.2,290.8-286.8,290.8-287.6,291.8z"/>
	<path class="st2" d="M-296.6,302.8c-0.8,1.1-3.4,4.7-3.4,7.2c0,2.9,2.1,5,5,5s5-2.1,5-5c0-2.5-2.6-6.1-3.4-7.2
		C-294.2,301.8-295.8,301.8-296.6,302.8z"/>
	<path class="st4" d="M-276,268c-0.5,0-1.1,0.1-1.7,0.2c-2.1-7.2-8.6-12.2-16.3-12.2c-7.7,0-14.2,5-16.3,12.2
		c-0.6-0.1-1.2-0.2-1.7-0.2c-6.1,0-11,4.9-11,11s4.9,11,11,11h36c6.1,0,11-4.9,11-11S-269.9,268-276,268z"/>
	<path class="st2" d="M-419.6,291.8c-0.8,1.1-3.4,4.7-3.4,7.2c0,2.9,2.1,5,5,5s5-2.1,5-5c0-2.5-2.6-6.1-3.4-7.2
		C-417.2,290.7-418.8,290.7-419.6,291.8z"/>
	<path class="st2" d="M-401.6,291.8c-0.8,1.1-3.4,4.7-3.4,7.2c0,2.9,2.1,5,5,5s5-2.1,5-5c0-2.5-2.6-6.1-3.4-7.2
		C-399.2,290.7-400.8,290.7-401.6,291.8z"/>
	<path class="st2" d="M-410.6,302.8c-0.8,1.1-3.4,4.7-3.4,7.2c0,2.9,2.1,5,5,5s5-2.1,5-5c0-2.5-2.6-6.1-3.4-7.2
		C-408.2,301.7-409.8,301.7-410.6,302.8z"/>
	<path class="st2" d="M-177.3,291.6c-0.7-0.8-2.1-0.8-2.8,0c-0.6,0.7-5.9,7-5.9,12.1c0,1.9,0.6,3.6,1.8,5c0.9,1.1,2.6,2.3,5.5,2.3
		c4.8,0,7.3-3.7,7.3-7.3C-171.5,298.6-176.7,292.3-177.3,291.6z M-178.7,308.3C-178.7,308.3-178.7,308.3-178.7,308.3l0,0.9
		L-178.7,308.3z"/>
	<path class="st4" d="M-162,268c-0.5,0-1.1,0.1-1.7,0.2c-2.1-7.2-8.6-12.2-16.3-12.2c-7.7,0-14.2,5-16.3,12.2
		c-0.6-0.1-1.2-0.2-1.7-0.2c-6.1,0-11,4.9-11,11s4.9,11,11,11h36c6.1,0,11-4.9,11-11S-155.9,268-162,268z"/>
	<path class="st2" d="M-62.9,291.6c-0.7-0.8-2.1-0.8-2.8,0c-0.6,0.7-5.9,7-5.9,12.1c0,1.9,0.6,3.6,1.8,5c0.9,1.1,2.6,2.3,5.5,2.3
		c4.8,0,7.3-3.7,7.3-7.3C-57,298.7-62.3,292.3-62.9,291.6z M-64.3,308.3L-64.3,308.3l0,0.9L-64.3,308.3z"/>
	<path class="st4" d="M-162,382c-0.5,0-1.1,0.1-1.7,0.2c-2.1-7.2-8.6-12.2-16.3-12.2c-7.7,0-14.2,5-16.3,12.2
		c-0.6-0.1-1.2-0.2-1.7-0.2c-6.1,0-11,4.9-11,11s4.9,11,11,11h36c6.1,0,11-4.9,11-11S-155.9,382-162,382z"/>
	<path class="st4" d="M-276,382c-0.5,0-1.1,0.1-1.7,0.2c-2.1-7.2-8.6-12.2-16.3-12.2c-7.7,0-14.2,5-16.3,12.2
		c-0.6-0.1-1.2-0.2-1.7-0.2c-6.1,0-11,4.9-11,11s4.9,11,11,11h36c6.1,0,11-4.9,11-11S-269.9,382-276,382z"/>
	<path class="st4" d="M66,382c-0.5,0-1.1,0.1-1.7,0.2C62.2,375,55.7,370,48,370c-7.7,0-14.2,5-16.3,12.2c-0.6-0.1-1.2-0.2-1.7-0.2
		c-6.1,0-11,4.9-11,11s4.9,11,11,11h36c6.1,0,11-4.9,11-11S72.1,382,66,382z"/>
	<path class="st4" d="M66,268c-0.5,0-1.1,0.1-1.7,0.2C62.2,261,55.7,256,48,256c-7.7,0-14.2,5-16.3,12.2c-0.6-0.1-1.2-0.2-1.7-0.2
		c-6.1,0-11,4.9-11,11s4.9,11,11,11h36c6.1,0,11-4.9,11-11S72.1,268,66,268z"/>
	<path class="st2" d="M51.1,291.6c-0.7-0.8-2.1-0.8-2.8,0c-0.6,0.7-5.9,7-5.9,12.1c0,1.9,0.6,3.6,1.8,5c0.9,1.1,2.6,2.3,5.5,2.3
		c4.8,0,7.3-3.7,7.3-7.3C57,298.7,51.7,292.3,51.1,291.6z M49.7,308.3L49.7,308.3l0,0.9L49.7,308.3z"/>
	<path class="st4" d="M-390,496c-0.5,0-1.1,0.1-1.7,0.2c-2.1-7.2-8.6-12.2-16.3-12.2c-7.7,0-14.2,5-16.3,12.2
		c-0.6-0.1-1.2-0.2-1.7-0.2c-6.1,0-11,4.9-11,11c0,6.1,4.9,11,11,11h36c6.1,0,11-4.9,11-11C-379,500.9-383.9,496-390,496z"/>
	<path class="st4" d="M66.8,495.4c-0.5,0-1.1,0.1-1.7,0.2C63,488.2,56.3,483,48.5,483c-7.8,0-14.5,5.2-16.6,12.5
		c-0.6-0.1-1.2-0.2-1.7-0.2c-6.2,0-11.2,5.1-11.2,11.3c0,6.2,5,11.3,11.2,11.3h36.6c6.2,0,11.2-5.1,11.2-11.3
		C78,500.4,73,495.4,66.8,495.4z"/>
	<path class="st4" d="M-47,495c-0.5,0-1.1,0.1-1.7,0.2C-50.8,488-57.3,483-65,483c-7.7,0-14.2,5-16.3,12.2c-0.6-0.1-1.2-0.2-1.7-0.2
		c-6.1,0-11,4.9-11,11c0,6.1,4.9,11,11,11h36c6.1,0,11-4.9,11-11C-36,499.9-40.9,495-47,495z"/>
	<g>
		<path class="st5" d="M-423,152h12c1.1,0,2-0.9,2-2s-0.9-2-2-2h-12c-1.1,0-2,0.9-2,2S-424.1,152-423,152z"/>
		<path class="st5" d="M-435,158h24c1.1,0,2-0.9,2-2s-0.9-2-2-2h-24c-1.1,0-2,0.9-2,2S-436.1,158-435,158z"/>
		<path class="st5" d="M-441,164h24c1.1,0,2-0.9,2-2s-0.9-2-2-2h-24c-1.1,0-2,0.9-2,2S-442.1,164-441,164z"/>
		<path class="st5" d="M-382,168c0-1.1-0.9-2-2-2h-60c-1.1,0-2,0.9-2,2s0.9,2,2,2h60C-382.9,170-382,169.1-382,168z"/>
		<path class="st5" d="M-384,172h-57c-1.1,0-2,0.9-2,2s0.9,2,2,2h57c1.1,0,2-0.9,2-2S-382.9,172-384,172z"/>
		<path class="st5" d="M-423,178l-12,0c-1.1,0-2,0.9-2,2c0,1.1,0.9,2,2,2l12,0c1.1,0,2-0.9,2-2S-421.9,178-423,178z"/>
		<path class="st5" d="M-404,158h8c1.1,0,2-0.9,2-2s-0.9-2-2-2h-8c-1.1,0-2,0.9-2,2S-405.1,158-404,158z"/>
		<path class="st5" d="M-413,162c0,1.1,0.9,2,2,2h21c1.1,0,2-0.9,2-2s-0.9-2-2-2h-21C-412.1,160-413,160.9-413,162z"/>
		<path class="st5" d="M-390,178l-27,0c-1.1,0-2,0.9-2,2s0.9,2,2,2l27,0c1.1,0,2-0.9,2-2C-388,178.9-388.9,178-390,178z"/>
	</g>
	<g>
		<path class="st1" d="M-308-744c0,2.4,0.7,4.9,1.9,7c0.4,0.6,1,1,1.7,1h20.8c0.7,0,1.4-0.4,1.7-1c1.2-2.1,1.9-4.6,1.9-7
			c0-7.7-6.3-14-14-14S-308-751.7-308-744z M-303.2-740C-303.2-740-303.2-740-303.2-740C-303.2-740-303.1-740-303.2-740L-303.2-740z
			 M-295.2-753.9c0.4-0.1,0.8-0.1,1.2-0.1c0.1,0,0.1,0,0.2,0C-294.3-754-294.8-754-295.2-753.9z"/>
		<polygon class="st1" points="-293.9,-770.4 -298.8,-761.9 -289,-761.9 		"/>
		<polygon class="st1" points="-311.9,-748.8 -320.4,-743.8 -311.9,-738.9 		"/>
		<polygon class="st1" points="-275.9,-738.9 -267.4,-743.8 -275.9,-748.8 		"/>
		<polygon class="st1" points="-277.2,-760.6 -282.7,-758.9 -278.9,-755.1 		"/>
		<polygon class="st1" points="-309,-755.1 -305.2,-758.9 -310.7,-760.6 		"/>
	</g>
	<g>
		<path class="st1" d="M-167.7-744.6c-2.4-4.4-7-7.4-12.3-7.4c-7.7,0-14,6.3-14,14c0,1.1,0.9,2,2,2h24c1.1,0,2-0.9,2-2
			c0-2-0.4-3.9-1.2-5.6C-167.3-744-167.5-744.3-167.7-744.6z"/>
		<path class="st1" d="M-189.3-733.9L-189.3-733.9C-189.3-733.9-189.3-733.9-189.3-733.9C-189.3-733.9-189.3-733.9-189.3-733.9z"/>
		<polygon class="st1" points="-180.1,-764.2 -185,-755.7 -175.2,-755.7 		"/>
		<polygon class="st1" points="-168.9,-752.8 -165,-748.9 -163.3,-754.5 		"/>
		<polygon class="st1" points="-196.9,-754.5 -195.2,-748.9 -191.3,-752.8 		"/>
	</g>
	<g>
		<path class="st1" d="M-66-746c-5,0-9.6,2.7-12.1,7c-0.4,0.6-0.4,1.4,0,2c0.4,0.6,1,1,1.7,1h20.8c0.7,0,1.4-0.4,1.7-1
			c0.4-0.6,0.4-1.4,0-2C-56.4-743.3-61-746-66-746z M-66.2-742c0.1,0,0.1,0,0.2,0c0,0,0.1,0,0.1,0C-66-742-66.1-742-66.2-742z"/>
		<path class="st1" d="M-75.2-727.8L-75.2-727.8C-75.2-727.8-75.2-727.8-75.2-727.8C-75.2-727.8-75.2-727.8-75.2-727.8z"/>
		<polygon class="st1" points="-66,-758.2 -70.9,-749.7 -61.1,-749.7 		"/>
		<polygon class="st1" points="-54.8,-746.7 -51,-742.9 -49.3,-748.4 		"/>
		<polygon class="st1" points="-82.8,-748.4 -81.1,-742.9 -77.3,-746.7 		"/>
	</g>
	<g>
		<path class="st1" d="M-80.1-65.6c0,2.4,0.7,4.9,1.9,7c0.4,0.6,1,1,1.7,1h20.8c0.7,0,1.4-0.4,1.7-1c1.2-2.1,1.9-4.6,1.9-7
			c0-7.7-6.3-14-14-14S-80.1-73.4-80.1-65.6z M-75.2-61.6C-75.3-61.7-75.3-61.7-75.2-61.6C-75.2-61.7-75.2-61.7-75.2-61.6
			L-75.2-61.6z M-67.3-75.6c0.4-0.1,0.8-0.1,1.2-0.1c0.1,0,0.1,0,0.2,0C-66.4-75.6-66.9-75.6-67.3-75.6z"/>
		<polygon class="st1" points="-66,-92 -70.9,-83.5 -61.1,-83.5 		"/>
		<polygon class="st1" points="-84,-70.4 -92.5,-65.5 -84,-60.6 		"/>
		<polygon class="st1" points="-48,-60.6 -39.5,-65.5 -48,-70.4 		"/>
		<polygon class="st1" points="-49.3,-82.3 -54.8,-80.6 -51,-76.7 		"/>
		<polygon class="st1" points="-81.1,-76.7 -77.3,-80.6 -82.8,-82.3 		"/>
	</g>
	<g>
		<path class="st1" d="M34.1-66c0,2.4,0.7,4.9,1.9,7c0.4,0.6,1,1,1.7,1h20.8c0.7,0,1.4-0.4,1.7-1c1.2-2.1,1.9-4.6,1.9-7
			c0-7.7-6.3-14-14-14S34.1-73.7,34.1-66z M38.9-62C38.9-62,38.9-62,38.9-62C38.9-62,39-62,38.9-62L38.9-62z M46.8-75.9
			c0.4-0.1,0.8-0.1,1.2-0.1c0.1,0,0.1,0,0.2,0C47.8-76,47.3-76,46.8-75.9z"/>
		<polygon class="st1" points="48.1,-92.4 43.2,-83.9 53,-83.9 		"/>
		<polygon class="st1" points="30.1,-70.8 21.7,-65.8 30.1,-60.9 		"/>
		<polygon class="st1" points="66.2,-60.9 74.7,-65.8 66.2,-70.8 		"/>
		<polygon class="st1" points="64.9,-82.6 59.3,-80.9 63.2,-77.1 		"/>
		<polygon class="st1" points="33.1,-77.1 36.9,-80.9 31.3,-82.6 		"/>
	</g>
	<g>
		<path class="st4" d="M-162,496c-0.5,0-1.1,0.1-1.7,0.2c-2.1-7.2-8.6-12.2-16.3-12.2c-7.7,0-14.2,5-16.3,12.2
			c-0.6-0.1-1.2-0.2-1.7-0.2c-6.1,0-11,4.9-11,11c0,6.1,4.9,11,11,11h36c6.1,0,11-4.9,11-11C-151,500.9-155.9,496-162,496z"/>
		<g>
			<path class="st5" d="M-166.2,523l-30,0c-1.1,0-2,0.9-2,2c0,1.1,0.9,2,2,2l30,0c3.9,0,7,3.1,7,7s-3.1,7-7,7c-1.1,0-2,0.9-2,2
				s0.9,2,2,2c6.1,0,11-4.9,11-11S-160.1,523-166.2,523z"/>
			<path class="st5" d="M-172.2,529h-24c-1.1,0-2,0.9-2,2s0.9,2,2,2h24c0.6,0,1,0.4,1,1s-0.4,1-1,1c-1.1,0-2,0.9-2,2s0.9,2,2,2
				c2.8,0,5-2.2,5-5S-169.4,529-172.2,529z"/>
			<path class="st5" d="M-151.2,515c-1.1,0-2,0.9-2,2s0.9,2,2,2c0.6,0,1,0.4,1,1s-0.4,1-1,1h-4c-1.1,0-2,0.9-2,2s0.9,2,2,2h4
				c2.8,0,5-2.2,5-5S-148.4,515-151.2,515z"/>
			<path class="st5" d="M-196.2,521l33,0c4.4,0,8-3.6,8-8c0-4.4-3.6-8-8-8s-8,3.6-8,8c0,1.1,0.9,2,2,2c1.1,0,2-0.9,2-2
				c0-2.2,1.8-4,4-4s4,1.8,4,4c0,2.2-1.8,4-4,4l-33,0c-1.1,0-2,0.9-2,2C-198.2,520.1-197.3,521-196.2,521z"/>
		</g>
	</g>
	<g>
		<path class="st5" d="M-51.5,522l-30,0c-1.1,0-2,0.9-2,2c0,1.1,0.9,2,2,2l30,0c3.9,0,7,3.1,7,7s-3.1,7-7,7c-1.1,0-2,0.9-2,2
			s0.9,2,2,2c6.1,0,11-4.9,11-11S-45.4,522-51.5,522z"/>
		<path class="st5" d="M-57.5,528h-24c-1.1,0-2,0.9-2,2s0.9,2,2,2h24c0.6,0,1,0.4,1,1s-0.4,1-1,1c-1.1,0-2,0.9-2,2s0.9,2,2,2
			c2.8,0,5-2.2,5-5S-54.7,528-57.5,528z"/>
		<path class="st5" d="M-36.5,514c-1.1,0-2,0.9-2,2s0.9,2,2,2c0.6,0,1,0.4,1,1s-0.4,1-1,1h-4c-1.1,0-2,0.9-2,2s0.9,2,2,2h4
			c2.8,0,5-2.2,5-5S-33.7,514-36.5,514z"/>
		<path class="st5" d="M-81.5,520l33,0c4.4,0,8-3.6,8-8c0-4.4-3.6-8-8-8c-4.4,0-8,3.6-8,8c0,1.1,0.9,2,2,2c1.1,0,2-0.9,2-2
			c0-2.2,1.8-4,4-4c2.2,0,4,1.8,4,4c0,2.2-1.8,4-4,4l-33,0c-1.1,0-2,0.9-2,2C-83.5,519.1-82.6,520-81.5,520z"/>
	</g>
	<g>
		<path class="st5" d="M63.3,522l-30,0c-1.1,0-2,0.9-2,2c0,1.1,0.9,2,2,2l30,0c3.9,0,7,3.1,7,7s-3.1,7-7,7c-1.1,0-2,0.9-2,2
			s0.9,2,2,2c6.1,0,11-4.9,11-11S69.3,522,63.3,522z"/>
		<path class="st5" d="M57.3,528h-24c-1.1,0-2,0.9-2,2s0.9,2,2,2h24c0.6,0,1,0.4,1,1s-0.4,1-1,1c-1.1,0-2,0.9-2,2s0.9,2,2,2
			c2.8,0,5-2.2,5-5S60,528,57.3,528z"/>
		<path class="st5" d="M78.3,514c-1.1,0-2,0.9-2,2s0.9,2,2,2c0.6,0,1,0.4,1,1s-0.4,1-1,1h-4c-1.1,0-2,0.9-2,2s0.9,2,2,2h4
			c2.8,0,5-2.2,5-5S81,514,78.3,514z"/>
		<path class="st5" d="M33.3,520l33,0c4.4,0,8-3.6,8-8c0-4.4-3.6-8-8-8c-4.4,0-8,3.6-8,8c0,1.1,0.9,2,2,2s2-0.9,2-2c0-2.2,1.8-4,4-4
			c2.2,0,4,1.8,4,4c0,2.2-1.8,4-4,4l-33,0c-1.1,0-2,0.9-2,2C31.3,519.1,32.2,520,33.3,520z"/>
	</g>
</g>
</svg>
