<?xml version="1.0" encoding="utf-8"?>
<!-- Generator: Adobe Illustrator 19.2.0, SVG Export Plug-In . SVG Version: 6.00 Build 0)  -->
<svg version="1.1" xmlns="http://www.w3.org/2000/svg" xmlns:xlink="http://www.w3.org/1999/xlink" x="0px" y="0px"
	 viewBox="0 0 96 96" style="enable-background:new 0 0 96 96;" xml:space="preserve">
<style type="text/css">
	.st0{display:none;}
	.st1{fill:#FFCC00;}
	.st2{fill:#5AC8FA;}
	.st3{fill:#5856D6;}
	.st4{fill:#007AFF;}
	.st5{fill:#FF9500;}
	.st6{fill:#FF3B30;}
</style>
<g id="Base" class="st0">
</g>
<g id="Dibujo">
	<g>
		<polyline class="st1" points="39.7,-168.9 32.7,-155.8 37.9,-155.8 32.1,-144.4 44.3,-158.6 38.1,-158.5 47,-168.9 		"/>
		<polyline class="st1" points="52.5,-173.8 45.5,-160.7 50.7,-160.7 44.9,-149.3 57.1,-163.5 50.9,-163.4 59.8,-173.8 		"/>
	</g>
	<g>
		<path class="st2" d="M-296.5,510v18c0,1.1,0.9,2,2,2c1.1,0,2-0.9,2-2v-18c0-1.1-0.9-2-2-2C-295.6,508-296.5,508.9-296.5,510z"/>
		<path class="st2" d="M-319.5,529h-2c-1.1,0-2,0.9-2,2v2c0,1.1,0.9,2,2,2h2c1.1,0,2-0.9,2-2v-2C-317.5,529.9-318.4,529-319.5,529z"
			/>
		<path class="st2" d="M-293.5,534h-2c-1.1,0-2,0.9-2,2v2c0,1.1,0.9,2,2,2h2c1.1,0,2-0.9,2-2v-2C-291.5,534.9-292.4,534-293.5,534z"
			/>
		<path class="st2" d="M-266.5,526h-2c-1.1,0-2,0.9-2,2v2c0,1.1,0.9,2,2,2h2c1.1,0,2-0.9,2-2v-2C-264.5,526.9-265.4,526-266.5,526z"
			/>
		<path class="st2" d="M-303.5,514c-1.1,0-2,0.9-2,2v15.1c-1.2-0.7-2.5-1.1-4-1.1h-2c-1.1,0-2,0.9-2,2s0.9,2,2,2h2c2.2,0,4,1.8,4,4
			c0,1.1,0.9,2,2,2s2-0.9,2-2v-22C-301.5,514.9-302.4,514-303.5,514z"/>
		<path class="st2" d="M-276.5,527c-2.7,0-5.1,0.9-7,2.5V516c0-1.1-0.9-2-2-2c-1.1,0-2,0.9-2,2v22c0,0,0,0,0,0c0,1.1,0.9,2,2,2
			c1.1,0,2-0.9,2-2v0c0-3.9,3.1-7,7-7c1.1,0,2-0.9,2-2S-275.4,527-276.5,527z"/>
	</g>
	<g>
		<path class="st1" d="M60.2,478c-7.7,0-14,6.3-14,14s6.3,14,14,14s14-6.3,14-14S67.9,478,60.2,478z"/>
		<polygon class="st1" points="60.2,465.5 65.1,474 55.3,474 		"/>
		<polygon class="st1" points="86.8,492 78.3,496.9 78.3,487.1 		"/>
		<polygon class="st1" points="77,475.2 75.3,480.8 71.4,476.9 		"/>
		<polygon class="st1" points="43.4,475.2 49,476.9 45.1,480.8 		"/>
	</g>
	<g>
		<path class="st1" d="M173.9,364c-7.7,0-14,6.3-14,14s6.3,14,14,14c7.7,0,14-6.3,14-14S181.6,364,173.9,364z"/>
		<polygon class="st1" points="173.9,351.5 178.8,360 169,360 		"/>
		<polygon class="st1" points="200.4,378 192,382.9 192,373.1 		"/>
		<polygon class="st1" points="190.6,361.2 188.9,366.8 185.1,362.9 		"/>
		<polygon class="st1" points="157.1,361.2 162.6,362.9 158.8,366.8 		"/>
	</g>
	<g>
		<path class="st2" d="M-178,407.9v-12c0-1.1-0.9-2-2-2s-2,0.9-2,2v12c0,1.1,0.9,2,2,2S-178,409-178,407.9z"/>
		<path class="st2" d="M-187,413.9v-12c0-1.1-0.9-2-2-2c-1.1,0-2,0.9-2,2v12c0,1.1,0.9,2,2,2C-187.9,415.9-187,415-187,413.9z"/>
		<path class="st2" d="M-169,413.9v-12c0-1.1-0.9-2-2-2c-1.1,0-2,0.9-2,2v12c0,1.1,0.9,2,2,2C-169.9,415.9-169,415-169,413.9z"/>
		<path class="st2" d="M-188,419.9h-2c-1.1,0-2,0.9-2,2v2c0,1.1,0.9,2,2,2h2c1.1,0,2-0.9,2-2v-2C-186,420.8-186.9,419.9-188,419.9z"
			/>
		<path class="st2" d="M-179,413.9h-2c-1.1,0-2,0.9-2,2v2c0,1.1,0.9,2,2,2h2c1.1,0,2-0.9,2-2v-2C-177,414.8-177.9,413.9-179,413.9z"
			/>
		<path class="st2" d="M-170,419.9h-2c-1.1,0-2,0.9-2,2v2c0,1.1,0.9,2,2,2h2c1.1,0,2-0.9,2-2v-2C-168,420.8-168.9,419.9-170,419.9z"
			/>
	</g>
	<g>
		<path class="st1" d="M-167.9,364c-7.7,0-14,6.3-14,14s6.3,14,14,14s14-6.3,14-14S-160.2,364-167.9,364z"/>
		<polygon class="st1" points="-167.9,351.5 -163,360 -172.8,360 		"/>
		<polygon class="st1" points="-141.3,378 -149.8,382.9 -149.8,373.1 		"/>
		<polygon class="st1" points="-151.1,361.2 -152.8,366.8 -156.7,362.9 		"/>
		<polygon class="st1" points="-184.7,361.2 -179.1,362.9 -183,366.8 		"/>
	</g>
	<g>
		<path class="st1" d="M-282.2,250.1c-7.7,0-14,6.3-14,14c0,7.7,6.3,14,14,14s14-6.3,14-14C-268.2,256.3-274.5,250.1-282.2,250.1z"
			/>
		<polygon class="st1" points="-282.2,237.6 -277.3,246 -287.1,246 		"/>
		<polygon class="st1" points="-255.6,264.1 -264.1,269 -264.1,259.2 		"/>
		<polygon class="st1" points="-265.4,247.3 -267.2,252.8 -271,249 		"/>
		<polygon class="st1" points="-299,247.3 -293.4,249 -297.3,252.8 		"/>
	</g>
	<g>
		<path class="st1" d="M60,250c-7.7,0-14,6.3-14,14s6.3,14,14,14s14-6.3,14-14S67.7,250,60,250z"/>
		<polygon class="st1" points="60,237.5 64.9,246 55.1,246 		"/>
		<polygon class="st1" points="86.6,264 78.1,268.9 78.1,259.1 		"/>
		<polygon class="st1" points="76.8,247.2 75,252.8 71.2,248.9 		"/>
		<polygon class="st1" points="43.2,247.2 48.8,248.9 44.9,252.8 		"/>
	</g>
	<g>
		<path class="st1" d="M-53.8,136c-7.7,0-14,6.3-14,14s6.3,14,14,14s14-6.3,14-14S-46,136-53.8,136z"/>
		<polygon class="st1" points="-53.7,123.5 -48.8,132 -58.6,132 		"/>
		<polygon class="st1" points="-27.2,150 -35.7,154.9 -35.7,145.1 		"/>
		<polygon class="st1" points="-37,133.2 -38.7,138.8 -42.5,134.9 		"/>
		<polygon class="st1" points="-70.5,133.2 -65,134.9 -68.8,138.8 		"/>
	</g>
	<g>
		<path class="st1" d="M-168,22c-7.7,0-14,6.3-14,14s6.3,14,14,14c7.7,0,14-6.3,14-14S-160.3,22-168,22z"/>
		<polygon class="st1" points="-168,9.5 -163,18 -172.9,18 		"/>
		<polygon class="st1" points="-141.4,36 -149.9,40.9 -149.9,31.1 		"/>
		<polygon class="st1" points="-151.2,19.2 -152.9,24.8 -156.8,20.9 		"/>
		<polygon class="st1" points="-184.8,19.2 -179.2,20.9 -183,24.8 		"/>
	</g>
	<g>
		<path class="st1" d="M-167.9-92c-7.7,0-14,6.3-14,14s6.3,14,14,14s14-6.3,14-14S-160.2-92-167.9-92z"/>
		<polygon class="st1" points="-167.9,-104.5 -163,-96 -172.8,-96 		"/>
		<polygon class="st1" points="-141.3,-78 -149.8,-73.1 -149.8,-82.9 		"/>
		<polygon class="st1" points="-151.1,-94.8 -152.8,-89.2 -156.7,-93.1 		"/>
		<polygon class="st1" points="-184.7,-94.8 -179.1,-93.1 -183,-89.2 		"/>
	</g>
	<g>
		<path class="st1" d="M-281.8-206c-7.7,0-14,6.3-14,14s6.3,14,14,14s14-6.3,14-14S-274.1-206-281.8-206z"/>
		<polygon class="st1" points="-281.8,-218.5 -276.9,-210 -286.7,-210 		"/>
		<polygon class="st1" points="-255.2,-192 -263.7,-187.1 -263.7,-196.9 		"/>
		<polygon class="st1" points="-265,-208.8 -266.8,-203.2 -270.6,-207.1 		"/>
		<polygon class="st1" points="-298.6,-208.8 -293,-207.1 -296.9,-203.2 		"/>
	</g>
	<g>
		<path class="st1" d="M59.9-206c-7.7,0-14,6.3-14,14s6.3,14,14,14s14-6.3,14-14S67.6-206,59.9-206z"/>
		<polygon class="st1" points="59.9,-218.5 64.9,-210 55,-210 		"/>
		<polygon class="st1" points="86.5,-192 78,-187.1 78,-196.9 		"/>
		<polygon class="st1" points="76.7,-208.8 75,-203.2 71.1,-207.1 		"/>
		<polygon class="st1" points="43.1,-208.8 48.7,-207.1 44.9,-203.2 		"/>
	</g>
	<g>
		<path class="st1" d="M-54-320c-7.7,0-14,6.3-14,14s6.3,14,14,14s14-6.3,14-14S-46.3-320-54-320z"/>
		<polygon class="st1" points="-53.9,-332.5 -49,-324 -58.8,-324 		"/>
		<polygon class="st1" points="-27.4,-306 -35.9,-301.1 -35.9,-310.9 		"/>
		<polygon class="st1" points="-37.2,-322.8 -38.9,-317.2 -42.7,-321.1 		"/>
		<polygon class="st1" points="-70.7,-322.8 -65.2,-321.1 -69,-317.2 		"/>
	</g>
	<g>
		<path class="st1" d="M173.9-434c-7.7,0-14,6.3-14,14s6.3,14,14,14s14-6.3,14-14S181.7-434,173.9-434z"/>
		<polygon class="st1" points="174,-446.5 178.9,-438 169.1,-438 		"/>
		<polygon class="st1" points="200.5,-420 192,-415.1 192,-424.9 		"/>
		<polygon class="st1" points="190.7,-436.7 189,-431.2 185.2,-435 		"/>
		<polygon class="st1" points="157.2,-436.7 162.7,-435 158.9,-431.2 		"/>
	</g>
	<g>
		<path class="st1" d="M-168.2-434c-7.7,0-14,6.3-14,14s6.3,14,14,14c7.7,0,14-6.3,14-14S-160.4-434-168.2-434z"/>
		<polygon class="st1" points="-168.1,-446.5 -163.2,-438 -173,-438 		"/>
		<polygon class="st1" points="-141.6,-420 -150.1,-415.1 -150.1,-424.9 		"/>
		<polygon class="st1" points="-151.4,-436.7 -153.1,-431.2 -156.9,-435 		"/>
		<polygon class="st1" points="-184.9,-436.7 -179.4,-435 -183.2,-431.2 		"/>
	</g>
	<path class="st3" d="M-279.5,475.4c0-1.2,0.2-2.3,0.6-3.4c-1-0.2-2-0.3-3-0.3c-7.7,0-14,6.3-14,14c0,7.7,6.3,14,14,14
		c7.7,0,13.9-6.2,14-13.8c-0.3,0-0.7,0.1-1,0.1C-274.8,485.9-279.5,481.2-279.5,475.4z"/>
	<path class="st3" d="M176.5,475.7c0-1.2,0.2-2.3,0.6-3.4c-1-0.2-2-0.3-3-0.3c-7.7,0-14,6.3-14,14s6.3,14,14,14
		c7.7,0,13.9-6.2,14-13.8c-0.3,0-0.7,0.1-1,0.1C181.2,486.3,176.5,481.5,176.5,475.7z"/>
	<path class="st3" d="M-51.5,361.4c0-1.2,0.2-2.3,0.6-3.4c-1-0.2-2-0.3-3-0.3c-7.7,0-14,6.3-14,14c0,7.7,6.3,14,14,14
		c7.7,0,13.9-6.2,14-13.8c-0.3,0-0.7,0.1-1,0.1C-46.8,371.9-51.5,367.2-51.5,361.4z"/>
	<path class="st3" d="M176.6,247.7c0-1.2,0.2-2.3,0.6-3.4c-1-0.2-2-0.3-3-0.3c-7.7,0-14,6.3-14,14s6.3,14,14,14
		c7.7,0,13.9-6.2,14-13.8c-0.3,0-0.7,0.1-1,0.1C181.3,258.3,176.6,253.5,176.6,247.7z"/>
	<path class="st3" d="M-165.5,247.7c0-1.2,0.2-2.3,0.6-3.4c-1-0.2-2-0.3-3-0.3c-7.7,0-14,6.3-14,14s6.3,14,14,14
		c7.7,0,13.9-6.2,14-13.8c-0.3,0-0.7,0.1-1,0.1C-160.8,258.3-165.5,253.5-165.5,247.7z"/>
	<path class="st3" d="M-282.5,139.7c0-1.2,0.2-2.3,0.6-3.4c-1-0.2-2-0.3-3-0.3c-7.7,0-14,6.3-14,14s6.3,14,14,14
		c7.7,0,13.9-6.2,14-13.8c-0.3,0-0.7,0.1-1,0.1C-277.8,150.3-282.5,145.5-282.5,139.7z"/>
	<path class="st3" d="M-51.5,19.7c0-1.2,0.2-2.3,0.6-3.4c-1-0.2-2-0.3-3-0.3c-7.7,0-14,6.3-14,14s6.3,14,14,14
		c7.7,0,13.9-6.2,14-13.8c-0.3,0-0.7,0.1-1,0.1C-46.8,30.3-51.5,25.5-51.5,19.7z"/>
	<path class="st3" d="M62.5,133.7c0-1.2,0.2-2.3,0.6-3.4c-1-0.2-2-0.3-3-0.3c-7.7,0-14,6.3-14,14s6.3,14,14,14
		c7.7,0,13.9-6.2,14-13.8c-0.3,0-0.7,0.1-1,0.1C67.2,144.3,62.5,139.5,62.5,133.7z"/>
	<path class="st3" d="M-51.5-94.3c0-1.2,0.2-2.3,0.6-3.4c-1-0.2-2-0.3-3-0.3c-7.7,0-14,6.3-14,14s6.3,14,14,14
		c7.7,0,13.9-6.2,14-13.8c-0.3,0-0.7,0.1-1,0.1C-46.8-83.7-51.5-88.5-51.5-94.3z"/>
	<path class="st3" d="M-165.5-208.3c0-1.2,0.2-2.3,0.6-3.4c-1-0.2-2-0.3-3-0.3c-7.7,0-14,6.3-14,14s6.3,14,14,14
		c7.7,0,13.9-6.2,14-13.8c-0.3,0-0.7,0.1-1,0.1C-160.8-197.7-165.5-202.5-165.5-208.3z"/>
	<path class="st3" d="M176.6-208.3c0-1.2,0.2-2.3,0.6-3.4c-1-0.2-2-0.3-3-0.3c-7.7,0-14,6.3-14,14s6.3,14,14,14
		c7.7,0,13.9-6.2,14-13.8c-0.3,0-0.7,0.1-1,0.1C181.3-197.7,176.6-202.5,176.6-208.3z"/>
	<path class="st3" d="M-279.5-322.3c0-1.2,0.2-2.3,0.6-3.4c-1-0.2-2-0.3-3-0.3c-7.7,0-14,6.3-14,14s6.3,14,14,14
		c7.7,0,13.9-6.2,14-13.8c-0.3,0-0.7,0.1-1,0.1C-274.8-311.7-279.5-316.5-279.5-322.3z"/>
	<path class="st3" d="M-51.6-436.3c0-1.2,0.2-2.3,0.6-3.4c-1-0.2-2-0.3-3-0.3c-7.7,0-14,6.3-14,14s6.3,14,14,14
		c7.7,0,13.9-6.2,14-13.8c-0.3,0-0.7,0.1-1,0.1C-46.9-425.7-51.6-430.5-51.6-436.3z"/>
	<path class="st3" d="M62.5-322.3c0-1.2,0.2-2.3,0.6-3.4c-1-0.2-2-0.3-3-0.3c-7.7,0-14,6.3-14,14s6.3,14,14,14
		c7.7,0,13.9-6.2,14-13.8c-0.3,0-0.7,0.1-1,0.1C67.2-311.7,62.5-316.5,62.5-322.3z"/>
	<path class="st3" d="M164.4-760.2c0-1.2,0.2-2.3,0.6-3.4c-1-0.2-2-0.3-3-0.3c-7.7,0-14,6.3-14,14c0,7.7,6.3,14,14,14
		c7.7,0,13.9-6.2,14-13.8c-0.3,0-0.7,0.1-1,0.1C169.1-749.7,164.4-754.4,164.4-760.2z"/>
	<g>
		<path class="st2" d="M-66-278c-1.1,0-2,0.9-2,2v18c0,1.1,0.9,2,2,2c1.1,0,2-0.9,2-2v-18C-64-277.1-64.9-278-66-278z"/>
		<path class="st2" d="M-38.3-296.2c-0.3-0.6-0.7-1.2-1.2-1.8c-1.3-1.6-3.2-2.9-5.2-3.5c-1-0.3-2.1-0.5-3.3-0.5
			c-0.5,0-1.1,0.1-1.7,0.2C-51.8-309-58.3-314-66-314c-7.7,0-14.2,5-16.3,12.2c-0.6-0.1-1.2-0.2-1.7-0.2c-1.1,0-2.2,0.2-3.3,0.5
			c-2.1,0.6-3.9,1.9-5.2,3.5c-0.4,0.5-0.8,1.1-1.2,1.8c-0.8,1.6-1.3,3.3-1.3,5.2s0.5,3.7,1.3,5.2c0.3,0.6,0.7,1.2,1.2,1.8
			c1.3,1.6,3.2,2.9,5.2,3.5c1,0.3,2.1,0.5,3.3,0.5h7v16c0,1.1,0.9,2,2,2c1.1,0,2-0.9,2-2v-16h14v16c0,1.1,0.9,2,2,2c1.1,0,2-0.9,2-2
			v-16h7c1.1,0,2.2-0.2,3.3-0.5c2.1-0.6,3.9-1.9,5.2-3.5c0.4-0.5,0.8-1.1,1.2-1.8c0.8-1.6,1.3-3.3,1.3-5.2S-37.5-294.7-38.3-296.2z"
			/>
	</g>
	<path class="st4" d="M-276-416c-0.5,0-1.1,0.1-1.7,0.2c-2.1-7.2-8.6-12.2-16.3-12.2c-7.7,0-14.2,5-16.3,12.2
		c-0.6-0.1-1.2-0.2-1.7-0.2c-6.1,0-11,4.9-11,11s4.9,11,11,11h36c6.1,0,11-4.9,11-11S-269.9-416-276-416z"/>
	<path class="st3" d="M-294-650c-7.7,0-14,6.3-14,14s6.3,14,14,14s14-6.3,14-14S-286.3-650-294-650z"/>
	<path class="st3" d="M-180-650c-7.7,0-14,6.3-14,14s6.3,14,14,14s14-6.3,14-14S-172.3-650-180-650z M-179.3-626
		c3.2-2.1,5.3-5.8,5.3-10s-2.1-7.8-5.3-10c5.2,0.3,9.3,4.7,9.3,10S-174.1-626.4-179.3-626z"/>
	<path class="st3" d="M-66-536c-7.7,0-14,6.3-14,14s6.3,14,14,14c7.7,0,14-6.3,14-14S-58.3-536-66-536z M-76-522
		c0-5.3,4.1-9.6,9.3-10c-3.2,2.1-5.3,5.8-5.3,10s2.1,7.8,5.3,10C-71.9-512.4-76-516.7-76-522z"/>
	<path class="st3" d="M-66-650c-7.7,0-14,6.3-14,14s6.3,14,14,14c7.7,0,14-6.3,14-14S-58.3-650-66-650z M-66-626v-20
		c5.5,0,10,4.5,10,10S-60.5-626-66-626z"/>
	<path class="st3" d="M-180-536c-7.7,0-14,6.3-14,14s6.3,14,14,14s14-6.3,14-14S-172.3-536-180-536z M-190-522c0-5.5,4.5-10,10-10
		v20C-185.5-512-190-516.5-190-522z"/>
	<path class="st3" d="M48-650c-7.7,0-14,6.3-14,14s6.3,14,14,14c7.7,0,14-6.3,14-14S55.7-650,48-650z M48-626c-0.2,0-0.4,0-0.7,0
		c-3.2-2.1-5.3-5.8-5.3-10s2.1-7.8,5.3-10c0.2,0,0.4,0,0.7,0c5.5,0,10,4.5,10,10S53.5-626,48-626z"/>
	<path class="st3" d="M-294-536c-7.7,0-14,6.3-14,14s6.3,14,14,14s14-6.3,14-14S-286.3-536-294-536z M-304-522c0-5.5,4.5-10,10-10
		c0.2,0,0.4,0,0.7,0c3.2,2.1,5.3,5.8,5.3,10s-2.1,7.8-5.3,10c-0.2,0-0.4,0-0.7,0C-299.5-512-304-516.5-304-522z"/>
	<path class="st3" d="M162-650c-7.7,0-14,6.3-14,14s6.3,14,14,14c7.7,0,14-6.3,14-14S169.7-650,162-650z M162-626
		c-5.5,0-10-4.5-10-10s4.5-10,10-10c5.5,0,10,4.5,10,10S167.5-626,162-626z"/>
	<path class="st4" d="M50-547.9v-2.1c0-1.1-0.9-2-2-2c-1.1,0-2,0.9-2,2v2.1c-13.4,1-24,12.3-24,25.9c0,1.1,0.9,2,2,2
		c1.1,0,2-0.9,2-2c0-2.2,1.8-4,4-4c2.2,0,4,1.8,4,4c0,1.1,0.9,2,2,2c1.1,0,2-0.9,2-2c0-2.2,1.8-4,4-4c2.2,0,4,1.8,4,4v21
		c0,2.8,2.2,5,5,5c2.8,0,5-2.2,5-5c0-1.1-0.9-2-2-2c-1.1,0-2,0.9-2,2c0,0.6-0.4,1-1,1c-0.6,0-1-0.4-1-1v-21c0-2.2,1.8-4,4-4
		c2.2,0,4,1.8,4,4c0,1.1,0.9,2,2,2c1.1,0,2-0.9,2-2c0-2.2,1.8-4,4-4c2.2,0,4,1.8,4,4c0,1.1,0.9,2,2,2c1.1,0,2-0.9,2-2
		C74-535.7,63.4-546.9,50-547.9z"/>
	<g>
		<path class="st5" d="M39,38h12c1.1,0,2-0.9,2-2s-0.9-2-2-2H39c-1.1,0-2,0.9-2,2S37.9,38,39,38z"/>
		<path class="st5" d="M27,44h24c1.1,0,2-0.9,2-2s-0.9-2-2-2H27c-1.1,0-2,0.9-2,2S25.9,44,27,44z"/>
		<path class="st5" d="M21,50h24c1.1,0,2-0.9,2-2s-0.9-2-2-2H21c-1.1,0-2,0.9-2,2S19.9,50,21,50z"/>
		<path class="st5" d="M80,54c0-1.1-0.9-2-2-2H18c-1.1,0-2,0.9-2,2s0.9,2,2,2h60C79.1,56,80,55.1,80,54z"/>
		<path class="st5" d="M78,58H21c-1.1,0-2,0.9-2,2s0.9,2,2,2h57c1.1,0,2-0.9,2-2S79.1,58,78,58z"/>
		<path class="st5" d="M39,64l-12,0c-1.1,0-2,0.9-2,2s0.9,2,2,2l12,0c1.1,0,2-0.9,2-2S40.1,64,39,64z"/>
		<path class="st5" d="M58,44h8c1.1,0,2-0.9,2-2s-0.9-2-2-2h-8c-1.1,0-2,0.9-2,2S56.9,44,58,44z"/>
		<path class="st5" d="M49,48c0,1.1,0.9,2,2,2h21c1.1,0,2-0.9,2-2s-0.9-2-2-2H51C49.9,46,49,46.9,49,48z"/>
		<path class="st5" d="M72,64l-27,0c-1.1,0-2,0.9-2,2s0.9,2,2,2l27,0c1.1,0,2-0.9,2-2S73.1,64,72,64z"/>
	</g>
	<g>
		<path class="st2" d="M-207,167c1.1,0,2-0.9,2-2c0-3.9,3.1-7,7-7c0.3,0,0.7,0.1,1.2,0.2v1.8c0,1.1,0.9,2,2,2c1.1,0,2-0.9,2-2v-3.2
			c1.1-6.3,6.4-10.8,12.8-10.8c6.4,0,11.7,4.5,12.8,10.8v3.2c0,1.1,0.9,2,2,2c1.1,0,2-0.9,2-2v-1.8c0.5-0.1,0.9-0.2,1.2-0.2
			c3.9,0,7,3.1,7,7c0,1.1,0.9,2,2,2c1.1,0,2-0.9,2-2c0-6.1-4.9-11-11-11c-0.5,0-1.1,0.1-1.7,0.2c-2.1-7.2-8.6-12.2-16.3-12.2
			c-7.7,0-14.2,5-16.3,12.2c-0.6-0.1-1.2-0.2-1.7-0.2c-6.1,0-11,4.9-11,11C-209,166.1-208.1,167-207,167z"/>
		<path class="st2" d="M-188,173c0,1.1,0.9,2,2,2h36c1.1,0,2-0.9,2-2s-0.9-2-2-2h-36C-187.1,171-188,171.9-188,173z"/>
		<path class="st2" d="M-180,178c-1.1,0-2,0.9-2,2s0.9,2,2,2h27c1.1,0,2-0.9,2-2s-0.9-2-2-2H-180z"/>
		<path class="st2" d="M-150,185h-24c-1.1,0-2,0.9-2,2s0.9,2,2,2h24c1.1,0,2-0.9,2-2S-148.9,185-150,185z"/>
		<path class="st2" d="M-210,175h18c1.1,0,2-0.9,2-2s-0.9-2-2-2h-18c-1.1,0-2,0.9-2,2S-211.1,175-210,175z"/>
		<path class="st2" d="M-207,178c-1.1,0-2,0.9-2,2s0.9,2,2,2h21c1.1,0,2-0.9,2-2s-0.9-2-2-2H-207z"/>
		<path class="st2" d="M-180,185h-30c-1.1,0-2,0.9-2,2s0.9,2,2,2h30c1.1,0,2-0.9,2-2S-178.9,185-180,185z"/>
	</g>
	<g>
		<path class="st2" d="M180,148c-0.5,0-1.1,0.1-1.7,0.2c-2.1-7.2-8.6-12.2-16.3-12.2c-7.7,0-14.2,5-16.3,12.2
			c-0.6-0.1-1.2-0.2-1.7-0.2c-6.1,0-11,4.9-11,11s4.9,11,11,11c1.1,0,2-0.9,2-2s-0.9-2-2-2c-3.9,0-7-3.1-7-7s3.1-7,7-7
			c0.3,0,0.7,0.1,1.2,0.2v1.8c0,1.1,0.9,2,2,2c1.1,0,2-0.9,2-2v-3.2c1.1-6.3,6.4-10.8,12.8-10.8c6.4,0,11.7,4.5,12.8,10.8v3.2
			c0,1.1,0.9,2,2,2c1.1,0,2-0.9,2-2v-1.8c0.5-0.1,0.9-0.2,1.2-0.2c3.9,0,7,3.1,7,7s-3.1,7-7,7c-1.1,0-2,0.9-2,2s0.9,2,2,2
			c6.1,0,11-4.9,11-11S186.1,148,180,148z"/>
		<path class="st2" d="M153.6,166.8c-0.8-1-2.4-1-3.2,0c-0.8,1.1-3.4,4.7-3.4,7.2c0,2.9,2.1,5,5,5c2.9,0,5-2.1,5-5
			C157,171.5,154.4,167.9,153.6,166.8z"/>
		<path class="st2" d="M170.4,166.8c-0.8,1.1-3.4,4.7-3.4,7.2c0,2.9,2.1,5,5,5c2.9,0,5-2.1,5-5c0-2.5-2.6-6.1-3.4-7.2
			C172.8,165.8,171.2,165.8,170.4,166.8z"/>
		<path class="st2" d="M160.4,178.8c-0.8,1.1-3.4,4.7-3.4,7.2c0,2.9,2.1,5,5,5c2.9,0,5-2.1,5-5c0-2.5-2.6-6.1-3.4-7.2
			C162.8,177.8,161.2,177.8,160.4,178.8z"/>
	</g>
	<g>
		<path d="M55.6,742.6l-5.6,5.6V735c0-1.1-0.9-2-2-2c-1.1,0-2,0.9-2,2v13.2l-5.6-5.6c-0.8-0.8-2-0.8-2.8,0c-0.8,0.8-0.8,2,0,2.8l9,9
			c0.1,0.1,0.2,0.2,0.3,0.3c0,0,0.1,0.1,0.1,0.1c0.1,0,0.1,0.1,0.2,0.1c0.1,0,0.1,0,0.2,0.1c0.1,0,0.1,0,0.2,0.1c0.1,0,0.3,0,0.4,0
			c0.1,0,0.3,0,0.4,0c0.1,0,0.1,0,0.2-0.1c0.1,0,0.1,0,0.2-0.1c0.1,0,0.1-0.1,0.2-0.1c0,0,0.1,0,0.1-0.1c0.1-0.1,0.2-0.2,0.3-0.3
			l9-9c0.8-0.8,0.8-2,0-2.8C57.6,741.8,56.4,741.8,55.6,742.6z"/>
		<path d="M66,724c-0.5,0-1.1,0.1-1.7,0.2C62.2,717,55.7,712,48,712c-7.7,0-14.2,5-16.3,12.2c-0.6-0.1-1.2-0.2-1.7-0.2
			c-6.1,0-11,4.9-11,11s4.9,11,11,11l2,0c1.1,0,2-0.9,2-2c0-1.1-0.9-2-2-2h0l-2,0c-3.9,0-7-3.1-7-7s3.1-7,7-7c0.3,0,0.7,0.1,1.2,0.2
			v1.8c0,1.1,0.9,2,2,2s2-0.9,2-2v-3.2c1.1-6.3,6.4-10.8,12.8-10.8c6.4,0,11.7,4.5,12.8,10.8v3.2c0,1.1,0.9,2,2,2s2-0.9,2-2v-1.8
			c0.5-0.1,0.9-0.2,1.2-0.2c3.9,0,7,3.1,7,7s-3.1,7-7,7l-2,0h0c-1.1,0-2,0.9-2,2c0,1.1,0.9,2,2,2l2,0c6.1,0,11-4.9,11-11
			S72.1,724,66,724z"/>
	</g>
	<g>
		<path d="M163.4,733.6c-0.1-0.1-0.2-0.2-0.3-0.3c0,0-0.1-0.1-0.1-0.1c-0.1,0-0.1-0.1-0.2-0.1c-0.1,0-0.1,0-0.2-0.1
			c-0.1,0-0.1,0-0.2-0.1c-0.3-0.1-0.5-0.1-0.8,0c-0.1,0-0.1,0-0.2,0.1c-0.1,0-0.1,0-0.2,0.1c-0.1,0-0.1,0.1-0.2,0.1
			c0,0-0.1,0-0.1,0.1c-0.1,0.1-0.2,0.2-0.3,0.3l-9,9c-0.8,0.8-0.8,2,0,2.8c0.8,0.8,2,0.8,2.8,0l5.6-5.6V753c0,1.1,0.9,2,2,2
			c1.1,0,2-0.9,2-2v-13.2l5.6,5.6c0.4,0.4,0.9,0.6,1.4,0.6c0.5,0,1-0.2,1.4-0.6c0.8-0.8,0.8-2,0-2.8L163.4,733.6z"/>
		<path d="M180,724c-0.5,0-1.1,0.1-1.7,0.2c-2.1-7.2-8.6-12.2-16.3-12.2c-7.7,0-14.2,5-16.3,12.2c-0.6-0.1-1.2-0.2-1.7-0.2
			c-6.1,0-11,4.9-11,11s4.9,11,11,11l2,0c1.1,0,2-0.9,2-2c0-1.1-0.9-2-2-2h0l-2,0c-3.9,0-7-3.1-7-7s3.1-7,7-7c0.3,0,0.7,0.1,1.2,0.2
			v1.8c0,1.1,0.9,2,2,2c1.1,0,2-0.9,2-2v-3.2c1.1-6.3,6.4-10.8,12.8-10.8c6.4,0,11.7,4.5,12.8,10.8v3.2c0,1.1,0.9,2,2,2
			c1.1,0,2-0.9,2-2v-1.8c0.5-0.1,0.9-0.2,1.2-0.2c3.9,0,7,3.1,7,7s-3.1,7-7,7l-2,0h0c-1.1,0-2,0.9-2,2c0,1.1,0.9,2,2,2l2,0
			c6.1,0,11-4.9,11-11S186.1,724,180,724z"/>
	</g>
	<g>
		<path class="st2" d="M160,396v18c0,1.1,0.9,2,2,2c1.1,0,2-0.9,2-2v-18c0-1.1-0.9-2-2-2C160.9,394,160,394.9,160,396z"/>
		<path class="st2" d="M137,415h-2c-1.1,0-2,0.9-2,2v2c0,1.1,0.9,2,2,2h2c1.1,0,2-0.9,2-2v-2C139,415.9,138.1,415,137,415z"/>
		<path class="st2" d="M163,420h-2c-1.1,0-2,0.9-2,2v2c0,1.1,0.9,2,2,2h2c1.1,0,2-0.9,2-2v-2C165,420.9,164.1,420,163,420z"/>
		<path class="st2" d="M190,412h-2c-1.1,0-2,0.9-2,2v2c0,1.1,0.9,2,2,2h2c1.1,0,2-0.9,2-2v-2C192,412.9,191.1,412,190,412z"/>
		<path class="st2" d="M153,400c-1.1,0-2,0.9-2,2v15.1c-1.2-0.7-2.5-1.1-4-1.1h-2c-1.1,0-2,0.9-2,2c0,1.1,0.9,2,2,2h2
			c2.2,0,4,1.8,4,4c0,1.1,0.9,2,2,2c1.1,0,2-0.9,2-2v-22C155,400.9,154.1,400,153,400z"/>
		<path class="st2" d="M180,413c-2.7,0-5.1,0.9-7,2.5V402c0-1.1-0.9-2-2-2c-1.1,0-2,0.9-2,2v22c0,0,0,0,0,0c0,1.1,0.9,2,2,2
			c1.1,0,2-0.9,2-2v0c0-3.9,3.1-7,7-7c1.1,0,2-0.9,2-2C182,413.9,181.1,413,180,413z"/>
	</g>
	<g>
		<path class="st5" d="M-174,502l-30,0c-1.1,0-2,0.9-2,2s0.9,2,2,2l30,0c3.9,0,7,3.1,7,7c0,3.9-3.1,7-7,7c-1.1,0-2,0.9-2,2
			s0.9,2,2,2c6.1,0,11-4.9,11-11C-163,506.9-167.9,502-174,502z"/>
		<path class="st5" d="M-180,508h-24c-1.1,0-2,0.9-2,2s0.9,2,2,2h24c0.6,0,1,0.4,1,1s-0.4,1-1,1c-1.1,0-2,0.9-2,2s0.9,2,2,2
			c2.8,0,5-2.2,5-5C-175,510.2-177.2,508-180,508z"/>
		<path class="st5" d="M-159,494c-1.1,0-2,0.9-2,2s0.9,2,2,2c0.6,0,1,0.4,1,1s-0.4,1-1,1h-4c-1.1,0-2,0.9-2,2s0.9,2,2,2h4
			c2.8,0,5-2.2,5-5S-156.2,494-159,494z"/>
		<path class="st5" d="M-204,500l33,0c4.4,0,8-3.6,8-8s-3.6-8-8-8s-8,3.6-8,8c0,1.1,0.9,2,2,2c1.1,0,2-0.9,2-2c0-2.2,1.8-4,4-4
			s4,1.8,4,4s-1.8,4-4,4l-33,0c-1.1,0-2,0.9-2,2S-205.1,500-204,500z"/>
	</g>
	<g>
		<path class="st5" d="M-318,596h42c1.1,0,2-0.9,2-2c0-1.1-0.9-2-2-2h-42c-1.1,0-2,0.9-2,2C-320,595.1-319.1,596-318,596z"/>
		<path class="st5" d="M-276,600h-39c-1.1,0-2,0.9-2,2s0.9,2,2,2h39c1.1,0,2-0.9,2-2S-274.9,600-276,600z"/>
		<path class="st5" d="M-280,610c0-1.1-0.9-2-2-2h-36c-1.1,0-2,0.9-2,2s0.9,2,2,2h36C-280.9,612-280,611.1-280,610z"/>
		<path class="st5" d="M-276,616h-33c-1.1,0-2,0.9-2,2s0.9,2,2,2h33c1.1,0,2-0.9,2-2S-274.9,616-276,616z"/>
		<path class="st5" d="M-282,624h-18c-1.1,0-2,0.9-2,2s0.9,2,2,2h18c1.1,0,2-0.9,2-2S-280.9,624-282,624z"/>
		<path class="st5" d="M-288,632h-12c-1.1,0-2,0.9-2,2s0.9,2,2,2h12c1.1,0,2-0.9,2-2S-286.9,632-288,632z"/>
		<path class="st5" d="M-294,640h-6c-1.1,0-2,0.9-2,2s0.9,2,2,2h6c1.1,0,2-0.9,2-2S-292.9,640-294,640z"/>
	</g>
	<g>
		<path class="st2" d="M-66,628c-2.8,0-5,2.2-5,5s2.2,5,5,5c2.8,0,5-2.2,5-5S-63.2,628-66,628z M-66,634c-0.6,0-1-0.4-1-1s0.4-1,1-1
			c0.6,0,1,0.4,1,1S-65.4,634-66,634z"/>
		<path class="st2" d="M-58,625.5l0-25.5c0-4.4-3.6-8-8-8c-4.4,0-8,3.6-8,8l0,25.5c-1.9,2-3,4.7-3,7.5c0,6.1,4.9,11,11,11
			c6.1,0,11-4.9,11-11C-55,630.2-56.1,627.5-58,625.5z M-66,640c-3.9,0-7-3.1-7-7c0-2,0.8-3.9,2.3-5.2c0.4-0.4,0.7-0.9,0.7-1.5
			l0-26.3c0-2.2,1.8-4,4-4c2.2,0,4,1.8,4,4l0,26.3c0,0.6,0.2,1.1,0.7,1.5c1.5,1.3,2.3,3.2,2.3,5.2C-59,636.9-62.1,640-66,640z"/>
	</g>
	<g>
		<path class="st2" d="M-180,644c-6.1,0-11-4.9-11-11c0-2.8,1.1-5.5,3-7.5l0-25.5c0-4.4,3.6-8,8-8s8,3.6,8,8l0,25.5
			c1.9,2,3,4.7,3,7.5C-169,639.1-173.9,644-180,644L-180,644z M-180,596c-2.2,0-4,1.8-4,4l0,26.3c0,0.6-0.2,1.1-0.7,1.5
			c-1.5,1.3-2.3,3.2-2.3,5.2c0,3.9,3.1,7,7,7c3.9,0,7-3.1,7-7c0-2-0.8-3.9-2.3-5.2c-0.4-0.4-0.7-0.9-0.7-1.5l0-26.3
			C-176,597.8-177.8,596-180,596L-180,596z"/>
	</g>
	<g>
		<path class="st5" d="M50,628.4V617c0-1.1-0.9-2-2-2c-1.1,0-2,0.9-2,2v11.4c-1.8,0.8-3,2.5-3,4.6c0,2.8,2.2,5,5,5c2.8,0,5-2.2,5-5
			C53,631,51.8,629.2,50,628.4z M48,634c-0.6,0-1-0.4-1-1s0.4-1,1-1c0.6,0,1,0.4,1,1S48.6,634,48,634z"/>
		<path class="st5" d="M56,625.5l0-25.5c0-4.4-3.6-8-8-8c-4.4,0-8,3.6-8,8l0,25.5c-1.9,2-3,4.7-3,7.5c0,6.1,4.9,11,11,11
			c6.1,0,11-4.9,11-11C59,630.2,57.9,627.5,56,625.5z M48,640c-3.9,0-7-3.1-7-7c0-2,0.8-3.9,2.3-5.2c0.4-0.4,0.7-0.9,0.7-1.5l0-26.3
			c0-2.2,1.8-4,4-4c2.2,0,4,1.8,4,4l0,26.3c0,0.6,0.2,1.1,0.7,1.5c1.5,1.3,2.3,3.2,2.3,5.2C55,636.9,51.9,640,48,640z"/>
	</g>
	<g>
		<path class="st6" d="M164,628.4V600c0-1.1-0.9-2-2-2c-1.1,0-2,0.9-2,2v28.4c-1.8,0.8-3,2.5-3,4.6c0,2.8,2.2,5,5,5c2.8,0,5-2.2,5-5
			C167,631,165.8,629.2,164,628.4z M162,634c-0.6,0-1-0.4-1-1s0.4-1,1-1c0.6,0,1,0.4,1,1S162.6,634,162,634z"/>
		<path class="st6" d="M170,625.5l0-25.5c0-4.4-3.6-8-8-8c-4.4,0-8,3.6-8,8l0,25.5c-1.9,2-3,4.7-3,7.5c0,6.1,4.9,11,11,11
			c6.1,0,11-4.9,11-11C173,630.2,171.9,627.5,170,625.5z M162,640c-3.9,0-7-3.1-7-7c0-2,0.8-3.9,2.3-5.2c0.4-0.4,0.7-0.9,0.7-1.5
			l0-26.3c0-2.2,1.8-4,4-4c2.2,0,4,1.8,4,4l0,26.3c0,0.6,0.2,1.1,0.7,1.5c1.5,1.3,2.3,3.2,2.3,5.2C169,636.9,165.9,640,162,640z"/>
	</g>
	<path class="st6" d="M194-527.1c0-0.1,0-0.1,0-0.2c0-0.1,0-0.1,0-0.2c0-0.1,0-0.1-0.1-0.2c0-0.1,0-0.1-0.1-0.2c0,0,0,0,0-0.1
		c0,0,0-0.1-0.1-0.1c0-0.1-0.1-0.1-0.1-0.2c0-0.1-0.1-0.1-0.1-0.2c0,0-0.1-0.1-0.1-0.1c-0.1,0-0.1-0.1-0.2-0.1c0,0-0.1-0.1-0.1-0.1
		c-0.1,0-0.1-0.1-0.2-0.1c-0.1,0-0.1-0.1-0.2-0.1c-0.1,0-0.1,0-0.2-0.1c-0.1,0-0.1,0-0.2,0c-0.1,0-0.2,0-0.2,0c0,0-0.1,0-0.1,0h-4
		c0-2.8-2.2-5-5-5h-14c-1.4,0-2.7,0.6-3.6,1.5c-0.3,0.3-0.5,0.7-0.7,1c-0.8-0.4-1.7-0.6-2.7-0.6c-0.9,0-1.8,0.2-2.7,0.6
		c-0.2-0.4-0.4-0.7-0.7-1c-0.9-1-2.2-1.5-3.6-1.5h-14c-2.8,0-5,2.2-5,5h-4c0,0-0.1,0-0.1,0c-0.1,0-0.1,0-0.2,0c-0.1,0-0.1,0-0.2,0
		c-0.1,0-0.1,0-0.2,0.1c-0.1,0-0.1,0.1-0.2,0.1c-0.1,0-0.1,0.1-0.2,0.1c-0.1,0-0.1,0.1-0.2,0.1c-0.1,0-0.1,0.1-0.2,0.1
		c0,0-0.1,0.1-0.1,0.1c0,0-0.1,0.1-0.1,0.1c0,0.1-0.1,0.1-0.1,0.2c0,0,0,0.1-0.1,0.1c0,0,0,0,0,0.1c0,0.1-0.1,0.1-0.1,0.2
		c0,0.1,0,0.1-0.1,0.2c0,0.1,0,0.1,0,0.2c0,0.1,0,0.1,0,0.2c0,0,0,0,0,0.1c0,0,0,0.1,0,0.1c0,0.1,0,0.1,0,0.2c0,0.1,0,0.1,0,0.2
		c0,0.1,0,0.1,0.1,0.2c0,0.1,0,0.1,0.1,0.2c0,0.1,0.1,0.1,0.1,0.2c0,0.1,0.1,0.1,0.1,0.2c0,0.1,0.1,0.1,0.1,0.2c0,0,0.1,0.1,0.1,0.1
		c0,0,0.1,0.1,0.1,0.1c0.1,0,0.1,0.1,0.2,0.1c0,0,0.1,0,0.1,0.1l4.9,2.5c0.1,6,5,10.8,11,10.8c5,0,11-2.5,12.6-13.6
		c0-0.1,0-0.1,0-0.2c0-0.2,0.1-0.4,0.1-0.7c0.3-0.9,1.3-1.6,2.3-1.6c1,0,2,0.7,2.3,1.6c0,0.2,0.1,0.5,0.1,0.7c0,0.1,0,0.1,0,0.2
		C166-514.5,172-512,177-512c6,0,10.9-4.8,11-10.8l4.9-2.5c0,0,0.1,0,0.1-0.1c0.1,0,0.1-0.1,0.2-0.1c0.1,0,0.1-0.1,0.2-0.1
		c0,0,0.1-0.1,0.1-0.1c0-0.1,0.1-0.1,0.1-0.2c0,0,0.1-0.1,0.1-0.1c0-0.1,0.1-0.1,0.1-0.2c0-0.1,0.1-0.1,0.1-0.2c0-0.1,0-0.1,0.1-0.2
		c0-0.1,0-0.1,0-0.2c0-0.1,0-0.1,0-0.2C194-526.9,194-527,194-527.1C194-527,194-527,194-527.1z M148.4-526.6l-5,5
		c-0.4,0.4-0.9,0.6-1.4,0.6c-0.5,0-1-0.2-1.4-0.6c-0.8-0.8-0.8-2,0-2.8l5-5c0.8-0.8,2-0.8,2.8,0
		C149.2-528.6,149.2-527.4,148.4-526.6z M177.4-526.6l-5,5c-0.4,0.4-0.9,0.6-1.4,0.6c-0.5,0-1-0.2-1.4-0.6c-0.8-0.8-0.8-2,0-2.8l5-5
		c0.8-0.8,2-0.8,2.8,0C178.2-528.6,178.2-527.4,177.4-526.6z"/>
	<path class="st5" d="M-263.5,715.1l-24-6c0,0-0.1,0-0.1,0c-0.1,0-0.2,0-0.3,0c-0.1,0-0.1,0-0.1,0c-0.1,0-0.2,0-0.3,0
		c0,0-0.1,0-0.1,0c-0.1,0-0.3,0.1-0.4,0.1c0,0,0,0,0,0c-0.1,0.1-0.2,0.1-0.4,0.2l-8.8,6.6v-6.4c1.8-0.8,3-2.5,3-4.6c0-2.8-2.2-5-5-5
		s-5,2.2-5,5c0,2,1.2,3.8,3,4.6V760h-22c-1.1,0-2,0.9-2,2s0.9,2,2,2h48c1.1,0,2-0.9,2-2s-0.9-2-2-2h-22v-36l8.8,6.6
		c0.1,0.1,0.2,0.1,0.3,0.2c0.1,0,0.1,0.1,0.2,0.1c0.2,0.1,0.4,0.1,0.6,0.1c0,0,0,0,0,0h0c0,0,0,0,0,0c0.2,0,0.3,0,0.4-0.1
		c0,0,0,0,0,0l24-6c0.9-0.2,1.5-1,1.5-1.9v-6C-262,716.1-262.6,715.3-263.5,715.1z M-290,725l-6.7-5l6.7-5V725z M-300,704
		c0.6,0,1,0.4,1,1s-0.4,1-1,1s-1-0.4-1-1S-300.6,704-300,704z M-286,713.6l8,2v8.9l-8,2V713.6z M-266,721.4l-8,2v-6.9l8,2V721.4z"/>
	<path class="st2" d="M-39,745.3l-6.2-3.6l3.5-0.9c1.1-0.3,1.7-1.4,1.4-2.4c-0.3-1.1-1.4-1.7-2.4-1.4l-7.4,2l-5.5-3.2l6.5-1.8
		c0.8-0.2,1.4-0.9,1.5-1.8c0.1-0.9-0.4-1.6-1.2-2l-5.8-2.4l4.5-2.6l7.4,2c0.2,0,0.3,0.1,0.5,0.1c0.9,0,1.7-0.6,1.9-1.5
		c0.3-1.1-0.3-2.2-1.4-2.4l-3.5-0.9l6.2-3.6c1-0.6,1.3-1.8,0.7-2.7c-0.6-1-1.8-1.3-2.7-0.7l-6.2,3.6l0.9-3.5
		c0.3-1.1-0.3-2.2-1.4-2.4c-1.1-0.3-2.2,0.3-2.4,1.4l-2,7.4l-4.5,2.6l0.8-6.2c0.1-0.8-0.3-1.6-1-2c-0.7-0.4-1.6-0.3-2.2,0.1l-5,3.8
		v-5.2l5.4-5.4c0.8-0.8,0.8-2,0-2.8c-0.8-0.8-2-0.8-2.8,0l-2.6,2.6V702c0-1.1-0.9-2-2-2c-1.1,0-2,0.9-2,2v7.2l-2.6-2.6
		c-0.8-0.8-2-0.8-2.8,0c-0.8,0.8-0.8,2,0,2.8l5.4,5.4v5.2l-5-3.8c-0.7-0.5-1.6-0.5-2.3-0.1c-0.7,0.5-1,1.4-0.8,2.2l1.8,6.5l-5.5-3.2
		l-2-7.4c-0.3-1.1-1.4-1.7-2.4-1.4c-1.1,0.3-1.7,1.4-1.4,2.4l0.9,3.5l-6.2-3.6c-1-0.6-2.2-0.2-2.7,0.7c-0.6,1-0.2,2.2,0.7,2.7
		l6.2,3.6l-3.5,0.9c-1.1,0.3-1.7,1.4-1.4,2.4c0.2,0.9,1,1.5,1.9,1.5c0.2,0,0.3,0,0.5-0.1l7.4-2l5.5,3.2l-6.5,1.8
		c-0.8,0.2-1.4,0.9-1.5,1.8c-0.1,0.9,0.4,1.6,1.2,2l5.8,2.4l-4.5,2.6l-7.4-2c-1.1-0.3-2.2,0.3-2.4,1.4c-0.3,1.1,0.3,2.2,1.4,2.4
		l3.5,0.9l-6.2,3.6c-1,0.6-1.3,1.8-0.7,2.7c0.4,0.6,1,1,1.7,1c0.3,0,0.7-0.1,1-0.3l6.2-3.6l-0.9,3.5c-0.3,1.1,0.3,2.2,1.4,2.4
		c0.2,0,0.3,0.1,0.5,0.1c0.9,0,1.7-0.6,1.9-1.5l2-7.4l4.5-2.6l-0.8,6.2c-0.1,0.8,0.3,1.6,1,2c0.7,0.4,1.6,0.3,2.2-0.1l5-3.8v5.2
		l-5.4,5.4c-0.8,0.8-0.8,2,0,2.8c0.8,0.8,2,0.8,2.8,0l2.6-2.6v7.2c0,1.1,0.9,2,2,2c1.1,0,2-0.9,2-2v-7.2l2.6,2.6
		c0.4,0.4,0.9,0.6,1.4,0.6c0.5,0,1-0.2,1.4-0.6c0.8-0.8,0.8-2,0-2.8l-5.4-5.4V744l5,3.8c0.4,0.3,0.8,0.4,1.2,0.4
		c0.4,0,0.8-0.1,1.1-0.3c0.7-0.5,1-1.4,0.8-2.2l-1.8-6.5l5.5,3.2l2,7.4c0.2,0.9,1,1.5,1.9,1.5c0.2,0,0.3,0,0.5-0.1
		c1.1-0.3,1.7-1.4,1.4-2.4l-0.9-3.5l6.2,3.6c0.3,0.2,0.7,0.3,1,0.3c0.7,0,1.4-0.4,1.7-1C-37.7,747-38.1,745.8-39,745.3z
		 M-55.8,731.6l-4.8,1.3L-62,732l3.1-1.8L-55.8,731.6z M-60.4,722.3l-0.6,4.5l-3.1,1.8V725L-60.4,722.3z M-70.8,722.9l2.8,2.1v3.5
		l-1.5-0.9L-70.8,722.9z M-76.3,732.4l4.8-1.3l1.5,0.9l-3.1,1.8L-76.3,732.4z M-71.6,741.7l0.6-4.5l3.1-1.8v3.5L-71.6,741.7z
		 M-61.2,741.1L-64,739v-3.5l1.5,0.9L-61.2,741.1z"/>
	<g>
		<path class="st5" d="M-156,710c1.1,0,2-0.9,2-2s-0.9-2-2-2c-7,0-12.9,5.2-13.8,12h-2c1-7.9,7.7-14,15.9-14c1.1,0,2-0.9,2-2
			s-0.9-2-2-2c-10.4,0-18.9,7.9-19.9,18h-8.1v-10c0-1.5-0.4-2.9-1.1-4.1l1.5-1.5c0.8-0.8,0.8-2,0-2.8c-0.8-0.8-2-0.8-2.8,0l-1.5,1.5
			c-0.6-0.4-1.3-0.7-2.1-0.9V698c0-1.1-0.9-2-2-2c-1.1,0-2,0.9-2,2v2.3c-0.7,0.2-1.4,0.5-2.1,0.9l-1.5-1.5c-0.8-0.8-2-0.8-2.8,0
			c-0.8,0.8-0.8,2,0,2.8l1.5,1.5c-0.5,0.9-0.9,2-1,3.1h-4.1c-0.9,0-1.7,0.6-1.9,1.5c-0.2,0.9,0.2,1.8,1.1,2.2l4.9,2.4v6.8
			c0,10.4,7.9,18.9,18,19.9V750h-17.2l2.6-2.6c0.8-0.8,0.8-2,0-2.8c-0.8-0.8-2-0.8-2.8,0l-6,6c-0.1,0.1-0.2,0.2-0.2,0.3
			c0,0-0.1,0.1-0.1,0.1c0,0.1-0.1,0.1-0.1,0.2c0,0.1,0,0.1-0.1,0.2c0,0.1,0,0.1-0.1,0.2c-0.1,0.3-0.1,0.5,0,0.8c0,0.1,0,0.1,0.1,0.2
			c0,0.1,0,0.1,0.1,0.2c0,0.1,0.1,0.1,0.1,0.2c0,0,0,0.1,0.1,0.1c0.1,0.1,0.2,0.2,0.2,0.3l6,6c0.4,0.4,0.9,0.6,1.4,0.6
			s1-0.2,1.4-0.6c0.8-0.8,0.8-2,0-2.8l-2.6-2.6h17.2v12c0,1.1,0.9,2,2,2c1.1,0,2-0.9,2-2v-12h15.2l5.4,5.4c0.4,0.4,0.9,0.6,1.4,0.6
			s1-0.2,1.4-0.6c0.8-0.8,0.8-2,0-2.8l-4.6-4.6l4.6-4.6c0.8-0.8,0.8-2,0-2.8c-0.8-0.8-2-0.8-2.8,0l-5.4,5.4H-178v-10.1
			c10.1-1,18-9.5,18-19.9c0-2.2,1.8-4,4-4c1.1,0,2-0.9,2-2s-0.9-2-2-2c-3.7,0-6.8,2.6-7.7,6h-2.1C-164.9,713.4-160.8,710-156,710z
			 M-176.6,722c-0.7,1.2-2,2-3.4,2c-1.5,0-2.8-0.8-3.4-2H-176.6z M-164.1,722c-1,7.9-7.7,14-15.9,14c-8.8,0-16-7.2-16-16v-12
			c0-2.2,1.8-4,4-4s4,1.8,4,4v12c0,0,0,0,0,0c0,4.4,3.6,8,8,8c3.7,0,6.8-2.6,7.7-6H-164.1z"/>
		<circle class="st6" cx="-192" cy="708" r="2"/>
	</g>
	<g>
		<path class="st1" d="M-294-764c-7.7,0-14,6.3-14,14s6.3,14,14,14s14-6.3,14-14S-286.3-764-294-764z"/>
		<polygon class="st1" points="-294,-776.5 -289.1,-768 -298.9,-768 		"/>
		<polygon class="st1" points="-294,-723.6 -298.9,-732 -289.1,-732 		"/>
		<polygon class="st1" points="-320.5,-750 -312,-754.9 -312,-745.1 		"/>
		<polygon class="st1" points="-267.4,-750 -275.9,-745.1 -275.9,-754.9 		"/>
		<polygon class="st1" points="-277.3,-766.8 -279,-761.2 -282.8,-765.1 		"/>
		<polygon class="st1" points="-310.8,-733.2 -309.1,-738.8 -305.3,-734.9 		"/>
		<polygon class="st1" points="-310.8,-766.8 -305.3,-765.1 -309.1,-761.2 		"/>
		<polygon class="st1" points="-277.3,-733.2 -282.8,-734.9 -279,-738.8 		"/>
	</g>
	<path class="st4" d="M-162-416c-0.5,0-1.1,0.1-1.7,0.2c-2.1-7.2-8.6-12.2-16.3-12.2c-7.7,0-14.2,5-16.3,12.2
		c-0.6-0.1-1.2-0.2-1.7-0.2c-6.1,0-11,4.9-11,11s4.9,11,11,11h36c6.1,0,11-4.9,11-11S-155.9-416-162-416z"/>
	<path class="st4" d="M-48-416c-0.5,0-1.1,0.1-1.7,0.2C-51.8-423-58.3-428-66-428c-7.7,0-14.2,5-16.3,12.2c-0.6-0.1-1.2-0.2-1.7-0.2
		c-6.1,0-11,4.9-11,11s4.9,11,11,11h36c6.1,0,11-4.9,11-11S-41.9-416-48-416z"/>
	<g>
		<path class="st2" d="M39-384c-1.1,0-2,0.9-2,2v4c0,1.1,0.9,2,2,2c1.1,0,2-0.9,2-2v-4C41-383.1,40.1-384,39-384z"/>
		<path class="st2" d="M48-378c-1.1,0-2,0.9-2,2v4c0,1.1,0.9,2,2,2c1.1,0,2-0.9,2-2v-4C50-377.1,49.1-378,48-378z"/>
		<path class="st2" d="M48-390c-1.1,0-2,0.9-2,2v4c0,1.1,0.9,2,2,2c1.1,0,2-0.9,2-2v-4C50-389.1,49.1-390,48-390z"/>
		<path class="st2" d="M57-384c-1.1,0-2,0.9-2,2v4c0,1.1,0.9,2,2,2c1.1,0,2-0.9,2-2v-4C59-383.1,58.1-384,57-384z"/>
		<path class="st2" d="M75.7-410.2c-0.3-0.6-0.7-1.2-1.2-1.8c-1.3-1.6-3.2-2.9-5.2-3.5c-1-0.3-2.1-0.5-3.3-0.5
			c-0.5,0-1.1,0.1-1.7,0.2c-0.9-3.1-2.7-5.9-5-7.9c-0.3-0.3-0.7-0.6-1-0.8c-0.7-0.5-1.5-1-2.3-1.4c-2.4-1.3-5.1-2-8-2
			c-7.7,0-14.2,5-16.3,12.2c-0.6-0.1-1.2-0.2-1.7-0.2c-1.1,0-2.2,0.2-3.3,0.5c-2.1,0.6-3.9,1.9-5.2,3.5c-0.4,0.5-0.8,1.1-1.2,1.8
			c-0.8,1.6-1.3,3.3-1.3,5.2s0.5,3.7,1.3,5.2c0.3,0.6,0.7,1.2,1.2,1.8c1.3,1.6,3.2,2.9,5.2,3.5c1,0.3,2.1,0.5,3.3,0.5h7v4
			c0,1.1,0.9,2,2,2c1.1,0,2-0.9,2-2v-4h14v4c0,1.1,0.9,2,2,2c1.1,0,2-0.9,2-2v-4h7c1.1,0,2.2-0.2,3.3-0.5c2.1-0.6,3.9-1.9,5.2-3.5
			c0.4-0.5,0.8-1.1,1.2-1.8c0.8-1.6,1.3-3.3,1.3-5.2S76.5-408.7,75.7-410.2z"/>
	</g>
	<g>
		<path class="st2" d="M153-384c-1.1,0-2,0.9-2,2v4c0,1.1,0.9,2,2,2c1.1,0,2-0.9,2-2v-4C155-383.1,154.1-384,153-384z"/>
		<path class="st2" d="M162-378c-1.1,0-2,0.9-2,2v4c0,1.1,0.9,2,2,2c1.1,0,2-0.9,2-2v-4C164-377.1,163.1-378,162-378z"/>
		<path class="st2" d="M162-390c-1.1,0-2,0.9-2,2v4c0,1.1,0.9,2,2,2c1.1,0,2-0.9,2-2v-4C164-389.1,163.1-390,162-390z"/>
		<path class="st2" d="M171-384c-1.1,0-2,0.9-2,2v4c0,1.1,0.9,2,2,2c1.1,0,2-0.9,2-2v-4C173-383.1,172.1-384,171-384z"/>
		<path class="st2" d="M189.7-410.2c-0.3-0.6-0.7-1.2-1.2-1.8c-1.3-1.6-3.2-2.9-5.2-3.5c-1-0.3-2.1-0.5-3.3-0.5
			c-0.5,0-1.1,0.1-1.7,0.2c-0.9-3.1-2.7-5.9-5-7.9c-0.3-0.3-0.7-0.6-1-0.8c-0.7-0.5-1.5-1-2.3-1.4c-2.4-1.3-5.1-2-8-2
			c-7.7,0-14.2,5-16.3,12.2c-0.6-0.1-1.2-0.2-1.7-0.2c-1.1,0-2.2,0.2-3.3,0.5c-2.1,0.6-3.9,1.9-5.2,3.5c-0.4,0.5-0.8,1.1-1.2,1.8
			c-0.8,1.6-1.3,3.3-1.3,5.2s0.5,3.7,1.3,5.2c0.3,0.6,0.7,1.2,1.2,1.8c1.3,1.6,3.2,2.9,5.2,3.5c1,0.3,2.1,0.5,3.3,0.5h7v4
			c0,1.1,0.9,2,2,2c1.1,0,2-0.9,2-2v-4h14v4c0,1.1,0.9,2,2,2c1.1,0,2-0.9,2-2v-4h7c1.1,0,2.2-0.2,3.3-0.5c2.1-0.6,3.9-1.9,5.2-3.5
			c0.4-0.5,0.8-1.1,1.2-1.8c0.8-1.6,1.3-3.3,1.3-5.2S190.5-408.7,189.7-410.2z"/>
	</g>
	<g>
		<path class="st2" d="M-303-270c-1.1,0-2,0.9-2,2v4c0,1.1,0.9,2,2,2s2-0.9,2-2v-4C-301-269.1-301.9-270-303-270z"/>
		<path class="st2" d="M-294-264c-1.1,0-2,0.9-2,2v4c0,1.1,0.9,2,2,2s2-0.9,2-2v-4C-292-263.1-292.9-264-294-264z"/>
		<path class="st2" d="M-294-276c-1.1,0-2,0.9-2,2v4c0,1.1,0.9,2,2,2s2-0.9,2-2v-4C-292-275.1-292.9-276-294-276z"/>
		<path class="st2" d="M-285-270c-1.1,0-2,0.9-2,2v4c0,1.1,0.9,2,2,2s2-0.9,2-2v-4C-283-269.1-283.9-270-285-270z"/>
		<path class="st2" d="M-266.3-296.2c-0.3-0.6-0.7-1.2-1.2-1.8c-1.3-1.6-3.2-2.9-5.2-3.5c-1-0.3-2.1-0.5-3.3-0.5
			c-0.5,0-1.1,0.1-1.7,0.2c-0.9-3.1-2.7-5.9-5-7.9c-0.3-0.3-0.7-0.6-1-0.8c-0.7-0.5-1.5-1-2.3-1.4c-2.4-1.3-5.1-2-8-2
			c-7.7,0-14.2,5-16.3,12.2c-0.6-0.1-1.2-0.2-1.7-0.2c-1.1,0-2.2,0.2-3.3,0.5c-2.1,0.6-3.9,1.9-5.2,3.5c-0.4,0.5-0.8,1.1-1.2,1.8
			c-0.8,1.6-1.3,3.3-1.3,5.2s0.5,3.7,1.3,5.2c0.3,0.6,0.7,1.2,1.2,1.8c1.3,1.6,3.2,2.9,5.2,3.5c1,0.3,2.1,0.5,3.3,0.5h7v4
			c0,1.1,0.9,2,2,2s2-0.9,2-2v-4h14v4c0,1.1,0.9,2,2,2s2-0.9,2-2v-4h7c1.1,0,2.2-0.2,3.3-0.5c2.1-0.6,3.9-1.9,5.2-3.5
			c0.4-0.5,0.8-1.1,1.2-1.8c0.8-1.6,1.3-3.3,1.3-5.2S-265.5-294.7-266.3-296.2z"/>
	</g>
	<g>
		<path class="st2" d="M48-278c-1.1,0-2,0.9-2,2v18c0,1.1,0.9,2,2,2c1.1,0,2-0.9,2-2v-18C50-277.1,49.1-278,48-278z"/>
		<path class="st2" d="M75.7-296.2c-0.3-0.6-0.7-1.2-1.2-1.8c-1.3-1.6-3.2-2.9-5.2-3.5c-1-0.3-2.1-0.5-3.3-0.5
			c-0.5,0-1.1,0.1-1.7,0.2C62.2-309,55.7-314,48-314c-7.7,0-14.2,5-16.3,12.2c-0.6-0.1-1.2-0.2-1.7-0.2c-1.1,0-2.2,0.2-3.3,0.5
			c-2.1,0.6-3.9,1.9-5.2,3.5c-0.4,0.5-0.8,1.1-1.2,1.8c-0.8,1.6-1.3,3.3-1.3,5.2s0.5,3.7,1.3,5.2c0.3,0.6,0.7,1.2,1.2,1.8
			c1.3,1.6,3.2,2.9,5.2,3.5c1,0.3,2.1,0.5,3.3,0.5h7v16c0,1.1,0.9,2,2,2c1.1,0,2-0.9,2-2v-16h14v16c0,1.1,0.9,2,2,2c1.1,0,2-0.9,2-2
			v-16h7c1.1,0,2.2-0.2,3.3-0.5c2.1-0.6,3.9-1.9,5.2-3.5c0.4-0.5,0.8-1.1,1.2-1.8c0.8-1.6,1.3-3.3,1.3-5.2S76.5-294.7,75.7-296.2z"
			/>
	</g>
	<g>
		<circle class="st2" cx="-303" cy="-162" r="2"/>
		<circle class="st2" cx="-285" cy="-162" r="2"/>
		<circle class="st2" cx="-294" cy="-156" r="2"/>
		<circle class="st2" cx="-285" cy="-150" r="2"/>
		<circle class="st2" cx="-294" cy="-144" r="2"/>
		<circle class="st2" cx="-303" cy="-150" r="2"/>
		<path class="st2" d="M-266.3-182.2c-0.3-0.6-0.7-1.2-1.2-1.8c-1.3-1.6-3.2-2.9-5.2-3.5c-1-0.3-2.1-0.5-3.3-0.5
			c-0.3,0-0.5,0-0.8,0.1c-0.3,0-0.6,0.1-0.9,0.1c-0.9-3.1-2.7-5.9-5-7.9c-0.3-0.3-0.7-0.6-1-0.8c-0.7-0.5-1.5-1-2.3-1.4
			c-2.4-1.3-5.1-2-8-2c-7.7,0-14.2,5-16.3,12.2c-0.1,0-0.1,0-0.2,0c-0.5-0.1-1-0.2-1.5-0.2c-1.1,0-2.2,0.2-3.3,0.5
			c-2.1,0.6-3.9,1.9-5.2,3.5c-0.4,0.5-0.8,1.1-1.2,1.8c-0.8,1.6-1.3,3.3-1.3,5.2s0.5,3.7,1.3,5.2c0.3,0.6,0.7,1.2,1.2,1.8
			c1.3,1.6,3.2,2.9,5.2,3.5c1,0.3,2.1,0.5,3.3,0.5h36c1.1,0,2.2-0.2,3.3-0.5c2.1-0.6,3.9-1.9,5.2-3.5c0.4-0.5,0.8-1.1,1.2-1.8
			c0.8-1.6,1.3-3.3,1.3-5.2S-265.5-180.7-266.3-182.2z"/>
	</g>
	<g>
		<circle class="st2" cx="-189" cy="-162" r="2"/>
		<circle class="st2" cx="-171" cy="-162" r="2"/>
		<circle class="st2" cx="-180" cy="-156" r="2"/>
		<circle class="st2" cx="-171" cy="-150" r="2"/>
		<circle class="st2" cx="-180" cy="-144" r="2"/>
		<circle class="st2" cx="-189" cy="-150" r="2"/>
		<path class="st2" d="M-152.3-182.2c-0.3-0.6-0.7-1.2-1.2-1.8c-1.3-1.6-3.2-2.9-5.2-3.5c-1-0.3-2.1-0.5-3.3-0.5
			c-0.3,0-0.5,0-0.8,0.1c-0.3,0-0.6,0.1-0.9,0.1c-0.9-3.1-2.7-5.9-5-7.9c-0.3-0.3-0.7-0.6-1-0.8c-0.7-0.5-1.5-1-2.3-1.4
			c-2.4-1.3-5.1-2-8-2c-7.7,0-14.2,5-16.3,12.2c-0.1,0-0.1,0-0.2,0c-0.5-0.1-1-0.2-1.5-0.2c-1.1,0-2.2,0.2-3.3,0.5
			c-2.1,0.6-3.9,1.9-5.2,3.5c-0.4,0.5-0.8,1.1-1.2,1.8c-0.8,1.6-1.3,3.3-1.3,5.2s0.5,3.7,1.3,5.2c0.3,0.6,0.7,1.2,1.2,1.8
			c1.3,1.6,3.2,2.9,5.2,3.5c1,0.3,2.1,0.5,3.3,0.5h36c1.1,0,2.2-0.2,3.3-0.5c2.1-0.6,3.9-1.9,5.2-3.5c0.4-0.5,0.8-1.1,1.2-1.8
			c0.8-1.6,1.3-3.3,1.3-5.2S-151.5-180.7-152.3-182.2z"/>
	</g>
	<g>
		<g>
			<polyline class="st1" points="-75.2,-169.4 -82.2,-156.3 -77.1,-156.4 -82.9,-145 -70.6,-159.2 -76.9,-159.1 -68,-169.4 			"/>
			<polyline class="st1" points="-62.4,-174.3 -69.4,-161.2 -64.2,-161.3 -70,-149.9 -57.8,-164.1 -64,-164 -55.2,-174.3 			"/>
		</g>
		<path class="st4" d="M-48-188c-0.5,0-1.1,0.1-1.7,0.2C-51.8-195-58.3-200-66-200c-7.7,0-14.2,5-16.3,12.2
			c-0.6-0.1-1.2-0.2-1.7-0.2c-6.1,0-11,4.9-11,11s4.9,11,11,11h36c6.1,0,11-4.9,11-11S-41.9-188-48-188z"/>
	</g>
	<path class="st4" d="M66-188c-0.5,0-1.1,0.1-1.7,0.2C62.2-195,55.7-200,48-200c-7.7,0-14.2,5-16.3,12.2c-0.6-0.1-1.2-0.2-1.7-0.2
		c-6.1,0-11,4.9-11,11s4.9,11,11,11h36c6.1,0,11-4.9,11-11S72.1-188,66-188z"/>
	<path class="st1" d="M180-188c-0.5,0-1.1,0.1-1.7,0.2c-2.1-7.2-8.6-12.2-16.3-12.2c-7.7,0-14.2,5-16.3,12.2
		c-0.6-0.1-1.2-0.2-1.7-0.2c-6.1,0-11,4.9-11,11s4.9,11,11,11h11.3l-3.9,5.9c-0.4,0.6-0.4,1.4-0.1,2.1c0.3,0.7,1,1.1,1.8,1.1h2.3
		l-3.9,5.9c-0.6,0.9-0.4,2.2,0.6,2.8c0.3,0.2,0.7,0.3,1.1,0.3c0.6,0,1.3-0.3,1.7-0.9l6-9c0.4-0.6,0.4-1.4,0.1-2.1
		c-0.3-0.7-1-1.1-1.8-1.1h-2.3l3.3-5h5.2l-1.9,2.9c-0.4,0.6-0.4,1.4-0.1,2.1c0.3,0.7,1,1.1,1.8,1.1h2.3l-1.9,2.9
		c-0.6,0.9-0.4,2.2,0.6,2.8c0.3,0.2,0.7,0.3,1.1,0.3c0.6,0,1.3-0.3,1.7-0.9l4-6c0.4-0.6,0.4-1.4,0.1-2.1c-0.3-0.7-1-1.1-1.8-1.1
		h-2.3l1.3-2h9.9c6.1,0,11-4.9,11-11S186.1-188,180-188z M180-170h-36c-3.9,0-7-3.1-7-7s3.1-7,7-7c0.3,0,0.7,0.1,1.2,0.2v1.8
		c0,1.1,0.9,2,2,2c1.1,0,2-0.9,2-2v-3.2c1.1-6.3,6.4-10.8,12.8-10.8c6.4,0,11.7,4.5,12.8,10.8v3.2c0,1.1,0.9,2,2,2c1.1,0,2-0.9,2-2
		v-1.8c0.5-0.1,0.9-0.2,1.2-0.2c3.9,0,7,3.1,7,7S183.9-170,180-170z"/>
	<path class="st4" d="M180-188c-0.5,0-1.1,0.1-1.7,0.2c-2.1-7.2-8.6-12.2-16.3-12.2c-7.7,0-14.2,5-16.3,12.2
		c-0.6-0.1-1.2-0.2-1.7-0.2c-6.1,0-11,4.9-11,11s4.9,11,11,11h36c6.1,0,11-4.9,11-11S186.1-188,180-188z"/>
	<g>
		<path class="st2" d="M-184.3-44.3c-0.6-1-1.8-1.3-2.7-0.7c-1,0.6-1.3,1.8-0.7,2.7l1,1.7c0.4,0.6,1,1,1.7,1c0.3,0,0.7-0.1,1-0.3
			c1-0.6,1.3-1.8,0.7-2.7L-184.3-44.3z"/>
		<path class="st2" d="M-189-45.1c-1-0.6-2.2-0.2-2.7,0.7l-1,1.7c-0.6,1-0.2,2.2,0.7,2.7c0.3,0.2,0.7,0.3,1,0.3c0.7,0,1.4-0.4,1.7-1
			l1-1.7C-187.7-43.3-188-44.5-189-45.1z"/>
		<path class="st2" d="M-190-46.8c0-1.1-0.9-2-2-2h-2c-1.1,0-2,0.9-2,2c0,1.1,0.9,2,2,2h2C-190.9-44.8-190-45.7-190-46.8z"/>
		<path class="st2" d="M-182-48.8h-2c-1.1,0-2,0.9-2,2c0,1.1,0.9,2,2,2h2c1.1,0,2-0.9,2-2C-180-47.9-180.9-48.8-182-48.8z"/>
		<path class="st2" d="M-162-74c-0.5,0-1.1,0.1-1.7,0.2C-165.8-81-172.3-86-180-86c-7.7,0-14.2,5-16.3,12.2
			c-0.6-0.1-1.2-0.2-1.7-0.2c-6.1,0-11,4.9-11,11s4.9,11,11,11h5c0,0.3,0.1,0.7,0.3,1l1,1.7c0.4,0.6,1,1,1.7,1c0.3,0,0.7-0.1,1-0.3
			c1-0.6,1.3-1.8,0.7-2.7l-0.4-0.7h1.4l-0.4,0.7c-0.6,1-0.2,2.2,0.7,2.7c0.3,0.2,0.7,0.3,1,0.3c0.7,0,1.4-0.4,1.7-1l1-1.7
			c0.2-0.3,0.3-0.7,0.3-1h21c6.1,0,11-4.9,11-11S-155.9-74-162-74z"/>
		<path class="st2" d="M-167.3-39.3c-0.6-1-1.8-1.3-2.7-0.7c-1,0.6-1.3,1.8-0.7,2.7l1,1.7c0.4,0.6,1,1,1.7,1c0.3,0,0.7-0.1,1-0.3
			c1-0.6,1.3-1.8,0.7-2.7L-167.3-39.3z"/>
		<path class="st2" d="M-172.3-48c-0.6-1-1.8-1.3-2.7-0.7c-1,0.6-1.3,1.8-0.7,2.7l1,1.7c0.4,0.6,1,1,1.7,1c0.3,0,0.7-0.1,1-0.3
			c1-0.6,1.3-1.8,0.7-2.7L-172.3-48z"/>
		<path class="st2" d="M-170-43.5c0.3,0.2,0.7,0.3,1,0.3c0.7,0,1.4-0.4,1.7-1l1-1.7c0.6-1,0.2-2.2-0.7-2.7c-1-0.6-2.2-0.2-2.7,0.7
			l-1,1.7C-171.3-45.3-171-44.1-170-43.5z"/>
		<path class="st2" d="M-172-40.1c-1-0.6-2.2-0.2-2.7,0.7l-1,1.7c-0.6,1-0.2,2.2,0.7,2.7c0.3,0.2,0.7,0.3,1,0.3c0.7,0,1.4-0.4,1.7-1
			l1-1.7C-170.7-38.3-171-39.5-172-40.1z"/>
		<path class="st2" d="M-173-41.8c0-1.1-0.9-2-2-2h-2c-1.1,0-2,0.9-2,2c0,1.1,0.9,2,2,2h2C-173.9-39.8-173-40.7-173-41.8z"/>
		<path class="st2" d="M-165-43.8h-2c-1.1,0-2,0.9-2,2c0,1.1,0.9,2,2,2h2c1.1,0,2-0.9,2-2C-163-42.9-163.9-43.8-165-43.8z"/>
	</g>
	<g>
		<path class="st2" d="M-70.3-44.3c-0.6-1-1.8-1.3-2.7-0.7c-1,0.6-1.3,1.8-0.7,2.7l1,1.7c0.4,0.6,1,1,1.7,1c0.3,0,0.7-0.1,1-0.3
			c1-0.6,1.3-1.8,0.7-2.7L-70.3-44.3z"/>
		<path class="st2" d="M-75-45.1c-1-0.6-2.2-0.2-2.7,0.7l-1,1.7c-0.6,1-0.2,2.2,0.7,2.7c0.3,0.2,0.7,0.3,1,0.3c0.7,0,1.4-0.4,1.7-1
			l1-1.7C-73.7-43.3-74-44.5-75-45.1z"/>
		<path class="st2" d="M-76-46.8c0-1.1-0.9-2-2-2h-2c-1.1,0-2,0.9-2,2c0,1.1,0.9,2,2,2h2C-76.9-44.8-76-45.7-76-46.8z"/>
		<path class="st2" d="M-68-48.8h-2c-1.1,0-2,0.9-2,2c0,1.1,0.9,2,2,2h2c1.1,0,2-0.9,2-2C-66-47.9-66.9-48.8-68-48.8z"/>
		<path class="st2" d="M-48-74c-0.5,0-1.1,0.1-1.7,0.2C-51.8-81-58.3-86-66-86c-7.7,0-14.2,5-16.3,12.2c-0.6-0.1-1.2-0.2-1.7-0.2
			c-6.1,0-11,4.9-11,11s4.9,11,11,11h5c0,0.3,0.1,0.7,0.3,1l1,1.7c0.4,0.6,1,1,1.7,1c0.3,0,0.7-0.1,1-0.3c1-0.6,1.3-1.8,0.7-2.7
			l-0.4-0.7h1.4l-0.4,0.7c-0.6,1-0.2,2.2,0.7,2.7c0.3,0.2,0.7,0.3,1,0.3c0.7,0,1.4-0.4,1.7-1l1-1.7c0.2-0.3,0.3-0.7,0.3-1h21
			c6.1,0,11-4.9,11-11S-41.9-74-48-74z"/>
		<path class="st2" d="M-53.3-39.3c-0.6-1-1.8-1.3-2.7-0.7c-1,0.6-1.3,1.8-0.7,2.7l1,1.7c0.4,0.6,1,1,1.7,1c0.3,0,0.7-0.1,1-0.3
			c1-0.6,1.3-1.8,0.7-2.7L-53.3-39.3z"/>
		<path class="st2" d="M-58.3-48c-0.6-1-1.8-1.3-2.7-0.7c-1,0.6-1.3,1.8-0.7,2.7l1,1.7c0.4,0.6,1,1,1.7,1c0.3,0,0.7-0.1,1-0.3
			c1-0.6,1.3-1.8,0.7-2.7L-58.3-48z"/>
		<path class="st2" d="M-56-43.5c0.3,0.2,0.7,0.3,1,0.3c0.7,0,1.4-0.4,1.7-1l1-1.7c0.6-1,0.2-2.2-0.7-2.7c-1-0.6-2.2-0.2-2.7,0.7
			l-1,1.7C-57.3-45.3-57-44.1-56-43.5z"/>
		<path class="st2" d="M-58-40.1c-1-0.6-2.2-0.2-2.7,0.7l-1,1.7c-0.6,1-0.2,2.2,0.7,2.7c0.3,0.2,0.7,0.3,1,0.3c0.7,0,1.4-0.4,1.7-1
			l1-1.7C-56.7-38.3-57-39.5-58-40.1z"/>
		<path class="st2" d="M-59-41.8c0-1.1-0.9-2-2-2h-2c-1.1,0-2,0.9-2,2c0,1.1,0.9,2,2,2h2C-59.9-39.8-59-40.7-59-41.8z"/>
		<path class="st2" d="M-51-43.8h-2c-1.1,0-2,0.9-2,2c0,1.1,0.9,2,2,2h2c1.1,0,2-0.9,2-2C-49-42.9-49.9-43.8-51-43.8z"/>
	</g>
	<g>
		<path class="st1" d="M52.6-49.4L50-46.8V-52c0-1.1-0.9-2-2-2c-1.1,0-2,0.9-2,2v5.2l-2.6-2.6c-0.8-0.8-2-0.8-2.8,0
			c-0.8,0.8-0.8,2,0,2.8l6,6C47-40.2,47.5-40,48-40c0.5,0,1-0.2,1.4-0.6l6-6c0.8-0.8,0.8-2,0-2.8C54.6-50.2,53.4-50.2,52.6-49.4z"/>
		<path class="st1" d="M57.9-75.9c-1-1-2-1.8-3.2-2.4c-1.6-0.9-3.4-1.4-5.2-1.6C49-80,48.5-80,48-80c-7.7,0-14,6.3-14,14
			c0,1.5,0.3,3.1,0.7,4.5c0.3,0.9,0.7,1.7,1.1,2.5c0.4,0.6,1,1,1.7,1l0,0h20.8c0.2,0,0.4,0,0.5-0.1c0.5-0.1,0.9-0.5,1.2-0.9
			c0.5-0.8,0.8-1.6,1.1-2.5c0.5-1.4,0.7-3,0.7-4.5c0-2.9-0.9-5.6-2.4-7.8C59.1-74.6,58.5-75.3,57.9-75.9z M48.2-76
			c-0.5,0-1,0-1.4,0.1h0C47.2-76,47.6-76,48-76C48.1-76,48.1-76,48.2-76z M38.8-62C38.8-62,38.8-62,38.8-62C38.8-62,38.9-62,38.8-62
			L38.8-62z"/>
	</g>
	<g>
		<path class="st1" d="M163.4-53.4c-0.8-0.8-2-0.8-2.8,0l-6,6c-0.8,0.8-0.8,2,0,2.8c0.8,0.8,2,0.8,2.8,0l2.6-2.6v5.2
			c0,1.1,0.9,2,2,2c1.1,0,2-0.9,2-2v-5.2l2.6,2.6c0.4,0.4,0.9,0.6,1.4,0.6c0.5,0,1-0.2,1.4-0.6c0.8-0.8,0.8-2,0-2.8L163.4-53.4z"/>
		<path class="st1" d="M171.9-75.9c-1-1-2-1.8-3.2-2.4c-1.6-0.9-3.4-1.4-5.2-1.6c-0.5,0-0.9-0.1-1.4-0.1c-7.7,0-14,6.3-14,14
			c0,1.5,0.3,3.1,0.7,4.5c0.3,0.9,0.7,1.7,1.1,2.5c0.4,0.6,1,1,1.7,1l0,0h20.8c0.2,0,0.4,0,0.5-0.1c0.5-0.1,0.9-0.5,1.2-0.9
			c0.5-0.8,0.8-1.6,1.1-2.5c0.5-1.4,0.7-3,0.7-4.5c0-2.9-0.9-5.6-2.4-7.8C173.1-74.6,172.5-75.3,171.9-75.9z M162.2-76
			c-0.5,0-1,0-1.4,0.1h0c0.4-0.1,0.8-0.1,1.2-0.1C162.1-76,162.1-76,162.2-76z M152.8-62C152.8-62,152.8-62,152.8-62
			C152.8-62,152.9-62,152.8-62L152.8-62z"/>
	</g>
	<g>
		<path class="st2" d="M-276,40c-0.5,0-1.1,0.1-1.7,0.2C-279.8,33-286.3,28-294,28c-7.7,0-14.2,5-16.3,12.2
			c-0.6-0.1-1.2-0.2-1.7-0.2c-6.1,0-11,4.9-11,11s4.9,11,11,11h5.4l-2.4,9.5c-0.3,1.1,0.4,2.2,1.5,2.4c0.2,0,0.3,0.1,0.5,0.1
			c0.9,0,1.7-0.6,1.9-1.5l2.6-10.5h5.4l-3.9,15.5c-0.3,1.1,0.4,2.2,1.5,2.4c0.2,0,0.3,0.1,0.5,0.1c0.9,0,1.7-0.6,1.9-1.5l4.1-16.5
			h5.4l-2.4,9.5c-0.3,1.1,0.4,2.2,1.5,2.4c0.2,0,0.3,0.1,0.5,0.1c0.9,0,1.7-0.6,1.9-1.5l2.6-10.5h7.4c6.1,0,11-4.9,11-11
			S-269.9,40-276,40z"/>
	</g>
	<path class="st2" d="M-162,40c-0.5,0-1.1,0.1-1.7,0.2C-165.8,33-172.3,28-180,28c-7.7,0-14.2,5-16.3,12.2c-0.6-0.1-1.2-0.2-1.7-0.2
		c-6.1,0-11,4.9-11,11s4.9,11,11,11h5.4l-2.4,9.5c-0.3,1.1,0.4,2.2,1.5,2.4c0.2,0,0.3,0.1,0.5,0.1c0.9,0,1.7-0.6,1.9-1.5l2.6-10.5
		h5.4l-3.9,15.5c-0.3,1.1,0.4,2.2,1.5,2.4c0.2,0,0.3,0.1,0.5,0.1c0.9,0,1.7-0.6,1.9-1.5l4.1-16.5h5.4l-2.4,9.5
		c-0.3,1.1,0.4,2.2,1.5,2.4c0.2,0,0.3,0.1,0.5,0.1c0.9,0,1.7-0.6,1.9-1.5l2.6-10.5h7.4c6.1,0,11-4.9,11-11S-155.9,40-162,40z"/>
	<path class="st2" d="M-48,40c-0.5,0-1.1,0.1-1.7,0.2C-51.8,33-58.3,28-66,28c-7.7,0-14.2,5-16.3,12.2c-0.6-0.1-1.2-0.2-1.7-0.2
		c-6.1,0-11,4.9-11,11s4.9,11,11,11h5.4l-2.4,9.5c-0.3,1.1,0.4,2.2,1.5,2.4c0.2,0,0.3,0.1,0.5,0.1c0.9,0,1.7-0.6,1.9-1.5l2.6-10.5
		h5.4l-3.9,15.5c-0.3,1.1,0.4,2.2,1.5,2.4c0.2,0,0.3,0.1,0.5,0.1c0.9,0,1.7-0.6,1.9-1.5l4.1-16.5h5.4l-2.4,9.5
		c-0.3,1.1,0.4,2.2,1.5,2.4c0.2,0,0.3,0.1,0.5,0.1c0.9,0,1.7-0.6,1.9-1.5l2.6-10.5h7.4c6.1,0,11-4.9,11-11S-41.9,40-48,40z"/>
	<g>
		<path class="st2" d="M151.8,37h12c1.1,0,2-0.9,2-2s-0.9-2-2-2h-12c-1.1,0-2,0.9-2,2S150.7,37,151.8,37z"/>
		<path class="st2" d="M139.8,43h24c1.1,0,2-0.9,2-2s-0.9-2-2-2h-24c-1.1,0-2,0.9-2,2S138.7,43,139.8,43z"/>
		<path class="st2" d="M133.8,49h24c1.1,0,2-0.9,2-2s-0.9-2-2-2h-24c-1.1,0-2,0.9-2,2S132.7,49,133.8,49z"/>
		<path class="st2" d="M192.8,53c0-1.1-0.9-2-2-2h-60c-1.1,0-2,0.9-2,2s0.9,2,2,2h60C191.9,55,192.8,54.1,192.8,53z"/>
		<path class="st2" d="M190.8,57h-57c-1.1,0-2,0.9-2,2s0.9,2,2,2h57c1.1,0,2-0.9,2-2S191.9,57,190.8,57z"/>
		<path class="st2" d="M151.8,63l-12,0c-1.1,0-2,0.9-2,2s0.9,2,2,2l12,0c1.1,0,2-0.9,2-2S152.9,63,151.8,63z"/>
		<path class="st2" d="M170.8,43h8c1.1,0,2-0.9,2-2s-0.9-2-2-2h-8c-1.1,0-2,0.9-2,2S169.7,43,170.8,43z"/>
		<path class="st2" d="M161.8,47c0,1.1,0.9,2,2,2h21c1.1,0,2-0.9,2-2s-0.9-2-2-2h-21C162.7,45,161.8,45.9,161.8,47z"/>
		<path class="st2" d="M184.8,63l-27,0c-1.1,0-2,0.9-2,2s0.9,2,2,2l27,0c1.1,0,2-0.9,2-2S185.9,63,184.8,63z"/>
	</g>
	<path class="st4" d="M-162,154c-0.5,0-1.1,0.1-1.7,0.2c-2.1-7.2-8.6-12.2-16.3-12.2c-7.7,0-14.2,5-16.3,12.2
		c-0.6-0.1-1.2-0.2-1.7-0.2c-6.1,0-11,4.9-11,11s4.9,11,11,11h36c6.1,0,11-4.9,11-11S-155.9,154-162,154z"/>
	<g>
		<path class="st2" d="M-93,167c1.1,0,2-0.9,2-2c0-3.9,3.1-7,7-7c0.3,0,0.7,0.1,1.2,0.2v1.8c0,1.1,0.9,2,2,2s2-0.9,2-2v-3.2
			c1.1-6.3,6.4-10.8,12.8-10.8c6.4,0,11.7,4.5,12.8,10.8v3.2c0,1.1,0.9,2,2,2s2-0.9,2-2v-1.8c0.5-0.1,0.9-0.2,1.2-0.2
			c3.9,0,7,3.1,7,7c0,1.1,0.9,2,2,2c1.1,0,2-0.9,2-2c0-6.1-4.9-11-11-11c-0.5,0-1.1,0.1-1.7,0.2C-51.8,147-58.3,142-66,142
			c-7.7,0-14.2,5-16.3,12.2c-0.6-0.1-1.2-0.2-1.7-0.2c-6.1,0-11,4.9-11,11C-95,166.1-94.1,167-93,167z"/>
		<path class="st2" d="M-74,173c0,1.1,0.9,2,2,2h36c1.1,0,2-0.9,2-2s-0.9-2-2-2h-36C-73.1,171-74,171.9-74,173z"/>
		<path class="st2" d="M-66,178c-1.1,0-2,0.9-2,2s0.9,2,2,2h27c1.1,0,2-0.9,2-2s-0.9-2-2-2H-66z"/>
		<path class="st2" d="M-36,185h-24c-1.1,0-2,0.9-2,2s0.9,2,2,2h24c1.1,0,2-0.9,2-2S-34.9,185-36,185z"/>
		<path class="st2" d="M-96,175h18c1.1,0,2-0.9,2-2s-0.9-2-2-2h-18c-1.1,0-2,0.9-2,2S-97.1,175-96,175z"/>
		<path class="st2" d="M-93,178c-1.1,0-2,0.9-2,2s0.9,2,2,2h21c1.1,0,2-0.9,2-2s-0.9-2-2-2H-93z"/>
		<path class="st2" d="M-66,185h-30c-1.1,0-2,0.9-2,2s0.9,2,2,2h30c1.1,0,2-0.9,2-2S-64.9,185-66,185z"/>
	</g>
	<path class="st4" d="M-48,154c-0.5,0-1.1,0.1-1.7,0.2C-51.8,147-58.3,142-66,142c-7.7,0-14.2,5-16.3,12.2c-0.6-0.1-1.2-0.2-1.7-0.2
		c-6.1,0-11,4.9-11,11s4.9,11,11,11h36c6.1,0,11-4.9,11-11S-41.9,154-48,154z"/>
	<g>
		<path class="st2" d="M21,167c1.1,0,2-0.9,2-2c0-3.9,3.1-7,7-7c0.3,0,0.7,0.1,1.2,0.2v1.8c0,1.1,0.9,2,2,2c1.1,0,2-0.9,2-2v-3.2
			c1.1-6.3,6.4-10.8,12.8-10.8c6.4,0,11.7,4.5,12.8,10.8v3.2c0,1.1,0.9,2,2,2s2-0.9,2-2v-1.8c0.5-0.1,0.9-0.2,1.2-0.2
			c3.9,0,7,3.1,7,7c0,1.1,0.9,2,2,2c1.1,0,2-0.9,2-2c0-6.1-4.9-11-11-11c-0.5,0-1.1,0.1-1.7,0.2C62.2,147,55.7,142,48,142
			c-7.7,0-14.2,5-16.3,12.2c-0.6-0.1-1.2-0.2-1.7-0.2c-6.1,0-11,4.9-11,11C19,166.1,19.9,167,21,167z"/>
		<path class="st2" d="M40,173c0,1.1,0.9,2,2,2h36c1.1,0,2-0.9,2-2s-0.9-2-2-2H42C40.9,171,40,171.9,40,173z"/>
		<path class="st2" d="M48,178c-1.1,0-2,0.9-2,2s0.9,2,2,2h27c1.1,0,2-0.9,2-2s-0.9-2-2-2H48z"/>
		<path class="st2" d="M78,185H54c-1.1,0-2,0.9-2,2s0.9,2,2,2h24c1.1,0,2-0.9,2-2S79.1,185,78,185z"/>
		<path class="st2" d="M18,175h18c1.1,0,2-0.9,2-2s-0.9-2-2-2H18c-1.1,0-2,0.9-2,2S16.9,175,18,175z"/>
		<path class="st2" d="M21,178c-1.1,0-2,0.9-2,2s0.9,2,2,2h21c1.1,0,2-0.9,2-2s-0.9-2-2-2H21z"/>
		<path class="st2" d="M48,185H18c-1.1,0-2,0.9-2,2s0.9,2,2,2h30c1.1,0,2-0.9,2-2S49.1,185,48,185z"/>
	</g>
	<path class="st4" d="M66,154c-0.5,0-1.1,0.1-1.7,0.2C62.2,147,55.7,142,48,142c-7.7,0-14.2,5-16.3,12.2c-0.6-0.1-1.2-0.2-1.7-0.2
		c-6.1,0-11,4.9-11,11s4.9,11,11,11h36c6.1,0,11-4.9,11-11S72.1,154,66,154z"/>
	<path class="st4" d="M180,148c-0.5,0-1.1,0.1-1.7,0.2c-2.1-7.2-8.6-12.2-16.3-12.2c-7.7,0-14.2,5-16.3,12.2
		c-0.6-0.1-1.2-0.2-1.7-0.2c-6.1,0-11,4.9-11,11s4.9,11,11,11h36c6.1,0,11-4.9,11-11S186.1,148,180,148z"/>
	<path class="st4" d="M66-416c-0.5,0-1.1,0.1-1.7,0.2C62.2-423,55.7-428,48-428c-7.7,0-14.2,5-16.3,12.2c-0.6-0.1-1.2-0.2-1.7-0.2
		c-6.1,0-11,4.9-11,11s4.9,11,11,11h36c6.1,0,11-4.9,11-11S72.1-416,66-416z"/>
	<path class="st4" d="M180-416c-0.5,0-1.1,0.1-1.7,0.2c-2.1-7.2-8.6-12.2-16.3-12.2c-7.7,0-14.2,5-16.3,12.2
		c-0.6-0.1-1.2-0.2-1.7-0.2c-6.1,0-11,4.9-11,11s4.9,11,11,11h36c6.1,0,11-4.9,11-11S186.1-416,180-416z"/>
	<path class="st4" d="M-276-302c-0.5,0-1.1,0.1-1.7,0.2c-2.1-7.2-8.6-12.2-16.3-12.2c-7.7,0-14.2,5-16.3,12.2
		c-0.6-0.1-1.2-0.2-1.7-0.2c-6.1,0-11,4.9-11,11s4.9,11,11,11h36c6.1,0,11-4.9,11-11S-269.9-302-276-302z"/>
	<g>
		<g>
			<path class="st2" d="M-180-278c-1.1,0-2,0.9-2,2v18c0,1.1,0.9,2,2,2c1.1,0,2-0.9,2-2v-18C-178-277.1-178.9-278-180-278z"/>
			<path class="st2" d="M-152.3-296.2c-0.3-0.6-0.7-1.2-1.2-1.8c-1.3-1.6-3.2-2.9-5.2-3.5c-1-0.3-2.1-0.5-3.3-0.5
				c-0.5,0-1.1,0.1-1.7,0.2c-2.1-7.2-8.6-12.2-16.3-12.2c-7.7,0-14.2,5-16.3,12.2c-0.6-0.1-1.2-0.2-1.7-0.2c-1.1,0-2.2,0.2-3.3,0.5
				c-2.1,0.6-3.9,1.9-5.2,3.5c-0.4,0.5-0.8,1.1-1.2,1.8c-0.8,1.6-1.3,3.3-1.3,5.2s0.5,3.7,1.3,5.2c0.3,0.6,0.7,1.2,1.2,1.8
				c1.3,1.6,3.2,2.9,5.2,3.5c1,0.3,2.1,0.5,3.3,0.5h7v16c0,1.1,0.9,2,2,2c1.1,0,2-0.9,2-2v-16h14v16c0,1.1,0.9,2,2,2
				c1.1,0,2-0.9,2-2v-16h7c1.1,0,2.2-0.2,3.3-0.5c2.1-0.6,3.9-1.9,5.2-3.5c0.4-0.5,0.8-1.1,1.2-1.8c0.8-1.6,1.3-3.3,1.3-5.2
				S-151.5-294.7-152.3-296.2z"/>
		</g>
		<path class="st4" d="M-162-302c-0.5,0-1.1,0.1-1.7,0.2c-2.1-7.2-8.6-12.2-16.3-12.2c-7.7,0-14.2,5-16.3,12.2
			c-0.6-0.1-1.2-0.2-1.7-0.2c-6.1,0-11,4.9-11,11s4.9,11,11,11h36c6.1,0,11-4.9,11-11S-155.9-302-162-302z"/>
	</g>
	<path class="st4" d="M-48-302c-0.5,0-1.1,0.1-1.7,0.2C-51.8-309-58.3-314-66-314c-7.7,0-14.2,5-16.3,12.2c-0.6-0.1-1.2-0.2-1.7-0.2
		c-6.1,0-11,4.9-11,11s4.9,11,11,11h36c6.1,0,11-4.9,11-11S-41.9-302-48-302z"/>
	<path class="st4" d="M66-302c-0.5,0-1.1,0.1-1.7,0.2C62.2-309,55.7-314,48-314c-7.7,0-14.2,5-16.3,12.2c-0.6-0.1-1.2-0.2-1.7-0.2
		c-6.1,0-11,4.9-11,11s4.9,11,11,11h36c6.1,0,11-4.9,11-11S72.1-302,66-302z"/>
	<g>
		<g>
			<circle class="st2" cx="153" cy="-276" r="2"/>
			<circle class="st2" cx="171" cy="-276" r="2"/>
			<circle class="st2" cx="162" cy="-270" r="2"/>
			<circle class="st2" cx="171" cy="-264" r="2"/>
			<circle class="st2" cx="162" cy="-258" r="2"/>
			<circle class="st2" cx="153" cy="-264" r="2"/>
			<path class="st2" d="M189.7-296.2c-0.3-0.6-0.7-1.2-1.2-1.8c-1.3-1.6-3.2-2.9-5.2-3.5c-1-0.3-2.1-0.5-3.3-0.5
				c-0.3,0-0.5,0-0.8,0.1c-0.3,0-0.6,0.1-0.9,0.1c-0.9-3.1-2.7-5.9-5-7.9c-0.3-0.3-0.7-0.6-1-0.8c-0.7-0.5-1.5-1-2.3-1.4
				c-2.4-1.3-5.1-2-8-2c-7.7,0-14.2,5-16.3,12.2c-0.1,0-0.1,0-0.2,0c-0.5-0.1-1-0.2-1.5-0.2c-1.1,0-2.2,0.2-3.3,0.5
				c-2.1,0.6-3.9,1.9-5.2,3.5c-0.4,0.5-0.8,1.1-1.2,1.8c-0.8,1.6-1.3,3.3-1.3,5.2s0.5,3.7,1.3,5.2c0.3,0.6,0.7,1.2,1.2,1.8
				c1.3,1.6,3.2,2.9,5.2,3.5c1,0.3,2.1,0.5,3.3,0.5h36c1.1,0,2.2-0.2,3.3-0.5c2.1-0.6,3.9-1.9,5.2-3.5c0.4-0.5,0.8-1.1,1.2-1.8
				c0.8-1.6,1.3-3.3,1.3-5.2S190.5-294.7,189.7-296.2z"/>
		</g>
		<path class="st4" d="M180-302c-0.5,0-1.1,0.1-1.7,0.2c-2.1-7.2-8.6-12.2-16.3-12.2c-7.7,0-14.2,5-16.3,12.2
			c-0.6-0.1-1.2-0.2-1.7-0.2c-6.1,0-11,4.9-11,11s4.9,11,11,11h36c6.1,0,11-4.9,11-11S186.1-302,180-302z"/>
	</g>
	<path class="st4" d="M-276-188c-0.5,0-1.1,0.1-1.7,0.2c-2.1-7.2-8.6-12.2-16.3-12.2c-7.7,0-14.2,5-16.3,12.2
		c-0.6-0.1-1.2-0.2-1.7-0.2c-6.1,0-11,4.9-11,11s4.9,11,11,11h36c6.1,0,11-4.9,11-11S-269.9-188-276-188z"/>
	<path class="st4" d="M-162-188c-0.5,0-1.1,0.1-1.7,0.2c-2.1-7.2-8.6-12.2-16.3-12.2c-7.7,0-14.2,5-16.3,12.2
		c-0.6-0.1-1.2-0.2-1.7-0.2c-6.1,0-11,4.9-11,11s4.9,11,11,11h36c6.1,0,11-4.9,11-11S-155.9-188-162-188z"/>
	<g>
		<g>
			<path class="st2" d="M-297.3-43.3c-0.6-1-1.8-1.3-2.7-0.7c-1,0.6-1.3,1.8-0.7,2.7l1,1.7c0.4,0.6,1,1,1.7,1c0.3,0,0.7-0.1,1-0.3
				c1-0.6,1.3-1.8,0.7-2.7L-297.3-43.3z"/>
			<path class="st2" d="M-302-44.1c-1-0.6-2.2-0.2-2.7,0.7l-1,1.7c-0.6,1-0.2,2.2,0.7,2.7c0.3,0.2,0.7,0.3,1,0.3
				c0.7,0,1.4-0.4,1.7-1l1-1.7C-300.7-42.3-301-43.5-302-44.1z"/>
			<path class="st2" d="M-303-45.8c0-1.1-0.9-2-2-2h-2c-1.1,0-2,0.9-2,2c0,1.1,0.9,2,2,2h2C-303.9-43.8-303-44.7-303-45.8z"/>
			<path class="st2" d="M-295-47.8h-2c-1.1,0-2,0.9-2,2c0,1.1,0.9,2,2,2h2c1.1,0,2-0.9,2-2C-293-46.9-293.9-47.8-295-47.8z"/>
			<path class="st2" d="M-275-73c-0.5,0-1.1,0.1-1.7,0.2C-278.8-80-285.3-85-293-85c-7.7,0-14.2,5-16.3,12.2
				c-0.6-0.1-1.2-0.2-1.7-0.2c-6.1,0-11,4.9-11,11s4.9,11,11,11h5c0,0.3,0.1,0.7,0.3,1l1,1.7c0.4,0.6,1,1,1.7,1c0.3,0,0.7-0.1,1-0.3
				c1-0.6,1.3-1.8,0.7-2.7l-0.4-0.7h1.4l-0.4,0.7c-0.6,1-0.2,2.2,0.7,2.7c0.3,0.2,0.7,0.3,1,0.3c0.7,0,1.4-0.4,1.7-1l1-1.7
				c0.2-0.3,0.3-0.7,0.3-1h21c6.1,0,11-4.9,11-11S-268.9-73-275-73z"/>
			<path class="st2" d="M-280.3-38.3c-0.6-1-1.8-1.3-2.7-0.7c-1,0.6-1.3,1.8-0.7,2.7l1,1.7c0.4,0.6,1,1,1.7,1c0.3,0,0.7-0.1,1-0.3
				c1-0.6,1.3-1.8,0.7-2.7L-280.3-38.3z"/>
			<path class="st2" d="M-285.3-47c-0.6-1-1.8-1.3-2.7-0.7c-1,0.6-1.3,1.8-0.7,2.7l1,1.7c0.4,0.6,1,1,1.7,1c0.3,0,0.7-0.1,1-0.3
				c1-0.6,1.3-1.8,0.7-2.7L-285.3-47z"/>
			<path class="st2" d="M-283-42.5c0.3,0.2,0.7,0.3,1,0.3c0.7,0,1.4-0.4,1.7-1l1-1.7c0.6-1,0.2-2.2-0.7-2.7c-1-0.6-2.2-0.2-2.7,0.7
				l-1,1.7C-284.3-44.3-284-43.1-283-42.5z"/>
			<path class="st2" d="M-285-39.1c-1-0.6-2.2-0.2-2.7,0.7l-1,1.7c-0.6,1-0.2,2.2,0.7,2.7c0.3,0.2,0.7,0.3,1,0.3
				c0.7,0,1.4-0.4,1.7-1l1-1.7C-283.7-37.3-284-38.5-285-39.1z"/>
			<path class="st2" d="M-286-40.8c0-1.1-0.9-2-2-2h-2c-1.1,0-2,0.9-2,2c0,1.1,0.9,2,2,2h2C-286.9-38.8-286-39.7-286-40.8z"/>
			<path class="st2" d="M-278-42.8h-2c-1.1,0-2,0.9-2,2c0,1.1,0.9,2,2,2h2c1.1,0,2-0.9,2-2C-276-41.9-276.9-42.8-278-42.8z"/>
		</g>
		<path class="st4" d="M-275-73c-0.5,0-1.1,0.1-1.7,0.2C-278.8-80-285.3-85-293-85c-7.7,0-14.2,5-16.3,12.2
			c-0.6-0.1-1.2-0.2-1.7-0.2c-6.1,0-11,4.9-11,11s4.9,11,11,11h36c6.1,0,11-4.9,11-11S-268.9-73-275-73z"/>
	</g>
	<path class="st4" d="M-162-74c-0.5,0-1.1,0.1-1.7,0.2C-165.8-81-172.3-86-180-86c-7.7,0-14.2,5-16.3,12.2c-0.6-0.1-1.2-0.2-1.7-0.2
		c-6.1,0-11,4.9-11,11s4.9,11,11,11h36c6.1,0,11-4.9,11-11S-155.9-74-162-74z"/>
	<path class="st4" d="M-48-74c-0.5,0-1.1,0.1-1.7,0.2C-51.8-81-58.3-86-66-86c-7.7,0-14.2,5-16.3,12.2c-0.6-0.1-1.2-0.2-1.7-0.2
		c-6.1,0-11,4.9-11,11s4.9,11,11,11h36c6.1,0,11-4.9,11-11S-41.9-74-48-74z"/>
	<path class="st4" d="M-276,40c-0.5,0-1.1,0.1-1.7,0.2C-279.8,33-286.3,28-294,28c-7.7,0-14.2,5-16.3,12.2c-0.6-0.1-1.2-0.2-1.7-0.2
		c-6.1,0-11,4.9-11,11s4.9,11,11,11h36c6.1,0,11-4.9,11-11S-269.9,40-276,40z"/>
	<path class="st4" d="M-162,40c-0.5,0-1.1,0.1-1.7,0.2C-165.8,33-172.3,28-180,28c-7.7,0-14.2,5-16.3,12.2c-0.6-0.1-1.2-0.2-1.7-0.2
		c-6.1,0-11,4.9-11,11s4.9,11,11,11h36c6.1,0,11-4.9,11-11S-155.9,40-162,40z"/>
	<path class="st4" d="M-48,40c-0.5,0-1.1,0.1-1.7,0.2C-51.8,33-58.3,28-66,28c-7.7,0-14.2,5-16.3,12.2c-0.6-0.1-1.2-0.2-1.7-0.2
		c-6.1,0-11,4.9-11,11s4.9,11,11,11h36c6.1,0,11-4.9,11-11S-41.9,40-48,40z"/>
	<path class="st4" d="M-276,268c-0.5,0-1.1,0.1-1.7,0.2c-2.1-7.2-8.6-12.2-16.3-12.2c-7.7,0-14.2,5-16.3,12.2
		c-0.6-0.1-1.2-0.2-1.7-0.2c-6.1,0-11,4.9-11,11s4.9,11,11,11h36c6.1,0,11-4.9,11-11S-269.9,268-276,268z"/>
	<g>
		<g>
			<path class="st2" d="M-292,408v-12c0-1.1-0.9-2-2-2s-2,0.9-2,2v12c0,1.1,0.9,2,2,2S-292,409.1-292,408z"/>
			<path class="st2" d="M-301,414v-12c0-1.1-0.9-2-2-2s-2,0.9-2,2v12c0,1.1,0.9,2,2,2S-301,415.1-301,414z"/>
			<path class="st2" d="M-283,414v-12c0-1.1-0.9-2-2-2s-2,0.9-2,2v12c0,1.1,0.9,2,2,2S-283,415.1-283,414z"/>
			<path class="st2" d="M-302,420h-2c-1.1,0-2,0.9-2,2v2c0,1.1,0.9,2,2,2h2c1.1,0,2-0.9,2-2v-2C-300,420.9-300.9,420-302,420z"/>
			<path class="st2" d="M-293,414h-2c-1.1,0-2,0.9-2,2v2c0,1.1,0.9,2,2,2h2c1.1,0,2-0.9,2-2v-2C-291,414.9-291.9,414-293,414z"/>
			<path class="st2" d="M-284,420h-2c-1.1,0-2,0.9-2,2v2c0,1.1,0.9,2,2,2h2c1.1,0,2-0.9,2-2v-2C-282,420.9-282.9,420-284,420z"/>
		</g>
		<path class="st4" d="M-276,382c-0.5,0-1.1,0.1-1.7,0.2c-2.1-7.2-8.6-12.2-16.3-12.2c-7.7,0-14.2,5-16.3,12.2
			c-0.6-0.1-1.2-0.2-1.7-0.2c-6.1,0-11,4.9-11,11s4.9,11,11,11h36c6.1,0,11-4.9,11-11S-269.9,382-276,382z"/>
	</g>
	<g>
		<g>
			<path class="st2" d="M45.5,396v18c0,1.1,0.9,2,2,2c1.1,0,2-0.9,2-2v-18c0-1.1-0.9-2-2-2C46.4,394,45.5,394.9,45.5,396z"/>
			<path class="st2" d="M22.5,415h-2c-1.1,0-2,0.9-2,2v2c0,1.1,0.9,2,2,2h2c1.1,0,2-0.9,2-2v-2C24.5,415.9,23.6,415,22.5,415z"/>
			<path class="st2" d="M48.5,420h-2c-1.1,0-2,0.9-2,2v2c0,1.1,0.9,2,2,2h2c1.1,0,2-0.9,2-2v-2C50.5,420.9,49.6,420,48.5,420z"/>
			<path class="st2" d="M75.5,412h-2c-1.1,0-2,0.9-2,2v2c0,1.1,0.9,2,2,2h2c1.1,0,2-0.9,2-2v-2C77.5,412.9,76.6,412,75.5,412z"/>
			<path class="st2" d="M38.5,400c-1.1,0-2,0.9-2,2v15.1c-1.2-0.7-2.5-1.1-4-1.1h-2c-1.1,0-2,0.9-2,2c0,1.1,0.9,2,2,2h2
				c2.2,0,4,1.8,4,4c0,1.1,0.9,2,2,2c1.1,0,2-0.9,2-2v-22C40.5,400.9,39.6,400,38.5,400z"/>
			<path class="st2" d="M65.5,413c-2.7,0-5.1,0.9-7,2.5V402c0-1.1-0.9-2-2-2c-1.1,0-2,0.9-2,2v22c0,0,0,0,0,0c0,1.1,0.9,2,2,2
				c1.1,0,2-0.9,2-2v0c0-3.9,3.1-7,7-7c1.1,0,2-0.9,2-2C67.5,413.9,66.6,413,65.5,413z"/>
		</g>
		<path class="st4" d="M66,382c-0.5,0-1.1,0.1-1.7,0.2C62.2,375,55.7,370,48,370c-7.7,0-14.2,5-16.3,12.2c-0.6-0.1-1.2-0.2-1.7-0.2
			c-6.1,0-11,4.9-11,11s4.9,11,11,11h36c6.1,0,11-4.9,11-11S72.1,382,66,382z"/>
	</g>
	<path class="st4" d="M66,268c-0.5,0-1.1,0.1-1.7,0.2C62.2,261,55.7,256,48,256c-7.7,0-14.2,5-16.3,12.2c-0.6-0.1-1.2-0.2-1.7-0.2
		c-6.1,0-11,4.9-11,11s4.9,11,11,11h36c6.1,0,11-4.9,11-11S72.1,268,66,268z"/>
	<path class="st2" d="M-191.6,291.8c-0.8,1.1-3.4,4.7-3.4,7.2c0,2.9,2.1,5,5,5c2.9,0,5-2.1,5-5c0-2.5-2.6-6.1-3.4-7.2
		C-189.2,290.8-190.8,290.8-191.6,291.8z"/>
	<path class="st2" d="M-173.6,291.8c-0.8,1.1-3.4,4.7-3.4,7.2c0,2.9,2.1,5,5,5c2.9,0,5-2.1,5-5c0-2.5-2.6-6.1-3.4-7.2
		C-171.2,290.8-172.8,290.8-173.6,291.8z"/>
	<path class="st2" d="M-182.6,302.8c-0.8,1.1-3.4,4.7-3.4,7.2c0,2.9,2.1,5,5,5c2.9,0,5-2.1,5-5c0-2.5-2.6-6.1-3.4-7.2
		C-180.2,301.8-181.8,301.8-182.6,302.8z"/>
	<path class="st4" d="M-162,268c-0.5,0-1.1,0.1-1.7,0.2c-2.1-7.2-8.6-12.2-16.3-12.2c-7.7,0-14.2,5-16.3,12.2
		c-0.6-0.1-1.2-0.2-1.7-0.2c-6.1,0-11,4.9-11,11s4.9,11,11,11h36c6.1,0,11-4.9,11-11S-155.9,268-162,268z"/>
	<path class="st2" d="M-305.6,291.8c-0.8,1.1-3.4,4.7-3.4,7.2c0,2.9,2.1,5,5,5s5-2.1,5-5c0-2.5-2.6-6.1-3.4-7.2
		C-303.2,290.7-304.8,290.7-305.6,291.8z"/>
	<path class="st2" d="M-287.6,291.8c-0.8,1.1-3.4,4.7-3.4,7.2c0,2.9,2.1,5,5,5s5-2.1,5-5c0-2.5-2.6-6.1-3.4-7.2
		C-285.2,290.7-286.8,290.7-287.6,291.8z"/>
	<path class="st2" d="M-296.6,302.8c-0.8,1.1-3.4,4.7-3.4,7.2c0,2.9,2.1,5,5,5s5-2.1,5-5c0-2.5-2.6-6.1-3.4-7.2
		C-294.2,301.7-295.8,301.7-296.6,302.8z"/>
	<path class="st2" d="M-63.3,291.6c-0.7-0.8-2.1-0.8-2.8,0c-0.6,0.7-5.9,7-5.9,12.1c0,1.9,0.6,3.6,1.8,5c0.9,1.1,2.6,2.3,5.5,2.3
		c4.8,0,7.3-3.7,7.3-7.3C-57.5,298.6-62.7,292.3-63.3,291.6z M-64.7,308.3C-64.7,308.3-64.7,308.3-64.7,308.3l0,0.9L-64.7,308.3z"/>
	<path class="st4" d="M-48,268c-0.5,0-1.1,0.1-1.7,0.2C-51.8,261-58.3,256-66,256c-7.7,0-14.2,5-16.3,12.2c-0.6-0.1-1.2-0.2-1.7-0.2
		c-6.1,0-11,4.9-11,11s4.9,11,11,11h36c6.1,0,11-4.9,11-11S-41.9,268-48,268z"/>
	<path class="st2" d="M51.1,291.6c-0.7-0.8-2.1-0.8-2.8,0c-0.6,0.7-5.9,7-5.9,12.1c0,1.9,0.6,3.6,1.8,5c0.9,1.1,2.6,2.3,5.5,2.3
		c4.8,0,7.3-3.7,7.3-7.3C57,298.7,51.7,292.3,51.1,291.6z M49.7,308.3L49.7,308.3l0,0.9L49.7,308.3z"/>
	<path class="st4" d="M-48,382c-0.5,0-1.1,0.1-1.7,0.2C-51.8,375-58.3,370-66,370c-7.7,0-14.2,5-16.3,12.2c-0.6-0.1-1.2-0.2-1.7-0.2
		c-6.1,0-11,4.9-11,11s4.9,11,11,11h36c6.1,0,11-4.9,11-11S-41.9,382-48,382z"/>
	<path class="st4" d="M-162,382c-0.5,0-1.1,0.1-1.7,0.2c-2.1-7.2-8.6-12.2-16.3-12.2c-7.7,0-14.2,5-16.3,12.2
		c-0.6-0.1-1.2-0.2-1.7-0.2c-6.1,0-11,4.9-11,11s4.9,11,11,11h36c6.1,0,11-4.9,11-11S-155.9,382-162,382z"/>
	<path class="st4" d="M180,382c-0.5,0-1.1,0.1-1.7,0.2c-2.1-7.2-8.6-12.2-16.3-12.2c-7.7,0-14.2,5-16.3,12.2
		c-0.6-0.1-1.2-0.2-1.7-0.2c-6.1,0-11,4.9-11,11s4.9,11,11,11h36c6.1,0,11-4.9,11-11S186.1,382,180,382z"/>
	<path class="st4" d="M180,268c-0.5,0-1.1,0.1-1.7,0.2c-2.1-7.2-8.6-12.2-16.3-12.2c-7.7,0-14.2,5-16.3,12.2
		c-0.6-0.1-1.2-0.2-1.7-0.2c-6.1,0-11,4.9-11,11s4.9,11,11,11h36c6.1,0,11-4.9,11-11S186.1,268,180,268z"/>
	<path class="st2" d="M165.1,291.6c-0.7-0.8-2.1-0.8-2.8,0c-0.6,0.7-5.9,7-5.9,12.1c0,1.9,0.6,3.6,1.8,5c0.9,1.1,2.6,2.3,5.5,2.3
		c4.8,0,7.3-3.7,7.3-7.3C171,298.7,165.7,292.3,165.1,291.6z M163.7,308.3L163.7,308.3l0,0.9L163.7,308.3z"/>
	<path class="st4" d="M-276,496c-0.5,0-1.1,0.1-1.7,0.2c-2.1-7.2-8.6-12.2-16.3-12.2c-7.7,0-14.2,5-16.3,12.2
		c-0.6-0.1-1.2-0.2-1.7-0.2c-6.1,0-11,4.9-11,11c0,6.1,4.9,11,11,11h36c6.1,0,11-4.9,11-11C-265,500.9-269.9,496-276,496z"/>
	<path class="st4" d="M180.8,495.4c-0.5,0-1.1,0.1-1.7,0.2c-2.1-7.4-8.8-12.5-16.6-12.5c-7.8,0-14.5,5.2-16.6,12.5
		c-0.6-0.1-1.2-0.2-1.7-0.2c-6.2,0-11.2,5.1-11.2,11.3c0,6.2,5,11.3,11.2,11.3h36.6c6.2,0,11.2-5.1,11.2-11.3
		C192,500.4,187,495.4,180.8,495.4z"/>
	<path class="st4" d="M67,495c-0.5,0-1.1,0.1-1.7,0.2C63.2,488,56.7,483,49,483c-7.7,0-14.2,5-16.3,12.2c-0.6-0.1-1.2-0.2-1.7-0.2
		c-6.1,0-11,4.9-11,11c0,6.1,4.9,11,11,11h36c6.1,0,11-4.9,11-11C78,499.9,73.1,495,67,495z"/>
	<g>
		<path class="st5" d="M-309,152h12c1.1,0,2-0.9,2-2s-0.9-2-2-2h-12c-1.1,0-2,0.9-2,2S-310.1,152-309,152z"/>
		<path class="st5" d="M-321,158h24c1.1,0,2-0.9,2-2s-0.9-2-2-2h-24c-1.1,0-2,0.9-2,2S-322.1,158-321,158z"/>
		<path class="st5" d="M-327,164h24c1.1,0,2-0.9,2-2s-0.9-2-2-2h-24c-1.1,0-2,0.9-2,2S-328.1,164-327,164z"/>
		<path class="st5" d="M-268,168c0-1.1-0.9-2-2-2h-60c-1.1,0-2,0.9-2,2s0.9,2,2,2h60C-268.9,170-268,169.1-268,168z"/>
		<path class="st5" d="M-270,172h-57c-1.1,0-2,0.9-2,2s0.9,2,2,2h57c1.1,0,2-0.9,2-2S-268.9,172-270,172z"/>
		<path class="st5" d="M-309,178l-12,0c-1.1,0-2,0.9-2,2c0,1.1,0.9,2,2,2l12,0c1.1,0,2-0.9,2-2S-307.9,178-309,178z"/>
		<path class="st5" d="M-290,158h8c1.1,0,2-0.9,2-2s-0.9-2-2-2h-8c-1.1,0-2,0.9-2,2S-291.1,158-290,158z"/>
		<path class="st5" d="M-299,162c0,1.1,0.9,2,2,2h21c1.1,0,2-0.9,2-2s-0.9-2-2-2h-21C-298.1,160-299,160.9-299,162z"/>
		<path class="st5" d="M-276,178l-27,0c-1.1,0-2,0.9-2,2s0.9,2,2,2l27,0c1.1,0,2-0.9,2-2C-274,178.9-274.9,178-276,178z"/>
	</g>
	<g>
		<path class="st1" d="M-194-744c0,2.4,0.7,4.9,1.9,7c0.4,0.6,1,1,1.7,1h20.8c0.7,0,1.4-0.4,1.7-1c1.2-2.1,1.9-4.6,1.9-7
			c0-7.7-6.3-14-14-14S-194-751.7-194-744z M-189.2-740C-189.2-740-189.2-740-189.2-740C-189.2-740-189.1-740-189.2-740L-189.2-740z
			 M-181.2-753.9c0.4-0.1,0.8-0.1,1.2-0.1c0.1,0,0.1,0,0.2,0C-180.3-754-180.8-754-181.2-753.9z"/>
		<polygon class="st1" points="-179.9,-770.4 -184.8,-761.9 -175,-761.9 		"/>
		<polygon class="st1" points="-197.9,-748.8 -206.4,-743.8 -197.9,-738.9 		"/>
		<polygon class="st1" points="-161.9,-738.9 -153.4,-743.8 -161.9,-748.8 		"/>
		<polygon class="st1" points="-163.2,-760.6 -168.7,-758.9 -164.9,-755.1 		"/>
		<polygon class="st1" points="-195,-755.1 -191.2,-758.9 -196.7,-760.6 		"/>
	</g>
	<g>
		<path class="st1" d="M-53.7-744.6c-2.4-4.4-7-7.4-12.3-7.4c-7.7,0-14,6.3-14,14c0,1.1,0.9,2,2,2h24c1.1,0,2-0.9,2-2
			c0-2-0.4-3.9-1.2-5.6C-53.3-744-53.5-744.3-53.7-744.6z"/>
		<path class="st1" d="M-75.3-733.9L-75.3-733.9C-75.3-733.9-75.3-733.9-75.3-733.9C-75.3-733.9-75.3-733.9-75.3-733.9z"/>
		<polygon class="st1" points="-66.1,-764.2 -71,-755.7 -61.2,-755.7 		"/>
		<polygon class="st1" points="-54.9,-752.8 -51,-748.9 -49.3,-754.5 		"/>
		<polygon class="st1" points="-82.9,-754.5 -81.2,-748.9 -77.3,-752.8 		"/>
	</g>
	<g>
		<path class="st1" d="M48-746c-5,0-9.6,2.7-12.1,7c-0.4,0.6-0.4,1.4,0,2c0.4,0.6,1,1,1.7,1h20.8c0.7,0,1.4-0.4,1.7-1
			c0.4-0.6,0.4-1.4,0-2C57.6-743.3,53-746,48-746z M47.8-742c0.1,0,0.1,0,0.2,0c0,0,0.1,0,0.1,0C48-742,47.9-742,47.8-742z"/>
		<path class="st1" d="M38.8-727.8L38.8-727.8C38.8-727.8,38.8-727.8,38.8-727.8C38.8-727.8,38.8-727.8,38.8-727.8z"/>
		<polygon class="st1" points="48,-758.2 43.1,-749.7 52.9,-749.7 		"/>
		<polygon class="st1" points="59.2,-746.7 63,-742.9 64.7,-748.4 		"/>
		<polygon class="st1" points="31.2,-748.4 32.9,-742.9 36.7,-746.7 		"/>
	</g>
	<g>
		<path class="st1" d="M33.9-65.6c0,2.4,0.7,4.9,1.9,7c0.4,0.6,1,1,1.7,1h20.8c0.7,0,1.4-0.4,1.7-1c1.2-2.1,1.9-4.6,1.9-7
			c0-7.7-6.3-14-14-14S33.9-73.4,33.9-65.6z M38.8-61.6C38.7-61.7,38.7-61.7,38.8-61.6C38.8-61.7,38.8-61.7,38.8-61.6L38.8-61.6z
			 M46.7-75.6c0.4-0.1,0.8-0.1,1.2-0.1c0.1,0,0.1,0,0.2,0C47.6-75.6,47.1-75.6,46.7-75.6z"/>
		<polygon class="st1" points="48,-92 43.1,-83.5 52.9,-83.5 		"/>
		<polygon class="st1" points="30,-70.4 21.5,-65.5 30,-60.6 		"/>
		<polygon class="st1" points="66,-60.6 74.5,-65.5 66,-70.4 		"/>
		<polygon class="st1" points="64.7,-82.3 59.2,-80.6 63,-76.7 		"/>
		<polygon class="st1" points="32.9,-76.7 36.7,-80.6 31.2,-82.3 		"/>
	</g>
	<g>
		<path class="st1" d="M148.1-66c0,2.4,0.7,4.9,1.9,7c0.4,0.6,1,1,1.7,1h20.8c0.7,0,1.4-0.4,1.7-1c1.2-2.1,1.9-4.6,1.9-7
			c0-7.7-6.3-14-14-14S148.1-73.7,148.1-66z M152.9-62C152.9-62,152.9-62,152.9-62C152.9-62,153-62,152.9-62L152.9-62z M160.8-75.9
			c0.4-0.1,0.8-0.1,1.2-0.1c0.1,0,0.1,0,0.2,0C161.8-76,161.3-76,160.8-75.9z"/>
		<polygon class="st1" points="162.1,-92.4 157.2,-83.9 167,-83.9 		"/>
		<polygon class="st1" points="144.1,-70.8 135.7,-65.8 144.1,-60.9 		"/>
		<polygon class="st1" points="180.2,-60.9 188.7,-65.8 180.2,-70.8 		"/>
		<polygon class="st1" points="178.9,-82.6 173.3,-80.9 177.2,-77.1 		"/>
		<polygon class="st1" points="147.1,-77.1 150.9,-80.9 145.3,-82.6 		"/>
	</g>
	<g>
		<path class="st4" d="M-48,496c-0.5,0-1.1,0.1-1.7,0.2C-51.8,489-58.3,484-66,484c-7.7,0-14.2,5-16.3,12.2
			c-0.6-0.1-1.2-0.2-1.7-0.2c-6.1,0-11,4.9-11,11c0,6.1,4.9,11,11,11h36c6.1,0,11-4.9,11-11C-37,500.9-41.9,496-48,496z"/>
		<g>
			<path class="st5" d="M-52.2,523l-30,0c-1.1,0-2,0.9-2,2c0,1.1,0.9,2,2,2l30,0c3.9,0,7,3.1,7,7s-3.1,7-7,7c-1.1,0-2,0.9-2,2
				s0.9,2,2,2c6.1,0,11-4.9,11-11S-46.1,523-52.2,523z"/>
			<path class="st5" d="M-58.2,529h-24c-1.1,0-2,0.9-2,2s0.9,2,2,2h24c0.6,0,1,0.4,1,1s-0.4,1-1,1c-1.1,0-2,0.9-2,2s0.9,2,2,2
				c2.8,0,5-2.2,5-5S-55.4,529-58.2,529z"/>
			<path class="st5" d="M-37.2,515c-1.1,0-2,0.9-2,2s0.9,2,2,2c0.6,0,1,0.4,1,1s-0.4,1-1,1h-4c-1.1,0-2,0.9-2,2s0.9,2,2,2h4
				c2.8,0,5-2.2,5-5S-34.4,515-37.2,515z"/>
			<path class="st5" d="M-82.2,521l33,0c4.4,0,8-3.6,8-8c0-4.4-3.6-8-8-8c-4.4,0-8,3.6-8,8c0,1.1,0.9,2,2,2c1.1,0,2-0.9,2-2
				c0-2.2,1.8-4,4-4c2.2,0,4,1.8,4,4c0,2.2-1.8,4-4,4l-33,0c-1.1,0-2,0.9-2,2C-84.2,520.1-83.3,521-82.2,521z"/>
		</g>
	</g>
	<g>
		<path class="st5" d="M62.5,522l-30,0c-1.1,0-2,0.9-2,2c0,1.1,0.9,2,2,2l30,0c3.9,0,7,3.1,7,7s-3.1,7-7,7c-1.1,0-2,0.9-2,2
			s0.9,2,2,2c6.1,0,11-4.9,11-11S68.6,522,62.5,522z"/>
		<path class="st5" d="M56.5,528h-24c-1.1,0-2,0.9-2,2s0.9,2,2,2h24c0.6,0,1,0.4,1,1s-0.4,1-1,1c-1.1,0-2,0.9-2,2s0.9,2,2,2
			c2.8,0,5-2.2,5-5S59.3,528,56.5,528z"/>
		<path class="st5" d="M77.5,514c-1.1,0-2,0.9-2,2s0.9,2,2,2c0.6,0,1,0.4,1,1s-0.4,1-1,1h-4c-1.1,0-2,0.9-2,2s0.9,2,2,2h4
			c2.8,0,5-2.2,5-5S80.3,514,77.5,514z"/>
		<path class="st5" d="M32.5,520l33,0c4.4,0,8-3.6,8-8c0-4.4-3.6-8-8-8s-8,3.6-8,8c0,1.1,0.9,2,2,2c1.1,0,2-0.9,2-2c0-2.2,1.8-4,4-4
			s4,1.8,4,4c0,2.2-1.8,4-4,4l-33,0c-1.1,0-2,0.9-2,2C30.5,519.1,31.4,520,32.5,520z"/>
	</g>
	<g>
		<path class="st5" d="M177.3,522l-30,0c-1.1,0-2,0.9-2,2c0,1.1,0.9,2,2,2l30,0c3.9,0,7,3.1,7,7s-3.1,7-7,7c-1.1,0-2,0.9-2,2
			s0.9,2,2,2c6.1,0,11-4.9,11-11S183.3,522,177.3,522z"/>
		<path class="st5" d="M171.3,528h-24c-1.1,0-2,0.9-2,2s0.9,2,2,2h24c0.6,0,1,0.4,1,1s-0.4,1-1,1c-1.1,0-2,0.9-2,2s0.9,2,2,2
			c2.8,0,5-2.2,5-5S174,528,171.3,528z"/>
		<path class="st5" d="M192.3,514c-1.1,0-2,0.9-2,2s0.9,2,2,2c0.6,0,1,0.4,1,1s-0.4,1-1,1h-4c-1.1,0-2,0.9-2,2s0.9,2,2,2h4
			c2.8,0,5-2.2,5-5S195,514,192.3,514z"/>
		<path class="st5" d="M147.3,520l33,0c4.4,0,8-3.6,8-8c0-4.4-3.6-8-8-8s-8,3.6-8,8c0,1.1,0.9,2,2,2c1.1,0,2-0.9,2-2
			c0-2.2,1.8-4,4-4s4,1.8,4,4c0,2.2-1.8,4-4,4l-33,0c-1.1,0-2,0.9-2,2C145.3,519.1,146.2,520,147.3,520z"/>
	</g>
</g>
</svg>
