<?xml version="1.0" encoding="utf-8"?>
<!-- Generator: Adobe Illustrator 19.2.0, SVG Export Plug-In . SVG Version: 6.00 Build 0)  -->
<svg version="1.1" xmlns="http://www.w3.org/2000/svg" xmlns:xlink="http://www.w3.org/1999/xlink" x="0px" y="0px"
	 viewBox="0 0 96 96" style="enable-background:new 0 0 96 96;" xml:space="preserve">
<style type="text/css">
	.st0{display:none;}
	.st1{fill:#FFCC00;}
	.st2{fill:#5AC8FA;}
	.st3{fill:#5856D6;}
	.st4{fill:#007AFF;}
	.st5{fill:#FF9500;}
	.st6{fill:#FF3B30;}
</style>
<g id="Base" class="st0">
</g>
<g id="Dibujo">
	<g>
		<polyline class="st1" points="267.7,-624.9 260.7,-611.8 265.9,-611.8 260.1,-600.4 272.3,-614.6 266.1,-614.5 275,-624.9 		"/>
		<polyline class="st1" points="280.5,-629.8 273.5,-616.7 278.7,-616.7 272.9,-605.3 285.1,-619.5 278.9,-619.4 287.8,-629.8 		"/>
	</g>
	<g>
		<path class="st2" d="M-68.5,54v18c0,1.1,0.9,2,2,2c1.1,0,2-0.9,2-2V54c0-1.1-0.9-2-2-2C-67.6,52-68.5,52.9-68.5,54z"/>
		<path class="st2" d="M-91.5,73h-2c-1.1,0-2,0.9-2,2v2c0,1.1,0.9,2,2,2h2c1.1,0,2-0.9,2-2v-2C-89.5,73.9-90.4,73-91.5,73z"/>
		<path class="st2" d="M-65.5,78h-2c-1.1,0-2,0.9-2,2v2c0,1.1,0.9,2,2,2h2c1.1,0,2-0.9,2-2v-2C-63.5,78.9-64.4,78-65.5,78z"/>
		<path class="st2" d="M-38.5,70h-2c-1.1,0-2,0.9-2,2v2c0,1.1,0.9,2,2,2h2c1.1,0,2-0.9,2-2v-2C-36.5,70.9-37.4,70-38.5,70z"/>
		<path class="st2" d="M-75.5,58c-1.1,0-2,0.9-2,2v15.1c-1.2-0.7-2.5-1.1-4-1.1h-2c-1.1,0-2,0.9-2,2s0.9,2,2,2h2c2.2,0,4,1.8,4,4
			c0,1.1,0.9,2,2,2c1.1,0,2-0.9,2-2V60C-73.5,58.9-74.4,58-75.5,58z"/>
		<path class="st2" d="M-48.5,71c-2.7,0-5.1,0.9-7,2.5V60c0-1.1-0.9-2-2-2c-1.1,0-2,0.9-2,2v22c0,0,0,0,0,0c0,1.1,0.9,2,2,2
			c1.1,0,2-0.9,2-2v0c0-3.9,3.1-7,7-7c1.1,0,2-0.9,2-2S-47.4,71-48.5,71z"/>
	</g>
	<g>
		<path class="st1" d="M288.2,22c-7.7,0-14,6.3-14,14s6.3,14,14,14c7.7,0,14-6.3,14-14S295.9,22,288.2,22z"/>
		<polygon class="st1" points="288.2,9.5 293.1,18 283.3,18 		"/>
		<polygon class="st1" points="314.8,36 306.3,40.9 306.3,31.1 		"/>
		<polygon class="st1" points="305,19.2 303.3,24.8 299.4,20.9 		"/>
		<polygon class="st1" points="271.4,19.2 277,20.9 273.1,24.8 		"/>
	</g>
	<g>
		<path class="st1" d="M401.9-92c-7.7,0-14,6.3-14,14s6.3,14,14,14s14-6.3,14-14S409.6-92,401.9-92z"/>
		<polygon class="st1" points="401.9,-104.5 406.8,-96 397,-96 		"/>
		<polygon class="st1" points="428.4,-78 420,-73.1 420,-82.9 		"/>
		<polygon class="st1" points="418.6,-94.8 416.9,-89.2 413.1,-93.1 		"/>
		<polygon class="st1" points="385.1,-94.8 390.6,-93.1 386.8,-89.2 		"/>
	</g>
	<g>
		<path class="st2" d="M50-48.1v-12c0-1.1-0.9-2-2-2s-2,0.9-2,2v12c0,1.1,0.9,2,2,2S50-47,50-48.1z"/>
		<path class="st2" d="M41-42.1v-12c0-1.1-0.9-2-2-2c-1.1,0-2,0.9-2,2v12c0,1.1,0.9,2,2,2C40.1-40.1,41-41,41-42.1z"/>
		<path class="st2" d="M59-42.1v-12c0-1.1-0.9-2-2-2c-1.1,0-2,0.9-2,2v12c0,1.1,0.9,2,2,2C58.1-40.1,59-41,59-42.1z"/>
		<path class="st2" d="M40-36.1h-2c-1.1,0-2,0.9-2,2v2c0,1.1,0.9,2,2,2h2c1.1,0,2-0.9,2-2v-2C42-35.2,41.1-36.1,40-36.1z"/>
		<path class="st2" d="M49-42.1h-2c-1.1,0-2,0.9-2,2v2c0,1.1,0.9,2,2,2h2c1.1,0,2-0.9,2-2v-2C51-41.2,50.1-42.1,49-42.1z"/>
		<path class="st2" d="M58-36.1h-2c-1.1,0-2,0.9-2,2v2c0,1.1,0.9,2,2,2h2c1.1,0,2-0.9,2-2v-2C60-35.2,59.1-36.1,58-36.1z"/>
	</g>
	<g>
		<path class="st1" d="M60.1-92c-7.7,0-14,6.3-14,14s6.3,14,14,14s14-6.3,14-14S67.8-92,60.1-92z"/>
		<polygon class="st1" points="60.1,-104.5 65,-96 55.2,-96 		"/>
		<polygon class="st1" points="86.7,-78 78.2,-73.1 78.2,-82.9 		"/>
		<polygon class="st1" points="76.9,-94.8 75.2,-89.2 71.3,-93.1 		"/>
		<polygon class="st1" points="43.3,-94.8 48.9,-93.1 45,-89.2 		"/>
	</g>
	<g>
		<path class="st1" d="M-54.2-205.9c-7.7,0-14,6.3-14,14s6.3,14,14,14s14-6.3,14-14S-46.5-205.9-54.2-205.9z"/>
		<polygon class="st1" points="-54.2,-218.4 -49.3,-210 -59.1,-210 		"/>
		<polygon class="st1" points="-27.6,-191.9 -36.1,-187 -36.1,-196.8 		"/>
		<polygon class="st1" points="-37.4,-208.7 -39.2,-203.2 -43,-207 		"/>
		<polygon class="st1" points="-71,-208.7 -65.4,-207 -69.3,-203.2 		"/>
	</g>
	<g>
		<path class="st1" d="M288-206c-7.7,0-14,6.3-14,14s6.3,14,14,14s14-6.3,14-14S295.7-206,288-206z"/>
		<polygon class="st1" points="288,-218.5 292.9,-210 283.1,-210 		"/>
		<polygon class="st1" points="314.6,-192 306.1,-187.1 306.1,-196.9 		"/>
		<polygon class="st1" points="304.8,-208.8 303,-203.2 299.2,-207.1 		"/>
		<polygon class="st1" points="271.2,-208.8 276.8,-207.1 272.9,-203.2 		"/>
	</g>
	<g>
		<path class="st1" d="M174.2-320c-7.7,0-14,6.3-14,14s6.3,14,14,14s14-6.3,14-14S182-320,174.2-320z"/>
		<polygon class="st1" points="174.3,-332.5 179.2,-324 169.4,-324 		"/>
		<polygon class="st1" points="200.8,-306 192.3,-301.1 192.3,-310.9 		"/>
		<polygon class="st1" points="191,-322.8 189.3,-317.2 185.5,-321.1 		"/>
		<polygon class="st1" points="157.5,-322.8 163,-321.1 159.2,-317.2 		"/>
	</g>
	<g>
		<path class="st1" d="M60-434c-7.7,0-14,6.3-14,14s6.3,14,14,14s14-6.3,14-14S67.7-434,60-434z"/>
		<polygon class="st1" points="60,-446.5 65,-438 55.1,-438 		"/>
		<polygon class="st1" points="86.6,-420 78.1,-415.1 78.1,-424.9 		"/>
		<polygon class="st1" points="76.8,-436.8 75.1,-431.2 71.2,-435.1 		"/>
		<polygon class="st1" points="43.2,-436.8 48.8,-435.1 45,-431.2 		"/>
	</g>
	<g>
		<path class="st1" d="M60.1-548c-7.7,0-14,6.3-14,14s6.3,14,14,14c7.7,0,14-6.3,14-14S67.8-548,60.1-548z"/>
		<polygon class="st1" points="60.1,-560.5 65,-552 55.2,-552 		"/>
		<polygon class="st1" points="86.7,-534 78.2,-529.1 78.2,-538.9 		"/>
		<polygon class="st1" points="76.9,-550.8 75.2,-545.2 71.3,-549.1 		"/>
		<polygon class="st1" points="43.3,-550.8 48.9,-549.1 45,-545.2 		"/>
	</g>
	<g>
		<path class="st1" d="M-53.8-662c-7.7,0-14,6.3-14,14s6.3,14,14,14s14-6.3,14-14S-46.1-662-53.8-662z"/>
		<polygon class="st1" points="-53.8,-674.5 -48.9,-666 -58.7,-666 		"/>
		<polygon class="st1" points="-27.2,-648 -35.7,-643.1 -35.7,-652.9 		"/>
		<polygon class="st1" points="-37,-664.8 -38.8,-659.2 -42.6,-663.1 		"/>
		<polygon class="st1" points="-70.6,-664.8 -65,-663.1 -68.9,-659.2 		"/>
	</g>
	<g>
		<path class="st1" d="M287.9-662c-7.7,0-14,6.3-14,14s6.3,14,14,14s14-6.3,14-14S295.6-662,287.9-662z"/>
		<polygon class="st1" points="287.9,-674.5 292.9,-666 283,-666 		"/>
		<polygon class="st1" points="314.5,-648 306,-643.1 306,-652.9 		"/>
		<polygon class="st1" points="304.7,-664.8 303,-659.2 299.1,-663.1 		"/>
		<polygon class="st1" points="271.1,-664.8 276.7,-663.1 272.9,-659.2 		"/>
	</g>
	<g>
		<path class="st1" d="M174-776c-7.7,0-14,6.3-14,14s6.3,14,14,14s14-6.3,14-14S181.7-776,174-776z"/>
		<polygon class="st1" points="174.1,-788.5 179,-780 169.2,-780 		"/>
		<polygon class="st1" points="200.6,-762 192.1,-757.1 192.1,-766.9 		"/>
		<polygon class="st1" points="190.8,-778.8 189.1,-773.2 185.3,-777.1 		"/>
		<polygon class="st1" points="157.3,-778.8 162.8,-777.1 159,-773.2 		"/>
	</g>
	<g>
		<path class="st1" d="M401.9-890c-7.7,0-14,6.3-14,14s6.3,14,14,14s14-6.3,14-14S409.7-890,401.9-890z"/>
		<polygon class="st1" points="402,-902.5 406.9,-894 397.1,-894 		"/>
		<polygon class="st1" points="428.5,-876 420,-871.1 420,-880.9 		"/>
		<polygon class="st1" points="418.7,-892.7 417,-887.2 413.2,-891 		"/>
		<polygon class="st1" points="385.2,-892.7 390.7,-891 386.9,-887.2 		"/>
	</g>
	<g>
		<path class="st1" d="M59.8-890c-7.7,0-14,6.3-14,14s6.3,14,14,14s14-6.3,14-14S67.6-890,59.8-890z"/>
		<polygon class="st1" points="59.9,-902.5 64.8,-894 55,-894 		"/>
		<polygon class="st1" points="86.4,-876 77.9,-871.1 77.9,-880.9 		"/>
		<polygon class="st1" points="76.6,-892.7 74.9,-887.2 71.1,-891 		"/>
		<polygon class="st1" points="43.1,-892.7 48.6,-891 44.8,-887.2 		"/>
	</g>
	<path class="st3" d="M-51.5,19.4c0-1.2,0.2-2.3,0.6-3.4c-1-0.2-2-0.3-3-0.3c-7.7,0-14,6.3-14,14s6.3,14,14,14
		c7.7,0,13.9-6.2,14-13.8c-0.3,0-0.7,0.1-1,0.1C-46.8,29.9-51.5,25.2-51.5,19.4z"/>
	<path class="st3" d="M404.5,19.7c0-1.2,0.2-2.3,0.6-3.4c-1-0.2-2-0.3-3-0.3c-7.7,0-14,6.3-14,14s6.3,14,14,14
		c7.7,0,13.9-6.2,14-13.8c-0.3,0-0.7,0.1-1,0.1C409.2,30.3,404.5,25.5,404.5,19.7z"/>
	<path class="st3" d="M176.5-94.6c0-1.2,0.2-2.3,0.6-3.4c-1-0.2-2-0.3-3-0.3c-7.7,0-14,6.3-14,14s6.3,14,14,14
		c7.7,0,13.9-6.2,14-13.8c-0.3,0-0.7,0.1-1,0.1C181.2-84.1,176.5-88.8,176.5-94.6z"/>
	<path class="st3" d="M404.6-208.3c0-1.2,0.2-2.3,0.6-3.4c-1-0.2-2-0.3-3-0.3c-7.7,0-14,6.3-14,14s6.3,14,14,14
		c7.7,0,13.9-6.2,14-13.8c-0.3,0-0.7,0.1-1,0.1C409.3-197.7,404.6-202.5,404.6-208.3z"/>
	<path class="st3" d="M62.5-208.3c0-1.2,0.2-2.3,0.6-3.4c-1-0.2-2-0.3-3-0.3c-7.7,0-14,6.3-14,14s6.3,14,14,14
		c7.7,0,13.9-6.2,14-13.8c-0.3,0-0.7,0.1-1,0.1C67.2-197.7,62.5-202.5,62.5-208.3z"/>
	<path class="st3" d="M-54.5-316.3c0-1.2,0.2-2.3,0.6-3.4c-1-0.2-2-0.3-3-0.3c-7.7,0-14,6.3-14,14s6.3,14,14,14
		c7.7,0,13.9-6.2,14-13.8c-0.3,0-0.7,0.1-1,0.1C-49.8-305.7-54.5-310.5-54.5-316.3z"/>
	<path class="st3" d="M176.5-436.3c0-1.2,0.2-2.3,0.6-3.4c-1-0.2-2-0.3-3-0.3c-7.7,0-14,6.3-14,14s6.3,14,14,14
		c7.7,0,13.9-6.2,14-13.8c-0.3,0-0.7,0.1-1,0.1C181.2-425.7,176.5-430.5,176.5-436.3z"/>
	<path class="st3" d="M290.5-322.3c0-1.2,0.2-2.3,0.6-3.4c-1-0.2-2-0.3-3-0.3c-7.7,0-14,6.3-14,14s6.3,14,14,14
		c7.7,0,13.9-6.2,14-13.8c-0.3,0-0.7,0.1-1,0.1C295.2-311.7,290.5-316.5,290.5-322.3z"/>
	<path class="st3" d="M176.5-550.3c0-1.2,0.2-2.3,0.6-3.4c-1-0.2-2-0.3-3-0.3c-7.7,0-14,6.3-14,14s6.3,14,14,14
		c7.7,0,13.9-6.2,14-13.8c-0.3,0-0.7,0.1-1,0.1C181.2-539.7,176.5-544.5,176.5-550.3z"/>
	<path class="st3" d="M62.5-664.3c0-1.2,0.2-2.3,0.6-3.4c-1-0.2-2-0.3-3-0.3c-7.7,0-14,6.3-14,14s6.3,14,14,14
		c7.7,0,13.9-6.2,14-13.8c-0.3,0-0.7,0.1-1,0.1C67.2-653.7,62.5-658.5,62.5-664.3z"/>
	<path class="st3" d="M404.6-664.3c0-1.2,0.2-2.3,0.6-3.4c-1-0.2-2-0.3-3-0.3c-7.7,0-14,6.3-14,14s6.3,14,14,14
		c7.7,0,13.9-6.2,14-13.8c-0.3,0-0.7,0.1-1,0.1C409.3-653.7,404.6-658.5,404.6-664.3z"/>
	<path class="st3" d="M-51.5-778.3c0-1.2,0.2-2.3,0.6-3.4c-1-0.2-2-0.3-3-0.3c-7.7,0-14,6.3-14,14s6.3,14,14,14
		c7.7,0,13.9-6.2,14-13.8c-0.3,0-0.7,0.1-1,0.1C-46.8-767.7-51.5-772.5-51.5-778.3z"/>
	<path class="st3" d="M176.4-892.3c0-1.2,0.2-2.3,0.6-3.4c-1-0.2-2-0.3-3-0.3c-7.7,0-14,6.3-14,14s6.3,14,14,14
		c7.7,0,13.9-6.2,14-13.8c-0.3,0-0.7,0.1-1,0.1C181.1-881.7,176.4-886.5,176.4-892.3z"/>
	<path class="st3" d="M290.5-778.3c0-1.2,0.2-2.3,0.6-3.4c-1-0.2-2-0.3-3-0.3c-7.7,0-14,6.3-14,14s6.3,14,14,14
		c7.7,0,13.9-6.2,14-13.8c-0.3,0-0.7,0.1-1,0.1C295.2-767.7,290.5-772.5,290.5-778.3z"/>
	<path class="st3" d="M392.4-1216.2c0-1.2,0.2-2.3,0.6-3.4c-1-0.2-2-0.3-3-0.3c-7.7,0-14,6.3-14,14c0,7.7,6.3,14,14,14
		c7.7,0,13.9-6.2,14-13.8c-0.3,0-0.7,0.1-1,0.1C397.1-1205.7,392.4-1210.4,392.4-1216.2z"/>
	<g>
		<path class="st2" d="M162-734c-1.1,0-2,0.9-2,2v18c0,1.1,0.9,2,2,2c1.1,0,2-0.9,2-2v-18C164-733.1,163.1-734,162-734z"/>
		<path class="st2" d="M189.7-752.2c-0.3-0.6-0.7-1.2-1.2-1.8c-1.3-1.6-3.2-2.9-5.2-3.5c-1-0.3-2.1-0.5-3.3-0.5
			c-0.5,0-1.1,0.1-1.7,0.2c-2.1-7.2-8.6-12.2-16.3-12.2c-7.7,0-14.2,5-16.3,12.2c-0.6-0.1-1.2-0.2-1.7-0.2c-1.1,0-2.2,0.2-3.3,0.5
			c-2.1,0.6-3.9,1.9-5.2,3.5c-0.4,0.5-0.8,1.1-1.2,1.8c-0.8,1.6-1.3,3.3-1.3,5.2s0.5,3.7,1.3,5.2c0.3,0.6,0.7,1.2,1.2,1.8
			c1.3,1.6,3.2,2.9,5.2,3.5c1,0.3,2.1,0.5,3.3,0.5h7v16c0,1.1,0.9,2,2,2c1.1,0,2-0.9,2-2v-16h14v16c0,1.1,0.9,2,2,2c1.1,0,2-0.9,2-2
			v-16h7c1.1,0,2.2-0.2,3.3-0.5c2.1-0.6,3.9-1.9,5.2-3.5c0.4-0.5,0.8-1.1,1.2-1.8c0.8-1.6,1.3-3.3,1.3-5.2S190.5-750.7,189.7-752.2z
			"/>
	</g>
	<path class="st4" d="M-48-872c-0.5,0-1.1,0.1-1.7,0.2C-51.8-879-58.3-884-66-884c-7.7,0-14.2,5-16.3,12.2c-0.6-0.1-1.2-0.2-1.7-0.2
		c-6.1,0-11,4.9-11,11s4.9,11,11,11h36c6.1,0,11-4.9,11-11S-41.9-872-48-872z"/>
	<path class="st3" d="M-66-1106c-7.7,0-14,6.3-14,14s6.3,14,14,14s14-6.3,14-14S-58.3-1106-66-1106z"/>
	<path class="st3" d="M48-1106c-7.7,0-14,6.3-14,14s6.3,14,14,14s14-6.3,14-14S55.7-1106,48-1106z M48.7-1082
		c3.2-2.1,5.3-5.8,5.3-10s-2.1-7.8-5.3-10c5.2,0.3,9.3,4.7,9.3,10S53.9-1082.4,48.7-1082z"/>
	<path class="st3" d="M162-992c-7.7,0-14,6.3-14,14s6.3,14,14,14c7.7,0,14-6.3,14-14S169.7-992,162-992z M152-978
		c0-5.3,4.1-9.6,9.3-10c-3.2,2.1-5.3,5.8-5.3,10s2.1,7.8,5.3,10C156.1-968.4,152-972.7,152-978z"/>
	<path class="st3" d="M162-1106c-7.7,0-14,6.3-14,14s6.3,14,14,14c7.7,0,14-6.3,14-14S169.7-1106,162-1106z M162-1082v-20
		c5.5,0,10,4.5,10,10S167.5-1082,162-1082z"/>
	<path class="st3" d="M48-992c-7.7,0-14,6.3-14,14s6.3,14,14,14s14-6.3,14-14S55.7-992,48-992z M38-978c0-5.5,4.5-10,10-10v20
		C42.5-968,38-972.5,38-978z"/>
	<path class="st3" d="M276-1106c-7.7,0-14,6.3-14,14s6.3,14,14,14s14-6.3,14-14S283.7-1106,276-1106z M276-1082c-0.2,0-0.4,0-0.7,0
		c-3.2-2.1-5.3-5.8-5.3-10s2.1-7.8,5.3-10c0.2,0,0.4,0,0.7,0c5.5,0,10,4.5,10,10S281.5-1082,276-1082z"/>
	<path class="st3" d="M-66-992c-7.7,0-14,6.3-14,14s6.3,14,14,14s14-6.3,14-14S-58.3-992-66-992z M-76-978c0-5.5,4.5-10,10-10
		c0.2,0,0.4,0,0.7,0c3.2,2.1,5.3,5.8,5.3,10s-2.1,7.8-5.3,10c-0.2,0-0.4,0-0.7,0C-71.5-968-76-972.5-76-978z"/>
	<path class="st3" d="M390-1106c-7.7,0-14,6.3-14,14s6.3,14,14,14c7.7,0,14-6.3,14-14S397.7-1106,390-1106z M390-1082
		c-5.5,0-10-4.5-10-10s4.5-10,10-10s10,4.5,10,10S395.5-1082,390-1082z"/>
	<path class="st4" d="M278-1003.9v-2.1c0-1.1-0.9-2-2-2c-1.1,0-2,0.9-2,2v2.1c-13.4,1-24,12.3-24,25.9c0,1.1,0.9,2,2,2
		c1.1,0,2-0.9,2-2c0-2.2,1.8-4,4-4c2.2,0,4,1.8,4,4c0,1.1,0.9,2,2,2c1.1,0,2-0.9,2-2c0-2.2,1.8-4,4-4c2.2,0,4,1.8,4,4v21
		c0,2.8,2.2,5,5,5s5-2.2,5-5c0-1.1-0.9-2-2-2c-1.1,0-2,0.9-2,2c0,0.6-0.4,1-1,1c-0.6,0-1-0.4-1-1v-21c0-2.2,1.8-4,4-4
		c2.2,0,4,1.8,4,4c0,1.1,0.9,2,2,2c1.1,0,2-0.9,2-2c0-2.2,1.8-4,4-4c2.2,0,4,1.8,4,4c0,1.1,0.9,2,2,2c1.1,0,2-0.9,2-2
		C302-991.7,291.4-1002.9,278-1003.9z"/>
	<g>
		<path class="st5" d="M267-418h12c1.1,0,2-0.9,2-2s-0.9-2-2-2h-12c-1.1,0-2,0.9-2,2S265.9-418,267-418z"/>
		<path class="st5" d="M255-412h24c1.1,0,2-0.9,2-2s-0.9-2-2-2h-24c-1.1,0-2,0.9-2,2S253.9-412,255-412z"/>
		<path class="st5" d="M249-406h24c1.1,0,2-0.9,2-2s-0.9-2-2-2h-24c-1.1,0-2,0.9-2,2S247.9-406,249-406z"/>
		<path class="st5" d="M308-402c0-1.1-0.9-2-2-2h-60c-1.1,0-2,0.9-2,2s0.9,2,2,2h60C307.1-400,308-400.9,308-402z"/>
		<path class="st5" d="M306-398h-57c-1.1,0-2,0.9-2,2s0.9,2,2,2h57c1.1,0,2-0.9,2-2S307.1-398,306-398z"/>
		<path class="st5" d="M267-392l-12,0c-1.1,0-2,0.9-2,2s0.9,2,2,2l12,0c1.1,0,2-0.9,2-2S268.1-392,267-392z"/>
		<path class="st5" d="M286-412h8c1.1,0,2-0.9,2-2s-0.9-2-2-2h-8c-1.1,0-2,0.9-2,2S284.9-412,286-412z"/>
		<path class="st5" d="M277-408c0,1.1,0.9,2,2,2h21c1.1,0,2-0.9,2-2s-0.9-2-2-2h-21C277.9-410,277-409.1,277-408z"/>
		<path class="st5" d="M300-392l-27,0c-1.1,0-2,0.9-2,2s0.9,2,2,2l27,0c1.1,0,2-0.9,2-2S301.1-392,300-392z"/>
	</g>
	<g>
		<path class="st2" d="M21-289c1.1,0,2-0.9,2-2c0-3.9,3.1-7,7-7c0.3,0,0.7,0.1,1.2,0.2v1.8c0,1.1,0.9,2,2,2c1.1,0,2-0.9,2-2v-3.2
			c1.1-6.3,6.4-10.8,12.8-10.8s11.7,4.5,12.8,10.8v3.2c0,1.1,0.9,2,2,2c1.1,0,2-0.9,2-2v-1.8c0.5-0.1,0.9-0.2,1.2-0.2
			c3.9,0,7,3.1,7,7c0,1.1,0.9,2,2,2s2-0.9,2-2c0-6.1-4.9-11-11-11c-0.5,0-1.1,0.1-1.7,0.2C62.2-309,55.7-314,48-314
			s-14.2,5-16.3,12.2c-0.6-0.1-1.2-0.2-1.7-0.2c-6.1,0-11,4.9-11,11C19-289.9,19.9-289,21-289z"/>
		<path class="st2" d="M40-283c0,1.1,0.9,2,2,2h36c1.1,0,2-0.9,2-2s-0.9-2-2-2H42C40.9-285,40-284.1,40-283z"/>
		<path class="st2" d="M48-278c-1.1,0-2,0.9-2,2s0.9,2,2,2h27c1.1,0,2-0.9,2-2s-0.9-2-2-2H48z"/>
		<path class="st2" d="M78-271H54c-1.1,0-2,0.9-2,2s0.9,2,2,2h24c1.1,0,2-0.9,2-2S79.1-271,78-271z"/>
		<path class="st2" d="M18-281h18c1.1,0,2-0.9,2-2s-0.9-2-2-2H18c-1.1,0-2,0.9-2,2S16.9-281,18-281z"/>
		<path class="st2" d="M21-278c-1.1,0-2,0.9-2,2s0.9,2,2,2h21c1.1,0,2-0.9,2-2s-0.9-2-2-2H21z"/>
		<path class="st2" d="M48-271H18c-1.1,0-2,0.9-2,2s0.9,2,2,2h30c1.1,0,2-0.9,2-2S49.1-271,48-271z"/>
	</g>
	<g>
		<path class="st2" d="M408-308c-0.5,0-1.1,0.1-1.7,0.2c-2.1-7.2-8.6-12.2-16.3-12.2c-7.7,0-14.2,5-16.3,12.2
			c-0.6-0.1-1.2-0.2-1.7-0.2c-6.1,0-11,4.9-11,11s4.9,11,11,11c1.1,0,2-0.9,2-2s-0.9-2-2-2c-3.9,0-7-3.1-7-7s3.1-7,7-7
			c0.3,0,0.7,0.1,1.2,0.2v1.8c0,1.1,0.9,2,2,2c1.1,0,2-0.9,2-2v-3.2c1.1-6.3,6.4-10.8,12.8-10.8c6.4,0,11.7,4.5,12.8,10.8v3.2
			c0,1.1,0.9,2,2,2s2-0.9,2-2v-1.8c0.5-0.1,0.9-0.2,1.2-0.2c3.9,0,7,3.1,7,7s-3.1,7-7,7c-1.1,0-2,0.9-2,2s0.9,2,2,2
			c6.1,0,11-4.9,11-11S414.1-308,408-308z"/>
		<path class="st2" d="M381.6-289.2c-0.8-1-2.4-1-3.2,0c-0.8,1.1-3.4,4.7-3.4,7.2c0,2.9,2.1,5,5,5c2.9,0,5-2.1,5-5
			C385-284.5,382.4-288.1,381.6-289.2z"/>
		<path class="st2" d="M398.4-289.2c-0.8,1.1-3.4,4.7-3.4,7.2c0,2.9,2.1,5,5,5c2.9,0,5-2.1,5-5c0-2.5-2.6-6.1-3.4-7.2
			C400.8-290.2,399.2-290.2,398.4-289.2z"/>
		<path class="st2" d="M388.4-277.2c-0.8,1.1-3.4,4.7-3.4,7.2c0,2.9,2.1,5,5,5c2.9,0,5-2.1,5-5c0-2.5-2.6-6.1-3.4-7.2
			C390.8-278.2,389.2-278.2,388.4-277.2z"/>
	</g>
	<g>
		<path d="M283.6,286.6l-5.6,5.6V279c0-1.1-0.9-2-2-2c-1.1,0-2,0.9-2,2v13.2l-5.6-5.6c-0.8-0.8-2-0.8-2.8,0c-0.8,0.8-0.8,2,0,2.8
			l9,9c0.1,0.1,0.2,0.2,0.3,0.3c0,0,0.1,0.1,0.1,0.1c0.1,0,0.1,0.1,0.2,0.1c0.1,0,0.1,0,0.2,0.1c0.1,0,0.1,0,0.2,0.1
			c0.1,0,0.3,0,0.4,0c0.1,0,0.3,0,0.4,0c0.1,0,0.1,0,0.2-0.1c0.1,0,0.1,0,0.2-0.1c0.1,0,0.1-0.1,0.2-0.1c0,0,0.1,0,0.1-0.1
			c0.1-0.1,0.2-0.2,0.3-0.3l9-9c0.8-0.8,0.8-2,0-2.8C285.6,285.8,284.4,285.8,283.6,286.6z"/>
		<path d="M294,268c-0.5,0-1.1,0.1-1.7,0.2c-2.1-7.2-8.6-12.2-16.3-12.2c-7.7,0-14.2,5-16.3,12.2c-0.6-0.1-1.2-0.2-1.7-0.2
			c-6.1,0-11,4.9-11,11s4.9,11,11,11l2,0c1.1,0,2-0.9,2-2c0-1.1-0.9-2-2-2h0l-2,0c-3.9,0-7-3.1-7-7s3.1-7,7-7c0.3,0,0.7,0.1,1.2,0.2
			v1.8c0,1.1,0.9,2,2,2c1.1,0,2-0.9,2-2v-3.2c1.1-6.3,6.4-10.8,12.8-10.8c6.4,0,11.7,4.5,12.8,10.8v3.2c0,1.1,0.9,2,2,2s2-0.9,2-2
			v-1.8c0.5-0.1,0.9-0.2,1.2-0.2c3.9,0,7,3.1,7,7s-3.1,7-7,7l-2,0h0c-1.1,0-2,0.9-2,2c0,1.1,0.9,2,2,2l2,0c6.1,0,11-4.9,11-11
			S300.1,268,294,268z"/>
	</g>
	<g>
		<path d="M391.4,277.6c-0.1-0.1-0.2-0.2-0.3-0.3c0,0-0.1-0.1-0.1-0.1c-0.1,0-0.1-0.1-0.2-0.1c-0.1,0-0.1,0-0.2-0.1
			c-0.1,0-0.1,0-0.2-0.1c-0.3-0.1-0.5-0.1-0.8,0c-0.1,0-0.1,0-0.2,0.1c-0.1,0-0.1,0-0.2,0.1c-0.1,0-0.1,0.1-0.2,0.1
			c0,0-0.1,0-0.1,0.1c-0.1,0.1-0.2,0.2-0.3,0.3l-9,9c-0.8,0.8-0.8,2,0,2.8c0.8,0.8,2,0.8,2.8,0l5.6-5.6V297c0,1.1,0.9,2,2,2
			c1.1,0,2-0.9,2-2v-13.2l5.6,5.6c0.4,0.4,0.9,0.6,1.4,0.6c0.5,0,1-0.2,1.4-0.6c0.8-0.8,0.8-2,0-2.8L391.4,277.6z"/>
		<path d="M408,268c-0.5,0-1.1,0.1-1.7,0.2c-2.1-7.2-8.6-12.2-16.3-12.2c-7.7,0-14.2,5-16.3,12.2c-0.6-0.1-1.2-0.2-1.7-0.2
			c-6.1,0-11,4.9-11,11s4.9,11,11,11l2,0c1.1,0,2-0.9,2-2c0-1.1-0.9-2-2-2h0l-2,0c-3.9,0-7-3.1-7-7s3.1-7,7-7c0.3,0,0.7,0.1,1.2,0.2
			v1.8c0,1.1,0.9,2,2,2c1.1,0,2-0.9,2-2v-3.2c1.1-6.3,6.4-10.8,12.8-10.8c6.4,0,11.7,4.5,12.8,10.8v3.2c0,1.1,0.9,2,2,2s2-0.9,2-2
			v-1.8c0.5-0.1,0.9-0.2,1.2-0.2c3.9,0,7,3.1,7,7s-3.1,7-7,7l-2,0h0c-1.1,0-2,0.9-2,2c0,1.1,0.9,2,2,2l2,0c6.1,0,11-4.9,11-11
			S414.1,268,408,268z"/>
	</g>
	<g>
		<path class="st2" d="M388-60v18c0,1.1,0.9,2,2,2c1.1,0,2-0.9,2-2v-18c0-1.1-0.9-2-2-2C388.9-62,388-61.1,388-60z"/>
		<path class="st2" d="M365-41h-2c-1.1,0-2,0.9-2,2v2c0,1.1,0.9,2,2,2h2c1.1,0,2-0.9,2-2v-2C367-40.1,366.1-41,365-41z"/>
		<path class="st2" d="M391-36h-2c-1.1,0-2,0.9-2,2v2c0,1.1,0.9,2,2,2h2c1.1,0,2-0.9,2-2v-2C393-35.1,392.1-36,391-36z"/>
		<path class="st2" d="M418-44h-2c-1.1,0-2,0.9-2,2v2c0,1.1,0.9,2,2,2h2c1.1,0,2-0.9,2-2v-2C420-43.1,419.1-44,418-44z"/>
		<path class="st2" d="M381-56c-1.1,0-2,0.9-2,2v15.1c-1.2-0.7-2.5-1.1-4-1.1h-2c-1.1,0-2,0.9-2,2s0.9,2,2,2h2c2.2,0,4,1.8,4,4
			c0,1.1,0.9,2,2,2c1.1,0,2-0.9,2-2v-22C383-55.1,382.1-56,381-56z"/>
		<path class="st2" d="M408-43c-2.7,0-5.1,0.9-7,2.5V-54c0-1.1-0.9-2-2-2c-1.1,0-2,0.9-2,2v22c0,0,0,0,0,0c0,1.1,0.9,2,2,2
			c1.1,0,2-0.9,2-2v0c0-3.9,3.1-7,7-7c1.1,0,2-0.9,2-2S409.1-43,408-43z"/>
	</g>
	<g>
		<path class="st5" d="M54,46l-30,0c-1.1,0-2,0.9-2,2s0.9,2,2,2l30,0c3.9,0,7,3.1,7,7s-3.1,7-7,7c-1.1,0-2,0.9-2,2s0.9,2,2,2
			c6.1,0,11-4.9,11-11S60.1,46,54,46z"/>
		<path class="st5" d="M48,52H24c-1.1,0-2,0.9-2,2s0.9,2,2,2h24c0.6,0,1,0.4,1,1s-0.4,1-1,1c-1.1,0-2,0.9-2,2s0.9,2,2,2
			c2.8,0,5-2.2,5-5S50.8,52,48,52z"/>
		<path class="st5" d="M69,38c-1.1,0-2,0.9-2,2s0.9,2,2,2c0.6,0,1,0.4,1,1s-0.4,1-1,1h-4c-1.1,0-2,0.9-2,2s0.9,2,2,2h4
			c2.8,0,5-2.2,5-5S71.8,38,69,38z"/>
		<path class="st5" d="M24,44l33,0c4.4,0,8-3.6,8-8s-3.6-8-8-8s-8,3.6-8,8c0,1.1,0.9,2,2,2c1.1,0,2-0.9,2-2c0-2.2,1.8-4,4-4
			c2.2,0,4,1.8,4,4s-1.8,4-4,4l-33,0c-1.1,0-2,0.9-2,2S22.9,44,24,44z"/>
	</g>
	<g>
		<path class="st5" d="M-90,140h42c1.1,0,2-0.9,2-2c0-1.1-0.9-2-2-2h-42c-1.1,0-2,0.9-2,2C-92,139.1-91.1,140-90,140z"/>
		<path class="st5" d="M-48,144h-39c-1.1,0-2,0.9-2,2s0.9,2,2,2h39c1.1,0,2-0.9,2-2S-46.9,144-48,144z"/>
		<path class="st5" d="M-52,154c0-1.1-0.9-2-2-2h-36c-1.1,0-2,0.9-2,2s0.9,2,2,2h36C-52.9,156-52,155.1-52,154z"/>
		<path class="st5" d="M-48,160h-33c-1.1,0-2,0.9-2,2s0.9,2,2,2h33c1.1,0,2-0.9,2-2S-46.9,160-48,160z"/>
		<path class="st5" d="M-54,168h-18c-1.1,0-2,0.9-2,2s0.9,2,2,2h18c1.1,0,2-0.9,2-2S-52.9,168-54,168z"/>
		<path class="st5" d="M-60,176h-12c-1.1,0-2,0.9-2,2s0.9,2,2,2h12c1.1,0,2-0.9,2-2S-58.9,176-60,176z"/>
		<path class="st5" d="M-66,184h-6c-1.1,0-2,0.9-2,2s0.9,2,2,2h6c1.1,0,2-0.9,2-2S-64.9,184-66,184z"/>
	</g>
	<g>
		<path class="st2" d="M162,172c-2.8,0-5,2.2-5,5s2.2,5,5,5c2.8,0,5-2.2,5-5S164.8,172,162,172z M162,178c-0.6,0-1-0.4-1-1
			s0.4-1,1-1c0.6,0,1,0.4,1,1S162.6,178,162,178z"/>
		<path class="st2" d="M170,169.5l0-25.5c0-4.4-3.6-8-8-8c-4.4,0-8,3.6-8,8l0,25.5c-1.9,2-3,4.7-3,7.5c0,6.1,4.9,11,11,11
			s11-4.9,11-11C173,174.2,171.9,171.5,170,169.5z M162,184c-3.9,0-7-3.1-7-7c0-2,0.8-3.9,2.3-5.2c0.4-0.4,0.7-0.9,0.7-1.5l0-26.3
			c0-2.2,1.8-4,4-4s4,1.8,4,4l0,26.3c0,0.6,0.2,1.1,0.7,1.5c1.5,1.3,2.3,3.2,2.3,5.2C169,180.9,165.9,184,162,184z"/>
	</g>
	<g>
		<path class="st2" d="M48,188c-6.1,0-11-4.9-11-11c0-2.8,1.1-5.5,3-7.5l0-25.5c0-4.4,3.6-8,8-8s8,3.6,8,8l0,25.5c1.9,2,3,4.7,3,7.5
			C59,183.1,54.1,188,48,188L48,188z M48,140c-2.2,0-4,1.8-4,4l0,26.3c0,0.6-0.2,1.1-0.7,1.5c-1.5,1.3-2.3,3.2-2.3,5.2
			c0,3.9,3.1,7,7,7s7-3.1,7-7c0-2-0.8-3.9-2.3-5.2c-0.4-0.4-0.7-0.9-0.7-1.5l0-26.3C52,141.8,50.2,140,48,140L48,140z"/>
	</g>
	<g>
		<path class="st5" d="M278,172.4V161c0-1.1-0.9-2-2-2c-1.1,0-2,0.9-2,2v11.4c-1.8,0.8-3,2.5-3,4.6c0,2.8,2.2,5,5,5s5-2.2,5-5
			C281,175,279.8,173.2,278,172.4z M276,178c-0.6,0-1-0.4-1-1s0.4-1,1-1c0.6,0,1,0.4,1,1S276.6,178,276,178z"/>
		<path class="st5" d="M284,169.5l0-25.5c0-4.4-3.6-8-8-8s-8,3.6-8,8l0,25.5c-1.9,2-3,4.7-3,7.5c0,6.1,4.9,11,11,11s11-4.9,11-11
			C287,174.2,285.9,171.5,284,169.5z M276,184c-3.9,0-7-3.1-7-7c0-2,0.8-3.9,2.3-5.2c0.4-0.4,0.7-0.9,0.7-1.5l0-26.3
			c0-2.2,1.8-4,4-4c2.2,0,4,1.8,4,4l0,26.3c0,0.6,0.2,1.1,0.7,1.5c1.5,1.3,2.3,3.2,2.3,5.2C283,180.9,279.9,184,276,184z"/>
	</g>
	<g>
		<path class="st6" d="M392,172.4V144c0-1.1-0.9-2-2-2c-1.1,0-2,0.9-2,2v28.4c-1.8,0.8-3,2.5-3,4.6c0,2.8,2.2,5,5,5c2.8,0,5-2.2,5-5
			C395,175,393.8,173.2,392,172.4z M390,178c-0.6,0-1-0.4-1-1s0.4-1,1-1c0.6,0,1,0.4,1,1S390.6,178,390,178z"/>
		<path class="st6" d="M398,169.5l0-25.5c0-4.4-3.6-8-8-8s-8,3.6-8,8l0,25.5c-1.9,2-3,4.7-3,7.5c0,6.1,4.9,11,11,11s11-4.9,11-11
			C401,174.2,399.9,171.5,398,169.5z M390,184c-3.9,0-7-3.1-7-7c0-2,0.8-3.9,2.3-5.2c0.4-0.4,0.7-0.9,0.7-1.5l0-26.3
			c0-2.2,1.8-4,4-4c2.2,0,4,1.8,4,4l0,26.3c0,0.6,0.2,1.1,0.7,1.5c1.5,1.3,2.3,3.2,2.3,5.2C397,180.9,393.9,184,390,184z"/>
	</g>
	<path class="st6" d="M422-983.1c0-0.1,0-0.1,0-0.2c0-0.1,0-0.1,0-0.2c0-0.1,0-0.1-0.1-0.2c0-0.1,0-0.1-0.1-0.2c0,0,0,0,0-0.1
		c0,0,0-0.1-0.1-0.1c0-0.1-0.1-0.1-0.1-0.2c0-0.1-0.1-0.1-0.1-0.2c0,0-0.1-0.1-0.1-0.1c-0.1,0-0.1-0.1-0.2-0.1c0,0-0.1-0.1-0.1-0.1
		c-0.1,0-0.1-0.1-0.2-0.1c-0.1,0-0.1-0.1-0.2-0.1c-0.1,0-0.1,0-0.2-0.1c-0.1,0-0.1,0-0.2,0c-0.1,0-0.2,0-0.2,0c0,0-0.1,0-0.1,0h-4
		c0-2.8-2.2-5-5-5h-14c-1.4,0-2.7,0.6-3.6,1.5c-0.3,0.3-0.5,0.7-0.7,1c-0.8-0.4-1.7-0.6-2.7-0.6s-1.8,0.2-2.7,0.6
		c-0.2-0.4-0.4-0.7-0.7-1c-0.9-1-2.2-1.5-3.6-1.5h-14c-2.8,0-5,2.2-5,5h-4c0,0-0.1,0-0.1,0c-0.1,0-0.1,0-0.2,0c-0.1,0-0.1,0-0.2,0
		c-0.1,0-0.1,0-0.2,0.1c-0.1,0-0.1,0.1-0.2,0.1c-0.1,0-0.1,0.1-0.2,0.1c-0.1,0-0.1,0.1-0.2,0.1c-0.1,0-0.1,0.1-0.2,0.1
		c0,0-0.1,0.1-0.1,0.1c0,0-0.1,0.1-0.1,0.1c0,0.1-0.1,0.1-0.1,0.2c0,0,0,0.1-0.1,0.1c0,0,0,0,0,0.1c0,0.1-0.1,0.1-0.1,0.2
		c0,0.1,0,0.1-0.1,0.2c0,0.1,0,0.1,0,0.2c0,0.1,0,0.1,0,0.2c0,0,0,0,0,0.1c0,0,0,0.1,0,0.1c0,0.1,0,0.1,0,0.2c0,0.1,0,0.1,0,0.2
		c0,0.1,0,0.1,0.1,0.2c0,0.1,0,0.1,0.1,0.2c0,0.1,0.1,0.1,0.1,0.2c0,0.1,0.1,0.1,0.1,0.2c0,0.1,0.1,0.1,0.1,0.2c0,0,0.1,0.1,0.1,0.1
		c0,0,0.1,0.1,0.1,0.1c0.1,0,0.1,0.1,0.2,0.1c0,0,0.1,0,0.1,0.1l4.9,2.5c0.1,6,5,10.8,11,10.8c5,0,11-2.5,12.6-13.6
		c0-0.1,0-0.1,0-0.2c0-0.2,0.1-0.4,0.1-0.7c0.3-0.9,1.3-1.6,2.3-1.6c1,0,2,0.7,2.3,1.6c0,0.2,0.1,0.5,0.1,0.7c0,0.1,0,0.1,0,0.2
		C394-970.5,400-968,405-968c6,0,10.9-4.8,11-10.8l4.9-2.5c0,0,0.1,0,0.1-0.1c0.1,0,0.1-0.1,0.2-0.1c0.1,0,0.1-0.1,0.2-0.1
		c0,0,0.1-0.1,0.1-0.1c0-0.1,0.1-0.1,0.1-0.2c0,0,0.1-0.1,0.1-0.1c0-0.1,0.1-0.1,0.1-0.2c0-0.1,0.1-0.1,0.1-0.2c0-0.1,0-0.1,0.1-0.2
		c0-0.1,0-0.1,0-0.2c0-0.1,0-0.1,0-0.2C422-982.9,422-983,422-983.1C422-983,422-983,422-983.1z M376.4-982.6l-5,5
		c-0.4,0.4-0.9,0.6-1.4,0.6c-0.5,0-1-0.2-1.4-0.6c-0.8-0.8-0.8-2,0-2.8l5-5c0.8-0.8,2-0.8,2.8,0
		C377.2-984.6,377.2-983.4,376.4-982.6z M405.4-982.6l-5,5c-0.4,0.4-0.9,0.6-1.4,0.6c-0.5,0-1-0.2-1.4-0.6c-0.8-0.8-0.8-2,0-2.8l5-5
		c0.8-0.8,2-0.8,2.8,0C406.2-984.6,406.2-983.4,405.4-982.6z"/>
	<path class="st5" d="M-35.5,259.1l-24-6c0,0-0.1,0-0.1,0c-0.1,0-0.2,0-0.3,0c-0.1,0-0.1,0-0.1,0c-0.1,0-0.2,0-0.3,0
		c0,0-0.1,0-0.1,0c-0.1,0-0.3,0.1-0.4,0.1c0,0,0,0,0,0c-0.1,0.1-0.2,0.1-0.4,0.2L-70,260v-6.4c1.8-0.8,3-2.5,3-4.6c0-2.8-2.2-5-5-5
		s-5,2.2-5,5c0,2,1.2,3.8,3,4.6V304h-22c-1.1,0-2,0.9-2,2s0.9,2,2,2h48c1.1,0,2-0.9,2-2s-0.9-2-2-2h-22v-36l8.8,6.6
		c0.1,0.1,0.2,0.1,0.3,0.2c0.1,0,0.1,0.1,0.2,0.1c0.2,0.1,0.4,0.1,0.6,0.1c0,0,0,0,0,0h0c0,0,0,0,0,0c0.2,0,0.3,0,0.4-0.1
		c0,0,0,0,0,0l24-6c0.9-0.2,1.5-1,1.5-1.9v-6C-34,260.1-34.6,259.3-35.5,259.1z M-62,269l-6.7-5l6.7-5V269z M-72,248
		c0.6,0,1,0.4,1,1s-0.4,1-1,1s-1-0.4-1-1S-72.6,248-72,248z M-58,257.6l8,2v8.9l-8,2V257.6z M-38,265.4l-8,2v-6.9l8,2V265.4z"/>
	<path class="st2" d="M189,289.3l-6.2-3.6l3.5-0.9c1.1-0.3,1.7-1.4,1.4-2.4c-0.3-1.1-1.4-1.7-2.4-1.4l-7.4,2l-5.5-3.2l6.5-1.8
		c0.8-0.2,1.4-0.9,1.5-1.8c0.1-0.9-0.4-1.6-1.2-2l-5.8-2.4l4.5-2.6l7.4,2c0.2,0,0.3,0.1,0.5,0.1c0.9,0,1.7-0.6,1.9-1.5
		c0.3-1.1-0.3-2.2-1.4-2.4l-3.5-0.9l6.2-3.6c1-0.6,1.3-1.8,0.7-2.7c-0.6-1-1.8-1.3-2.7-0.7l-6.2,3.6l0.9-3.5
		c0.3-1.1-0.3-2.2-1.4-2.4c-1.1-0.3-2.2,0.3-2.4,1.4l-2,7.4l-4.5,2.6l0.8-6.2c0.1-0.8-0.3-1.6-1-2c-0.7-0.4-1.6-0.3-2.2,0.1l-5,3.8
		v-5.2l5.4-5.4c0.8-0.8,0.8-2,0-2.8c-0.8-0.8-2-0.8-2.8,0l-2.6,2.6V246c0-1.1-0.9-2-2-2c-1.1,0-2,0.9-2,2v7.2l-2.6-2.6
		c-0.8-0.8-2-0.8-2.8,0c-0.8,0.8-0.8,2,0,2.8l5.4,5.4v5.2l-5-3.8c-0.7-0.5-1.6-0.5-2.3-0.1c-0.7,0.5-1,1.4-0.8,2.2l1.8,6.5l-5.5-3.2
		l-2-7.4c-0.3-1.1-1.4-1.7-2.4-1.4c-1.1,0.3-1.7,1.4-1.4,2.4l0.9,3.5l-6.2-3.6c-1-0.6-2.2-0.2-2.7,0.7c-0.6,1-0.2,2.2,0.7,2.7
		l6.2,3.6l-3.5,0.9c-1.1,0.3-1.7,1.4-1.4,2.4c0.2,0.9,1,1.5,1.9,1.5c0.2,0,0.3,0,0.5-0.1l7.4-2l5.5,3.2l-6.5,1.8
		c-0.8,0.2-1.4,0.9-1.5,1.8c-0.1,0.9,0.4,1.6,1.2,2l5.8,2.4l-4.5,2.6l-7.4-2c-1.1-0.3-2.2,0.3-2.4,1.4c-0.3,1.1,0.3,2.2,1.4,2.4
		l3.5,0.9l-6.2,3.6c-1,0.6-1.3,1.8-0.7,2.7c0.4,0.6,1,1,1.7,1c0.3,0,0.7-0.1,1-0.3l6.2-3.6l-0.9,3.5c-0.3,1.1,0.3,2.2,1.4,2.4
		c0.2,0,0.3,0.1,0.5,0.1c0.9,0,1.7-0.6,1.9-1.5l2-7.4l4.5-2.6l-0.8,6.2c-0.1,0.8,0.3,1.6,1,2c0.7,0.4,1.6,0.3,2.2-0.1l5-3.8v5.2
		l-5.4,5.4c-0.8,0.8-0.8,2,0,2.8c0.8,0.8,2,0.8,2.8,0l2.6-2.6v7.2c0,1.1,0.9,2,2,2c1.1,0,2-0.9,2-2v-7.2l2.6,2.6
		c0.4,0.4,0.9,0.6,1.4,0.6s1-0.2,1.4-0.6c0.8-0.8,0.8-2,0-2.8l-5.4-5.4V288l5,3.8c0.4,0.3,0.8,0.4,1.2,0.4c0.4,0,0.8-0.1,1.1-0.3
		c0.7-0.5,1-1.4,0.8-2.2l-1.8-6.5l5.5,3.2l2,7.4c0.2,0.9,1,1.5,1.9,1.5c0.2,0,0.3,0,0.5-0.1c1.1-0.3,1.7-1.4,1.4-2.4l-0.9-3.5
		l6.2,3.6c0.3,0.2,0.7,0.3,1,0.3c0.7,0,1.4-0.4,1.7-1C190.3,291,189.9,289.8,189,289.3z M172.2,275.6l-4.8,1.3L166,276l3.1-1.8
		L172.2,275.6z M167.6,266.3l-0.6,4.5l-3.1,1.8V269L167.6,266.3z M157.2,266.9l2.8,2.1v3.5l-1.5-0.9L157.2,266.9z M151.7,276.4
		l4.8-1.3l1.5,0.9l-3.1,1.8L151.7,276.4z M156.4,285.7l0.6-4.5l3.1-1.8v3.5L156.4,285.7z M166.8,285.1L164,283v-3.5l1.5,0.9
		L166.8,285.1z"/>
	<g>
		<path class="st5" d="M72,254c1.1,0,2-0.9,2-2s-0.9-2-2-2c-7,0-12.9,5.2-13.8,12h-2c1-7.9,7.7-14,15.9-14c1.1,0,2-0.9,2-2
			s-0.9-2-2-2c-10.4,0-18.9,7.9-19.9,18H44v-10c0-1.5-0.4-2.9-1.1-4.1l1.5-1.5c0.8-0.8,0.8-2,0-2.8c-0.8-0.8-2-0.8-2.8,0l-1.5,1.5
			c-0.6-0.4-1.3-0.7-2.1-0.9V242c0-1.1-0.9-2-2-2c-1.1,0-2,0.9-2,2v2.3c-0.7,0.2-1.4,0.5-2.1,0.9l-1.5-1.5c-0.8-0.8-2-0.8-2.8,0
			c-0.8,0.8-0.8,2,0,2.8l1.5,1.5c-0.5,0.9-0.9,2-1,3.1H24c-0.9,0-1.7,0.6-1.9,1.5c-0.2,0.9,0.2,1.8,1.1,2.2l4.9,2.4v6.8
			c0,10.4,7.9,18.9,18,19.9V294H28.8l2.6-2.6c0.8-0.8,0.8-2,0-2.8c-0.8-0.8-2-0.8-2.8,0l-6,6c-0.1,0.1-0.2,0.2-0.2,0.3
			c0,0-0.1,0.1-0.1,0.1c0,0.1-0.1,0.1-0.1,0.2c0,0.1,0,0.1-0.1,0.2c0,0.1,0,0.1-0.1,0.2c-0.1,0.3-0.1,0.5,0,0.8c0,0.1,0,0.1,0.1,0.2
			c0,0.1,0,0.1,0.1,0.2c0,0.1,0.1,0.1,0.1,0.2c0,0,0,0.1,0.1,0.1c0.1,0.1,0.2,0.2,0.2,0.3l6,6c0.4,0.4,0.9,0.6,1.4,0.6
			s1-0.2,1.4-0.6c0.8-0.8,0.8-2,0-2.8l-2.6-2.6H46v12c0,1.1,0.9,2,2,2c1.1,0,2-0.9,2-2v-12h15.2l5.4,5.4c0.4,0.4,0.9,0.6,1.4,0.6
			c0.5,0,1-0.2,1.4-0.6c0.8-0.8,0.8-2,0-2.8l-4.6-4.6l4.6-4.6c0.8-0.8,0.8-2,0-2.8c-0.8-0.8-2-0.8-2.8,0l-5.4,5.4H50v-10.1
			c10.1-1,18-9.5,18-19.9c0-2.2,1.8-4,4-4c1.1,0,2-0.9,2-2s-0.9-2-2-2c-3.7,0-6.8,2.6-7.7,6h-2.1C63.1,257.4,67.2,254,72,254z
			 M51.4,266c-0.7,1.2-2,2-3.4,2c-1.5,0-2.8-0.8-3.4-2H51.4z M63.9,266c-1,7.9-7.7,14-15.9,14c-8.8,0-16-7.2-16-16v-12
			c0-2.2,1.8-4,4-4c2.2,0,4,1.8,4,4v12c0,0,0,0,0,0c0,4.4,3.6,8,8,8c3.7,0,6.8-2.6,7.7-6H63.9z"/>
		<circle class="st6" cx="36" cy="252" r="2"/>
	</g>
	<g>
		<path class="st1" d="M-66-1220c-7.7,0-14,6.3-14,14s6.3,14,14,14s14-6.3,14-14S-58.3-1220-66-1220z"/>
		<polygon class="st1" points="-66,-1232.5 -61.1,-1224 -70.9,-1224 		"/>
		<polygon class="st1" points="-66,-1179.6 -70.9,-1188 -61.1,-1188 		"/>
		<polygon class="st1" points="-92.5,-1206 -84,-1210.9 -84,-1201.1 		"/>
		<polygon class="st1" points="-39.4,-1206 -47.9,-1201.1 -47.9,-1210.9 		"/>
		<polygon class="st1" points="-49.3,-1222.8 -51,-1217.2 -54.8,-1221.1 		"/>
		<polygon class="st1" points="-82.8,-1189.2 -81.1,-1194.8 -77.3,-1190.9 		"/>
		<polygon class="st1" points="-82.8,-1222.8 -77.3,-1221.1 -81.1,-1217.2 		"/>
		<polygon class="st1" points="-49.3,-1189.2 -54.8,-1190.9 -51,-1194.8 		"/>
	</g>
	<path class="st4" d="M66-872c-0.5,0-1.1,0.1-1.7,0.2C62.2-879,55.7-884,48-884c-7.7,0-14.2,5-16.3,12.2c-0.6-0.1-1.2-0.2-1.7-0.2
		c-6.1,0-11,4.9-11,11s4.9,11,11,11h36c6.1,0,11-4.9,11-11S72.1-872,66-872z"/>
	<path class="st4" d="M180-872c-0.5,0-1.1,0.1-1.7,0.2c-2.1-7.2-8.6-12.2-16.3-12.2c-7.7,0-14.2,5-16.3,12.2
		c-0.6-0.1-1.2-0.2-1.7-0.2c-6.1,0-11,4.9-11,11s4.9,11,11,11h36c6.1,0,11-4.9,11-11S186.1-872,180-872z"/>
	<g>
		<path class="st2" d="M267-840c-1.1,0-2,0.9-2,2v4c0,1.1,0.9,2,2,2c1.1,0,2-0.9,2-2v-4C269-839.1,268.1-840,267-840z"/>
		<path class="st2" d="M276-834c-1.1,0-2,0.9-2,2v4c0,1.1,0.9,2,2,2c1.1,0,2-0.9,2-2v-4C278-833.1,277.1-834,276-834z"/>
		<path class="st2" d="M276-846c-1.1,0-2,0.9-2,2v4c0,1.1,0.9,2,2,2c1.1,0,2-0.9,2-2v-4C278-845.1,277.1-846,276-846z"/>
		<path class="st2" d="M285-840c-1.1,0-2,0.9-2,2v4c0,1.1,0.9,2,2,2c1.1,0,2-0.9,2-2v-4C287-839.1,286.1-840,285-840z"/>
		<path class="st2" d="M303.7-866.2c-0.3-0.6-0.7-1.2-1.2-1.8c-1.3-1.6-3.2-2.9-5.2-3.5c-1-0.3-2.1-0.5-3.3-0.5
			c-0.5,0-1.1,0.1-1.7,0.2c-0.9-3.1-2.7-5.9-5-7.9c-0.3-0.3-0.7-0.6-1-0.8c-0.7-0.5-1.5-1-2.3-1.4c-2.4-1.3-5.1-2-8-2
			c-7.7,0-14.2,5-16.3,12.2c-0.6-0.1-1.2-0.2-1.7-0.2c-1.1,0-2.2,0.2-3.3,0.5c-2.1,0.6-3.9,1.9-5.2,3.5c-0.4,0.5-0.8,1.1-1.2,1.8
			c-0.8,1.6-1.3,3.3-1.3,5.2s0.5,3.7,1.3,5.2c0.3,0.6,0.7,1.2,1.2,1.8c1.3,1.6,3.2,2.9,5.2,3.5c1,0.3,2.1,0.5,3.3,0.5h7v4
			c0,1.1,0.9,2,2,2c1.1,0,2-0.9,2-2v-4h14v4c0,1.1,0.9,2,2,2c1.1,0,2-0.9,2-2v-4h7c1.1,0,2.2-0.2,3.3-0.5c2.1-0.6,3.9-1.9,5.2-3.5
			c0.4-0.5,0.8-1.1,1.2-1.8c0.8-1.6,1.3-3.3,1.3-5.2S304.5-864.7,303.7-866.2z"/>
	</g>
	<g>
		<path class="st2" d="M381-840c-1.1,0-2,0.9-2,2v4c0,1.1,0.9,2,2,2c1.1,0,2-0.9,2-2v-4C383-839.1,382.1-840,381-840z"/>
		<path class="st2" d="M390-834c-1.1,0-2,0.9-2,2v4c0,1.1,0.9,2,2,2c1.1,0,2-0.9,2-2v-4C392-833.1,391.1-834,390-834z"/>
		<path class="st2" d="M390-846c-1.1,0-2,0.9-2,2v4c0,1.1,0.9,2,2,2c1.1,0,2-0.9,2-2v-4C392-845.1,391.1-846,390-846z"/>
		<path class="st2" d="M399-840c-1.1,0-2,0.9-2,2v4c0,1.1,0.9,2,2,2c1.1,0,2-0.9,2-2v-4C401-839.1,400.1-840,399-840z"/>
		<path class="st2" d="M417.7-866.2c-0.3-0.6-0.7-1.2-1.2-1.8c-1.3-1.6-3.2-2.9-5.2-3.5c-1-0.3-2.1-0.5-3.3-0.5
			c-0.5,0-1.1,0.1-1.7,0.2c-0.9-3.1-2.7-5.9-5-7.9c-0.3-0.3-0.7-0.6-1-0.8c-0.7-0.5-1.5-1-2.3-1.4c-2.4-1.3-5.1-2-8-2
			c-7.7,0-14.2,5-16.3,12.2c-0.6-0.1-1.2-0.2-1.7-0.2c-1.1,0-2.2,0.2-3.3,0.5c-2.1,0.6-3.9,1.9-5.2,3.5c-0.4,0.5-0.8,1.1-1.2,1.8
			c-0.8,1.6-1.3,3.3-1.3,5.2s0.5,3.7,1.3,5.2c0.3,0.6,0.7,1.2,1.2,1.8c1.3,1.6,3.2,2.9,5.2,3.5c1,0.3,2.1,0.5,3.3,0.5h7v4
			c0,1.1,0.9,2,2,2c1.1,0,2-0.9,2-2v-4h14v4c0,1.1,0.9,2,2,2c1.1,0,2-0.9,2-2v-4h7c1.1,0,2.2-0.2,3.3-0.5c2.1-0.6,3.9-1.9,5.2-3.5
			c0.4-0.5,0.8-1.1,1.2-1.8c0.8-1.6,1.3-3.3,1.3-5.2S418.5-864.7,417.7-866.2z"/>
	</g>
	<g>
		<path class="st2" d="M-75-726c-1.1,0-2,0.9-2,2v4c0,1.1,0.9,2,2,2c1.1,0,2-0.9,2-2v-4C-73-725.1-73.9-726-75-726z"/>
		<path class="st2" d="M-66-720c-1.1,0-2,0.9-2,2v4c0,1.1,0.9,2,2,2s2-0.9,2-2v-4C-64-719.1-64.9-720-66-720z"/>
		<path class="st2" d="M-66-732c-1.1,0-2,0.9-2,2v4c0,1.1,0.9,2,2,2s2-0.9,2-2v-4C-64-731.1-64.9-732-66-732z"/>
		<path class="st2" d="M-57-726c-1.1,0-2,0.9-2,2v4c0,1.1,0.9,2,2,2c1.1,0,2-0.9,2-2v-4C-55-725.1-55.9-726-57-726z"/>
		<path class="st2" d="M-38.3-752.2c-0.3-0.6-0.7-1.2-1.2-1.8c-1.3-1.6-3.2-2.9-5.2-3.5c-1-0.3-2.1-0.5-3.3-0.5
			c-0.5,0-1.1,0.1-1.7,0.2c-0.9-3.1-2.7-5.9-5-7.9c-0.3-0.3-0.7-0.6-1-0.8c-0.7-0.5-1.5-1-2.3-1.4c-2.4-1.3-5.1-2-8-2
			c-7.7,0-14.2,5-16.3,12.2c-0.6-0.1-1.2-0.2-1.7-0.2c-1.1,0-2.2,0.2-3.3,0.5c-2.1,0.6-3.9,1.9-5.2,3.5c-0.4,0.5-0.8,1.1-1.2,1.8
			c-0.8,1.6-1.3,3.3-1.3,5.2s0.5,3.7,1.3,5.2c0.3,0.6,0.7,1.2,1.2,1.8c1.3,1.6,3.2,2.9,5.2,3.5c1,0.3,2.1,0.5,3.3,0.5h7v4
			c0,1.1,0.9,2,2,2c1.1,0,2-0.9,2-2v-4h14v4c0,1.1,0.9,2,2,2c1.1,0,2-0.9,2-2v-4h7c1.1,0,2.2-0.2,3.3-0.5c2.1-0.6,3.9-1.9,5.2-3.5
			c0.4-0.5,0.8-1.1,1.2-1.8c0.8-1.6,1.3-3.3,1.3-5.2S-37.5-750.7-38.3-752.2z"/>
	</g>
	<g>
		<path class="st2" d="M276-734c-1.1,0-2,0.9-2,2v18c0,1.1,0.9,2,2,2c1.1,0,2-0.9,2-2v-18C278-733.1,277.1-734,276-734z"/>
		<path class="st2" d="M303.7-752.2c-0.3-0.6-0.7-1.2-1.2-1.8c-1.3-1.6-3.2-2.9-5.2-3.5c-1-0.3-2.1-0.5-3.3-0.5
			c-0.5,0-1.1,0.1-1.7,0.2c-2.1-7.2-8.6-12.2-16.3-12.2c-7.7,0-14.2,5-16.3,12.2c-0.6-0.1-1.2-0.2-1.7-0.2c-1.1,0-2.2,0.2-3.3,0.5
			c-2.1,0.6-3.9,1.9-5.2,3.5c-0.4,0.5-0.8,1.1-1.2,1.8c-0.8,1.6-1.3,3.3-1.3,5.2s0.5,3.7,1.3,5.2c0.3,0.6,0.7,1.2,1.2,1.8
			c1.3,1.6,3.2,2.9,5.2,3.5c1,0.3,2.1,0.5,3.3,0.5h7v16c0,1.1,0.9,2,2,2c1.1,0,2-0.9,2-2v-16h14v16c0,1.1,0.9,2,2,2c1.1,0,2-0.9,2-2
			v-16h7c1.1,0,2.2-0.2,3.3-0.5c2.1-0.6,3.9-1.9,5.2-3.5c0.4-0.5,0.8-1.1,1.2-1.8c0.8-1.6,1.3-3.3,1.3-5.2S304.5-750.7,303.7-752.2z
			"/>
	</g>
	<g>
		<circle class="st2" cx="-75" cy="-618" r="2"/>
		<circle class="st2" cx="-57" cy="-618" r="2"/>
		<circle class="st2" cx="-66" cy="-612" r="2"/>
		<circle class="st2" cx="-57" cy="-606" r="2"/>
		<circle class="st2" cx="-66" cy="-600" r="2"/>
		<circle class="st2" cx="-75" cy="-606" r="2"/>
		<path class="st2" d="M-38.3-638.2c-0.3-0.6-0.7-1.2-1.2-1.8c-1.3-1.6-3.2-2.9-5.2-3.5c-1-0.3-2.1-0.5-3.3-0.5
			c-0.3,0-0.5,0-0.8,0.1c-0.3,0-0.6,0.1-0.9,0.1c-0.9-3.1-2.7-5.9-5-7.9c-0.3-0.3-0.7-0.6-1-0.8c-0.7-0.5-1.5-1-2.3-1.4
			c-2.4-1.3-5.1-2-8-2c-7.7,0-14.2,5-16.3,12.2c-0.1,0-0.1,0-0.2,0c-0.5-0.1-1-0.2-1.5-0.2c-1.1,0-2.2,0.2-3.3,0.5
			c-2.1,0.6-3.9,1.9-5.2,3.5c-0.4,0.5-0.8,1.1-1.2,1.8c-0.8,1.6-1.3,3.3-1.3,5.2s0.5,3.7,1.3,5.2c0.3,0.6,0.7,1.2,1.2,1.8
			c1.3,1.6,3.2,2.9,5.2,3.5c1,0.3,2.1,0.5,3.3,0.5h36c1.1,0,2.2-0.2,3.3-0.5c2.1-0.6,3.9-1.9,5.2-3.5c0.4-0.5,0.8-1.1,1.2-1.8
			c0.8-1.6,1.3-3.3,1.3-5.2S-37.5-636.7-38.3-638.2z"/>
	</g>
	<g>
		<circle class="st2" cx="39" cy="-618" r="2"/>
		<circle class="st2" cx="57" cy="-618" r="2"/>
		<circle class="st2" cx="48" cy="-612" r="2"/>
		<circle class="st2" cx="57" cy="-606" r="2"/>
		<circle class="st2" cx="48" cy="-600" r="2"/>
		<circle class="st2" cx="39" cy="-606" r="2"/>
		<path class="st2" d="M75.7-638.2c-0.3-0.6-0.7-1.2-1.2-1.8c-1.3-1.6-3.2-2.9-5.2-3.5c-1-0.3-2.1-0.5-3.3-0.5c-0.3,0-0.5,0-0.8,0.1
			c-0.3,0-0.6,0.1-0.9,0.1c-0.9-3.1-2.7-5.9-5-7.9c-0.3-0.3-0.7-0.6-1-0.8c-0.7-0.5-1.5-1-2.3-1.4c-2.4-1.3-5.1-2-8-2
			c-7.7,0-14.2,5-16.3,12.2c-0.1,0-0.1,0-0.2,0c-0.5-0.1-1-0.2-1.5-0.2c-1.1,0-2.2,0.2-3.3,0.5c-2.1,0.6-3.9,1.9-5.2,3.5
			c-0.4,0.5-0.8,1.1-1.2,1.8c-0.8,1.6-1.3,3.3-1.3,5.2s0.5,3.7,1.3,5.2c0.3,0.6,0.7,1.2,1.2,1.8c1.3,1.6,3.2,2.9,5.2,3.5
			c1,0.3,2.1,0.5,3.3,0.5h36c1.1,0,2.2-0.2,3.3-0.5c2.1-0.6,3.9-1.9,5.2-3.5c0.4-0.5,0.8-1.1,1.2-1.8c0.8-1.6,1.3-3.3,1.3-5.2
			S76.5-636.7,75.7-638.2z"/>
	</g>
	<g>
		<g>
			<polyline class="st1" points="152.8,-625.4 145.8,-612.3 150.9,-612.4 145.1,-601 157.4,-615.2 151.1,-615.1 160,-625.4 			"/>
			<polyline class="st1" points="165.6,-630.3 158.6,-617.2 163.8,-617.3 158,-605.9 170.2,-620.1 164,-620 172.8,-630.3 			"/>
		</g>
		<path class="st4" d="M180-644c-0.5,0-1.1,0.1-1.7,0.2c-2.1-7.2-8.6-12.2-16.3-12.2c-7.7,0-14.2,5-16.3,12.2
			c-0.6-0.1-1.2-0.2-1.7-0.2c-6.1,0-11,4.9-11,11s4.9,11,11,11h36c6.1,0,11-4.9,11-11S186.1-644,180-644z"/>
	</g>
	<path class="st4" d="M294-644c-0.5,0-1.1,0.1-1.7,0.2c-2.1-7.2-8.6-12.2-16.3-12.2c-7.7,0-14.2,5-16.3,12.2
		c-0.6-0.1-1.2-0.2-1.7-0.2c-6.1,0-11,4.9-11,11s4.9,11,11,11h36c6.1,0,11-4.9,11-11S300.1-644,294-644z"/>
	<path class="st1" d="M408-644c-0.5,0-1.1,0.1-1.7,0.2c-2.1-7.2-8.6-12.2-16.3-12.2c-7.7,0-14.2,5-16.3,12.2
		c-0.6-0.1-1.2-0.2-1.7-0.2c-6.1,0-11,4.9-11,11s4.9,11,11,11h11.3l-3.9,5.9c-0.4,0.6-0.4,1.4-0.1,2.1c0.3,0.7,1,1.1,1.8,1.1h2.3
		l-3.9,5.9c-0.6,0.9-0.4,2.2,0.6,2.8c0.3,0.2,0.7,0.3,1.1,0.3c0.6,0,1.3-0.3,1.7-0.9l6-9c0.4-0.6,0.4-1.4,0.1-2.1
		c-0.3-0.7-1-1.1-1.8-1.1h-2.3l3.3-5h5.2l-1.9,2.9c-0.4,0.6-0.4,1.4-0.1,2.1c0.3,0.7,1,1.1,1.8,1.1h2.3l-1.9,2.9
		c-0.6,0.9-0.4,2.2,0.6,2.8c0.3,0.2,0.7,0.3,1.1,0.3c0.6,0,1.3-0.3,1.7-0.9l4-6c0.4-0.6,0.4-1.4,0.1-2.1c-0.3-0.7-1-1.1-1.8-1.1
		h-2.3l1.3-2h9.9c6.1,0,11-4.9,11-11S414.1-644,408-644z M408-626h-36c-3.9,0-7-3.1-7-7s3.1-7,7-7c0.3,0,0.7,0.1,1.2,0.2v1.8
		c0,1.1,0.9,2,2,2s2-0.9,2-2v-3.2c1.1-6.3,6.4-10.8,12.8-10.8c6.4,0,11.7,4.5,12.8,10.8v3.2c0,1.1,0.9,2,2,2c1.1,0,2-0.9,2-2v-1.8
		c0.5-0.1,0.9-0.2,1.2-0.2c3.9,0,7,3.1,7,7S411.9-626,408-626z"/>
	<path class="st4" d="M408-644c-0.5,0-1.1,0.1-1.7,0.2c-2.1-7.2-8.6-12.2-16.3-12.2c-7.7,0-14.2,5-16.3,12.2
		c-0.6-0.1-1.2-0.2-1.7-0.2c-6.1,0-11,4.9-11,11s4.9,11,11,11h36c6.1,0,11-4.9,11-11S414.1-644,408-644z"/>
	<g>
		<path class="st2" d="M43.7-500.3c-0.6-1-1.8-1.3-2.7-0.7c-1,0.6-1.3,1.8-0.7,2.7l1,1.7c0.4,0.6,1,1,1.7,1c0.3,0,0.7-0.1,1-0.3
			c1-0.6,1.3-1.8,0.7-2.7L43.7-500.3z"/>
		<path class="st2" d="M39-501.1c-1-0.6-2.2-0.2-2.7,0.7l-1,1.7c-0.6,1-0.2,2.2,0.7,2.7c0.3,0.2,0.7,0.3,1,0.3c0.7,0,1.4-0.4,1.7-1
			l1-1.7C40.3-499.3,40-500.5,39-501.1z"/>
		<path class="st2" d="M38-502.8c0-1.1-0.9-2-2-2h-2c-1.1,0-2,0.9-2,2c0,1.1,0.9,2,2,2h2C37.1-500.8,38-501.7,38-502.8z"/>
		<path class="st2" d="M46-504.8h-2c-1.1,0-2,0.9-2,2c0,1.1,0.9,2,2,2h2c1.1,0,2-0.9,2-2C48-503.9,47.1-504.8,46-504.8z"/>
		<path class="st2" d="M66-530c-0.5,0-1.1,0.1-1.7,0.2C62.2-537,55.7-542,48-542c-7.7,0-14.2,5-16.3,12.2c-0.6-0.1-1.2-0.2-1.7-0.2
			c-6.1,0-11,4.9-11,11s4.9,11,11,11h5c0,0.3,0.1,0.7,0.3,1l1,1.7c0.4,0.6,1,1,1.7,1c0.3,0,0.7-0.1,1-0.3c1-0.6,1.3-1.8,0.7-2.7
			l-0.4-0.7h1.4l-0.4,0.7c-0.6,1-0.2,2.2,0.7,2.7c0.3,0.2,0.7,0.3,1,0.3c0.7,0,1.4-0.4,1.7-1l1-1.7c0.2-0.3,0.3-0.7,0.3-1h21
			c6.1,0,11-4.9,11-11S72.1-530,66-530z"/>
		<path class="st2" d="M60.7-495.3c-0.6-1-1.8-1.3-2.7-0.7c-1,0.6-1.3,1.8-0.7,2.7l1,1.7c0.4,0.6,1,1,1.7,1c0.3,0,0.7-0.1,1-0.3
			c1-0.6,1.3-1.8,0.7-2.7L60.7-495.3z"/>
		<path class="st2" d="M55.7-504c-0.6-1-1.8-1.3-2.7-0.7c-1,0.6-1.3,1.8-0.7,2.7l1,1.7c0.4,0.6,1,1,1.7,1c0.3,0,0.7-0.1,1-0.3
			c1-0.6,1.3-1.8,0.7-2.7L55.7-504z"/>
		<path class="st2" d="M58-499.5c0.3,0.2,0.7,0.3,1,0.3c0.7,0,1.4-0.4,1.7-1l1-1.7c0.6-1,0.2-2.2-0.7-2.7c-1-0.6-2.2-0.2-2.7,0.7
			l-1,1.7C56.7-501.3,57-500.1,58-499.5z"/>
		<path class="st2" d="M56-496.1c-1-0.6-2.2-0.2-2.7,0.7l-1,1.7c-0.6,1-0.2,2.2,0.7,2.7c0.3,0.2,0.7,0.3,1,0.3c0.7,0,1.4-0.4,1.7-1
			l1-1.7C57.3-494.3,57-495.5,56-496.1z"/>
		<path class="st2" d="M55-497.8c0-1.1-0.9-2-2-2h-2c-1.1,0-2,0.9-2,2c0,1.1,0.9,2,2,2h2C54.1-495.8,55-496.7,55-497.8z"/>
		<path class="st2" d="M63-499.8h-2c-1.1,0-2,0.9-2,2c0,1.1,0.9,2,2,2h2c1.1,0,2-0.9,2-2C65-498.9,64.1-499.8,63-499.8z"/>
	</g>
	<g>
		<path class="st2" d="M157.7-500.3c-0.6-1-1.8-1.3-2.7-0.7c-1,0.6-1.3,1.8-0.7,2.7l1,1.7c0.4,0.6,1,1,1.7,1c0.3,0,0.7-0.1,1-0.3
			c1-0.6,1.3-1.8,0.7-2.7L157.7-500.3z"/>
		<path class="st2" d="M153-501.1c-1-0.6-2.2-0.2-2.7,0.7l-1,1.7c-0.6,1-0.2,2.2,0.7,2.7c0.3,0.2,0.7,0.3,1,0.3c0.7,0,1.4-0.4,1.7-1
			l1-1.7C154.3-499.3,154-500.5,153-501.1z"/>
		<path class="st2" d="M152-502.8c0-1.1-0.9-2-2-2h-2c-1.1,0-2,0.9-2,2c0,1.1,0.9,2,2,2h2C151.1-500.8,152-501.7,152-502.8z"/>
		<path class="st2" d="M160-504.8h-2c-1.1,0-2,0.9-2,2c0,1.1,0.9,2,2,2h2c1.1,0,2-0.9,2-2C162-503.9,161.1-504.8,160-504.8z"/>
		<path class="st2" d="M180-530c-0.5,0-1.1,0.1-1.7,0.2c-2.1-7.2-8.6-12.2-16.3-12.2c-7.7,0-14.2,5-16.3,12.2
			c-0.6-0.1-1.2-0.2-1.7-0.2c-6.1,0-11,4.9-11,11s4.9,11,11,11h5c0,0.3,0.1,0.7,0.3,1l1,1.7c0.4,0.6,1,1,1.7,1c0.3,0,0.7-0.1,1-0.3
			c1-0.6,1.3-1.8,0.7-2.7l-0.4-0.7h1.4l-0.4,0.7c-0.6,1-0.2,2.2,0.7,2.7c0.3,0.2,0.7,0.3,1,0.3c0.7,0,1.4-0.4,1.7-1l1-1.7
			c0.2-0.3,0.3-0.7,0.3-1h21c6.1,0,11-4.9,11-11S186.1-530,180-530z"/>
		<path class="st2" d="M174.7-495.3c-0.6-1-1.8-1.3-2.7-0.7c-1,0.6-1.3,1.8-0.7,2.7l1,1.7c0.4,0.6,1,1,1.7,1c0.3,0,0.7-0.1,1-0.3
			c1-0.6,1.3-1.8,0.7-2.7L174.7-495.3z"/>
		<path class="st2" d="M169.7-504c-0.6-1-1.8-1.3-2.7-0.7c-1,0.6-1.3,1.8-0.7,2.7l1,1.7c0.4,0.6,1,1,1.7,1c0.3,0,0.7-0.1,1-0.3
			c1-0.6,1.3-1.8,0.7-2.7L169.7-504z"/>
		<path class="st2" d="M172-499.5c0.3,0.2,0.7,0.3,1,0.3c0.7,0,1.4-0.4,1.7-1l1-1.7c0.6-1,0.2-2.2-0.7-2.7c-1-0.6-2.2-0.2-2.7,0.7
			l-1,1.7C170.7-501.3,171-500.1,172-499.5z"/>
		<path class="st2" d="M170-496.1c-1-0.6-2.2-0.2-2.7,0.7l-1,1.7c-0.6,1-0.2,2.2,0.7,2.7c0.3,0.2,0.7,0.3,1,0.3c0.7,0,1.4-0.4,1.7-1
			l1-1.7C171.3-494.3,171-495.5,170-496.1z"/>
		<path class="st2" d="M169-497.8c0-1.1-0.9-2-2-2h-2c-1.1,0-2,0.9-2,2c0,1.1,0.9,2,2,2h2C168.1-495.8,169-496.7,169-497.8z"/>
		<path class="st2" d="M177-499.8h-2c-1.1,0-2,0.9-2,2c0,1.1,0.9,2,2,2h2c1.1,0,2-0.9,2-2C179-498.9,178.1-499.8,177-499.8z"/>
	</g>
	<g>
		<path class="st1" d="M280.6-505.4l-2.6,2.6v-5.2c0-1.1-0.9-2-2-2c-1.1,0-2,0.9-2,2v5.2l-2.6-2.6c-0.8-0.8-2-0.8-2.8,0
			c-0.8,0.8-0.8,2,0,2.8l6,6c0.4,0.4,0.9,0.6,1.4,0.6c0.5,0,1-0.2,1.4-0.6l6-6c0.8-0.8,0.8-2,0-2.8
			C282.6-506.2,281.4-506.2,280.6-505.4z"/>
		<path class="st1" d="M285.9-531.9c-1-1-2-1.8-3.2-2.4c-1.6-0.9-3.4-1.4-5.2-1.6c-0.5,0-0.9-0.1-1.4-0.1c-7.7,0-14,6.3-14,14
			c0,1.5,0.3,3.1,0.7,4.5c0.3,0.9,0.7,1.7,1.1,2.5c0.4,0.6,1,1,1.7,1l0,0h20.8c0.2,0,0.4,0,0.5-0.1c0.5-0.1,0.9-0.5,1.2-0.9
			c0.5-0.8,0.8-1.6,1.1-2.5c0.5-1.4,0.7-3,0.7-4.5c0-2.9-0.9-5.6-2.4-7.8C287.1-530.6,286.5-531.3,285.9-531.9z M276.2-532
			c-0.5,0-1,0-1.4,0.1h0c0.4-0.1,0.8-0.1,1.2-0.1C276.1-532,276.1-532,276.2-532z M266.8-518C266.8-518,266.8-518,266.8-518
			C266.8-518,266.9-518,266.8-518L266.8-518z"/>
	</g>
	<g>
		<path class="st1" d="M391.4-509.4c-0.8-0.8-2-0.8-2.8,0l-6,6c-0.8,0.8-0.8,2,0,2.8c0.8,0.8,2,0.8,2.8,0l2.6-2.6v5.2
			c0,1.1,0.9,2,2,2c1.1,0,2-0.9,2-2v-5.2l2.6,2.6c0.4,0.4,0.9,0.6,1.4,0.6c0.5,0,1-0.2,1.4-0.6c0.8-0.8,0.8-2,0-2.8L391.4-509.4z"/>
		<path class="st1" d="M399.9-531.9c-1-1-2-1.8-3.2-2.4c-1.6-0.9-3.4-1.4-5.2-1.6c-0.5,0-0.9-0.1-1.4-0.1c-7.7,0-14,6.3-14,14
			c0,1.5,0.3,3.1,0.7,4.5c0.3,0.9,0.7,1.7,1.1,2.5c0.4,0.6,1,1,1.7,1l0,0h20.8c0.2,0,0.4,0,0.5-0.1c0.5-0.1,0.9-0.5,1.2-0.9
			c0.5-0.8,0.8-1.6,1.1-2.5c0.5-1.4,0.7-3,0.7-4.5c0-2.9-0.9-5.6-2.4-7.8C401.1-530.6,400.5-531.3,399.9-531.9z M390.2-532
			c-0.5,0-1,0-1.4,0.1h0c0.4-0.1,0.8-0.1,1.2-0.1C390.1-532,390.1-532,390.2-532z M380.8-518C380.8-518,380.8-518,380.8-518
			C380.8-518,380.9-518,380.8-518L380.8-518z"/>
	</g>
	<g>
		<path class="st2" d="M-48-416c-0.5,0-1.1,0.1-1.7,0.2C-51.8-423-58.3-428-66-428c-7.7,0-14.2,5-16.3,12.2
			c-0.6-0.1-1.2-0.2-1.7-0.2c-6.1,0-11,4.9-11,11s4.9,11,11,11h5.4l-2.4,9.5c-0.3,1.1,0.4,2.2,1.5,2.4c0.2,0,0.3,0.1,0.5,0.1
			c0.9,0,1.7-0.6,1.9-1.5l2.6-10.5h5.4l-3.9,15.5c-0.3,1.1,0.4,2.2,1.5,2.4c0.2,0,0.3,0.1,0.5,0.1c0.9,0,1.7-0.6,1.9-1.5l4.1-16.5
			h5.4l-2.4,9.5c-0.3,1.1,0.4,2.2,1.5,2.4c0.2,0,0.3,0.1,0.5,0.1c0.9,0,1.7-0.6,1.9-1.5l2.6-10.5h7.4c6.1,0,11-4.9,11-11
			S-41.9-416-48-416z"/>
	</g>
	<path class="st2" d="M66-416c-0.5,0-1.1,0.1-1.7,0.2C62.2-423,55.7-428,48-428c-7.7,0-14.2,5-16.3,12.2c-0.6-0.1-1.2-0.2-1.7-0.2
		c-6.1,0-11,4.9-11,11s4.9,11,11,11h5.4l-2.4,9.5c-0.3,1.1,0.4,2.2,1.5,2.4c0.2,0,0.3,0.1,0.5,0.1c0.9,0,1.7-0.6,1.9-1.5l2.6-10.5
		h5.4l-3.9,15.5c-0.3,1.1,0.4,2.2,1.5,2.4c0.2,0,0.3,0.1,0.5,0.1c0.9,0,1.7-0.6,1.9-1.5l4.1-16.5h5.4l-2.4,9.5
		c-0.3,1.1,0.4,2.2,1.5,2.4c0.2,0,0.3,0.1,0.5,0.1c0.9,0,1.7-0.6,1.9-1.5l2.6-10.5H66c6.1,0,11-4.9,11-11S72.1-416,66-416z"/>
	<path class="st2" d="M180-416c-0.5,0-1.1,0.1-1.7,0.2c-2.1-7.2-8.6-12.2-16.3-12.2c-7.7,0-14.2,5-16.3,12.2
		c-0.6-0.1-1.2-0.2-1.7-0.2c-6.1,0-11,4.9-11,11s4.9,11,11,11h5.4l-2.4,9.5c-0.3,1.1,0.4,2.2,1.5,2.4c0.2,0,0.3,0.1,0.5,0.1
		c0.9,0,1.7-0.6,1.9-1.5l2.6-10.5h5.4l-3.9,15.5c-0.3,1.1,0.4,2.2,1.5,2.4c0.2,0,0.3,0.1,0.5,0.1c0.9,0,1.7-0.6,1.9-1.5l4.1-16.5
		h5.4l-2.4,9.5c-0.3,1.1,0.4,2.2,1.5,2.4c0.2,0,0.3,0.1,0.5,0.1c0.9,0,1.7-0.6,1.9-1.5l2.6-10.5h7.4c6.1,0,11-4.9,11-11
		S186.1-416,180-416z"/>
	<g>
		<path class="st2" d="M379.8-419h12c1.1,0,2-0.9,2-2s-0.9-2-2-2h-12c-1.1,0-2,0.9-2,2S378.7-419,379.8-419z"/>
		<path class="st2" d="M367.8-413h24c1.1,0,2-0.9,2-2s-0.9-2-2-2h-24c-1.1,0-2,0.9-2,2S366.7-413,367.8-413z"/>
		<path class="st2" d="M361.8-407h24c1.1,0,2-0.9,2-2s-0.9-2-2-2h-24c-1.1,0-2,0.9-2,2S360.7-407,361.8-407z"/>
		<path class="st2" d="M420.8-403c0-1.1-0.9-2-2-2h-60c-1.1,0-2,0.9-2,2s0.9,2,2,2h60C419.9-401,420.8-401.9,420.8-403z"/>
		<path class="st2" d="M418.8-399h-57c-1.1,0-2,0.9-2,2s0.9,2,2,2h57c1.1,0,2-0.9,2-2S419.9-399,418.8-399z"/>
		<path class="st2" d="M379.8-393l-12,0c-1.1,0-2,0.9-2,2s0.9,2,2,2l12,0c1.1,0,2-0.9,2-2S380.9-393,379.8-393z"/>
		<path class="st2" d="M398.8-413h8c1.1,0,2-0.9,2-2s-0.9-2-2-2h-8c-1.1,0-2,0.9-2,2S397.7-413,398.8-413z"/>
		<path class="st2" d="M389.8-409c0,1.1,0.9,2,2,2h21c1.1,0,2-0.9,2-2s-0.9-2-2-2h-21C390.7-411,389.8-410.1,389.8-409z"/>
		<path class="st2" d="M412.8-393l-27,0c-1.1,0-2,0.9-2,2s0.9,2,2,2l27,0c1.1,0,2-0.9,2-2S413.9-393,412.8-393z"/>
	</g>
	<path class="st4" d="M66-302c-0.5,0-1.1,0.1-1.7,0.2C62.2-309,55.7-314,48-314c-7.7,0-14.2,5-16.3,12.2c-0.6-0.1-1.2-0.2-1.7-0.2
		c-6.1,0-11,4.9-11,11s4.9,11,11,11h36c6.1,0,11-4.9,11-11S72.1-302,66-302z"/>
	<g>
		<path class="st2" d="M135-289c1.1,0,2-0.9,2-2c0-3.9,3.1-7,7-7c0.3,0,0.7,0.1,1.2,0.2v1.8c0,1.1,0.9,2,2,2c1.1,0,2-0.9,2-2v-3.2
			c1.1-6.3,6.4-10.8,12.8-10.8c6.4,0,11.7,4.5,12.8,10.8v3.2c0,1.1,0.9,2,2,2c1.1,0,2-0.9,2-2v-1.8c0.5-0.1,0.9-0.2,1.2-0.2
			c3.9,0,7,3.1,7,7c0,1.1,0.9,2,2,2c1.1,0,2-0.9,2-2c0-6.1-4.9-11-11-11c-0.5,0-1.1,0.1-1.7,0.2c-2.1-7.2-8.6-12.2-16.3-12.2
			c-7.7,0-14.2,5-16.3,12.2c-0.6-0.1-1.2-0.2-1.7-0.2c-6.1,0-11,4.9-11,11C133-289.9,133.9-289,135-289z"/>
		<path class="st2" d="M154-283c0,1.1,0.9,2,2,2h36c1.1,0,2-0.9,2-2s-0.9-2-2-2h-36C154.9-285,154-284.1,154-283z"/>
		<path class="st2" d="M162-278c-1.1,0-2,0.9-2,2s0.9,2,2,2h27c1.1,0,2-0.9,2-2s-0.9-2-2-2H162z"/>
		<path class="st2" d="M192-271h-24c-1.1,0-2,0.9-2,2s0.9,2,2,2h24c1.1,0,2-0.9,2-2S193.1-271,192-271z"/>
		<path class="st2" d="M132-281h18c1.1,0,2-0.9,2-2s-0.9-2-2-2h-18c-1.1,0-2,0.9-2,2S130.9-281,132-281z"/>
		<path class="st2" d="M135-278c-1.1,0-2,0.9-2,2s0.9,2,2,2h21c1.1,0,2-0.9,2-2s-0.9-2-2-2H135z"/>
		<path class="st2" d="M162-271h-30c-1.1,0-2,0.9-2,2s0.9,2,2,2h30c1.1,0,2-0.9,2-2S163.1-271,162-271z"/>
	</g>
	<path class="st4" d="M180-302c-0.5,0-1.1,0.1-1.7,0.2c-2.1-7.2-8.6-12.2-16.3-12.2c-7.7,0-14.2,5-16.3,12.2
		c-0.6-0.1-1.2-0.2-1.7-0.2c-6.1,0-11,4.9-11,11s4.9,11,11,11h36c6.1,0,11-4.9,11-11S186.1-302,180-302z"/>
	<g>
		<path class="st2" d="M249-289c1.1,0,2-0.9,2-2c0-3.9,3.1-7,7-7c0.3,0,0.7,0.1,1.2,0.2v1.8c0,1.1,0.9,2,2,2s2-0.9,2-2v-3.2
			c1.1-6.3,6.4-10.8,12.8-10.8s11.7,4.5,12.8,10.8v3.2c0,1.1,0.9,2,2,2c1.1,0,2-0.9,2-2v-1.8c0.5-0.1,0.9-0.2,1.2-0.2
			c3.9,0,7,3.1,7,7c0,1.1,0.9,2,2,2c1.1,0,2-0.9,2-2c0-6.1-4.9-11-11-11c-0.5,0-1.1,0.1-1.7,0.2c-2.1-7.2-8.6-12.2-16.3-12.2
			c-7.7,0-14.2,5-16.3,12.2c-0.6-0.1-1.2-0.2-1.7-0.2c-6.1,0-11,4.9-11,11C247-289.9,247.9-289,249-289z"/>
		<path class="st2" d="M268-283c0,1.1,0.9,2,2,2h36c1.1,0,2-0.9,2-2s-0.9-2-2-2h-36C268.9-285,268-284.1,268-283z"/>
		<path class="st2" d="M276-278c-1.1,0-2,0.9-2,2s0.9,2,2,2h27c1.1,0,2-0.9,2-2s-0.9-2-2-2H276z"/>
		<path class="st2" d="M306-271h-24c-1.1,0-2,0.9-2,2s0.9,2,2,2h24c1.1,0,2-0.9,2-2S307.1-271,306-271z"/>
		<path class="st2" d="M246-281h18c1.1,0,2-0.9,2-2s-0.9-2-2-2h-18c-1.1,0-2,0.9-2,2S244.9-281,246-281z"/>
		<path class="st2" d="M249-278c-1.1,0-2,0.9-2,2s0.9,2,2,2h21c1.1,0,2-0.9,2-2s-0.9-2-2-2H249z"/>
		<path class="st2" d="M276-271h-30c-1.1,0-2,0.9-2,2s0.9,2,2,2h30c1.1,0,2-0.9,2-2S277.1-271,276-271z"/>
	</g>
	<path class="st4" d="M294-302c-0.5,0-1.1,0.1-1.7,0.2c-2.1-7.2-8.6-12.2-16.3-12.2c-7.7,0-14.2,5-16.3,12.2
		c-0.6-0.1-1.2-0.2-1.7-0.2c-6.1,0-11,4.9-11,11s4.9,11,11,11h36c6.1,0,11-4.9,11-11S300.1-302,294-302z"/>
	<path class="st4" d="M408-308c-0.5,0-1.1,0.1-1.7,0.2c-2.1-7.2-8.6-12.2-16.3-12.2c-7.7,0-14.2,5-16.3,12.2
		c-0.6-0.1-1.2-0.2-1.7-0.2c-6.1,0-11,4.9-11,11s4.9,11,11,11h36c6.1,0,11-4.9,11-11S414.1-308,408-308z"/>
	<path class="st4" d="M294-872c-0.5,0-1.1,0.1-1.7,0.2c-2.1-7.2-8.6-12.2-16.3-12.2c-7.7,0-14.2,5-16.3,12.2
		c-0.6-0.1-1.2-0.2-1.7-0.2c-6.1,0-11,4.9-11,11s4.9,11,11,11h36c6.1,0,11-4.9,11-11S300.1-872,294-872z"/>
	<path class="st4" d="M408-872c-0.5,0-1.1,0.1-1.7,0.2c-2.1-7.2-8.6-12.2-16.3-12.2c-7.7,0-14.2,5-16.3,12.2
		c-0.6-0.1-1.2-0.2-1.7-0.2c-6.1,0-11,4.9-11,11s4.9,11,11,11h36c6.1,0,11-4.9,11-11S414.1-872,408-872z"/>
	<path class="st4" d="M-48-758c-0.5,0-1.1,0.1-1.7,0.2C-51.8-765-58.3-770-66-770c-7.7,0-14.2,5-16.3,12.2c-0.6-0.1-1.2-0.2-1.7-0.2
		c-6.1,0-11,4.9-11,11s4.9,11,11,11h36c6.1,0,11-4.9,11-11S-41.9-758-48-758z"/>
	<g>
		<g>
			<path class="st2" d="M48-734c-1.1,0-2,0.9-2,2v18c0,1.1,0.9,2,2,2c1.1,0,2-0.9,2-2v-18C50-733.1,49.1-734,48-734z"/>
			<path class="st2" d="M75.7-752.2c-0.3-0.6-0.7-1.2-1.2-1.8c-1.3-1.6-3.2-2.9-5.2-3.5c-1-0.3-2.1-0.5-3.3-0.5
				c-0.5,0-1.1,0.1-1.7,0.2C62.2-765,55.7-770,48-770c-7.7,0-14.2,5-16.3,12.2c-0.6-0.1-1.2-0.2-1.7-0.2c-1.1,0-2.2,0.2-3.3,0.5
				c-2.1,0.6-3.9,1.9-5.2,3.5c-0.4,0.5-0.8,1.1-1.2,1.8c-0.8,1.6-1.3,3.3-1.3,5.2s0.5,3.7,1.3,5.2c0.3,0.6,0.7,1.2,1.2,1.8
				c1.3,1.6,3.2,2.9,5.2,3.5c1,0.3,2.1,0.5,3.3,0.5h7v16c0,1.1,0.9,2,2,2c1.1,0,2-0.9,2-2v-16h14v16c0,1.1,0.9,2,2,2
				c1.1,0,2-0.9,2-2v-16h7c1.1,0,2.2-0.2,3.3-0.5c2.1-0.6,3.9-1.9,5.2-3.5c0.4-0.5,0.8-1.1,1.2-1.8c0.8-1.6,1.3-3.3,1.3-5.2
				S76.5-750.7,75.7-752.2z"/>
		</g>
		<path class="st4" d="M66-758c-0.5,0-1.1,0.1-1.7,0.2C62.2-765,55.7-770,48-770c-7.7,0-14.2,5-16.3,12.2c-0.6-0.1-1.2-0.2-1.7-0.2
			c-6.1,0-11,4.9-11,11s4.9,11,11,11h36c6.1,0,11-4.9,11-11S72.1-758,66-758z"/>
	</g>
	<path class="st4" d="M180-758c-0.5,0-1.1,0.1-1.7,0.2c-2.1-7.2-8.6-12.2-16.3-12.2c-7.7,0-14.2,5-16.3,12.2
		c-0.6-0.1-1.2-0.2-1.7-0.2c-6.1,0-11,4.9-11,11s4.9,11,11,11h36c6.1,0,11-4.9,11-11S186.1-758,180-758z"/>
	<path class="st4" d="M294-758c-0.5,0-1.1,0.1-1.7,0.2c-2.1-7.2-8.6-12.2-16.3-12.2c-7.7,0-14.2,5-16.3,12.2
		c-0.6-0.1-1.2-0.2-1.7-0.2c-6.1,0-11,4.9-11,11s4.9,11,11,11h36c6.1,0,11-4.9,11-11S300.1-758,294-758z"/>
	<g>
		<g>
			<circle class="st2" cx="381" cy="-732" r="2"/>
			<circle class="st2" cx="399" cy="-732" r="2"/>
			<circle class="st2" cx="390" cy="-726" r="2"/>
			<circle class="st2" cx="399" cy="-720" r="2"/>
			<circle class="st2" cx="390" cy="-714" r="2"/>
			<circle class="st2" cx="381" cy="-720" r="2"/>
			<path class="st2" d="M417.7-752.2c-0.3-0.6-0.7-1.2-1.2-1.8c-1.3-1.6-3.2-2.9-5.2-3.5c-1-0.3-2.1-0.5-3.3-0.5
				c-0.3,0-0.5,0-0.8,0.1c-0.3,0-0.6,0.1-0.9,0.1c-0.9-3.1-2.7-5.9-5-7.9c-0.3-0.3-0.7-0.6-1-0.8c-0.7-0.5-1.5-1-2.3-1.4
				c-2.4-1.3-5.1-2-8-2c-7.7,0-14.2,5-16.3,12.2c-0.1,0-0.1,0-0.2,0c-0.5-0.1-1-0.2-1.5-0.2c-1.1,0-2.2,0.2-3.3,0.5
				c-2.1,0.6-3.9,1.9-5.2,3.5c-0.4,0.5-0.8,1.1-1.2,1.8c-0.8,1.6-1.3,3.3-1.3,5.2s0.5,3.7,1.3,5.2c0.3,0.6,0.7,1.2,1.2,1.8
				c1.3,1.6,3.2,2.9,5.2,3.5c1,0.3,2.1,0.5,3.3,0.5h36c1.1,0,2.2-0.2,3.3-0.5c2.1-0.6,3.9-1.9,5.2-3.5c0.4-0.5,0.8-1.1,1.2-1.8
				c0.8-1.6,1.3-3.3,1.3-5.2S418.5-750.7,417.7-752.2z"/>
		</g>
		<path class="st4" d="M408-758c-0.5,0-1.1,0.1-1.7,0.2c-2.1-7.2-8.6-12.2-16.3-12.2c-7.7,0-14.2,5-16.3,12.2
			c-0.6-0.1-1.2-0.2-1.7-0.2c-6.1,0-11,4.9-11,11s4.9,11,11,11h36c6.1,0,11-4.9,11-11S414.1-758,408-758z"/>
	</g>
	<path class="st4" d="M-48-644c-0.5,0-1.1,0.1-1.7,0.2C-51.8-651-58.3-656-66-656c-7.7,0-14.2,5-16.3,12.2c-0.6-0.1-1.2-0.2-1.7-0.2
		c-6.1,0-11,4.9-11,11s4.9,11,11,11h36c6.1,0,11-4.9,11-11S-41.9-644-48-644z"/>
	<path class="st4" d="M66-644c-0.5,0-1.1,0.1-1.7,0.2C62.2-651,55.7-656,48-656c-7.7,0-14.2,5-16.3,12.2c-0.6-0.1-1.2-0.2-1.7-0.2
		c-6.1,0-11,4.9-11,11s4.9,11,11,11h36c6.1,0,11-4.9,11-11S72.1-644,66-644z"/>
	<g>
		<g>
			<path class="st2" d="M-69.3-499.3c-0.6-1-1.8-1.3-2.7-0.7c-1,0.6-1.3,1.8-0.7,2.7l1,1.7c0.4,0.6,1,1,1.7,1c0.3,0,0.7-0.1,1-0.3
				c1-0.6,1.3-1.8,0.7-2.7L-69.3-499.3z"/>
			<path class="st2" d="M-74-500.1c-1-0.6-2.2-0.2-2.7,0.7l-1,1.7c-0.6,1-0.2,2.2,0.7,2.7c0.3,0.2,0.7,0.3,1,0.3
				c0.7,0,1.4-0.4,1.7-1l1-1.7C-72.7-498.3-73-499.5-74-500.1z"/>
			<path class="st2" d="M-75-501.8c0-1.1-0.9-2-2-2h-2c-1.1,0-2,0.9-2,2c0,1.1,0.9,2,2,2h2C-75.9-499.8-75-500.7-75-501.8z"/>
			<path class="st2" d="M-67-503.8h-2c-1.1,0-2,0.9-2,2c0,1.1,0.9,2,2,2h2c1.1,0,2-0.9,2-2C-65-502.9-65.9-503.8-67-503.8z"/>
			<path class="st2" d="M-47-529c-0.5,0-1.1,0.1-1.7,0.2C-50.8-536-57.3-541-65-541c-7.7,0-14.2,5-16.3,12.2
				c-0.6-0.1-1.2-0.2-1.7-0.2c-6.1,0-11,4.9-11,11c0,6.1,4.9,11,11,11h5c0,0.3,0.1,0.7,0.3,1l1,1.7c0.4,0.6,1,1,1.7,1
				c0.3,0,0.7-0.1,1-0.3c1-0.6,1.3-1.8,0.7-2.7l-0.4-0.7h1.4l-0.4,0.7c-0.6,1-0.2,2.2,0.7,2.7c0.3,0.2,0.7,0.3,1,0.3
				c0.7,0,1.4-0.4,1.7-1l1-1.7c0.2-0.3,0.3-0.7,0.3-1h21c6.1,0,11-4.9,11-11C-36-524.1-40.9-529-47-529z"/>
			<path class="st2" d="M-52.3-494.3c-0.6-1-1.8-1.3-2.7-0.7c-1,0.6-1.3,1.8-0.7,2.7l1,1.7c0.4,0.6,1,1,1.7,1c0.3,0,0.7-0.1,1-0.3
				c1-0.6,1.3-1.8,0.7-2.7L-52.3-494.3z"/>
			<path class="st2" d="M-57.3-503c-0.6-1-1.8-1.3-2.7-0.7c-1,0.6-1.3,1.8-0.7,2.7l1,1.7c0.4,0.6,1,1,1.7,1c0.3,0,0.7-0.1,1-0.3
				c1-0.6,1.3-1.8,0.7-2.7L-57.3-503z"/>
			<path class="st2" d="M-55-498.5c0.3,0.2,0.7,0.3,1,0.3c0.7,0,1.4-0.4,1.7-1l1-1.7c0.6-1,0.2-2.2-0.7-2.7c-1-0.6-2.2-0.2-2.7,0.7
				l-1,1.7C-56.3-500.3-56-499.1-55-498.5z"/>
			<path class="st2" d="M-57-495.1c-1-0.6-2.2-0.2-2.7,0.7l-1,1.7c-0.6,1-0.2,2.2,0.7,2.7c0.3,0.2,0.7,0.3,1,0.3
				c0.7,0,1.4-0.4,1.7-1l1-1.7C-55.7-493.3-56-494.5-57-495.1z"/>
			<path class="st2" d="M-58-496.8c0-1.1-0.9-2-2-2h-2c-1.1,0-2,0.9-2,2c0,1.1,0.9,2,2,2h2C-58.9-494.8-58-495.7-58-496.8z"/>
			<path class="st2" d="M-50-498.8h-2c-1.1,0-2,0.9-2,2c0,1.1,0.9,2,2,2h2c1.1,0,2-0.9,2-2C-48-497.9-48.9-498.8-50-498.8z"/>
		</g>
		<path class="st4" d="M-47-529c-0.5,0-1.1,0.1-1.7,0.2C-50.8-536-57.3-541-65-541c-7.7,0-14.2,5-16.3,12.2
			c-0.6-0.1-1.2-0.2-1.7-0.2c-6.1,0-11,4.9-11,11c0,6.1,4.9,11,11,11h36c6.1,0,11-4.9,11-11C-36-524.1-40.9-529-47-529z"/>
	</g>
	<path class="st4" d="M66-530c-0.5,0-1.1,0.1-1.7,0.2C62.2-537,55.7-542,48-542c-7.7,0-14.2,5-16.3,12.2c-0.6-0.1-1.2-0.2-1.7-0.2
		c-6.1,0-11,4.9-11,11s4.9,11,11,11h36c6.1,0,11-4.9,11-11S72.1-530,66-530z"/>
	<path class="st4" d="M180-530c-0.5,0-1.1,0.1-1.7,0.2c-2.1-7.2-8.6-12.2-16.3-12.2c-7.7,0-14.2,5-16.3,12.2
		c-0.6-0.1-1.2-0.2-1.7-0.2c-6.1,0-11,4.9-11,11s4.9,11,11,11h36c6.1,0,11-4.9,11-11S186.1-530,180-530z"/>
	<path class="st4" d="M-48-416c-0.5,0-1.1,0.1-1.7,0.2C-51.8-423-58.3-428-66-428c-7.7,0-14.2,5-16.3,12.2c-0.6-0.1-1.2-0.2-1.7-0.2
		c-6.1,0-11,4.9-11,11s4.9,11,11,11h36c6.1,0,11-4.9,11-11S-41.9-416-48-416z"/>
	<path class="st4" d="M66-416c-0.5,0-1.1,0.1-1.7,0.2C62.2-423,55.7-428,48-428c-7.7,0-14.2,5-16.3,12.2c-0.6-0.1-1.2-0.2-1.7-0.2
		c-6.1,0-11,4.9-11,11s4.9,11,11,11h36c6.1,0,11-4.9,11-11S72.1-416,66-416z"/>
	<path class="st4" d="M180-416c-0.5,0-1.1,0.1-1.7,0.2c-2.1-7.2-8.6-12.2-16.3-12.2c-7.7,0-14.2,5-16.3,12.2
		c-0.6-0.1-1.2-0.2-1.7-0.2c-6.1,0-11,4.9-11,11s4.9,11,11,11h36c6.1,0,11-4.9,11-11S186.1-416,180-416z"/>
	<path class="st4" d="M-48-188c-0.5,0-1.1,0.1-1.7,0.2C-51.8-195-58.3-200-66-200c-7.7,0-14.2,5-16.3,12.2c-0.6-0.1-1.2-0.2-1.7-0.2
		c-6.1,0-11,4.9-11,11s4.9,11,11,11h36c6.1,0,11-4.9,11-11S-41.9-188-48-188z"/>
	<g>
		<g>
			<path class="st2" d="M-64-48v-12c0-1.1-0.9-2-2-2s-2,0.9-2,2v12c0,1.1,0.9,2,2,2S-64-46.9-64-48z"/>
			<path class="st2" d="M-73-42v-12c0-1.1-0.9-2-2-2c-1.1,0-2,0.9-2,2v12c0,1.1,0.9,2,2,2C-73.9-40-73-40.9-73-42z"/>
			<path class="st2" d="M-55-42v-12c0-1.1-0.9-2-2-2c-1.1,0-2,0.9-2,2v12c0,1.1,0.9,2,2,2C-55.9-40-55-40.9-55-42z"/>
			<path class="st2" d="M-74-36h-2c-1.1,0-2,0.9-2,2v2c0,1.1,0.9,2,2,2h2c1.1,0,2-0.9,2-2v-2C-72-35.1-72.9-36-74-36z"/>
			<path class="st2" d="M-65-42h-2c-1.1,0-2,0.9-2,2v2c0,1.1,0.9,2,2,2h2c1.1,0,2-0.9,2-2v-2C-63-41.1-63.9-42-65-42z"/>
			<path class="st2" d="M-56-36h-2c-1.1,0-2,0.9-2,2v2c0,1.1,0.9,2,2,2h2c1.1,0,2-0.9,2-2v-2C-54-35.1-54.9-36-56-36z"/>
		</g>
		<path class="st4" d="M-48-74c-0.5,0-1.1,0.1-1.7,0.2C-51.8-81-58.3-86-66-86c-7.7,0-14.2,5-16.3,12.2c-0.6-0.1-1.2-0.2-1.7-0.2
			c-6.1,0-11,4.9-11,11s4.9,11,11,11h36c6.1,0,11-4.9,11-11S-41.9-74-48-74z"/>
	</g>
	<g>
		<g>
			<path class="st2" d="M273.5-60v18c0,1.1,0.9,2,2,2c1.1,0,2-0.9,2-2v-18c0-1.1-0.9-2-2-2C274.4-62,273.5-61.1,273.5-60z"/>
			<path class="st2" d="M250.5-41h-2c-1.1,0-2,0.9-2,2v2c0,1.1,0.9,2,2,2h2c1.1,0,2-0.9,2-2v-2C252.5-40.1,251.6-41,250.5-41z"/>
			<path class="st2" d="M276.5-36h-2c-1.1,0-2,0.9-2,2v2c0,1.1,0.9,2,2,2h2c1.1,0,2-0.9,2-2v-2C278.5-35.1,277.6-36,276.5-36z"/>
			<path class="st2" d="M303.5-44h-2c-1.1,0-2,0.9-2,2v2c0,1.1,0.9,2,2,2h2c1.1,0,2-0.9,2-2v-2C305.5-43.1,304.6-44,303.5-44z"/>
			<path class="st2" d="M266.5-56c-1.1,0-2,0.9-2,2v15.1c-1.2-0.7-2.5-1.1-4-1.1h-2c-1.1,0-2,0.9-2,2s0.9,2,2,2h2c2.2,0,4,1.8,4,4
				c0,1.1,0.9,2,2,2c1.1,0,2-0.9,2-2v-22C268.5-55.1,267.6-56,266.5-56z"/>
			<path class="st2" d="M293.5-43c-2.7,0-5.1,0.9-7,2.5V-54c0-1.1-0.9-2-2-2c-1.1,0-2,0.9-2,2v22c0,0,0,0,0,0c0,1.1,0.9,2,2,2
				c1.1,0,2-0.9,2-2v0c0-3.9,3.1-7,7-7c1.1,0,2-0.9,2-2S294.6-43,293.5-43z"/>
		</g>
		<path class="st4" d="M294-74c-0.5,0-1.1,0.1-1.7,0.2C290.2-81,283.7-86,276-86c-7.7,0-14.2,5-16.3,12.2c-0.6-0.1-1.2-0.2-1.7-0.2
			c-6.1,0-11,4.9-11,11s4.9,11,11,11h36c6.1,0,11-4.9,11-11S300.1-74,294-74z"/>
	</g>
	<path class="st4" d="M294-188c-0.5,0-1.1,0.1-1.7,0.2c-2.1-7.2-8.6-12.2-16.3-12.2c-7.7,0-14.2,5-16.3,12.2
		c-0.6-0.1-1.2-0.2-1.7-0.2c-6.1,0-11,4.9-11,11s4.9,11,11,11h36c6.1,0,11-4.9,11-11S300.1-188,294-188z"/>
	<path class="st2" d="M36.4-164.2c-0.8,1.1-3.4,4.7-3.4,7.2c0,2.9,2.1,5,5,5c2.9,0,5-2.1,5-5c0-2.5-2.6-6.1-3.4-7.2
		C38.8-165.2,37.2-165.2,36.4-164.2z"/>
	<path class="st2" d="M54.4-164.2c-0.8,1.1-3.4,4.7-3.4,7.2c0,2.9,2.1,5,5,5c2.9,0,5-2.1,5-5c0-2.5-2.6-6.1-3.4-7.2
		C56.8-165.2,55.2-165.2,54.4-164.2z"/>
	<path class="st2" d="M45.4-153.2c-0.8,1.1-3.4,4.7-3.4,7.2c0,2.9,2.1,5,5,5c2.9,0,5-2.1,5-5c0-2.5-2.6-6.1-3.4-7.2
		C47.8-154.2,46.2-154.2,45.4-153.2z"/>
	<path class="st4" d="M66-188c-0.5,0-1.1,0.1-1.7,0.2C62.2-195,55.7-200,48-200c-7.7,0-14.2,5-16.3,12.2c-0.6-0.1-1.2-0.2-1.7-0.2
		c-6.1,0-11,4.9-11,11s4.9,11,11,11h36c6.1,0,11-4.9,11-11S72.1-188,66-188z"/>
	<path class="st2" d="M-77.6-164.2c-0.8,1.1-3.4,4.7-3.4,7.2c0,2.9,2.1,5,5,5s5-2.1,5-5c0-2.5-2.6-6.1-3.4-7.2
		C-75.2-165.3-76.8-165.3-77.6-164.2z"/>
	<path class="st2" d="M-59.6-164.2c-0.8,1.1-3.4,4.7-3.4,7.2c0,2.9,2.1,5,5,5s5-2.1,5-5c0-2.5-2.6-6.1-3.4-7.2
		C-57.2-165.3-58.8-165.3-59.6-164.2z"/>
	<path class="st2" d="M-68.6-153.2c-0.8,1.1-3.4,4.7-3.4,7.2c0,2.9,2.1,5,5,5s5-2.1,5-5c0-2.5-2.6-6.1-3.4-7.2
		C-66.2-154.3-67.8-154.3-68.6-153.2z"/>
	<path class="st2" d="M164.7-164.4c-0.7-0.8-2.1-0.8-2.8,0c-0.6,0.7-5.9,7-5.9,12.1c0,1.9,0.6,3.6,1.8,5c0.9,1.1,2.6,2.3,5.5,2.3
		c4.8,0,7.3-3.7,7.3-7.3C170.5-157.4,165.3-163.7,164.7-164.4z M163.3-147.7C163.3-147.7,163.3-147.7,163.3-147.7l0,0.9L163.3-147.7
		z"/>
	<path class="st4" d="M180-188c-0.5,0-1.1,0.1-1.7,0.2c-2.1-7.2-8.6-12.2-16.3-12.2c-7.7,0-14.2,5-16.3,12.2
		c-0.6-0.1-1.2-0.2-1.7-0.2c-6.1,0-11,4.9-11,11s4.9,11,11,11h36c6.1,0,11-4.9,11-11S186.1-188,180-188z"/>
	<path class="st2" d="M279.1-164.4c-0.7-0.8-2.1-0.8-2.8,0c-0.6,0.7-5.9,7-5.9,12.1c0,1.9,0.6,3.6,1.8,5c0.9,1.1,2.6,2.3,5.5,2.3
		c4.8,0,7.3-3.7,7.3-7.3C285-157.3,279.7-163.7,279.1-164.4z M277.7-147.7L277.7-147.7l0,0.9L277.7-147.7z"/>
	<path class="st4" d="M180-74c-0.5,0-1.1,0.1-1.7,0.2C176.2-81,169.7-86,162-86c-7.7,0-14.2,5-16.3,12.2c-0.6-0.1-1.2-0.2-1.7-0.2
		c-6.1,0-11,4.9-11,11s4.9,11,11,11h36c6.1,0,11-4.9,11-11S186.1-74,180-74z"/>
	<path class="st4" d="M66-74c-0.5,0-1.1,0.1-1.7,0.2C62.2-81,55.7-86,48-86c-7.7,0-14.2,5-16.3,12.2C31.1-73.9,30.5-74,30-74
		c-6.1,0-11,4.9-11,11s4.9,11,11,11h36c6.1,0,11-4.9,11-11S72.1-74,66-74z"/>
	<path class="st4" d="M408-74c-0.5,0-1.1,0.1-1.7,0.2C404.2-81,397.7-86,390-86c-7.7,0-14.2,5-16.3,12.2c-0.6-0.1-1.2-0.2-1.7-0.2
		c-6.1,0-11,4.9-11,11s4.9,11,11,11h36c6.1,0,11-4.9,11-11S414.1-74,408-74z"/>
	<path class="st4" d="M408-188c-0.5,0-1.1,0.1-1.7,0.2c-2.1-7.2-8.6-12.2-16.3-12.2c-7.7,0-14.2,5-16.3,12.2
		c-0.6-0.1-1.2-0.2-1.7-0.2c-6.1,0-11,4.9-11,11s4.9,11,11,11h36c6.1,0,11-4.9,11-11S414.1-188,408-188z"/>
	<path class="st2" d="M393.1-164.4c-0.7-0.8-2.1-0.8-2.8,0c-0.6,0.7-5.9,7-5.9,12.1c0,1.9,0.6,3.6,1.8,5c0.9,1.1,2.6,2.3,5.5,2.3
		c4.8,0,7.3-3.7,7.3-7.3C399-157.3,393.7-163.7,393.1-164.4z M391.7-147.7L391.7-147.7l0,0.9L391.7-147.7z"/>
	<path class="st4" d="M-48,40c-0.5,0-1.1,0.1-1.7,0.2C-51.8,33-58.3,28-66,28c-7.7,0-14.2,5-16.3,12.2c-0.6-0.1-1.2-0.2-1.7-0.2
		c-6.1,0-11,4.9-11,11s4.9,11,11,11h36c6.1,0,11-4.9,11-11S-41.9,40-48,40z"/>
	<path class="st4" d="M408.8,39.4c-0.5,0-1.1,0.1-1.7,0.2C405,32.2,398.3,27,390.5,27c-7.8,0-14.5,5.2-16.6,12.5
		c-0.6-0.1-1.2-0.2-1.7-0.2c-6.2,0-11.2,5.1-11.2,11.3c0,6.2,5,11.3,11.2,11.3h36.6c6.2,0,11.2-5.1,11.2-11.3
		C420,44.4,415,39.4,408.8,39.4z"/>
	<path class="st4" d="M295,39c-0.5,0-1.1,0.1-1.7,0.2C291.2,32,284.7,27,277,27c-7.7,0-14.2,5-16.3,12.2c-0.6-0.1-1.2-0.2-1.7-0.2
		c-6.1,0-11,4.9-11,11s4.9,11,11,11h36c6.1,0,11-4.9,11-11S301.1,39,295,39z"/>
	<g>
		<path class="st5" d="M-81-304h12c1.1,0,2-0.9,2-2s-0.9-2-2-2h-12c-1.1,0-2,0.9-2,2S-82.1-304-81-304z"/>
		<path class="st5" d="M-93-298h24c1.1,0,2-0.9,2-2s-0.9-2-2-2h-24c-1.1,0-2,0.9-2,2S-94.1-298-93-298z"/>
		<path class="st5" d="M-99-292h24c1.1,0,2-0.9,2-2s-0.9-2-2-2h-24c-1.1,0-2,0.9-2,2S-100.1-292-99-292z"/>
		<path class="st5" d="M-40-288c0-1.1-0.9-2-2-2h-60c-1.1,0-2,0.9-2,2s0.9,2,2,2h60C-40.9-286-40-286.9-40-288z"/>
		<path class="st5" d="M-42-284h-57c-1.1,0-2,0.9-2,2s0.9,2,2,2h57c1.1,0,2-0.9,2-2S-40.9-284-42-284z"/>
		<path class="st5" d="M-81-278l-12,0c-1.1,0-2,0.9-2,2s0.9,2,2,2l12,0c1.1,0,2-0.9,2-2S-79.9-278-81-278z"/>
		<path class="st5" d="M-62-298h8c1.1,0,2-0.9,2-2s-0.9-2-2-2h-8c-1.1,0-2,0.9-2,2S-63.1-298-62-298z"/>
		<path class="st5" d="M-71-294c0,1.1,0.9,2,2,2h21c1.1,0,2-0.9,2-2s-0.9-2-2-2h-21C-70.1-296-71-295.1-71-294z"/>
		<path class="st5" d="M-48-278l-27,0c-1.1,0-2,0.9-2,2s0.9,2,2,2l27,0c1.1,0,2-0.9,2-2S-46.9-278-48-278z"/>
	</g>
	<g>
		<path class="st1" d="M34-1200c0,2.4,0.7,4.9,1.9,7c0.4,0.6,1,1,1.7,1h20.8c0.7,0,1.4-0.4,1.7-1c1.2-2.1,1.9-4.6,1.9-7
			c0-7.7-6.3-14-14-14S34-1207.7,34-1200z M38.8-1196C38.8-1196,38.8-1196,38.8-1196C38.8-1196,38.9-1196,38.8-1196L38.8-1196z
			 M46.8-1209.9c0.4-0.1,0.8-0.1,1.2-0.1c0.1,0,0.1,0,0.2,0C47.7-1210,47.2-1210,46.8-1209.9z"/>
		<polygon class="st1" points="48.1,-1226.4 43.2,-1217.9 53,-1217.9 		"/>
		<polygon class="st1" points="30.1,-1204.8 21.6,-1199.8 30.1,-1194.9 		"/>
		<polygon class="st1" points="66.1,-1194.9 74.6,-1199.8 66.1,-1204.8 		"/>
		<polygon class="st1" points="64.8,-1216.6 59.3,-1214.9 63.1,-1211.1 		"/>
		<polygon class="st1" points="33,-1211.1 36.8,-1214.9 31.3,-1216.6 		"/>
	</g>
	<g>
		<path class="st1" d="M174.3-1200.6c-2.4-4.4-7-7.4-12.3-7.4c-7.7,0-14,6.3-14,14c0,1.1,0.9,2,2,2h24c1.1,0,2-0.9,2-2
			c0-2-0.4-3.9-1.2-5.6C174.7-1200,174.5-1200.3,174.3-1200.6z"/>
		<path class="st1" d="M152.7-1189.9L152.7-1189.9C152.7-1189.9,152.7-1189.9,152.7-1189.9C152.7-1189.9,152.7-1189.9,152.7-1189.9z
			"/>
		<polygon class="st1" points="161.9,-1220.2 157,-1211.7 166.8,-1211.7 		"/>
		<polygon class="st1" points="173.1,-1208.8 177,-1204.9 178.7,-1210.5 		"/>
		<polygon class="st1" points="145.1,-1210.5 146.8,-1204.9 150.7,-1208.8 		"/>
	</g>
	<g>
		<path class="st1" d="M276-1202c-5,0-9.6,2.7-12.1,7c-0.4,0.6-0.4,1.4,0,2c0.4,0.6,1,1,1.7,1h20.8c0.7,0,1.4-0.4,1.7-1
			c0.4-0.6,0.4-1.4,0-2C285.6-1199.3,281-1202,276-1202z M275.8-1198c0.1,0,0.1,0,0.2,0c0,0,0.1,0,0.1,0
			C276-1198,275.9-1198,275.8-1198z"/>
		<path class="st1" d="M266.8-1183.8L266.8-1183.8C266.8-1183.8,266.8-1183.8,266.8-1183.8C266.8-1183.8,266.8-1183.8,266.8-1183.8z
			"/>
		<polygon class="st1" points="276,-1214.2 271.1,-1205.7 280.9,-1205.7 		"/>
		<polygon class="st1" points="287.2,-1202.7 291,-1198.9 292.7,-1204.4 		"/>
		<polygon class="st1" points="259.2,-1204.4 260.9,-1198.9 264.7,-1202.7 		"/>
	</g>
	<g>
		<path class="st1" d="M261.9-521.6c0,2.4,0.7,4.9,1.9,7c0.4,0.6,1,1,1.7,1h20.8c0.7,0,1.4-0.4,1.7-1c1.2-2.1,1.9-4.6,1.9-7
			c0-7.7-6.3-14-14-14S261.9-529.4,261.9-521.6z M266.8-517.6C266.7-517.7,266.7-517.7,266.8-517.6
			C266.8-517.7,266.8-517.7,266.8-517.6L266.8-517.6z M274.7-531.6c0.4-0.1,0.8-0.1,1.2-0.1c0.1,0,0.1,0,0.2,0
			C275.6-531.6,275.1-531.6,274.7-531.6z"/>
		<polygon class="st1" points="276,-548 271.1,-539.5 280.9,-539.5 		"/>
		<polygon class="st1" points="258,-526.4 249.5,-521.5 258,-516.6 		"/>
		<polygon class="st1" points="294,-516.6 302.5,-521.5 294,-526.4 		"/>
		<polygon class="st1" points="292.7,-538.3 287.2,-536.6 291,-532.7 		"/>
		<polygon class="st1" points="260.9,-532.7 264.7,-536.6 259.2,-538.3 		"/>
	</g>
	<g>
		<path class="st1" d="M376.1-522c0,2.4,0.7,4.9,1.9,7c0.4,0.6,1,1,1.7,1h20.8c0.7,0,1.4-0.4,1.7-1c1.2-2.1,1.9-4.6,1.9-7
			c0-7.7-6.3-14-14-14C382.4-536,376.1-529.7,376.1-522z M380.9-518C380.9-518,380.9-518,380.9-518C380.9-518,381-518,380.9-518
			L380.9-518z M388.8-531.9c0.4-0.1,0.8-0.1,1.2-0.1c0.1,0,0.1,0,0.2,0C389.8-532,389.3-532,388.8-531.9z"/>
		<polygon class="st1" points="390.1,-548.4 385.2,-539.9 395,-539.9 		"/>
		<polygon class="st1" points="372.1,-526.8 363.7,-521.8 372.1,-516.9 		"/>
		<polygon class="st1" points="408.2,-516.9 416.7,-521.8 408.2,-526.8 		"/>
		<polygon class="st1" points="406.9,-538.6 401.3,-536.9 405.2,-533.1 		"/>
		<polygon class="st1" points="375.1,-533.1 378.9,-536.9 373.3,-538.6 		"/>
	</g>
	<g>
		<path class="st4" d="M180,40c-0.5,0-1.1,0.1-1.7,0.2C176.2,33,169.7,28,162,28c-7.7,0-14.2,5-16.3,12.2c-0.6-0.1-1.2-0.2-1.7-0.2
			c-6.1,0-11,4.9-11,11s4.9,11,11,11h36c6.1,0,11-4.9,11-11S186.1,40,180,40z"/>
		<g>
			<path class="st5" d="M175.8,67l-30,0c-1.1,0-2,0.9-2,2s0.9,2,2,2l30,0c3.9,0,7,3.1,7,7s-3.1,7-7,7c-1.1,0-2,0.9-2,2s0.9,2,2,2
				c6.1,0,11-4.9,11-11S181.9,67,175.8,67z"/>
			<path class="st5" d="M169.8,73h-24c-1.1,0-2,0.9-2,2s0.9,2,2,2h24c0.6,0,1,0.4,1,1s-0.4,1-1,1c-1.1,0-2,0.9-2,2s0.9,2,2,2
				c2.8,0,5-2.2,5-5S172.6,73,169.8,73z"/>
			<path class="st5" d="M190.8,59c-1.1,0-2,0.9-2,2s0.9,2,2,2c0.6,0,1,0.4,1,1c0,0.6-0.4,1-1,1h-4c-1.1,0-2,0.9-2,2s0.9,2,2,2h4
				c2.8,0,5-2.2,5-5C195.8,61.2,193.6,59,190.8,59z"/>
			<path class="st5" d="M145.8,65l33,0c4.4,0,8-3.6,8-8s-3.6-8-8-8s-8,3.6-8,8c0,1.1,0.9,2,2,2c1.1,0,2-0.9,2-2c0-2.2,1.8-4,4-4
				s4,1.8,4,4s-1.8,4-4,4l-33,0c-1.1,0-2,0.9-2,2S144.7,65,145.8,65z"/>
		</g>
	</g>
	<g>
		<path class="st5" d="M290.5,66l-30,0c-1.1,0-2,0.9-2,2s0.9,2,2,2l30,0c3.9,0,7,3.1,7,7s-3.1,7-7,7c-1.1,0-2,0.9-2,2s0.9,2,2,2
			c6.1,0,11-4.9,11-11S296.6,66,290.5,66z"/>
		<path class="st5" d="M284.5,72h-24c-1.1,0-2,0.9-2,2s0.9,2,2,2h24c0.6,0,1,0.4,1,1s-0.4,1-1,1c-1.1,0-2,0.9-2,2s0.9,2,2,2
			c2.8,0,5-2.2,5-5S287.3,72,284.5,72z"/>
		<path class="st5" d="M305.5,58c-1.1,0-2,0.9-2,2s0.9,2,2,2c0.6,0,1,0.4,1,1s-0.4,1-1,1h-4c-1.1,0-2,0.9-2,2s0.9,2,2,2h4
			c2.8,0,5-2.2,5-5C310.5,60.2,308.3,58,305.5,58z"/>
		<path class="st5" d="M260.5,64l33,0c4.4,0,8-3.6,8-8s-3.6-8-8-8c-4.4,0-8,3.6-8,8c0,1.1,0.9,2,2,2c1.1,0,2-0.9,2-2
			c0-2.2,1.8-4,4-4c2.2,0,4,1.8,4,4s-1.8,4-4,4l-33,0c-1.1,0-2,0.9-2,2S259.4,64,260.5,64z"/>
	</g>
	<g>
		<path class="st5" d="M405.3,66l-30,0c-1.1,0-2,0.9-2,2s0.9,2,2,2l30,0c3.9,0,7,3.1,7,7s-3.1,7-7,7c-1.1,0-2,0.9-2,2s0.9,2,2,2
			c6.1,0,11-4.9,11-11S411.3,66,405.3,66z"/>
		<path class="st5" d="M399.3,72h-24c-1.1,0-2,0.9-2,2s0.9,2,2,2h24c0.6,0,1,0.4,1,1s-0.4,1-1,1c-1.1,0-2,0.9-2,2s0.9,2,2,2
			c2.8,0,5-2.2,5-5S402,72,399.3,72z"/>
		<path class="st5" d="M420.3,58c-1.1,0-2,0.9-2,2s0.9,2,2,2c0.6,0,1,0.4,1,1s-0.4,1-1,1h-4c-1.1,0-2,0.9-2,2s0.9,2,2,2h4
			c2.8,0,5-2.2,5-5C425.3,60.2,423,58,420.3,58z"/>
		<path class="st5" d="M375.3,64l33,0c4.4,0,8-3.6,8-8s-3.6-8-8-8s-8,3.6-8,8c0,1.1,0.9,2,2,2s2-0.9,2-2c0-2.2,1.8-4,4-4
			c2.2,0,4,1.8,4,4s-1.8,4-4,4l-33,0c-1.1,0-2,0.9-2,2S374.2,64,375.3,64z"/>
	</g>
</g>
</svg>
