<?xml version="1.0" encoding="utf-8"?>
<!-- Generator: Adobe Illustrator 19.2.0, SVG Export Plug-In . SVG Version: 6.00 Build 0)  -->
<svg version="1.1" xmlns="http://www.w3.org/2000/svg" xmlns:xlink="http://www.w3.org/1999/xlink" x="0px" y="0px"
	 viewBox="0 0 96 96" style="enable-background:new 0 0 96 96;" xml:space="preserve">
<style type="text/css">
	.st0{display:none;}
	.st1{fill:#FFCC00;}
	.st2{fill:#5AC8FA;}
	.st3{fill:#5856D6;}
	.st4{fill:#007AFF;}
	.st5{fill:#FF9500;}
	.st6{fill:#FF3B30;}
</style>
<g id="Base" class="st0">
</g>
<g id="Dibujo">
	<g>
		<polyline class="st1" points="153.7,-738.9 146.7,-725.8 151.9,-725.8 146.1,-714.4 158.3,-728.6 152.1,-728.5 161,-738.9 		"/>
		<polyline class="st1" points="166.5,-743.8 159.5,-730.7 164.7,-730.7 158.9,-719.3 171.1,-733.5 164.9,-733.4 173.8,-743.8 		"/>
	</g>
	<g>
		<path class="st2" d="M-182.5-60v18c0,1.1,0.9,2,2,2c1.1,0,2-0.9,2-2v-18c0-1.1-0.9-2-2-2C-181.6-62-182.5-61.1-182.5-60z"/>
		<path class="st2" d="M-205.5-41h-2c-1.1,0-2,0.9-2,2v2c0,1.1,0.9,2,2,2h2c1.1,0,2-0.9,2-2v-2C-203.5-40.1-204.4-41-205.5-41z"/>
		<path class="st2" d="M-179.5-36h-2c-1.1,0-2,0.9-2,2v2c0,1.1,0.9,2,2,2h2c1.1,0,2-0.9,2-2v-2C-177.5-35.1-178.4-36-179.5-36z"/>
		<path class="st2" d="M-152.5-44h-2c-1.1,0-2,0.9-2,2v2c0,1.1,0.9,2,2,2h2c1.1,0,2-0.9,2-2v-2C-150.5-43.1-151.4-44-152.5-44z"/>
		<path class="st2" d="M-189.5-56c-1.1,0-2,0.9-2,2v15.1c-1.2-0.7-2.5-1.1-4-1.1h-2c-1.1,0-2,0.9-2,2s0.9,2,2,2h2c2.2,0,4,1.8,4,4
			c0,1.1,0.9,2,2,2c1.1,0,2-0.9,2-2v-22C-187.5-55.1-188.4-56-189.5-56z"/>
		<path class="st2" d="M-162.5-43c-2.7,0-5.1,0.9-7,2.5V-54c0-1.1-0.9-2-2-2s-2,0.9-2,2v22c0,0,0,0,0,0c0,1.1,0.9,2,2,2s2-0.9,2-2v0
			c0-3.9,3.1-7,7-7c1.1,0,2-0.9,2-2S-161.4-43-162.5-43z"/>
	</g>
	<g>
		<path class="st1" d="M174.2-92c-7.7,0-14,6.3-14,14s6.3,14,14,14s14-6.3,14-14S181.9-92,174.2-92z"/>
		<polygon class="st1" points="174.2,-104.5 179.1,-96 169.3,-96 		"/>
		<polygon class="st1" points="200.8,-78 192.3,-73.1 192.3,-82.9 		"/>
		<polygon class="st1" points="191,-94.8 189.3,-89.2 185.4,-93.1 		"/>
		<polygon class="st1" points="157.4,-94.8 163,-93.1 159.1,-89.2 		"/>
	</g>
	<g>
		<path class="st1" d="M287.9-206c-7.7,0-14,6.3-14,14s6.3,14,14,14s14-6.3,14-14S295.6-206,287.9-206z"/>
		<polygon class="st1" points="287.9,-218.5 292.8,-210 283,-210 		"/>
		<polygon class="st1" points="314.4,-192 306,-187.1 306,-196.9 		"/>
		<polygon class="st1" points="304.6,-208.8 302.9,-203.2 299.1,-207.1 		"/>
		<polygon class="st1" points="271.1,-208.8 276.6,-207.1 272.8,-203.2 		"/>
	</g>
	<g>
		<path class="st2" d="M-64-162.1v-12c0-1.1-0.9-2-2-2s-2,0.9-2,2v12c0,1.1,0.9,2,2,2S-64-161-64-162.1z"/>
		<path class="st2" d="M-73-156.1v-12c0-1.1-0.9-2-2-2c-1.1,0-2,0.9-2,2v12c0,1.1,0.9,2,2,2C-73.9-154.1-73-155-73-156.1z"/>
		<path class="st2" d="M-55-156.1v-12c0-1.1-0.9-2-2-2c-1.1,0-2,0.9-2,2v12c0,1.1,0.9,2,2,2C-55.9-154.1-55-155-55-156.1z"/>
		<path class="st2" d="M-74-150.1h-2c-1.1,0-2,0.9-2,2v2c0,1.1,0.9,2,2,2h2c1.1,0,2-0.9,2-2v-2C-72-149.2-72.9-150.1-74-150.1z"/>
		<path class="st2" d="M-65-156.1h-2c-1.1,0-2,0.9-2,2v2c0,1.1,0.9,2,2,2h2c1.1,0,2-0.9,2-2v-2C-63-155.2-63.9-156.1-65-156.1z"/>
		<path class="st2" d="M-56-150.1h-2c-1.1,0-2,0.9-2,2v2c0,1.1,0.9,2,2,2h2c1.1,0,2-0.9,2-2v-2C-54-149.2-54.9-150.1-56-150.1z"/>
	</g>
	<g>
		<path class="st1" d="M-53.9-206c-7.7,0-14,6.3-14,14s6.3,14,14,14s14-6.3,14-14S-46.2-206-53.9-206z"/>
		<polygon class="st1" points="-53.9,-218.5 -49,-210 -58.8,-210 		"/>
		<polygon class="st1" points="-27.3,-192 -35.8,-187.1 -35.8,-196.9 		"/>
		<polygon class="st1" points="-37.1,-208.8 -38.8,-203.2 -42.7,-207.1 		"/>
		<polygon class="st1" points="-70.7,-208.8 -65.1,-207.1 -69,-203.2 		"/>
	</g>
	<g>
		<path class="st1" d="M-168.2-319.9c-7.7,0-14,6.3-14,14c0,7.7,6.3,14,14,14s14-6.3,14-14C-154.2-313.7-160.5-319.9-168.2-319.9z"
			/>
		<polygon class="st1" points="-168.2,-332.4 -163.3,-324 -173.1,-324 		"/>
		<polygon class="st1" points="-141.6,-305.9 -150.1,-301 -150.1,-310.8 		"/>
		<polygon class="st1" points="-151.4,-322.7 -153.2,-317.2 -157,-321 		"/>
		<polygon class="st1" points="-185,-322.7 -179.4,-321 -183.3,-317.2 		"/>
	</g>
	<g>
		<path class="st1" d="M174-320c-7.7,0-14,6.3-14,14s6.3,14,14,14s14-6.3,14-14S181.7-320,174-320z"/>
		<polygon class="st1" points="174,-332.5 178.9,-324 169.1,-324 		"/>
		<polygon class="st1" points="200.6,-306 192.1,-301.1 192.1,-310.9 		"/>
		<polygon class="st1" points="190.8,-322.8 189,-317.2 185.2,-321.1 		"/>
		<polygon class="st1" points="157.2,-322.8 162.8,-321.1 158.9,-317.2 		"/>
	</g>
	<g>
		<path class="st1" d="M60.2-434c-7.7,0-14,6.3-14,14s6.3,14,14,14c7.7,0,14-6.3,14-14S68-434,60.2-434z"/>
		<polygon class="st1" points="60.3,-446.5 65.2,-438 55.4,-438 		"/>
		<polygon class="st1" points="86.8,-420 78.3,-415.1 78.3,-424.9 		"/>
		<polygon class="st1" points="77,-436.8 75.3,-431.2 71.5,-435.1 		"/>
		<polygon class="st1" points="43.5,-436.8 49,-435.1 45.2,-431.2 		"/>
	</g>
	<g>
		<path class="st1" d="M-54-548c-7.7,0-14,6.3-14,14s6.3,14,14,14s14-6.3,14-14S-46.3-548-54-548z"/>
		<polygon class="st1" points="-54,-560.5 -49,-552 -58.9,-552 		"/>
		<polygon class="st1" points="-27.4,-534 -35.9,-529.1 -35.9,-538.9 		"/>
		<polygon class="st1" points="-37.2,-550.8 -38.9,-545.2 -42.8,-549.1 		"/>
		<polygon class="st1" points="-70.8,-550.8 -65.2,-549.1 -69,-545.2 		"/>
	</g>
	<g>
		<path class="st1" d="M-53.9-662c-7.7,0-14,6.3-14,14s6.3,14,14,14s14-6.3,14-14S-46.2-662-53.9-662z"/>
		<polygon class="st1" points="-53.9,-674.5 -49,-666 -58.8,-666 		"/>
		<polygon class="st1" points="-27.3,-648 -35.8,-643.1 -35.8,-652.9 		"/>
		<polygon class="st1" points="-37.1,-664.8 -38.8,-659.2 -42.7,-663.1 		"/>
		<polygon class="st1" points="-70.7,-664.8 -65.1,-663.1 -69,-659.2 		"/>
	</g>
	<g>
		<path class="st1" d="M-167.8-776c-7.7,0-14,6.3-14,14s6.3,14,14,14s14-6.3,14-14S-160.1-776-167.8-776z"/>
		<polygon class="st1" points="-167.8,-788.5 -162.9,-780 -172.7,-780 		"/>
		<polygon class="st1" points="-141.2,-762 -149.7,-757.1 -149.7,-766.9 		"/>
		<polygon class="st1" points="-151,-778.8 -152.8,-773.2 -156.6,-777.1 		"/>
		<polygon class="st1" points="-184.6,-778.8 -179,-777.1 -182.9,-773.2 		"/>
	</g>
	<g>
		<path class="st1" d="M173.9-776c-7.7,0-14,6.3-14,14s6.3,14,14,14c7.7,0,14-6.3,14-14S181.6-776,173.9-776z"/>
		<polygon class="st1" points="173.9,-788.5 178.9,-780 169,-780 		"/>
		<polygon class="st1" points="200.5,-762 192,-757.1 192,-766.9 		"/>
		<polygon class="st1" points="190.7,-778.8 189,-773.2 185.1,-777.1 		"/>
		<polygon class="st1" points="157.1,-778.8 162.7,-777.1 158.9,-773.2 		"/>
	</g>
	<g>
		<path class="st1" d="M60-890c-7.7,0-14,6.3-14,14s6.3,14,14,14s14-6.3,14-14S67.7-890,60-890z"/>
		<polygon class="st1" points="60.1,-902.5 65,-894 55.2,-894 		"/>
		<polygon class="st1" points="86.6,-876 78.1,-871.1 78.1,-880.9 		"/>
		<polygon class="st1" points="76.8,-892.8 75.1,-887.2 71.3,-891.1 		"/>
		<polygon class="st1" points="43.3,-892.8 48.8,-891.1 45,-887.2 		"/>
	</g>
	<g>
		<path class="st1" d="M287.9-1004c-7.7,0-14,6.3-14,14s6.3,14,14,14s14-6.3,14-14S295.7-1004,287.9-1004z"/>
		<polygon class="st1" points="288,-1016.5 292.9,-1008 283.1,-1008 		"/>
		<polygon class="st1" points="314.5,-990 306,-985.1 306,-994.9 		"/>
		<polygon class="st1" points="304.7,-1006.7 303,-1001.2 299.2,-1005 		"/>
		<polygon class="st1" points="271.2,-1006.7 276.7,-1005 272.9,-1001.2 		"/>
	</g>
	<g>
		<path class="st1" d="M-54.2-1004c-7.7,0-14,6.3-14,14s6.3,14,14,14s14-6.3,14-14S-46.4-1004-54.2-1004z"/>
		<polygon class="st1" points="-54.1,-1016.5 -49.2,-1008 -59,-1008 		"/>
		<polygon class="st1" points="-27.6,-990 -36.1,-985.1 -36.1,-994.9 		"/>
		<polygon class="st1" points="-37.4,-1006.7 -39.1,-1001.2 -42.9,-1005 		"/>
		<polygon class="st1" points="-70.9,-1006.7 -65.4,-1005 -69.2,-1001.2 		"/>
	</g>
	<path class="st3" d="M-165.5-94.6c0-1.2,0.2-2.3,0.6-3.4c-1-0.2-2-0.3-3-0.3c-7.7,0-14,6.3-14,14s6.3,14,14,14
		c7.7,0,13.9-6.2,14-13.8c-0.3,0-0.7,0.1-1,0.1C-160.8-84.1-165.5-88.8-165.5-94.6z"/>
	<path class="st3" d="M290.5-94.3c0-1.2,0.2-2.3,0.6-3.4c-1-0.2-2-0.3-3-0.3c-7.7,0-14,6.3-14,14s6.3,14,14,14
		c7.7,0,13.9-6.2,14-13.8c-0.3,0-0.7,0.1-1,0.1C295.2-83.7,290.5-88.5,290.5-94.3z"/>
	<path class="st3" d="M62.5-208.6c0-1.2,0.2-2.3,0.6-3.4c-1-0.2-2-0.3-3-0.3c-7.7,0-14,6.3-14,14s6.3,14,14,14
		c7.7,0,13.9-6.2,14-13.8c-0.3,0-0.7,0.1-1,0.1C67.2-198.1,62.5-202.8,62.5-208.6z"/>
	<path class="st3" d="M290.6-322.3c0-1.2,0.2-2.3,0.6-3.4c-1-0.2-2-0.3-3-0.3c-7.7,0-14,6.3-14,14s6.3,14,14,14
		c7.7,0,13.9-6.2,14-13.8c-0.3,0-0.7,0.1-1,0.1C295.3-311.7,290.6-316.5,290.6-322.3z"/>
	<path class="st3" d="M-51.5-322.3c0-1.2,0.2-2.3,0.6-3.4c-1-0.2-2-0.3-3-0.3c-7.7,0-14,6.3-14,14s6.3,14,14,14
		c7.7,0,13.9-6.2,14-13.8c-0.3,0-0.7,0.1-1,0.1C-46.8-311.7-51.5-316.5-51.5-322.3z"/>
	<path class="st3" d="M-168.5-430.3c0-1.2,0.2-2.3,0.6-3.4c-1-0.2-2-0.3-3-0.3c-7.7,0-14,6.3-14,14s6.3,14,14,14
		c7.7,0,13.9-6.2,14-13.8c-0.3,0-0.7,0.1-1,0.1C-163.8-419.7-168.5-424.5-168.5-430.3z"/>
	<path class="st3" d="M62.5-550.3c0-1.2,0.2-2.3,0.6-3.4c-1-0.2-2-0.3-3-0.3c-7.7,0-14,6.3-14,14s6.3,14,14,14
		c7.7,0,13.9-6.2,14-13.8c-0.3,0-0.7,0.1-1,0.1C67.2-539.7,62.5-544.5,62.5-550.3z"/>
	<path class="st3" d="M176.5-436.3c0-1.2,0.2-2.3,0.6-3.4c-1-0.2-2-0.3-3-0.3c-7.7,0-14,6.3-14,14s6.3,14,14,14
		c7.7,0,13.9-6.2,14-13.8c-0.3,0-0.7,0.1-1,0.1C181.2-425.7,176.5-430.5,176.5-436.3z"/>
	<path class="st3" d="M62.5-664.3c0-1.2,0.2-2.3,0.6-3.4c-1-0.2-2-0.3-3-0.3c-7.7,0-14,6.3-14,14s6.3,14,14,14
		c7.7,0,13.9-6.2,14-13.8c-0.3,0-0.7,0.1-1,0.1C67.2-653.7,62.5-658.5,62.5-664.3z"/>
	<path class="st3" d="M-51.5-778.3c0-1.2,0.2-2.3,0.6-3.4c-1-0.2-2-0.3-3-0.3c-7.7,0-14,6.3-14,14s6.3,14,14,14
		c7.7,0,13.9-6.2,14-13.8c-0.3,0-0.7,0.1-1,0.1C-46.8-767.7-51.5-772.5-51.5-778.3z"/>
	<path class="st3" d="M290.6-778.3c0-1.2,0.2-2.3,0.6-3.4c-1-0.2-2-0.3-3-0.3c-7.7,0-14,6.3-14,14s6.3,14,14,14
		c7.7,0,13.9-6.2,14-13.8c-0.3,0-0.7,0.1-1,0.1C295.3-767.7,290.6-772.5,290.6-778.3z"/>
	<path class="st3" d="M-165.5-892.3c0-1.2,0.2-2.3,0.6-3.4c-1-0.2-2-0.3-3-0.3c-7.7,0-14,6.3-14,14s6.3,14,14,14
		c7.7,0,13.9-6.2,14-13.8c-0.3,0-0.7,0.1-1,0.1C-160.8-881.7-165.5-886.5-165.5-892.3z"/>
	<path class="st3" d="M62.4-1006.3c0-1.2,0.2-2.3,0.6-3.4c-1-0.2-2-0.3-3-0.3c-7.7,0-14,6.3-14,14s6.3,14,14,14
		c7.7,0,13.9-6.2,14-13.8c-0.3,0-0.7,0.1-1,0.1C67.1-995.7,62.4-1000.5,62.4-1006.3z"/>
	<path class="st3" d="M176.5-892.3c0-1.2,0.2-2.3,0.6-3.4c-1-0.2-2-0.3-3-0.3c-7.7,0-14,6.3-14,14s6.3,14,14,14
		c7.7,0,13.9-6.2,14-13.8c-0.3,0-0.7,0.1-1,0.1C181.2-881.7,176.5-886.5,176.5-892.3z"/>
	<path class="st3" d="M278.4-1330.2c0-1.2,0.2-2.3,0.6-3.4c-1-0.2-2-0.3-3-0.3c-7.7,0-14,6.3-14,14c0,7.7,6.3,14,14,14
		c7.7,0,13.9-6.2,14-13.8c-0.3,0-0.7,0.1-1,0.1C283.1-1319.7,278.4-1324.4,278.4-1330.2z"/>
	<g>
		<path class="st2" d="M48-848c-1.1,0-2,0.9-2,2v18c0,1.1,0.9,2,2,2c1.1,0,2-0.9,2-2v-18C50-847.1,49.1-848,48-848z"/>
		<path class="st2" d="M75.7-866.2c-0.3-0.6-0.7-1.2-1.2-1.8c-1.3-1.6-3.2-2.9-5.2-3.5c-1-0.3-2.1-0.5-3.3-0.5
			c-0.5,0-1.1,0.1-1.7,0.2C62.2-879,55.7-884,48-884c-7.7,0-14.2,5-16.3,12.2c-0.6-0.1-1.2-0.2-1.7-0.2c-1.1,0-2.2,0.2-3.3,0.5
			c-2.1,0.6-3.9,1.9-5.2,3.5c-0.4,0.5-0.8,1.1-1.2,1.8c-0.8,1.6-1.3,3.3-1.3,5.2s0.5,3.7,1.3,5.2c0.3,0.6,0.7,1.2,1.2,1.8
			c1.3,1.6,3.2,2.9,5.2,3.5c1,0.3,2.1,0.5,3.3,0.5h7v16c0,1.1,0.9,2,2,2c1.1,0,2-0.9,2-2v-16h14v16c0,1.1,0.9,2,2,2c1.1,0,2-0.9,2-2
			v-16h7c1.1,0,2.2-0.2,3.3-0.5c2.1-0.6,3.9-1.9,5.2-3.5c0.4-0.5,0.8-1.1,1.2-1.8c0.8-1.6,1.3-3.3,1.3-5.2S76.5-864.7,75.7-866.2z"
			/>
	</g>
	<path class="st4" d="M-162-986c-0.5,0-1.1,0.1-1.7,0.2c-2.1-7.2-8.6-12.2-16.3-12.2c-7.7,0-14.2,5-16.3,12.2
		c-0.6-0.1-1.2-0.2-1.7-0.2c-6.1,0-11,4.9-11,11s4.9,11,11,11h36c6.1,0,11-4.9,11-11S-155.9-986-162-986z"/>
	<path class="st3" d="M-180-1220c-7.7,0-14,6.3-14,14s6.3,14,14,14s14-6.3,14-14S-172.3-1220-180-1220z"/>
	<path class="st3" d="M-66-1220c-7.7,0-14,6.3-14,14s6.3,14,14,14s14-6.3,14-14S-58.3-1220-66-1220z M-65.3-1196
		c3.2-2.1,5.3-5.8,5.3-10s-2.1-7.8-5.3-10c5.2,0.3,9.3,4.7,9.3,10S-60.1-1196.4-65.3-1196z"/>
	<path class="st3" d="M48-1106c-7.7,0-14,6.3-14,14s6.3,14,14,14c7.7,0,14-6.3,14-14S55.7-1106,48-1106z M38-1092
		c0-5.3,4.1-9.6,9.3-10c-3.2,2.1-5.3,5.8-5.3,10s2.1,7.8,5.3,10C42.1-1082.4,38-1086.7,38-1092z"/>
	<path class="st3" d="M48-1220c-7.7,0-14,6.3-14,14s6.3,14,14,14c7.7,0,14-6.3,14-14S55.7-1220,48-1220z M48-1196v-20
		c5.5,0,10,4.5,10,10S53.5-1196,48-1196z"/>
	<path class="st3" d="M-66-1106c-7.7,0-14,6.3-14,14s6.3,14,14,14s14-6.3,14-14S-58.3-1106-66-1106z M-76-1092c0-5.5,4.5-10,10-10
		v20C-71.5-1082-76-1086.5-76-1092z"/>
	<path class="st3" d="M162-1220c-7.7,0-14,6.3-14,14s6.3,14,14,14c7.7,0,14-6.3,14-14S169.7-1220,162-1220z M162-1196
		c-0.2,0-0.4,0-0.7,0c-3.2-2.1-5.3-5.8-5.3-10s2.1-7.8,5.3-10c0.2,0,0.4,0,0.7,0c5.5,0,10,4.5,10,10S167.5-1196,162-1196z"/>
	<path class="st3" d="M-180-1106c-7.7,0-14,6.3-14,14s6.3,14,14,14s14-6.3,14-14S-172.3-1106-180-1106z M-190-1092
		c0-5.5,4.5-10,10-10c0.2,0,0.4,0,0.7,0c3.2,2.1,5.3,5.8,5.3,10s-2.1,7.8-5.3,10c-0.2,0-0.4,0-0.7,0
		C-185.5-1082-190-1086.5-190-1092z"/>
	<path class="st3" d="M276-1220c-7.7,0-14,6.3-14,14s6.3,14,14,14c7.7,0,14-6.3,14-14S283.7-1220,276-1220z M276-1196
		c-5.5,0-10-4.5-10-10s4.5-10,10-10s10,4.5,10,10S281.5-1196,276-1196z"/>
	<path class="st4" d="M164-1117.9v-2.1c0-1.1-0.9-2-2-2c-1.1,0-2,0.9-2,2v2.1c-13.4,1-24,12.3-24,25.9c0,1.1,0.9,2,2,2
		c1.1,0,2-0.9,2-2c0-2.2,1.8-4,4-4c2.2,0,4,1.8,4,4c0,1.1,0.9,2,2,2c1.1,0,2-0.9,2-2c0-2.2,1.8-4,4-4c2.2,0,4,1.8,4,4v21
		c0,2.8,2.2,5,5,5c2.8,0,5-2.2,5-5c0-1.1-0.9-2-2-2c-1.1,0-2,0.9-2,2c0,0.6-0.4,1-1,1c-0.6,0-1-0.4-1-1v-21c0-2.2,1.8-4,4-4
		c2.2,0,4,1.8,4,4c0,1.1,0.9,2,2,2c1.1,0,2-0.9,2-2c0-2.2,1.8-4,4-4c2.2,0,4,1.8,4,4c0,1.1,0.9,2,2,2c1.1,0,2-0.9,2-2
		C188-1105.7,177.4-1116.9,164-1117.9z"/>
	<g>
		<path class="st5" d="M153-532h12c1.1,0,2-0.9,2-2s-0.9-2-2-2h-12c-1.1,0-2,0.9-2,2S151.9-532,153-532z"/>
		<path class="st5" d="M141-526h24c1.1,0,2-0.9,2-2s-0.9-2-2-2h-24c-1.1,0-2,0.9-2,2S139.9-526,141-526z"/>
		<path class="st5" d="M135-520h24c1.1,0,2-0.9,2-2s-0.9-2-2-2h-24c-1.1,0-2,0.9-2,2S133.9-520,135-520z"/>
		<path class="st5" d="M194-516c0-1.1-0.9-2-2-2h-60c-1.1,0-2,0.9-2,2s0.9,2,2,2h60C193.1-514,194-514.9,194-516z"/>
		<path class="st5" d="M192-512h-57c-1.1,0-2,0.9-2,2s0.9,2,2,2h57c1.1,0,2-0.9,2-2S193.1-512,192-512z"/>
		<path class="st5" d="M153-506l-12,0c-1.1,0-2,0.9-2,2s0.9,2,2,2l12,0c1.1,0,2-0.9,2-2S154.1-506,153-506z"/>
		<path class="st5" d="M172-526h8c1.1,0,2-0.9,2-2s-0.9-2-2-2h-8c-1.1,0-2,0.9-2,2S170.9-526,172-526z"/>
		<path class="st5" d="M163-522c0,1.1,0.9,2,2,2h21c1.1,0,2-0.9,2-2s-0.9-2-2-2h-21C163.9-524,163-523.1,163-522z"/>
		<path class="st5" d="M186-506l-27,0c-1.1,0-2,0.9-2,2s0.9,2,2,2l27,0c1.1,0,2-0.9,2-2S187.1-506,186-506z"/>
	</g>
	<g>
		<path class="st2" d="M-93-403c1.1,0,2-0.9,2-2c0-3.9,3.1-7,7-7c0.3,0,0.7,0.1,1.2,0.2v1.8c0,1.1,0.9,2,2,2s2-0.9,2-2v-3.2
			c1.1-6.3,6.4-10.8,12.8-10.8s11.7,4.5,12.8,10.8v3.2c0,1.1,0.9,2,2,2c1.1,0,2-0.9,2-2v-1.8c0.5-0.1,0.9-0.2,1.2-0.2
			c3.9,0,7,3.1,7,7c0,1.1,0.9,2,2,2c1.1,0,2-0.9,2-2c0-6.1-4.9-11-11-11c-0.5,0-1.1,0.1-1.7,0.2C-51.8-423-58.3-428-66-428
			s-14.2,5-16.3,12.2c-0.6-0.1-1.2-0.2-1.7-0.2c-6.1,0-11,4.9-11,11C-95-403.9-94.1-403-93-403z"/>
		<path class="st2" d="M-74-397c0,1.1,0.9,2,2,2h36c1.1,0,2-0.9,2-2s-0.9-2-2-2h-36C-73.1-399-74-398.1-74-397z"/>
		<path class="st2" d="M-66-392c-1.1,0-2,0.9-2,2s0.9,2,2,2h27c1.1,0,2-0.9,2-2s-0.9-2-2-2H-66z"/>
		<path class="st2" d="M-36-385h-24c-1.1,0-2,0.9-2,2s0.9,2,2,2h24c1.1,0,2-0.9,2-2S-34.9-385-36-385z"/>
		<path class="st2" d="M-96-395h18c1.1,0,2-0.9,2-2s-0.9-2-2-2h-18c-1.1,0-2,0.9-2,2S-97.1-395-96-395z"/>
		<path class="st2" d="M-93-392c-1.1,0-2,0.9-2,2s0.9,2,2,2h21c1.1,0,2-0.9,2-2s-0.9-2-2-2H-93z"/>
		<path class="st2" d="M-66-385h-30c-1.1,0-2,0.9-2,2s0.9,2,2,2h30c1.1,0,2-0.9,2-2S-64.9-385-66-385z"/>
	</g>
	<g>
		<path class="st2" d="M294-422c-0.5,0-1.1,0.1-1.7,0.2c-2.1-7.2-8.6-12.2-16.3-12.2c-7.7,0-14.2,5-16.3,12.2
			c-0.6-0.1-1.2-0.2-1.7-0.2c-6.1,0-11,4.9-11,11s4.9,11,11,11c1.1,0,2-0.9,2-2s-0.9-2-2-2c-3.9,0-7-3.1-7-7s3.1-7,7-7
			c0.3,0,0.7,0.1,1.2,0.2v1.8c0,1.1,0.9,2,2,2c1.1,0,2-0.9,2-2v-3.2c1.1-6.3,6.4-10.8,12.8-10.8c6.4,0,11.7,4.5,12.8,10.8v3.2
			c0,1.1,0.9,2,2,2s2-0.9,2-2v-1.8c0.5-0.1,0.9-0.2,1.2-0.2c3.9,0,7,3.1,7,7s-3.1,7-7,7c-1.1,0-2,0.9-2,2s0.9,2,2,2
			c6.1,0,11-4.9,11-11S300.1-422,294-422z"/>
		<path class="st2" d="M267.6-403.2c-0.8-1-2.4-1-3.2,0c-0.8,1.1-3.4,4.7-3.4,7.2c0,2.9,2.1,5,5,5c2.9,0,5-2.1,5-5
			C271-398.5,268.4-402.1,267.6-403.2z"/>
		<path class="st2" d="M284.4-403.2c-0.8,1.1-3.4,4.7-3.4,7.2c0,2.9,2.1,5,5,5c2.9,0,5-2.1,5-5c0-2.5-2.6-6.1-3.4-7.2
			C286.8-404.2,285.2-404.2,284.4-403.2z"/>
		<path class="st2" d="M274.4-391.2c-0.8,1.1-3.4,4.7-3.4,7.2c0,2.9,2.1,5,5,5c2.9,0,5-2.1,5-5c0-2.5-2.6-6.1-3.4-7.2
			C276.8-392.2,275.2-392.2,274.4-391.2z"/>
	</g>
	<g>
		<path d="M169.6,172.6l-5.6,5.6V165c0-1.1-0.9-2-2-2c-1.1,0-2,0.9-2,2v13.2l-5.6-5.6c-0.8-0.8-2-0.8-2.8,0c-0.8,0.8-0.8,2,0,2.8
			l9,9c0.1,0.1,0.2,0.2,0.3,0.3c0,0,0.1,0.1,0.1,0.1c0.1,0,0.1,0.1,0.2,0.1c0.1,0,0.1,0,0.2,0.1c0.1,0,0.1,0,0.2,0.1
			c0.1,0,0.3,0,0.4,0c0.1,0,0.3,0,0.4,0c0.1,0,0.1,0,0.2-0.1c0.1,0,0.1,0,0.2-0.1c0.1,0,0.1-0.1,0.2-0.1c0,0,0.1,0,0.1-0.1
			c0.1-0.1,0.2-0.2,0.3-0.3l9-9c0.8-0.8,0.8-2,0-2.8C171.6,171.8,170.4,171.8,169.6,172.6z"/>
		<path d="M180,154c-0.5,0-1.1,0.1-1.7,0.2c-2.1-7.2-8.6-12.2-16.3-12.2c-7.7,0-14.2,5-16.3,12.2c-0.6-0.1-1.2-0.2-1.7-0.2
			c-6.1,0-11,4.9-11,11s4.9,11,11,11l2,0c1.1,0,2-0.9,2-2c0-1.1-0.9-2-2-2h0l-2,0c-3.9,0-7-3.1-7-7s3.1-7,7-7c0.3,0,0.7,0.1,1.2,0.2
			v1.8c0,1.1,0.9,2,2,2c1.1,0,2-0.9,2-2v-3.2c1.1-6.3,6.4-10.8,12.8-10.8c6.4,0,11.7,4.5,12.8,10.8v3.2c0,1.1,0.9,2,2,2
			c1.1,0,2-0.9,2-2v-1.8c0.5-0.1,0.9-0.2,1.2-0.2c3.9,0,7,3.1,7,7s-3.1,7-7,7l-2,0h0c-1.1,0-2,0.9-2,2c0,1.1,0.9,2,2,2l2,0
			c6.1,0,11-4.9,11-11S186.1,154,180,154z"/>
	</g>
	<g>
		<path d="M277.4,163.6c-0.1-0.1-0.2-0.2-0.3-0.3c0,0-0.1-0.1-0.1-0.1c-0.1,0-0.1-0.1-0.2-0.1c-0.1,0-0.1,0-0.2-0.1
			c-0.1,0-0.1,0-0.2-0.1c-0.3-0.1-0.5-0.1-0.8,0c-0.1,0-0.1,0-0.2,0.1c-0.1,0-0.1,0-0.2,0.1c-0.1,0-0.1,0.1-0.2,0.1
			c0,0-0.1,0-0.1,0.1c-0.1,0.1-0.2,0.2-0.3,0.3l-9,9c-0.8,0.8-0.8,2,0,2.8c0.8,0.8,2,0.8,2.8,0l5.6-5.6V183c0,1.1,0.9,2,2,2
			c1.1,0,2-0.9,2-2v-13.2l5.6,5.6c0.4,0.4,0.9,0.6,1.4,0.6c0.5,0,1-0.2,1.4-0.6c0.8-0.8,0.8-2,0-2.8L277.4,163.6z"/>
		<path d="M294,154c-0.5,0-1.1,0.1-1.7,0.2c-2.1-7.2-8.6-12.2-16.3-12.2c-7.7,0-14.2,5-16.3,12.2c-0.6-0.1-1.2-0.2-1.7-0.2
			c-6.1,0-11,4.9-11,11s4.9,11,11,11l2,0c1.1,0,2-0.9,2-2c0-1.1-0.9-2-2-2h0l-2,0c-3.9,0-7-3.1-7-7s3.1-7,7-7c0.3,0,0.7,0.1,1.2,0.2
			v1.8c0,1.1,0.9,2,2,2c1.1,0,2-0.9,2-2v-3.2c1.1-6.3,6.4-10.8,12.8-10.8c6.4,0,11.7,4.5,12.8,10.8v3.2c0,1.1,0.9,2,2,2s2-0.9,2-2
			v-1.8c0.5-0.1,0.9-0.2,1.2-0.2c3.9,0,7,3.1,7,7s-3.1,7-7,7l-2,0h0c-1.1,0-2,0.9-2,2c0,1.1,0.9,2,2,2l2,0c6.1,0,11-4.9,11-11
			S300.1,154,294,154z"/>
	</g>
	<g>
		<path class="st2" d="M274-174v18c0,1.1,0.9,2,2,2c1.1,0,2-0.9,2-2v-18c0-1.1-0.9-2-2-2C274.9-176,274-175.1,274-174z"/>
		<path class="st2" d="M251-155h-2c-1.1,0-2,0.9-2,2v2c0,1.1,0.9,2,2,2h2c1.1,0,2-0.9,2-2v-2C253-154.1,252.1-155,251-155z"/>
		<path class="st2" d="M277-150h-2c-1.1,0-2,0.9-2,2v2c0,1.1,0.9,2,2,2h2c1.1,0,2-0.9,2-2v-2C279-149.1,278.1-150,277-150z"/>
		<path class="st2" d="M304-158h-2c-1.1,0-2,0.9-2,2v2c0,1.1,0.9,2,2,2h2c1.1,0,2-0.9,2-2v-2C306-157.1,305.1-158,304-158z"/>
		<path class="st2" d="M267-170c-1.1,0-2,0.9-2,2v15.1c-1.2-0.7-2.5-1.1-4-1.1h-2c-1.1,0-2,0.9-2,2c0,1.1,0.9,2,2,2h2
			c2.2,0,4,1.8,4,4c0,1.1,0.9,2,2,2c1.1,0,2-0.9,2-2v-22C269-169.1,268.1-170,267-170z"/>
		<path class="st2" d="M294-157c-2.7,0-5.1,0.9-7,2.5V-168c0-1.1-0.9-2-2-2c-1.1,0-2,0.9-2,2v22c0,0,0,0,0,0c0,1.1,0.9,2,2,2
			c1.1,0,2-0.9,2-2v0c0-3.9,3.1-7,7-7c1.1,0,2-0.9,2-2C296-156.1,295.1-157,294-157z"/>
	</g>
	<g>
		<path class="st5" d="M-60-68l-30,0c-1.1,0-2,0.9-2,2s0.9,2,2,2l30,0c3.9,0,7,3.1,7,7s-3.1,7-7,7c-1.1,0-2,0.9-2,2s0.9,2,2,2
			c6.1,0,11-4.9,11-11S-53.9-68-60-68z"/>
		<path class="st5" d="M-66-62h-24c-1.1,0-2,0.9-2,2s0.9,2,2,2h24c0.6,0,1,0.4,1,1s-0.4,1-1,1c-1.1,0-2,0.9-2,2s0.9,2,2,2
			c2.8,0,5-2.2,5-5S-63.2-62-66-62z"/>
		<path class="st5" d="M-45-76c-1.1,0-2,0.9-2,2s0.9,2,2,2c0.6,0,1,0.4,1,1s-0.4,1-1,1h-4c-1.1,0-2,0.9-2,2s0.9,2,2,2h4
			c2.8,0,5-2.2,5-5S-42.2-76-45-76z"/>
		<path class="st5" d="M-90-70l33,0c4.4,0,8-3.6,8-8s-3.6-8-8-8s-8,3.6-8,8c0,1.1,0.9,2,2,2c1.1,0,2-0.9,2-2c0-2.2,1.8-4,4-4
			c2.2,0,4,1.8,4,4s-1.8,4-4,4l-33,0c-1.1,0-2,0.9-2,2S-91.1-70-90-70z"/>
	</g>
	<g>
		<path class="st5" d="M-204,26h42c1.1,0,2-0.9,2-2s-0.9-2-2-2h-42c-1.1,0-2,0.9-2,2S-205.1,26-204,26z"/>
		<path class="st5" d="M-162,30h-39c-1.1,0-2,0.9-2,2s0.9,2,2,2h39c1.1,0,2-0.9,2-2S-160.9,30-162,30z"/>
		<path class="st5" d="M-166,40c0-1.1-0.9-2-2-2h-36c-1.1,0-2,0.9-2,2s0.9,2,2,2h36C-166.9,42-166,41.1-166,40z"/>
		<path class="st5" d="M-162,46h-33c-1.1,0-2,0.9-2,2s0.9,2,2,2h33c1.1,0,2-0.9,2-2S-160.9,46-162,46z"/>
		<path class="st5" d="M-168,54h-18c-1.1,0-2,0.9-2,2s0.9,2,2,2h18c1.1,0,2-0.9,2-2S-166.9,54-168,54z"/>
		<path class="st5" d="M-174,62h-12c-1.1,0-2,0.9-2,2s0.9,2,2,2h12c1.1,0,2-0.9,2-2S-172.9,62-174,62z"/>
		<path class="st5" d="M-180,70h-6c-1.1,0-2,0.9-2,2s0.9,2,2,2h6c1.1,0,2-0.9,2-2S-178.9,70-180,70z"/>
	</g>
	<g>
		<path class="st2" d="M48,58c-2.8,0-5,2.2-5,5c0,2.8,2.2,5,5,5c2.8,0,5-2.2,5-5C53,60.2,50.8,58,48,58z M48,64c-0.6,0-1-0.4-1-1
			s0.4-1,1-1c0.6,0,1,0.4,1,1S48.6,64,48,64z"/>
		<path class="st2" d="M56,55.5L56,30c0-4.4-3.6-8-8-8c-4.4,0-8,3.6-8,8l0,25.5c-1.9,2-3,4.7-3,7.5c0,6.1,4.9,11,11,11
			c6.1,0,11-4.9,11-11C59,60.2,57.9,57.5,56,55.5z M48,70c-3.9,0-7-3.1-7-7c0-2,0.8-3.9,2.3-5.2c0.4-0.4,0.7-0.9,0.7-1.5L44,30
			c0-2.2,1.8-4,4-4c2.2,0,4,1.8,4,4l0,26.3c0,0.6,0.2,1.1,0.7,1.5C54.2,59.1,55,61,55,63C55,66.9,51.9,70,48,70z"/>
	</g>
	<g>
		<path class="st2" d="M-66,74c-6.1,0-11-4.9-11-11c0-2.8,1.1-5.5,3-7.5l0-25.5c0-4.4,3.6-8,8-8s8,3.6,8,8l0,25.5c1.9,2,3,4.7,3,7.5
			C-55,69.1-59.9,74-66,74L-66,74z M-66,26c-2.2,0-4,1.8-4,4l0,26.3c0,0.6-0.2,1.1-0.7,1.5C-72.2,59.1-73,61-73,63c0,3.9,3.1,7,7,7
			c3.9,0,7-3.1,7-7c0-2-0.8-3.9-2.3-5.2c-0.4-0.4-0.7-0.9-0.7-1.5l0-26.3C-62,27.8-63.8,26-66,26L-66,26z"/>
	</g>
	<g>
		<path class="st5" d="M164,58.4V47c0-1.1-0.9-2-2-2c-1.1,0-2,0.9-2,2v11.4c-1.8,0.8-3,2.5-3,4.6c0,2.8,2.2,5,5,5c2.8,0,5-2.2,5-5
			C167,61,165.8,59.2,164,58.4z M162,64c-0.6,0-1-0.4-1-1s0.4-1,1-1c0.6,0,1,0.4,1,1S162.6,64,162,64z"/>
		<path class="st5" d="M170,55.5l0-25.5c0-4.4-3.6-8-8-8c-4.4,0-8,3.6-8,8l0,25.5c-1.9,2-3,4.7-3,7.5c0,6.1,4.9,11,11,11
			c6.1,0,11-4.9,11-11C173,60.2,171.9,57.5,170,55.5z M162,70c-3.9,0-7-3.1-7-7c0-2,0.8-3.9,2.3-5.2c0.4-0.4,0.7-0.9,0.7-1.5l0-26.3
			c0-2.2,1.8-4,4-4c2.2,0,4,1.8,4,4l0,26.3c0,0.6,0.2,1.1,0.7,1.5c1.5,1.3,2.3,3.2,2.3,5.2C169,66.9,165.9,70,162,70z"/>
	</g>
	<g>
		<path class="st6" d="M278,58.4V30c0-1.1-0.9-2-2-2c-1.1,0-2,0.9-2,2v28.4c-1.8,0.8-3,2.5-3,4.6c0,2.8,2.2,5,5,5c2.8,0,5-2.2,5-5
			C281,61,279.8,59.2,278,58.4z M276,64c-0.6,0-1-0.4-1-1s0.4-1,1-1c0.6,0,1,0.4,1,1S276.6,64,276,64z"/>
		<path class="st6" d="M284,55.5l0-25.5c0-4.4-3.6-8-8-8s-8,3.6-8,8l0,25.5c-1.9,2-3,4.7-3,7.5c0,6.1,4.9,11,11,11s11-4.9,11-11
			C287,60.2,285.9,57.5,284,55.5z M276,70c-3.9,0-7-3.1-7-7c0-2,0.8-3.9,2.3-5.2c0.4-0.4,0.7-0.9,0.7-1.5l0-26.3c0-2.2,1.8-4,4-4
			c2.2,0,4,1.8,4,4l0,26.3c0,0.6,0.2,1.1,0.7,1.5c1.5,1.3,2.3,3.2,2.3,5.2C283,66.9,279.9,70,276,70z"/>
	</g>
	<path class="st6" d="M308-1097.1c0-0.1,0-0.1,0-0.2c0-0.1,0-0.1,0-0.2c0-0.1,0-0.1-0.1-0.2c0-0.1,0-0.1-0.1-0.2c0,0,0,0,0-0.1
		c0,0,0-0.1-0.1-0.1c0-0.1-0.1-0.1-0.1-0.2c0-0.1-0.1-0.1-0.1-0.2c0,0-0.1-0.1-0.1-0.1c-0.1,0-0.1-0.1-0.2-0.1c0,0-0.1-0.1-0.1-0.1
		c-0.1,0-0.1-0.1-0.2-0.1c-0.1,0-0.1-0.1-0.2-0.1c-0.1,0-0.1,0-0.2-0.1c-0.1,0-0.1,0-0.2,0c-0.1,0-0.2,0-0.2,0c0,0-0.1,0-0.1,0h-4
		c0-2.8-2.2-5-5-5h-14c-1.4,0-2.7,0.6-3.6,1.5c-0.3,0.3-0.5,0.7-0.7,1c-0.8-0.4-1.7-0.6-2.7-0.6s-1.8,0.2-2.7,0.6
		c-0.2-0.4-0.4-0.7-0.7-1c-0.9-1-2.2-1.5-3.6-1.5h-14c-2.8,0-5,2.2-5,5h-4c0,0-0.1,0-0.1,0c-0.1,0-0.1,0-0.2,0c-0.1,0-0.1,0-0.2,0
		c-0.1,0-0.1,0-0.2,0.1c-0.1,0-0.1,0.1-0.2,0.1c-0.1,0-0.1,0.1-0.2,0.1c-0.1,0-0.1,0.1-0.2,0.1c-0.1,0-0.1,0.1-0.2,0.1
		c0,0-0.1,0.1-0.1,0.1c0,0-0.1,0.1-0.1,0.1c0,0.1-0.1,0.1-0.1,0.2c0,0,0,0.1-0.1,0.1c0,0,0,0,0,0.1c0,0.1-0.1,0.1-0.1,0.2
		c0,0.1,0,0.1-0.1,0.2c0,0.1,0,0.1,0,0.2c0,0.1,0,0.1,0,0.2c0,0,0,0,0,0.1c0,0,0,0.1,0,0.1c0,0.1,0,0.1,0,0.2c0,0.1,0,0.1,0,0.2
		c0,0.1,0,0.1,0.1,0.2c0,0.1,0,0.1,0.1,0.2c0,0.1,0.1,0.1,0.1,0.2c0,0.1,0.1,0.1,0.1,0.2c0,0.1,0.1,0.1,0.1,0.2c0,0,0.1,0.1,0.1,0.1
		c0,0,0.1,0.1,0.1,0.1c0.1,0,0.1,0.1,0.2,0.1c0,0,0.1,0,0.1,0.1l4.9,2.5c0.1,6,5,10.8,11,10.8c5,0,11-2.5,12.6-13.6
		c0-0.1,0-0.1,0-0.2c0-0.2,0.1-0.4,0.1-0.7c0.3-0.9,1.3-1.6,2.3-1.6c1,0,2,0.7,2.3,1.6c0,0.2,0.1,0.5,0.1,0.7c0,0.1,0,0.1,0,0.2
		c1.6,11.1,7.6,13.6,12.6,13.6c6,0,10.9-4.8,11-10.8l4.9-2.5c0,0,0.1,0,0.1-0.1c0.1,0,0.1-0.1,0.2-0.1c0.1,0,0.1-0.1,0.2-0.1
		c0,0,0.1-0.1,0.1-0.1c0-0.1,0.1-0.1,0.1-0.2c0,0,0.1-0.1,0.1-0.1c0-0.1,0.1-0.1,0.1-0.2c0-0.1,0.1-0.1,0.1-0.2c0-0.1,0-0.1,0.1-0.2
		c0-0.1,0-0.1,0-0.2c0-0.1,0-0.1,0-0.2C308-1096.9,308-1097,308-1097.1C308-1097,308-1097,308-1097.1z M262.4-1096.6l-5,5
		c-0.4,0.4-0.9,0.6-1.4,0.6c-0.5,0-1-0.2-1.4-0.6c-0.8-0.8-0.8-2,0-2.8l5-5c0.8-0.8,2-0.8,2.8,0
		C263.2-1098.6,263.2-1097.4,262.4-1096.6z M291.4-1096.6l-5,5c-0.4,0.4-0.9,0.6-1.4,0.6c-0.5,0-1-0.2-1.4-0.6c-0.8-0.8-0.8-2,0-2.8
		l5-5c0.8-0.8,2-0.8,2.8,0C292.2-1098.6,292.2-1097.4,291.4-1096.6z"/>
	<path class="st5" d="M-149.5,145.1l-24-6c0,0-0.1,0-0.1,0c-0.1,0-0.2,0-0.3,0c-0.1,0-0.1,0-0.1,0c-0.1,0-0.2,0-0.3,0
		c0,0-0.1,0-0.1,0c-0.1,0-0.3,0.1-0.4,0.1c0,0,0,0,0,0c-0.1,0.1-0.2,0.1-0.4,0.2l-8.8,6.6v-6.4c1.8-0.8,3-2.5,3-4.6c0-2.8-2.2-5-5-5
		s-5,2.2-5,5c0,2,1.2,3.8,3,4.6V190h-22c-1.1,0-2,0.9-2,2s0.9,2,2,2h48c1.1,0,2-0.9,2-2s-0.9-2-2-2h-22v-36l8.8,6.6
		c0.1,0.1,0.2,0.1,0.3,0.2c0.1,0,0.1,0.1,0.2,0.1c0.2,0.1,0.4,0.1,0.6,0.1c0,0,0,0,0,0h0c0,0,0,0,0,0c0.2,0,0.3,0,0.4-0.1
		c0,0,0,0,0,0l24-6c0.9-0.2,1.5-1,1.5-1.9v-6C-148,146.1-148.6,145.3-149.5,145.1z M-176,155l-6.7-5l6.7-5V155z M-186,134
		c0.6,0,1,0.4,1,1s-0.4,1-1,1s-1-0.4-1-1S-186.6,134-186,134z M-172,143.6l8,2v8.9l-8,2V143.6z M-152,151.4l-8,2v-6.9l8,2V151.4z"/>
	<path class="st2" d="M75,175.3l-6.2-3.6l3.5-0.9c1.1-0.3,1.7-1.4,1.4-2.4c-0.3-1.1-1.4-1.7-2.4-1.4l-7.4,2l-5.5-3.2l6.5-1.8
		c0.8-0.2,1.4-0.9,1.5-1.8c0.1-0.9-0.4-1.6-1.2-2l-5.8-2.4l4.5-2.6l7.4,2c0.2,0,0.3,0.1,0.5,0.1c0.9,0,1.7-0.6,1.9-1.5
		c0.3-1.1-0.3-2.2-1.4-2.4l-3.5-0.9l6.2-3.6c1-0.6,1.3-1.8,0.7-2.7c-0.6-1-1.8-1.3-2.7-0.7l-6.2,3.6l0.9-3.5
		c0.3-1.1-0.3-2.2-1.4-2.4c-1.1-0.3-2.2,0.3-2.4,1.4l-2,7.4l-4.5,2.6l0.8-6.2c0.1-0.8-0.3-1.6-1-2c-0.7-0.4-1.6-0.3-2.2,0.1l-5,3.8
		v-5.2l5.4-5.4c0.8-0.8,0.8-2,0-2.8c-0.8-0.8-2-0.8-2.8,0l-2.6,2.6V132c0-1.1-0.9-2-2-2c-1.1,0-2,0.9-2,2v7.2l-2.6-2.6
		c-0.8-0.8-2-0.8-2.8,0c-0.8,0.8-0.8,2,0,2.8l5.4,5.4v5.2l-5-3.8c-0.7-0.5-1.6-0.5-2.3-0.1c-0.7,0.5-1,1.4-0.8,2.2l1.8,6.5l-5.5-3.2
		l-2-7.4c-0.3-1.1-1.4-1.7-2.4-1.4c-1.1,0.3-1.7,1.4-1.4,2.4l0.9,3.5l-6.2-3.6c-1-0.6-2.2-0.2-2.7,0.7c-0.6,1-0.2,2.2,0.7,2.7
		l6.2,3.6l-3.5,0.9c-1.1,0.3-1.7,1.4-1.4,2.4c0.2,0.9,1,1.5,1.9,1.5c0.2,0,0.3,0,0.5-0.1l7.4-2l5.5,3.2l-6.5,1.8
		c-0.8,0.2-1.4,0.9-1.5,1.8c-0.1,0.9,0.4,1.6,1.2,2l5.8,2.4l-4.5,2.6l-7.4-2c-1.1-0.3-2.2,0.3-2.4,1.4c-0.3,1.1,0.3,2.2,1.4,2.4
		l3.5,0.9l-6.2,3.6c-1,0.6-1.3,1.8-0.7,2.7c0.4,0.6,1,1,1.7,1c0.3,0,0.7-0.1,1-0.3l6.2-3.6l-0.9,3.5c-0.3,1.1,0.3,2.2,1.4,2.4
		c0.2,0,0.3,0.1,0.5,0.1c0.9,0,1.7-0.6,1.9-1.5l2-7.4l4.5-2.6l-0.8,6.2c-0.1,0.8,0.3,1.6,1,2c0.7,0.4,1.6,0.3,2.2-0.1l5-3.8v5.2
		l-5.4,5.4c-0.8,0.8-0.8,2,0,2.8c0.8,0.8,2,0.8,2.8,0l2.6-2.6v7.2c0,1.1,0.9,2,2,2c1.1,0,2-0.9,2-2v-7.2l2.6,2.6
		c0.4,0.4,0.9,0.6,1.4,0.6c0.5,0,1-0.2,1.4-0.6c0.8-0.8,0.8-2,0-2.8l-5.4-5.4V174l5,3.8c0.4,0.3,0.8,0.4,1.2,0.4
		c0.4,0,0.8-0.1,1.1-0.3c0.7-0.5,1-1.4,0.8-2.2l-1.8-6.5l5.5,3.2l2,7.4c0.2,0.9,1,1.5,1.9,1.5c0.2,0,0.3,0,0.5-0.1
		c1.1-0.3,1.7-1.4,1.4-2.4l-0.9-3.5l6.2,3.6c0.3,0.2,0.7,0.3,1,0.3c0.7,0,1.4-0.4,1.7-1C76.3,177,75.9,175.8,75,175.3z M58.2,161.6
		l-4.8,1.3L52,162l3.1-1.8L58.2,161.6z M53.6,152.3l-0.6,4.5l-3.1,1.8V155L53.6,152.3z M43.2,152.9L46,155v3.5l-1.5-0.9L43.2,152.9z
		 M37.7,162.4l4.8-1.3L44,162l-3.1,1.8L37.7,162.4z M42.4,171.7l0.6-4.5l3.1-1.8v3.5L42.4,171.7z M52.8,171.1L50,169v-3.5l1.5,0.9
		L52.8,171.1z"/>
	<g>
		<path class="st5" d="M-42,140c1.1,0,2-0.9,2-2s-0.9-2-2-2c-7,0-12.9,5.2-13.8,12h-2c1-7.9,7.7-14,15.9-14c1.1,0,2-0.9,2-2
			s-0.9-2-2-2c-10.4,0-18.9,7.9-19.9,18H-70v-10c0-1.5-0.4-2.9-1.1-4.1l1.5-1.5c0.8-0.8,0.8-2,0-2.8c-0.8-0.8-2-0.8-2.8,0l-1.5,1.5
			c-0.6-0.4-1.3-0.7-2.1-0.9V128c0-1.1-0.9-2-2-2s-2,0.9-2,2v2.3c-0.7,0.2-1.4,0.5-2.1,0.9l-1.5-1.5c-0.8-0.8-2-0.8-2.8,0
			c-0.8,0.8-0.8,2,0,2.8l1.5,1.5c-0.5,0.9-0.9,2-1,3.1H-90c-0.9,0-1.7,0.6-1.9,1.5c-0.2,0.9,0.2,1.8,1.1,2.2l4.9,2.4v6.8
			c0,10.4,7.9,18.9,18,19.9V180h-17.2l2.6-2.6c0.8-0.8,0.8-2,0-2.8c-0.8-0.8-2-0.8-2.8,0l-6,6c-0.1,0.1-0.2,0.2-0.2,0.3
			c0,0-0.1,0.1-0.1,0.1c0,0.1-0.1,0.1-0.1,0.2c0,0.1,0,0.1-0.1,0.2c0,0.1,0,0.1-0.1,0.2c-0.1,0.3-0.1,0.5,0,0.8c0,0.1,0,0.1,0.1,0.2
			c0,0.1,0,0.1,0.1,0.2c0,0.1,0.1,0.1,0.1,0.2c0,0,0,0.1,0.1,0.1c0.1,0.1,0.2,0.2,0.2,0.3l6,6c0.4,0.4,0.9,0.6,1.4,0.6
			s1-0.2,1.4-0.6c0.8-0.8,0.8-2,0-2.8l-2.6-2.6H-68v12c0,1.1,0.9,2,2,2s2-0.9,2-2v-12h15.2l5.4,5.4c0.4,0.4,0.9,0.6,1.4,0.6
			c0.5,0,1-0.2,1.4-0.6c0.8-0.8,0.8-2,0-2.8l-4.6-4.6l4.6-4.6c0.8-0.8,0.8-2,0-2.8c-0.8-0.8-2-0.8-2.8,0l-5.4,5.4H-64v-10.1
			c10.1-1,18-9.5,18-19.9c0-2.2,1.8-4,4-4c1.1,0,2-0.9,2-2s-0.9-2-2-2c-3.7,0-6.8,2.6-7.7,6h-2.1C-50.9,143.4-46.8,140-42,140z
			 M-62.6,152c-0.7,1.2-2,2-3.4,2c-1.5,0-2.8-0.8-3.4-2H-62.6z M-50.1,152c-1,7.9-7.7,14-15.9,14c-8.8,0-16-7.2-16-16v-12
			c0-2.2,1.8-4,4-4s4,1.8,4,4v12c0,0,0,0,0,0c0,4.4,3.6,8,8,8c3.7,0,6.8-2.6,7.7-6H-50.1z"/>
		<circle class="st6" cx="-78" cy="138" r="2"/>
	</g>
	<g>
		<path class="st1" d="M-180-1334c-7.7,0-14,6.3-14,14s6.3,14,14,14c7.7,0,14-6.3,14-14S-172.3-1334-180-1334z"/>
		<polygon class="st1" points="-180,-1346.5 -175.1,-1338 -184.9,-1338 		"/>
		<polygon class="st1" points="-180,-1293.6 -184.9,-1302 -175.1,-1302 		"/>
		<polygon class="st1" points="-206.5,-1320 -198,-1324.9 -198,-1315.1 		"/>
		<polygon class="st1" points="-153.4,-1320 -161.9,-1315.1 -161.9,-1324.9 		"/>
		<polygon class="st1" points="-163.3,-1336.8 -165,-1331.2 -168.8,-1335.1 		"/>
		<polygon class="st1" points="-196.8,-1303.2 -195.1,-1308.8 -191.3,-1304.9 		"/>
		<polygon class="st1" points="-196.8,-1336.8 -191.3,-1335.1 -195.1,-1331.2 		"/>
		<polygon class="st1" points="-163.3,-1303.2 -168.8,-1304.9 -165,-1308.8 		"/>
	</g>
	<path class="st4" d="M-48-986c-0.5,0-1.1,0.1-1.7,0.2C-51.8-993-58.3-998-66-998c-7.7,0-14.2,5-16.3,12.2c-0.6-0.1-1.2-0.2-1.7-0.2
		c-6.1,0-11,4.9-11,11s4.9,11,11,11h36c6.1,0,11-4.9,11-11S-41.9-986-48-986z"/>
	<path class="st4" d="M66-986c-0.5,0-1.1,0.1-1.7,0.2C62.2-993,55.7-998,48-998c-7.7,0-14.2,5-16.3,12.2c-0.6-0.1-1.2-0.2-1.7-0.2
		c-6.1,0-11,4.9-11,11s4.9,11,11,11h36c6.1,0,11-4.9,11-11S72.1-986,66-986z"/>
	<g>
		<path class="st2" d="M153-954c-1.1,0-2,0.9-2,2v4c0,1.1,0.9,2,2,2c1.1,0,2-0.9,2-2v-4C155-953.1,154.1-954,153-954z"/>
		<path class="st2" d="M162-948c-1.1,0-2,0.9-2,2v4c0,1.1,0.9,2,2,2c1.1,0,2-0.9,2-2v-4C164-947.1,163.1-948,162-948z"/>
		<path class="st2" d="M162-960c-1.1,0-2,0.9-2,2v4c0,1.1,0.9,2,2,2c1.1,0,2-0.9,2-2v-4C164-959.1,163.1-960,162-960z"/>
		<path class="st2" d="M171-954c-1.1,0-2,0.9-2,2v4c0,1.1,0.9,2,2,2c1.1,0,2-0.9,2-2v-4C173-953.1,172.1-954,171-954z"/>
		<path class="st2" d="M189.7-980.2c-0.3-0.6-0.7-1.2-1.2-1.8c-1.3-1.6-3.2-2.9-5.2-3.5c-1-0.3-2.1-0.5-3.3-0.5
			c-0.5,0-1.1,0.1-1.7,0.2c-0.9-3.1-2.7-5.9-5-7.9c-0.3-0.3-0.7-0.6-1-0.8c-0.7-0.5-1.5-1-2.3-1.4c-2.4-1.3-5.1-2-8-2
			c-7.7,0-14.2,5-16.3,12.2c-0.6-0.1-1.2-0.2-1.7-0.2c-1.1,0-2.2,0.2-3.3,0.5c-2.1,0.6-3.9,1.9-5.2,3.5c-0.4,0.5-0.8,1.1-1.2,1.8
			c-0.8,1.6-1.3,3.3-1.3,5.2s0.5,3.7,1.3,5.2c0.3,0.6,0.7,1.2,1.2,1.8c1.3,1.6,3.2,2.9,5.2,3.5c1,0.3,2.1,0.5,3.3,0.5h7v4
			c0,1.1,0.9,2,2,2c1.1,0,2-0.9,2-2v-4h14v4c0,1.1,0.9,2,2,2c1.1,0,2-0.9,2-2v-4h7c1.1,0,2.2-0.2,3.3-0.5c2.1-0.6,3.9-1.9,5.2-3.5
			c0.4-0.5,0.8-1.1,1.2-1.8c0.8-1.6,1.3-3.3,1.3-5.2S190.5-978.7,189.7-980.2z"/>
	</g>
	<g>
		<path class="st2" d="M267-954c-1.1,0-2,0.9-2,2v4c0,1.1,0.9,2,2,2c1.1,0,2-0.9,2-2v-4C269-953.1,268.1-954,267-954z"/>
		<path class="st2" d="M276-948c-1.1,0-2,0.9-2,2v4c0,1.1,0.9,2,2,2c1.1,0,2-0.9,2-2v-4C278-947.1,277.1-948,276-948z"/>
		<path class="st2" d="M276-960c-1.1,0-2,0.9-2,2v4c0,1.1,0.9,2,2,2c1.1,0,2-0.9,2-2v-4C278-959.1,277.1-960,276-960z"/>
		<path class="st2" d="M285-954c-1.1,0-2,0.9-2,2v4c0,1.1,0.9,2,2,2c1.1,0,2-0.9,2-2v-4C287-953.1,286.1-954,285-954z"/>
		<path class="st2" d="M303.7-980.2c-0.3-0.6-0.7-1.2-1.2-1.8c-1.3-1.6-3.2-2.9-5.2-3.5c-1-0.3-2.1-0.5-3.3-0.5
			c-0.5,0-1.1,0.1-1.7,0.2c-0.9-3.1-2.7-5.9-5-7.9c-0.3-0.3-0.7-0.6-1-0.8c-0.7-0.5-1.5-1-2.3-1.4c-2.4-1.3-5.1-2-8-2
			c-7.7,0-14.2,5-16.3,12.2c-0.6-0.1-1.2-0.2-1.7-0.2c-1.1,0-2.2,0.2-3.3,0.5c-2.1,0.6-3.9,1.9-5.2,3.5c-0.4,0.5-0.8,1.1-1.2,1.8
			c-0.8,1.6-1.3,3.3-1.3,5.2s0.5,3.7,1.3,5.2c0.3,0.6,0.7,1.2,1.2,1.8c1.3,1.6,3.2,2.9,5.2,3.5c1,0.3,2.1,0.5,3.3,0.5h7v4
			c0,1.1,0.9,2,2,2c1.1,0,2-0.9,2-2v-4h14v4c0,1.1,0.9,2,2,2c1.1,0,2-0.9,2-2v-4h7c1.1,0,2.2-0.2,3.3-0.5c2.1-0.6,3.9-1.9,5.2-3.5
			c0.4-0.5,0.8-1.1,1.2-1.8c0.8-1.6,1.3-3.3,1.3-5.2S304.5-978.7,303.7-980.2z"/>
	</g>
	<g>
		<path class="st2" d="M-189-840c-1.1,0-2,0.9-2,2v4c0,1.1,0.9,2,2,2c1.1,0,2-0.9,2-2v-4C-187-839.1-187.9-840-189-840z"/>
		<path class="st2" d="M-180-834c-1.1,0-2,0.9-2,2v4c0,1.1,0.9,2,2,2s2-0.9,2-2v-4C-178-833.1-178.9-834-180-834z"/>
		<path class="st2" d="M-180-846c-1.1,0-2,0.9-2,2v4c0,1.1,0.9,2,2,2s2-0.9,2-2v-4C-178-845.1-178.9-846-180-846z"/>
		<path class="st2" d="M-171-840c-1.1,0-2,0.9-2,2v4c0,1.1,0.9,2,2,2c1.1,0,2-0.9,2-2v-4C-169-839.1-169.9-840-171-840z"/>
		<path class="st2" d="M-152.3-866.2c-0.3-0.6-0.7-1.2-1.2-1.8c-1.3-1.6-3.2-2.9-5.2-3.5c-1-0.3-2.1-0.5-3.3-0.5
			c-0.5,0-1.1,0.1-1.7,0.2c-0.9-3.1-2.7-5.9-5-7.9c-0.3-0.3-0.7-0.6-1-0.8c-0.7-0.5-1.5-1-2.3-1.4c-2.4-1.3-5.1-2-8-2
			c-7.7,0-14.2,5-16.3,12.2c-0.6-0.1-1.2-0.2-1.7-0.2c-1.1,0-2.2,0.2-3.3,0.5c-2.1,0.6-3.9,1.9-5.2,3.5c-0.4,0.5-0.8,1.1-1.2,1.8
			c-0.8,1.6-1.3,3.3-1.3,5.2s0.5,3.7,1.3,5.2c0.3,0.6,0.7,1.2,1.2,1.8c1.3,1.6,3.2,2.9,5.2,3.5c1,0.3,2.1,0.5,3.3,0.5h7v4
			c0,1.1,0.9,2,2,2c1.1,0,2-0.9,2-2v-4h14v4c0,1.1,0.9,2,2,2c1.1,0,2-0.9,2-2v-4h7c1.1,0,2.2-0.2,3.3-0.5c2.1-0.6,3.9-1.9,5.2-3.5
			c0.4-0.5,0.8-1.1,1.2-1.8c0.8-1.6,1.3-3.3,1.3-5.2S-151.5-864.7-152.3-866.2z"/>
	</g>
	<g>
		<path class="st2" d="M162-848c-1.1,0-2,0.9-2,2v18c0,1.1,0.9,2,2,2c1.1,0,2-0.9,2-2v-18C164-847.1,163.1-848,162-848z"/>
		<path class="st2" d="M189.7-866.2c-0.3-0.6-0.7-1.2-1.2-1.8c-1.3-1.6-3.2-2.9-5.2-3.5c-1-0.3-2.1-0.5-3.3-0.5
			c-0.5,0-1.1,0.1-1.7,0.2c-2.1-7.2-8.6-12.2-16.3-12.2c-7.7,0-14.2,5-16.3,12.2c-0.6-0.1-1.2-0.2-1.7-0.2c-1.1,0-2.2,0.2-3.3,0.5
			c-2.1,0.6-3.9,1.9-5.2,3.5c-0.4,0.5-0.8,1.1-1.2,1.8c-0.8,1.6-1.3,3.3-1.3,5.2s0.5,3.7,1.3,5.2c0.3,0.6,0.7,1.2,1.2,1.8
			c1.3,1.6,3.2,2.9,5.2,3.5c1,0.3,2.1,0.5,3.3,0.5h7v16c0,1.1,0.9,2,2,2c1.1,0,2-0.9,2-2v-16h14v16c0,1.1,0.9,2,2,2c1.1,0,2-0.9,2-2
			v-16h7c1.1,0,2.2-0.2,3.3-0.5c2.1-0.6,3.9-1.9,5.2-3.5c0.4-0.5,0.8-1.1,1.2-1.8c0.8-1.6,1.3-3.3,1.3-5.2S190.5-864.7,189.7-866.2z
			"/>
	</g>
	<g>
		<circle class="st2" cx="-189" cy="-732" r="2"/>
		<circle class="st2" cx="-171" cy="-732" r="2"/>
		<circle class="st2" cx="-180" cy="-726" r="2"/>
		<circle class="st2" cx="-171" cy="-720" r="2"/>
		<circle class="st2" cx="-180" cy="-714" r="2"/>
		<circle class="st2" cx="-189" cy="-720" r="2"/>
		<path class="st2" d="M-152.3-752.2c-0.3-0.6-0.7-1.2-1.2-1.8c-1.3-1.6-3.2-2.9-5.2-3.5c-1-0.3-2.1-0.5-3.3-0.5
			c-0.3,0-0.5,0-0.8,0.1c-0.3,0-0.6,0.1-0.9,0.1c-0.9-3.1-2.7-5.9-5-7.9c-0.3-0.3-0.7-0.6-1-0.8c-0.7-0.5-1.5-1-2.3-1.4
			c-2.4-1.3-5.1-2-8-2c-7.7,0-14.2,5-16.3,12.2c-0.1,0-0.1,0-0.2,0c-0.5-0.1-1-0.2-1.5-0.2c-1.1,0-2.2,0.2-3.3,0.5
			c-2.1,0.6-3.9,1.9-5.2,3.5c-0.4,0.5-0.8,1.1-1.2,1.8c-0.8,1.6-1.3,3.3-1.3,5.2s0.5,3.7,1.3,5.2c0.3,0.6,0.7,1.2,1.2,1.8
			c1.3,1.6,3.2,2.9,5.2,3.5c1,0.3,2.1,0.5,3.3,0.5h36c1.1,0,2.2-0.2,3.3-0.5c2.1-0.6,3.9-1.9,5.2-3.5c0.4-0.5,0.8-1.1,1.2-1.8
			c0.8-1.6,1.3-3.3,1.3-5.2S-151.5-750.7-152.3-752.2z"/>
	</g>
	<g>
		<circle class="st2" cx="-75" cy="-732" r="2"/>
		<circle class="st2" cx="-57" cy="-732" r="2"/>
		<circle class="st2" cx="-66" cy="-726" r="2"/>
		<circle class="st2" cx="-57" cy="-720" r="2"/>
		<circle class="st2" cx="-66" cy="-714" r="2"/>
		<circle class="st2" cx="-75" cy="-720" r="2"/>
		<path class="st2" d="M-38.3-752.2c-0.3-0.6-0.7-1.2-1.2-1.8c-1.3-1.6-3.2-2.9-5.2-3.5c-1-0.3-2.1-0.5-3.3-0.5
			c-0.3,0-0.5,0-0.8,0.1c-0.3,0-0.6,0.1-0.9,0.1c-0.9-3.1-2.7-5.9-5-7.9c-0.3-0.3-0.7-0.6-1-0.8c-0.7-0.5-1.5-1-2.3-1.4
			c-2.4-1.3-5.1-2-8-2c-7.7,0-14.2,5-16.3,12.2c-0.1,0-0.1,0-0.2,0c-0.5-0.1-1-0.2-1.5-0.2c-1.1,0-2.2,0.2-3.3,0.5
			c-2.1,0.6-3.9,1.9-5.2,3.5c-0.4,0.5-0.8,1.1-1.2,1.8c-0.8,1.6-1.3,3.3-1.3,5.2s0.5,3.7,1.3,5.2c0.3,0.6,0.7,1.2,1.2,1.8
			c1.3,1.6,3.2,2.9,5.2,3.5c1,0.3,2.1,0.5,3.3,0.5h36c1.1,0,2.2-0.2,3.3-0.5c2.1-0.6,3.9-1.9,5.2-3.5c0.4-0.5,0.8-1.1,1.2-1.8
			c0.8-1.6,1.3-3.3,1.3-5.2S-37.5-750.7-38.3-752.2z"/>
	</g>
	<g>
		<g>
			<polyline class="st1" points="38.8,-739.4 31.8,-726.3 36.9,-726.4 31.1,-715 43.4,-729.2 37.1,-729.1 46,-739.4 			"/>
			<polyline class="st1" points="51.6,-744.3 44.6,-731.2 49.8,-731.3 44,-719.9 56.2,-734.1 50,-734 58.8,-744.3 			"/>
		</g>
		<path class="st4" d="M66-758c-0.5,0-1.1,0.1-1.7,0.2C62.2-765,55.7-770,48-770c-7.7,0-14.2,5-16.3,12.2c-0.6-0.1-1.2-0.2-1.7-0.2
			c-6.1,0-11,4.9-11,11s4.9,11,11,11h36c6.1,0,11-4.9,11-11S72.1-758,66-758z"/>
	</g>
	<path class="st4" d="M180-758c-0.5,0-1.1,0.1-1.7,0.2c-2.1-7.2-8.6-12.2-16.3-12.2c-7.7,0-14.2,5-16.3,12.2
		c-0.6-0.1-1.2-0.2-1.7-0.2c-6.1,0-11,4.9-11,11s4.9,11,11,11h36c6.1,0,11-4.9,11-11S186.1-758,180-758z"/>
	<path class="st1" d="M294-758c-0.5,0-1.1,0.1-1.7,0.2c-2.1-7.2-8.6-12.2-16.3-12.2c-7.7,0-14.2,5-16.3,12.2
		c-0.6-0.1-1.2-0.2-1.7-0.2c-6.1,0-11,4.9-11,11s4.9,11,11,11h11.3l-3.9,5.9c-0.4,0.6-0.4,1.4-0.1,2.1c0.3,0.7,1,1.1,1.8,1.1h2.3
		l-3.9,5.9c-0.6,0.9-0.4,2.2,0.6,2.8c0.3,0.2,0.7,0.3,1.1,0.3c0.6,0,1.3-0.3,1.7-0.9l6-9c0.4-0.6,0.4-1.4,0.1-2.1
		c-0.3-0.7-1-1.1-1.8-1.1h-2.3l3.3-5h5.2l-1.9,2.9c-0.4,0.6-0.4,1.4-0.1,2.1c0.3,0.7,1,1.1,1.8,1.1h2.3l-1.9,2.9
		c-0.6,0.9-0.4,2.2,0.6,2.8c0.3,0.2,0.7,0.3,1.1,0.3c0.6,0,1.3-0.3,1.7-0.9l4-6c0.4-0.6,0.4-1.4,0.1-2.1c-0.3-0.7-1-1.1-1.8-1.1
		h-2.3l1.3-2h9.9c6.1,0,11-4.9,11-11S300.1-758,294-758z M294-740h-36c-3.9,0-7-3.1-7-7s3.1-7,7-7c0.3,0,0.7,0.1,1.2,0.2v1.8
		c0,1.1,0.9,2,2,2s2-0.9,2-2v-3.2c1.1-6.3,6.4-10.8,12.8-10.8c6.4,0,11.7,4.5,12.8,10.8v3.2c0,1.1,0.9,2,2,2c1.1,0,2-0.9,2-2v-1.8
		c0.5-0.1,0.9-0.2,1.2-0.2c3.9,0,7,3.1,7,7S297.9-740,294-740z"/>
	<path class="st4" d="M294-758c-0.5,0-1.1,0.1-1.7,0.2c-2.1-7.2-8.6-12.2-16.3-12.2c-7.7,0-14.2,5-16.3,12.2
		c-0.6-0.1-1.2-0.2-1.7-0.2c-6.1,0-11,4.9-11,11s4.9,11,11,11h36c6.1,0,11-4.9,11-11S300.1-758,294-758z"/>
	<g>
		<path class="st2" d="M-70.3-614.3c-0.6-1-1.8-1.3-2.7-0.7c-1,0.6-1.3,1.8-0.7,2.7l1,1.7c0.4,0.6,1,1,1.7,1c0.3,0,0.7-0.1,1-0.3
			c1-0.6,1.3-1.8,0.7-2.7L-70.3-614.3z"/>
		<path class="st2" d="M-75-615.1c-1-0.6-2.2-0.2-2.7,0.7l-1,1.7c-0.6,1-0.2,2.2,0.7,2.7c0.3,0.2,0.7,0.3,1,0.3c0.7,0,1.4-0.4,1.7-1
			l1-1.7C-73.7-613.3-74-614.5-75-615.1z"/>
		<path class="st2" d="M-76-616.8c0-1.1-0.9-2-2-2h-2c-1.1,0-2,0.9-2,2c0,1.1,0.9,2,2,2h2C-76.9-614.8-76-615.7-76-616.8z"/>
		<path class="st2" d="M-68-618.8h-2c-1.1,0-2,0.9-2,2c0,1.1,0.9,2,2,2h2c1.1,0,2-0.9,2-2C-66-617.9-66.9-618.8-68-618.8z"/>
		<path class="st2" d="M-48-644c-0.5,0-1.1,0.1-1.7,0.2C-51.8-651-58.3-656-66-656c-7.7,0-14.2,5-16.3,12.2
			c-0.6-0.1-1.2-0.2-1.7-0.2c-6.1,0-11,4.9-11,11s4.9,11,11,11h5c0,0.3,0.1,0.7,0.3,1l1,1.7c0.4,0.6,1,1,1.7,1c0.3,0,0.7-0.1,1-0.3
			c1-0.6,1.3-1.8,0.7-2.7l-0.4-0.7h1.4l-0.4,0.7c-0.6,1-0.2,2.2,0.7,2.7c0.3,0.2,0.7,0.3,1,0.3c0.7,0,1.4-0.4,1.7-1l1-1.7
			c0.2-0.3,0.3-0.7,0.3-1h21c6.1,0,11-4.9,11-11S-41.9-644-48-644z"/>
		<path class="st2" d="M-53.3-609.3c-0.6-1-1.8-1.3-2.7-0.7c-1,0.6-1.3,1.8-0.7,2.7l1,1.7c0.4,0.6,1,1,1.7,1c0.3,0,0.7-0.1,1-0.3
			c1-0.6,1.3-1.8,0.7-2.7L-53.3-609.3z"/>
		<path class="st2" d="M-58.3-618c-0.6-1-1.8-1.3-2.7-0.7c-1,0.6-1.3,1.8-0.7,2.7l1,1.7c0.4,0.6,1,1,1.7,1c0.3,0,0.7-0.1,1-0.3
			c1-0.6,1.3-1.8,0.7-2.7L-58.3-618z"/>
		<path class="st2" d="M-56-613.5c0.3,0.2,0.7,0.3,1,0.3c0.7,0,1.4-0.4,1.7-1l1-1.7c0.6-1,0.2-2.2-0.7-2.7c-1-0.6-2.2-0.2-2.7,0.7
			l-1,1.7C-57.3-615.3-57-614.1-56-613.5z"/>
		<path class="st2" d="M-58-610.1c-1-0.6-2.2-0.2-2.7,0.7l-1,1.7c-0.6,1-0.2,2.2,0.7,2.7c0.3,0.2,0.7,0.3,1,0.3c0.7,0,1.4-0.4,1.7-1
			l1-1.7C-56.7-608.3-57-609.5-58-610.1z"/>
		<path class="st2" d="M-59-611.8c0-1.1-0.9-2-2-2h-2c-1.1,0-2,0.9-2,2c0,1.1,0.9,2,2,2h2C-59.9-609.8-59-610.7-59-611.8z"/>
		<path class="st2" d="M-51-613.8h-2c-1.1,0-2,0.9-2,2c0,1.1,0.9,2,2,2h2c1.1,0,2-0.9,2-2C-49-612.9-49.9-613.8-51-613.8z"/>
	</g>
	<g>
		<path class="st2" d="M43.7-614.3c-0.6-1-1.8-1.3-2.7-0.7c-1,0.6-1.3,1.8-0.7,2.7l1,1.7c0.4,0.6,1,1,1.7,1c0.3,0,0.7-0.1,1-0.3
			c1-0.6,1.3-1.8,0.7-2.7L43.7-614.3z"/>
		<path class="st2" d="M39-615.1c-1-0.6-2.2-0.2-2.7,0.7l-1,1.7c-0.6,1-0.2,2.2,0.7,2.7c0.3,0.2,0.7,0.3,1,0.3c0.7,0,1.4-0.4,1.7-1
			l1-1.7C40.3-613.3,40-614.5,39-615.1z"/>
		<path class="st2" d="M38-616.8c0-1.1-0.9-2-2-2h-2c-1.1,0-2,0.9-2,2c0,1.1,0.9,2,2,2h2C37.1-614.8,38-615.7,38-616.8z"/>
		<path class="st2" d="M46-618.8h-2c-1.1,0-2,0.9-2,2c0,1.1,0.9,2,2,2h2c1.1,0,2-0.9,2-2C48-617.9,47.1-618.8,46-618.8z"/>
		<path class="st2" d="M66-644c-0.5,0-1.1,0.1-1.7,0.2C62.2-651,55.7-656,48-656c-7.7,0-14.2,5-16.3,12.2c-0.6-0.1-1.2-0.2-1.7-0.2
			c-6.1,0-11,4.9-11,11s4.9,11,11,11h5c0,0.3,0.1,0.7,0.3,1l1,1.7c0.4,0.6,1,1,1.7,1c0.3,0,0.7-0.1,1-0.3c1-0.6,1.3-1.8,0.7-2.7
			l-0.4-0.7h1.4l-0.4,0.7c-0.6,1-0.2,2.2,0.7,2.7c0.3,0.2,0.7,0.3,1,0.3c0.7,0,1.4-0.4,1.7-1l1-1.7c0.2-0.3,0.3-0.7,0.3-1h21
			c6.1,0,11-4.9,11-11S72.1-644,66-644z"/>
		<path class="st2" d="M60.7-609.3c-0.6-1-1.8-1.3-2.7-0.7c-1,0.6-1.3,1.8-0.7,2.7l1,1.7c0.4,0.6,1,1,1.7,1c0.3,0,0.7-0.1,1-0.3
			c1-0.6,1.3-1.8,0.7-2.7L60.7-609.3z"/>
		<path class="st2" d="M55.7-618c-0.6-1-1.8-1.3-2.7-0.7c-1,0.6-1.3,1.8-0.7,2.7l1,1.7c0.4,0.6,1,1,1.7,1c0.3,0,0.7-0.1,1-0.3
			c1-0.6,1.3-1.8,0.7-2.7L55.7-618z"/>
		<path class="st2" d="M58-613.5c0.3,0.2,0.7,0.3,1,0.3c0.7,0,1.4-0.4,1.7-1l1-1.7c0.6-1,0.2-2.2-0.7-2.7c-1-0.6-2.2-0.2-2.7,0.7
			l-1,1.7C56.7-615.3,57-614.1,58-613.5z"/>
		<path class="st2" d="M56-610.1c-1-0.6-2.2-0.2-2.7,0.7l-1,1.7c-0.6,1-0.2,2.2,0.7,2.7c0.3,0.2,0.7,0.3,1,0.3c0.7,0,1.4-0.4,1.7-1
			l1-1.7C57.3-608.3,57-609.5,56-610.1z"/>
		<path class="st2" d="M55-611.8c0-1.1-0.9-2-2-2h-2c-1.1,0-2,0.9-2,2c0,1.1,0.9,2,2,2h2C54.1-609.8,55-610.7,55-611.8z"/>
		<path class="st2" d="M63-613.8h-2c-1.1,0-2,0.9-2,2c0,1.1,0.9,2,2,2h2c1.1,0,2-0.9,2-2C65-612.9,64.1-613.8,63-613.8z"/>
	</g>
	<g>
		<path class="st1" d="M166.6-619.4l-2.6,2.6v-5.2c0-1.1-0.9-2-2-2c-1.1,0-2,0.9-2,2v5.2l-2.6-2.6c-0.8-0.8-2-0.8-2.8,0
			c-0.8,0.8-0.8,2,0,2.8l6,6c0.4,0.4,0.9,0.6,1.4,0.6c0.5,0,1-0.2,1.4-0.6l6-6c0.8-0.8,0.8-2,0-2.8
			C168.6-620.2,167.4-620.2,166.6-619.4z"/>
		<path class="st1" d="M171.9-645.9c-1-1-2-1.8-3.2-2.4c-1.6-0.9-3.4-1.4-5.2-1.6c-0.5,0-0.9-0.1-1.4-0.1c-7.7,0-14,6.3-14,14
			c0,1.5,0.3,3.1,0.7,4.5c0.3,0.9,0.7,1.7,1.1,2.5c0.4,0.6,1,1,1.7,1l0,0h20.8c0.2,0,0.4,0,0.5-0.1c0.5-0.1,0.9-0.5,1.2-0.9
			c0.5-0.8,0.8-1.6,1.1-2.5c0.5-1.4,0.7-3,0.7-4.5c0-2.9-0.9-5.6-2.4-7.8C173.1-644.6,172.5-645.3,171.9-645.9z M162.2-646
			c-0.5,0-1,0-1.4,0.1h0c0.4-0.1,0.8-0.1,1.2-0.1C162.1-646,162.1-646,162.2-646z M152.8-632C152.8-632,152.8-632,152.8-632
			C152.8-632,152.9-632,152.8-632L152.8-632z"/>
	</g>
	<g>
		<path class="st1" d="M277.4-623.4c-0.8-0.8-2-0.8-2.8,0l-6,6c-0.8,0.8-0.8,2,0,2.8c0.8,0.8,2,0.8,2.8,0l2.6-2.6v5.2
			c0,1.1,0.9,2,2,2c1.1,0,2-0.9,2-2v-5.2l2.6,2.6c0.4,0.4,0.9,0.6,1.4,0.6c0.5,0,1-0.2,1.4-0.6c0.8-0.8,0.8-2,0-2.8L277.4-623.4z"/>
		<path class="st1" d="M285.9-645.9c-1-1-2-1.8-3.2-2.4c-1.6-0.9-3.4-1.4-5.2-1.6c-0.5,0-0.9-0.1-1.4-0.1c-7.7,0-14,6.3-14,14
			c0,1.5,0.3,3.1,0.7,4.5c0.3,0.9,0.7,1.7,1.1,2.5c0.4,0.6,1,1,1.7,1l0,0h20.8c0.2,0,0.4,0,0.5-0.1c0.5-0.1,0.9-0.5,1.2-0.9
			c0.5-0.8,0.8-1.6,1.1-2.5c0.5-1.4,0.7-3,0.7-4.5c0-2.9-0.9-5.6-2.4-7.8C287.1-644.6,286.5-645.3,285.9-645.9z M276.2-646
			c-0.5,0-1,0-1.4,0.1h0c0.4-0.1,0.8-0.1,1.2-0.1C276.1-646,276.1-646,276.2-646z M266.8-632C266.8-632,266.8-632,266.8-632
			C266.8-632,266.9-632,266.8-632L266.8-632z"/>
	</g>
	<g>
		<path class="st2" d="M-162-530c-0.5,0-1.1,0.1-1.7,0.2c-2.1-7.2-8.6-12.2-16.3-12.2c-7.7,0-14.2,5-16.3,12.2
			c-0.6-0.1-1.2-0.2-1.7-0.2c-6.1,0-11,4.9-11,11s4.9,11,11,11h5.4l-2.4,9.5c-0.3,1.1,0.4,2.2,1.5,2.4c0.2,0,0.3,0.1,0.5,0.1
			c0.9,0,1.7-0.6,1.9-1.5l2.6-10.5h5.4l-3.9,15.5c-0.3,1.1,0.4,2.2,1.5,2.4c0.2,0,0.3,0.1,0.5,0.1c0.9,0,1.7-0.6,1.9-1.5l4.1-16.5
			h5.4l-2.4,9.5c-0.3,1.1,0.4,2.2,1.5,2.4c0.2,0,0.3,0.1,0.5,0.1c0.9,0,1.7-0.6,1.9-1.5l2.6-10.5h7.4c6.1,0,11-4.9,11-11
			S-155.9-530-162-530z"/>
	</g>
	<path class="st2" d="M-48-530c-0.5,0-1.1,0.1-1.7,0.2C-51.8-537-58.3-542-66-542c-7.7,0-14.2,5-16.3,12.2c-0.6-0.1-1.2-0.2-1.7-0.2
		c-6.1,0-11,4.9-11,11s4.9,11,11,11h5.4l-2.4,9.5c-0.3,1.1,0.4,2.2,1.5,2.4c0.2,0,0.3,0.1,0.5,0.1c0.9,0,1.7-0.6,1.9-1.5l2.6-10.5
		h5.4l-3.9,15.5c-0.3,1.1,0.4,2.2,1.5,2.4c0.2,0,0.3,0.1,0.5,0.1c0.9,0,1.7-0.6,1.9-1.5l4.1-16.5h5.4l-2.4,9.5
		c-0.3,1.1,0.4,2.2,1.5,2.4c0.2,0,0.3,0.1,0.5,0.1c0.9,0,1.7-0.6,1.9-1.5l2.6-10.5h7.4c6.1,0,11-4.9,11-11S-41.9-530-48-530z"/>
	<path class="st2" d="M66-530c-0.5,0-1.1,0.1-1.7,0.2C62.2-537,55.7-542,48-542c-7.7,0-14.2,5-16.3,12.2c-0.6-0.1-1.2-0.2-1.7-0.2
		c-6.1,0-11,4.9-11,11s4.9,11,11,11h5.4l-2.4,9.5c-0.3,1.1,0.4,2.2,1.5,2.4c0.2,0,0.3,0.1,0.5,0.1c0.9,0,1.7-0.6,1.9-1.5l2.6-10.5
		h5.4l-3.9,15.5c-0.3,1.1,0.4,2.2,1.5,2.4c0.2,0,0.3,0.1,0.5,0.1c0.9,0,1.7-0.6,1.9-1.5l4.1-16.5h5.4l-2.4,9.5
		c-0.3,1.1,0.4,2.2,1.5,2.4c0.2,0,0.3,0.1,0.5,0.1c0.9,0,1.7-0.6,1.9-1.5l2.6-10.5H66c6.1,0,11-4.9,11-11S72.1-530,66-530z"/>
	<g>
		<path class="st2" d="M265.8-533h12c1.1,0,2-0.9,2-2s-0.9-2-2-2h-12c-1.1,0-2,0.9-2,2S264.7-533,265.8-533z"/>
		<path class="st2" d="M253.8-527h24c1.1,0,2-0.9,2-2s-0.9-2-2-2h-24c-1.1,0-2,0.9-2,2S252.7-527,253.8-527z"/>
		<path class="st2" d="M247.8-521h24c1.1,0,2-0.9,2-2s-0.9-2-2-2h-24c-1.1,0-2,0.9-2,2S246.7-521,247.8-521z"/>
		<path class="st2" d="M306.8-517c0-1.1-0.9-2-2-2h-60c-1.1,0-2,0.9-2,2s0.9,2,2,2h60C305.9-515,306.8-515.9,306.8-517z"/>
		<path class="st2" d="M304.8-513h-57c-1.1,0-2,0.9-2,2s0.9,2,2,2h57c1.1,0,2-0.9,2-2S305.9-513,304.8-513z"/>
		<path class="st2" d="M265.8-507l-12,0c-1.1,0-2,0.9-2,2s0.9,2,2,2l12,0c1.1,0,2-0.9,2-2S266.9-507,265.8-507z"/>
		<path class="st2" d="M284.8-527h8c1.1,0,2-0.9,2-2s-0.9-2-2-2h-8c-1.1,0-2,0.9-2,2S283.7-527,284.8-527z"/>
		<path class="st2" d="M275.8-523c0,1.1,0.9,2,2,2h21c1.1,0,2-0.9,2-2s-0.9-2-2-2h-21C276.7-525,275.8-524.1,275.8-523z"/>
		<path class="st2" d="M298.8-507l-27,0c-1.1,0-2,0.9-2,2s0.9,2,2,2l27,0c1.1,0,2-0.9,2-2S299.9-507,298.8-507z"/>
	</g>
	<path class="st4" d="M-48-416c-0.5,0-1.1,0.1-1.7,0.2C-51.8-423-58.3-428-66-428c-7.7,0-14.2,5-16.3,12.2c-0.6-0.1-1.2-0.2-1.7-0.2
		c-6.1,0-11,4.9-11,11s4.9,11,11,11h36c6.1,0,11-4.9,11-11S-41.9-416-48-416z"/>
	<g>
		<path class="st2" d="M21-403c1.1,0,2-0.9,2-2c0-3.9,3.1-7,7-7c0.3,0,0.7,0.1,1.2,0.2v1.8c0,1.1,0.9,2,2,2s2-0.9,2-2v-3.2
			c1.1-6.3,6.4-10.8,12.8-10.8c6.4,0,11.7,4.5,12.8,10.8v3.2c0,1.1,0.9,2,2,2s2-0.9,2-2v-1.8c0.5-0.1,0.9-0.2,1.2-0.2
			c3.9,0,7,3.1,7,7c0,1.1,0.9,2,2,2c1.1,0,2-0.9,2-2c0-6.1-4.9-11-11-11c-0.5,0-1.1,0.1-1.7,0.2C62.2-423,55.7-428,48-428
			c-7.7,0-14.2,5-16.3,12.2c-0.6-0.1-1.2-0.2-1.7-0.2c-6.1,0-11,4.9-11,11C19-403.9,19.9-403,21-403z"/>
		<path class="st2" d="M40-397c0,1.1,0.9,2,2,2h36c1.1,0,2-0.9,2-2s-0.9-2-2-2H42C40.9-399,40-398.1,40-397z"/>
		<path class="st2" d="M48-392c-1.1,0-2,0.9-2,2s0.9,2,2,2h27c1.1,0,2-0.9,2-2s-0.9-2-2-2H48z"/>
		<path class="st2" d="M78-385H54c-1.1,0-2,0.9-2,2s0.9,2,2,2h24c1.1,0,2-0.9,2-2S79.1-385,78-385z"/>
		<path class="st2" d="M18-395h18c1.1,0,2-0.9,2-2s-0.9-2-2-2H18c-1.1,0-2,0.9-2,2S16.9-395,18-395z"/>
		<path class="st2" d="M21-392c-1.1,0-2,0.9-2,2s0.9,2,2,2h21c1.1,0,2-0.9,2-2s-0.9-2-2-2H21z"/>
		<path class="st2" d="M48-385H18c-1.1,0-2,0.9-2,2s0.9,2,2,2h30c1.1,0,2-0.9,2-2S49.1-385,48-385z"/>
	</g>
	<path class="st4" d="M66-416c-0.5,0-1.1,0.1-1.7,0.2C62.2-423,55.7-428,48-428c-7.7,0-14.2,5-16.3,12.2c-0.6-0.1-1.2-0.2-1.7-0.2
		c-6.1,0-11,4.9-11,11s4.9,11,11,11h36c6.1,0,11-4.9,11-11S72.1-416,66-416z"/>
	<g>
		<path class="st2" d="M135-403c1.1,0,2-0.9,2-2c0-3.9,3.1-7,7-7c0.3,0,0.7,0.1,1.2,0.2v1.8c0,1.1,0.9,2,2,2c1.1,0,2-0.9,2-2v-3.2
			c1.1-6.3,6.4-10.8,12.8-10.8c6.4,0,11.7,4.5,12.8,10.8v3.2c0,1.1,0.9,2,2,2c1.1,0,2-0.9,2-2v-1.8c0.5-0.1,0.9-0.2,1.2-0.2
			c3.9,0,7,3.1,7,7c0,1.1,0.9,2,2,2c1.1,0,2-0.9,2-2c0-6.1-4.9-11-11-11c-0.5,0-1.1,0.1-1.7,0.2c-2.1-7.2-8.6-12.2-16.3-12.2
			c-7.7,0-14.2,5-16.3,12.2c-0.6-0.1-1.2-0.2-1.7-0.2c-6.1,0-11,4.9-11,11C133-403.9,133.9-403,135-403z"/>
		<path class="st2" d="M154-397c0,1.1,0.9,2,2,2h36c1.1,0,2-0.9,2-2s-0.9-2-2-2h-36C154.9-399,154-398.1,154-397z"/>
		<path class="st2" d="M162-392c-1.1,0-2,0.9-2,2s0.9,2,2,2h27c1.1,0,2-0.9,2-2s-0.9-2-2-2H162z"/>
		<path class="st2" d="M192-385h-24c-1.1,0-2,0.9-2,2s0.9,2,2,2h24c1.1,0,2-0.9,2-2S193.1-385,192-385z"/>
		<path class="st2" d="M132-395h18c1.1,0,2-0.9,2-2s-0.9-2-2-2h-18c-1.1,0-2,0.9-2,2S130.9-395,132-395z"/>
		<path class="st2" d="M135-392c-1.1,0-2,0.9-2,2s0.9,2,2,2h21c1.1,0,2-0.9,2-2s-0.9-2-2-2H135z"/>
		<path class="st2" d="M162-385h-30c-1.1,0-2,0.9-2,2s0.9,2,2,2h30c1.1,0,2-0.9,2-2S163.1-385,162-385z"/>
	</g>
	<path class="st4" d="M180-416c-0.5,0-1.1,0.1-1.7,0.2c-2.1-7.2-8.6-12.2-16.3-12.2c-7.7,0-14.2,5-16.3,12.2
		c-0.6-0.1-1.2-0.2-1.7-0.2c-6.1,0-11,4.9-11,11s4.9,11,11,11h36c6.1,0,11-4.9,11-11S186.1-416,180-416z"/>
	<path class="st4" d="M294-422c-0.5,0-1.1,0.1-1.7,0.2c-2.1-7.2-8.6-12.2-16.3-12.2c-7.7,0-14.2,5-16.3,12.2
		c-0.6-0.1-1.2-0.2-1.7-0.2c-6.1,0-11,4.9-11,11s4.9,11,11,11h36c6.1,0,11-4.9,11-11S300.1-422,294-422z"/>
	<path class="st4" d="M180-986c-0.5,0-1.1,0.1-1.7,0.2c-2.1-7.2-8.6-12.2-16.3-12.2c-7.7,0-14.2,5-16.3,12.2
		c-0.6-0.1-1.2-0.2-1.7-0.2c-6.1,0-11,4.9-11,11s4.9,11,11,11h36c6.1,0,11-4.9,11-11S186.1-986,180-986z"/>
	<path class="st4" d="M294-986c-0.5,0-1.1,0.1-1.7,0.2c-2.1-7.2-8.6-12.2-16.3-12.2c-7.7,0-14.2,5-16.3,12.2
		c-0.6-0.1-1.2-0.2-1.7-0.2c-6.1,0-11,4.9-11,11s4.9,11,11,11h36c6.1,0,11-4.9,11-11S300.1-986,294-986z"/>
	<path class="st4" d="M-162-872c-0.5,0-1.1,0.1-1.7,0.2c-2.1-7.2-8.6-12.2-16.3-12.2c-7.7,0-14.2,5-16.3,12.2
		c-0.6-0.1-1.2-0.2-1.7-0.2c-6.1,0-11,4.9-11,11s4.9,11,11,11h36c6.1,0,11-4.9,11-11S-155.9-872-162-872z"/>
	<g>
		<g>
			<path class="st2" d="M-66-848c-1.1,0-2,0.9-2,2v18c0,1.1,0.9,2,2,2s2-0.9,2-2v-18C-64-847.1-64.9-848-66-848z"/>
			<path class="st2" d="M-38.3-866.2c-0.3-0.6-0.7-1.2-1.2-1.8c-1.3-1.6-3.2-2.9-5.2-3.5c-1-0.3-2.1-0.5-3.3-0.5
				c-0.5,0-1.1,0.1-1.7,0.2C-51.8-879-58.3-884-66-884c-7.7,0-14.2,5-16.3,12.2c-0.6-0.1-1.2-0.2-1.7-0.2c-1.1,0-2.2,0.2-3.3,0.5
				c-2.1,0.6-3.9,1.9-5.2,3.5c-0.4,0.5-0.8,1.1-1.2,1.8c-0.8,1.6-1.3,3.3-1.3,5.2s0.5,3.7,1.3,5.2c0.3,0.6,0.7,1.2,1.2,1.8
				c1.3,1.6,3.2,2.9,5.2,3.5c1,0.3,2.1,0.5,3.3,0.5h7v16c0,1.1,0.9,2,2,2s2-0.9,2-2v-16h14v16c0,1.1,0.9,2,2,2c1.1,0,2-0.9,2-2v-16
				h7c1.1,0,2.2-0.2,3.3-0.5c2.1-0.6,3.9-1.9,5.2-3.5c0.4-0.5,0.8-1.1,1.2-1.8c0.8-1.6,1.3-3.3,1.3-5.2S-37.5-864.7-38.3-866.2z"/>
		</g>
		<path class="st4" d="M-48-872c-0.5,0-1.1,0.1-1.7,0.2C-51.8-879-58.3-884-66-884c-7.7,0-14.2,5-16.3,12.2
			c-0.6-0.1-1.2-0.2-1.7-0.2c-6.1,0-11,4.9-11,11s4.9,11,11,11h36c6.1,0,11-4.9,11-11S-41.9-872-48-872z"/>
	</g>
	<path class="st4" d="M66-872c-0.5,0-1.1,0.1-1.7,0.2C62.2-879,55.7-884,48-884c-7.7,0-14.2,5-16.3,12.2c-0.6-0.1-1.2-0.2-1.7-0.2
		c-6.1,0-11,4.9-11,11s4.9,11,11,11h36c6.1,0,11-4.9,11-11S72.1-872,66-872z"/>
	<path class="st4" d="M180-872c-0.5,0-1.1,0.1-1.7,0.2c-2.1-7.2-8.6-12.2-16.3-12.2c-7.7,0-14.2,5-16.3,12.2
		c-0.6-0.1-1.2-0.2-1.7-0.2c-6.1,0-11,4.9-11,11s4.9,11,11,11h36c6.1,0,11-4.9,11-11S186.1-872,180-872z"/>
	<g>
		<g>
			<circle class="st2" cx="267" cy="-846" r="2"/>
			<circle class="st2" cx="285" cy="-846" r="2"/>
			<circle class="st2" cx="276" cy="-840" r="2"/>
			<circle class="st2" cx="285" cy="-834" r="2"/>
			<circle class="st2" cx="276" cy="-828" r="2"/>
			<circle class="st2" cx="267" cy="-834" r="2"/>
			<path class="st2" d="M303.7-866.2c-0.3-0.6-0.7-1.2-1.2-1.8c-1.3-1.6-3.2-2.9-5.2-3.5c-1-0.3-2.1-0.5-3.3-0.5
				c-0.3,0-0.5,0-0.8,0.1c-0.3,0-0.6,0.1-0.9,0.1c-0.9-3.1-2.7-5.9-5-7.9c-0.3-0.3-0.7-0.6-1-0.8c-0.7-0.5-1.5-1-2.3-1.4
				c-2.4-1.3-5.1-2-8-2c-7.7,0-14.2,5-16.3,12.2c-0.1,0-0.1,0-0.2,0c-0.5-0.1-1-0.2-1.5-0.2c-1.1,0-2.2,0.2-3.3,0.5
				c-2.1,0.6-3.9,1.9-5.2,3.5c-0.4,0.5-0.8,1.1-1.2,1.8c-0.8,1.6-1.3,3.3-1.3,5.2s0.5,3.7,1.3,5.2c0.3,0.6,0.7,1.2,1.2,1.8
				c1.3,1.6,3.2,2.9,5.2,3.5c1,0.3,2.1,0.5,3.3,0.5h36c1.1,0,2.2-0.2,3.3-0.5c2.1-0.6,3.9-1.9,5.2-3.5c0.4-0.5,0.8-1.1,1.2-1.8
				c0.8-1.6,1.3-3.3,1.3-5.2S304.5-864.7,303.7-866.2z"/>
		</g>
		<path class="st4" d="M294-872c-0.5,0-1.1,0.1-1.7,0.2c-2.1-7.2-8.6-12.2-16.3-12.2c-7.7,0-14.2,5-16.3,12.2
			c-0.6-0.1-1.2-0.2-1.7-0.2c-6.1,0-11,4.9-11,11s4.9,11,11,11h36c6.1,0,11-4.9,11-11S300.1-872,294-872z"/>
	</g>
	<path class="st4" d="M-162-758c-0.5,0-1.1,0.1-1.7,0.2c-2.1-7.2-8.6-12.2-16.3-12.2c-7.7,0-14.2,5-16.3,12.2
		c-0.6-0.1-1.2-0.2-1.7-0.2c-6.1,0-11,4.9-11,11s4.9,11,11,11h36c6.1,0,11-4.9,11-11S-155.9-758-162-758z"/>
	<path class="st4" d="M-48-758c-0.5,0-1.1,0.1-1.7,0.2C-51.8-765-58.3-770-66-770c-7.7,0-14.2,5-16.3,12.2c-0.6-0.1-1.2-0.2-1.7-0.2
		c-6.1,0-11,4.9-11,11s4.9,11,11,11h36c6.1,0,11-4.9,11-11S-41.9-758-48-758z"/>
	<g>
		<g>
			<path class="st2" d="M-183.3-613.3c-0.6-1-1.8-1.3-2.7-0.7c-1,0.6-1.3,1.8-0.7,2.7l1,1.7c0.4,0.6,1,1,1.7,1c0.3,0,0.7-0.1,1-0.3
				c1-0.6,1.3-1.8,0.7-2.7L-183.3-613.3z"/>
			<path class="st2" d="M-188-614.1c-1-0.6-2.2-0.2-2.7,0.7l-1,1.7c-0.6,1-0.2,2.2,0.7,2.7c0.3,0.2,0.7,0.3,1,0.3
				c0.7,0,1.4-0.4,1.7-1l1-1.7C-186.7-612.3-187-613.5-188-614.1z"/>
			<path class="st2" d="M-189-615.8c0-1.1-0.9-2-2-2h-2c-1.1,0-2,0.9-2,2c0,1.1,0.9,2,2,2h2C-189.9-613.8-189-614.7-189-615.8z"/>
			<path class="st2" d="M-181-617.8h-2c-1.1,0-2,0.9-2,2c0,1.1,0.9,2,2,2h2c1.1,0,2-0.9,2-2C-179-616.9-179.9-617.8-181-617.8z"/>
			<path class="st2" d="M-161-643c-0.5,0-1.1,0.1-1.7,0.2c-2.1-7.2-8.6-12.2-16.3-12.2c-7.7,0-14.2,5-16.3,12.2
				c-0.6-0.1-1.2-0.2-1.7-0.2c-6.1,0-11,4.9-11,11s4.9,11,11,11h5c0,0.3,0.1,0.7,0.3,1l1,1.7c0.4,0.6,1,1,1.7,1c0.3,0,0.7-0.1,1-0.3
				c1-0.6,1.3-1.8,0.7-2.7l-0.4-0.7h1.4l-0.4,0.7c-0.6,1-0.2,2.2,0.7,2.7c0.3,0.2,0.7,0.3,1,0.3c0.7,0,1.4-0.4,1.7-1l1-1.7
				c0.2-0.3,0.3-0.7,0.3-1h21c6.1,0,11-4.9,11-11S-154.9-643-161-643z"/>
			<path class="st2" d="M-166.3-608.3c-0.6-1-1.8-1.3-2.7-0.7c-1,0.6-1.3,1.8-0.7,2.7l1,1.7c0.4,0.6,1,1,1.7,1c0.3,0,0.7-0.1,1-0.3
				c1-0.6,1.3-1.8,0.7-2.7L-166.3-608.3z"/>
			<path class="st2" d="M-171.3-617c-0.6-1-1.8-1.3-2.7-0.7c-1,0.6-1.3,1.8-0.7,2.7l1,1.7c0.4,0.6,1,1,1.7,1c0.3,0,0.7-0.1,1-0.3
				c1-0.6,1.3-1.8,0.7-2.7L-171.3-617z"/>
			<path class="st2" d="M-169-612.5c0.3,0.2,0.7,0.3,1,0.3c0.7,0,1.4-0.4,1.7-1l1-1.7c0.6-1,0.2-2.2-0.7-2.7c-1-0.6-2.2-0.2-2.7,0.7
				l-1,1.7C-170.3-614.3-170-613.1-169-612.5z"/>
			<path class="st2" d="M-171-609.1c-1-0.6-2.2-0.2-2.7,0.7l-1,1.7c-0.6,1-0.2,2.2,0.7,2.7c0.3,0.2,0.7,0.3,1,0.3
				c0.7,0,1.4-0.4,1.7-1l1-1.7C-169.7-607.3-170-608.5-171-609.1z"/>
			<path class="st2" d="M-172-610.8c0-1.1-0.9-2-2-2h-2c-1.1,0-2,0.9-2,2c0,1.1,0.9,2,2,2h2C-172.9-608.8-172-609.7-172-610.8z"/>
			<path class="st2" d="M-164-612.8h-2c-1.1,0-2,0.9-2,2c0,1.1,0.9,2,2,2h2c1.1,0,2-0.9,2-2C-162-611.9-162.9-612.8-164-612.8z"/>
		</g>
		<path class="st4" d="M-161-643c-0.5,0-1.1,0.1-1.7,0.2c-2.1-7.2-8.6-12.2-16.3-12.2c-7.7,0-14.2,5-16.3,12.2
			c-0.6-0.1-1.2-0.2-1.7-0.2c-6.1,0-11,4.9-11,11s4.9,11,11,11h36c6.1,0,11-4.9,11-11S-154.9-643-161-643z"/>
	</g>
	<path class="st4" d="M-48-644c-0.5,0-1.1,0.1-1.7,0.2C-51.8-651-58.3-656-66-656c-7.7,0-14.2,5-16.3,12.2c-0.6-0.1-1.2-0.2-1.7-0.2
		c-6.1,0-11,4.9-11,11s4.9,11,11,11h36c6.1,0,11-4.9,11-11S-41.9-644-48-644z"/>
	<path class="st4" d="M66-644c-0.5,0-1.1,0.1-1.7,0.2C62.2-651,55.7-656,48-656c-7.7,0-14.2,5-16.3,12.2c-0.6-0.1-1.2-0.2-1.7-0.2
		c-6.1,0-11,4.9-11,11s4.9,11,11,11h36c6.1,0,11-4.9,11-11S72.1-644,66-644z"/>
	<path class="st4" d="M-162-530c-0.5,0-1.1,0.1-1.7,0.2c-2.1-7.2-8.6-12.2-16.3-12.2c-7.7,0-14.2,5-16.3,12.2
		c-0.6-0.1-1.2-0.2-1.7-0.2c-6.1,0-11,4.9-11,11s4.9,11,11,11h36c6.1,0,11-4.9,11-11S-155.9-530-162-530z"/>
	<path class="st4" d="M-48-530c-0.5,0-1.1,0.1-1.7,0.2C-51.8-537-58.3-542-66-542c-7.7,0-14.2,5-16.3,12.2c-0.6-0.1-1.2-0.2-1.7-0.2
		c-6.1,0-11,4.9-11,11s4.9,11,11,11h36c6.1,0,11-4.9,11-11S-41.9-530-48-530z"/>
	<path class="st4" d="M66-530c-0.5,0-1.1,0.1-1.7,0.2C62.2-537,55.7-542,48-542c-7.7,0-14.2,5-16.3,12.2c-0.6-0.1-1.2-0.2-1.7-0.2
		c-6.1,0-11,4.9-11,11s4.9,11,11,11h36c6.1,0,11-4.9,11-11S72.1-530,66-530z"/>
	<path class="st4" d="M-162-302c-0.5,0-1.1,0.1-1.7,0.2c-2.1-7.2-8.6-12.2-16.3-12.2c-7.7,0-14.2,5-16.3,12.2
		c-0.6-0.1-1.2-0.2-1.7-0.2c-6.1,0-11,4.9-11,11s4.9,11,11,11h36c6.1,0,11-4.9,11-11S-155.9-302-162-302z"/>
	<g>
		<g>
			<path class="st2" d="M-178-162v-12c0-1.1-0.9-2-2-2s-2,0.9-2,2v12c0,1.1,0.9,2,2,2S-178-160.9-178-162z"/>
			<path class="st2" d="M-187-156v-12c0-1.1-0.9-2-2-2c-1.1,0-2,0.9-2,2v12c0,1.1,0.9,2,2,2C-187.9-154-187-154.9-187-156z"/>
			<path class="st2" d="M-169-156v-12c0-1.1-0.9-2-2-2c-1.1,0-2,0.9-2,2v12c0,1.1,0.9,2,2,2C-169.9-154-169-154.9-169-156z"/>
			<path class="st2" d="M-188-150h-2c-1.1,0-2,0.9-2,2v2c0,1.1,0.9,2,2,2h2c1.1,0,2-0.9,2-2v-2C-186-149.1-186.9-150-188-150z"/>
			<path class="st2" d="M-179-156h-2c-1.1,0-2,0.9-2,2v2c0,1.1,0.9,2,2,2h2c1.1,0,2-0.9,2-2v-2C-177-155.1-177.9-156-179-156z"/>
			<path class="st2" d="M-170-150h-2c-1.1,0-2,0.9-2,2v2c0,1.1,0.9,2,2,2h2c1.1,0,2-0.9,2-2v-2C-168-149.1-168.9-150-170-150z"/>
		</g>
		<path class="st4" d="M-162-188c-0.5,0-1.1,0.1-1.7,0.2c-2.1-7.2-8.6-12.2-16.3-12.2c-7.7,0-14.2,5-16.3,12.2
			c-0.6-0.1-1.2-0.2-1.7-0.2c-6.1,0-11,4.9-11,11s4.9,11,11,11h36c6.1,0,11-4.9,11-11S-155.9-188-162-188z"/>
	</g>
	<g>
		<g>
			<path class="st2" d="M159.5-174v18c0,1.1,0.9,2,2,2c1.1,0,2-0.9,2-2v-18c0-1.1-0.9-2-2-2C160.4-176,159.5-175.1,159.5-174z"/>
			<path class="st2" d="M136.5-155h-2c-1.1,0-2,0.9-2,2v2c0,1.1,0.9,2,2,2h2c1.1,0,2-0.9,2-2v-2C138.5-154.1,137.6-155,136.5-155z"
				/>
			<path class="st2" d="M162.5-150h-2c-1.1,0-2,0.9-2,2v2c0,1.1,0.9,2,2,2h2c1.1,0,2-0.9,2-2v-2C164.5-149.1,163.6-150,162.5-150z"
				/>
			<path class="st2" d="M189.5-158h-2c-1.1,0-2,0.9-2,2v2c0,1.1,0.9,2,2,2h2c1.1,0,2-0.9,2-2v-2C191.5-157.1,190.6-158,189.5-158z"
				/>
			<path class="st2" d="M152.5-170c-1.1,0-2,0.9-2,2v15.1c-1.2-0.7-2.5-1.1-4-1.1h-2c-1.1,0-2,0.9-2,2c0,1.1,0.9,2,2,2h2
				c2.2,0,4,1.8,4,4c0,1.1,0.9,2,2,2c1.1,0,2-0.9,2-2v-22C154.5-169.1,153.6-170,152.5-170z"/>
			<path class="st2" d="M179.5-157c-2.7,0-5.1,0.9-7,2.5V-168c0-1.1-0.9-2-2-2c-1.1,0-2,0.9-2,2v22c0,0,0,0,0,0c0,1.1,0.9,2,2,2
				c1.1,0,2-0.9,2-2v0c0-3.9,3.1-7,7-7c1.1,0,2-0.9,2-2C181.5-156.1,180.6-157,179.5-157z"/>
		</g>
		<path class="st4" d="M180-188c-0.5,0-1.1,0.1-1.7,0.2c-2.1-7.2-8.6-12.2-16.3-12.2c-7.7,0-14.2,5-16.3,12.2
			c-0.6-0.1-1.2-0.2-1.7-0.2c-6.1,0-11,4.9-11,11s4.9,11,11,11h36c6.1,0,11-4.9,11-11S186.1-188,180-188z"/>
	</g>
	<path class="st4" d="M180-302c-0.5,0-1.1,0.1-1.7,0.2c-2.1-7.2-8.6-12.2-16.3-12.2c-7.7,0-14.2,5-16.3,12.2
		c-0.6-0.1-1.2-0.2-1.7-0.2c-6.1,0-11,4.9-11,11s4.9,11,11,11h36c6.1,0,11-4.9,11-11S186.1-302,180-302z"/>
	<path class="st2" d="M-77.6-278.2c-0.8,1.1-3.4,4.7-3.4,7.2c0,2.9,2.1,5,5,5c2.9,0,5-2.1,5-5c0-2.5-2.6-6.1-3.4-7.2
		C-75.2-279.2-76.8-279.2-77.6-278.2z"/>
	<path class="st2" d="M-59.6-278.2c-0.8,1.1-3.4,4.7-3.4,7.2c0,2.9,2.1,5,5,5c2.9,0,5-2.1,5-5c0-2.5-2.6-6.1-3.4-7.2
		C-57.2-279.2-58.8-279.2-59.6-278.2z"/>
	<path class="st2" d="M-68.6-267.2c-0.8,1.1-3.4,4.7-3.4,7.2c0,2.9,2.1,5,5,5c2.9,0,5-2.1,5-5c0-2.5-2.6-6.1-3.4-7.2
		C-66.2-268.2-67.8-268.2-68.6-267.2z"/>
	<path class="st4" d="M-48-302c-0.5,0-1.1,0.1-1.7,0.2C-51.8-309-58.3-314-66-314c-7.7,0-14.2,5-16.3,12.2c-0.6-0.1-1.2-0.2-1.7-0.2
		c-6.1,0-11,4.9-11,11s4.9,11,11,11h36c6.1,0,11-4.9,11-11S-41.9-302-48-302z"/>
	<path class="st2" d="M-191.6-278.2c-0.8,1.1-3.4,4.7-3.4,7.2c0,2.9,2.1,5,5,5s5-2.1,5-5c0-2.5-2.6-6.1-3.4-7.2
		C-189.2-279.3-190.8-279.3-191.6-278.2z"/>
	<path class="st2" d="M-173.6-278.2c-0.8,1.1-3.4,4.7-3.4,7.2c0,2.9,2.1,5,5,5s5-2.1,5-5c0-2.5-2.6-6.1-3.4-7.2
		C-171.2-279.3-172.8-279.3-173.6-278.2z"/>
	<path class="st2" d="M-182.6-267.2c-0.8,1.1-3.4,4.7-3.4,7.2c0,2.9,2.1,5,5,5s5-2.1,5-5c0-2.5-2.6-6.1-3.4-7.2
		C-180.2-268.3-181.8-268.3-182.6-267.2z"/>
	<path class="st2" d="M50.7-278.4c-0.7-0.8-2.1-0.8-2.8,0c-0.6,0.7-5.9,7-5.9,12.1c0,1.9,0.6,3.6,1.8,5c0.9,1.1,2.6,2.3,5.5,2.3
		c4.8,0,7.3-3.7,7.3-7.3C56.5-271.4,51.3-277.7,50.7-278.4z M49.3-261.7C49.3-261.7,49.3-261.7,49.3-261.7l0,0.9L49.3-261.7z"/>
	<path class="st4" d="M66-302c-0.5,0-1.1,0.1-1.7,0.2C62.2-309,55.7-314,48-314c-7.7,0-14.2,5-16.3,12.2c-0.6-0.1-1.2-0.2-1.7-0.2
		c-6.1,0-11,4.9-11,11s4.9,11,11,11h36c6.1,0,11-4.9,11-11S72.1-302,66-302z"/>
	<path class="st2" d="M165.1-278.4c-0.7-0.8-2.1-0.8-2.8,0c-0.6,0.7-5.9,7-5.9,12.1c0,1.9,0.6,3.6,1.8,5c0.9,1.1,2.6,2.3,5.5,2.3
		c4.8,0,7.3-3.7,7.3-7.3C171-271.3,165.7-277.7,165.1-278.4z M163.7-261.7L163.7-261.7l0,0.9L163.7-261.7z"/>
	<path class="st4" d="M66-188c-0.5,0-1.1,0.1-1.7,0.2C62.2-195,55.7-200,48-200c-7.7,0-14.2,5-16.3,12.2c-0.6-0.1-1.2-0.2-1.7-0.2
		c-6.1,0-11,4.9-11,11s4.9,11,11,11h36c6.1,0,11-4.9,11-11S72.1-188,66-188z"/>
	<path class="st4" d="M-48-188c-0.5,0-1.1,0.1-1.7,0.2C-51.8-195-58.3-200-66-200c-7.7,0-14.2,5-16.3,12.2c-0.6-0.1-1.2-0.2-1.7-0.2
		c-6.1,0-11,4.9-11,11s4.9,11,11,11h36c6.1,0,11-4.9,11-11S-41.9-188-48-188z"/>
	<path class="st4" d="M294-188c-0.5,0-1.1,0.1-1.7,0.2c-2.1-7.2-8.6-12.2-16.3-12.2c-7.7,0-14.2,5-16.3,12.2
		c-0.6-0.1-1.2-0.2-1.7-0.2c-6.1,0-11,4.9-11,11s4.9,11,11,11h36c6.1,0,11-4.9,11-11S300.1-188,294-188z"/>
	<path class="st4" d="M294-302c-0.5,0-1.1,0.1-1.7,0.2c-2.1-7.2-8.6-12.2-16.3-12.2c-7.7,0-14.2,5-16.3,12.2
		c-0.6-0.1-1.2-0.2-1.7-0.2c-6.1,0-11,4.9-11,11s4.9,11,11,11h36c6.1,0,11-4.9,11-11S300.1-302,294-302z"/>
	<path class="st2" d="M279.1-278.4c-0.7-0.8-2.1-0.8-2.8,0c-0.6,0.7-5.9,7-5.9,12.1c0,1.9,0.6,3.6,1.8,5c0.9,1.1,2.6,2.3,5.5,2.3
		c4.8,0,7.3-3.7,7.3-7.3C285-271.3,279.7-277.7,279.1-278.4z M277.7-261.7L277.7-261.7l0,0.9L277.7-261.7z"/>
	<path class="st4" d="M-162-74c-0.5,0-1.1,0.1-1.7,0.2C-165.8-81-172.3-86-180-86c-7.7,0-14.2,5-16.3,12.2c-0.6-0.1-1.2-0.2-1.7-0.2
		c-6.1,0-11,4.9-11,11s4.9,11,11,11h36c6.1,0,11-4.9,11-11S-155.9-74-162-74z"/>
	<path class="st4" d="M294.8-74.6c-0.5,0-1.1,0.1-1.7,0.2C291-81.8,284.3-87,276.5-87c-7.8,0-14.5,5.2-16.6,12.5
		c-0.6-0.1-1.2-0.2-1.7-0.2c-6.2,0-11.2,5.1-11.2,11.3c0,6.2,5,11.3,11.2,11.3h36.6c6.2,0,11.2-5.1,11.2-11.3
		C306-69.6,301-74.6,294.8-74.6z"/>
	<path class="st4" d="M181-75c-0.5,0-1.1,0.1-1.7,0.2C177.2-82,170.7-87,163-87c-7.7,0-14.2,5-16.3,12.2c-0.6-0.1-1.2-0.2-1.7-0.2
		c-6.1,0-11,4.9-11,11s4.9,11,11,11h36c6.1,0,11-4.9,11-11S187.1-75,181-75z"/>
	<g>
		<path class="st5" d="M-195-418h12c1.1,0,2-0.9,2-2s-0.9-2-2-2h-12c-1.1,0-2,0.9-2,2S-196.1-418-195-418z"/>
		<path class="st5" d="M-207-412h24c1.1,0,2-0.9,2-2s-0.9-2-2-2h-24c-1.1,0-2,0.9-2,2S-208.1-412-207-412z"/>
		<path class="st5" d="M-213-406h24c1.1,0,2-0.9,2-2s-0.9-2-2-2h-24c-1.1,0-2,0.9-2,2S-214.1-406-213-406z"/>
		<path class="st5" d="M-154-402c0-1.1-0.9-2-2-2h-60c-1.1,0-2,0.9-2,2s0.9,2,2,2h60C-154.9-400-154-400.9-154-402z"/>
		<path class="st5" d="M-156-398h-57c-1.1,0-2,0.9-2,2s0.9,2,2,2h57c1.1,0,2-0.9,2-2S-154.9-398-156-398z"/>
		<path class="st5" d="M-195-392l-12,0c-1.1,0-2,0.9-2,2s0.9,2,2,2l12,0c1.1,0,2-0.9,2-2S-193.9-392-195-392z"/>
		<path class="st5" d="M-176-412h8c1.1,0,2-0.9,2-2s-0.9-2-2-2h-8c-1.1,0-2,0.9-2,2S-177.1-412-176-412z"/>
		<path class="st5" d="M-185-408c0,1.1,0.9,2,2,2h21c1.1,0,2-0.9,2-2s-0.9-2-2-2h-21C-184.1-410-185-409.1-185-408z"/>
		<path class="st5" d="M-162-392l-27,0c-1.1,0-2,0.9-2,2s0.9,2,2,2l27,0c1.1,0,2-0.9,2-2S-160.9-392-162-392z"/>
	</g>
	<g>
		<path class="st1" d="M-80-1314c0,2.4,0.7,4.9,1.9,7c0.4,0.6,1,1,1.7,1h20.8c0.7,0,1.4-0.4,1.7-1c1.2-2.1,1.9-4.6,1.9-7
			c0-7.7-6.3-14-14-14S-80-1321.7-80-1314z M-75.2-1310C-75.2-1310-75.2-1310-75.2-1310C-75.2-1310-75.1-1310-75.2-1310L-75.2-1310z
			 M-67.2-1323.9c0.4-0.1,0.8-0.1,1.2-0.1c0.1,0,0.1,0,0.2,0C-66.3-1324-66.8-1324-67.2-1323.9z"/>
		<polygon class="st1" points="-65.9,-1340.4 -70.8,-1331.9 -61,-1331.9 		"/>
		<polygon class="st1" points="-83.9,-1318.8 -92.4,-1313.8 -83.9,-1308.9 		"/>
		<polygon class="st1" points="-47.9,-1308.9 -39.4,-1313.8 -47.9,-1318.8 		"/>
		<polygon class="st1" points="-49.2,-1330.6 -54.7,-1328.9 -50.9,-1325.1 		"/>
		<polygon class="st1" points="-81,-1325.1 -77.2,-1328.9 -82.7,-1330.6 		"/>
	</g>
	<g>
		<path class="st1" d="M60.3-1314.6c-2.4-4.4-7-7.4-12.3-7.4c-7.7,0-14,6.3-14,14c0,1.1,0.9,2,2,2h24c1.1,0,2-0.9,2-2
			c0-2-0.4-3.9-1.2-5.6C60.7-1314,60.5-1314.3,60.3-1314.6z"/>
		<path class="st1" d="M38.7-1303.9L38.7-1303.9C38.7-1303.9,38.7-1303.9,38.7-1303.9C38.7-1303.9,38.7-1303.9,38.7-1303.9z"/>
		<polygon class="st1" points="47.9,-1334.2 43,-1325.7 52.8,-1325.7 		"/>
		<polygon class="st1" points="59.1,-1322.8 63,-1318.9 64.7,-1324.5 		"/>
		<polygon class="st1" points="31.1,-1324.5 32.8,-1318.9 36.7,-1322.8 		"/>
	</g>
	<g>
		<path class="st1" d="M162-1316c-5,0-9.6,2.7-12.1,7c-0.4,0.6-0.4,1.4,0,2c0.4,0.6,1,1,1.7,1h20.8c0.7,0,1.4-0.4,1.7-1
			c0.4-0.6,0.4-1.4,0-2C171.6-1313.3,167-1316,162-1316z M161.8-1312c0.1,0,0.1,0,0.2,0c0,0,0.1,0,0.1,0
			C162-1312,161.9-1312,161.8-1312z"/>
		<path class="st1" d="M152.8-1297.8L152.8-1297.8C152.8-1297.8,152.8-1297.8,152.8-1297.8C152.8-1297.8,152.8-1297.8,152.8-1297.8z
			"/>
		<polygon class="st1" points="162,-1328.2 157.1,-1319.7 166.9,-1319.7 		"/>
		<polygon class="st1" points="173.2,-1316.7 177,-1312.9 178.7,-1318.4 		"/>
		<polygon class="st1" points="145.2,-1318.4 146.9,-1312.9 150.7,-1316.7 		"/>
	</g>
	<g>
		<path class="st1" d="M147.9-635.6c0,2.4,0.7,4.9,1.9,7c0.4,0.6,1,1,1.7,1h20.8c0.7,0,1.4-0.4,1.7-1c1.2-2.1,1.9-4.6,1.9-7
			c0-7.7-6.3-14-14-14C154.2-649.6,147.9-643.4,147.9-635.6z M152.8-631.6C152.7-631.7,152.7-631.7,152.8-631.6
			C152.8-631.7,152.8-631.7,152.8-631.6L152.8-631.6z M160.7-645.6c0.4-0.1,0.8-0.1,1.2-0.1c0.1,0,0.1,0,0.2,0
			C161.6-645.6,161.1-645.6,160.7-645.6z"/>
		<polygon class="st1" points="162,-662 157.1,-653.5 166.9,-653.5 		"/>
		<polygon class="st1" points="144,-640.4 135.5,-635.5 144,-630.6 		"/>
		<polygon class="st1" points="180,-630.6 188.5,-635.5 180,-640.4 		"/>
		<polygon class="st1" points="178.7,-652.3 173.2,-650.6 177,-646.7 		"/>
		<polygon class="st1" points="146.9,-646.7 150.7,-650.6 145.2,-652.3 		"/>
	</g>
	<g>
		<path class="st1" d="M262.1-636c0,2.4,0.7,4.9,1.9,7c0.4,0.6,1,1,1.7,1h20.8c0.7,0,1.4-0.4,1.7-1c1.2-2.1,1.9-4.6,1.9-7
			c0-7.7-6.3-14-14-14C268.4-650,262.1-643.7,262.1-636z M266.9-632C266.9-632,266.9-632,266.9-632C266.9-632,267-632,266.9-632
			L266.9-632z M274.8-645.9c0.4-0.1,0.8-0.1,1.2-0.1c0.1,0,0.1,0,0.2,0C275.8-646,275.3-646,274.8-645.9z"/>
		<polygon class="st1" points="276.1,-662.4 271.2,-653.9 281,-653.9 		"/>
		<polygon class="st1" points="258.1,-640.8 249.7,-635.8 258.1,-630.9 		"/>
		<polygon class="st1" points="294.2,-630.9 302.7,-635.8 294.2,-640.8 		"/>
		<polygon class="st1" points="292.9,-652.6 287.3,-650.9 291.2,-647.1 		"/>
		<polygon class="st1" points="261.1,-647.1 264.9,-650.9 259.3,-652.6 		"/>
	</g>
	<g>
		<path class="st4" d="M66-74c-0.5,0-1.1,0.1-1.7,0.2C62.2-81,55.7-86,48-86c-7.7,0-14.2,5-16.3,12.2C31.1-73.9,30.5-74,30-74
			c-6.1,0-11,4.9-11,11s4.9,11,11,11h36c6.1,0,11-4.9,11-11S72.1-74,66-74z"/>
		<g>
			<path class="st5" d="M61.8-47l-30,0c-1.1,0-2,0.9-2,2s0.9,2,2,2l30,0c3.9,0,7,3.1,7,7s-3.1,7-7,7c-1.1,0-2,0.9-2,2s0.9,2,2,2
				c6.1,0,11-4.9,11-11S67.9-47,61.8-47z"/>
			<path class="st5" d="M55.8-41h-24c-1.1,0-2,0.9-2,2s0.9,2,2,2h24c0.6,0,1,0.4,1,1s-0.4,1-1,1c-1.1,0-2,0.9-2,2s0.9,2,2,2
				c2.8,0,5-2.2,5-5S58.6-41,55.8-41z"/>
			<path class="st5" d="M76.8-55c-1.1,0-2,0.9-2,2s0.9,2,2,2c0.6,0,1,0.4,1,1s-0.4,1-1,1h-4c-1.1,0-2,0.9-2,2s0.9,2,2,2h4
				c2.8,0,5-2.2,5-5S79.6-55,76.8-55z"/>
			<path class="st5" d="M31.8-49l33,0c4.4,0,8-3.6,8-8s-3.6-8-8-8c-4.4,0-8,3.6-8,8c0,1.1,0.9,2,2,2c1.1,0,2-0.9,2-2
				c0-2.2,1.8-4,4-4c2.2,0,4,1.8,4,4s-1.8,4-4,4l-33,0c-1.1,0-2,0.9-2,2S30.7-49,31.8-49z"/>
		</g>
	</g>
	<g>
		<path class="st5" d="M176.5-48l-30,0c-1.1,0-2,0.9-2,2s0.9,2,2,2l30,0c3.9,0,7,3.1,7,7s-3.1,7-7,7c-1.1,0-2,0.9-2,2s0.9,2,2,2
			c6.1,0,11-4.9,11-11S182.6-48,176.5-48z"/>
		<path class="st5" d="M170.5-42h-24c-1.1,0-2,0.9-2,2s0.9,2,2,2h24c0.6,0,1,0.4,1,1s-0.4,1-1,1c-1.1,0-2,0.9-2,2s0.9,2,2,2
			c2.8,0,5-2.2,5-5S173.3-42,170.5-42z"/>
		<path class="st5" d="M191.5-56c-1.1,0-2,0.9-2,2s0.9,2,2,2c0.6,0,1,0.4,1,1s-0.4,1-1,1h-4c-1.1,0-2,0.9-2,2s0.9,2,2,2h4
			c2.8,0,5-2.2,5-5S194.3-56,191.5-56z"/>
		<path class="st5" d="M146.5-50l33,0c4.4,0,8-3.6,8-8s-3.6-8-8-8s-8,3.6-8,8c0,1.1,0.9,2,2,2c1.1,0,2-0.9,2-2c0-2.2,1.8-4,4-4
			s4,1.8,4,4s-1.8,4-4,4l-33,0c-1.1,0-2,0.9-2,2S145.4-50,146.5-50z"/>
	</g>
	<g>
		<path class="st5" d="M291.3-48l-30,0c-1.1,0-2,0.9-2,2s0.9,2,2,2l30,0c3.9,0,7,3.1,7,7s-3.1,7-7,7c-1.1,0-2,0.9-2,2s0.9,2,2,2
			c6.1,0,11-4.9,11-11S297.3-48,291.3-48z"/>
		<path class="st5" d="M285.3-42h-24c-1.1,0-2,0.9-2,2s0.9,2,2,2h24c0.6,0,1,0.4,1,1s-0.4,1-1,1c-1.1,0-2,0.9-2,2s0.9,2,2,2
			c2.8,0,5-2.2,5-5S288-42,285.3-42z"/>
		<path class="st5" d="M306.3-56c-1.1,0-2,0.9-2,2s0.9,2,2,2c0.6,0,1,0.4,1,1s-0.4,1-1,1h-4c-1.1,0-2,0.9-2,2s0.9,2,2,2h4
			c2.8,0,5-2.2,5-5S309-56,306.3-56z"/>
		<path class="st5" d="M261.3-50l33,0c4.4,0,8-3.6,8-8s-3.6-8-8-8s-8,3.6-8,8c0,1.1,0.9,2,2,2s2-0.9,2-2c0-2.2,1.8-4,4-4
			c2.2,0,4,1.8,4,4s-1.8,4-4,4l-33,0c-1.1,0-2,0.9-2,2S260.2-50,261.3-50z"/>
	</g>
</g>
</svg>
