<?xml version="1.0" encoding="utf-8"?>
<!-- Generator: Adobe Illustrator 19.2.0, SVG Export Plug-In . SVG Version: 6.00 Build 0)  -->
<svg version="1.1" xmlns="http://www.w3.org/2000/svg" xmlns:xlink="http://www.w3.org/1999/xlink" x="0px" y="0px"
	 viewBox="0 0 96 96" style="enable-background:new 0 0 96 96;" xml:space="preserve">
<style type="text/css">
	.st0{display:none;}
	.st1{fill:#FFCC00;}
	.st2{fill:#5AC8FA;}
	.st3{fill:#5856D6;}
	.st4{fill:#007AFF;}
	.st5{fill:#FF9500;}
	.st6{fill:#FF3B30;}
</style>
<g id="Base" class="st0">
</g>
<g id="Dibujo">
	<g>
		<polyline class="st1" points="381.7,287.1 374.7,300.2 379.9,300.2 374.1,311.6 386.3,297.4 380.1,297.5 389,287.1 		"/>
		<polyline class="st1" points="394.5,282.2 387.5,295.3 392.7,295.3 386.9,306.7 399.1,292.5 392.9,292.6 401.8,282.2 		"/>
	</g>
	<g>
		<path class="st2" d="M45.5,966v18c0,1.1,0.9,2,2,2c1.1,0,2-0.9,2-2v-18c0-1.1-0.9-2-2-2C46.4,964,45.5,964.9,45.5,966z"/>
		<path class="st2" d="M22.5,985h-2c-1.1,0-2,0.9-2,2v2c0,1.1,0.9,2,2,2h2c1.1,0,2-0.9,2-2v-2C24.5,985.9,23.6,985,22.5,985z"/>
		<path class="st2" d="M48.5,990h-2c-1.1,0-2,0.9-2,2v2c0,1.1,0.9,2,2,2h2c1.1,0,2-0.9,2-2v-2C50.5,990.9,49.6,990,48.5,990z"/>
		<path class="st2" d="M75.5,982h-2c-1.1,0-2,0.9-2,2v2c0,1.1,0.9,2,2,2h2c1.1,0,2-0.9,2-2v-2C77.5,982.9,76.6,982,75.5,982z"/>
		<path class="st2" d="M38.5,970c-1.1,0-2,0.9-2,2v15.1c-1.2-0.7-2.5-1.1-4-1.1h-2c-1.1,0-2,0.9-2,2s0.9,2,2,2h2c2.2,0,4,1.8,4,4
			c0,1.1,0.9,2,2,2c1.1,0,2-0.9,2-2v-22C40.5,970.9,39.6,970,38.5,970z"/>
		<path class="st2" d="M65.5,983c-2.7,0-5.1,0.9-7,2.5V972c0-1.1-0.9-2-2-2c-1.1,0-2,0.9-2,2v22c0,0,0,0,0,0c0,1.1,0.9,2,2,2
			c1.1,0,2-0.9,2-2v0c0-3.9,3.1-7,7-7c1.1,0,2-0.9,2-2S66.6,983,65.5,983z"/>
	</g>
	<g>
		<path class="st1" d="M402.2,934c-7.7,0-14,6.3-14,14s6.3,14,14,14c7.7,0,14-6.3,14-14S409.9,934,402.2,934z"/>
		<polygon class="st1" points="402.2,921.5 407.1,930 397.3,930 		"/>
		<polygon class="st1" points="428.8,948 420.3,952.9 420.3,943.1 		"/>
		<polygon class="st1" points="419,931.2 417.3,936.8 413.4,932.9 		"/>
		<polygon class="st1" points="385.4,931.2 391,932.9 387.1,936.8 		"/>
	</g>
	<g>
		<path class="st1" d="M515.9,820c-7.7,0-14,6.3-14,14s6.3,14,14,14s14-6.3,14-14S523.6,820,515.9,820z"/>
		<polygon class="st1" points="515.9,807.5 520.8,816 511,816 		"/>
		<polygon class="st1" points="542.4,834 534,838.9 534,829.1 		"/>
		<polygon class="st1" points="532.6,817.2 530.9,822.8 527.1,818.9 		"/>
		<polygon class="st1" points="499.1,817.2 504.6,818.9 500.8,822.8 		"/>
	</g>
	<g>
		<path class="st2" d="M164,863.9v-12c0-1.1-0.9-2-2-2s-2,0.9-2,2v12c0,1.1,0.9,2,2,2S164,865,164,863.9z"/>
		<path class="st2" d="M155,869.9v-12c0-1.1-0.9-2-2-2c-1.1,0-2,0.9-2,2v12c0,1.1,0.9,2,2,2C154.1,871.9,155,871,155,869.9z"/>
		<path class="st2" d="M173,869.9v-12c0-1.1-0.9-2-2-2c-1.1,0-2,0.9-2,2v12c0,1.1,0.9,2,2,2C172.1,871.9,173,871,173,869.9z"/>
		<path class="st2" d="M154,875.9h-2c-1.1,0-2,0.9-2,2v2c0,1.1,0.9,2,2,2h2c1.1,0,2-0.9,2-2v-2C156,876.8,155.1,875.9,154,875.9z"/>
		<path class="st2" d="M163,869.9h-2c-1.1,0-2,0.9-2,2v2c0,1.1,0.9,2,2,2h2c1.1,0,2-0.9,2-2v-2C165,870.8,164.1,869.9,163,869.9z"/>
		<path class="st2" d="M172,875.9h-2c-1.1,0-2,0.9-2,2v2c0,1.1,0.9,2,2,2h2c1.1,0,2-0.9,2-2v-2C174,876.8,173.1,875.9,172,875.9z"/>
	</g>
	<g>
		<path class="st1" d="M174.1,820c-7.7,0-14,6.3-14,14s6.3,14,14,14s14-6.3,14-14S181.8,820,174.1,820z"/>
		<polygon class="st1" points="174.1,807.5 179,816 169.2,816 		"/>
		<polygon class="st1" points="200.7,834 192.2,838.9 192.2,829.1 		"/>
		<polygon class="st1" points="190.9,817.2 189.2,822.8 185.3,818.9 		"/>
		<polygon class="st1" points="157.3,817.2 162.9,818.9 159,822.8 		"/>
	</g>
	<g>
		<path class="st1" d="M59.8,706.1c-7.7,0-14,6.3-14,14s6.3,14,14,14s14-6.3,14-14S67.5,706.1,59.8,706.1z"/>
		<polygon class="st1" points="59.8,693.6 64.7,702 54.9,702 		"/>
		<polygon class="st1" points="86.4,720.1 77.9,725 77.9,715.2 		"/>
		<polygon class="st1" points="76.6,703.3 74.8,708.8 71,705 		"/>
		<polygon class="st1" points="43,703.3 48.6,705 44.7,708.8 		"/>
	</g>
	<g>
		<path class="st1" d="M402,706c-7.7,0-14,6.3-14,14s6.3,14,14,14s14-6.3,14-14S409.7,706,402,706z"/>
		<polygon class="st1" points="402,693.5 406.9,702 397.1,702 		"/>
		<polygon class="st1" points="428.6,720 420.1,724.9 420.1,715.1 		"/>
		<polygon class="st1" points="418.8,703.2 417,708.8 413.2,704.9 		"/>
		<polygon class="st1" points="385.2,703.2 390.8,704.9 386.9,708.8 		"/>
	</g>
	<g>
		<path class="st1" d="M288.2,592c-7.7,0-14,6.3-14,14s6.3,14,14,14s14-6.3,14-14S296,592,288.2,592z"/>
		<polygon class="st1" points="288.3,579.5 293.2,588 283.4,588 		"/>
		<polygon class="st1" points="314.8,606 306.3,610.9 306.3,601.1 		"/>
		<polygon class="st1" points="305,589.2 303.3,594.8 299.5,590.9 		"/>
		<polygon class="st1" points="271.5,589.2 277,590.9 273.2,594.8 		"/>
	</g>
	<g>
		<path class="st1" d="M174,478c-7.7,0-14,6.3-14,14s6.3,14,14,14c7.7,0,14-6.3,14-14S181.7,478,174,478z"/>
		<polygon class="st1" points="174,465.5 179,474 169.1,474 		"/>
		<polygon class="st1" points="200.6,492 192.1,496.9 192.1,487.1 		"/>
		<polygon class="st1" points="190.8,475.2 189.1,480.8 185.2,476.9 		"/>
		<polygon class="st1" points="157.2,475.2 162.8,476.9 159,480.8 		"/>
	</g>
	<g>
		<path class="st1" d="M174.1,364c-7.7,0-14,6.3-14,14s6.3,14,14,14s14-6.3,14-14S181.8,364,174.1,364z"/>
		<polygon class="st1" points="174.1,351.5 179,360 169.2,360 		"/>
		<polygon class="st1" points="200.7,378 192.2,382.9 192.2,373.1 		"/>
		<polygon class="st1" points="190.9,361.2 189.2,366.8 185.3,362.9 		"/>
		<polygon class="st1" points="157.3,361.2 162.9,362.9 159,366.8 		"/>
	</g>
	<g>
		<path class="st1" d="M60.2,250c-7.7,0-14,6.3-14,14s6.3,14,14,14s14-6.3,14-14S67.9,250,60.2,250z"/>
		<polygon class="st1" points="60.2,237.5 65.1,246 55.3,246 		"/>
		<polygon class="st1" points="86.8,264 78.3,268.9 78.3,259.1 		"/>
		<polygon class="st1" points="77,247.2 75.2,252.8 71.4,248.9 		"/>
		<polygon class="st1" points="43.4,247.2 49,248.9 45.1,252.8 		"/>
	</g>
	<g>
		<path class="st1" d="M401.9,250c-7.7,0-14,6.3-14,14s6.3,14,14,14s14-6.3,14-14S409.6,250,401.9,250z"/>
		<polygon class="st1" points="401.9,237.5 406.9,246 397,246 		"/>
		<polygon class="st1" points="428.5,264 420,268.9 420,259.1 		"/>
		<polygon class="st1" points="418.7,247.2 417,252.8 413.1,248.9 		"/>
		<polygon class="st1" points="385.1,247.2 390.7,248.9 386.9,252.8 		"/>
	</g>
	<g>
		<path class="st1" d="M288,136c-7.7,0-14,6.3-14,14s6.3,14,14,14s14-6.3,14-14S295.7,136,288,136z"/>
		<polygon class="st1" points="288.1,123.5 293,132 283.2,132 		"/>
		<polygon class="st1" points="314.6,150 306.1,154.9 306.1,145.1 		"/>
		<polygon class="st1" points="304.8,133.2 303.1,138.8 299.3,134.9 		"/>
		<polygon class="st1" points="271.3,133.2 276.8,134.9 273,138.8 		"/>
	</g>
	<g>
		<path class="st1" d="M515.9,22c-7.7,0-14,6.3-14,14s6.3,14,14,14s14-6.3,14-14S523.7,22,515.9,22z"/>
		<polygon class="st1" points="516,9.5 520.9,18 511.1,18 		"/>
		<polygon class="st1" points="542.5,36 534,40.9 534,31.1 		"/>
		<polygon class="st1" points="532.7,19.3 531,24.8 527.2,21 		"/>
		<polygon class="st1" points="499.2,19.3 504.7,21 500.9,24.8 		"/>
	</g>
	<g>
		<path class="st1" d="M173.8,22c-7.7,0-14,6.3-14,14s6.3,14,14,14c7.7,0,14-6.3,14-14S181.6,22,173.8,22z"/>
		<polygon class="st1" points="173.9,9.5 178.8,18 169,18 		"/>
		<polygon class="st1" points="200.4,36 191.9,40.9 191.9,31.1 		"/>
		<polygon class="st1" points="190.6,19.3 188.9,24.8 185.1,21 		"/>
		<polygon class="st1" points="157.1,19.3 162.6,21 158.8,24.8 		"/>
	</g>
	<path class="st3" d="M62.5,931.4c0-1.2,0.2-2.3,0.6-3.4c-1-0.2-2-0.3-3-0.3c-7.7,0-14,6.3-14,14c0,7.7,6.3,14,14,14
		c7.7,0,13.9-6.2,14-13.8c-0.3,0-0.7,0.1-1,0.1C67.2,941.9,62.5,937.2,62.5,931.4z"/>
	<path class="st3" d="M518.5,931.7c0-1.2,0.2-2.3,0.6-3.4c-1-0.2-2-0.3-3-0.3c-7.7,0-14,6.3-14,14s6.3,14,14,14
		c7.7,0,13.9-6.2,14-13.8c-0.3,0-0.7,0.1-1,0.1C523.2,942.3,518.5,937.5,518.5,931.7z"/>
	<path class="st3" d="M290.5,817.4c0-1.2,0.2-2.3,0.6-3.4c-1-0.2-2-0.3-3-0.3c-7.7,0-14,6.3-14,14c0,7.7,6.3,14,14,14
		c7.7,0,13.9-6.2,14-13.8c-0.3,0-0.7,0.1-1,0.1C295.2,827.9,290.5,823.2,290.5,817.4z"/>
	<path class="st3" d="M518.6,703.7c0-1.2,0.2-2.3,0.6-3.4c-1-0.2-2-0.3-3-0.3c-7.7,0-14,6.3-14,14s6.3,14,14,14
		c7.7,0,13.9-6.2,14-13.8c-0.3,0-0.7,0.1-1,0.1C523.3,714.3,518.6,709.5,518.6,703.7z"/>
	<path class="st3" d="M176.5,703.7c0-1.2,0.2-2.3,0.6-3.4c-1-0.2-2-0.3-3-0.3c-7.7,0-14,6.3-14,14s6.3,14,14,14
		c7.7,0,13.9-6.2,14-13.8c-0.3,0-0.7,0.1-1,0.1C181.2,714.3,176.5,709.5,176.5,703.7z"/>
	<path class="st3" d="M59.5,595.7c0-1.2,0.2-2.3,0.6-3.4c-1-0.2-2-0.3-3-0.3c-7.7,0-14,6.3-14,14s6.3,14,14,14
		c7.7,0,13.9-6.2,14-13.8c-0.3,0-0.7,0.1-1,0.1C64.2,606.3,59.5,601.5,59.5,595.7z"/>
	<path class="st3" d="M290.5,475.7c0-1.2,0.2-2.3,0.6-3.4c-1-0.2-2-0.3-3-0.3c-7.7,0-14,6.3-14,14s6.3,14,14,14
		c7.7,0,13.9-6.2,14-13.8c-0.3,0-0.7,0.1-1,0.1C295.2,486.3,290.5,481.5,290.5,475.7z"/>
	<path class="st3" d="M404.5,589.7c0-1.2,0.2-2.3,0.6-3.4c-1-0.2-2-0.3-3-0.3c-7.7,0-14,6.3-14,14s6.3,14,14,14
		c7.7,0,13.9-6.2,14-13.8c-0.3,0-0.7,0.1-1,0.1C409.2,600.3,404.5,595.5,404.5,589.7z"/>
	<path class="st3" d="M290.5,361.7c0-1.2,0.2-2.3,0.6-3.4c-1-0.2-2-0.3-3-0.3c-7.7,0-14,6.3-14,14s6.3,14,14,14
		c7.7,0,13.9-6.2,14-13.8c-0.3,0-0.7,0.1-1,0.1C295.2,372.3,290.5,367.5,290.5,361.7z"/>
	<path class="st3" d="M176.5,247.7c0-1.2,0.2-2.3,0.6-3.4c-1-0.2-2-0.3-3-0.3c-7.7,0-14,6.3-14,14s6.3,14,14,14
		c7.7,0,13.9-6.2,14-13.8c-0.3,0-0.7,0.1-1,0.1C181.2,258.3,176.5,253.5,176.5,247.7z"/>
	<path class="st3" d="M518.6,247.7c0-1.2,0.2-2.3,0.6-3.4c-1-0.2-2-0.3-3-0.3c-7.7,0-14,6.3-14,14s6.3,14,14,14
		c7.7,0,13.9-6.2,14-13.8c-0.3,0-0.7,0.1-1,0.1C523.3,258.3,518.6,253.5,518.6,247.7z"/>
	<path class="st3" d="M62.5,133.7c0-1.2,0.2-2.3,0.6-3.4c-1-0.2-2-0.3-3-0.3c-7.7,0-14,6.3-14,14s6.3,14,14,14
		c7.7,0,13.9-6.2,14-13.8c-0.3,0-0.7,0.1-1,0.1C67.2,144.3,62.5,139.5,62.5,133.7z"/>
	<path class="st3" d="M290.4,19.7c0-1.2,0.2-2.3,0.6-3.4c-1-0.2-2-0.3-3-0.3c-7.7,0-14,6.3-14,14s6.3,14,14,14
		c7.7,0,13.9-6.2,14-13.8c-0.3,0-0.7,0.1-1,0.1C295.1,30.3,290.4,25.5,290.4,19.7z"/>
	<path class="st3" d="M404.5,133.7c0-1.2,0.2-2.3,0.6-3.4c-1-0.2-2-0.3-3-0.3c-7.7,0-14,6.3-14,14s6.3,14,14,14
		c7.7,0,13.9-6.2,14-13.8c-0.3,0-0.7,0.1-1,0.1C409.2,144.3,404.5,139.5,404.5,133.7z"/>
	<path class="st3" d="M506.4-304.2c0-1.2,0.2-2.3,0.6-3.4c-1-0.2-2-0.3-3-0.3c-7.7,0-14,6.3-14,14c0,7.7,6.3,14,14,14
		c7.7,0,13.9-6.2,14-13.8c-0.3,0-0.7,0.1-1,0.1C511.1-293.7,506.4-298.4,506.4-304.2z"/>
	<g>
		<path class="st2" d="M276,178c-1.1,0-2,0.9-2,2v18c0,1.1,0.9,2,2,2s2-0.9,2-2v-18C278,178.9,277.1,178,276,178z"/>
		<path class="st2" d="M303.7,159.8c-0.3-0.6-0.7-1.2-1.2-1.8c-1.3-1.6-3.2-2.9-5.2-3.5c-1-0.3-2.1-0.5-3.3-0.5
			c-0.5,0-1.1,0.1-1.7,0.2c-2.1-7.2-8.6-12.2-16.3-12.2c-7.7,0-14.2,5-16.3,12.2c-0.6-0.1-1.2-0.2-1.7-0.2c-1.1,0-2.2,0.2-3.3,0.5
			c-2.1,0.6-3.9,1.9-5.2,3.5c-0.4,0.5-0.8,1.1-1.2,1.8c-0.8,1.6-1.3,3.3-1.3,5.2s0.5,3.7,1.3,5.2c0.3,0.6,0.7,1.2,1.2,1.8
			c1.3,1.6,3.2,2.9,5.2,3.5c1,0.3,2.1,0.5,3.3,0.5h7v16c0,1.1,0.9,2,2,2s2-0.9,2-2v-16h14v16c0,1.1,0.9,2,2,2s2-0.9,2-2v-16h7
			c1.1,0,2.2-0.2,3.3-0.5c2.1-0.6,3.9-1.9,5.2-3.5c0.4-0.5,0.8-1.1,1.2-1.8c0.8-1.6,1.3-3.3,1.3-5.2S304.5,161.3,303.7,159.8z"/>
	</g>
	<path class="st4" d="M66,40c-0.5,0-1.1,0.1-1.7,0.2C62.2,33,55.7,28,48,28c-7.7,0-14.2,5-16.3,12.2C31.1,40.1,30.5,40,30,40
		c-6.1,0-11,4.9-11,11s4.9,11,11,11h36c6.1,0,11-4.9,11-11S72.1,40,66,40z"/>
	<path class="st3" d="M48-194c-7.7,0-14,6.3-14,14s6.3,14,14,14s14-6.3,14-14S55.7-194,48-194z"/>
	<path class="st3" d="M162-194c-7.7,0-14,6.3-14,14s6.3,14,14,14s14-6.3,14-14S169.7-194,162-194z M162.7-170
		c3.2-2.1,5.3-5.8,5.3-10s-2.1-7.8-5.3-10c5.2,0.3,9.3,4.7,9.3,10S167.9-170.4,162.7-170z"/>
	<path class="st3" d="M276-80c-7.7,0-14,6.3-14,14s6.3,14,14,14s14-6.3,14-14S283.7-80,276-80z M266-66c0-5.3,4.1-9.6,9.3-10
		c-3.2,2.1-5.3,5.8-5.3,10s2.1,7.8,5.3,10C270.1-56.4,266-60.7,266-66z"/>
	<path class="st3" d="M276-194c-7.7,0-14,6.3-14,14s6.3,14,14,14s14-6.3,14-14S283.7-194,276-194z M276-170v-20c5.5,0,10,4.5,10,10
		S281.5-170,276-170z"/>
	<path class="st3" d="M162-80c-7.7,0-14,6.3-14,14s6.3,14,14,14s14-6.3,14-14S169.7-80,162-80z M152-66c0-5.5,4.5-10,10-10v20
		C156.5-56,152-60.5,152-66z"/>
	<path class="st3" d="M390-194c-7.7,0-14,6.3-14,14s6.3,14,14,14s14-6.3,14-14S397.7-194,390-194z M390-170c-0.2,0-0.4,0-0.7,0
		c-3.2-2.1-5.3-5.8-5.3-10s2.1-7.8,5.3-10c0.2,0,0.4,0,0.7,0c5.5,0,10,4.5,10,10S395.5-170,390-170z"/>
	<path class="st3" d="M48-80c-7.7,0-14,6.3-14,14s6.3,14,14,14s14-6.3,14-14S55.7-80,48-80z M38-66c0-5.5,4.5-10,10-10
		c0.2,0,0.4,0,0.7,0c3.2,2.1,5.3,5.8,5.3,10s-2.1,7.8-5.3,10c-0.2,0-0.4,0-0.7,0C42.5-56,38-60.5,38-66z"/>
	<path class="st3" d="M504-194c-7.7,0-14,6.3-14,14s6.3,14,14,14c7.7,0,14-6.3,14-14S511.7-194,504-194z M504-170
		c-5.5,0-10-4.5-10-10s4.5-10,10-10s10,4.5,10,10S509.5-170,504-170z"/>
	<path class="st4" d="M392-91.9V-94c0-1.1-0.9-2-2-2c-1.1,0-2,0.9-2,2v2.1c-13.4,1-24,12.3-24,25.9c0,1.1,0.9,2,2,2c1.1,0,2-0.9,2-2
		c0-2.2,1.8-4,4-4c2.2,0,4,1.8,4,4c0,1.1,0.9,2,2,2c1.1,0,2-0.9,2-2c0-2.2,1.8-4,4-4c2.2,0,4,1.8,4,4v21c0,2.8,2.2,5,5,5s5-2.2,5-5
		c0-1.1-0.9-2-2-2c-1.1,0-2,0.9-2,2c0,0.6-0.4,1-1,1c-0.6,0-1-0.4-1-1v-21c0-2.2,1.8-4,4-4c2.2,0,4,1.8,4,4c0,1.1,0.9,2,2,2
		c1.1,0,2-0.9,2-2c0-2.2,1.8-4,4-4c2.2,0,4,1.8,4,4c0,1.1,0.9,2,2,2c1.1,0,2-0.9,2-2C416-79.7,405.4-90.9,392-91.9z"/>
	<g>
		<path class="st5" d="M381,494h12c1.1,0,2-0.9,2-2s-0.9-2-2-2h-12c-1.1,0-2,0.9-2,2S379.9,494,381,494z"/>
		<path class="st5" d="M369,500h24c1.1,0,2-0.9,2-2s-0.9-2-2-2h-24c-1.1,0-2,0.9-2,2S367.9,500,369,500z"/>
		<path class="st5" d="M363,506h24c1.1,0,2-0.9,2-2s-0.9-2-2-2h-24c-1.1,0-2,0.9-2,2S361.9,506,363,506z"/>
		<path class="st5" d="M422,510c0-1.1-0.9-2-2-2h-60c-1.1,0-2,0.9-2,2s0.9,2,2,2h60C421.1,512,422,511.1,422,510z"/>
		<path class="st5" d="M420,514h-57c-1.1,0-2,0.9-2,2s0.9,2,2,2h57c1.1,0,2-0.9,2-2S421.1,514,420,514z"/>
		<path class="st5" d="M381,520l-12,0c-1.1,0-2,0.9-2,2c0,1.1,0.9,2,2,2l12,0c1.1,0,2-0.9,2-2S382.1,520,381,520z"/>
		<path class="st5" d="M400,500h8c1.1,0,2-0.9,2-2s-0.9-2-2-2h-8c-1.1,0-2,0.9-2,2S398.9,500,400,500z"/>
		<path class="st5" d="M391,504c0,1.1,0.9,2,2,2h21c1.1,0,2-0.9,2-2s-0.9-2-2-2h-21C391.9,502,391,502.9,391,504z"/>
		<path class="st5" d="M414,520l-27,0c-1.1,0-2,0.9-2,2s0.9,2,2,2l27,0c1.1,0,2-0.9,2-2C416,520.9,415.1,520,414,520z"/>
	</g>
	<g>
		<path class="st2" d="M135,623c1.1,0,2-0.9,2-2c0-3.9,3.1-7,7-7c0.3,0,0.7,0.1,1.2,0.2v1.8c0,1.1,0.9,2,2,2c1.1,0,2-0.9,2-2v-3.2
			c1.1-6.3,6.4-10.8,12.8-10.8c6.4,0,11.7,4.5,12.8,10.8v3.2c0,1.1,0.9,2,2,2c1.1,0,2-0.9,2-2v-1.8c0.5-0.1,0.9-0.2,1.2-0.2
			c3.9,0,7,3.1,7,7c0,1.1,0.9,2,2,2c1.1,0,2-0.9,2-2c0-6.1-4.9-11-11-11c-0.5,0-1.1,0.1-1.7,0.2c-2.1-7.2-8.6-12.2-16.3-12.2
			c-7.7,0-14.2,5-16.3,12.2c-0.6-0.1-1.2-0.2-1.7-0.2c-6.1,0-11,4.9-11,11C133,622.1,133.9,623,135,623z"/>
		<path class="st2" d="M154,629c0,1.1,0.9,2,2,2h36c1.1,0,2-0.9,2-2s-0.9-2-2-2h-36C154.9,627,154,627.9,154,629z"/>
		<path class="st2" d="M162,634c-1.1,0-2,0.9-2,2s0.9,2,2,2h27c1.1,0,2-0.9,2-2s-0.9-2-2-2H162z"/>
		<path class="st2" d="M192,641h-24c-1.1,0-2,0.9-2,2s0.9,2,2,2h24c1.1,0,2-0.9,2-2S193.1,641,192,641z"/>
		<path class="st2" d="M132,631h18c1.1,0,2-0.9,2-2s-0.9-2-2-2h-18c-1.1,0-2,0.9-2,2S130.9,631,132,631z"/>
		<path class="st2" d="M135,634c-1.1,0-2,0.9-2,2s0.9,2,2,2h21c1.1,0,2-0.9,2-2s-0.9-2-2-2H135z"/>
		<path class="st2" d="M162,641h-30c-1.1,0-2,0.9-2,2s0.9,2,2,2h30c1.1,0,2-0.9,2-2S163.1,641,162,641z"/>
	</g>
	<g>
		<path class="st2" d="M522,604c-0.5,0-1.1,0.1-1.7,0.2c-2.1-7.2-8.6-12.2-16.3-12.2c-7.7,0-14.2,5-16.3,12.2
			c-0.6-0.1-1.2-0.2-1.7-0.2c-6.1,0-11,4.9-11,11s4.9,11,11,11c1.1,0,2-0.9,2-2s-0.9-2-2-2c-3.9,0-7-3.1-7-7s3.1-7,7-7
			c0.3,0,0.7,0.1,1.2,0.2v1.8c0,1.1,0.9,2,2,2c1.1,0,2-0.9,2-2v-3.2c1.1-6.3,6.4-10.8,12.8-10.8c6.4,0,11.7,4.5,12.8,10.8v3.2
			c0,1.1,0.9,2,2,2c1.1,0,2-0.9,2-2v-1.8c0.5-0.1,0.9-0.2,1.2-0.2c3.9,0,7,3.1,7,7s-3.1,7-7,7c-1.1,0-2,0.9-2,2s0.9,2,2,2
			c6.1,0,11-4.9,11-11S528.1,604,522,604z"/>
		<path class="st2" d="M495.6,622.8c-0.8-1-2.4-1-3.2,0c-0.8,1.1-3.4,4.7-3.4,7.2c0,2.9,2.1,5,5,5c2.9,0,5-2.1,5-5
			C499,627.5,496.4,623.9,495.6,622.8z"/>
		<path class="st2" d="M512.4,622.8c-0.8,1.1-3.4,4.7-3.4,7.2c0,2.9,2.1,5,5,5c2.9,0,5-2.1,5-5c0-2.5-2.6-6.1-3.4-7.2
			C514.8,621.8,513.2,621.8,512.4,622.8z"/>
		<path class="st2" d="M502.4,634.8c-0.8,1.1-3.4,4.7-3.4,7.2c0,2.9,2.1,5,5,5c2.9,0,5-2.1,5-5c0-2.5-2.6-6.1-3.4-7.2
			C504.8,633.8,503.2,633.8,502.4,634.8z"/>
	</g>
	<g>
		<path d="M397.6,1198.6l-5.6,5.6V1191c0-1.1-0.9-2-2-2c-1.1,0-2,0.9-2,2v13.2l-5.6-5.6c-0.8-0.8-2-0.8-2.8,0c-0.8,0.8-0.8,2,0,2.8
			l9,9c0.1,0.1,0.2,0.2,0.3,0.3c0,0,0.1,0.1,0.1,0.1c0.1,0,0.1,0.1,0.2,0.1c0.1,0,0.1,0,0.2,0.1c0.1,0,0.1,0,0.2,0.1
			c0.1,0,0.3,0,0.4,0c0.1,0,0.3,0,0.4,0c0.1,0,0.1,0,0.2-0.1c0.1,0,0.1,0,0.2-0.1c0.1,0,0.1-0.1,0.2-0.1c0,0,0.1,0,0.1-0.1
			c0.1-0.1,0.2-0.2,0.3-0.3l9-9c0.8-0.8,0.8-2,0-2.8C399.6,1197.8,398.4,1197.8,397.6,1198.6z"/>
		<path d="M408,1180c-0.5,0-1.1,0.1-1.7,0.2c-2.1-7.2-8.6-12.2-16.3-12.2c-7.7,0-14.2,5-16.3,12.2c-0.6-0.1-1.2-0.2-1.7-0.2
			c-6.1,0-11,4.9-11,11s4.9,11,11,11l2,0c1.1,0,2-0.9,2-2s-0.9-2-2-2h0l-2,0c-3.9,0-7-3.1-7-7s3.1-7,7-7c0.3,0,0.7,0.1,1.2,0.2v1.8
			c0,1.1,0.9,2,2,2c1.1,0,2-0.9,2-2v-3.2c1.1-6.3,6.4-10.8,12.8-10.8c6.4,0,11.7,4.5,12.8,10.8v3.2c0,1.1,0.9,2,2,2s2-0.9,2-2v-1.8
			c0.5-0.1,0.9-0.2,1.2-0.2c3.9,0,7,3.1,7,7s-3.1,7-7,7l-2,0h0c-1.1,0-2,0.9-2,2s0.9,2,2,2l2,0c6.1,0,11-4.9,11-11
			S414.1,1180,408,1180z"/>
	</g>
	<g>
		<path d="M505.4,1189.6c-0.1-0.1-0.2-0.2-0.3-0.3c0,0-0.1-0.1-0.1-0.1c-0.1,0-0.1-0.1-0.2-0.1c-0.1,0-0.1,0-0.2-0.1
			c-0.1,0-0.1,0-0.2-0.1c-0.3-0.1-0.5-0.1-0.8,0c-0.1,0-0.1,0-0.2,0.1c-0.1,0-0.1,0-0.2,0.1c-0.1,0-0.1,0.1-0.2,0.1
			c0,0-0.1,0-0.1,0.1c-0.1,0.1-0.2,0.2-0.3,0.3l-9,9c-0.8,0.8-0.8,2,0,2.8c0.8,0.8,2,0.8,2.8,0l5.6-5.6v13.2c0,1.1,0.9,2,2,2
			c1.1,0,2-0.9,2-2v-13.2l5.6,5.6c0.4,0.4,0.9,0.6,1.4,0.6s1-0.2,1.4-0.6c0.8-0.8,0.8-2,0-2.8L505.4,1189.6z"/>
		<path d="M522,1180c-0.5,0-1.1,0.1-1.7,0.2c-2.1-7.2-8.6-12.2-16.3-12.2c-7.7,0-14.2,5-16.3,12.2c-0.6-0.1-1.2-0.2-1.7-0.2
			c-6.1,0-11,4.9-11,11s4.9,11,11,11l2,0c1.1,0,2-0.9,2-2s-0.9-2-2-2h0l-2,0c-3.9,0-7-3.1-7-7s3.1-7,7-7c0.3,0,0.7,0.1,1.2,0.2v1.8
			c0,1.1,0.9,2,2,2c1.1,0,2-0.9,2-2v-3.2c1.1-6.3,6.4-10.8,12.8-10.8c6.4,0,11.7,4.5,12.8,10.8v3.2c0,1.1,0.9,2,2,2c1.1,0,2-0.9,2-2
			v-1.8c0.5-0.1,0.9-0.2,1.2-0.2c3.9,0,7,3.1,7,7s-3.1,7-7,7l-2,0h0c-1.1,0-2,0.9-2,2s0.9,2,2,2l2,0c6.1,0,11-4.9,11-11
			S528.1,1180,522,1180z"/>
	</g>
	<g>
		<path class="st2" d="M502,852v18c0,1.1,0.9,2,2,2c1.1,0,2-0.9,2-2v-18c0-1.1-0.9-2-2-2C502.9,850,502,850.9,502,852z"/>
		<path class="st2" d="M479,871h-2c-1.1,0-2,0.9-2,2v2c0,1.1,0.9,2,2,2h2c1.1,0,2-0.9,2-2v-2C481,871.9,480.1,871,479,871z"/>
		<path class="st2" d="M505,876h-2c-1.1,0-2,0.9-2,2v2c0,1.1,0.9,2,2,2h2c1.1,0,2-0.9,2-2v-2C507,876.9,506.1,876,505,876z"/>
		<path class="st2" d="M532,868h-2c-1.1,0-2,0.9-2,2v2c0,1.1,0.9,2,2,2h2c1.1,0,2-0.9,2-2v-2C534,868.9,533.1,868,532,868z"/>
		<path class="st2" d="M495,856c-1.1,0-2,0.9-2,2v15.1c-1.2-0.7-2.5-1.1-4-1.1h-2c-1.1,0-2,0.9-2,2s0.9,2,2,2h2c2.2,0,4,1.8,4,4
			c0,1.1,0.9,2,2,2c1.1,0,2-0.9,2-2v-22C497,856.9,496.1,856,495,856z"/>
		<path class="st2" d="M522,869c-2.7,0-5.1,0.9-7,2.5V858c0-1.1-0.9-2-2-2c-1.1,0-2,0.9-2,2v22c0,0,0,0,0,0c0,1.1,0.9,2,2,2
			c1.1,0,2-0.9,2-2v0c0-3.9,3.1-7,7-7c1.1,0,2-0.9,2-2S523.1,869,522,869z"/>
	</g>
	<g>
		<path class="st5" d="M168,958l-30,0c-1.1,0-2,0.9-2,2c0,1.1,0.9,2,2,2l30,0c3.9,0,7,3.1,7,7s-3.1,7-7,7c-1.1,0-2,0.9-2,2
			s0.9,2,2,2c6.1,0,11-4.9,11-11S174.1,958,168,958z"/>
		<path class="st5" d="M162,964h-24c-1.1,0-2,0.9-2,2s0.9,2,2,2h24c0.6,0,1,0.4,1,1s-0.4,1-1,1c-1.1,0-2,0.9-2,2s0.9,2,2,2
			c2.8,0,5-2.2,5-5S164.8,964,162,964z"/>
		<path class="st5" d="M183,950c-1.1,0-2,0.9-2,2s0.9,2,2,2c0.6,0,1,0.4,1,1s-0.4,1-1,1h-4c-1.1,0-2,0.9-2,2s0.9,2,2,2h4
			c2.8,0,5-2.2,5-5S185.8,950,183,950z"/>
		<path class="st5" d="M138,956l33,0c4.4,0,8-3.6,8-8s-3.6-8-8-8s-8,3.6-8,8c0,1.1,0.9,2,2,2c1.1,0,2-0.9,2-2c0-2.2,1.8-4,4-4
			s4,1.8,4,4s-1.8,4-4,4l-33,0c-1.1,0-2,0.9-2,2C136,955.1,136.9,956,138,956z"/>
	</g>
	<g>
		<path class="st5" d="M24,1052h42c1.1,0,2-0.9,2-2s-0.9-2-2-2H24c-1.1,0-2,0.9-2,2S22.9,1052,24,1052z"/>
		<path class="st5" d="M66,1056H27c-1.1,0-2,0.9-2,2s0.9,2,2,2h39c1.1,0,2-0.9,2-2S67.1,1056,66,1056z"/>
		<path class="st5" d="M62,1066c0-1.1-0.9-2-2-2H24c-1.1,0-2,0.9-2,2s0.9,2,2,2h36C61.1,1068,62,1067.1,62,1066z"/>
		<path class="st5" d="M66,1072H33c-1.1,0-2,0.9-2,2s0.9,2,2,2h33c1.1,0,2-0.9,2-2S67.1,1072,66,1072z"/>
		<path class="st5" d="M60,1080H42c-1.1,0-2,0.9-2,2s0.9,2,2,2h18c1.1,0,2-0.9,2-2S61.1,1080,60,1080z"/>
		<path class="st5" d="M54,1088H42c-1.1,0-2,0.9-2,2s0.9,2,2,2h12c1.1,0,2-0.9,2-2S55.1,1088,54,1088z"/>
		<path class="st5" d="M48,1096h-6c-1.1,0-2,0.9-2,2s0.9,2,2,2h6c1.1,0,2-0.9,2-2S49.1,1096,48,1096z"/>
	</g>
	<g>
		<path class="st2" d="M276,1084c-2.8,0-5,2.2-5,5s2.2,5,5,5s5-2.2,5-5S278.8,1084,276,1084z M276,1090c-0.6,0-1-0.4-1-1s0.4-1,1-1
			c0.6,0,1,0.4,1,1S276.6,1090,276,1090z"/>
		<path class="st2" d="M284,1081.5l0-25.5c0-4.4-3.6-8-8-8s-8,3.6-8,8l0,25.5c-1.9,2-3,4.7-3,7.5c0,6.1,4.9,11,11,11s11-4.9,11-11
			C287,1086.2,285.9,1083.5,284,1081.5z M276,1096c-3.9,0-7-3.1-7-7c0-2,0.8-3.9,2.3-5.2c0.4-0.4,0.7-0.9,0.7-1.5l0-26.3
			c0-2.2,1.8-4,4-4c2.2,0,4,1.8,4,4l0,26.3c0,0.6,0.2,1.1,0.7,1.5c1.5,1.3,2.3,3.2,2.3,5.2C283,1092.9,279.9,1096,276,1096z"/>
	</g>
	<g>
		<path class="st2" d="M162,1100c-6.1,0-11-4.9-11-11c0-2.8,1.1-5.5,3-7.5l0-25.5c0-4.4,3.6-8,8-8s8,3.6,8,8l0,25.5
			c1.9,2,3,4.7,3,7.5C173,1095.1,168.1,1100,162,1100L162,1100z M162,1052c-2.2,0-4,1.8-4,4l0,26.3c0,0.6-0.2,1.1-0.7,1.5
			c-1.5,1.3-2.3,3.2-2.3,5.2c0,3.9,3.1,7,7,7c3.9,0,7-3.1,7-7c0-2-0.8-3.9-2.3-5.2c-0.4-0.4-0.7-0.9-0.7-1.5l0-26.3
			C166,1053.8,164.2,1052,162,1052L162,1052z"/>
	</g>
	<g>
		<path class="st5" d="M392,1084.4V1073c0-1.1-0.9-2-2-2c-1.1,0-2,0.9-2,2v11.4c-1.8,0.8-3,2.5-3,4.6c0,2.8,2.2,5,5,5s5-2.2,5-5
			C395,1087,393.8,1085.2,392,1084.4z M390,1090c-0.6,0-1-0.4-1-1s0.4-1,1-1c0.6,0,1,0.4,1,1S390.6,1090,390,1090z"/>
		<path class="st5" d="M398,1081.5l0-25.5c0-4.4-3.6-8-8-8s-8,3.6-8,8l0,25.5c-1.9,2-3,4.7-3,7.5c0,6.1,4.9,11,11,11s11-4.9,11-11
			C401,1086.2,399.9,1083.5,398,1081.5z M390,1096c-3.9,0-7-3.1-7-7c0-2,0.8-3.9,2.3-5.2c0.4-0.4,0.7-0.9,0.7-1.5l0-26.3
			c0-2.2,1.8-4,4-4c2.2,0,4,1.8,4,4l0,26.3c0,0.6,0.2,1.1,0.7,1.5c1.5,1.3,2.3,3.2,2.3,5.2C397,1092.9,393.9,1096,390,1096z"/>
	</g>
	<g>
		<path class="st6" d="M506,1084.4V1056c0-1.1-0.9-2-2-2c-1.1,0-2,0.9-2,2v28.4c-1.8,0.8-3,2.5-3,4.6c0,2.8,2.2,5,5,5
			c2.8,0,5-2.2,5-5C509,1087,507.8,1085.2,506,1084.4z M504,1090c-0.6,0-1-0.4-1-1s0.4-1,1-1c0.6,0,1,0.4,1,1S504.6,1090,504,1090z"
			/>
		<path class="st6" d="M512,1081.5l0-25.5c0-4.4-3.6-8-8-8s-8,3.6-8,8l0,25.5c-1.9,2-3,4.7-3,7.5c0,6.1,4.9,11,11,11s11-4.9,11-11
			C515,1086.2,513.9,1083.5,512,1081.5z M504,1096c-3.9,0-7-3.1-7-7c0-2,0.8-3.9,2.3-5.2c0.4-0.4,0.7-0.9,0.7-1.5l0-26.3
			c0-2.2,1.8-4,4-4c2.2,0,4,1.8,4,4l0,26.3c0,0.6,0.2,1.1,0.7,1.5c1.5,1.3,2.3,3.2,2.3,5.2C511,1092.9,507.9,1096,504,1096z"/>
	</g>
	<path class="st6" d="M536-71.1c0-0.1,0-0.1,0-0.2c0-0.1,0-0.1,0-0.2c0-0.1,0-0.1-0.1-0.2c0-0.1,0-0.1-0.1-0.2c0,0,0,0,0-0.1
		c0,0,0-0.1-0.1-0.1c0-0.1-0.1-0.1-0.1-0.2c0-0.1-0.1-0.1-0.1-0.2c0,0-0.1-0.1-0.1-0.1c-0.1,0-0.1-0.1-0.2-0.1c0,0-0.1-0.1-0.1-0.1
		c-0.1,0-0.1-0.1-0.2-0.1c-0.1,0-0.1-0.1-0.2-0.1c-0.1,0-0.1,0-0.2-0.1c-0.1,0-0.1,0-0.2,0c-0.1,0-0.2,0-0.2,0c0,0-0.1,0-0.1,0h-4
		c0-2.8-2.2-5-5-5h-14c-1.4,0-2.7,0.6-3.6,1.5c-0.3,0.3-0.5,0.7-0.7,1c-0.8-0.4-1.7-0.6-2.7-0.6s-1.8,0.2-2.7,0.6
		c-0.2-0.4-0.4-0.7-0.7-1c-0.9-1-2.2-1.5-3.6-1.5h-14c-2.8,0-5,2.2-5,5h-4c0,0-0.1,0-0.1,0c-0.1,0-0.1,0-0.2,0c-0.1,0-0.1,0-0.2,0
		c-0.1,0-0.1,0-0.2,0.1c-0.1,0-0.1,0.1-0.2,0.1c-0.1,0-0.1,0.1-0.2,0.1c-0.1,0-0.1,0.1-0.2,0.1c-0.1,0-0.1,0.1-0.2,0.1
		c0,0-0.1,0.1-0.1,0.1c0,0-0.1,0.1-0.1,0.1c0,0.1-0.1,0.1-0.1,0.2c0,0,0,0.1-0.1,0.1c0,0,0,0,0,0.1c0,0.1-0.1,0.1-0.1,0.2
		c0,0.1,0,0.1-0.1,0.2c0,0.1,0,0.1,0,0.2c0,0.1,0,0.1,0,0.2c0,0,0,0,0,0.1c0,0,0,0.1,0,0.1c0,0.1,0,0.1,0,0.2c0,0.1,0,0.1,0,0.2
		c0,0.1,0,0.1,0.1,0.2c0,0.1,0,0.1,0.1,0.2c0,0.1,0.1,0.1,0.1,0.2c0,0.1,0.1,0.1,0.1,0.2c0,0.1,0.1,0.1,0.1,0.2c0,0,0.1,0.1,0.1,0.1
		c0,0,0.1,0.1,0.1,0.1c0.1,0,0.1,0.1,0.2,0.1c0,0,0.1,0,0.1,0.1l4.9,2.5c0.1,6,5,10.8,11,10.8c5,0,11-2.5,12.6-13.6
		c0-0.1,0-0.1,0-0.2c0-0.2,0.1-0.4,0.1-0.7C502-71.3,503-72,504-72c1,0,2,0.7,2.3,1.6c0,0.2,0.1,0.5,0.1,0.7c0,0.1,0,0.1,0,0.2
		C508-58.5,514-56,519-56c6,0,10.9-4.8,11-10.8l4.9-2.5c0,0,0.1,0,0.1-0.1c0.1,0,0.1-0.1,0.2-0.1c0.1,0,0.1-0.1,0.2-0.1
		c0,0,0.1-0.1,0.1-0.1c0-0.1,0.1-0.1,0.1-0.2c0,0,0.1-0.1,0.1-0.1c0-0.1,0.1-0.1,0.1-0.2c0-0.1,0.1-0.1,0.1-0.2c0-0.1,0-0.1,0.1-0.2
		c0-0.1,0-0.1,0-0.2c0-0.1,0-0.1,0-0.2C536-70.9,536-71,536-71.1C536-71,536-71,536-71.1z M490.4-70.6l-5,5
		c-0.4,0.4-0.9,0.6-1.4,0.6c-0.5,0-1-0.2-1.4-0.6c-0.8-0.8-0.8-2,0-2.8l5-5c0.8-0.8,2-0.8,2.8,0C491.2-72.6,491.2-71.4,490.4-70.6z
		 M519.4-70.6l-5,5c-0.4,0.4-0.9,0.6-1.4,0.6s-1-0.2-1.4-0.6c-0.8-0.8-0.8-2,0-2.8l5-5c0.8-0.8,2-0.8,2.8,0
		C520.2-72.6,520.2-71.4,519.4-70.6z"/>
	<path class="st5" d="M78.5,1171.1l-24-6c0,0-0.1,0-0.1,0c-0.1,0-0.2,0-0.3,0c-0.1,0-0.1,0-0.1,0c-0.1,0-0.2,0-0.3,0
		c0,0-0.1,0-0.1,0c-0.1,0-0.3,0.1-0.4,0.1c0,0,0,0,0,0c-0.1,0.1-0.2,0.1-0.4,0.2L44,1172v-6.4c1.8-0.8,3-2.5,3-4.6c0-2.8-2.2-5-5-5
		s-5,2.2-5,5c0,2,1.2,3.8,3,4.6v50.4H18c-1.1,0-2,0.9-2,2s0.9,2,2,2h48c1.1,0,2-0.9,2-2s-0.9-2-2-2H44v-36l8.8,6.6
		c0.1,0.1,0.2,0.1,0.3,0.2c0.1,0,0.1,0.1,0.2,0.1c0.2,0.1,0.4,0.1,0.6,0.1c0,0,0,0,0,0h0c0,0,0,0,0,0c0.2,0,0.3,0,0.4-0.1
		c0,0,0,0,0,0l24-6c0.9-0.2,1.5-1,1.5-1.9v-6C80,1172.1,79.4,1171.3,78.5,1171.1z M52,1181l-6.7-5l6.7-5V1181z M42,1160
		c0.6,0,1,0.4,1,1s-0.4,1-1,1s-1-0.4-1-1S41.4,1160,42,1160z M56,1169.6l8,2v8.9l-8,2V1169.6z M76,1177.4l-8,2v-6.9l8,2V1177.4z"/>
	<path class="st2" d="M303,1201.3l-6.2-3.6l3.5-0.9c1.1-0.3,1.7-1.4,1.4-2.4c-0.3-1.1-1.4-1.7-2.4-1.4l-7.4,2l-5.5-3.2l6.5-1.8
		c0.8-0.2,1.4-0.9,1.5-1.8c0.1-0.9-0.4-1.6-1.2-2l-5.8-2.4l4.5-2.6l7.4,2c0.2,0,0.3,0.1,0.5,0.1c0.9,0,1.7-0.6,1.9-1.5
		c0.3-1.1-0.3-2.2-1.4-2.4l-3.5-0.9l6.2-3.6c1-0.6,1.3-1.8,0.7-2.7c-0.6-1-1.8-1.3-2.7-0.7l-6.2,3.6l0.9-3.5
		c0.3-1.1-0.3-2.2-1.4-2.4c-1.1-0.3-2.2,0.3-2.4,1.4l-2,7.4l-4.5,2.6l0.8-6.2c0.1-0.8-0.3-1.6-1-2c-0.7-0.4-1.6-0.3-2.2,0.1l-5,3.8
		v-5.2l5.4-5.4c0.8-0.8,0.8-2,0-2.8c-0.8-0.8-2-0.8-2.8,0l-2.6,2.6v-7.2c0-1.1-0.9-2-2-2s-2,0.9-2,2v7.2l-2.6-2.6
		c-0.8-0.8-2-0.8-2.8,0c-0.8,0.8-0.8,2,0,2.8l5.4,5.4v5.2l-5-3.8c-0.7-0.5-1.6-0.5-2.3-0.1c-0.7,0.5-1,1.4-0.8,2.2l1.8,6.5l-5.5-3.2
		l-2-7.4c-0.3-1.1-1.4-1.7-2.4-1.4c-1.1,0.3-1.7,1.4-1.4,2.4l0.9,3.5l-6.2-3.6c-1-0.6-2.2-0.2-2.7,0.7c-0.6,1-0.2,2.2,0.7,2.7
		l6.2,3.6l-3.5,0.9c-1.1,0.3-1.7,1.4-1.4,2.4c0.2,0.9,1,1.5,1.9,1.5c0.2,0,0.3,0,0.5-0.1l7.4-2l5.5,3.2l-6.5,1.8
		c-0.8,0.2-1.4,0.9-1.5,1.8c-0.1,0.9,0.4,1.6,1.2,2l5.8,2.4l-4.5,2.6l-7.4-2c-1.1-0.3-2.2,0.3-2.4,1.4c-0.3,1.1,0.3,2.2,1.4,2.4
		l3.5,0.9l-6.2,3.6c-1,0.6-1.3,1.8-0.7,2.7c0.4,0.6,1,1,1.7,1c0.3,0,0.7-0.1,1-0.3l6.2-3.6l-0.9,3.5c-0.3,1.1,0.3,2.2,1.4,2.4
		c0.2,0,0.3,0.1,0.5,0.1c0.9,0,1.7-0.6,1.9-1.5l2-7.4l4.5-2.6l-0.8,6.2c-0.1,0.8,0.3,1.6,1,2c0.7,0.4,1.6,0.3,2.2-0.1l5-3.8v5.2
		l-5.4,5.4c-0.8,0.8-0.8,2,0,2.8c0.8,0.8,2,0.8,2.8,0l2.6-2.6v7.2c0,1.1,0.9,2,2,2s2-0.9,2-2v-7.2l2.6,2.6c0.4,0.4,0.9,0.6,1.4,0.6
		s1-0.2,1.4-0.6c0.8-0.8,0.8-2,0-2.8l-5.4-5.4v-5.2l5,3.8c0.4,0.3,0.8,0.4,1.2,0.4c0.4,0,0.8-0.1,1.1-0.3c0.7-0.5,1-1.4,0.8-2.2
		l-1.8-6.5l5.5,3.2l2,7.4c0.2,0.9,1,1.5,1.9,1.5c0.2,0,0.3,0,0.5-0.1c1.1-0.3,1.7-1.4,1.4-2.4l-0.9-3.5l6.2,3.6
		c0.3,0.2,0.7,0.3,1,0.3c0.7,0,1.4-0.4,1.7-1C304.3,1203,303.9,1201.8,303,1201.3z M286.2,1187.6l-4.8,1.3l-1.5-0.9l3.1-1.8
		L286.2,1187.6z M281.6,1178.3l-0.6,4.5l-3.1,1.8v-3.5L281.6,1178.3z M271.2,1178.9l2.8,2.1v3.5l-1.5-0.9L271.2,1178.9z
		 M265.7,1188.4l4.8-1.3l1.5,0.9l-3.1,1.8L265.7,1188.4z M270.4,1197.7l0.6-4.5l3.1-1.8v3.5L270.4,1197.7z M280.8,1197.1l-2.8-2.1
		v-3.5l1.5,0.9L280.8,1197.1z"/>
	<g>
		<path class="st5" d="M186,1166c1.1,0,2-0.9,2-2s-0.9-2-2-2c-7,0-12.9,5.2-13.8,12h-2c1-7.9,7.7-14,15.9-14c1.1,0,2-0.9,2-2
			s-0.9-2-2-2c-10.4,0-18.9,7.9-19.9,18H158v-10c0-1.5-0.4-2.9-1.1-4.1l1.5-1.5c0.8-0.8,0.8-2,0-2.8c-0.8-0.8-2-0.8-2.8,0l-1.5,1.5
			c-0.6-0.4-1.3-0.7-2.1-0.9v-2.3c0-1.1-0.9-2-2-2c-1.1,0-2,0.9-2,2v2.3c-0.7,0.2-1.4,0.5-2.1,0.9l-1.5-1.5c-0.8-0.8-2-0.8-2.8,0
			c-0.8,0.8-0.8,2,0,2.8l1.5,1.5c-0.5,0.9-0.9,2-1,3.1H138c-0.9,0-1.7,0.6-1.9,1.5c-0.2,0.9,0.2,1.8,1.1,2.2l4.9,2.4v6.8
			c0,10.4,7.9,18.9,18,19.9v10.1h-17.2l2.6-2.6c0.8-0.8,0.8-2,0-2.8c-0.8-0.8-2-0.8-2.8,0l-6,6c-0.1,0.1-0.2,0.2-0.2,0.3
			c0,0-0.1,0.1-0.1,0.1c0,0.1-0.1,0.1-0.1,0.2c0,0.1,0,0.1-0.1,0.2c0,0.1,0,0.1-0.1,0.2c-0.1,0.3-0.1,0.5,0,0.8c0,0.1,0,0.1,0.1,0.2
			c0,0.1,0,0.1,0.1,0.2c0,0.1,0.1,0.1,0.1,0.2c0,0,0,0.1,0.1,0.1c0.1,0.1,0.2,0.2,0.2,0.3l6,6c0.4,0.4,0.9,0.6,1.4,0.6
			s1-0.2,1.4-0.6c0.8-0.8,0.8-2,0-2.8l-2.6-2.6H160v12c0,1.1,0.9,2,2,2c1.1,0,2-0.9,2-2v-12h15.2l5.4,5.4c0.4,0.4,0.9,0.6,1.4,0.6
			s1-0.2,1.4-0.6c0.8-0.8,0.8-2,0-2.8l-4.6-4.6l4.6-4.6c0.8-0.8,0.8-2,0-2.8c-0.8-0.8-2-0.8-2.8,0l-5.4,5.4H164v-10.1
			c10.1-1,18-9.5,18-19.9c0-2.2,1.8-4,4-4c1.1,0,2-0.9,2-2s-0.9-2-2-2c-3.7,0-6.8,2.6-7.7,6h-2.1C177.1,1169.4,181.2,1166,186,1166z
			 M165.4,1178c-0.7,1.2-2,2-3.4,2c-1.5,0-2.8-0.8-3.4-2H165.4z M177.9,1178c-1,7.9-7.7,14-15.9,14c-8.8,0-16-7.2-16-16v-12
			c0-2.2,1.8-4,4-4s4,1.8,4,4v12c0,0,0,0,0,0c0,4.4,3.6,8,8,8c3.7,0,6.8-2.6,7.7-6H177.9z"/>
		<circle class="st6" cx="150" cy="1164" r="2"/>
	</g>
	<g>
		<path class="st1" d="M48-308c-7.7,0-14,6.3-14,14s6.3,14,14,14s14-6.3,14-14S55.7-308,48-308z"/>
		<polygon class="st1" points="48,-320.5 52.9,-312 43.1,-312 		"/>
		<polygon class="st1" points="48,-267.6 43.1,-276 52.9,-276 		"/>
		<polygon class="st1" points="21.5,-294 30,-298.9 30,-289.1 		"/>
		<polygon class="st1" points="74.6,-294 66.1,-289.1 66.1,-298.9 		"/>
		<polygon class="st1" points="64.7,-310.8 63,-305.2 59.2,-309.1 		"/>
		<polygon class="st1" points="31.2,-277.2 32.9,-282.8 36.7,-278.9 		"/>
		<polygon class="st1" points="31.2,-310.8 36.7,-309.1 32.9,-305.2 		"/>
		<polygon class="st1" points="64.7,-277.2 59.2,-278.9 63,-282.8 		"/>
	</g>
	<path class="st4" d="M180,40c-0.5,0-1.1,0.1-1.7,0.2C176.2,33,169.7,28,162,28c-7.7,0-14.2,5-16.3,12.2c-0.6-0.1-1.2-0.2-1.7-0.2
		c-6.1,0-11,4.9-11,11s4.9,11,11,11h36c6.1,0,11-4.9,11-11S186.1,40,180,40z"/>
	<path class="st4" d="M294,40c-0.5,0-1.1,0.1-1.7,0.2C290.2,33,283.7,28,276,28c-7.7,0-14.2,5-16.3,12.2c-0.6-0.1-1.2-0.2-1.7-0.2
		c-6.1,0-11,4.9-11,11s4.9,11,11,11h36c6.1,0,11-4.9,11-11S300.1,40,294,40z"/>
	<g>
		<path class="st2" d="M381,72c-1.1,0-2,0.9-2,2v4c0,1.1,0.9,2,2,2c1.1,0,2-0.9,2-2v-4C383,72.9,382.1,72,381,72z"/>
		<path class="st2" d="M390,78c-1.1,0-2,0.9-2,2v4c0,1.1,0.9,2,2,2c1.1,0,2-0.9,2-2v-4C392,78.9,391.1,78,390,78z"/>
		<path class="st2" d="M390,66c-1.1,0-2,0.9-2,2v4c0,1.1,0.9,2,2,2c1.1,0,2-0.9,2-2v-4C392,66.9,391.1,66,390,66z"/>
		<path class="st2" d="M399,72c-1.1,0-2,0.9-2,2v4c0,1.1,0.9,2,2,2c1.1,0,2-0.9,2-2v-4C401,72.9,400.1,72,399,72z"/>
		<path class="st2" d="M417.7,45.8c-0.3-0.6-0.7-1.2-1.2-1.8c-1.3-1.6-3.2-2.9-5.2-3.5c-1-0.3-2.1-0.5-3.3-0.5
			c-0.5,0-1.1,0.1-1.7,0.2c-0.9-3.1-2.7-5.9-5-7.9c-0.3-0.3-0.7-0.6-1-0.8c-0.7-0.5-1.5-1-2.3-1.4c-2.4-1.3-5.1-2-8-2
			c-7.7,0-14.2,5-16.3,12.2c-0.6-0.1-1.2-0.2-1.7-0.2c-1.1,0-2.2,0.2-3.3,0.5c-2.1,0.6-3.9,1.9-5.2,3.5c-0.4,0.5-0.8,1.1-1.2,1.8
			c-0.8,1.6-1.3,3.3-1.3,5.2s0.5,3.7,1.3,5.2c0.3,0.6,0.7,1.2,1.2,1.8c1.3,1.6,3.2,2.9,5.2,3.5c1,0.3,2.1,0.5,3.3,0.5h7v4
			c0,1.1,0.9,2,2,2c1.1,0,2-0.9,2-2v-4h14v4c0,1.1,0.9,2,2,2c1.1,0,2-0.9,2-2v-4h7c1.1,0,2.2-0.2,3.3-0.5c2.1-0.6,3.9-1.9,5.2-3.5
			c0.4-0.5,0.8-1.1,1.2-1.8c0.8-1.6,1.3-3.3,1.3-5.2S418.5,47.3,417.7,45.8z"/>
	</g>
	<g>
		<path class="st2" d="M495,72c-1.1,0-2,0.9-2,2v4c0,1.1,0.9,2,2,2c1.1,0,2-0.9,2-2v-4C497,72.9,496.1,72,495,72z"/>
		<path class="st2" d="M504,78c-1.1,0-2,0.9-2,2v4c0,1.1,0.9,2,2,2c1.1,0,2-0.9,2-2v-4C506,78.9,505.1,78,504,78z"/>
		<path class="st2" d="M504,66c-1.1,0-2,0.9-2,2v4c0,1.1,0.9,2,2,2c1.1,0,2-0.9,2-2v-4C506,66.9,505.1,66,504,66z"/>
		<path class="st2" d="M513,72c-1.1,0-2,0.9-2,2v4c0,1.1,0.9,2,2,2c1.1,0,2-0.9,2-2v-4C515,72.9,514.1,72,513,72z"/>
		<path class="st2" d="M531.7,45.8c-0.3-0.6-0.7-1.2-1.2-1.8c-1.3-1.6-3.2-2.9-5.2-3.5c-1-0.3-2.1-0.5-3.3-0.5
			c-0.5,0-1.1,0.1-1.7,0.2c-0.9-3.1-2.7-5.9-5-7.9c-0.3-0.3-0.7-0.6-1-0.8c-0.7-0.5-1.5-1-2.3-1.4c-2.4-1.3-5.1-2-8-2
			c-7.7,0-14.2,5-16.3,12.2c-0.6-0.1-1.2-0.2-1.7-0.2c-1.1,0-2.2,0.2-3.3,0.5c-2.1,0.6-3.9,1.9-5.2,3.5c-0.4,0.5-0.8,1.1-1.2,1.8
			c-0.8,1.6-1.3,3.3-1.3,5.2s0.5,3.7,1.3,5.2c0.3,0.6,0.7,1.2,1.2,1.8c1.3,1.6,3.2,2.9,5.2,3.5c1,0.3,2.1,0.5,3.3,0.5h7v4
			c0,1.1,0.9,2,2,2c1.1,0,2-0.9,2-2v-4h14v4c0,1.1,0.9,2,2,2c1.1,0,2-0.9,2-2v-4h7c1.1,0,2.2-0.2,3.3-0.5c2.1-0.6,3.9-1.9,5.2-3.5
			c0.4-0.5,0.8-1.1,1.2-1.8c0.8-1.6,1.3-3.3,1.3-5.2S532.5,47.3,531.7,45.8z"/>
	</g>
	<g>
		<path class="st2" d="M39,186c-1.1,0-2,0.9-2,2v4c0,1.1,0.9,2,2,2c1.1,0,2-0.9,2-2v-4C41,186.9,40.1,186,39,186z"/>
		<path class="st2" d="M48,192c-1.1,0-2,0.9-2,2v4c0,1.1,0.9,2,2,2s2-0.9,2-2v-4C50,192.9,49.1,192,48,192z"/>
		<path class="st2" d="M48,180c-1.1,0-2,0.9-2,2v4c0,1.1,0.9,2,2,2s2-0.9,2-2v-4C50,180.9,49.1,180,48,180z"/>
		<path class="st2" d="M57,186c-1.1,0-2,0.9-2,2v4c0,1.1,0.9,2,2,2c1.1,0,2-0.9,2-2v-4C59,186.9,58.1,186,57,186z"/>
		<path class="st2" d="M75.7,159.8c-0.3-0.6-0.7-1.2-1.2-1.8c-1.3-1.6-3.2-2.9-5.2-3.5c-1-0.3-2.1-0.5-3.3-0.5
			c-0.5,0-1.1,0.1-1.7,0.2c-0.9-3.1-2.7-5.9-5-7.9c-0.3-0.3-0.7-0.6-1-0.8c-0.7-0.5-1.5-1-2.3-1.4c-2.4-1.3-5.1-2-8-2
			c-7.7,0-14.2,5-16.3,12.2c-0.6-0.1-1.2-0.2-1.7-0.2c-1.1,0-2.2,0.2-3.3,0.5c-2.1,0.6-3.9,1.9-5.2,3.5c-0.4,0.5-0.8,1.1-1.2,1.8
			c-0.8,1.6-1.3,3.3-1.3,5.2s0.5,3.7,1.3,5.2c0.3,0.6,0.7,1.2,1.2,1.8c1.3,1.6,3.2,2.9,5.2,3.5c1,0.3,2.1,0.5,3.3,0.5h7v4
			c0,1.1,0.9,2,2,2c1.1,0,2-0.9,2-2v-4h14v4c0,1.1,0.9,2,2,2c1.1,0,2-0.9,2-2v-4h7c1.1,0,2.2-0.2,3.3-0.5c2.1-0.6,3.9-1.9,5.2-3.5
			c0.4-0.5,0.8-1.1,1.2-1.8c0.8-1.6,1.3-3.3,1.3-5.2S76.5,161.3,75.7,159.8z"/>
	</g>
	<g>
		<path class="st2" d="M390,178c-1.1,0-2,0.9-2,2v18c0,1.1,0.9,2,2,2c1.1,0,2-0.9,2-2v-18C392,178.9,391.1,178,390,178z"/>
		<path class="st2" d="M417.7,159.8c-0.3-0.6-0.7-1.2-1.2-1.8c-1.3-1.6-3.2-2.9-5.2-3.5c-1-0.3-2.1-0.5-3.3-0.5
			c-0.5,0-1.1,0.1-1.7,0.2c-2.1-7.2-8.6-12.2-16.3-12.2c-7.7,0-14.2,5-16.3,12.2c-0.6-0.1-1.2-0.2-1.7-0.2c-1.1,0-2.2,0.2-3.3,0.5
			c-2.1,0.6-3.9,1.9-5.2,3.5c-0.4,0.5-0.8,1.1-1.2,1.8c-0.8,1.6-1.3,3.3-1.3,5.2s0.5,3.7,1.3,5.2c0.3,0.6,0.7,1.2,1.2,1.8
			c1.3,1.6,3.2,2.9,5.2,3.5c1,0.3,2.1,0.5,3.3,0.5h7v16c0,1.1,0.9,2,2,2c1.1,0,2-0.9,2-2v-16h14v16c0,1.1,0.9,2,2,2c1.1,0,2-0.9,2-2
			v-16h7c1.1,0,2.2-0.2,3.3-0.5c2.1-0.6,3.9-1.9,5.2-3.5c0.4-0.5,0.8-1.1,1.2-1.8c0.8-1.6,1.3-3.3,1.3-5.2S418.5,161.3,417.7,159.8z
			"/>
	</g>
	<g>
		<circle class="st2" cx="39" cy="294" r="2"/>
		<circle class="st2" cx="57" cy="294" r="2"/>
		<circle class="st2" cx="48" cy="300" r="2"/>
		<circle class="st2" cx="57" cy="306" r="2"/>
		<circle class="st2" cx="48" cy="312" r="2"/>
		<circle class="st2" cx="39" cy="306" r="2"/>
		<path class="st2" d="M75.7,273.8c-0.3-0.6-0.7-1.2-1.2-1.8c-1.3-1.6-3.2-2.9-5.2-3.5c-1-0.3-2.1-0.5-3.3-0.5c-0.3,0-0.5,0-0.8,0.1
			c-0.3,0-0.6,0.1-0.9,0.1c-0.9-3.1-2.7-5.9-5-7.9c-0.3-0.3-0.7-0.6-1-0.8c-0.7-0.5-1.5-1-2.3-1.4c-2.4-1.3-5.1-2-8-2
			c-7.7,0-14.2,5-16.3,12.2c-0.1,0-0.1,0-0.2,0c-0.5-0.1-1-0.2-1.5-0.2c-1.1,0-2.2,0.2-3.3,0.5c-2.1,0.6-3.9,1.9-5.2,3.5
			c-0.4,0.5-0.8,1.1-1.2,1.8c-0.8,1.6-1.3,3.3-1.3,5.2s0.5,3.7,1.3,5.2c0.3,0.6,0.7,1.2,1.2,1.8c1.3,1.6,3.2,2.9,5.2,3.5
			c1,0.3,2.1,0.5,3.3,0.5h36c1.1,0,2.2-0.2,3.3-0.5c2.1-0.6,3.9-1.9,5.2-3.5c0.4-0.5,0.8-1.1,1.2-1.8c0.8-1.6,1.3-3.3,1.3-5.2
			S76.5,275.3,75.7,273.8z"/>
	</g>
	<g>
		<circle class="st2" cx="153" cy="294" r="2"/>
		<circle class="st2" cx="171" cy="294" r="2"/>
		<circle class="st2" cx="162" cy="300" r="2"/>
		<circle class="st2" cx="171" cy="306" r="2"/>
		<circle class="st2" cx="162" cy="312" r="2"/>
		<circle class="st2" cx="153" cy="306" r="2"/>
		<path class="st2" d="M189.7,273.8c-0.3-0.6-0.7-1.2-1.2-1.8c-1.3-1.6-3.2-2.9-5.2-3.5c-1-0.3-2.1-0.5-3.3-0.5
			c-0.3,0-0.5,0-0.8,0.1c-0.3,0-0.6,0.1-0.9,0.1c-0.9-3.1-2.7-5.9-5-7.9c-0.3-0.3-0.7-0.6-1-0.8c-0.7-0.5-1.5-1-2.3-1.4
			c-2.4-1.3-5.1-2-8-2c-7.7,0-14.2,5-16.3,12.2c-0.1,0-0.1,0-0.2,0c-0.5-0.1-1-0.2-1.5-0.2c-1.1,0-2.2,0.2-3.3,0.5
			c-2.1,0.6-3.9,1.9-5.2,3.5c-0.4,0.5-0.8,1.1-1.2,1.8c-0.8,1.6-1.3,3.3-1.3,5.2s0.5,3.7,1.3,5.2c0.3,0.6,0.7,1.2,1.2,1.8
			c1.3,1.6,3.2,2.9,5.2,3.5c1,0.3,2.1,0.5,3.3,0.5h36c1.1,0,2.2-0.2,3.3-0.5c2.1-0.6,3.9-1.9,5.2-3.5c0.4-0.5,0.8-1.1,1.2-1.8
			c0.8-1.6,1.3-3.3,1.3-5.2S190.5,275.3,189.7,273.8z"/>
	</g>
	<g>
		<g>
			<polyline class="st1" points="266.8,286.6 259.8,299.7 264.9,299.6 259.1,311 271.4,296.8 265.1,296.9 274,286.6 			"/>
			<polyline class="st1" points="279.6,281.7 272.6,294.8 277.8,294.7 272,306.1 284.2,291.9 278,292 286.8,281.7 			"/>
		</g>
		<path class="st4" d="M294,268c-0.5,0-1.1,0.1-1.7,0.2c-2.1-7.2-8.6-12.2-16.3-12.2c-7.7,0-14.2,5-16.3,12.2
			c-0.6-0.1-1.2-0.2-1.7-0.2c-6.1,0-11,4.9-11,11s4.9,11,11,11h36c6.1,0,11-4.9,11-11S300.1,268,294,268z"/>
	</g>
	<path class="st4" d="M408,268c-0.5,0-1.1,0.1-1.7,0.2c-2.1-7.2-8.6-12.2-16.3-12.2c-7.7,0-14.2,5-16.3,12.2
		c-0.6-0.1-1.2-0.2-1.7-0.2c-6.1,0-11,4.9-11,11s4.9,11,11,11h36c6.1,0,11-4.9,11-11S414.1,268,408,268z"/>
	<path class="st1" d="M522,268c-0.5,0-1.1,0.1-1.7,0.2c-2.1-7.2-8.6-12.2-16.3-12.2c-7.7,0-14.2,5-16.3,12.2
		c-0.6-0.1-1.2-0.2-1.7-0.2c-6.1,0-11,4.9-11,11s4.9,11,11,11h11.3l-3.9,5.9c-0.4,0.6-0.4,1.4-0.1,2.1c0.3,0.7,1,1.1,1.8,1.1h2.3
		l-3.9,5.9c-0.6,0.9-0.4,2.2,0.6,2.8c0.3,0.2,0.7,0.3,1.1,0.3c0.6,0,1.3-0.3,1.7-0.9l6-9c0.4-0.6,0.4-1.4,0.1-2.1
		c-0.3-0.7-1-1.1-1.8-1.1h-2.3l3.3-5h5.2l-1.9,2.9c-0.4,0.6-0.4,1.4-0.1,2.1c0.3,0.7,1,1.1,1.8,1.1h2.3l-1.9,2.9
		c-0.6,0.9-0.4,2.2,0.6,2.8c0.3,0.2,0.7,0.3,1.1,0.3c0.6,0,1.3-0.3,1.7-0.9l4-6c0.4-0.6,0.4-1.4,0.1-2.1c-0.3-0.7-1-1.1-1.8-1.1
		h-2.3l1.3-2h9.9c6.1,0,11-4.9,11-11S528.1,268,522,268z M522,286h-36c-3.9,0-7-3.1-7-7s3.1-7,7-7c0.3,0,0.7,0.1,1.2,0.2v1.8
		c0,1.1,0.9,2,2,2s2-0.9,2-2v-3.2c1.1-6.3,6.4-10.8,12.8-10.8c6.4,0,11.7,4.5,12.8,10.8v3.2c0,1.1,0.9,2,2,2s2-0.9,2-2v-1.8
		c0.5-0.1,0.9-0.2,1.2-0.2c3.9,0,7,3.1,7,7S525.9,286,522,286z"/>
	<path class="st4" d="M522,268c-0.5,0-1.1,0.1-1.7,0.2c-2.1-7.2-8.6-12.2-16.3-12.2c-7.7,0-14.2,5-16.3,12.2
		c-0.6-0.1-1.2-0.2-1.7-0.2c-6.1,0-11,4.9-11,11s4.9,11,11,11h36c6.1,0,11-4.9,11-11S528.1,268,522,268z"/>
	<g>
		<path class="st2" d="M157.7,411.7c-0.6-1-1.8-1.3-2.7-0.7c-1,0.6-1.3,1.8-0.7,2.7l1,1.7c0.4,0.6,1,1,1.7,1c0.3,0,0.7-0.1,1-0.3
			c1-0.6,1.3-1.8,0.7-2.7L157.7,411.7z"/>
		<path class="st2" d="M153,410.9c-1-0.6-2.2-0.2-2.7,0.7l-1,1.7c-0.6,1-0.2,2.2,0.7,2.7c0.3,0.2,0.7,0.3,1,0.3c0.7,0,1.4-0.4,1.7-1
			l1-1.7C154.3,412.7,154,411.5,153,410.9z"/>
		<path class="st2" d="M152,409.2c0-1.1-0.9-2-2-2h-2c-1.1,0-2,0.9-2,2c0,1.1,0.9,2,2,2h2C151.1,411.2,152,410.3,152,409.2z"/>
		<path class="st2" d="M160,407.2h-2c-1.1,0-2,0.9-2,2c0,1.1,0.9,2,2,2h2c1.1,0,2-0.9,2-2C162,408.1,161.1,407.2,160,407.2z"/>
		<path class="st2" d="M180,382c-0.5,0-1.1,0.1-1.7,0.2c-2.1-7.2-8.6-12.2-16.3-12.2c-7.7,0-14.2,5-16.3,12.2
			c-0.6-0.1-1.2-0.2-1.7-0.2c-6.1,0-11,4.9-11,11s4.9,11,11,11h5c0,0.3,0.1,0.7,0.3,1l1,1.7c0.4,0.6,1,1,1.7,1c0.3,0,0.7-0.1,1-0.3
			c1-0.6,1.3-1.8,0.7-2.7l-0.4-0.7h1.4l-0.4,0.7c-0.6,1-0.2,2.2,0.7,2.7c0.3,0.2,0.7,0.3,1,0.3c0.7,0,1.4-0.4,1.7-1l1-1.7
			c0.2-0.3,0.3-0.7,0.3-1h21c6.1,0,11-4.9,11-11S186.1,382,180,382z"/>
		<path class="st2" d="M174.7,416.7c-0.6-1-1.8-1.3-2.7-0.7c-1,0.6-1.3,1.8-0.7,2.7l1,1.7c0.4,0.6,1,1,1.7,1c0.3,0,0.7-0.1,1-0.3
			c1-0.6,1.3-1.8,0.7-2.7L174.7,416.7z"/>
		<path class="st2" d="M169.7,408c-0.6-1-1.8-1.3-2.7-0.7c-1,0.6-1.3,1.8-0.7,2.7l1,1.7c0.4,0.6,1,1,1.7,1c0.3,0,0.7-0.1,1-0.3
			c1-0.6,1.3-1.8,0.7-2.7L169.7,408z"/>
		<path class="st2" d="M172,412.5c0.3,0.2,0.7,0.3,1,0.3c0.7,0,1.4-0.4,1.7-1l1-1.7c0.6-1,0.2-2.2-0.7-2.7c-1-0.6-2.2-0.2-2.7,0.7
			l-1,1.7C170.7,410.7,171,411.9,172,412.5z"/>
		<path class="st2" d="M170,415.9c-1-0.6-2.2-0.2-2.7,0.7l-1,1.7c-0.6,1-0.2,2.2,0.7,2.7c0.3,0.2,0.7,0.3,1,0.3c0.7,0,1.4-0.4,1.7-1
			l1-1.7C171.3,417.7,171,416.5,170,415.9z"/>
		<path class="st2" d="M169,414.2c0-1.1-0.9-2-2-2h-2c-1.1,0-2,0.9-2,2c0,1.1,0.9,2,2,2h2C168.1,416.2,169,415.3,169,414.2z"/>
		<path class="st2" d="M177,412.2h-2c-1.1,0-2,0.9-2,2c0,1.1,0.9,2,2,2h2c1.1,0,2-0.9,2-2C179,413.1,178.1,412.2,177,412.2z"/>
	</g>
	<g>
		<path class="st2" d="M271.7,411.7c-0.6-1-1.8-1.3-2.7-0.7c-1,0.6-1.3,1.8-0.7,2.7l1,1.7c0.4,0.6,1,1,1.7,1c0.3,0,0.7-0.1,1-0.3
			c1-0.6,1.3-1.8,0.7-2.7L271.7,411.7z"/>
		<path class="st2" d="M267,410.9c-1-0.6-2.2-0.2-2.7,0.7l-1,1.7c-0.6,1-0.2,2.2,0.7,2.7c0.3,0.2,0.7,0.3,1,0.3c0.7,0,1.4-0.4,1.7-1
			l1-1.7C268.3,412.7,268,411.5,267,410.9z"/>
		<path class="st2" d="M266,409.2c0-1.1-0.9-2-2-2h-2c-1.1,0-2,0.9-2,2c0,1.1,0.9,2,2,2h2C265.1,411.2,266,410.3,266,409.2z"/>
		<path class="st2" d="M274,407.2h-2c-1.1,0-2,0.9-2,2c0,1.1,0.9,2,2,2h2c1.1,0,2-0.9,2-2C276,408.1,275.1,407.2,274,407.2z"/>
		<path class="st2" d="M294,382c-0.5,0-1.1,0.1-1.7,0.2c-2.1-7.2-8.6-12.2-16.3-12.2c-7.7,0-14.2,5-16.3,12.2
			c-0.6-0.1-1.2-0.2-1.7-0.2c-6.1,0-11,4.9-11,11s4.9,11,11,11h5c0,0.3,0.1,0.7,0.3,1l1,1.7c0.4,0.6,1,1,1.7,1c0.3,0,0.7-0.1,1-0.3
			c1-0.6,1.3-1.8,0.7-2.7l-0.4-0.7h1.4l-0.4,0.7c-0.6,1-0.2,2.2,0.7,2.7c0.3,0.2,0.7,0.3,1,0.3c0.7,0,1.4-0.4,1.7-1l1-1.7
			c0.2-0.3,0.3-0.7,0.3-1h21c6.1,0,11-4.9,11-11S300.1,382,294,382z"/>
		<path class="st2" d="M288.7,416.7c-0.6-1-1.8-1.3-2.7-0.7c-1,0.6-1.3,1.8-0.7,2.7l1,1.7c0.4,0.6,1,1,1.7,1c0.3,0,0.7-0.1,1-0.3
			c1-0.6,1.3-1.8,0.7-2.7L288.7,416.7z"/>
		<path class="st2" d="M283.7,408c-0.6-1-1.8-1.3-2.7-0.7c-1,0.6-1.3,1.8-0.7,2.7l1,1.7c0.4,0.6,1,1,1.7,1c0.3,0,0.7-0.1,1-0.3
			c1-0.6,1.3-1.8,0.7-2.7L283.7,408z"/>
		<path class="st2" d="M286,412.5c0.3,0.2,0.7,0.3,1,0.3c0.7,0,1.4-0.4,1.7-1l1-1.7c0.6-1,0.2-2.2-0.7-2.7c-1-0.6-2.2-0.2-2.7,0.7
			l-1,1.7C284.7,410.7,285,411.9,286,412.5z"/>
		<path class="st2" d="M284,415.9c-1-0.6-2.2-0.2-2.7,0.7l-1,1.7c-0.6,1-0.2,2.2,0.7,2.7c0.3,0.2,0.7,0.3,1,0.3c0.7,0,1.4-0.4,1.7-1
			l1-1.7C285.3,417.7,285,416.5,284,415.9z"/>
		<path class="st2" d="M283,414.2c0-1.1-0.9-2-2-2h-2c-1.1,0-2,0.9-2,2c0,1.1,0.9,2,2,2h2C282.1,416.2,283,415.3,283,414.2z"/>
		<path class="st2" d="M291,412.2h-2c-1.1,0-2,0.9-2,2c0,1.1,0.9,2,2,2h2c1.1,0,2-0.9,2-2C293,413.1,292.1,412.2,291,412.2z"/>
	</g>
	<g>
		<path class="st1" d="M394.6,406.6l-2.6,2.6V404c0-1.1-0.9-2-2-2c-1.1,0-2,0.9-2,2v5.2l-2.6-2.6c-0.8-0.8-2-0.8-2.8,0
			c-0.8,0.8-0.8,2,0,2.8l6,6c0.4,0.4,0.9,0.6,1.4,0.6c0.5,0,1-0.2,1.4-0.6l6-6c0.8-0.8,0.8-2,0-2.8
			C396.6,405.8,395.4,405.8,394.6,406.6z"/>
		<path class="st1" d="M399.9,380.1c-1-1-2-1.8-3.2-2.4c-1.6-0.9-3.4-1.4-5.2-1.6c-0.5,0-0.9-0.1-1.4-0.1c-7.7,0-14,6.3-14,14
			c0,1.5,0.3,3.1,0.7,4.5c0.3,0.9,0.7,1.7,1.1,2.5c0.4,0.6,1,1,1.7,1l0,0h20.8c0.2,0,0.4,0,0.5-0.1c0.5-0.1,0.9-0.5,1.2-0.9
			c0.5-0.8,0.8-1.6,1.1-2.5c0.5-1.4,0.7-3,0.7-4.5c0-2.9-0.9-5.6-2.4-7.8C401.1,381.4,400.5,380.7,399.9,380.1z M390.2,380
			c-0.5,0-1,0-1.4,0.1h0c0.4-0.1,0.8-0.1,1.2-0.1C390.1,380,390.1,380,390.2,380z M380.8,394C380.8,394,380.8,394,380.8,394
			C380.8,394,380.9,394,380.8,394L380.8,394z"/>
	</g>
	<g>
		<path class="st1" d="M505.4,402.6c-0.8-0.8-2-0.8-2.8,0l-6,6c-0.8,0.8-0.8,2,0,2.8c0.8,0.8,2,0.8,2.8,0l2.6-2.6v5.2
			c0,1.1,0.9,2,2,2c1.1,0,2-0.9,2-2v-5.2l2.6,2.6c0.4,0.4,0.9,0.6,1.4,0.6c0.5,0,1-0.2,1.4-0.6c0.8-0.8,0.8-2,0-2.8L505.4,402.6z"/>
		<path class="st1" d="M513.9,380.1c-1-1-2-1.8-3.2-2.4c-1.6-0.9-3.4-1.4-5.2-1.6c-0.5,0-0.9-0.1-1.4-0.1c-7.7,0-14,6.3-14,14
			c0,1.5,0.3,3.1,0.7,4.5c0.3,0.9,0.7,1.7,1.1,2.5c0.4,0.6,1,1,1.7,1l0,0h20.8c0.2,0,0.4,0,0.5-0.1c0.5-0.1,0.9-0.5,1.2-0.9
			c0.5-0.8,0.8-1.6,1.1-2.5c0.5-1.4,0.7-3,0.7-4.5c0-2.9-0.9-5.6-2.4-7.8C515.1,381.4,514.5,380.7,513.9,380.1z M504.2,380
			c-0.5,0-1,0-1.4,0.1h0c0.4-0.1,0.8-0.1,1.2-0.1C504.1,380,504.1,380,504.2,380z M494.8,394C494.8,394,494.8,394,494.8,394
			C494.8,394,494.9,394,494.8,394L494.8,394z"/>
	</g>
	<g>
		<path class="st2" d="M66,496c-0.5,0-1.1,0.1-1.7,0.2C62.2,489,55.7,484,48,484c-7.7,0-14.2,5-16.3,12.2c-0.6-0.1-1.2-0.2-1.7-0.2
			c-6.1,0-11,4.9-11,11c0,6.1,4.9,11,11,11h5.4l-2.4,9.5c-0.3,1.1,0.4,2.2,1.5,2.4c0.2,0,0.3,0.1,0.5,0.1c0.9,0,1.7-0.6,1.9-1.5
			l2.6-10.5h5.4l-3.9,15.5c-0.3,1.1,0.4,2.2,1.5,2.4c0.2,0,0.3,0.1,0.5,0.1c0.9,0,1.7-0.6,1.9-1.5l4.1-16.5h5.4l-2.4,9.5
			c-0.3,1.1,0.4,2.2,1.5,2.4c0.2,0,0.3,0.1,0.5,0.1c0.9,0,1.7-0.6,1.9-1.5l2.6-10.5H66c6.1,0,11-4.9,11-11C77,500.9,72.1,496,66,496
			z"/>
	</g>
	<path class="st2" d="M180,496c-0.5,0-1.1,0.1-1.7,0.2c-2.1-7.2-8.6-12.2-16.3-12.2c-7.7,0-14.2,5-16.3,12.2
		c-0.6-0.1-1.2-0.2-1.7-0.2c-6.1,0-11,4.9-11,11c0,6.1,4.9,11,11,11h5.4l-2.4,9.5c-0.3,1.1,0.4,2.2,1.5,2.4c0.2,0,0.3,0.1,0.5,0.1
		c0.9,0,1.7-0.6,1.9-1.5l2.6-10.5h5.4l-3.9,15.5c-0.3,1.1,0.4,2.2,1.5,2.4c0.2,0,0.3,0.1,0.5,0.1c0.9,0,1.7-0.6,1.9-1.5l4.1-16.5
		h5.4l-2.4,9.5c-0.3,1.1,0.4,2.2,1.5,2.4c0.2,0,0.3,0.1,0.5,0.1c0.9,0,1.7-0.6,1.9-1.5l2.6-10.5h7.4c6.1,0,11-4.9,11-11
		C191,500.9,186.1,496,180,496z"/>
	<path class="st2" d="M294,496c-0.5,0-1.1,0.1-1.7,0.2c-2.1-7.2-8.6-12.2-16.3-12.2c-7.7,0-14.2,5-16.3,12.2
		c-0.6-0.1-1.2-0.2-1.7-0.2c-6.1,0-11,4.9-11,11c0,6.1,4.9,11,11,11h5.4l-2.4,9.5c-0.3,1.1,0.4,2.2,1.5,2.4c0.2,0,0.3,0.1,0.5,0.1
		c0.9,0,1.7-0.6,1.9-1.5l2.6-10.5h5.4l-3.9,15.5c-0.3,1.1,0.4,2.2,1.5,2.4c0.2,0,0.3,0.1,0.5,0.1c0.9,0,1.7-0.6,1.9-1.5l4.1-16.5
		h5.4l-2.4,9.5c-0.3,1.1,0.4,2.2,1.5,2.4c0.2,0,0.3,0.1,0.5,0.1c0.9,0,1.7-0.6,1.9-1.5l2.6-10.5h7.4c6.1,0,11-4.9,11-11
		C305,500.9,300.1,496,294,496z"/>
	<g>
		<path class="st2" d="M493.8,493h12c1.1,0,2-0.9,2-2s-0.9-2-2-2h-12c-1.1,0-2,0.9-2,2S492.7,493,493.8,493z"/>
		<path class="st2" d="M481.8,499h24c1.1,0,2-0.9,2-2s-0.9-2-2-2h-24c-1.1,0-2,0.9-2,2S480.7,499,481.8,499z"/>
		<path class="st2" d="M475.8,505h24c1.1,0,2-0.9,2-2s-0.9-2-2-2h-24c-1.1,0-2,0.9-2,2S474.7,505,475.8,505z"/>
		<path class="st2" d="M534.8,509c0-1.1-0.9-2-2-2h-60c-1.1,0-2,0.9-2,2s0.9,2,2,2h60C533.9,511,534.8,510.1,534.8,509z"/>
		<path class="st2" d="M532.8,513h-57c-1.1,0-2,0.9-2,2s0.9,2,2,2h57c1.1,0,2-0.9,2-2S533.9,513,532.8,513z"/>
		<path class="st2" d="M493.8,519l-12,0c-1.1,0-2,0.9-2,2c0,1.1,0.9,2,2,2l12,0c1.1,0,2-0.9,2-2S494.9,519,493.8,519z"/>
		<path class="st2" d="M512.8,499h8c1.1,0,2-0.9,2-2s-0.9-2-2-2h-8c-1.1,0-2,0.9-2,2S511.7,499,512.8,499z"/>
		<path class="st2" d="M503.8,503c0,1.1,0.9,2,2,2h21c1.1,0,2-0.9,2-2s-0.9-2-2-2h-21C504.7,501,503.8,501.9,503.8,503z"/>
		<path class="st2" d="M526.8,519l-27,0c-1.1,0-2,0.9-2,2s0.9,2,2,2l27,0c1.1,0,2-0.9,2-2C528.8,519.9,527.9,519,526.8,519z"/>
	</g>
	<path class="st4" d="M180,610c-0.5,0-1.1,0.1-1.7,0.2c-2.1-7.2-8.6-12.2-16.3-12.2c-7.7,0-14.2,5-16.3,12.2
		c-0.6-0.1-1.2-0.2-1.7-0.2c-6.1,0-11,4.9-11,11s4.9,11,11,11h36c6.1,0,11-4.9,11-11S186.1,610,180,610z"/>
	<g>
		<path class="st2" d="M249,623c1.1,0,2-0.9,2-2c0-3.9,3.1-7,7-7c0.3,0,0.7,0.1,1.2,0.2v1.8c0,1.1,0.9,2,2,2s2-0.9,2-2v-3.2
			c1.1-6.3,6.4-10.8,12.8-10.8s11.7,4.5,12.8,10.8v3.2c0,1.1,0.9,2,2,2c1.1,0,2-0.9,2-2v-1.8c0.5-0.1,0.9-0.2,1.2-0.2
			c3.9,0,7,3.1,7,7c0,1.1,0.9,2,2,2s2-0.9,2-2c0-6.1-4.9-11-11-11c-0.5,0-1.1,0.1-1.7,0.2c-2.1-7.2-8.6-12.2-16.3-12.2
			s-14.2,5-16.3,12.2c-0.6-0.1-1.2-0.2-1.7-0.2c-6.1,0-11,4.9-11,11C247,622.1,247.9,623,249,623z"/>
		<path class="st2" d="M268,629c0,1.1,0.9,2,2,2h36c1.1,0,2-0.9,2-2s-0.9-2-2-2h-36C268.9,627,268,627.9,268,629z"/>
		<path class="st2" d="M276,634c-1.1,0-2,0.9-2,2s0.9,2,2,2h27c1.1,0,2-0.9,2-2s-0.9-2-2-2H276z"/>
		<path class="st2" d="M306,641h-24c-1.1,0-2,0.9-2,2s0.9,2,2,2h24c1.1,0,2-0.9,2-2S307.1,641,306,641z"/>
		<path class="st2" d="M246,631h18c1.1,0,2-0.9,2-2s-0.9-2-2-2h-18c-1.1,0-2,0.9-2,2S244.9,631,246,631z"/>
		<path class="st2" d="M249,634c-1.1,0-2,0.9-2,2s0.9,2,2,2h21c1.1,0,2-0.9,2-2s-0.9-2-2-2H249z"/>
		<path class="st2" d="M276,641h-30c-1.1,0-2,0.9-2,2s0.9,2,2,2h30c1.1,0,2-0.9,2-2S277.1,641,276,641z"/>
	</g>
	<path class="st4" d="M294,610c-0.5,0-1.1,0.1-1.7,0.2c-2.1-7.2-8.6-12.2-16.3-12.2c-7.7,0-14.2,5-16.3,12.2
		c-0.6-0.1-1.2-0.2-1.7-0.2c-6.1,0-11,4.9-11,11s4.9,11,11,11h36c6.1,0,11-4.9,11-11S300.1,610,294,610z"/>
	<g>
		<path class="st2" d="M363,623c1.1,0,2-0.9,2-2c0-3.9,3.1-7,7-7c0.3,0,0.7,0.1,1.2,0.2v1.8c0,1.1,0.9,2,2,2s2-0.9,2-2v-3.2
			c1.1-6.3,6.4-10.8,12.8-10.8s11.7,4.5,12.8,10.8v3.2c0,1.1,0.9,2,2,2c1.1,0,2-0.9,2-2v-1.8c0.5-0.1,0.9-0.2,1.2-0.2
			c3.9,0,7,3.1,7,7c0,1.1,0.9,2,2,2c1.1,0,2-0.9,2-2c0-6.1-4.9-11-11-11c-0.5,0-1.1,0.1-1.7,0.2c-2.1-7.2-8.6-12.2-16.3-12.2
			c-7.7,0-14.2,5-16.3,12.2c-0.6-0.1-1.2-0.2-1.7-0.2c-6.1,0-11,4.9-11,11C361,622.1,361.9,623,363,623z"/>
		<path class="st2" d="M382,629c0,1.1,0.9,2,2,2h36c1.1,0,2-0.9,2-2s-0.9-2-2-2h-36C382.9,627,382,627.9,382,629z"/>
		<path class="st2" d="M390,634c-1.1,0-2,0.9-2,2s0.9,2,2,2h27c1.1,0,2-0.9,2-2s-0.9-2-2-2H390z"/>
		<path class="st2" d="M420,641h-24c-1.1,0-2,0.9-2,2s0.9,2,2,2h24c1.1,0,2-0.9,2-2S421.1,641,420,641z"/>
		<path class="st2" d="M360,631h18c1.1,0,2-0.9,2-2s-0.9-2-2-2h-18c-1.1,0-2,0.9-2,2S358.9,631,360,631z"/>
		<path class="st2" d="M363,634c-1.1,0-2,0.9-2,2s0.9,2,2,2h21c1.1,0,2-0.9,2-2s-0.9-2-2-2H363z"/>
		<path class="st2" d="M390,641h-30c-1.1,0-2,0.9-2,2s0.9,2,2,2h30c1.1,0,2-0.9,2-2S391.1,641,390,641z"/>
	</g>
	<path class="st4" d="M408,610c-0.5,0-1.1,0.1-1.7,0.2c-2.1-7.2-8.6-12.2-16.3-12.2c-7.7,0-14.2,5-16.3,12.2
		c-0.6-0.1-1.2-0.2-1.7-0.2c-6.1,0-11,4.9-11,11s4.9,11,11,11h36c6.1,0,11-4.9,11-11S414.1,610,408,610z"/>
	<path class="st4" d="M522,604c-0.5,0-1.1,0.1-1.7,0.2c-2.1-7.2-8.6-12.2-16.3-12.2c-7.7,0-14.2,5-16.3,12.2
		c-0.6-0.1-1.2-0.2-1.7-0.2c-6.1,0-11,4.9-11,11s4.9,11,11,11h36c6.1,0,11-4.9,11-11S528.1,604,522,604z"/>
	<path class="st4" d="M408,40c-0.5,0-1.1,0.1-1.7,0.2C404.2,33,397.7,28,390,28c-7.7,0-14.2,5-16.3,12.2c-0.6-0.1-1.2-0.2-1.7-0.2
		c-6.1,0-11,4.9-11,11s4.9,11,11,11h36c6.1,0,11-4.9,11-11S414.1,40,408,40z"/>
	<path class="st4" d="M522,40c-0.5,0-1.1,0.1-1.7,0.2C518.2,33,511.7,28,504,28c-7.7,0-14.2,5-16.3,12.2c-0.6-0.1-1.2-0.2-1.7-0.2
		c-6.1,0-11,4.9-11,11s4.9,11,11,11h36c6.1,0,11-4.9,11-11S528.1,40,522,40z"/>
	<path class="st4" d="M66,154c-0.5,0-1.1,0.1-1.7,0.2C62.2,147,55.7,142,48,142c-7.7,0-14.2,5-16.3,12.2c-0.6-0.1-1.2-0.2-1.7-0.2
		c-6.1,0-11,4.9-11,11s4.9,11,11,11h36c6.1,0,11-4.9,11-11S72.1,154,66,154z"/>
	<g>
		<g>
			<path class="st2" d="M162,178c-1.1,0-2,0.9-2,2v18c0,1.1,0.9,2,2,2c1.1,0,2-0.9,2-2v-18C164,178.9,163.1,178,162,178z"/>
			<path class="st2" d="M189.7,159.8c-0.3-0.6-0.7-1.2-1.2-1.8c-1.3-1.6-3.2-2.9-5.2-3.5c-1-0.3-2.1-0.5-3.3-0.5
				c-0.5,0-1.1,0.1-1.7,0.2c-2.1-7.2-8.6-12.2-16.3-12.2c-7.7,0-14.2,5-16.3,12.2c-0.6-0.1-1.2-0.2-1.7-0.2c-1.1,0-2.2,0.2-3.3,0.5
				c-2.1,0.6-3.9,1.9-5.2,3.5c-0.4,0.5-0.8,1.1-1.2,1.8c-0.8,1.6-1.3,3.3-1.3,5.2s0.5,3.7,1.3,5.2c0.3,0.6,0.7,1.2,1.2,1.8
				c1.3,1.6,3.2,2.9,5.2,3.5c1,0.3,2.1,0.5,3.3,0.5h7v16c0,1.1,0.9,2,2,2c1.1,0,2-0.9,2-2v-16h14v16c0,1.1,0.9,2,2,2
				c1.1,0,2-0.9,2-2v-16h7c1.1,0,2.2-0.2,3.3-0.5c2.1-0.6,3.9-1.9,5.2-3.5c0.4-0.5,0.8-1.1,1.2-1.8c0.8-1.6,1.3-3.3,1.3-5.2
				S190.5,161.3,189.7,159.8z"/>
		</g>
		<path class="st4" d="M180,154c-0.5,0-1.1,0.1-1.7,0.2c-2.1-7.2-8.6-12.2-16.3-12.2c-7.7,0-14.2,5-16.3,12.2
			c-0.6-0.1-1.2-0.2-1.7-0.2c-6.1,0-11,4.9-11,11s4.9,11,11,11h36c6.1,0,11-4.9,11-11S186.1,154,180,154z"/>
	</g>
	<path class="st4" d="M294,154c-0.5,0-1.1,0.1-1.7,0.2c-2.1-7.2-8.6-12.2-16.3-12.2c-7.7,0-14.2,5-16.3,12.2
		c-0.6-0.1-1.2-0.2-1.7-0.2c-6.1,0-11,4.9-11,11s4.9,11,11,11h36c6.1,0,11-4.9,11-11S300.1,154,294,154z"/>
	<path class="st4" d="M408,154c-0.5,0-1.1,0.1-1.7,0.2c-2.1-7.2-8.6-12.2-16.3-12.2c-7.7,0-14.2,5-16.3,12.2
		c-0.6-0.1-1.2-0.2-1.7-0.2c-6.1,0-11,4.9-11,11s4.9,11,11,11h36c6.1,0,11-4.9,11-11S414.1,154,408,154z"/>
	<g>
		<g>
			<circle class="st2" cx="495" cy="180" r="2"/>
			<circle class="st2" cx="513" cy="180" r="2"/>
			<circle class="st2" cx="504" cy="186" r="2"/>
			<circle class="st2" cx="513" cy="192" r="2"/>
			<circle class="st2" cx="504" cy="198" r="2"/>
			<circle class="st2" cx="495" cy="192" r="2"/>
			<path class="st2" d="M531.7,159.8c-0.3-0.6-0.7-1.2-1.2-1.8c-1.3-1.6-3.2-2.9-5.2-3.5c-1-0.3-2.1-0.5-3.3-0.5
				c-0.3,0-0.5,0-0.8,0.1c-0.3,0-0.6,0.1-0.9,0.1c-0.9-3.1-2.7-5.9-5-7.9c-0.3-0.3-0.7-0.6-1-0.8c-0.7-0.5-1.5-1-2.3-1.4
				c-2.4-1.3-5.1-2-8-2c-7.7,0-14.2,5-16.3,12.2c-0.1,0-0.1,0-0.2,0c-0.5-0.1-1-0.2-1.5-0.2c-1.1,0-2.2,0.2-3.3,0.5
				c-2.1,0.6-3.9,1.9-5.2,3.5c-0.4,0.5-0.8,1.1-1.2,1.8c-0.8,1.6-1.3,3.3-1.3,5.2s0.5,3.7,1.3,5.2c0.3,0.6,0.7,1.2,1.2,1.8
				c1.3,1.6,3.2,2.9,5.2,3.5c1,0.3,2.1,0.5,3.3,0.5h36c1.1,0,2.2-0.2,3.3-0.5c2.1-0.6,3.9-1.9,5.2-3.5c0.4-0.5,0.8-1.1,1.2-1.8
				c0.8-1.6,1.3-3.3,1.3-5.2S532.5,161.3,531.7,159.8z"/>
		</g>
		<path class="st4" d="M522,154c-0.5,0-1.1,0.1-1.7,0.2c-2.1-7.2-8.6-12.2-16.3-12.2c-7.7,0-14.2,5-16.3,12.2
			c-0.6-0.1-1.2-0.2-1.7-0.2c-6.1,0-11,4.9-11,11s4.9,11,11,11h36c6.1,0,11-4.9,11-11S528.1,154,522,154z"/>
	</g>
	<path class="st4" d="M66,268c-0.5,0-1.1,0.1-1.7,0.2C62.2,261,55.7,256,48,256c-7.7,0-14.2,5-16.3,12.2c-0.6-0.1-1.2-0.2-1.7-0.2
		c-6.1,0-11,4.9-11,11s4.9,11,11,11h36c6.1,0,11-4.9,11-11S72.1,268,66,268z"/>
	<path class="st4" d="M180,268c-0.5,0-1.1,0.1-1.7,0.2c-2.1-7.2-8.6-12.2-16.3-12.2c-7.7,0-14.2,5-16.3,12.2
		c-0.6-0.1-1.2-0.2-1.7-0.2c-6.1,0-11,4.9-11,11s4.9,11,11,11h36c6.1,0,11-4.9,11-11S186.1,268,180,268z"/>
	<g>
		<g>
			<path class="st2" d="M44.7,412.7c-0.6-1-1.8-1.3-2.7-0.7c-1,0.6-1.3,1.8-0.7,2.7l1,1.7c0.4,0.6,1,1,1.7,1c0.3,0,0.7-0.1,1-0.3
				c1-0.6,1.3-1.8,0.7-2.7L44.7,412.7z"/>
			<path class="st2" d="M40,411.9c-1-0.6-2.2-0.2-2.7,0.7l-1,1.7c-0.6,1-0.2,2.2,0.7,2.7c0.3,0.2,0.7,0.3,1,0.3c0.7,0,1.4-0.4,1.7-1
				l1-1.7C41.3,413.7,41,412.5,40,411.9z"/>
			<path class="st2" d="M39,410.2c0-1.1-0.9-2-2-2h-2c-1.1,0-2,0.9-2,2c0,1.1,0.9,2,2,2h2C38.1,412.2,39,411.3,39,410.2z"/>
			<path class="st2" d="M47,408.2h-2c-1.1,0-2,0.9-2,2c0,1.1,0.9,2,2,2h2c1.1,0,2-0.9,2-2C49,409.1,48.1,408.2,47,408.2z"/>
			<path class="st2" d="M67,383c-0.5,0-1.1,0.1-1.7,0.2C63.2,376,56.7,371,49,371c-7.7,0-14.2,5-16.3,12.2c-0.6-0.1-1.2-0.2-1.7-0.2
				c-6.1,0-11,4.9-11,11s4.9,11,11,11h5c0,0.3,0.1,0.7,0.3,1l1,1.7c0.4,0.6,1,1,1.7,1c0.3,0,0.7-0.1,1-0.3c1-0.6,1.3-1.8,0.7-2.7
				l-0.4-0.7h1.4l-0.4,0.7c-0.6,1-0.2,2.2,0.7,2.7c0.3,0.2,0.7,0.3,1,0.3c0.7,0,1.4-0.4,1.7-1l1-1.7c0.2-0.3,0.3-0.7,0.3-1h21
				c6.1,0,11-4.9,11-11S73.1,383,67,383z"/>
			<path class="st2" d="M61.7,417.7c-0.6-1-1.8-1.3-2.7-0.7c-1,0.6-1.3,1.8-0.7,2.7l1,1.7c0.4,0.6,1,1,1.7,1c0.3,0,0.7-0.1,1-0.3
				c1-0.6,1.3-1.8,0.7-2.7L61.7,417.7z"/>
			<path class="st2" d="M56.7,409c-0.6-1-1.8-1.3-2.7-0.7c-1,0.6-1.3,1.8-0.7,2.7l1,1.7c0.4,0.6,1,1,1.7,1c0.3,0,0.7-0.1,1-0.3
				c1-0.6,1.3-1.8,0.7-2.7L56.7,409z"/>
			<path class="st2" d="M59,413.5c0.3,0.2,0.7,0.3,1,0.3c0.7,0,1.4-0.4,1.7-1l1-1.7c0.6-1,0.2-2.2-0.7-2.7c-1-0.6-2.2-0.2-2.7,0.7
				l-1,1.7C57.7,411.7,58,412.9,59,413.5z"/>
			<path class="st2" d="M57,416.9c-1-0.6-2.2-0.2-2.7,0.7l-1,1.7c-0.6,1-0.2,2.2,0.7,2.7c0.3,0.2,0.7,0.3,1,0.3c0.7,0,1.4-0.4,1.7-1
				l1-1.7C58.3,418.7,58,417.5,57,416.9z"/>
			<path class="st2" d="M56,415.2c0-1.1-0.9-2-2-2h-2c-1.1,0-2,0.9-2,2c0,1.1,0.9,2,2,2h2C55.1,417.2,56,416.3,56,415.2z"/>
			<path class="st2" d="M64,413.2h-2c-1.1,0-2,0.9-2,2c0,1.1,0.9,2,2,2h2c1.1,0,2-0.9,2-2C66,414.1,65.1,413.2,64,413.2z"/>
		</g>
		<path class="st4" d="M67,383c-0.5,0-1.1,0.1-1.7,0.2C63.2,376,56.7,371,49,371c-7.7,0-14.2,5-16.3,12.2c-0.6-0.1-1.2-0.2-1.7-0.2
			c-6.1,0-11,4.9-11,11s4.9,11,11,11h36c6.1,0,11-4.9,11-11S73.1,383,67,383z"/>
	</g>
	<path class="st4" d="M180,382c-0.5,0-1.1,0.1-1.7,0.2c-2.1-7.2-8.6-12.2-16.3-12.2c-7.7,0-14.2,5-16.3,12.2
		c-0.6-0.1-1.2-0.2-1.7-0.2c-6.1,0-11,4.9-11,11s4.9,11,11,11h36c6.1,0,11-4.9,11-11S186.1,382,180,382z"/>
	<path class="st4" d="M294,382c-0.5,0-1.1,0.1-1.7,0.2c-2.1-7.2-8.6-12.2-16.3-12.2c-7.7,0-14.2,5-16.3,12.2
		c-0.6-0.1-1.2-0.2-1.7-0.2c-6.1,0-11,4.9-11,11s4.9,11,11,11h36c6.1,0,11-4.9,11-11S300.1,382,294,382z"/>
	<path class="st4" d="M66,496c-0.5,0-1.1,0.1-1.7,0.2C62.2,489,55.7,484,48,484c-7.7,0-14.2,5-16.3,12.2c-0.6-0.1-1.2-0.2-1.7-0.2
		c-6.1,0-11,4.9-11,11c0,6.1,4.9,11,11,11h36c6.1,0,11-4.9,11-11C77,500.9,72.1,496,66,496z"/>
	<path class="st4" d="M180,496c-0.5,0-1.1,0.1-1.7,0.2c-2.1-7.2-8.6-12.2-16.3-12.2c-7.7,0-14.2,5-16.3,12.2
		c-0.6-0.1-1.2-0.2-1.7-0.2c-6.1,0-11,4.9-11,11c0,6.1,4.9,11,11,11h36c6.1,0,11-4.9,11-11C191,500.9,186.1,496,180,496z"/>
	<path class="st4" d="M294,496c-0.5,0-1.1,0.1-1.7,0.2c-2.1-7.2-8.6-12.2-16.3-12.2c-7.7,0-14.2,5-16.3,12.2
		c-0.6-0.1-1.2-0.2-1.7-0.2c-6.1,0-11,4.9-11,11c0,6.1,4.9,11,11,11h36c6.1,0,11-4.9,11-11C305,500.9,300.1,496,294,496z"/>
	<path class="st4" d="M66,724c-0.5,0-1.1,0.1-1.7,0.2C62.2,717,55.7,712,48,712c-7.7,0-14.2,5-16.3,12.2c-0.6-0.1-1.2-0.2-1.7-0.2
		c-6.1,0-11,4.9-11,11s4.9,11,11,11h36c6.1,0,11-4.9,11-11S72.1,724,66,724z"/>
	<g>
		<g>
			<path class="st2" d="M50,864v-12c0-1.1-0.9-2-2-2s-2,0.9-2,2v12c0,1.1,0.9,2,2,2S50,865.1,50,864z"/>
			<path class="st2" d="M41,870v-12c0-1.1-0.9-2-2-2c-1.1,0-2,0.9-2,2v12c0,1.1,0.9,2,2,2C40.1,872,41,871.1,41,870z"/>
			<path class="st2" d="M59,870v-12c0-1.1-0.9-2-2-2c-1.1,0-2,0.9-2,2v12c0,1.1,0.9,2,2,2C58.1,872,59,871.1,59,870z"/>
			<path class="st2" d="M40,876h-2c-1.1,0-2,0.9-2,2v2c0,1.1,0.9,2,2,2h2c1.1,0,2-0.9,2-2v-2C42,876.9,41.1,876,40,876z"/>
			<path class="st2" d="M49,870h-2c-1.1,0-2,0.9-2,2v2c0,1.1,0.9,2,2,2h2c1.1,0,2-0.9,2-2v-2C51,870.9,50.1,870,49,870z"/>
			<path class="st2" d="M58,876h-2c-1.1,0-2,0.9-2,2v2c0,1.1,0.9,2,2,2h2c1.1,0,2-0.9,2-2v-2C60,876.9,59.1,876,58,876z"/>
		</g>
		<path class="st4" d="M66,838c-0.5,0-1.1,0.1-1.7,0.2C62.2,831,55.7,826,48,826c-7.7,0-14.2,5-16.3,12.2c-0.6-0.1-1.2-0.2-1.7-0.2
			c-6.1,0-11,4.9-11,11s4.9,11,11,11h36c6.1,0,11-4.9,11-11S72.1,838,66,838z"/>
	</g>
	<g>
		<g>
			<path class="st2" d="M387.5,852v18c0,1.1,0.9,2,2,2c1.1,0,2-0.9,2-2v-18c0-1.1-0.9-2-2-2C388.4,850,387.5,850.9,387.5,852z"/>
			<path class="st2" d="M364.5,871h-2c-1.1,0-2,0.9-2,2v2c0,1.1,0.9,2,2,2h2c1.1,0,2-0.9,2-2v-2C366.5,871.9,365.6,871,364.5,871z"
				/>
			<path class="st2" d="M390.5,876h-2c-1.1,0-2,0.9-2,2v2c0,1.1,0.9,2,2,2h2c1.1,0,2-0.9,2-2v-2C392.5,876.9,391.6,876,390.5,876z"
				/>
			<path class="st2" d="M417.5,868h-2c-1.1,0-2,0.9-2,2v2c0,1.1,0.9,2,2,2h2c1.1,0,2-0.9,2-2v-2C419.5,868.9,418.6,868,417.5,868z"
				/>
			<path class="st2" d="M380.5,856c-1.1,0-2,0.9-2,2v15.1c-1.2-0.7-2.5-1.1-4-1.1h-2c-1.1,0-2,0.9-2,2s0.9,2,2,2h2c2.2,0,4,1.8,4,4
				c0,1.1,0.9,2,2,2c1.1,0,2-0.9,2-2v-22C382.5,856.9,381.6,856,380.5,856z"/>
			<path class="st2" d="M407.5,869c-2.7,0-5.1,0.9-7,2.5V858c0-1.1-0.9-2-2-2c-1.1,0-2,0.9-2,2v22c0,0,0,0,0,0c0,1.1,0.9,2,2,2
				c1.1,0,2-0.9,2-2v0c0-3.9,3.1-7,7-7c1.1,0,2-0.9,2-2S408.6,869,407.5,869z"/>
		</g>
		<path class="st4" d="M408,838c-0.5,0-1.1,0.1-1.7,0.2c-2.1-7.2-8.6-12.2-16.3-12.2c-7.7,0-14.2,5-16.3,12.2
			c-0.6-0.1-1.2-0.2-1.7-0.2c-6.1,0-11,4.9-11,11s4.9,11,11,11h36c6.1,0,11-4.9,11-11S414.1,838,408,838z"/>
	</g>
	<path class="st4" d="M408,724c-0.5,0-1.1,0.1-1.7,0.2c-2.1-7.2-8.6-12.2-16.3-12.2c-7.7,0-14.2,5-16.3,12.2
		c-0.6-0.1-1.2-0.2-1.7-0.2c-6.1,0-11,4.9-11,11s4.9,11,11,11h36c6.1,0,11-4.9,11-11S414.1,724,408,724z"/>
	<path class="st2" d="M150.4,747.8c-0.8,1.1-3.4,4.7-3.4,7.2c0,2.9,2.1,5,5,5c2.9,0,5-2.1,5-5c0-2.5-2.6-6.1-3.4-7.2
		C152.8,746.8,151.2,746.8,150.4,747.8z"/>
	<path class="st2" d="M168.4,747.8c-0.8,1.1-3.4,4.7-3.4,7.2c0,2.9,2.1,5,5,5c2.9,0,5-2.1,5-5c0-2.5-2.6-6.1-3.4-7.2
		C170.8,746.8,169.2,746.8,168.4,747.8z"/>
	<path class="st2" d="M159.4,758.8c-0.8,1.1-3.4,4.7-3.4,7.2c0,2.9,2.1,5,5,5c2.9,0,5-2.1,5-5c0-2.5-2.6-6.1-3.4-7.2
		C161.8,757.8,160.2,757.8,159.4,758.8z"/>
	<path class="st4" d="M180,724c-0.5,0-1.1,0.1-1.7,0.2c-2.1-7.2-8.6-12.2-16.3-12.2c-7.7,0-14.2,5-16.3,12.2
		c-0.6-0.1-1.2-0.2-1.7-0.2c-6.1,0-11,4.9-11,11s4.9,11,11,11h36c6.1,0,11-4.9,11-11S186.1,724,180,724z"/>
	<path class="st2" d="M36.4,747.8c-0.8,1.1-3.4,4.7-3.4,7.2c0,2.9,2.1,5,5,5s5-2.1,5-5c0-2.5-2.6-6.1-3.4-7.2
		C38.8,746.7,37.2,746.7,36.4,747.8z"/>
	<path class="st2" d="M54.4,747.8c-0.8,1.1-3.4,4.7-3.4,7.2c0,2.9,2.1,5,5,5s5-2.1,5-5c0-2.5-2.6-6.1-3.4-7.2
		C56.8,746.7,55.2,746.7,54.4,747.8z"/>
	<path class="st2" d="M45.4,758.8c-0.8,1.1-3.4,4.7-3.4,7.2c0,2.9,2.1,5,5,5s5-2.1,5-5c0-2.5-2.6-6.1-3.4-7.2
		C47.8,757.7,46.2,757.7,45.4,758.8z"/>
	<path class="st2" d="M278.7,747.6c-0.7-0.8-2.1-0.8-2.8,0c-0.6,0.7-5.9,7-5.9,12.1c0,1.9,0.6,3.6,1.8,5c0.9,1.1,2.6,2.3,5.5,2.3
		c4.8,0,7.3-3.7,7.3-7.3C284.5,754.6,279.3,748.3,278.7,747.6z M277.3,764.3C277.3,764.3,277.3,764.3,277.3,764.3l0,0.9L277.3,764.3
		z"/>
	<path class="st4" d="M294,724c-0.5,0-1.1,0.1-1.7,0.2c-2.1-7.2-8.6-12.2-16.3-12.2c-7.7,0-14.2,5-16.3,12.2
		c-0.6-0.1-1.2-0.2-1.7-0.2c-6.1,0-11,4.9-11,11s4.9,11,11,11h36c6.1,0,11-4.9,11-11S300.1,724,294,724z"/>
	<path class="st2" d="M393.1,747.6c-0.7-0.8-2.1-0.8-2.8,0c-0.6,0.7-5.9,7-5.9,12.1c0,1.9,0.6,3.6,1.8,5c0.9,1.1,2.6,2.3,5.5,2.3
		c4.8,0,7.3-3.7,7.3-7.3C399,754.7,393.7,748.3,393.1,747.6z M391.7,764.3L391.7,764.3l0,0.9L391.7,764.3z"/>
	<path class="st4" d="M294,838c-0.5,0-1.1,0.1-1.7,0.2c-2.1-7.2-8.6-12.2-16.3-12.2c-7.7,0-14.2,5-16.3,12.2
		c-0.6-0.1-1.2-0.2-1.7-0.2c-6.1,0-11,4.9-11,11s4.9,11,11,11h36c6.1,0,11-4.9,11-11S300.1,838,294,838z"/>
	<path class="st4" d="M180,838c-0.5,0-1.1,0.1-1.7,0.2c-2.1-7.2-8.6-12.2-16.3-12.2c-7.7,0-14.2,5-16.3,12.2
		c-0.6-0.1-1.2-0.2-1.7-0.2c-6.1,0-11,4.9-11,11s4.9,11,11,11h36c6.1,0,11-4.9,11-11S186.1,838,180,838z"/>
	<path class="st4" d="M522,838c-0.5,0-1.1,0.1-1.7,0.2c-2.1-7.2-8.6-12.2-16.3-12.2c-7.7,0-14.2,5-16.3,12.2
		c-0.6-0.1-1.2-0.2-1.7-0.2c-6.1,0-11,4.9-11,11s4.9,11,11,11h36c6.1,0,11-4.9,11-11S528.1,838,522,838z"/>
	<path class="st4" d="M522,724c-0.5,0-1.1,0.1-1.7,0.2c-2.1-7.2-8.6-12.2-16.3-12.2c-7.7,0-14.2,5-16.3,12.2
		c-0.6-0.1-1.2-0.2-1.7-0.2c-6.1,0-11,4.9-11,11s4.9,11,11,11h36c6.1,0,11-4.9,11-11S528.1,724,522,724z"/>
	<path class="st2" d="M507.1,747.6c-0.7-0.8-2.1-0.8-2.8,0c-0.6,0.7-5.9,7-5.9,12.1c0,1.9,0.6,3.6,1.8,5c0.9,1.1,2.6,2.3,5.5,2.3
		c4.8,0,7.3-3.7,7.3-7.3C513,754.7,507.7,748.3,507.1,747.6z M505.7,764.3L505.7,764.3l0,0.9L505.7,764.3z"/>
	<path class="st4" d="M66,952c-0.5,0-1.1,0.1-1.7,0.2C62.2,945,55.7,940,48,940c-7.7,0-14.2,5-16.3,12.2c-0.6-0.1-1.2-0.2-1.7-0.2
		c-6.1,0-11,4.9-11,11s4.9,11,11,11h36c6.1,0,11-4.9,11-11S72.1,952,66,952z"/>
	<path class="st4" d="M522.8,951.4c-0.5,0-1.1,0.1-1.7,0.2c-2.1-7.4-8.8-12.5-16.6-12.5c-7.8,0-14.5,5.2-16.6,12.5
		c-0.6-0.1-1.2-0.2-1.7-0.2c-6.2,0-11.2,5.1-11.2,11.3c0,6.2,5,11.3,11.2,11.3h36.6c6.2,0,11.2-5.1,11.2-11.3
		C534,956.4,529,951.4,522.8,951.4z"/>
	<path class="st4" d="M409,951c-0.5,0-1.1,0.1-1.7,0.2c-2.1-7.2-8.6-12.2-16.3-12.2c-7.7,0-14.2,5-16.3,12.2
		c-0.6-0.1-1.2-0.2-1.7-0.2c-6.1,0-11,4.9-11,11s4.9,11,11,11h36c6.1,0,11-4.9,11-11S415.1,951,409,951z"/>
	<g>
		<path class="st5" d="M33,608h12c1.1,0,2-0.9,2-2s-0.9-2-2-2H33c-1.1,0-2,0.9-2,2S31.9,608,33,608z"/>
		<path class="st5" d="M21,614h24c1.1,0,2-0.9,2-2s-0.9-2-2-2H21c-1.1,0-2,0.9-2,2S19.9,614,21,614z"/>
		<path class="st5" d="M15,620h24c1.1,0,2-0.9,2-2s-0.9-2-2-2H15c-1.1,0-2,0.9-2,2S13.9,620,15,620z"/>
		<path class="st5" d="M74,624c0-1.1-0.9-2-2-2H12c-1.1,0-2,0.9-2,2s0.9,2,2,2h60C73.1,626,74,625.1,74,624z"/>
		<path class="st5" d="M72,628H15c-1.1,0-2,0.9-2,2s0.9,2,2,2h57c1.1,0,2-0.9,2-2S73.1,628,72,628z"/>
		<path class="st5" d="M33,634l-12,0c-1.1,0-2,0.9-2,2c0,1.1,0.9,2,2,2l12,0c1.1,0,2-0.9,2-2S34.1,634,33,634z"/>
		<path class="st5" d="M52,614h8c1.1,0,2-0.9,2-2s-0.9-2-2-2h-8c-1.1,0-2,0.9-2,2S50.9,614,52,614z"/>
		<path class="st5" d="M43,618c0,1.1,0.9,2,2,2h21c1.1,0,2-0.9,2-2s-0.9-2-2-2H45C43.9,616,43,616.9,43,618z"/>
		<path class="st5" d="M66,634l-27,0c-1.1,0-2,0.9-2,2s0.9,2,2,2l27,0c1.1,0,2-0.9,2-2C68,634.9,67.1,634,66,634z"/>
	</g>
	<g>
		<path class="st1" d="M148-288c0,2.4,0.7,4.9,1.9,7c0.4,0.6,1,1,1.7,1h20.8c0.7,0,1.4-0.4,1.7-1c1.2-2.1,1.9-4.6,1.9-7
			c0-7.7-6.3-14-14-14S148-295.7,148-288z M152.8-284C152.8-284,152.8-284,152.8-284C152.8-284,152.9-284,152.8-284L152.8-284z
			 M160.8-297.9c0.4-0.1,0.8-0.1,1.2-0.1c0.1,0,0.1,0,0.2,0C161.7-298,161.2-298,160.8-297.9z"/>
		<polygon class="st1" points="162.1,-314.4 157.2,-305.9 167,-305.9 		"/>
		<polygon class="st1" points="144.1,-292.8 135.6,-287.8 144.1,-282.9 		"/>
		<polygon class="st1" points="180.1,-282.9 188.6,-287.8 180.1,-292.8 		"/>
		<polygon class="st1" points="178.8,-304.6 173.3,-302.9 177.1,-299.1 		"/>
		<polygon class="st1" points="147,-299.1 150.8,-302.9 145.3,-304.6 		"/>
	</g>
	<g>
		<path class="st1" d="M288.3-288.6c-2.4-4.4-7-7.4-12.3-7.4c-7.7,0-14,6.3-14,14c0,1.1,0.9,2,2,2h24c1.1,0,2-0.9,2-2
			c0-2-0.4-3.9-1.2-5.6C288.7-288,288.5-288.3,288.3-288.6z"/>
		<path class="st1" d="M266.7-277.9L266.7-277.9C266.7-277.9,266.7-277.9,266.7-277.9C266.7-277.9,266.7-277.9,266.7-277.9z"/>
		<polygon class="st1" points="275.9,-308.2 271,-299.7 280.8,-299.7 		"/>
		<polygon class="st1" points="287.1,-296.8 291,-292.9 292.7,-298.5 		"/>
		<polygon class="st1" points="259.1,-298.5 260.8,-292.9 264.7,-296.8 		"/>
	</g>
	<g>
		<path class="st1" d="M390-290c-5,0-9.6,2.7-12.1,7c-0.4,0.6-0.4,1.4,0,2c0.4,0.6,1,1,1.7,1h20.8c0.7,0,1.4-0.4,1.7-1
			c0.4-0.6,0.4-1.4,0-2C399.6-287.3,395-290,390-290z M389.8-286c0.1,0,0.1,0,0.2,0c0,0,0.1,0,0.1,0C390-286,389.9-286,389.8-286z"
			/>
		<path class="st1" d="M380.8-271.8L380.8-271.8C380.8-271.8,380.8-271.8,380.8-271.8C380.8-271.8,380.8-271.8,380.8-271.8z"/>
		<polygon class="st1" points="390,-302.2 385.1,-293.7 394.9,-293.7 		"/>
		<polygon class="st1" points="401.2,-290.7 405,-286.9 406.7,-292.4 		"/>
		<polygon class="st1" points="373.2,-292.4 374.9,-286.9 378.7,-290.7 		"/>
	</g>
	<g>
		<path class="st1" d="M375.9,390.4c0,2.4,0.7,4.9,1.9,7c0.4,0.6,1,1,1.7,1h20.8c0.7,0,1.4-0.4,1.7-1c1.2-2.1,1.9-4.6,1.9-7
			c0-7.7-6.3-14-14-14S375.9,382.6,375.9,390.4z M380.8,394.4C380.7,394.3,380.7,394.3,380.8,394.4
			C380.8,394.3,380.8,394.3,380.8,394.4L380.8,394.4z M388.7,380.4c0.4-0.1,0.8-0.1,1.2-0.1c0.1,0,0.1,0,0.2,0
			C389.6,380.4,389.1,380.4,388.7,380.4z"/>
		<polygon class="st1" points="390,364 385.1,372.5 394.9,372.5 		"/>
		<polygon class="st1" points="372,385.6 363.5,390.5 372,395.4 		"/>
		<polygon class="st1" points="408,395.4 416.5,390.5 408,385.6 		"/>
		<polygon class="st1" points="406.7,373.7 401.2,375.4 405,379.3 		"/>
		<polygon class="st1" points="374.9,379.3 378.7,375.4 373.2,373.7 		"/>
	</g>
	<g>
		<path class="st1" d="M490.1,390c0,2.4,0.7,4.9,1.9,7c0.4,0.6,1,1,1.7,1h20.8c0.7,0,1.4-0.4,1.7-1c1.2-2.1,1.9-4.6,1.9-7
			c0-7.7-6.3-14-14-14C496.4,376,490.1,382.3,490.1,390z M494.9,394C494.9,394,494.9,394,494.9,394C494.9,394,495,394,494.9,394
			L494.9,394z M502.8,380.1c0.4-0.1,0.8-0.1,1.2-0.1c0.1,0,0.1,0,0.2,0C503.8,380,503.3,380,502.8,380.1z"/>
		<polygon class="st1" points="504.1,363.6 499.2,372.1 509,372.1 		"/>
		<polygon class="st1" points="486.1,385.2 477.7,390.2 486.1,395.1 		"/>
		<polygon class="st1" points="522.2,395.1 530.7,390.2 522.2,385.2 		"/>
		<polygon class="st1" points="520.9,373.4 515.3,375.1 519.2,378.9 		"/>
		<polygon class="st1" points="489.1,378.9 492.9,375.1 487.3,373.4 		"/>
	</g>
	<g>
		<path class="st4" d="M294,952c-0.5,0-1.1,0.1-1.7,0.2c-2.1-7.2-8.6-12.2-16.3-12.2c-7.7,0-14.2,5-16.3,12.2
			c-0.6-0.1-1.2-0.2-1.7-0.2c-6.1,0-11,4.9-11,11s4.9,11,11,11h36c6.1,0,11-4.9,11-11S300.1,952,294,952z"/>
		<g>
			<path class="st5" d="M289.8,979l-30,0c-1.1,0-2,0.9-2,2c0,1.1,0.9,2,2,2l30,0c3.9,0,7,3.1,7,7s-3.1,7-7,7c-1.1,0-2,0.9-2,2
				s0.9,2,2,2c6.1,0,11-4.9,11-11S295.9,979,289.8,979z"/>
			<path class="st5" d="M283.8,985h-24c-1.1,0-2,0.9-2,2s0.9,2,2,2h24c0.6,0,1,0.4,1,1s-0.4,1-1,1c-1.1,0-2,0.9-2,2s0.9,2,2,2
				c2.8,0,5-2.2,5-5S286.6,985,283.8,985z"/>
			<path class="st5" d="M304.8,971c-1.1,0-2,0.9-2,2s0.9,2,2,2c0.6,0,1,0.4,1,1s-0.4,1-1,1h-4c-1.1,0-2,0.9-2,2s0.9,2,2,2h4
				c2.8,0,5-2.2,5-5S307.6,971,304.8,971z"/>
			<path class="st5" d="M259.8,977l33,0c4.4,0,8-3.6,8-8s-3.6-8-8-8s-8,3.6-8,8c0,1.1,0.9,2,2,2s2-0.9,2-2c0-2.2,1.8-4,4-4
				c2.2,0,4,1.8,4,4s-1.8,4-4,4l-33,0c-1.1,0-2,0.9-2,2C257.8,976.1,258.7,977,259.8,977z"/>
		</g>
	</g>
	<g>
		<path class="st5" d="M404.5,978l-30,0c-1.1,0-2,0.9-2,2c0,1.1,0.9,2,2,2l30,0c3.9,0,7,3.1,7,7s-3.1,7-7,7c-1.1,0-2,0.9-2,2
			s0.9,2,2,2c6.1,0,11-4.9,11-11S410.6,978,404.5,978z"/>
		<path class="st5" d="M398.5,984h-24c-1.1,0-2,0.9-2,2s0.9,2,2,2h24c0.6,0,1,0.4,1,1s-0.4,1-1,1c-1.1,0-2,0.9-2,2s0.9,2,2,2
			c2.8,0,5-2.2,5-5S401.3,984,398.5,984z"/>
		<path class="st5" d="M419.5,970c-1.1,0-2,0.9-2,2s0.9,2,2,2c0.6,0,1,0.4,1,1s-0.4,1-1,1h-4c-1.1,0-2,0.9-2,2s0.9,2,2,2h4
			c2.8,0,5-2.2,5-5S422.3,970,419.5,970z"/>
		<path class="st5" d="M374.5,976l33,0c4.4,0,8-3.6,8-8s-3.6-8-8-8c-4.4,0-8,3.6-8,8c0,1.1,0.9,2,2,2c1.1,0,2-0.9,2-2
			c0-2.2,1.8-4,4-4c2.2,0,4,1.8,4,4s-1.8,4-4,4l-33,0c-1.1,0-2,0.9-2,2C372.5,975.1,373.4,976,374.5,976z"/>
	</g>
	<g>
		<path class="st5" d="M519.3,978l-30,0c-1.1,0-2,0.9-2,2c0,1.1,0.9,2,2,2l30,0c3.9,0,7,3.1,7,7s-3.1,7-7,7c-1.1,0-2,0.9-2,2
			s0.9,2,2,2c6.1,0,11-4.9,11-11S525.3,978,519.3,978z"/>
		<path class="st5" d="M513.3,984h-24c-1.1,0-2,0.9-2,2s0.9,2,2,2h24c0.6,0,1,0.4,1,1s-0.4,1-1,1c-1.1,0-2,0.9-2,2s0.9,2,2,2
			c2.8,0,5-2.2,5-5S516,984,513.3,984z"/>
		<path class="st5" d="M534.3,970c-1.1,0-2,0.9-2,2s0.9,2,2,2c0.6,0,1,0.4,1,1s-0.4,1-1,1h-4c-1.1,0-2,0.9-2,2s0.9,2,2,2h4
			c2.8,0,5-2.2,5-5S537,970,534.3,970z"/>
		<path class="st5" d="M489.3,976l33,0c4.4,0,8-3.6,8-8s-3.6-8-8-8c-4.4,0-8,3.6-8,8c0,1.1,0.9,2,2,2s2-0.9,2-2c0-2.2,1.8-4,4-4
			s4,1.8,4,4s-1.8,4-4,4l-33,0c-1.1,0-2,0.9-2,2C487.3,975.1,488.2,976,489.3,976z"/>
	</g>
</g>
</svg>
