<?xml version="1.0" encoding="utf-8"?>
<!-- Generator: Adobe Illustrator 19.2.0, SVG Export Plug-In . SVG Version: 6.00 Build 0)  -->
<svg version="1.1" xmlns="http://www.w3.org/2000/svg" xmlns:xlink="http://www.w3.org/1999/xlink" x="0px" y="0px"
	 viewBox="0 0 96 96" style="enable-background:new 0 0 96 96;" xml:space="preserve">
<style type="text/css">
	.st0{display:none;}
	.st1{fill:#FFCC00;}
	.st2{fill:#5AC8FA;}
	.st3{fill:#5856D6;}
	.st4{fill:#007AFF;}
	.st5{fill:#FF9500;}
	.st6{fill:#FF3B30;}
</style>
<g id="Base" class="st0">
</g>
<g id="Dibujo">
	<g>
		<polyline class="st1" points="267.7,-738.9 260.7,-725.8 265.9,-725.8 260.1,-714.4 272.3,-728.6 266.1,-728.5 275,-738.9 		"/>
		<polyline class="st1" points="280.5,-743.8 273.5,-730.7 278.7,-730.7 272.9,-719.3 285.1,-733.5 278.9,-733.4 287.8,-743.8 		"/>
	</g>
	<g>
		<path class="st2" d="M-68.5-60v18c0,1.1,0.9,2,2,2c1.1,0,2-0.9,2-2v-18c0-1.1-0.9-2-2-2C-67.6-62-68.5-61.1-68.5-60z"/>
		<path class="st2" d="M-91.5-41h-2c-1.1,0-2,0.9-2,2v2c0,1.1,0.9,2,2,2h2c1.1,0,2-0.9,2-2v-2C-89.5-40.1-90.4-41-91.5-41z"/>
		<path class="st2" d="M-65.5-36h-2c-1.1,0-2,0.9-2,2v2c0,1.1,0.9,2,2,2h2c1.1,0,2-0.9,2-2v-2C-63.5-35.1-64.4-36-65.5-36z"/>
		<path class="st2" d="M-38.5-44h-2c-1.1,0-2,0.9-2,2v2c0,1.1,0.9,2,2,2h2c1.1,0,2-0.9,2-2v-2C-36.5-43.1-37.4-44-38.5-44z"/>
		<path class="st2" d="M-75.5-56c-1.1,0-2,0.9-2,2v15.1c-1.2-0.7-2.5-1.1-4-1.1h-2c-1.1,0-2,0.9-2,2s0.9,2,2,2h2c2.2,0,4,1.8,4,4
			c0,1.1,0.9,2,2,2c1.1,0,2-0.9,2-2v-22C-73.5-55.1-74.4-56-75.5-56z"/>
		<path class="st2" d="M-48.5-43c-2.7,0-5.1,0.9-7,2.5V-54c0-1.1-0.9-2-2-2c-1.1,0-2,0.9-2,2v22c0,0,0,0,0,0c0,1.1,0.9,2,2,2
			c1.1,0,2-0.9,2-2v0c0-3.9,3.1-7,7-7c1.1,0,2-0.9,2-2S-47.4-43-48.5-43z"/>
	</g>
	<g>
		<path class="st1" d="M288.2-92c-7.7,0-14,6.3-14,14s6.3,14,14,14c7.7,0,14-6.3,14-14S295.9-92,288.2-92z"/>
		<polygon class="st1" points="288.2,-104.5 293.1,-96 283.3,-96 		"/>
		<polygon class="st1" points="314.8,-78 306.3,-73.1 306.3,-82.9 		"/>
		<polygon class="st1" points="305,-94.8 303.3,-89.2 299.4,-93.1 		"/>
		<polygon class="st1" points="271.4,-94.8 277,-93.1 273.1,-89.2 		"/>
	</g>
	<g>
		<path class="st1" d="M401.9-206c-7.7,0-14,6.3-14,14s6.3,14,14,14s14-6.3,14-14S409.6-206,401.9-206z"/>
		<polygon class="st1" points="401.9,-218.5 406.8,-210 397,-210 		"/>
		<polygon class="st1" points="428.4,-192 420,-187.1 420,-196.9 		"/>
		<polygon class="st1" points="418.6,-208.8 416.9,-203.2 413.1,-207.1 		"/>
		<polygon class="st1" points="385.1,-208.8 390.6,-207.1 386.8,-203.2 		"/>
	</g>
	<g>
		<path class="st2" d="M50-162.1v-12c0-1.1-0.9-2-2-2s-2,0.9-2,2v12c0,1.1,0.9,2,2,2S50-161,50-162.1z"/>
		<path class="st2" d="M41-156.1v-12c0-1.1-0.9-2-2-2c-1.1,0-2,0.9-2,2v12c0,1.1,0.9,2,2,2C40.1-154.1,41-155,41-156.1z"/>
		<path class="st2" d="M59-156.1v-12c0-1.1-0.9-2-2-2c-1.1,0-2,0.9-2,2v12c0,1.1,0.9,2,2,2C58.1-154.1,59-155,59-156.1z"/>
		<path class="st2" d="M40-150.1h-2c-1.1,0-2,0.9-2,2v2c0,1.1,0.9,2,2,2h2c1.1,0,2-0.9,2-2v-2C42-149.2,41.1-150.1,40-150.1z"/>
		<path class="st2" d="M49-156.1h-2c-1.1,0-2,0.9-2,2v2c0,1.1,0.9,2,2,2h2c1.1,0,2-0.9,2-2v-2C51-155.2,50.1-156.1,49-156.1z"/>
		<path class="st2" d="M58-150.1h-2c-1.1,0-2,0.9-2,2v2c0,1.1,0.9,2,2,2h2c1.1,0,2-0.9,2-2v-2C60-149.2,59.1-150.1,58-150.1z"/>
	</g>
	<g>
		<path class="st1" d="M60.1-206c-7.7,0-14,6.3-14,14s6.3,14,14,14s14-6.3,14-14S67.8-206,60.1-206z"/>
		<polygon class="st1" points="60.1,-218.5 65,-210 55.2,-210 		"/>
		<polygon class="st1" points="86.7,-192 78.2,-187.1 78.2,-196.9 		"/>
		<polygon class="st1" points="76.9,-208.8 75.2,-203.2 71.3,-207.1 		"/>
		<polygon class="st1" points="43.3,-208.8 48.9,-207.1 45,-203.2 		"/>
	</g>
	<g>
		<path class="st1" d="M-54.2-319.9c-7.7,0-14,6.3-14,14c0,7.7,6.3,14,14,14s14-6.3,14-14C-40.2-313.7-46.5-319.9-54.2-319.9z"/>
		<polygon class="st1" points="-54.2,-332.4 -49.3,-324 -59.1,-324 		"/>
		<polygon class="st1" points="-27.6,-305.9 -36.1,-301 -36.1,-310.8 		"/>
		<polygon class="st1" points="-37.4,-322.7 -39.2,-317.2 -43,-321 		"/>
		<polygon class="st1" points="-71,-322.7 -65.4,-321 -69.3,-317.2 		"/>
	</g>
	<g>
		<path class="st1" d="M288-320c-7.7,0-14,6.3-14,14s6.3,14,14,14s14-6.3,14-14S295.7-320,288-320z"/>
		<polygon class="st1" points="288,-332.5 292.9,-324 283.1,-324 		"/>
		<polygon class="st1" points="314.6,-306 306.1,-301.1 306.1,-310.9 		"/>
		<polygon class="st1" points="304.8,-322.8 303,-317.2 299.2,-321.1 		"/>
		<polygon class="st1" points="271.2,-322.8 276.8,-321.1 272.9,-317.2 		"/>
	</g>
	<g>
		<path class="st1" d="M174.2-434c-7.7,0-14,6.3-14,14s6.3,14,14,14s14-6.3,14-14S182-434,174.2-434z"/>
		<polygon class="st1" points="174.3,-446.5 179.2,-438 169.4,-438 		"/>
		<polygon class="st1" points="200.8,-420 192.3,-415.1 192.3,-424.9 		"/>
		<polygon class="st1" points="191,-436.8 189.3,-431.2 185.5,-435.1 		"/>
		<polygon class="st1" points="157.5,-436.8 163,-435.1 159.2,-431.2 		"/>
	</g>
	<g>
		<path class="st1" d="M60-548c-7.7,0-14,6.3-14,14s6.3,14,14,14s14-6.3,14-14S67.7-548,60-548z"/>
		<polygon class="st1" points="60,-560.5 65,-552 55.1,-552 		"/>
		<polygon class="st1" points="86.6,-534 78.1,-529.1 78.1,-538.9 		"/>
		<polygon class="st1" points="76.8,-550.8 75.1,-545.2 71.2,-549.1 		"/>
		<polygon class="st1" points="43.2,-550.8 48.8,-549.1 45,-545.2 		"/>
	</g>
	<g>
		<path class="st1" d="M60.1-662c-7.7,0-14,6.3-14,14s6.3,14,14,14c7.7,0,14-6.3,14-14S67.8-662,60.1-662z"/>
		<polygon class="st1" points="60.1,-674.5 65,-666 55.2,-666 		"/>
		<polygon class="st1" points="86.7,-648 78.2,-643.1 78.2,-652.9 		"/>
		<polygon class="st1" points="76.9,-664.8 75.2,-659.2 71.3,-663.1 		"/>
		<polygon class="st1" points="43.3,-664.8 48.9,-663.1 45,-659.2 		"/>
	</g>
	<g>
		<path class="st1" d="M-53.8-776c-7.7,0-14,6.3-14,14s6.3,14,14,14s14-6.3,14-14S-46.1-776-53.8-776z"/>
		<polygon class="st1" points="-53.8,-788.5 -48.9,-780 -58.7,-780 		"/>
		<polygon class="st1" points="-27.2,-762 -35.7,-757.1 -35.7,-766.9 		"/>
		<polygon class="st1" points="-37,-778.8 -38.8,-773.2 -42.6,-777.1 		"/>
		<polygon class="st1" points="-70.6,-778.8 -65,-777.1 -68.9,-773.2 		"/>
	</g>
	<g>
		<path class="st1" d="M287.9-776c-7.7,0-14,6.3-14,14s6.3,14,14,14s14-6.3,14-14S295.6-776,287.9-776z"/>
		<polygon class="st1" points="287.9,-788.5 292.9,-780 283,-780 		"/>
		<polygon class="st1" points="314.5,-762 306,-757.1 306,-766.9 		"/>
		<polygon class="st1" points="304.7,-778.8 303,-773.2 299.1,-777.1 		"/>
		<polygon class="st1" points="271.1,-778.8 276.7,-777.1 272.9,-773.2 		"/>
	</g>
	<g>
		<path class="st1" d="M174-890c-7.7,0-14,6.3-14,14s6.3,14,14,14s14-6.3,14-14S181.7-890,174-890z"/>
		<polygon class="st1" points="174.1,-902.5 179,-894 169.2,-894 		"/>
		<polygon class="st1" points="200.6,-876 192.1,-871.1 192.1,-880.9 		"/>
		<polygon class="st1" points="190.8,-892.8 189.1,-887.2 185.3,-891.1 		"/>
		<polygon class="st1" points="157.3,-892.8 162.8,-891.1 159,-887.2 		"/>
	</g>
	<g>
		<path class="st1" d="M401.9-1004c-7.7,0-14,6.3-14,14s6.3,14,14,14s14-6.3,14-14S409.7-1004,401.9-1004z"/>
		<polygon class="st1" points="402,-1016.5 406.9,-1008 397.1,-1008 		"/>
		<polygon class="st1" points="428.5,-990 420,-985.1 420,-994.9 		"/>
		<polygon class="st1" points="418.7,-1006.7 417,-1001.2 413.2,-1005 		"/>
		<polygon class="st1" points="385.2,-1006.7 390.7,-1005 386.9,-1001.2 		"/>
	</g>
	<path class="st3" d="M-51.5-94.6c0-1.2,0.2-2.3,0.6-3.4c-1-0.2-2-0.3-3-0.3c-7.7,0-14,6.3-14,14s6.3,14,14,14
		c7.7,0,13.9-6.2,14-13.8c-0.3,0-0.7,0.1-1,0.1C-46.8-84.1-51.5-88.8-51.5-94.6z"/>
	<path class="st3" d="M404.5-94.3c0-1.2,0.2-2.3,0.6-3.4c-1-0.2-2-0.3-3-0.3c-7.7,0-14,6.3-14,14s6.3,14,14,14
		c7.7,0,13.9-6.2,14-13.8c-0.3,0-0.7,0.1-1,0.1C409.2-83.7,404.5-88.5,404.5-94.3z"/>
	<path class="st3" d="M176.5-208.6c0-1.2,0.2-2.3,0.6-3.4c-1-0.2-2-0.3-3-0.3c-7.7,0-14,6.3-14,14s6.3,14,14,14
		c7.7,0,13.9-6.2,14-13.8c-0.3,0-0.7,0.1-1,0.1C181.2-198.1,176.5-202.8,176.5-208.6z"/>
	<path class="st3" d="M404.6-322.3c0-1.2,0.2-2.3,0.6-3.4c-1-0.2-2-0.3-3-0.3c-7.7,0-14,6.3-14,14s6.3,14,14,14
		c7.7,0,13.9-6.2,14-13.8c-0.3,0-0.7,0.1-1,0.1C409.3-311.7,404.6-316.5,404.6-322.3z"/>
	<path class="st3" d="M62.5-322.3c0-1.2,0.2-2.3,0.6-3.4c-1-0.2-2-0.3-3-0.3c-7.7,0-14,6.3-14,14s6.3,14,14,14
		c7.7,0,13.9-6.2,14-13.8c-0.3,0-0.7,0.1-1,0.1C67.2-311.7,62.5-316.5,62.5-322.3z"/>
	<path class="st3" d="M-54.5-430.3c0-1.2,0.2-2.3,0.6-3.4c-1-0.2-2-0.3-3-0.3c-7.7,0-14,6.3-14,14s6.3,14,14,14
		c7.7,0,13.9-6.2,14-13.8c-0.3,0-0.7,0.1-1,0.1C-49.8-419.7-54.5-424.5-54.5-430.3z"/>
	<path class="st3" d="M176.5-550.3c0-1.2,0.2-2.3,0.6-3.4c-1-0.2-2-0.3-3-0.3c-7.7,0-14,6.3-14,14s6.3,14,14,14
		c7.7,0,13.9-6.2,14-13.8c-0.3,0-0.7,0.1-1,0.1C181.2-539.7,176.5-544.5,176.5-550.3z"/>
	<path class="st3" d="M290.5-436.3c0-1.2,0.2-2.3,0.6-3.4c-1-0.2-2-0.3-3-0.3c-7.7,0-14,6.3-14,14s6.3,14,14,14
		c7.7,0,13.9-6.2,14-13.8c-0.3,0-0.7,0.1-1,0.1C295.2-425.7,290.5-430.5,290.5-436.3z"/>
	<path class="st3" d="M176.5-664.3c0-1.2,0.2-2.3,0.6-3.4c-1-0.2-2-0.3-3-0.3c-7.7,0-14,6.3-14,14s6.3,14,14,14
		c7.7,0,13.9-6.2,14-13.8c-0.3,0-0.7,0.1-1,0.1C181.2-653.7,176.5-658.5,176.5-664.3z"/>
	<path class="st3" d="M62.5-778.3c0-1.2,0.2-2.3,0.6-3.4c-1-0.2-2-0.3-3-0.3c-7.7,0-14,6.3-14,14s6.3,14,14,14
		c7.7,0,13.9-6.2,14-13.8c-0.3,0-0.7,0.1-1,0.1C67.2-767.7,62.5-772.5,62.5-778.3z"/>
	<path class="st3" d="M404.6-778.3c0-1.2,0.2-2.3,0.6-3.4c-1-0.2-2-0.3-3-0.3c-7.7,0-14,6.3-14,14s6.3,14,14,14
		c7.7,0,13.9-6.2,14-13.8c-0.3,0-0.7,0.1-1,0.1C409.3-767.7,404.6-772.5,404.6-778.3z"/>
	<path class="st3" d="M-51.5-892.3c0-1.2,0.2-2.3,0.6-3.4c-1-0.2-2-0.3-3-0.3c-7.7,0-14,6.3-14,14s6.3,14,14,14
		c7.7,0,13.9-6.2,14-13.8c-0.3,0-0.7,0.1-1,0.1C-46.8-881.7-51.5-886.5-51.5-892.3z"/>
	<path class="st3" d="M290.5-892.3c0-1.2,0.2-2.3,0.6-3.4c-1-0.2-2-0.3-3-0.3c-7.7,0-14,6.3-14,14s6.3,14,14,14
		c7.7,0,13.9-6.2,14-13.8c-0.3,0-0.7,0.1-1,0.1C295.2-881.7,290.5-886.5,290.5-892.3z"/>
	<path class="st3" d="M392.4-1330.2c0-1.2,0.2-2.3,0.6-3.4c-1-0.2-2-0.3-3-0.3c-7.7,0-14,6.3-14,14c0,7.7,6.3,14,14,14
		c7.7,0,13.9-6.2,14-13.8c-0.3,0-0.7,0.1-1,0.1C397.1-1319.7,392.4-1324.4,392.4-1330.2z"/>
	<g>
		<path class="st2" d="M162-848c-1.1,0-2,0.9-2,2v18c0,1.1,0.9,2,2,2c1.1,0,2-0.9,2-2v-18C164-847.1,163.1-848,162-848z"/>
		<path class="st2" d="M189.7-866.2c-0.3-0.6-0.7-1.2-1.2-1.8c-1.3-1.6-3.2-2.9-5.2-3.5c-1-0.3-2.1-0.5-3.3-0.5
			c-0.5,0-1.1,0.1-1.7,0.2c-2.1-7.2-8.6-12.2-16.3-12.2c-7.7,0-14.2,5-16.3,12.2c-0.6-0.1-1.2-0.2-1.7-0.2c-1.1,0-2.2,0.2-3.3,0.5
			c-2.1,0.6-3.9,1.9-5.2,3.5c-0.4,0.5-0.8,1.1-1.2,1.8c-0.8,1.6-1.3,3.3-1.3,5.2s0.5,3.7,1.3,5.2c0.3,0.6,0.7,1.2,1.2,1.8
			c1.3,1.6,3.2,2.9,5.2,3.5c1,0.3,2.1,0.5,3.3,0.5h7v16c0,1.1,0.9,2,2,2c1.1,0,2-0.9,2-2v-16h14v16c0,1.1,0.9,2,2,2c1.1,0,2-0.9,2-2
			v-16h7c1.1,0,2.2-0.2,3.3-0.5c2.1-0.6,3.9-1.9,5.2-3.5c0.4-0.5,0.8-1.1,1.2-1.8c0.8-1.6,1.3-3.3,1.3-5.2S190.5-864.7,189.7-866.2z
			"/>
	</g>
	<path class="st4" d="M-48-986c-0.5,0-1.1,0.1-1.7,0.2C-51.8-993-58.3-998-66-998c-7.7,0-14.2,5-16.3,12.2c-0.6-0.1-1.2-0.2-1.7-0.2
		c-6.1,0-11,4.9-11,11s4.9,11,11,11h36c6.1,0,11-4.9,11-11S-41.9-986-48-986z"/>
	<path class="st3" d="M-66-1220c-7.7,0-14,6.3-14,14s6.3,14,14,14s14-6.3,14-14S-58.3-1220-66-1220z"/>
	<path class="st3" d="M48-1220c-7.7,0-14,6.3-14,14s6.3,14,14,14s14-6.3,14-14S55.7-1220,48-1220z M48.7-1196
		c3.2-2.1,5.3-5.8,5.3-10s-2.1-7.8-5.3-10c5.2,0.3,9.3,4.7,9.3,10S53.9-1196.4,48.7-1196z"/>
	<path class="st3" d="M162-1106c-7.7,0-14,6.3-14,14s6.3,14,14,14c7.7,0,14-6.3,14-14S169.7-1106,162-1106z M152-1092
		c0-5.3,4.1-9.6,9.3-10c-3.2,2.1-5.3,5.8-5.3,10s2.1,7.8,5.3,10C156.1-1082.4,152-1086.7,152-1092z"/>
	<path class="st3" d="M162-1220c-7.7,0-14,6.3-14,14s6.3,14,14,14c7.7,0,14-6.3,14-14S169.7-1220,162-1220z M162-1196v-20
		c5.5,0,10,4.5,10,10S167.5-1196,162-1196z"/>
	<path class="st3" d="M48-1106c-7.7,0-14,6.3-14,14s6.3,14,14,14s14-6.3,14-14S55.7-1106,48-1106z M38-1092c0-5.5,4.5-10,10-10v20
		C42.5-1082,38-1086.5,38-1092z"/>
	<path class="st3" d="M276-1220c-7.7,0-14,6.3-14,14s6.3,14,14,14s14-6.3,14-14S283.7-1220,276-1220z M276-1196c-0.2,0-0.4,0-0.7,0
		c-3.2-2.1-5.3-5.8-5.3-10s2.1-7.8,5.3-10c0.2,0,0.4,0,0.7,0c5.5,0,10,4.5,10,10S281.5-1196,276-1196z"/>
	<path class="st3" d="M-66-1106c-7.7,0-14,6.3-14,14s6.3,14,14,14s14-6.3,14-14S-58.3-1106-66-1106z M-76-1092c0-5.5,4.5-10,10-10
		c0.2,0,0.4,0,0.7,0c3.2,2.1,5.3,5.8,5.3,10s-2.1,7.8-5.3,10c-0.2,0-0.4,0-0.7,0C-71.5-1082-76-1086.5-76-1092z"/>
	<path class="st3" d="M390-1220c-7.7,0-14,6.3-14,14s6.3,14,14,14c7.7,0,14-6.3,14-14S397.7-1220,390-1220z M390-1196
		c-5.5,0-10-4.5-10-10s4.5-10,10-10s10,4.5,10,10S395.5-1196,390-1196z"/>
	<path class="st4" d="M278-1117.9v-2.1c0-1.1-0.9-2-2-2c-1.1,0-2,0.9-2,2v2.1c-13.4,1-24,12.3-24,25.9c0,1.1,0.9,2,2,2
		c1.1,0,2-0.9,2-2c0-2.2,1.8-4,4-4c2.2,0,4,1.8,4,4c0,1.1,0.9,2,2,2c1.1,0,2-0.9,2-2c0-2.2,1.8-4,4-4c2.2,0,4,1.8,4,4v21
		c0,2.8,2.2,5,5,5s5-2.2,5-5c0-1.1-0.9-2-2-2c-1.1,0-2,0.9-2,2c0,0.6-0.4,1-1,1c-0.6,0-1-0.4-1-1v-21c0-2.2,1.8-4,4-4
		c2.2,0,4,1.8,4,4c0,1.1,0.9,2,2,2c1.1,0,2-0.9,2-2c0-2.2,1.8-4,4-4c2.2,0,4,1.8,4,4c0,1.1,0.9,2,2,2c1.1,0,2-0.9,2-2
		C302-1105.7,291.4-1116.9,278-1117.9z"/>
	<g>
		<path class="st5" d="M267-532h12c1.1,0,2-0.9,2-2s-0.9-2-2-2h-12c-1.1,0-2,0.9-2,2S265.9-532,267-532z"/>
		<path class="st5" d="M255-526h24c1.1,0,2-0.9,2-2s-0.9-2-2-2h-24c-1.1,0-2,0.9-2,2S253.9-526,255-526z"/>
		<path class="st5" d="M249-520h24c1.1,0,2-0.9,2-2s-0.9-2-2-2h-24c-1.1,0-2,0.9-2,2S247.9-520,249-520z"/>
		<path class="st5" d="M308-516c0-1.1-0.9-2-2-2h-60c-1.1,0-2,0.9-2,2s0.9,2,2,2h60C307.1-514,308-514.9,308-516z"/>
		<path class="st5" d="M306-512h-57c-1.1,0-2,0.9-2,2s0.9,2,2,2h57c1.1,0,2-0.9,2-2S307.1-512,306-512z"/>
		<path class="st5" d="M267-506l-12,0c-1.1,0-2,0.9-2,2s0.9,2,2,2l12,0c1.1,0,2-0.9,2-2S268.1-506,267-506z"/>
		<path class="st5" d="M286-526h8c1.1,0,2-0.9,2-2s-0.9-2-2-2h-8c-1.1,0-2,0.9-2,2S284.9-526,286-526z"/>
		<path class="st5" d="M277-522c0,1.1,0.9,2,2,2h21c1.1,0,2-0.9,2-2s-0.9-2-2-2h-21C277.9-524,277-523.1,277-522z"/>
		<path class="st5" d="M300-506l-27,0c-1.1,0-2,0.9-2,2s0.9,2,2,2l27,0c1.1,0,2-0.9,2-2S301.1-506,300-506z"/>
	</g>
	<g>
		<path class="st2" d="M21-403c1.1,0,2-0.9,2-2c0-3.9,3.1-7,7-7c0.3,0,0.7,0.1,1.2,0.2v1.8c0,1.1,0.9,2,2,2c1.1,0,2-0.9,2-2v-3.2
			c1.1-6.3,6.4-10.8,12.8-10.8s11.7,4.5,12.8,10.8v3.2c0,1.1,0.9,2,2,2c1.1,0,2-0.9,2-2v-1.8c0.5-0.1,0.9-0.2,1.2-0.2
			c3.9,0,7,3.1,7,7c0,1.1,0.9,2,2,2s2-0.9,2-2c0-6.1-4.9-11-11-11c-0.5,0-1.1,0.1-1.7,0.2C62.2-423,55.7-428,48-428
			s-14.2,5-16.3,12.2c-0.6-0.1-1.2-0.2-1.7-0.2c-6.1,0-11,4.9-11,11C19-403.9,19.9-403,21-403z"/>
		<path class="st2" d="M40-397c0,1.1,0.9,2,2,2h36c1.1,0,2-0.9,2-2s-0.9-2-2-2H42C40.9-399,40-398.1,40-397z"/>
		<path class="st2" d="M48-392c-1.1,0-2,0.9-2,2s0.9,2,2,2h27c1.1,0,2-0.9,2-2s-0.9-2-2-2H48z"/>
		<path class="st2" d="M78-385H54c-1.1,0-2,0.9-2,2s0.9,2,2,2h24c1.1,0,2-0.9,2-2S79.1-385,78-385z"/>
		<path class="st2" d="M18-395h18c1.1,0,2-0.9,2-2s-0.9-2-2-2H18c-1.1,0-2,0.9-2,2S16.9-395,18-395z"/>
		<path class="st2" d="M21-392c-1.1,0-2,0.9-2,2s0.9,2,2,2h21c1.1,0,2-0.9,2-2s-0.9-2-2-2H21z"/>
		<path class="st2" d="M48-385H18c-1.1,0-2,0.9-2,2s0.9,2,2,2h30c1.1,0,2-0.9,2-2S49.1-385,48-385z"/>
	</g>
	<g>
		<path class="st2" d="M408-422c-0.5,0-1.1,0.1-1.7,0.2c-2.1-7.2-8.6-12.2-16.3-12.2c-7.7,0-14.2,5-16.3,12.2
			c-0.6-0.1-1.2-0.2-1.7-0.2c-6.1,0-11,4.9-11,11s4.9,11,11,11c1.1,0,2-0.9,2-2s-0.9-2-2-2c-3.9,0-7-3.1-7-7s3.1-7,7-7
			c0.3,0,0.7,0.1,1.2,0.2v1.8c0,1.1,0.9,2,2,2c1.1,0,2-0.9,2-2v-3.2c1.1-6.3,6.4-10.8,12.8-10.8c6.4,0,11.7,4.5,12.8,10.8v3.2
			c0,1.1,0.9,2,2,2s2-0.9,2-2v-1.8c0.5-0.1,0.9-0.2,1.2-0.2c3.9,0,7,3.1,7,7s-3.1,7-7,7c-1.1,0-2,0.9-2,2s0.9,2,2,2
			c6.1,0,11-4.9,11-11S414.1-422,408-422z"/>
		<path class="st2" d="M381.6-403.2c-0.8-1-2.4-1-3.2,0c-0.8,1.1-3.4,4.7-3.4,7.2c0,2.9,2.1,5,5,5c2.9,0,5-2.1,5-5
			C385-398.5,382.4-402.1,381.6-403.2z"/>
		<path class="st2" d="M398.4-403.2c-0.8,1.1-3.4,4.7-3.4,7.2c0,2.9,2.1,5,5,5c2.9,0,5-2.1,5-5c0-2.5-2.6-6.1-3.4-7.2
			C400.8-404.2,399.2-404.2,398.4-403.2z"/>
		<path class="st2" d="M388.4-391.2c-0.8,1.1-3.4,4.7-3.4,7.2c0,2.9,2.1,5,5,5c2.9,0,5-2.1,5-5c0-2.5-2.6-6.1-3.4-7.2
			C390.8-392.2,389.2-392.2,388.4-391.2z"/>
	</g>
	<g>
		<path d="M283.6,172.6l-5.6,5.6V165c0-1.1-0.9-2-2-2c-1.1,0-2,0.9-2,2v13.2l-5.6-5.6c-0.8-0.8-2-0.8-2.8,0c-0.8,0.8-0.8,2,0,2.8
			l9,9c0.1,0.1,0.2,0.2,0.3,0.3c0,0,0.1,0.1,0.1,0.1c0.1,0,0.1,0.1,0.2,0.1c0.1,0,0.1,0,0.2,0.1c0.1,0,0.1,0,0.2,0.1
			c0.1,0,0.3,0,0.4,0c0.1,0,0.3,0,0.4,0c0.1,0,0.1,0,0.2-0.1c0.1,0,0.1,0,0.2-0.1c0.1,0,0.1-0.1,0.2-0.1c0,0,0.1,0,0.1-0.1
			c0.1-0.1,0.2-0.2,0.3-0.3l9-9c0.8-0.8,0.8-2,0-2.8C285.6,171.8,284.4,171.8,283.6,172.6z"/>
		<path d="M294,154c-0.5,0-1.1,0.1-1.7,0.2c-2.1-7.2-8.6-12.2-16.3-12.2c-7.7,0-14.2,5-16.3,12.2c-0.6-0.1-1.2-0.2-1.7-0.2
			c-6.1,0-11,4.9-11,11s4.9,11,11,11l2,0c1.1,0,2-0.9,2-2c0-1.1-0.9-2-2-2h0l-2,0c-3.9,0-7-3.1-7-7s3.1-7,7-7c0.3,0,0.7,0.1,1.2,0.2
			v1.8c0,1.1,0.9,2,2,2c1.1,0,2-0.9,2-2v-3.2c1.1-6.3,6.4-10.8,12.8-10.8c6.4,0,11.7,4.5,12.8,10.8v3.2c0,1.1,0.9,2,2,2s2-0.9,2-2
			v-1.8c0.5-0.1,0.9-0.2,1.2-0.2c3.9,0,7,3.1,7,7s-3.1,7-7,7l-2,0h0c-1.1,0-2,0.9-2,2c0,1.1,0.9,2,2,2l2,0c6.1,0,11-4.9,11-11
			S300.1,154,294,154z"/>
	</g>
	<g>
		<path d="M391.4,163.6c-0.1-0.1-0.2-0.2-0.3-0.3c0,0-0.1-0.1-0.1-0.1c-0.1,0-0.1-0.1-0.2-0.1c-0.1,0-0.1,0-0.2-0.1
			c-0.1,0-0.1,0-0.2-0.1c-0.3-0.1-0.5-0.1-0.8,0c-0.1,0-0.1,0-0.2,0.1c-0.1,0-0.1,0-0.2,0.1c-0.1,0-0.1,0.1-0.2,0.1
			c0,0-0.1,0-0.1,0.1c-0.1,0.1-0.2,0.2-0.3,0.3l-9,9c-0.8,0.8-0.8,2,0,2.8c0.8,0.8,2,0.8,2.8,0l5.6-5.6V183c0,1.1,0.9,2,2,2
			c1.1,0,2-0.9,2-2v-13.2l5.6,5.6c0.4,0.4,0.9,0.6,1.4,0.6c0.5,0,1-0.2,1.4-0.6c0.8-0.8,0.8-2,0-2.8L391.4,163.6z"/>
		<path d="M408,154c-0.5,0-1.1,0.1-1.7,0.2c-2.1-7.2-8.6-12.2-16.3-12.2c-7.7,0-14.2,5-16.3,12.2c-0.6-0.1-1.2-0.2-1.7-0.2
			c-6.1,0-11,4.9-11,11s4.9,11,11,11l2,0c1.1,0,2-0.9,2-2c0-1.1-0.9-2-2-2h0l-2,0c-3.9,0-7-3.1-7-7s3.1-7,7-7c0.3,0,0.7,0.1,1.2,0.2
			v1.8c0,1.1,0.9,2,2,2c1.1,0,2-0.9,2-2v-3.2c1.1-6.3,6.4-10.8,12.8-10.8c6.4,0,11.7,4.5,12.8,10.8v3.2c0,1.1,0.9,2,2,2s2-0.9,2-2
			v-1.8c0.5-0.1,0.9-0.2,1.2-0.2c3.9,0,7,3.1,7,7s-3.1,7-7,7l-2,0h0c-1.1,0-2,0.9-2,2c0,1.1,0.9,2,2,2l2,0c6.1,0,11-4.9,11-11
			S414.1,154,408,154z"/>
	</g>
	<g>
		<path class="st2" d="M388-174v18c0,1.1,0.9,2,2,2c1.1,0,2-0.9,2-2v-18c0-1.1-0.9-2-2-2C388.9-176,388-175.1,388-174z"/>
		<path class="st2" d="M365-155h-2c-1.1,0-2,0.9-2,2v2c0,1.1,0.9,2,2,2h2c1.1,0,2-0.9,2-2v-2C367-154.1,366.1-155,365-155z"/>
		<path class="st2" d="M391-150h-2c-1.1,0-2,0.9-2,2v2c0,1.1,0.9,2,2,2h2c1.1,0,2-0.9,2-2v-2C393-149.1,392.1-150,391-150z"/>
		<path class="st2" d="M418-158h-2c-1.1,0-2,0.9-2,2v2c0,1.1,0.9,2,2,2h2c1.1,0,2-0.9,2-2v-2C420-157.1,419.1-158,418-158z"/>
		<path class="st2" d="M381-170c-1.1,0-2,0.9-2,2v15.1c-1.2-0.7-2.5-1.1-4-1.1h-2c-1.1,0-2,0.9-2,2c0,1.1,0.9,2,2,2h2
			c2.2,0,4,1.8,4,4c0,1.1,0.9,2,2,2c1.1,0,2-0.9,2-2v-22C383-169.1,382.1-170,381-170z"/>
		<path class="st2" d="M408-157c-2.7,0-5.1,0.9-7,2.5V-168c0-1.1-0.9-2-2-2c-1.1,0-2,0.9-2,2v22c0,0,0,0,0,0c0,1.1,0.9,2,2,2
			c1.1,0,2-0.9,2-2v0c0-3.9,3.1-7,7-7c1.1,0,2-0.9,2-2C410-156.1,409.1-157,408-157z"/>
	</g>
	<g>
		<path class="st5" d="M54-68l-30,0c-1.1,0-2,0.9-2,2s0.9,2,2,2l30,0c3.9,0,7,3.1,7,7s-3.1,7-7,7c-1.1,0-2,0.9-2,2s0.9,2,2,2
			c6.1,0,11-4.9,11-11S60.1-68,54-68z"/>
		<path class="st5" d="M48-62H24c-1.1,0-2,0.9-2,2s0.9,2,2,2h24c0.6,0,1,0.4,1,1s-0.4,1-1,1c-1.1,0-2,0.9-2,2s0.9,2,2,2
			c2.8,0,5-2.2,5-5S50.8-62,48-62z"/>
		<path class="st5" d="M69-76c-1.1,0-2,0.9-2,2s0.9,2,2,2c0.6,0,1,0.4,1,1s-0.4,1-1,1h-4c-1.1,0-2,0.9-2,2s0.9,2,2,2h4
			c2.8,0,5-2.2,5-5S71.8-76,69-76z"/>
		<path class="st5" d="M24-70l33,0c4.4,0,8-3.6,8-8s-3.6-8-8-8s-8,3.6-8,8c0,1.1,0.9,2,2,2c1.1,0,2-0.9,2-2c0-2.2,1.8-4,4-4
			c2.2,0,4,1.8,4,4s-1.8,4-4,4l-33,0c-1.1,0-2,0.9-2,2S22.9-70,24-70z"/>
	</g>
	<g>
		<path class="st5" d="M-90,26h42c1.1,0,2-0.9,2-2s-0.9-2-2-2h-42c-1.1,0-2,0.9-2,2S-91.1,26-90,26z"/>
		<path class="st5" d="M-48,30h-39c-1.1,0-2,0.9-2,2s0.9,2,2,2h39c1.1,0,2-0.9,2-2S-46.9,30-48,30z"/>
		<path class="st5" d="M-52,40c0-1.1-0.9-2-2-2h-36c-1.1,0-2,0.9-2,2s0.9,2,2,2h36C-52.9,42-52,41.1-52,40z"/>
		<path class="st5" d="M-48,46h-33c-1.1,0-2,0.9-2,2s0.9,2,2,2h33c1.1,0,2-0.9,2-2S-46.9,46-48,46z"/>
		<path class="st5" d="M-54,54h-18c-1.1,0-2,0.9-2,2s0.9,2,2,2h18c1.1,0,2-0.9,2-2S-52.9,54-54,54z"/>
		<path class="st5" d="M-60,62h-12c-1.1,0-2,0.9-2,2s0.9,2,2,2h12c1.1,0,2-0.9,2-2S-58.9,62-60,62z"/>
		<path class="st5" d="M-66,70h-6c-1.1,0-2,0.9-2,2s0.9,2,2,2h6c1.1,0,2-0.9,2-2S-64.9,70-66,70z"/>
	</g>
	<g>
		<path class="st2" d="M162,58c-2.8,0-5,2.2-5,5c0,2.8,2.2,5,5,5c2.8,0,5-2.2,5-5C167,60.2,164.8,58,162,58z M162,64
			c-0.6,0-1-0.4-1-1s0.4-1,1-1c0.6,0,1,0.4,1,1S162.6,64,162,64z"/>
		<path class="st2" d="M170,55.5l0-25.5c0-4.4-3.6-8-8-8c-4.4,0-8,3.6-8,8l0,25.5c-1.9,2-3,4.7-3,7.5c0,6.1,4.9,11,11,11
			s11-4.9,11-11C173,60.2,171.9,57.5,170,55.5z M162,70c-3.9,0-7-3.1-7-7c0-2,0.8-3.9,2.3-5.2c0.4-0.4,0.7-0.9,0.7-1.5l0-26.3
			c0-2.2,1.8-4,4-4s4,1.8,4,4l0,26.3c0,0.6,0.2,1.1,0.7,1.5c1.5,1.3,2.3,3.2,2.3,5.2C169,66.9,165.9,70,162,70z"/>
	</g>
	<g>
		<path class="st2" d="M48,74c-6.1,0-11-4.9-11-11c0-2.8,1.1-5.5,3-7.5L40,30c0-4.4,3.6-8,8-8s8,3.6,8,8l0,25.5c1.9,2,3,4.7,3,7.5
			C59,69.1,54.1,74,48,74L48,74z M48,26c-2.2,0-4,1.8-4,4l0,26.3c0,0.6-0.2,1.1-0.7,1.5C41.8,59.1,41,61,41,63c0,3.9,3.1,7,7,7
			s7-3.1,7-7c0-2-0.8-3.9-2.3-5.2c-0.4-0.4-0.7-0.9-0.7-1.5L52,30C52,27.8,50.2,26,48,26L48,26z"/>
	</g>
	<g>
		<path class="st5" d="M278,58.4V47c0-1.1-0.9-2-2-2c-1.1,0-2,0.9-2,2v11.4c-1.8,0.8-3,2.5-3,4.6c0,2.8,2.2,5,5,5s5-2.2,5-5
			C281,61,279.8,59.2,278,58.4z M276,64c-0.6,0-1-0.4-1-1s0.4-1,1-1c0.6,0,1,0.4,1,1S276.6,64,276,64z"/>
		<path class="st5" d="M284,55.5l0-25.5c0-4.4-3.6-8-8-8s-8,3.6-8,8l0,25.5c-1.9,2-3,4.7-3,7.5c0,6.1,4.9,11,11,11s11-4.9,11-11
			C287,60.2,285.9,57.5,284,55.5z M276,70c-3.9,0-7-3.1-7-7c0-2,0.8-3.9,2.3-5.2c0.4-0.4,0.7-0.9,0.7-1.5l0-26.3c0-2.2,1.8-4,4-4
			c2.2,0,4,1.8,4,4l0,26.3c0,0.6,0.2,1.1,0.7,1.5c1.5,1.3,2.3,3.2,2.3,5.2C283,66.9,279.9,70,276,70z"/>
	</g>
	<g>
		<path class="st6" d="M392,58.4V30c0-1.1-0.9-2-2-2c-1.1,0-2,0.9-2,2v28.4c-1.8,0.8-3,2.5-3,4.6c0,2.8,2.2,5,5,5c2.8,0,5-2.2,5-5
			C395,61,393.8,59.2,392,58.4z M390,64c-0.6,0-1-0.4-1-1s0.4-1,1-1c0.6,0,1,0.4,1,1S390.6,64,390,64z"/>
		<path class="st6" d="M398,55.5l0-25.5c0-4.4-3.6-8-8-8s-8,3.6-8,8l0,25.5c-1.9,2-3,4.7-3,7.5c0,6.1,4.9,11,11,11s11-4.9,11-11
			C401,60.2,399.9,57.5,398,55.5z M390,70c-3.9,0-7-3.1-7-7c0-2,0.8-3.9,2.3-5.2c0.4-0.4,0.7-0.9,0.7-1.5l0-26.3c0-2.2,1.8-4,4-4
			c2.2,0,4,1.8,4,4l0,26.3c0,0.6,0.2,1.1,0.7,1.5c1.5,1.3,2.3,3.2,2.3,5.2C397,66.9,393.9,70,390,70z"/>
	</g>
	<path class="st6" d="M422-1097.1c0-0.1,0-0.1,0-0.2c0-0.1,0-0.1,0-0.2c0-0.1,0-0.1-0.1-0.2c0-0.1,0-0.1-0.1-0.2c0,0,0,0,0-0.1
		c0,0,0-0.1-0.1-0.1c0-0.1-0.1-0.1-0.1-0.2c0-0.1-0.1-0.1-0.1-0.2c0,0-0.1-0.1-0.1-0.1c-0.1,0-0.1-0.1-0.2-0.1c0,0-0.1-0.1-0.1-0.1
		c-0.1,0-0.1-0.1-0.2-0.1c-0.1,0-0.1-0.1-0.2-0.1c-0.1,0-0.1,0-0.2-0.1c-0.1,0-0.1,0-0.2,0c-0.1,0-0.2,0-0.2,0c0,0-0.1,0-0.1,0h-4
		c0-2.8-2.2-5-5-5h-14c-1.4,0-2.7,0.6-3.6,1.5c-0.3,0.3-0.5,0.7-0.7,1c-0.8-0.4-1.7-0.6-2.7-0.6s-1.8,0.2-2.7,0.6
		c-0.2-0.4-0.4-0.7-0.7-1c-0.9-1-2.2-1.5-3.6-1.5h-14c-2.8,0-5,2.2-5,5h-4c0,0-0.1,0-0.1,0c-0.1,0-0.1,0-0.2,0c-0.1,0-0.1,0-0.2,0
		c-0.1,0-0.1,0-0.2,0.1c-0.1,0-0.1,0.1-0.2,0.1c-0.1,0-0.1,0.1-0.2,0.1c-0.1,0-0.1,0.1-0.2,0.1c-0.1,0-0.1,0.1-0.2,0.1
		c0,0-0.1,0.1-0.1,0.1c0,0-0.1,0.1-0.1,0.1c0,0.1-0.1,0.1-0.1,0.2c0,0,0,0.1-0.1,0.1c0,0,0,0,0,0.1c0,0.1-0.1,0.1-0.1,0.2
		c0,0.1,0,0.1-0.1,0.2c0,0.1,0,0.1,0,0.2c0,0.1,0,0.1,0,0.2c0,0,0,0,0,0.1c0,0,0,0.1,0,0.1c0,0.1,0,0.1,0,0.2c0,0.1,0,0.1,0,0.2
		c0,0.1,0,0.1,0.1,0.2c0,0.1,0,0.1,0.1,0.2c0,0.1,0.1,0.1,0.1,0.2c0,0.1,0.1,0.1,0.1,0.2c0,0.1,0.1,0.1,0.1,0.2c0,0,0.1,0.1,0.1,0.1
		c0,0,0.1,0.1,0.1,0.1c0.1,0,0.1,0.1,0.2,0.1c0,0,0.1,0,0.1,0.1l4.9,2.5c0.1,6,5,10.8,11,10.8c5,0,11-2.5,12.6-13.6
		c0-0.1,0-0.1,0-0.2c0-0.2,0.1-0.4,0.1-0.7c0.3-0.9,1.3-1.6,2.3-1.6c1,0,2,0.7,2.3,1.6c0,0.2,0.1,0.5,0.1,0.7c0,0.1,0,0.1,0,0.2
		c1.6,11.1,7.6,13.6,12.6,13.6c6,0,10.9-4.8,11-10.8l4.9-2.5c0,0,0.1,0,0.1-0.1c0.1,0,0.1-0.1,0.2-0.1c0.1,0,0.1-0.1,0.2-0.1
		c0,0,0.1-0.1,0.1-0.1c0-0.1,0.1-0.1,0.1-0.2c0,0,0.1-0.1,0.1-0.1c0-0.1,0.1-0.1,0.1-0.2c0-0.1,0.1-0.1,0.1-0.2c0-0.1,0-0.1,0.1-0.2
		c0-0.1,0-0.1,0-0.2c0-0.1,0-0.1,0-0.2C422-1096.9,422-1097,422-1097.1C422-1097,422-1097,422-1097.1z M376.4-1096.6l-5,5
		c-0.4,0.4-0.9,0.6-1.4,0.6c-0.5,0-1-0.2-1.4-0.6c-0.8-0.8-0.8-2,0-2.8l5-5c0.8-0.8,2-0.8,2.8,0
		C377.2-1098.6,377.2-1097.4,376.4-1096.6z M405.4-1096.6l-5,5c-0.4,0.4-0.9,0.6-1.4,0.6c-0.5,0-1-0.2-1.4-0.6c-0.8-0.8-0.8-2,0-2.8
		l5-5c0.8-0.8,2-0.8,2.8,0C406.2-1098.6,406.2-1097.4,405.4-1096.6z"/>
	<path class="st5" d="M-35.5,145.1l-24-6c0,0-0.1,0-0.1,0c-0.1,0-0.2,0-0.3,0c-0.1,0-0.1,0-0.1,0c-0.1,0-0.2,0-0.3,0
		c0,0-0.1,0-0.1,0c-0.1,0-0.3,0.1-0.4,0.1c0,0,0,0,0,0c-0.1,0.1-0.2,0.1-0.4,0.2L-70,146v-6.4c1.8-0.8,3-2.5,3-4.6c0-2.8-2.2-5-5-5
		s-5,2.2-5,5c0,2,1.2,3.8,3,4.6V190h-22c-1.1,0-2,0.9-2,2s0.9,2,2,2h48c1.1,0,2-0.9,2-2s-0.9-2-2-2h-22v-36l8.8,6.6
		c0.1,0.1,0.2,0.1,0.3,0.2c0.1,0,0.1,0.1,0.2,0.1c0.2,0.1,0.4,0.1,0.6,0.1c0,0,0,0,0,0h0c0,0,0,0,0,0c0.2,0,0.3,0,0.4-0.1
		c0,0,0,0,0,0l24-6c0.9-0.2,1.5-1,1.5-1.9v-6C-34,146.1-34.6,145.3-35.5,145.1z M-62,155l-6.7-5l6.7-5V155z M-72,134
		c0.6,0,1,0.4,1,1s-0.4,1-1,1s-1-0.4-1-1S-72.6,134-72,134z M-58,143.6l8,2v8.9l-8,2V143.6z M-38,151.4l-8,2v-6.9l8,2V151.4z"/>
	<path class="st2" d="M189,175.3l-6.2-3.6l3.5-0.9c1.1-0.3,1.7-1.4,1.4-2.4c-0.3-1.1-1.4-1.7-2.4-1.4l-7.4,2l-5.5-3.2l6.5-1.8
		c0.8-0.2,1.4-0.9,1.5-1.8c0.1-0.9-0.4-1.6-1.2-2l-5.8-2.4l4.5-2.6l7.4,2c0.2,0,0.3,0.1,0.5,0.1c0.9,0,1.7-0.6,1.9-1.5
		c0.3-1.1-0.3-2.2-1.4-2.4l-3.5-0.9l6.2-3.6c1-0.6,1.3-1.8,0.7-2.7c-0.6-1-1.8-1.3-2.7-0.7l-6.2,3.6l0.9-3.5
		c0.3-1.1-0.3-2.2-1.4-2.4c-1.1-0.3-2.2,0.3-2.4,1.4l-2,7.4l-4.5,2.6l0.8-6.2c0.1-0.8-0.3-1.6-1-2c-0.7-0.4-1.6-0.3-2.2,0.1l-5,3.8
		v-5.2l5.4-5.4c0.8-0.8,0.8-2,0-2.8c-0.8-0.8-2-0.8-2.8,0l-2.6,2.6V132c0-1.1-0.9-2-2-2c-1.1,0-2,0.9-2,2v7.2l-2.6-2.6
		c-0.8-0.8-2-0.8-2.8,0c-0.8,0.8-0.8,2,0,2.8l5.4,5.4v5.2l-5-3.8c-0.7-0.5-1.6-0.5-2.3-0.1c-0.7,0.5-1,1.4-0.8,2.2l1.8,6.5l-5.5-3.2
		l-2-7.4c-0.3-1.1-1.4-1.7-2.4-1.4c-1.1,0.3-1.7,1.4-1.4,2.4l0.9,3.5l-6.2-3.6c-1-0.6-2.2-0.2-2.7,0.7c-0.6,1-0.2,2.2,0.7,2.7
		l6.2,3.6l-3.5,0.9c-1.1,0.3-1.7,1.4-1.4,2.4c0.2,0.9,1,1.5,1.9,1.5c0.2,0,0.3,0,0.5-0.1l7.4-2l5.5,3.2l-6.5,1.8
		c-0.8,0.2-1.4,0.9-1.5,1.8c-0.1,0.9,0.4,1.6,1.2,2l5.8,2.4l-4.5,2.6l-7.4-2c-1.1-0.3-2.2,0.3-2.4,1.4c-0.3,1.1,0.3,2.2,1.4,2.4
		l3.5,0.9l-6.2,3.6c-1,0.6-1.3,1.8-0.7,2.7c0.4,0.6,1,1,1.7,1c0.3,0,0.7-0.1,1-0.3l6.2-3.6l-0.9,3.5c-0.3,1.1,0.3,2.2,1.4,2.4
		c0.2,0,0.3,0.1,0.5,0.1c0.9,0,1.7-0.6,1.9-1.5l2-7.4l4.5-2.6l-0.8,6.2c-0.1,0.8,0.3,1.6,1,2c0.7,0.4,1.6,0.3,2.2-0.1l5-3.8v5.2
		l-5.4,5.4c-0.8,0.8-0.8,2,0,2.8c0.8,0.8,2,0.8,2.8,0l2.6-2.6v7.2c0,1.1,0.9,2,2,2c1.1,0,2-0.9,2-2v-7.2l2.6,2.6
		c0.4,0.4,0.9,0.6,1.4,0.6s1-0.2,1.4-0.6c0.8-0.8,0.8-2,0-2.8l-5.4-5.4V174l5,3.8c0.4,0.3,0.8,0.4,1.2,0.4c0.4,0,0.8-0.1,1.1-0.3
		c0.7-0.5,1-1.4,0.8-2.2l-1.8-6.5l5.5,3.2l2,7.4c0.2,0.9,1,1.5,1.9,1.5c0.2,0,0.3,0,0.5-0.1c1.1-0.3,1.7-1.4,1.4-2.4l-0.9-3.5
		l6.2,3.6c0.3,0.2,0.7,0.3,1,0.3c0.7,0,1.4-0.4,1.7-1C190.3,177,189.9,175.8,189,175.3z M172.2,161.6l-4.8,1.3L166,162l3.1-1.8
		L172.2,161.6z M167.6,152.3l-0.6,4.5l-3.1,1.8V155L167.6,152.3z M157.2,152.9l2.8,2.1v3.5l-1.5-0.9L157.2,152.9z M151.7,162.4
		l4.8-1.3l1.5,0.9l-3.1,1.8L151.7,162.4z M156.4,171.7l0.6-4.5l3.1-1.8v3.5L156.4,171.7z M166.8,171.1L164,169v-3.5l1.5,0.9
		L166.8,171.1z"/>
	<g>
		<path class="st5" d="M72,140c1.1,0,2-0.9,2-2s-0.9-2-2-2c-7,0-12.9,5.2-13.8,12h-2c1-7.9,7.7-14,15.9-14c1.1,0,2-0.9,2-2
			s-0.9-2-2-2c-10.4,0-18.9,7.9-19.9,18H44v-10c0-1.5-0.4-2.9-1.1-4.1l1.5-1.5c0.8-0.8,0.8-2,0-2.8c-0.8-0.8-2-0.8-2.8,0l-1.5,1.5
			c-0.6-0.4-1.3-0.7-2.1-0.9V128c0-1.1-0.9-2-2-2c-1.1,0-2,0.9-2,2v2.3c-0.7,0.2-1.4,0.5-2.1,0.9l-1.5-1.5c-0.8-0.8-2-0.8-2.8,0
			c-0.8,0.8-0.8,2,0,2.8l1.5,1.5c-0.5,0.9-0.9,2-1,3.1H24c-0.9,0-1.7,0.6-1.9,1.5c-0.2,0.9,0.2,1.8,1.1,2.2l4.9,2.4v6.8
			c0,10.4,7.9,18.9,18,19.9V180H28.8l2.6-2.6c0.8-0.8,0.8-2,0-2.8c-0.8-0.8-2-0.8-2.8,0l-6,6c-0.1,0.1-0.2,0.2-0.2,0.3
			c0,0-0.1,0.1-0.1,0.1c0,0.1-0.1,0.1-0.1,0.2c0,0.1,0,0.1-0.1,0.2c0,0.1,0,0.1-0.1,0.2c-0.1,0.3-0.1,0.5,0,0.8c0,0.1,0,0.1,0.1,0.2
			c0,0.1,0,0.1,0.1,0.2c0,0.1,0.1,0.1,0.1,0.2c0,0,0,0.1,0.1,0.1c0.1,0.1,0.2,0.2,0.2,0.3l6,6c0.4,0.4,0.9,0.6,1.4,0.6
			s1-0.2,1.4-0.6c0.8-0.8,0.8-2,0-2.8l-2.6-2.6H46v12c0,1.1,0.9,2,2,2c1.1,0,2-0.9,2-2v-12h15.2l5.4,5.4c0.4,0.4,0.9,0.6,1.4,0.6
			c0.5,0,1-0.2,1.4-0.6c0.8-0.8,0.8-2,0-2.8l-4.6-4.6l4.6-4.6c0.8-0.8,0.8-2,0-2.8c-0.8-0.8-2-0.8-2.8,0l-5.4,5.4H50v-10.1
			c10.1-1,18-9.5,18-19.9c0-2.2,1.8-4,4-4c1.1,0,2-0.9,2-2s-0.9-2-2-2c-3.7,0-6.8,2.6-7.7,6h-2.1C63.1,143.4,67.2,140,72,140z
			 M51.4,152c-0.7,1.2-2,2-3.4,2c-1.5,0-2.8-0.8-3.4-2H51.4z M63.9,152c-1,7.9-7.7,14-15.9,14c-8.8,0-16-7.2-16-16v-12
			c0-2.2,1.8-4,4-4c2.2,0,4,1.8,4,4v12c0,0,0,0,0,0c0,4.4,3.6,8,8,8c3.7,0,6.8-2.6,7.7-6H63.9z"/>
		<circle class="st6" cx="36" cy="138" r="2"/>
	</g>
	<g>
		<path class="st1" d="M-66-1334c-7.7,0-14,6.3-14,14s6.3,14,14,14s14-6.3,14-14S-58.3-1334-66-1334z"/>
		<polygon class="st1" points="-66,-1346.5 -61.1,-1338 -70.9,-1338 		"/>
		<polygon class="st1" points="-66,-1293.6 -70.9,-1302 -61.1,-1302 		"/>
		<polygon class="st1" points="-92.5,-1320 -84,-1324.9 -84,-1315.1 		"/>
		<polygon class="st1" points="-39.4,-1320 -47.9,-1315.1 -47.9,-1324.9 		"/>
		<polygon class="st1" points="-49.3,-1336.8 -51,-1331.2 -54.8,-1335.1 		"/>
		<polygon class="st1" points="-82.8,-1303.2 -81.1,-1308.8 -77.3,-1304.9 		"/>
		<polygon class="st1" points="-82.8,-1336.8 -77.3,-1335.1 -81.1,-1331.2 		"/>
		<polygon class="st1" points="-49.3,-1303.2 -54.8,-1304.9 -51,-1308.8 		"/>
	</g>
	<g>
		<g>
			<path class="st1" d="M59.8-1004c-7.7,0-14,6.3-14,14s6.3,14,14,14s14-6.3,14-14S67.6-1004,59.8-1004z"/>
			<polygon class="st1" points="59.9,-1016.5 64.8,-1008 55,-1008 			"/>
			<polygon class="st1" points="86.4,-990 77.9,-985.1 77.9,-994.9 			"/>
			<polygon class="st1" points="76.6,-1006.7 74.9,-1001.2 71.1,-1005 			"/>
			<polygon class="st1" points="43.1,-1006.7 48.6,-1005 44.8,-1001.2 			"/>
		</g>
		<path class="st4" d="M66-986c-0.5,0-1.1,0.1-1.7,0.2C62.2-993,55.7-998,48-998c-7.7,0-14.2,5-16.3,12.2c-0.6-0.1-1.2-0.2-1.7-0.2
			c-6.1,0-11,4.9-11,11s4.9,11,11,11h36c6.1,0,11-4.9,11-11S72.1-986,66-986z"/>
	</g>
	<g>
		<path class="st3" d="M176.4-1006.3c0-1.2,0.2-2.3,0.6-3.4c-1-0.2-2-0.3-3-0.3c-7.7,0-14,6.3-14,14s6.3,14,14,14
			c7.7,0,13.9-6.2,14-13.8c-0.3,0-0.7,0.1-1,0.1C181.1-995.7,176.4-1000.5,176.4-1006.3z"/>
		<path class="st4" d="M180-986c-0.5,0-1.1,0.1-1.7,0.2c-2.1-7.2-8.6-12.2-16.3-12.2c-7.7,0-14.2,5-16.3,12.2
			c-0.6-0.1-1.2-0.2-1.7-0.2c-6.1,0-11,4.9-11,11s4.9,11,11,11h36c6.1,0,11-4.9,11-11S186.1-986,180-986z"/>
	</g>
	<g>
		<path class="st2" d="M267-954c-1.1,0-2,0.9-2,2v4c0,1.1,0.9,2,2,2c1.1,0,2-0.9,2-2v-4C269-953.1,268.1-954,267-954z"/>
		<path class="st2" d="M276-948c-1.1,0-2,0.9-2,2v4c0,1.1,0.9,2,2,2c1.1,0,2-0.9,2-2v-4C278-947.1,277.1-948,276-948z"/>
		<path class="st2" d="M276-960c-1.1,0-2,0.9-2,2v4c0,1.1,0.9,2,2,2c1.1,0,2-0.9,2-2v-4C278-959.1,277.1-960,276-960z"/>
		<path class="st2" d="M285-954c-1.1,0-2,0.9-2,2v4c0,1.1,0.9,2,2,2c1.1,0,2-0.9,2-2v-4C287-953.1,286.1-954,285-954z"/>
		<path class="st2" d="M303.7-980.2c-0.3-0.6-0.7-1.2-1.2-1.8c-1.3-1.6-3.2-2.9-5.2-3.5c-1-0.3-2.1-0.5-3.3-0.5
			c-0.5,0-1.1,0.1-1.7,0.2c-0.9-3.1-2.7-5.9-5-7.9c-0.3-0.3-0.7-0.6-1-0.8c-0.7-0.5-1.5-1-2.3-1.4c-2.4-1.3-5.1-2-8-2
			c-7.7,0-14.2,5-16.3,12.2c-0.6-0.1-1.2-0.2-1.7-0.2c-1.1,0-2.2,0.2-3.3,0.5c-2.1,0.6-3.9,1.9-5.2,3.5c-0.4,0.5-0.8,1.1-1.2,1.8
			c-0.8,1.6-1.3,3.3-1.3,5.2s0.5,3.7,1.3,5.2c0.3,0.6,0.7,1.2,1.2,1.8c1.3,1.6,3.2,2.9,5.2,3.5c1,0.3,2.1,0.5,3.3,0.5h7v4
			c0,1.1,0.9,2,2,2c1.1,0,2-0.9,2-2v-4h14v4c0,1.1,0.9,2,2,2c1.1,0,2-0.9,2-2v-4h7c1.1,0,2.2-0.2,3.3-0.5c2.1-0.6,3.9-1.9,5.2-3.5
			c0.4-0.5,0.8-1.1,1.2-1.8c0.8-1.6,1.3-3.3,1.3-5.2S304.5-978.7,303.7-980.2z"/>
	</g>
	<g>
		<path class="st2" d="M381-954c-1.1,0-2,0.9-2,2v4c0,1.1,0.9,2,2,2c1.1,0,2-0.9,2-2v-4C383-953.1,382.1-954,381-954z"/>
		<path class="st2" d="M390-948c-1.1,0-2,0.9-2,2v4c0,1.1,0.9,2,2,2c1.1,0,2-0.9,2-2v-4C392-947.1,391.1-948,390-948z"/>
		<path class="st2" d="M390-960c-1.1,0-2,0.9-2,2v4c0,1.1,0.9,2,2,2c1.1,0,2-0.9,2-2v-4C392-959.1,391.1-960,390-960z"/>
		<path class="st2" d="M399-954c-1.1,0-2,0.9-2,2v4c0,1.1,0.9,2,2,2c1.1,0,2-0.9,2-2v-4C401-953.1,400.1-954,399-954z"/>
		<path class="st2" d="M417.7-980.2c-0.3-0.6-0.7-1.2-1.2-1.8c-1.3-1.6-3.2-2.9-5.2-3.5c-1-0.3-2.1-0.5-3.3-0.5
			c-0.5,0-1.1,0.1-1.7,0.2c-0.9-3.1-2.7-5.9-5-7.9c-0.3-0.3-0.7-0.6-1-0.8c-0.7-0.5-1.5-1-2.3-1.4c-2.4-1.3-5.1-2-8-2
			c-7.7,0-14.2,5-16.3,12.2c-0.6-0.1-1.2-0.2-1.7-0.2c-1.1,0-2.2,0.2-3.3,0.5c-2.1,0.6-3.9,1.9-5.2,3.5c-0.4,0.5-0.8,1.1-1.2,1.8
			c-0.8,1.6-1.3,3.3-1.3,5.2s0.5,3.7,1.3,5.2c0.3,0.6,0.7,1.2,1.2,1.8c1.3,1.6,3.2,2.9,5.2,3.5c1,0.3,2.1,0.5,3.3,0.5h7v4
			c0,1.1,0.9,2,2,2c1.1,0,2-0.9,2-2v-4h14v4c0,1.1,0.9,2,2,2c1.1,0,2-0.9,2-2v-4h7c1.1,0,2.2-0.2,3.3-0.5c2.1-0.6,3.9-1.9,5.2-3.5
			c0.4-0.5,0.8-1.1,1.2-1.8c0.8-1.6,1.3-3.3,1.3-5.2S418.5-978.7,417.7-980.2z"/>
	</g>
	<g>
		<path class="st2" d="M-75-840c-1.1,0-2,0.9-2,2v4c0,1.1,0.9,2,2,2c1.1,0,2-0.9,2-2v-4C-73-839.1-73.9-840-75-840z"/>
		<path class="st2" d="M-66-834c-1.1,0-2,0.9-2,2v4c0,1.1,0.9,2,2,2s2-0.9,2-2v-4C-64-833.1-64.9-834-66-834z"/>
		<path class="st2" d="M-66-846c-1.1,0-2,0.9-2,2v4c0,1.1,0.9,2,2,2s2-0.9,2-2v-4C-64-845.1-64.9-846-66-846z"/>
		<path class="st2" d="M-57-840c-1.1,0-2,0.9-2,2v4c0,1.1,0.9,2,2,2c1.1,0,2-0.9,2-2v-4C-55-839.1-55.9-840-57-840z"/>
		<path class="st2" d="M-38.3-866.2c-0.3-0.6-0.7-1.2-1.2-1.8c-1.3-1.6-3.2-2.9-5.2-3.5c-1-0.3-2.1-0.5-3.3-0.5
			c-0.5,0-1.1,0.1-1.7,0.2c-0.9-3.1-2.7-5.9-5-7.9c-0.3-0.3-0.7-0.6-1-0.8c-0.7-0.5-1.5-1-2.3-1.4c-2.4-1.3-5.1-2-8-2
			c-7.7,0-14.2,5-16.3,12.2c-0.6-0.1-1.2-0.2-1.7-0.2c-1.1,0-2.2,0.2-3.3,0.5c-2.1,0.6-3.9,1.9-5.2,3.5c-0.4,0.5-0.8,1.1-1.2,1.8
			c-0.8,1.6-1.3,3.3-1.3,5.2s0.5,3.7,1.3,5.2c0.3,0.6,0.7,1.2,1.2,1.8c1.3,1.6,3.2,2.9,5.2,3.5c1,0.3,2.1,0.5,3.3,0.5h7v4
			c0,1.1,0.9,2,2,2c1.1,0,2-0.9,2-2v-4h14v4c0,1.1,0.9,2,2,2c1.1,0,2-0.9,2-2v-4h7c1.1,0,2.2-0.2,3.3-0.5c2.1-0.6,3.9-1.9,5.2-3.5
			c0.4-0.5,0.8-1.1,1.2-1.8c0.8-1.6,1.3-3.3,1.3-5.2S-37.5-864.7-38.3-866.2z"/>
	</g>
	<g>
		<path class="st2" d="M276-848c-1.1,0-2,0.9-2,2v18c0,1.1,0.9,2,2,2c1.1,0,2-0.9,2-2v-18C278-847.1,277.1-848,276-848z"/>
		<path class="st2" d="M303.7-866.2c-0.3-0.6-0.7-1.2-1.2-1.8c-1.3-1.6-3.2-2.9-5.2-3.5c-1-0.3-2.1-0.5-3.3-0.5
			c-0.5,0-1.1,0.1-1.7,0.2c-2.1-7.2-8.6-12.2-16.3-12.2c-7.7,0-14.2,5-16.3,12.2c-0.6-0.1-1.2-0.2-1.7-0.2c-1.1,0-2.2,0.2-3.3,0.5
			c-2.1,0.6-3.9,1.9-5.2,3.5c-0.4,0.5-0.8,1.1-1.2,1.8c-0.8,1.6-1.3,3.3-1.3,5.2s0.5,3.7,1.3,5.2c0.3,0.6,0.7,1.2,1.2,1.8
			c1.3,1.6,3.2,2.9,5.2,3.5c1,0.3,2.1,0.5,3.3,0.5h7v16c0,1.1,0.9,2,2,2c1.1,0,2-0.9,2-2v-16h14v16c0,1.1,0.9,2,2,2c1.1,0,2-0.9,2-2
			v-16h7c1.1,0,2.2-0.2,3.3-0.5c2.1-0.6,3.9-1.9,5.2-3.5c0.4-0.5,0.8-1.1,1.2-1.8c0.8-1.6,1.3-3.3,1.3-5.2S304.5-864.7,303.7-866.2z
			"/>
	</g>
	<g>
		<circle class="st2" cx="-75" cy="-732" r="2"/>
		<circle class="st2" cx="-57" cy="-732" r="2"/>
		<circle class="st2" cx="-66" cy="-726" r="2"/>
		<circle class="st2" cx="-57" cy="-720" r="2"/>
		<circle class="st2" cx="-66" cy="-714" r="2"/>
		<circle class="st2" cx="-75" cy="-720" r="2"/>
		<path class="st2" d="M-38.3-752.2c-0.3-0.6-0.7-1.2-1.2-1.8c-1.3-1.6-3.2-2.9-5.2-3.5c-1-0.3-2.1-0.5-3.3-0.5
			c-0.3,0-0.5,0-0.8,0.1c-0.3,0-0.6,0.1-0.9,0.1c-0.9-3.1-2.7-5.9-5-7.9c-0.3-0.3-0.7-0.6-1-0.8c-0.7-0.5-1.5-1-2.3-1.4
			c-2.4-1.3-5.1-2-8-2c-7.7,0-14.2,5-16.3,12.2c-0.1,0-0.1,0-0.2,0c-0.5-0.1-1-0.2-1.5-0.2c-1.1,0-2.2,0.2-3.3,0.5
			c-2.1,0.6-3.9,1.9-5.2,3.5c-0.4,0.5-0.8,1.1-1.2,1.8c-0.8,1.6-1.3,3.3-1.3,5.2s0.5,3.7,1.3,5.2c0.3,0.6,0.7,1.2,1.2,1.8
			c1.3,1.6,3.2,2.9,5.2,3.5c1,0.3,2.1,0.5,3.3,0.5h36c1.1,0,2.2-0.2,3.3-0.5c2.1-0.6,3.9-1.9,5.2-3.5c0.4-0.5,0.8-1.1,1.2-1.8
			c0.8-1.6,1.3-3.3,1.3-5.2S-37.5-750.7-38.3-752.2z"/>
	</g>
	<g>
		<circle class="st2" cx="39" cy="-732" r="2"/>
		<circle class="st2" cx="57" cy="-732" r="2"/>
		<circle class="st2" cx="48" cy="-726" r="2"/>
		<circle class="st2" cx="57" cy="-720" r="2"/>
		<circle class="st2" cx="48" cy="-714" r="2"/>
		<circle class="st2" cx="39" cy="-720" r="2"/>
		<path class="st2" d="M75.7-752.2c-0.3-0.6-0.7-1.2-1.2-1.8c-1.3-1.6-3.2-2.9-5.2-3.5c-1-0.3-2.1-0.5-3.3-0.5c-0.3,0-0.5,0-0.8,0.1
			c-0.3,0-0.6,0.1-0.9,0.1c-0.9-3.1-2.7-5.9-5-7.9c-0.3-0.3-0.7-0.6-1-0.8c-0.7-0.5-1.5-1-2.3-1.4c-2.4-1.3-5.1-2-8-2
			c-7.7,0-14.2,5-16.3,12.2c-0.1,0-0.1,0-0.2,0c-0.5-0.1-1-0.2-1.5-0.2c-1.1,0-2.2,0.2-3.3,0.5c-2.1,0.6-3.9,1.9-5.2,3.5
			c-0.4,0.5-0.8,1.1-1.2,1.8c-0.8,1.6-1.3,3.3-1.3,5.2s0.5,3.7,1.3,5.2c0.3,0.6,0.7,1.2,1.2,1.8c1.3,1.6,3.2,2.9,5.2,3.5
			c1,0.3,2.1,0.5,3.3,0.5h36c1.1,0,2.2-0.2,3.3-0.5c2.1-0.6,3.9-1.9,5.2-3.5c0.4-0.5,0.8-1.1,1.2-1.8c0.8-1.6,1.3-3.3,1.3-5.2
			S76.5-750.7,75.7-752.2z"/>
	</g>
	<g>
		<g>
			<polyline class="st1" points="152.8,-739.4 145.8,-726.3 150.9,-726.4 145.1,-715 157.4,-729.2 151.1,-729.1 160,-739.4 			"/>
			<polyline class="st1" points="165.6,-744.3 158.6,-731.2 163.8,-731.3 158,-719.9 170.2,-734.1 164,-734 172.8,-744.3 			"/>
		</g>
		<path class="st4" d="M180-758c-0.5,0-1.1,0.1-1.7,0.2c-2.1-7.2-8.6-12.2-16.3-12.2c-7.7,0-14.2,5-16.3,12.2
			c-0.6-0.1-1.2-0.2-1.7-0.2c-6.1,0-11,4.9-11,11s4.9,11,11,11h36c6.1,0,11-4.9,11-11S186.1-758,180-758z"/>
	</g>
	<path class="st4" d="M294-758c-0.5,0-1.1,0.1-1.7,0.2c-2.1-7.2-8.6-12.2-16.3-12.2c-7.7,0-14.2,5-16.3,12.2
		c-0.6-0.1-1.2-0.2-1.7-0.2c-6.1,0-11,4.9-11,11s4.9,11,11,11h36c6.1,0,11-4.9,11-11S300.1-758,294-758z"/>
	<path class="st1" d="M408-758c-0.5,0-1.1,0.1-1.7,0.2c-2.1-7.2-8.6-12.2-16.3-12.2c-7.7,0-14.2,5-16.3,12.2
		c-0.6-0.1-1.2-0.2-1.7-0.2c-6.1,0-11,4.9-11,11s4.9,11,11,11h11.3l-3.9,5.9c-0.4,0.6-0.4,1.4-0.1,2.1c0.3,0.7,1,1.1,1.8,1.1h2.3
		l-3.9,5.9c-0.6,0.9-0.4,2.2,0.6,2.8c0.3,0.2,0.7,0.3,1.1,0.3c0.6,0,1.3-0.3,1.7-0.9l6-9c0.4-0.6,0.4-1.4,0.1-2.1
		c-0.3-0.7-1-1.1-1.8-1.1h-2.3l3.3-5h5.2l-1.9,2.9c-0.4,0.6-0.4,1.4-0.1,2.1c0.3,0.7,1,1.1,1.8,1.1h2.3l-1.9,2.9
		c-0.6,0.9-0.4,2.2,0.6,2.8c0.3,0.2,0.7,0.3,1.1,0.3c0.6,0,1.3-0.3,1.7-0.9l4-6c0.4-0.6,0.4-1.4,0.1-2.1c-0.3-0.7-1-1.1-1.8-1.1
		h-2.3l1.3-2h9.9c6.1,0,11-4.9,11-11S414.1-758,408-758z M408-740h-36c-3.9,0-7-3.1-7-7s3.1-7,7-7c0.3,0,0.7,0.1,1.2,0.2v1.8
		c0,1.1,0.9,2,2,2s2-0.9,2-2v-3.2c1.1-6.3,6.4-10.8,12.8-10.8c6.4,0,11.7,4.5,12.8,10.8v3.2c0,1.1,0.9,2,2,2c1.1,0,2-0.9,2-2v-1.8
		c0.5-0.1,0.9-0.2,1.2-0.2c3.9,0,7,3.1,7,7S411.9-740,408-740z"/>
	<path class="st4" d="M408-758c-0.5,0-1.1,0.1-1.7,0.2c-2.1-7.2-8.6-12.2-16.3-12.2c-7.7,0-14.2,5-16.3,12.2
		c-0.6-0.1-1.2-0.2-1.7-0.2c-6.1,0-11,4.9-11,11s4.9,11,11,11h36c6.1,0,11-4.9,11-11S414.1-758,408-758z"/>
	<g>
		<path class="st2" d="M43.7-614.3c-0.6-1-1.8-1.3-2.7-0.7c-1,0.6-1.3,1.8-0.7,2.7l1,1.7c0.4,0.6,1,1,1.7,1c0.3,0,0.7-0.1,1-0.3
			c1-0.6,1.3-1.8,0.7-2.7L43.7-614.3z"/>
		<path class="st2" d="M39-615.1c-1-0.6-2.2-0.2-2.7,0.7l-1,1.7c-0.6,1-0.2,2.2,0.7,2.7c0.3,0.2,0.7,0.3,1,0.3c0.7,0,1.4-0.4,1.7-1
			l1-1.7C40.3-613.3,40-614.5,39-615.1z"/>
		<path class="st2" d="M38-616.8c0-1.1-0.9-2-2-2h-2c-1.1,0-2,0.9-2,2c0,1.1,0.9,2,2,2h2C37.1-614.8,38-615.7,38-616.8z"/>
		<path class="st2" d="M46-618.8h-2c-1.1,0-2,0.9-2,2c0,1.1,0.9,2,2,2h2c1.1,0,2-0.9,2-2C48-617.9,47.1-618.8,46-618.8z"/>
		<path class="st2" d="M66-644c-0.5,0-1.1,0.1-1.7,0.2C62.2-651,55.7-656,48-656c-7.7,0-14.2,5-16.3,12.2c-0.6-0.1-1.2-0.2-1.7-0.2
			c-6.1,0-11,4.9-11,11s4.9,11,11,11h5c0,0.3,0.1,0.7,0.3,1l1,1.7c0.4,0.6,1,1,1.7,1c0.3,0,0.7-0.1,1-0.3c1-0.6,1.3-1.8,0.7-2.7
			l-0.4-0.7h1.4l-0.4,0.7c-0.6,1-0.2,2.2,0.7,2.7c0.3,0.2,0.7,0.3,1,0.3c0.7,0,1.4-0.4,1.7-1l1-1.7c0.2-0.3,0.3-0.7,0.3-1h21
			c6.1,0,11-4.9,11-11S72.1-644,66-644z"/>
		<path class="st2" d="M60.7-609.3c-0.6-1-1.8-1.3-2.7-0.7c-1,0.6-1.3,1.8-0.7,2.7l1,1.7c0.4,0.6,1,1,1.7,1c0.3,0,0.7-0.1,1-0.3
			c1-0.6,1.3-1.8,0.7-2.7L60.7-609.3z"/>
		<path class="st2" d="M55.7-618c-0.6-1-1.8-1.3-2.7-0.7c-1,0.6-1.3,1.8-0.7,2.7l1,1.7c0.4,0.6,1,1,1.7,1c0.3,0,0.7-0.1,1-0.3
			c1-0.6,1.3-1.8,0.7-2.7L55.7-618z"/>
		<path class="st2" d="M58-613.5c0.3,0.2,0.7,0.3,1,0.3c0.7,0,1.4-0.4,1.7-1l1-1.7c0.6-1,0.2-2.2-0.7-2.7c-1-0.6-2.2-0.2-2.7,0.7
			l-1,1.7C56.7-615.3,57-614.1,58-613.5z"/>
		<path class="st2" d="M56-610.1c-1-0.6-2.2-0.2-2.7,0.7l-1,1.7c-0.6,1-0.2,2.2,0.7,2.7c0.3,0.2,0.7,0.3,1,0.3c0.7,0,1.4-0.4,1.7-1
			l1-1.7C57.3-608.3,57-609.5,56-610.1z"/>
		<path class="st2" d="M55-611.8c0-1.1-0.9-2-2-2h-2c-1.1,0-2,0.9-2,2c0,1.1,0.9,2,2,2h2C54.1-609.8,55-610.7,55-611.8z"/>
		<path class="st2" d="M63-613.8h-2c-1.1,0-2,0.9-2,2c0,1.1,0.9,2,2,2h2c1.1,0,2-0.9,2-2C65-612.9,64.1-613.8,63-613.8z"/>
	</g>
	<g>
		<path class="st2" d="M157.7-614.3c-0.6-1-1.8-1.3-2.7-0.7c-1,0.6-1.3,1.8-0.7,2.7l1,1.7c0.4,0.6,1,1,1.7,1c0.3,0,0.7-0.1,1-0.3
			c1-0.6,1.3-1.8,0.7-2.7L157.7-614.3z"/>
		<path class="st2" d="M153-615.1c-1-0.6-2.2-0.2-2.7,0.7l-1,1.7c-0.6,1-0.2,2.2,0.7,2.7c0.3,0.2,0.7,0.3,1,0.3c0.7,0,1.4-0.4,1.7-1
			l1-1.7C154.3-613.3,154-614.5,153-615.1z"/>
		<path class="st2" d="M152-616.8c0-1.1-0.9-2-2-2h-2c-1.1,0-2,0.9-2,2c0,1.1,0.9,2,2,2h2C151.1-614.8,152-615.7,152-616.8z"/>
		<path class="st2" d="M160-618.8h-2c-1.1,0-2,0.9-2,2c0,1.1,0.9,2,2,2h2c1.1,0,2-0.9,2-2C162-617.9,161.1-618.8,160-618.8z"/>
		<path class="st2" d="M180-644c-0.5,0-1.1,0.1-1.7,0.2c-2.1-7.2-8.6-12.2-16.3-12.2c-7.7,0-14.2,5-16.3,12.2
			c-0.6-0.1-1.2-0.2-1.7-0.2c-6.1,0-11,4.9-11,11s4.9,11,11,11h5c0,0.3,0.1,0.7,0.3,1l1,1.7c0.4,0.6,1,1,1.7,1c0.3,0,0.7-0.1,1-0.3
			c1-0.6,1.3-1.8,0.7-2.7l-0.4-0.7h1.4l-0.4,0.7c-0.6,1-0.2,2.2,0.7,2.7c0.3,0.2,0.7,0.3,1,0.3c0.7,0,1.4-0.4,1.7-1l1-1.7
			c0.2-0.3,0.3-0.7,0.3-1h21c6.1,0,11-4.9,11-11S186.1-644,180-644z"/>
		<path class="st2" d="M174.7-609.3c-0.6-1-1.8-1.3-2.7-0.7c-1,0.6-1.3,1.8-0.7,2.7l1,1.7c0.4,0.6,1,1,1.7,1c0.3,0,0.7-0.1,1-0.3
			c1-0.6,1.3-1.8,0.7-2.7L174.7-609.3z"/>
		<path class="st2" d="M169.7-618c-0.6-1-1.8-1.3-2.7-0.7c-1,0.6-1.3,1.8-0.7,2.7l1,1.7c0.4,0.6,1,1,1.7,1c0.3,0,0.7-0.1,1-0.3
			c1-0.6,1.3-1.8,0.7-2.7L169.7-618z"/>
		<path class="st2" d="M172-613.5c0.3,0.2,0.7,0.3,1,0.3c0.7,0,1.4-0.4,1.7-1l1-1.7c0.6-1,0.2-2.2-0.7-2.7c-1-0.6-2.2-0.2-2.7,0.7
			l-1,1.7C170.7-615.3,171-614.1,172-613.5z"/>
		<path class="st2" d="M170-610.1c-1-0.6-2.2-0.2-2.7,0.7l-1,1.7c-0.6,1-0.2,2.2,0.7,2.7c0.3,0.2,0.7,0.3,1,0.3c0.7,0,1.4-0.4,1.7-1
			l1-1.7C171.3-608.3,171-609.5,170-610.1z"/>
		<path class="st2" d="M169-611.8c0-1.1-0.9-2-2-2h-2c-1.1,0-2,0.9-2,2c0,1.1,0.9,2,2,2h2C168.1-609.8,169-610.7,169-611.8z"/>
		<path class="st2" d="M177-613.8h-2c-1.1,0-2,0.9-2,2c0,1.1,0.9,2,2,2h2c1.1,0,2-0.9,2-2C179-612.9,178.1-613.8,177-613.8z"/>
	</g>
	<g>
		<path class="st1" d="M280.6-619.4l-2.6,2.6v-5.2c0-1.1-0.9-2-2-2c-1.1,0-2,0.9-2,2v5.2l-2.6-2.6c-0.8-0.8-2-0.8-2.8,0
			c-0.8,0.8-0.8,2,0,2.8l6,6c0.4,0.4,0.9,0.6,1.4,0.6c0.5,0,1-0.2,1.4-0.6l6-6c0.8-0.8,0.8-2,0-2.8
			C282.6-620.2,281.4-620.2,280.6-619.4z"/>
		<path class="st1" d="M285.9-645.9c-1-1-2-1.8-3.2-2.4c-1.6-0.9-3.4-1.4-5.2-1.6c-0.5,0-0.9-0.1-1.4-0.1c-7.7,0-14,6.3-14,14
			c0,1.5,0.3,3.1,0.7,4.5c0.3,0.9,0.7,1.7,1.1,2.5c0.4,0.6,1,1,1.7,1l0,0h20.8c0.2,0,0.4,0,0.5-0.1c0.5-0.1,0.9-0.5,1.2-0.9
			c0.5-0.8,0.8-1.6,1.1-2.5c0.5-1.4,0.7-3,0.7-4.5c0-2.9-0.9-5.6-2.4-7.8C287.1-644.6,286.5-645.3,285.9-645.9z M276.2-646
			c-0.5,0-1,0-1.4,0.1h0c0.4-0.1,0.8-0.1,1.2-0.1C276.1-646,276.1-646,276.2-646z M266.8-632C266.8-632,266.8-632,266.8-632
			C266.8-632,266.9-632,266.8-632L266.8-632z"/>
	</g>
	<g>
		<path class="st1" d="M391.4-623.4c-0.8-0.8-2-0.8-2.8,0l-6,6c-0.8,0.8-0.8,2,0,2.8c0.8,0.8,2,0.8,2.8,0l2.6-2.6v5.2
			c0,1.1,0.9,2,2,2c1.1,0,2-0.9,2-2v-5.2l2.6,2.6c0.4,0.4,0.9,0.6,1.4,0.6c0.5,0,1-0.2,1.4-0.6c0.8-0.8,0.8-2,0-2.8L391.4-623.4z"/>
		<path class="st1" d="M399.9-645.9c-1-1-2-1.8-3.2-2.4c-1.6-0.9-3.4-1.4-5.2-1.6c-0.5,0-0.9-0.1-1.4-0.1c-7.7,0-14,6.3-14,14
			c0,1.5,0.3,3.1,0.7,4.5c0.3,0.9,0.7,1.7,1.1,2.5c0.4,0.6,1,1,1.7,1l0,0h20.8c0.2,0,0.4,0,0.5-0.1c0.5-0.1,0.9-0.5,1.2-0.9
			c0.5-0.8,0.8-1.6,1.1-2.5c0.5-1.4,0.7-3,0.7-4.5c0-2.9-0.9-5.6-2.4-7.8C401.1-644.6,400.5-645.3,399.9-645.9z M390.2-646
			c-0.5,0-1,0-1.4,0.1h0c0.4-0.1,0.8-0.1,1.2-0.1C390.1-646,390.1-646,390.2-646z M380.8-632C380.8-632,380.8-632,380.8-632
			C380.8-632,380.9-632,380.8-632L380.8-632z"/>
	</g>
	<g>
		<path class="st2" d="M-48-530c-0.5,0-1.1,0.1-1.7,0.2C-51.8-537-58.3-542-66-542c-7.7,0-14.2,5-16.3,12.2
			c-0.6-0.1-1.2-0.2-1.7-0.2c-6.1,0-11,4.9-11,11s4.9,11,11,11h5.4l-2.4,9.5c-0.3,1.1,0.4,2.2,1.5,2.4c0.2,0,0.3,0.1,0.5,0.1
			c0.9,0,1.7-0.6,1.9-1.5l2.6-10.5h5.4l-3.9,15.5c-0.3,1.1,0.4,2.2,1.5,2.4c0.2,0,0.3,0.1,0.5,0.1c0.9,0,1.7-0.6,1.9-1.5l4.1-16.5
			h5.4l-2.4,9.5c-0.3,1.1,0.4,2.2,1.5,2.4c0.2,0,0.3,0.1,0.5,0.1c0.9,0,1.7-0.6,1.9-1.5l2.6-10.5h7.4c6.1,0,11-4.9,11-11
			S-41.9-530-48-530z"/>
	</g>
	<path class="st2" d="M66-530c-0.5,0-1.1,0.1-1.7,0.2C62.2-537,55.7-542,48-542c-7.7,0-14.2,5-16.3,12.2c-0.6-0.1-1.2-0.2-1.7-0.2
		c-6.1,0-11,4.9-11,11s4.9,11,11,11h5.4l-2.4,9.5c-0.3,1.1,0.4,2.2,1.5,2.4c0.2,0,0.3,0.1,0.5,0.1c0.9,0,1.7-0.6,1.9-1.5l2.6-10.5
		h5.4l-3.9,15.5c-0.3,1.1,0.4,2.2,1.5,2.4c0.2,0,0.3,0.1,0.5,0.1c0.9,0,1.7-0.6,1.9-1.5l4.1-16.5h5.4l-2.4,9.5
		c-0.3,1.1,0.4,2.2,1.5,2.4c0.2,0,0.3,0.1,0.5,0.1c0.9,0,1.7-0.6,1.9-1.5l2.6-10.5H66c6.1,0,11-4.9,11-11S72.1-530,66-530z"/>
	<path class="st2" d="M180-530c-0.5,0-1.1,0.1-1.7,0.2c-2.1-7.2-8.6-12.2-16.3-12.2c-7.7,0-14.2,5-16.3,12.2
		c-0.6-0.1-1.2-0.2-1.7-0.2c-6.1,0-11,4.9-11,11s4.9,11,11,11h5.4l-2.4,9.5c-0.3,1.1,0.4,2.2,1.5,2.4c0.2,0,0.3,0.1,0.5,0.1
		c0.9,0,1.7-0.6,1.9-1.5l2.6-10.5h5.4l-3.9,15.5c-0.3,1.1,0.4,2.2,1.5,2.4c0.2,0,0.3,0.1,0.5,0.1c0.9,0,1.7-0.6,1.9-1.5l4.1-16.5
		h5.4l-2.4,9.5c-0.3,1.1,0.4,2.2,1.5,2.4c0.2,0,0.3,0.1,0.5,0.1c0.9,0,1.7-0.6,1.9-1.5l2.6-10.5h7.4c6.1,0,11-4.9,11-11
		S186.1-530,180-530z"/>
	<g>
		<path class="st2" d="M379.8-533h12c1.1,0,2-0.9,2-2s-0.9-2-2-2h-12c-1.1,0-2,0.9-2,2S378.7-533,379.8-533z"/>
		<path class="st2" d="M367.8-527h24c1.1,0,2-0.9,2-2s-0.9-2-2-2h-24c-1.1,0-2,0.9-2,2S366.7-527,367.8-527z"/>
		<path class="st2" d="M361.8-521h24c1.1,0,2-0.9,2-2s-0.9-2-2-2h-24c-1.1,0-2,0.9-2,2S360.7-521,361.8-521z"/>
		<path class="st2" d="M420.8-517c0-1.1-0.9-2-2-2h-60c-1.1,0-2,0.9-2,2s0.9,2,2,2h60C419.9-515,420.8-515.9,420.8-517z"/>
		<path class="st2" d="M418.8-513h-57c-1.1,0-2,0.9-2,2s0.9,2,2,2h57c1.1,0,2-0.9,2-2S419.9-513,418.8-513z"/>
		<path class="st2" d="M379.8-507l-12,0c-1.1,0-2,0.9-2,2s0.9,2,2,2l12,0c1.1,0,2-0.9,2-2S380.9-507,379.8-507z"/>
		<path class="st2" d="M398.8-527h8c1.1,0,2-0.9,2-2s-0.9-2-2-2h-8c-1.1,0-2,0.9-2,2S397.7-527,398.8-527z"/>
		<path class="st2" d="M389.8-523c0,1.1,0.9,2,2,2h21c1.1,0,2-0.9,2-2s-0.9-2-2-2h-21C390.7-525,389.8-524.1,389.8-523z"/>
		<path class="st2" d="M412.8-507l-27,0c-1.1,0-2,0.9-2,2s0.9,2,2,2l27,0c1.1,0,2-0.9,2-2S413.9-507,412.8-507z"/>
	</g>
	<path class="st4" d="M66-416c-0.5,0-1.1,0.1-1.7,0.2C62.2-423,55.7-428,48-428c-7.7,0-14.2,5-16.3,12.2c-0.6-0.1-1.2-0.2-1.7-0.2
		c-6.1,0-11,4.9-11,11s4.9,11,11,11h36c6.1,0,11-4.9,11-11S72.1-416,66-416z"/>
	<g>
		<path class="st2" d="M135-403c1.1,0,2-0.9,2-2c0-3.9,3.1-7,7-7c0.3,0,0.7,0.1,1.2,0.2v1.8c0,1.1,0.9,2,2,2c1.1,0,2-0.9,2-2v-3.2
			c1.1-6.3,6.4-10.8,12.8-10.8c6.4,0,11.7,4.5,12.8,10.8v3.2c0,1.1,0.9,2,2,2c1.1,0,2-0.9,2-2v-1.8c0.5-0.1,0.9-0.2,1.2-0.2
			c3.9,0,7,3.1,7,7c0,1.1,0.9,2,2,2c1.1,0,2-0.9,2-2c0-6.1-4.9-11-11-11c-0.5,0-1.1,0.1-1.7,0.2c-2.1-7.2-8.6-12.2-16.3-12.2
			c-7.7,0-14.2,5-16.3,12.2c-0.6-0.1-1.2-0.2-1.7-0.2c-6.1,0-11,4.9-11,11C133-403.9,133.9-403,135-403z"/>
		<path class="st2" d="M154-397c0,1.1,0.9,2,2,2h36c1.1,0,2-0.9,2-2s-0.9-2-2-2h-36C154.9-399,154-398.1,154-397z"/>
		<path class="st2" d="M162-392c-1.1,0-2,0.9-2,2s0.9,2,2,2h27c1.1,0,2-0.9,2-2s-0.9-2-2-2H162z"/>
		<path class="st2" d="M192-385h-24c-1.1,0-2,0.9-2,2s0.9,2,2,2h24c1.1,0,2-0.9,2-2S193.1-385,192-385z"/>
		<path class="st2" d="M132-395h18c1.1,0,2-0.9,2-2s-0.9-2-2-2h-18c-1.1,0-2,0.9-2,2S130.9-395,132-395z"/>
		<path class="st2" d="M135-392c-1.1,0-2,0.9-2,2s0.9,2,2,2h21c1.1,0,2-0.9,2-2s-0.9-2-2-2H135z"/>
		<path class="st2" d="M162-385h-30c-1.1,0-2,0.9-2,2s0.9,2,2,2h30c1.1,0,2-0.9,2-2S163.1-385,162-385z"/>
	</g>
	<path class="st4" d="M180-416c-0.5,0-1.1,0.1-1.7,0.2c-2.1-7.2-8.6-12.2-16.3-12.2c-7.7,0-14.2,5-16.3,12.2
		c-0.6-0.1-1.2-0.2-1.7-0.2c-6.1,0-11,4.9-11,11s4.9,11,11,11h36c6.1,0,11-4.9,11-11S186.1-416,180-416z"/>
	<g>
		<path class="st2" d="M249-403c1.1,0,2-0.9,2-2c0-3.9,3.1-7,7-7c0.3,0,0.7,0.1,1.2,0.2v1.8c0,1.1,0.9,2,2,2s2-0.9,2-2v-3.2
			c1.1-6.3,6.4-10.8,12.8-10.8s11.7,4.5,12.8,10.8v3.2c0,1.1,0.9,2,2,2c1.1,0,2-0.9,2-2v-1.8c0.5-0.1,0.9-0.2,1.2-0.2
			c3.9,0,7,3.1,7,7c0,1.1,0.9,2,2,2c1.1,0,2-0.9,2-2c0-6.1-4.9-11-11-11c-0.5,0-1.1,0.1-1.7,0.2c-2.1-7.2-8.6-12.2-16.3-12.2
			c-7.7,0-14.2,5-16.3,12.2c-0.6-0.1-1.2-0.2-1.7-0.2c-6.1,0-11,4.9-11,11C247-403.9,247.9-403,249-403z"/>
		<path class="st2" d="M268-397c0,1.1,0.9,2,2,2h36c1.1,0,2-0.9,2-2s-0.9-2-2-2h-36C268.9-399,268-398.1,268-397z"/>
		<path class="st2" d="M276-392c-1.1,0-2,0.9-2,2s0.9,2,2,2h27c1.1,0,2-0.9,2-2s-0.9-2-2-2H276z"/>
		<path class="st2" d="M306-385h-24c-1.1,0-2,0.9-2,2s0.9,2,2,2h24c1.1,0,2-0.9,2-2S307.1-385,306-385z"/>
		<path class="st2" d="M246-395h18c1.1,0,2-0.9,2-2s-0.9-2-2-2h-18c-1.1,0-2,0.9-2,2S244.9-395,246-395z"/>
		<path class="st2" d="M249-392c-1.1,0-2,0.9-2,2s0.9,2,2,2h21c1.1,0,2-0.9,2-2s-0.9-2-2-2H249z"/>
		<path class="st2" d="M276-385h-30c-1.1,0-2,0.9-2,2s0.9,2,2,2h30c1.1,0,2-0.9,2-2S277.1-385,276-385z"/>
	</g>
	<path class="st4" d="M294-416c-0.5,0-1.1,0.1-1.7,0.2c-2.1-7.2-8.6-12.2-16.3-12.2c-7.7,0-14.2,5-16.3,12.2
		c-0.6-0.1-1.2-0.2-1.7-0.2c-6.1,0-11,4.9-11,11s4.9,11,11,11h36c6.1,0,11-4.9,11-11S300.1-416,294-416z"/>
	<path class="st4" d="M408-422c-0.5,0-1.1,0.1-1.7,0.2c-2.1-7.2-8.6-12.2-16.3-12.2c-7.7,0-14.2,5-16.3,12.2
		c-0.6-0.1-1.2-0.2-1.7-0.2c-6.1,0-11,4.9-11,11s4.9,11,11,11h36c6.1,0,11-4.9,11-11S414.1-422,408-422z"/>
	<path class="st4" d="M294-986c-0.5,0-1.1,0.1-1.7,0.2c-2.1-7.2-8.6-12.2-16.3-12.2c-7.7,0-14.2,5-16.3,12.2
		c-0.6-0.1-1.2-0.2-1.7-0.2c-6.1,0-11,4.9-11,11s4.9,11,11,11h36c6.1,0,11-4.9,11-11S300.1-986,294-986z"/>
	<path class="st4" d="M408-986c-0.5,0-1.1,0.1-1.7,0.2c-2.1-7.2-8.6-12.2-16.3-12.2c-7.7,0-14.2,5-16.3,12.2
		c-0.6-0.1-1.2-0.2-1.7-0.2c-6.1,0-11,4.9-11,11s4.9,11,11,11h36c6.1,0,11-4.9,11-11S414.1-986,408-986z"/>
	<path class="st4" d="M-48-872c-0.5,0-1.1,0.1-1.7,0.2C-51.8-879-58.3-884-66-884c-7.7,0-14.2,5-16.3,12.2c-0.6-0.1-1.2-0.2-1.7-0.2
		c-6.1,0-11,4.9-11,11s4.9,11,11,11h36c6.1,0,11-4.9,11-11S-41.9-872-48-872z"/>
	<g>
		<g>
			<path class="st2" d="M48-848c-1.1,0-2,0.9-2,2v18c0,1.1,0.9,2,2,2c1.1,0,2-0.9,2-2v-18C50-847.1,49.1-848,48-848z"/>
			<path class="st2" d="M75.7-866.2c-0.3-0.6-0.7-1.2-1.2-1.8c-1.3-1.6-3.2-2.9-5.2-3.5c-1-0.3-2.1-0.5-3.3-0.5
				c-0.5,0-1.1,0.1-1.7,0.2C62.2-879,55.7-884,48-884c-7.7,0-14.2,5-16.3,12.2c-0.6-0.1-1.2-0.2-1.7-0.2c-1.1,0-2.2,0.2-3.3,0.5
				c-2.1,0.6-3.9,1.9-5.2,3.5c-0.4,0.5-0.8,1.1-1.2,1.8c-0.8,1.6-1.3,3.3-1.3,5.2s0.5,3.7,1.3,5.2c0.3,0.6,0.7,1.2,1.2,1.8
				c1.3,1.6,3.2,2.9,5.2,3.5c1,0.3,2.1,0.5,3.3,0.5h7v16c0,1.1,0.9,2,2,2c1.1,0,2-0.9,2-2v-16h14v16c0,1.1,0.9,2,2,2
				c1.1,0,2-0.9,2-2v-16h7c1.1,0,2.2-0.2,3.3-0.5c2.1-0.6,3.9-1.9,5.2-3.5c0.4-0.5,0.8-1.1,1.2-1.8c0.8-1.6,1.3-3.3,1.3-5.2
				S76.5-864.7,75.7-866.2z"/>
		</g>
		<path class="st4" d="M66-872c-0.5,0-1.1,0.1-1.7,0.2C62.2-879,55.7-884,48-884c-7.7,0-14.2,5-16.3,12.2c-0.6-0.1-1.2-0.2-1.7-0.2
			c-6.1,0-11,4.9-11,11s4.9,11,11,11h36c6.1,0,11-4.9,11-11S72.1-872,66-872z"/>
	</g>
	<path class="st4" d="M180-872c-0.5,0-1.1,0.1-1.7,0.2c-2.1-7.2-8.6-12.2-16.3-12.2c-7.7,0-14.2,5-16.3,12.2
		c-0.6-0.1-1.2-0.2-1.7-0.2c-6.1,0-11,4.9-11,11s4.9,11,11,11h36c6.1,0,11-4.9,11-11S186.1-872,180-872z"/>
	<path class="st4" d="M294-872c-0.5,0-1.1,0.1-1.7,0.2c-2.1-7.2-8.6-12.2-16.3-12.2c-7.7,0-14.2,5-16.3,12.2
		c-0.6-0.1-1.2-0.2-1.7-0.2c-6.1,0-11,4.9-11,11s4.9,11,11,11h36c6.1,0,11-4.9,11-11S300.1-872,294-872z"/>
	<g>
		<g>
			<circle class="st2" cx="381" cy="-846" r="2"/>
			<circle class="st2" cx="399" cy="-846" r="2"/>
			<circle class="st2" cx="390" cy="-840" r="2"/>
			<circle class="st2" cx="399" cy="-834" r="2"/>
			<circle class="st2" cx="390" cy="-828" r="2"/>
			<circle class="st2" cx="381" cy="-834" r="2"/>
			<path class="st2" d="M417.7-866.2c-0.3-0.6-0.7-1.2-1.2-1.8c-1.3-1.6-3.2-2.9-5.2-3.5c-1-0.3-2.1-0.5-3.3-0.5
				c-0.3,0-0.5,0-0.8,0.1c-0.3,0-0.6,0.1-0.9,0.1c-0.9-3.1-2.7-5.9-5-7.9c-0.3-0.3-0.7-0.6-1-0.8c-0.7-0.5-1.5-1-2.3-1.4
				c-2.4-1.3-5.1-2-8-2c-7.7,0-14.2,5-16.3,12.2c-0.1,0-0.1,0-0.2,0c-0.5-0.1-1-0.2-1.5-0.2c-1.1,0-2.2,0.2-3.3,0.5
				c-2.1,0.6-3.9,1.9-5.2,3.5c-0.4,0.5-0.8,1.1-1.2,1.8c-0.8,1.6-1.3,3.3-1.3,5.2s0.5,3.7,1.3,5.2c0.3,0.6,0.7,1.2,1.2,1.8
				c1.3,1.6,3.2,2.9,5.2,3.5c1,0.3,2.1,0.5,3.3,0.5h36c1.1,0,2.2-0.2,3.3-0.5c2.1-0.6,3.9-1.9,5.2-3.5c0.4-0.5,0.8-1.1,1.2-1.8
				c0.8-1.6,1.3-3.3,1.3-5.2S418.5-864.7,417.7-866.2z"/>
		</g>
		<path class="st4" d="M408-872c-0.5,0-1.1,0.1-1.7,0.2c-2.1-7.2-8.6-12.2-16.3-12.2c-7.7,0-14.2,5-16.3,12.2
			c-0.6-0.1-1.2-0.2-1.7-0.2c-6.1,0-11,4.9-11,11s4.9,11,11,11h36c6.1,0,11-4.9,11-11S414.1-872,408-872z"/>
	</g>
	<path class="st4" d="M-48-758c-0.5,0-1.1,0.1-1.7,0.2C-51.8-765-58.3-770-66-770c-7.7,0-14.2,5-16.3,12.2c-0.6-0.1-1.2-0.2-1.7-0.2
		c-6.1,0-11,4.9-11,11s4.9,11,11,11h36c6.1,0,11-4.9,11-11S-41.9-758-48-758z"/>
	<path class="st4" d="M66-758c-0.5,0-1.1,0.1-1.7,0.2C62.2-765,55.7-770,48-770c-7.7,0-14.2,5-16.3,12.2c-0.6-0.1-1.2-0.2-1.7-0.2
		c-6.1,0-11,4.9-11,11s4.9,11,11,11h36c6.1,0,11-4.9,11-11S72.1-758,66-758z"/>
	<g>
		<g>
			<path class="st2" d="M-69.3-613.3c-0.6-1-1.8-1.3-2.7-0.7c-1,0.6-1.3,1.8-0.7,2.7l1,1.7c0.4,0.6,1,1,1.7,1c0.3,0,0.7-0.1,1-0.3
				c1-0.6,1.3-1.8,0.7-2.7L-69.3-613.3z"/>
			<path class="st2" d="M-74-614.1c-1-0.6-2.2-0.2-2.7,0.7l-1,1.7c-0.6,1-0.2,2.2,0.7,2.7c0.3,0.2,0.7,0.3,1,0.3
				c0.7,0,1.4-0.4,1.7-1l1-1.7C-72.7-612.3-73-613.5-74-614.1z"/>
			<path class="st2" d="M-75-615.8c0-1.1-0.9-2-2-2h-2c-1.1,0-2,0.9-2,2c0,1.1,0.9,2,2,2h2C-75.9-613.8-75-614.7-75-615.8z"/>
			<path class="st2" d="M-67-617.8h-2c-1.1,0-2,0.9-2,2c0,1.1,0.9,2,2,2h2c1.1,0,2-0.9,2-2C-65-616.9-65.9-617.8-67-617.8z"/>
			<path class="st2" d="M-47-643c-0.5,0-1.1,0.1-1.7,0.2C-50.8-650-57.3-655-65-655c-7.7,0-14.2,5-16.3,12.2
				c-0.6-0.1-1.2-0.2-1.7-0.2c-6.1,0-11,4.9-11,11s4.9,11,11,11h5c0,0.3,0.1,0.7,0.3,1l1,1.7c0.4,0.6,1,1,1.7,1c0.3,0,0.7-0.1,1-0.3
				c1-0.6,1.3-1.8,0.7-2.7l-0.4-0.7h1.4l-0.4,0.7c-0.6,1-0.2,2.2,0.7,2.7c0.3,0.2,0.7,0.3,1,0.3c0.7,0,1.4-0.4,1.7-1l1-1.7
				c0.2-0.3,0.3-0.7,0.3-1h21c6.1,0,11-4.9,11-11S-40.9-643-47-643z"/>
			<path class="st2" d="M-52.3-608.3c-0.6-1-1.8-1.3-2.7-0.7c-1,0.6-1.3,1.8-0.7,2.7l1,1.7c0.4,0.6,1,1,1.7,1c0.3,0,0.7-0.1,1-0.3
				c1-0.6,1.3-1.8,0.7-2.7L-52.3-608.3z"/>
			<path class="st2" d="M-57.3-617c-0.6-1-1.8-1.3-2.7-0.7c-1,0.6-1.3,1.8-0.7,2.7l1,1.7c0.4,0.6,1,1,1.7,1c0.3,0,0.7-0.1,1-0.3
				c1-0.6,1.3-1.8,0.7-2.7L-57.3-617z"/>
			<path class="st2" d="M-55-612.5c0.3,0.2,0.7,0.3,1,0.3c0.7,0,1.4-0.4,1.7-1l1-1.7c0.6-1,0.2-2.2-0.7-2.7c-1-0.6-2.2-0.2-2.7,0.7
				l-1,1.7C-56.3-614.3-56-613.1-55-612.5z"/>
			<path class="st2" d="M-57-609.1c-1-0.6-2.2-0.2-2.7,0.7l-1,1.7c-0.6,1-0.2,2.2,0.7,2.7c0.3,0.2,0.7,0.3,1,0.3
				c0.7,0,1.4-0.4,1.7-1l1-1.7C-55.7-607.3-56-608.5-57-609.1z"/>
			<path class="st2" d="M-58-610.8c0-1.1-0.9-2-2-2h-2c-1.1,0-2,0.9-2,2c0,1.1,0.9,2,2,2h2C-58.9-608.8-58-609.7-58-610.8z"/>
			<path class="st2" d="M-50-612.8h-2c-1.1,0-2,0.9-2,2c0,1.1,0.9,2,2,2h2c1.1,0,2-0.9,2-2C-48-611.9-48.9-612.8-50-612.8z"/>
		</g>
		<path class="st4" d="M-47-643c-0.5,0-1.1,0.1-1.7,0.2C-50.8-650-57.3-655-65-655c-7.7,0-14.2,5-16.3,12.2
			c-0.6-0.1-1.2-0.2-1.7-0.2c-6.1,0-11,4.9-11,11s4.9,11,11,11h36c6.1,0,11-4.9,11-11S-40.9-643-47-643z"/>
	</g>
	<path class="st4" d="M66-644c-0.5,0-1.1,0.1-1.7,0.2C62.2-651,55.7-656,48-656c-7.7,0-14.2,5-16.3,12.2c-0.6-0.1-1.2-0.2-1.7-0.2
		c-6.1,0-11,4.9-11,11s4.9,11,11,11h36c6.1,0,11-4.9,11-11S72.1-644,66-644z"/>
	<path class="st4" d="M180-644c-0.5,0-1.1,0.1-1.7,0.2c-2.1-7.2-8.6-12.2-16.3-12.2c-7.7,0-14.2,5-16.3,12.2
		c-0.6-0.1-1.2-0.2-1.7-0.2c-6.1,0-11,4.9-11,11s4.9,11,11,11h36c6.1,0,11-4.9,11-11S186.1-644,180-644z"/>
	<path class="st4" d="M-48-530c-0.5,0-1.1,0.1-1.7,0.2C-51.8-537-58.3-542-66-542c-7.7,0-14.2,5-16.3,12.2c-0.6-0.1-1.2-0.2-1.7-0.2
		c-6.1,0-11,4.9-11,11s4.9,11,11,11h36c6.1,0,11-4.9,11-11S-41.9-530-48-530z"/>
	<path class="st4" d="M66-530c-0.5,0-1.1,0.1-1.7,0.2C62.2-537,55.7-542,48-542c-7.7,0-14.2,5-16.3,12.2c-0.6-0.1-1.2-0.2-1.7-0.2
		c-6.1,0-11,4.9-11,11s4.9,11,11,11h36c6.1,0,11-4.9,11-11S72.1-530,66-530z"/>
	<path class="st4" d="M180-530c-0.5,0-1.1,0.1-1.7,0.2c-2.1-7.2-8.6-12.2-16.3-12.2c-7.7,0-14.2,5-16.3,12.2
		c-0.6-0.1-1.2-0.2-1.7-0.2c-6.1,0-11,4.9-11,11s4.9,11,11,11h36c6.1,0,11-4.9,11-11S186.1-530,180-530z"/>
	<path class="st4" d="M-48-302c-0.5,0-1.1,0.1-1.7,0.2C-51.8-309-58.3-314-66-314c-7.7,0-14.2,5-16.3,12.2c-0.6-0.1-1.2-0.2-1.7-0.2
		c-6.1,0-11,4.9-11,11s4.9,11,11,11h36c6.1,0,11-4.9,11-11S-41.9-302-48-302z"/>
	<g>
		<g>
			<path class="st2" d="M-64-162v-12c0-1.1-0.9-2-2-2s-2,0.9-2,2v12c0,1.1,0.9,2,2,2S-64-160.9-64-162z"/>
			<path class="st2" d="M-73-156v-12c0-1.1-0.9-2-2-2c-1.1,0-2,0.9-2,2v12c0,1.1,0.9,2,2,2C-73.9-154-73-154.9-73-156z"/>
			<path class="st2" d="M-55-156v-12c0-1.1-0.9-2-2-2c-1.1,0-2,0.9-2,2v12c0,1.1,0.9,2,2,2C-55.9-154-55-154.9-55-156z"/>
			<path class="st2" d="M-74-150h-2c-1.1,0-2,0.9-2,2v2c0,1.1,0.9,2,2,2h2c1.1,0,2-0.9,2-2v-2C-72-149.1-72.9-150-74-150z"/>
			<path class="st2" d="M-65-156h-2c-1.1,0-2,0.9-2,2v2c0,1.1,0.9,2,2,2h2c1.1,0,2-0.9,2-2v-2C-63-155.1-63.9-156-65-156z"/>
			<path class="st2" d="M-56-150h-2c-1.1,0-2,0.9-2,2v2c0,1.1,0.9,2,2,2h2c1.1,0,2-0.9,2-2v-2C-54-149.1-54.9-150-56-150z"/>
		</g>
		<path class="st4" d="M-48-188c-0.5,0-1.1,0.1-1.7,0.2C-51.8-195-58.3-200-66-200c-7.7,0-14.2,5-16.3,12.2
			c-0.6-0.1-1.2-0.2-1.7-0.2c-6.1,0-11,4.9-11,11s4.9,11,11,11h36c6.1,0,11-4.9,11-11S-41.9-188-48-188z"/>
	</g>
	<g>
		<g>
			<path class="st2" d="M273.5-174v18c0,1.1,0.9,2,2,2c1.1,0,2-0.9,2-2v-18c0-1.1-0.9-2-2-2C274.4-176,273.5-175.1,273.5-174z"/>
			<path class="st2" d="M250.5-155h-2c-1.1,0-2,0.9-2,2v2c0,1.1,0.9,2,2,2h2c1.1,0,2-0.9,2-2v-2C252.5-154.1,251.6-155,250.5-155z"
				/>
			<path class="st2" d="M276.5-150h-2c-1.1,0-2,0.9-2,2v2c0,1.1,0.9,2,2,2h2c1.1,0,2-0.9,2-2v-2C278.5-149.1,277.6-150,276.5-150z"
				/>
			<path class="st2" d="M303.5-158h-2c-1.1,0-2,0.9-2,2v2c0,1.1,0.9,2,2,2h2c1.1,0,2-0.9,2-2v-2C305.5-157.1,304.6-158,303.5-158z"
				/>
			<path class="st2" d="M266.5-170c-1.1,0-2,0.9-2,2v15.1c-1.2-0.7-2.5-1.1-4-1.1h-2c-1.1,0-2,0.9-2,2c0,1.1,0.9,2,2,2h2
				c2.2,0,4,1.8,4,4c0,1.1,0.9,2,2,2c1.1,0,2-0.9,2-2v-22C268.5-169.1,267.6-170,266.5-170z"/>
			<path class="st2" d="M293.5-157c-2.7,0-5.1,0.9-7,2.5V-168c0-1.1-0.9-2-2-2c-1.1,0-2,0.9-2,2v22c0,0,0,0,0,0c0,1.1,0.9,2,2,2
				c1.1,0,2-0.9,2-2v0c0-3.9,3.1-7,7-7c1.1,0,2-0.9,2-2C295.5-156.1,294.6-157,293.5-157z"/>
		</g>
		<path class="st4" d="M294-188c-0.5,0-1.1,0.1-1.7,0.2c-2.1-7.2-8.6-12.2-16.3-12.2c-7.7,0-14.2,5-16.3,12.2
			c-0.6-0.1-1.2-0.2-1.7-0.2c-6.1,0-11,4.9-11,11s4.9,11,11,11h36c6.1,0,11-4.9,11-11S300.1-188,294-188z"/>
	</g>
	<path class="st4" d="M294-302c-0.5,0-1.1,0.1-1.7,0.2c-2.1-7.2-8.6-12.2-16.3-12.2c-7.7,0-14.2,5-16.3,12.2
		c-0.6-0.1-1.2-0.2-1.7-0.2c-6.1,0-11,4.9-11,11s4.9,11,11,11h36c6.1,0,11-4.9,11-11S300.1-302,294-302z"/>
	<path class="st2" d="M36.4-278.2c-0.8,1.1-3.4,4.7-3.4,7.2c0,2.9,2.1,5,5,5c2.9,0,5-2.1,5-5c0-2.5-2.6-6.1-3.4-7.2
		C38.8-279.2,37.2-279.2,36.4-278.2z"/>
	<path class="st2" d="M54.4-278.2c-0.8,1.1-3.4,4.7-3.4,7.2c0,2.9,2.1,5,5,5c2.9,0,5-2.1,5-5c0-2.5-2.6-6.1-3.4-7.2
		C56.8-279.2,55.2-279.2,54.4-278.2z"/>
	<path class="st2" d="M45.4-267.2c-0.8,1.1-3.4,4.7-3.4,7.2c0,2.9,2.1,5,5,5c2.9,0,5-2.1,5-5c0-2.5-2.6-6.1-3.4-7.2
		C47.8-268.2,46.2-268.2,45.4-267.2z"/>
	<path class="st4" d="M66-302c-0.5,0-1.1,0.1-1.7,0.2C62.2-309,55.7-314,48-314c-7.7,0-14.2,5-16.3,12.2c-0.6-0.1-1.2-0.2-1.7-0.2
		c-6.1,0-11,4.9-11,11s4.9,11,11,11h36c6.1,0,11-4.9,11-11S72.1-302,66-302z"/>
	<path class="st2" d="M-77.6-278.2c-0.8,1.1-3.4,4.7-3.4,7.2c0,2.9,2.1,5,5,5s5-2.1,5-5c0-2.5-2.6-6.1-3.4-7.2
		C-75.2-279.3-76.8-279.3-77.6-278.2z"/>
	<path class="st2" d="M-59.6-278.2c-0.8,1.1-3.4,4.7-3.4,7.2c0,2.9,2.1,5,5,5s5-2.1,5-5c0-2.5-2.6-6.1-3.4-7.2
		C-57.2-279.3-58.8-279.3-59.6-278.2z"/>
	<path class="st2" d="M-68.6-267.2c-0.8,1.1-3.4,4.7-3.4,7.2c0,2.9,2.1,5,5,5s5-2.1,5-5c0-2.5-2.6-6.1-3.4-7.2
		C-66.2-268.3-67.8-268.3-68.6-267.2z"/>
	<g>
		<path class="st2" d="M164.7-278.4c-0.7-0.8-2.1-0.8-2.8,0c-0.6,0.7-5.9,7-5.9,12.1c0,1.9,0.6,3.6,1.8,5c0.9,1.1,2.6,2.3,5.5,2.3
			c4.8,0,7.3-3.7,7.3-7.3C170.5-271.4,165.3-277.7,164.7-278.4z M163.3-261.7C163.3-261.7,163.3-261.7,163.3-261.7l0,0.9
			L163.3-261.7z"/>
		<path class="st4" d="M180-302c-0.5,0-1.1,0.1-1.7,0.2c-2.1-7.2-8.6-12.2-16.3-12.2c-7.7,0-14.2,5-16.3,12.2
			c-0.6-0.1-1.2-0.2-1.7-0.2c-6.1,0-11,4.9-11,11s4.9,11,11,11h36c6.1,0,11-4.9,11-11S186.1-302,180-302z"/>
	</g>
	<path class="st2" d="M279.1-278.4c-0.7-0.8-2.1-0.8-2.8,0c-0.6,0.7-5.9,7-5.9,12.1c0,1.9,0.6,3.6,1.8,5c0.9,1.1,2.6,2.3,5.5,2.3
		c4.8,0,7.3-3.7,7.3-7.3C285-271.3,279.7-277.7,279.1-278.4z M277.7-261.7L277.7-261.7l0,0.9L277.7-261.7z"/>
	<path class="st4" d="M180-188c-0.5,0-1.1,0.1-1.7,0.2c-2.1-7.2-8.6-12.2-16.3-12.2c-7.7,0-14.2,5-16.3,12.2
		c-0.6-0.1-1.2-0.2-1.7-0.2c-6.1,0-11,4.9-11,11s4.9,11,11,11h36c6.1,0,11-4.9,11-11S186.1-188,180-188z"/>
	<path class="st4" d="M66-188c-0.5,0-1.1,0.1-1.7,0.2C62.2-195,55.7-200,48-200c-7.7,0-14.2,5-16.3,12.2c-0.6-0.1-1.2-0.2-1.7-0.2
		c-6.1,0-11,4.9-11,11s4.9,11,11,11h36c6.1,0,11-4.9,11-11S72.1-188,66-188z"/>
	<path class="st4" d="M408-188c-0.5,0-1.1,0.1-1.7,0.2c-2.1-7.2-8.6-12.2-16.3-12.2c-7.7,0-14.2,5-16.3,12.2
		c-0.6-0.1-1.2-0.2-1.7-0.2c-6.1,0-11,4.9-11,11s4.9,11,11,11h36c6.1,0,11-4.9,11-11S414.1-188,408-188z"/>
	<path class="st4" d="M408-302c-0.5,0-1.1,0.1-1.7,0.2c-2.1-7.2-8.6-12.2-16.3-12.2c-7.7,0-14.2,5-16.3,12.2
		c-0.6-0.1-1.2-0.2-1.7-0.2c-6.1,0-11,4.9-11,11s4.9,11,11,11h36c6.1,0,11-4.9,11-11S414.1-302,408-302z"/>
	<path class="st2" d="M393.1-278.4c-0.7-0.8-2.1-0.8-2.8,0c-0.6,0.7-5.9,7-5.9,12.1c0,1.9,0.6,3.6,1.8,5c0.9,1.1,2.6,2.3,5.5,2.3
		c4.8,0,7.3-3.7,7.3-7.3C399-271.3,393.7-277.7,393.1-278.4z M391.7-261.7L391.7-261.7l0,0.9L391.7-261.7z"/>
	<path class="st4" d="M-48-74c-0.5,0-1.1,0.1-1.7,0.2C-51.8-81-58.3-86-66-86c-7.7,0-14.2,5-16.3,12.2c-0.6-0.1-1.2-0.2-1.7-0.2
		c-6.1,0-11,4.9-11,11s4.9,11,11,11h36c6.1,0,11-4.9,11-11S-41.9-74-48-74z"/>
	<path class="st4" d="M408.8-74.6c-0.5,0-1.1,0.1-1.7,0.2C405-81.8,398.3-87,390.5-87c-7.8,0-14.5,5.2-16.6,12.5
		c-0.6-0.1-1.2-0.2-1.7-0.2c-6.2,0-11.2,5.1-11.2,11.3c0,6.2,5,11.3,11.2,11.3h36.6c6.2,0,11.2-5.1,11.2-11.3
		C420-69.6,415-74.6,408.8-74.6z"/>
	<path class="st4" d="M295-75c-0.5,0-1.1,0.1-1.7,0.2C291.2-82,284.7-87,277-87c-7.7,0-14.2,5-16.3,12.2c-0.6-0.1-1.2-0.2-1.7-0.2
		c-6.1,0-11,4.9-11,11s4.9,11,11,11h36c6.1,0,11-4.9,11-11S301.1-75,295-75z"/>
	<g>
		<path class="st5" d="M-81-418h12c1.1,0,2-0.9,2-2s-0.9-2-2-2h-12c-1.1,0-2,0.9-2,2S-82.1-418-81-418z"/>
		<path class="st5" d="M-93-412h24c1.1,0,2-0.9,2-2s-0.9-2-2-2h-24c-1.1,0-2,0.9-2,2S-94.1-412-93-412z"/>
		<path class="st5" d="M-99-406h24c1.1,0,2-0.9,2-2s-0.9-2-2-2h-24c-1.1,0-2,0.9-2,2S-100.1-406-99-406z"/>
		<path class="st5" d="M-40-402c0-1.1-0.9-2-2-2h-60c-1.1,0-2,0.9-2,2s0.9,2,2,2h60C-40.9-400-40-400.9-40-402z"/>
		<path class="st5" d="M-42-398h-57c-1.1,0-2,0.9-2,2s0.9,2,2,2h57c1.1,0,2-0.9,2-2S-40.9-398-42-398z"/>
		<path class="st5" d="M-81-392l-12,0c-1.1,0-2,0.9-2,2s0.9,2,2,2l12,0c1.1,0,2-0.9,2-2S-79.9-392-81-392z"/>
		<path class="st5" d="M-62-412h8c1.1,0,2-0.9,2-2s-0.9-2-2-2h-8c-1.1,0-2,0.9-2,2S-63.1-412-62-412z"/>
		<path class="st5" d="M-71-408c0,1.1,0.9,2,2,2h21c1.1,0,2-0.9,2-2s-0.9-2-2-2h-21C-70.1-410-71-409.1-71-408z"/>
		<path class="st5" d="M-48-392l-27,0c-1.1,0-2,0.9-2,2s0.9,2,2,2l27,0c1.1,0,2-0.9,2-2S-46.9-392-48-392z"/>
	</g>
	<g>
		<path class="st1" d="M34-1314c0,2.4,0.7,4.9,1.9,7c0.4,0.6,1,1,1.7,1h20.8c0.7,0,1.4-0.4,1.7-1c1.2-2.1,1.9-4.6,1.9-7
			c0-7.7-6.3-14-14-14S34-1321.7,34-1314z M38.8-1310C38.8-1310,38.8-1310,38.8-1310C38.8-1310,38.9-1310,38.8-1310L38.8-1310z
			 M46.8-1323.9c0.4-0.1,0.8-0.1,1.2-0.1c0.1,0,0.1,0,0.2,0C47.7-1324,47.2-1324,46.8-1323.9z"/>
		<polygon class="st1" points="48.1,-1340.4 43.2,-1331.9 53,-1331.9 		"/>
		<polygon class="st1" points="30.1,-1318.8 21.6,-1313.8 30.1,-1308.9 		"/>
		<polygon class="st1" points="66.1,-1308.9 74.6,-1313.8 66.1,-1318.8 		"/>
		<polygon class="st1" points="64.8,-1330.6 59.3,-1328.9 63.1,-1325.1 		"/>
		<polygon class="st1" points="33,-1325.1 36.8,-1328.9 31.3,-1330.6 		"/>
	</g>
	<g>
		<path class="st1" d="M174.3-1314.6c-2.4-4.4-7-7.4-12.3-7.4c-7.7,0-14,6.3-14,14c0,1.1,0.9,2,2,2h24c1.1,0,2-0.9,2-2
			c0-2-0.4-3.9-1.2-5.6C174.7-1314,174.5-1314.3,174.3-1314.6z"/>
		<path class="st1" d="M152.7-1303.9L152.7-1303.9C152.7-1303.9,152.7-1303.9,152.7-1303.9C152.7-1303.9,152.7-1303.9,152.7-1303.9z
			"/>
		<polygon class="st1" points="161.9,-1334.2 157,-1325.7 166.8,-1325.7 		"/>
		<polygon class="st1" points="173.1,-1322.8 177,-1318.9 178.7,-1324.5 		"/>
		<polygon class="st1" points="145.1,-1324.5 146.8,-1318.9 150.7,-1322.8 		"/>
	</g>
	<g>
		<path class="st1" d="M276-1316c-5,0-9.6,2.7-12.1,7c-0.4,0.6-0.4,1.4,0,2c0.4,0.6,1,1,1.7,1h20.8c0.7,0,1.4-0.4,1.7-1
			c0.4-0.6,0.4-1.4,0-2C285.6-1313.3,281-1316,276-1316z M275.8-1312c0.1,0,0.1,0,0.2,0c0,0,0.1,0,0.1,0
			C276-1312,275.9-1312,275.8-1312z"/>
		<path class="st1" d="M266.8-1297.8L266.8-1297.8C266.8-1297.8,266.8-1297.8,266.8-1297.8C266.8-1297.8,266.8-1297.8,266.8-1297.8z
			"/>
		<polygon class="st1" points="276,-1328.2 271.1,-1319.7 280.9,-1319.7 		"/>
		<polygon class="st1" points="287.2,-1316.7 291,-1312.9 292.7,-1318.4 		"/>
		<polygon class="st1" points="259.2,-1318.4 260.9,-1312.9 264.7,-1316.7 		"/>
	</g>
	<g>
		<path class="st1" d="M261.9-635.6c0,2.4,0.7,4.9,1.9,7c0.4,0.6,1,1,1.7,1h20.8c0.7,0,1.4-0.4,1.7-1c1.2-2.1,1.9-4.6,1.9-7
			c0-7.7-6.3-14-14-14S261.9-643.4,261.9-635.6z M266.8-631.6C266.7-631.7,266.7-631.7,266.8-631.6
			C266.8-631.7,266.8-631.7,266.8-631.6L266.8-631.6z M274.7-645.6c0.4-0.1,0.8-0.1,1.2-0.1c0.1,0,0.1,0,0.2,0
			C275.6-645.6,275.1-645.6,274.7-645.6z"/>
		<polygon class="st1" points="276,-662 271.1,-653.5 280.9,-653.5 		"/>
		<polygon class="st1" points="258,-640.4 249.5,-635.5 258,-630.6 		"/>
		<polygon class="st1" points="294,-630.6 302.5,-635.5 294,-640.4 		"/>
		<polygon class="st1" points="292.7,-652.3 287.2,-650.6 291,-646.7 		"/>
		<polygon class="st1" points="260.9,-646.7 264.7,-650.6 259.2,-652.3 		"/>
	</g>
	<g>
		<path class="st1" d="M376.1-636c0,2.4,0.7,4.9,1.9,7c0.4,0.6,1,1,1.7,1h20.8c0.7,0,1.4-0.4,1.7-1c1.2-2.1,1.9-4.6,1.9-7
			c0-7.7-6.3-14-14-14C382.4-650,376.1-643.7,376.1-636z M380.9-632C380.9-632,380.9-632,380.9-632C380.9-632,381-632,380.9-632
			L380.9-632z M388.8-645.9c0.4-0.1,0.8-0.1,1.2-0.1c0.1,0,0.1,0,0.2,0C389.8-646,389.3-646,388.8-645.9z"/>
		<polygon class="st1" points="390.1,-662.4 385.2,-653.9 395,-653.9 		"/>
		<polygon class="st1" points="372.1,-640.8 363.7,-635.8 372.1,-630.9 		"/>
		<polygon class="st1" points="408.2,-630.9 416.7,-635.8 408.2,-640.8 		"/>
		<polygon class="st1" points="406.9,-652.6 401.3,-650.9 405.2,-647.1 		"/>
		<polygon class="st1" points="375.1,-647.1 378.9,-650.9 373.3,-652.6 		"/>
	</g>
	<g>
		<path class="st4" d="M180-74c-0.5,0-1.1,0.1-1.7,0.2C176.2-81,169.7-86,162-86c-7.7,0-14.2,5-16.3,12.2c-0.6-0.1-1.2-0.2-1.7-0.2
			c-6.1,0-11,4.9-11,11s4.9,11,11,11h36c6.1,0,11-4.9,11-11S186.1-74,180-74z"/>
		<g>
			<path class="st5" d="M175.8-47l-30,0c-1.1,0-2,0.9-2,2s0.9,2,2,2l30,0c3.9,0,7,3.1,7,7s-3.1,7-7,7c-1.1,0-2,0.9-2,2s0.9,2,2,2
				c6.1,0,11-4.9,11-11S181.9-47,175.8-47z"/>
			<path class="st5" d="M169.8-41h-24c-1.1,0-2,0.9-2,2s0.9,2,2,2h24c0.6,0,1,0.4,1,1s-0.4,1-1,1c-1.1,0-2,0.9-2,2s0.9,2,2,2
				c2.8,0,5-2.2,5-5S172.6-41,169.8-41z"/>
			<path class="st5" d="M190.8-55c-1.1,0-2,0.9-2,2s0.9,2,2,2c0.6,0,1,0.4,1,1s-0.4,1-1,1h-4c-1.1,0-2,0.9-2,2s0.9,2,2,2h4
				c2.8,0,5-2.2,5-5S193.6-55,190.8-55z"/>
			<path class="st5" d="M145.8-49l33,0c4.4,0,8-3.6,8-8s-3.6-8-8-8s-8,3.6-8,8c0,1.1,0.9,2,2,2c1.1,0,2-0.9,2-2c0-2.2,1.8-4,4-4
				s4,1.8,4,4s-1.8,4-4,4l-33,0c-1.1,0-2,0.9-2,2S144.7-49,145.8-49z"/>
		</g>
	</g>
	<g>
		<path class="st5" d="M290.5-48l-30,0c-1.1,0-2,0.9-2,2s0.9,2,2,2l30,0c3.9,0,7,3.1,7,7s-3.1,7-7,7c-1.1,0-2,0.9-2,2s0.9,2,2,2
			c6.1,0,11-4.9,11-11S296.6-48,290.5-48z"/>
		<path class="st5" d="M284.5-42h-24c-1.1,0-2,0.9-2,2s0.9,2,2,2h24c0.6,0,1,0.4,1,1s-0.4,1-1,1c-1.1,0-2,0.9-2,2s0.9,2,2,2
			c2.8,0,5-2.2,5-5S287.3-42,284.5-42z"/>
		<path class="st5" d="M305.5-56c-1.1,0-2,0.9-2,2s0.9,2,2,2c0.6,0,1,0.4,1,1s-0.4,1-1,1h-4c-1.1,0-2,0.9-2,2s0.9,2,2,2h4
			c2.8,0,5-2.2,5-5S308.3-56,305.5-56z"/>
		<path class="st5" d="M260.5-50l33,0c4.4,0,8-3.6,8-8s-3.6-8-8-8c-4.4,0-8,3.6-8,8c0,1.1,0.9,2,2,2c1.1,0,2-0.9,2-2
			c0-2.2,1.8-4,4-4c2.2,0,4,1.8,4,4s-1.8,4-4,4l-33,0c-1.1,0-2,0.9-2,2S259.4-50,260.5-50z"/>
	</g>
	<g>
		<path class="st5" d="M405.3-48l-30,0c-1.1,0-2,0.9-2,2s0.9,2,2,2l30,0c3.9,0,7,3.1,7,7s-3.1,7-7,7c-1.1,0-2,0.9-2,2s0.9,2,2,2
			c6.1,0,11-4.9,11-11S411.3-48,405.3-48z"/>
		<path class="st5" d="M399.3-42h-24c-1.1,0-2,0.9-2,2s0.9,2,2,2h24c0.6,0,1,0.4,1,1s-0.4,1-1,1c-1.1,0-2,0.9-2,2s0.9,2,2,2
			c2.8,0,5-2.2,5-5S402-42,399.3-42z"/>
		<path class="st5" d="M420.3-56c-1.1,0-2,0.9-2,2s0.9,2,2,2c0.6,0,1,0.4,1,1s-0.4,1-1,1h-4c-1.1,0-2,0.9-2,2s0.9,2,2,2h4
			c2.8,0,5-2.2,5-5S423-56,420.3-56z"/>
		<path class="st5" d="M375.3-50l33,0c4.4,0,8-3.6,8-8s-3.6-8-8-8s-8,3.6-8,8c0,1.1,0.9,2,2,2s2-0.9,2-2c0-2.2,1.8-4,4-4
			c2.2,0,4,1.8,4,4s-1.8,4-4,4l-33,0c-1.1,0-2,0.9-2,2S374.2-50,375.3-50z"/>
	</g>
</g>
</svg>
