<?xml version="1.0" encoding="utf-8"?>
<!-- Generator: Adobe Illustrator 19.2.0, SVG Export Plug-In . SVG Version: 6.00 Build 0)  -->
<svg version="1.1" xmlns="http://www.w3.org/2000/svg" xmlns:xlink="http://www.w3.org/1999/xlink" x="0px" y="0px"
	 viewBox="0 0 96 96" style="enable-background:new 0 0 96 96;" xml:space="preserve">
<style type="text/css">
	.st0{display:none;}
	.st1{fill:#FFCC00;}
	.st2{fill:#5AC8FA;}
	.st3{fill:#5856D6;}
	.st4{fill:#007AFF;}
	.st5{fill:#FF9500;}
	.st6{fill:#FF3B30;}
</style>
<g id="Base" class="st0">
</g>
<g id="Dibujo">
	<g>
		<polyline class="st1" points="-74.3,629.1 -81.3,642.2 -76.1,642.2 -81.9,653.6 -69.7,639.4 -75.9,639.5 -67,629.1 		"/>
		<polyline class="st1" points="-61.5,624.2 -68.5,637.3 -63.3,637.3 -69.1,648.7 -56.9,634.5 -63.1,634.6 -54.2,624.2 		"/>
	</g>
	<g>
		<polyline class="st1" points="-189.2,628.6 -196.2,641.7 -191.1,641.6 -196.9,653 -184.6,638.8 -190.9,638.9 -182,628.6 		"/>
		<polyline class="st1" points="-176.4,623.7 -183.4,636.8 -178.2,636.7 -184,648.1 -171.8,633.9 -178,634 -169.2,623.7 		"/>
	</g>
	<g>
		<path class="st2" d="M-410.5,1308v18c0,1.1,0.9,2,2,2c1.1,0,2-0.9,2-2v-18c0-1.1-0.9-2-2-2C-409.6,1306-410.5,1306.9-410.5,1308z"
			/>
		<path class="st2" d="M-433.5,1327h-2c-1.1,0-2,0.9-2,2v2c0,1.1,0.9,2,2,2h2c1.1,0,2-0.9,2-2v-2
			C-431.5,1327.9-432.4,1327-433.5,1327z"/>
		<path class="st2" d="M-407.5,1332h-2c-1.1,0-2,0.9-2,2v2c0,1.1,0.9,2,2,2h2c1.1,0,2-0.9,2-2v-2
			C-405.5,1332.9-406.4,1332-407.5,1332z"/>
		<path class="st2" d="M-380.5,1324h-2c-1.1,0-2,0.9-2,2v2c0,1.1,0.9,2,2,2h2c1.1,0,2-0.9,2-2v-2
			C-378.5,1324.9-379.4,1324-380.5,1324z"/>
		<path class="st2" d="M-417.5,1312c-1.1,0-2,0.9-2,2v15.1c-1.2-0.7-2.5-1.1-4-1.1h-2c-1.1,0-2,0.9-2,2s0.9,2,2,2h2c2.2,0,4,1.8,4,4
			c0,1.1,0.9,2,2,2c1.1,0,2-0.9,2-2v-22C-415.5,1312.9-416.4,1312-417.5,1312z"/>
		<path class="st2" d="M-390.5,1325c-2.7,0-5.1,0.9-7,2.5V1314c0-1.1-0.9-2-2-2c-1.1,0-2,0.9-2,2v22c0,0,0,0,0,0c0,1.1,0.9,2,2,2
			c1.1,0,2-0.9,2-2v0c0-3.9,3.1-7,7-7c1.1,0,2-0.9,2-2S-389.4,1325-390.5,1325z"/>
	</g>
	<g>
		<path class="st1" d="M-53.8,1276c-7.7,0-14,6.3-14,14s6.3,14,14,14c7.7,0,14-6.3,14-14S-46.1,1276-53.8,1276z"/>
		<polygon class="st1" points="-53.8,1263.5 -48.9,1272 -58.7,1272 		"/>
		<polygon class="st1" points="-27.2,1290 -35.7,1294.9 -35.7,1285.1 		"/>
		<polygon class="st1" points="-37,1273.2 -38.7,1278.8 -42.6,1274.9 		"/>
		<polygon class="st1" points="-70.6,1273.2 -65,1274.9 -68.9,1278.8 		"/>
	</g>
	<g>
		<path class="st1" d="M59.9,1162c-7.7,0-14,6.3-14,14s6.3,14,14,14s14-6.3,14-14S67.6,1162,59.9,1162z"/>
		<polygon class="st1" points="59.9,1149.5 64.8,1158 55,1158 		"/>
		<polygon class="st1" points="86.4,1176 78,1180.9 78,1171.1 		"/>
		<polygon class="st1" points="76.6,1159.2 74.9,1164.8 71.1,1160.9 		"/>
		<polygon class="st1" points="43.1,1159.2 48.6,1160.9 44.8,1164.8 		"/>
	</g>
	<g>
		<path class="st2" d="M-292,1205.9v-12c0-1.1-0.9-2-2-2s-2,0.9-2,2v12c0,1.1,0.9,2,2,2S-292,1207-292,1205.9z"/>
		<path class="st2" d="M-301,1211.9v-12c0-1.1-0.9-2-2-2s-2,0.9-2,2v12c0,1.1,0.9,2,2,2S-301,1213-301,1211.9z"/>
		<path class="st2" d="M-283,1211.9v-12c0-1.1-0.9-2-2-2s-2,0.9-2,2v12c0,1.1,0.9,2,2,2S-283,1213-283,1211.9z"/>
		<path class="st2" d="M-302,1217.9h-2c-1.1,0-2,0.9-2,2v2c0,1.1,0.9,2,2,2h2c1.1,0,2-0.9,2-2v-2
			C-300,1218.8-300.9,1217.9-302,1217.9z"/>
		<path class="st2" d="M-293,1211.9h-2c-1.1,0-2,0.9-2,2v2c0,1.1,0.9,2,2,2h2c1.1,0,2-0.9,2-2v-2
			C-291,1212.8-291.9,1211.9-293,1211.9z"/>
		<path class="st2" d="M-284,1217.9h-2c-1.1,0-2,0.9-2,2v2c0,1.1,0.9,2,2,2h2c1.1,0,2-0.9,2-2v-2
			C-282,1218.8-282.9,1217.9-284,1217.9z"/>
	</g>
	<g>
		<path class="st1" d="M-281.9,1162c-7.7,0-14,6.3-14,14s6.3,14,14,14c7.7,0,14-6.3,14-14S-274.2,1162-281.9,1162z"/>
		<polygon class="st1" points="-281.9,1149.5 -277,1158 -286.8,1158 		"/>
		<polygon class="st1" points="-255.3,1176 -263.8,1180.9 -263.8,1171.1 		"/>
		<polygon class="st1" points="-265.1,1159.2 -266.8,1164.8 -270.7,1160.9 		"/>
		<polygon class="st1" points="-298.7,1159.2 -293.1,1160.9 -297,1164.8 		"/>
	</g>
	<g>
		<path class="st1" d="M-396.2,1048.1c-7.7,0-14,6.3-14,14c0,7.7,6.3,14,14,14c7.7,0,14-6.3,14-14
			C-382.2,1054.3-388.5,1048.1-396.2,1048.1z"/>
		<polygon class="st1" points="-396.2,1035.6 -391.3,1044 -401.1,1044 		"/>
		<polygon class="st1" points="-369.6,1062.1 -378.1,1067 -378.1,1057.2 		"/>
		<polygon class="st1" points="-379.4,1045.3 -381.2,1050.8 -385,1047 		"/>
		<polygon class="st1" points="-413,1045.3 -407.4,1047 -411.3,1050.8 		"/>
	</g>
	<g>
		<path class="st1" d="M-54,1048c-7.7,0-14,6.3-14,14s6.3,14,14,14s14-6.3,14-14S-46.3,1048-54,1048z"/>
		<polygon class="st1" points="-54,1035.5 -49.1,1044 -58.9,1044 		"/>
		<polygon class="st1" points="-27.4,1062 -35.9,1066.9 -35.9,1057.1 		"/>
		<polygon class="st1" points="-37.2,1045.2 -39,1050.8 -42.8,1046.9 		"/>
		<polygon class="st1" points="-70.8,1045.2 -65.2,1046.9 -69.1,1050.8 		"/>
	</g>
	<g>
		<path class="st1" d="M-167.8,934c-7.7,0-14,6.3-14,14s6.3,14,14,14c7.7,0,14-6.3,14-14S-160,934-167.8,934z"/>
		<polygon class="st1" points="-167.7,921.5 -162.8,930 -172.6,930 		"/>
		<polygon class="st1" points="-141.2,948 -149.7,952.9 -149.7,943.1 		"/>
		<polygon class="st1" points="-151,931.2 -152.7,936.8 -156.5,932.9 		"/>
		<polygon class="st1" points="-184.5,931.2 -179,932.9 -182.8,936.8 		"/>
	</g>
	<g>
		<path class="st1" d="M57.1,826c-7.7,0-14,6.3-14,14s6.3,14,14,14c7.7,0,14-6.3,14-14S64.8,826,57.1,826z"/>
		<polygon class="st1" points="57.1,813.5 62,822 52.2,822 		"/>
		<polygon class="st1" points="83.7,840 75.2,844.9 75.2,835.1 		"/>
		<polygon class="st1" points="73.9,823.2 72.2,828.8 68.3,824.9 		"/>
		<polygon class="st1" points="40.3,823.2 45.9,824.9 42,828.8 		"/>
	</g>
	<g>
		<path class="st1" d="M-282,820c-7.7,0-14,6.3-14,14s6.3,14,14,14c7.7,0,14-6.3,14-14S-274.3,820-282,820z"/>
		<polygon class="st1" points="-282,807.5 -277,816 -286.9,816 		"/>
		<polygon class="st1" points="-255.4,834 -263.9,838.9 -263.9,829.1 		"/>
		<polygon class="st1" points="-265.2,817.2 -266.9,822.8 -270.8,818.9 		"/>
		<polygon class="st1" points="-298.8,817.2 -293.2,818.9 -297,822.8 		"/>
	</g>
	<g>
		<path class="st1" d="M-281.9,706c-7.7,0-14,6.3-14,14s6.3,14,14,14s14-6.3,14-14S-274.2,706-281.9,706z"/>
		<polygon class="st1" points="-281.9,693.5 -277,702 -286.8,702 		"/>
		<polygon class="st1" points="-255.3,720 -263.8,724.9 -263.8,715.1 		"/>
		<polygon class="st1" points="-265.1,703.2 -266.8,708.8 -270.7,704.9 		"/>
		<polygon class="st1" points="-298.7,703.2 -293.1,704.9 -297,708.8 		"/>
	</g>
	<g>
		<path class="st1" d="M-395.8,592c-7.7,0-14,6.3-14,14s6.3,14,14,14c7.7,0,14-6.3,14-14S-388.1,592-395.8,592z"/>
		<polygon class="st1" points="-395.8,579.5 -390.9,588 -400.7,588 		"/>
		<polygon class="st1" points="-369.2,606 -377.7,610.9 -377.7,601.1 		"/>
		<polygon class="st1" points="-379,589.2 -380.8,594.8 -384.6,590.9 		"/>
		<polygon class="st1" points="-412.6,589.2 -407,590.9 -410.9,594.8 		"/>
	</g>
	<g>
		<path class="st1" d="M-54.1,592c-7.7,0-14,6.3-14,14s6.3,14,14,14s14-6.3,14-14S-46.4,592-54.1,592z"/>
		<polygon class="st1" points="-54.1,579.5 -49.1,588 -59,588 		"/>
		<polygon class="st1" points="-27.5,606 -36,610.9 -36,601.1 		"/>
		<polygon class="st1" points="-37.3,589.2 -39,594.8 -42.9,590.9 		"/>
		<polygon class="st1" points="-70.9,589.2 -65.3,590.9 -69.1,594.8 		"/>
	</g>
	<g>
		<path class="st1" d="M-168,478c-7.7,0-14,6.3-14,14s6.3,14,14,14c7.7,0,14-6.3,14-14S-160.3,478-168,478z"/>
		<polygon class="st1" points="-167.9,465.5 -163,474 -172.8,474 		"/>
		<polygon class="st1" points="-141.4,492 -149.9,496.9 -149.9,487.1 		"/>
		<polygon class="st1" points="-151.2,475.2 -152.9,480.8 -156.7,476.9 		"/>
		<polygon class="st1" points="-184.7,475.2 -179.2,476.9 -183,480.8 		"/>
	</g>
	<g>
		<path class="st1" d="M59.9,364c-7.7,0-14,6.3-14,14c0,7.7,6.3,14,14,14c7.7,0,14-6.3,14-14C73.9,370.3,67.7,364,59.9,364z"/>
		<polygon class="st1" points="60,351.5 64.9,360 55.1,360 		"/>
		<polygon class="st1" points="86.5,378 78,382.9 78,373.1 		"/>
		<polygon class="st1" points="76.7,361.3 75,366.8 71.2,363 		"/>
		<polygon class="st1" points="43.2,361.3 48.7,363 44.9,366.8 		"/>
	</g>
	<g>
		<path class="st1" d="M-282.2,364c-7.7,0-14,6.3-14,14c0,7.7,6.3,14,14,14c7.7,0,14-6.3,14-14C-268.2,370.3-274.4,364-282.2,364z"
			/>
		<polygon class="st1" points="-282.1,351.5 -277.2,360 -287,360 		"/>
		<polygon class="st1" points="-255.6,378 -264.1,382.9 -264.1,373.1 		"/>
		<polygon class="st1" points="-265.4,361.3 -267.1,366.8 -270.9,363 		"/>
		<polygon class="st1" points="-298.9,361.3 -293.4,363 -297.2,366.8 		"/>
	</g>
	<path class="st3" d="M-393.5,1273.4c0-1.2,0.2-2.3,0.6-3.4c-1-0.2-2-0.3-3-0.3c-7.7,0-14,6.3-14,14s6.3,14,14,14
		c7.7,0,13.9-6.2,14-13.8c-0.3,0-0.7,0.1-1,0.1C-388.8,1283.9-393.5,1279.2-393.5,1273.4z"/>
	<path class="st3" d="M62.5,1273.7c0-1.2,0.2-2.3,0.6-3.4c-1-0.2-2-0.3-3-0.3c-7.7,0-14,6.3-14,14s6.3,14,14,14
		c7.7,0,13.9-6.2,14-13.8c-0.3,0-0.7,0.1-1,0.1C67.2,1284.3,62.5,1279.5,62.5,1273.7z"/>
	<path class="st3" d="M-165.5,1159.4c0-1.2,0.2-2.3,0.6-3.4c-1-0.2-2-0.3-3-0.3c-7.7,0-14,6.3-14,14s6.3,14,14,14
		c7.7,0,13.9-6.2,14-13.8c-0.3,0-0.7,0.1-1,0.1C-160.8,1169.9-165.5,1165.2-165.5,1159.4z"/>
	<path class="st3" d="M62.6,1045.7c0-1.2,0.2-2.3,0.6-3.4c-1-0.2-2-0.3-3-0.3c-7.7,0-14,6.3-14,14s6.3,14,14,14
		c7.7,0,13.9-6.2,14-13.8c-0.3,0-0.7,0.1-1,0.1C67.3,1056.3,62.6,1051.5,62.6,1045.7z"/>
	<path class="st3" d="M-279.5,1045.7c0-1.2,0.2-2.3,0.6-3.4c-1-0.2-2-0.3-3-0.3c-7.7,0-14,6.3-14,14s6.3,14,14,14
		c7.7,0,13.9-6.2,14-13.8c-0.3,0-0.7,0.1-1,0.1C-274.8,1056.3-279.5,1051.5-279.5,1045.7z"/>
	<path class="st3" d="M-396.5,937.7c0-1.2,0.2-2.3,0.6-3.4c-1-0.2-2-0.3-3-0.3c-7.7,0-14,6.3-14,14s6.3,14,14,14
		c7.7,0,13.9-6.2,14-13.8c-0.3,0-0.7,0.1-1,0.1C-391.8,948.3-396.5,943.5-396.5,937.7z"/>
	<path class="st3" d="M-165.5,817.7c0-1.2,0.2-2.3,0.6-3.4c-1-0.2-2-0.3-3-0.3c-7.7,0-14,6.3-14,14s6.3,14,14,14
		c7.7,0,13.9-6.2,14-13.8c-0.3,0-0.7,0.1-1,0.1C-160.8,828.3-165.5,823.5-165.5,817.7z"/>
	<path class="st3" d="M-51.5,931.7c0-1.2,0.2-2.3,0.6-3.4c-1-0.2-2-0.3-3-0.3c-7.7,0-14,6.3-14,14s6.3,14,14,14
		c7.7,0,13.9-6.2,14-13.8c-0.3,0-0.7,0.1-1,0.1C-46.8,942.3-51.5,937.5-51.5,931.7z"/>
	<path class="st3" d="M-165.5,703.7c0-1.2,0.2-2.3,0.6-3.4c-1-0.2-2-0.3-3-0.3c-7.7,0-14,6.3-14,14s6.3,14,14,14
		c7.7,0,13.9-6.2,14-13.8c-0.3,0-0.7,0.1-1,0.1C-160.8,714.3-165.5,709.5-165.5,703.7z"/>
	<path class="st3" d="M-279.5,589.7c0-1.2,0.2-2.3,0.6-3.4c-1-0.2-2-0.3-3-0.3c-7.7,0-14,6.3-14,14s6.3,14,14,14
		c7.7,0,13.9-6.2,14-13.8c-0.3,0-0.7,0.1-1,0.1C-274.8,600.3-279.5,595.5-279.5,589.7z"/>
	<path class="st3" d="M62.6,589.7c0-1.2,0.2-2.3,0.6-3.4c-1-0.2-2-0.3-3-0.3c-7.7,0-14,6.3-14,14s6.3,14,14,14
		c7.7,0,13.9-6.2,14-13.8c-0.3,0-0.7,0.1-1,0.1C67.3,600.3,62.6,595.5,62.6,589.7z"/>
	<path class="st3" d="M-393.5,475.7c0-1.2,0.2-2.3,0.6-3.4c-1-0.2-2-0.3-3-0.3c-7.7,0-14,6.3-14,14s6.3,14,14,14
		c7.7,0,13.9-6.2,14-13.8c-0.3,0-0.7,0.1-1,0.1C-388.8,486.3-393.5,481.5-393.5,475.7z"/>
	<path class="st3" d="M-165.6,361.7c0-1.2,0.2-2.3,0.6-3.4c-1-0.2-2-0.3-3-0.3c-7.7,0-14,6.3-14,14s6.3,14,14,14
		c7.7,0,13.9-6.2,14-13.8c-0.3,0-0.7,0.1-1,0.1C-160.9,372.3-165.6,367.5-165.6,361.7z"/>
	<path class="st3" d="M-51.5,475.7c0-1.2,0.2-2.3,0.6-3.4c-1-0.2-2-0.3-3-0.3c-7.7,0-14,6.3-14,14s6.3,14,14,14
		c7.7,0,13.9-6.2,14-13.8c-0.3,0-0.7,0.1-1,0.1C-46.8,486.3-51.5,481.5-51.5,475.7z"/>
	<path class="st3" d="M53.8,32.2c0-1.6,0.3-3.2,0.8-4.6c-1.3-0.3-2.7-0.5-4.2-0.5c-10.6,0-19.2,8.6-19.2,19.2
		c0,10.6,8.6,19.2,19.2,19.2c10.5,0,19-8.5,19.2-18.9c-0.5,0-0.9,0.1-1.4,0.1C60.3,46.6,53.8,40.2,53.8,32.2z"/>
	<g>
		<path class="st2" d="M-180,520c-1.1,0-2,0.9-2,2v18c0,1.1,0.9,2,2,2c1.1,0,2-0.9,2-2v-18C-178,520.9-178.9,520-180,520z"/>
		<path class="st2" d="M-152.3,501.8c-0.3-0.6-0.7-1.2-1.2-1.8c-1.3-1.6-3.2-2.9-5.2-3.5c-1-0.3-2.1-0.5-3.3-0.5
			c-0.5,0-1.1,0.1-1.7,0.2c-2.1-7.2-8.6-12.2-16.3-12.2c-7.7,0-14.2,5-16.3,12.2c-0.6-0.1-1.2-0.2-1.7-0.2c-1.1,0-2.2,0.2-3.3,0.5
			c-2.1,0.6-3.9,1.9-5.2,3.5c-0.4,0.5-0.8,1.1-1.2,1.8c-0.8,1.6-1.3,3.3-1.3,5.2s0.5,3.7,1.3,5.2c0.3,0.6,0.7,1.2,1.2,1.8
			c1.3,1.6,3.2,2.9,5.2,3.5c1,0.3,2.1,0.5,3.3,0.5h7v16c0,1.1,0.9,2,2,2c1.1,0,2-0.9,2-2v-16h14v16c0,1.1,0.9,2,2,2c1.1,0,2-0.9,2-2
			v-16h7c1.1,0,2.2-0.2,3.3-0.5c2.1-0.6,3.9-1.9,5.2-3.5c0.4-0.5,0.8-1.1,1.2-1.8c0.8-1.6,1.3-3.3,1.3-5.2S-151.5,503.3-152.3,501.8
			z"/>
	</g>
	<path class="st4" d="M-390,382c-0.5,0-1.1,0.1-1.7,0.2c-2.1-7.2-8.6-12.2-16.3-12.2c-7.7,0-14.2,5-16.3,12.2
		c-0.6-0.1-1.2-0.2-1.7-0.2c-6.1,0-11,4.9-11,11s4.9,11,11,11h36c6.1,0,11-4.9,11-11S-383.9,382-390,382z"/>
	<path class="st3" d="M-408,148c-7.7,0-14,6.3-14,14s6.3,14,14,14s14-6.3,14-14S-400.3,148-408,148z"/>
	<path class="st3" d="M-294,148c-7.7,0-14,6.3-14,14s6.3,14,14,14s14-6.3,14-14S-286.3,148-294,148z M-293.3,172
		c3.2-2.1,5.3-5.8,5.3-10s-2.1-7.8-5.3-10c5.2,0.3,9.3,4.7,9.3,10S-288.1,171.6-293.3,172z"/>
	<path class="st3" d="M-180,262c-7.7,0-14,6.3-14,14s6.3,14,14,14c7.7,0,14-6.3,14-14S-172.3,262-180,262z M-190,276
		c0-5.3,4.1-9.6,9.3-10c-3.2,2.1-5.3,5.8-5.3,10s2.1,7.8,5.3,10C-185.9,285.6-190,281.3-190,276z"/>
	<path class="st3" d="M-180,148c-7.7,0-14,6.3-14,14s6.3,14,14,14c7.7,0,14-6.3,14-14S-172.3,148-180,148z M-180,172v-20
		c5.5,0,10,4.5,10,10S-174.5,172-180,172z"/>
	<path class="st3" d="M-294,262c-7.7,0-14,6.3-14,14s6.3,14,14,14s14-6.3,14-14S-286.3,262-294,262z M-304,276c0-5.5,4.5-10,10-10
		v20C-299.5,286-304,281.5-304,276z"/>
	<path class="st3" d="M-66,148c-7.7,0-14,6.3-14,14s6.3,14,14,14c7.7,0,14-6.3,14-14S-58.3,148-66,148z M-66,172c-0.2,0-0.4,0-0.7,0
		c-3.2-2.1-5.3-5.8-5.3-10s2.1-7.8,5.3-10c0.2,0,0.4,0,0.7,0c5.5,0,10,4.5,10,10S-60.5,172-66,172z"/>
	<path class="st3" d="M-408,262c-7.7,0-14,6.3-14,14s6.3,14,14,14s14-6.3,14-14S-400.3,262-408,262z M-418,276c0-5.5,4.5-10,10-10
		c0.2,0,0.4,0,0.7,0c3.2,2.1,5.3,5.8,5.3,10s-2.1,7.8-5.3,10c-0.2,0-0.4,0-0.7,0C-413.5,286-418,281.5-418,276z"/>
	<path class="st3" d="M48,148c-7.7,0-14,6.3-14,14s6.3,14,14,14c7.7,0,14-6.3,14-14S55.7,148,48,148z M48,172c-5.5,0-10-4.5-10-10
		s4.5-10,10-10c5.5,0,10,4.5,10,10S53.5,172,48,172z"/>
	<path class="st4" d="M-64,250.1V248c0-1.1-0.9-2-2-2c-1.1,0-2,0.9-2,2v2.1c-13.4,1-24,12.3-24,25.9c0,1.1,0.9,2,2,2
		c1.1,0,2-0.9,2-2c0-2.2,1.8-4,4-4c2.2,0,4,1.8,4,4c0,1.1,0.9,2,2,2c1.1,0,2-0.9,2-2c0-2.2,1.8-4,4-4c2.2,0,4,1.8,4,4v21
		c0,2.8,2.2,5,5,5c2.8,0,5-2.2,5-5c0-1.1-0.9-2-2-2c-1.1,0-2,0.9-2,2c0,0.6-0.4,1-1,1c-0.6,0-1-0.4-1-1v-21c0-2.2,1.8-4,4-4
		c2.2,0,4,1.8,4,4c0,1.1,0.9,2,2,2c1.1,0,2-0.9,2-2c0-2.2,1.8-4,4-4c2.2,0,4,1.8,4,4c0,1.1,0.9,2,2,2c1.1,0,2-0.9,2-2
		C-40,262.3-50.6,251.1-64,250.1z"/>
	<g>
		<path class="st5" d="M-75,836h12c1.1,0,2-0.9,2-2s-0.9-2-2-2h-12c-1.1,0-2,0.9-2,2S-76.1,836-75,836z"/>
		<path class="st5" d="M-87,842h24c1.1,0,2-0.9,2-2s-0.9-2-2-2h-24c-1.1,0-2,0.9-2,2S-88.1,842-87,842z"/>
		<path class="st5" d="M-93,848h24c1.1,0,2-0.9,2-2s-0.9-2-2-2h-24c-1.1,0-2,0.9-2,2S-94.1,848-93,848z"/>
		<path class="st5" d="M-34,852c0-1.1-0.9-2-2-2h-60c-1.1,0-2,0.9-2,2s0.9,2,2,2h60C-34.9,854-34,853.1-34,852z"/>
		<path class="st5" d="M-36,856h-57c-1.1,0-2,0.9-2,2s0.9,2,2,2h57c1.1,0,2-0.9,2-2S-34.9,856-36,856z"/>
		<path class="st5" d="M-75,862l-12,0c-1.1,0-2,0.9-2,2c0,1.1,0.9,2,2,2l12,0c1.1,0,2-0.9,2-2S-73.9,862-75,862z"/>
		<path class="st5" d="M-56,842h8c1.1,0,2-0.9,2-2s-0.9-2-2-2h-8c-1.1,0-2,0.9-2,2S-57.1,842-56,842z"/>
		<path class="st5" d="M-65,846c0,1.1,0.9,2,2,2h21c1.1,0,2-0.9,2-2s-0.9-2-2-2h-21C-64.1,844-65,844.9-65,846z"/>
		<path class="st5" d="M-42,862l-27,0c-1.1,0-2,0.9-2,2s0.9,2,2,2l27,0c1.1,0,2-0.9,2-2C-40,862.9-40.9,862-42,862z"/>
	</g>
	<g>
		<path class="st2" d="M-321,965c1.1,0,2-0.9,2-2c0-3.9,3.1-7,7-7c0.3,0,0.7,0.1,1.2,0.2v1.8c0,1.1,0.9,2,2,2c1.1,0,2-0.9,2-2v-3.2
			c1.1-6.3,6.4-10.8,12.8-10.8s11.7,4.5,12.8,10.8v3.2c0,1.1,0.9,2,2,2c1.1,0,2-0.9,2-2v-1.8c0.5-0.1,0.9-0.2,1.2-0.2
			c3.9,0,7,3.1,7,7c0,1.1,0.9,2,2,2s2-0.9,2-2c0-6.1-4.9-11-11-11c-0.5,0-1.1,0.1-1.7,0.2c-2.1-7.2-8.6-12.2-16.3-12.2
			s-14.2,5-16.3,12.2c-0.6-0.1-1.2-0.2-1.7-0.2c-6.1,0-11,4.9-11,11C-323,964.1-322.1,965-321,965z"/>
		<path class="st2" d="M-302,971c0,1.1,0.9,2,2,2h36c1.1,0,2-0.9,2-2s-0.9-2-2-2h-36C-301.1,969-302,969.9-302,971z"/>
		<path class="st2" d="M-294,976c-1.1,0-2,0.9-2,2s0.9,2,2,2h27c1.1,0,2-0.9,2-2s-0.9-2-2-2H-294z"/>
		<path class="st2" d="M-264,983h-24c-1.1,0-2,0.9-2,2s0.9,2,2,2h24c1.1,0,2-0.9,2-2S-262.9,983-264,983z"/>
		<path class="st2" d="M-324,973h18c1.1,0,2-0.9,2-2s-0.9-2-2-2h-18c-1.1,0-2,0.9-2,2S-325.1,973-324,973z"/>
		<path class="st2" d="M-321,976c-1.1,0-2,0.9-2,2s0.9,2,2,2h21c1.1,0,2-0.9,2-2s-0.9-2-2-2H-321z"/>
		<path class="st2" d="M-294,983h-30c-1.1,0-2,0.9-2,2s0.9,2,2,2h30c1.1,0,2-0.9,2-2S-292.9,983-294,983z"/>
	</g>
	<g>
		<path class="st2" d="M66,946c-0.5,0-1.1,0.1-1.7,0.2C62.2,939,55.7,934,48,934c-7.7,0-14.2,5-16.3,12.2c-0.6-0.1-1.2-0.2-1.7-0.2
			c-6.1,0-11,4.9-11,11s4.9,11,11,11c1.1,0,2-0.9,2-2s-0.9-2-2-2c-3.9,0-7-3.1-7-7s3.1-7,7-7c0.3,0,0.7,0.1,1.2,0.2v1.8
			c0,1.1,0.9,2,2,2s2-0.9,2-2v-3.2c1.1-6.3,6.4-10.8,12.8-10.8c6.4,0,11.7,4.5,12.8,10.8v3.2c0,1.1,0.9,2,2,2s2-0.9,2-2v-1.8
			c0.5-0.1,0.9-0.2,1.2-0.2c3.9,0,7,3.1,7,7s-3.1,7-7,7c-1.1,0-2,0.9-2,2s0.9,2,2,2c6.1,0,11-4.9,11-11S72.1,946,66,946z"/>
		<path class="st2" d="M39.6,964.8c-0.8-1-2.4-1-3.2,0c-0.8,1.1-3.4,4.7-3.4,7.2c0,2.9,2.1,5,5,5c2.9,0,5-2.1,5-5
			C43,969.5,40.4,965.9,39.6,964.8z"/>
		<path class="st2" d="M56.4,964.8c-0.8,1.1-3.4,4.7-3.4,7.2c0,2.9,2.1,5,5,5c2.9,0,5-2.1,5-5c0-2.5-2.6-6.1-3.4-7.2
			C58.8,963.8,57.2,963.8,56.4,964.8z"/>
		<path class="st2" d="M46.4,976.8c-0.8,1.1-3.4,4.7-3.4,7.2c0,2.9,2.1,5,5,5c2.9,0,5-2.1,5-5c0-2.5-2.6-6.1-3.4-7.2
			C48.8,975.8,47.2,975.8,46.4,976.8z"/>
	</g>
	<g>
		<path class="st2" d="M-406,1206v-12c0-1.1-0.9-2-2-2s-2,0.9-2,2v12c0,1.1,0.9,2,2,2S-406,1207.1-406,1206z"/>
		<path class="st2" d="M-415,1212v-12c0-1.1-0.9-2-2-2c-1.1,0-2,0.9-2,2v12c0,1.1,0.9,2,2,2C-415.9,1214-415,1213.1-415,1212z"/>
		<path class="st2" d="M-397,1212v-12c0-1.1-0.9-2-2-2c-1.1,0-2,0.9-2,2v12c0,1.1,0.9,2,2,2C-397.9,1214-397,1213.1-397,1212z"/>
		<path class="st2" d="M-416,1218h-2c-1.1,0-2,0.9-2,2v2c0,1.1,0.9,2,2,2h2c1.1,0,2-0.9,2-2v-2C-414,1218.9-414.9,1218-416,1218z"/>
		<path class="st2" d="M-407,1212h-2c-1.1,0-2,0.9-2,2v2c0,1.1,0.9,2,2,2h2c1.1,0,2-0.9,2-2v-2C-405,1212.9-405.9,1212-407,1212z"/>
		<path class="st2" d="M-398,1218h-2c-1.1,0-2,0.9-2,2v2c0,1.1,0.9,2,2,2h2c1.1,0,2-0.9,2-2v-2C-396,1218.9-396.9,1218-398,1218z"/>
	</g>
	<g>
		<path d="M-58.4,1540.6l-5.6,5.6V1533c0-1.1-0.9-2-2-2c-1.1,0-2,0.9-2,2v13.2l-5.6-5.6c-0.8-0.8-2-0.8-2.8,0c-0.8,0.8-0.8,2,0,2.8
			l9,9c0.1,0.1,0.2,0.2,0.3,0.3c0,0,0.1,0.1,0.1,0.1c0.1,0,0.1,0.1,0.2,0.1c0.1,0,0.1,0,0.2,0.1c0.1,0,0.1,0,0.2,0.1
			c0.1,0,0.3,0,0.4,0c0.1,0,0.3,0,0.4,0c0.1,0,0.1,0,0.2-0.1c0.1,0,0.1,0,0.2-0.1c0.1,0,0.1-0.1,0.2-0.1c0,0,0.1,0,0.1-0.1
			c0.1-0.1,0.2-0.2,0.3-0.3l9-9c0.8-0.8,0.8-2,0-2.8C-56.4,1539.8-57.6,1539.8-58.4,1540.6z"/>
		<path d="M-48,1522c-0.5,0-1.1,0.1-1.7,0.2c-2.1-7.2-8.6-12.2-16.3-12.2c-7.7,0-14.2,5-16.3,12.2c-0.6-0.1-1.2-0.2-1.7-0.2
			c-6.1,0-11,4.9-11,11s4.9,11,11,11l2,0c1.1,0,2-0.9,2-2s-0.9-2-2-2h0l-2,0c-3.9,0-7-3.1-7-7s3.1-7,7-7c0.3,0,0.7,0.1,1.2,0.2v1.8
			c0,1.1,0.9,2,2,2s2-0.9,2-2v-3.2c1.1-6.3,6.4-10.8,12.8-10.8c6.4,0,11.7,4.5,12.8,10.8v3.2c0,1.1,0.9,2,2,2s2-0.9,2-2v-1.8
			c0.5-0.1,0.9-0.2,1.2-0.2c3.9,0,7,3.1,7,7s-3.1,7-7,7l-2,0h0c-1.1,0-2,0.9-2,2s0.9,2,2,2l2,0c6.1,0,11-4.9,11-11
			S-41.9,1522-48,1522z"/>
	</g>
	<g>
		<path d="M49.4,1531.6c-0.1-0.1-0.2-0.2-0.3-0.3c0,0-0.1-0.1-0.1-0.1c-0.1,0-0.1-0.1-0.2-0.1c-0.1,0-0.1,0-0.2-0.1
			c-0.1,0-0.1,0-0.2-0.1c-0.3-0.1-0.5-0.1-0.8,0c-0.1,0-0.1,0-0.2,0.1c-0.1,0-0.1,0-0.2,0.1c-0.1,0-0.1,0.1-0.2,0.1
			c0,0-0.1,0-0.1,0.1c-0.1,0.1-0.2,0.2-0.3,0.3l-9,9c-0.8,0.8-0.8,2,0,2.8c0.8,0.8,2,0.8,2.8,0l5.6-5.6v13.2c0,1.1,0.9,2,2,2
			c1.1,0,2-0.9,2-2v-13.2l5.6,5.6c0.4,0.4,0.9,0.6,1.4,0.6c0.5,0,1-0.2,1.4-0.6c0.8-0.8,0.8-2,0-2.8L49.4,1531.6z"/>
		<path d="M66,1522c-0.5,0-1.1,0.1-1.7,0.2c-2.1-7.2-8.6-12.2-16.3-12.2c-7.7,0-14.2,5-16.3,12.2c-0.6-0.1-1.2-0.2-1.7-0.2
			c-6.1,0-11,4.9-11,11s4.9,11,11,11l2,0c1.1,0,2-0.9,2-2s-0.9-2-2-2h0l-2,0c-3.9,0-7-3.1-7-7s3.1-7,7-7c0.3,0,0.7,0.1,1.2,0.2v1.8
			c0,1.1,0.9,2,2,2s2-0.9,2-2v-3.2c1.1-6.3,6.4-10.8,12.8-10.8c6.4,0,11.7,4.5,12.8,10.8v3.2c0,1.1,0.9,2,2,2s2-0.9,2-2v-1.8
			c0.5-0.1,0.9-0.2,1.2-0.2c3.9,0,7,3.1,7,7s-3.1,7-7,7l-2,0h0c-1.1,0-2,0.9-2,2s0.9,2,2,2l2,0c6.1,0,11-4.9,11-11
			S72.1,1522,66,1522z"/>
	</g>
	<g>
		<path class="st2" d="M-68.5,1194v18c0,1.1,0.9,2,2,2c1.1,0,2-0.9,2-2v-18c0-1.1-0.9-2-2-2C-67.6,1192-68.5,1192.9-68.5,1194z"/>
		<path class="st2" d="M-91.5,1213h-2c-1.1,0-2,0.9-2,2v2c0,1.1,0.9,2,2,2h2c1.1,0,2-0.9,2-2v-2C-89.5,1213.9-90.4,1213-91.5,1213z"
			/>
		<path class="st2" d="M-65.5,1218h-2c-1.1,0-2,0.9-2,2v2c0,1.1,0.9,2,2,2h2c1.1,0,2-0.9,2-2v-2C-63.5,1218.9-64.4,1218-65.5,1218z"
			/>
		<path class="st2" d="M-38.5,1210h-2c-1.1,0-2,0.9-2,2v2c0,1.1,0.9,2,2,2h2c1.1,0,2-0.9,2-2v-2C-36.5,1210.9-37.4,1210-38.5,1210z"
			/>
		<path class="st2" d="M-75.5,1198c-1.1,0-2,0.9-2,2v15.1c-1.2-0.7-2.5-1.1-4-1.1h-2c-1.1,0-2,0.9-2,2s0.9,2,2,2h2c2.2,0,4,1.8,4,4
			c0,1.1,0.9,2,2,2c1.1,0,2-0.9,2-2v-22C-73.5,1198.9-74.4,1198-75.5,1198z"/>
		<path class="st2" d="M-48.5,1211c-2.7,0-5.1,0.9-7,2.5V1200c0-1.1-0.9-2-2-2c-1.1,0-2,0.9-2,2v22c0,0,0,0,0,0c0,1.1,0.9,2,2,2
			c1.1,0,2-0.9,2-2v0c0-3.9,3.1-7,7-7c1.1,0,2-0.9,2-2S-47.4,1211-48.5,1211z"/>
	</g>
	<g>
		<path class="st2" d="M46,1194v18c0,1.1,0.9,2,2,2c1.1,0,2-0.9,2-2v-18c0-1.1-0.9-2-2-2C46.9,1192,46,1192.9,46,1194z"/>
		<path class="st2" d="M23,1213h-2c-1.1,0-2,0.9-2,2v2c0,1.1,0.9,2,2,2h2c1.1,0,2-0.9,2-2v-2C25,1213.9,24.1,1213,23,1213z"/>
		<path class="st2" d="M49,1218h-2c-1.1,0-2,0.9-2,2v2c0,1.1,0.9,2,2,2h2c1.1,0,2-0.9,2-2v-2C51,1218.9,50.1,1218,49,1218z"/>
		<path class="st2" d="M76,1210h-2c-1.1,0-2,0.9-2,2v2c0,1.1,0.9,2,2,2h2c1.1,0,2-0.9,2-2v-2C78,1210.9,77.1,1210,76,1210z"/>
		<path class="st2" d="M39,1198c-1.1,0-2,0.9-2,2v15.1c-1.2-0.7-2.5-1.1-4-1.1h-2c-1.1,0-2,0.9-2,2s0.9,2,2,2h2c2.2,0,4,1.8,4,4
			c0,1.1,0.9,2,2,2c1.1,0,2-0.9,2-2v-22C41,1198.9,40.1,1198,39,1198z"/>
		<path class="st2" d="M66,1211c-2.7,0-5.1,0.9-7,2.5V1200c0-1.1-0.9-2-2-2c-1.1,0-2,0.9-2,2v22c0,0,0,0,0,0c0,1.1,0.9,2,2,2
			c1.1,0,2-0.9,2-2v0c0-3.9,3.1-7,7-7c1.1,0,2-0.9,2-2S67.1,1211,66,1211z"/>
	</g>
	<g>
		<path class="st5" d="M-288,1300l-30,0c-1.1,0-2,0.9-2,2s0.9,2,2,2l30,0c3.9,0,7,3.1,7,7s-3.1,7-7,7c-1.1,0-2,0.9-2,2s0.9,2,2,2
			c6.1,0,11-4.9,11-11S-281.9,1300-288,1300z"/>
		<path class="st5" d="M-294,1306h-24c-1.1,0-2,0.9-2,2s0.9,2,2,2h24c0.6,0,1,0.4,1,1s-0.4,1-1,1c-1.1,0-2,0.9-2,2s0.9,2,2,2
			c2.8,0,5-2.2,5-5S-291.2,1306-294,1306z"/>
		<path class="st5" d="M-273,1292c-1.1,0-2,0.9-2,2s0.9,2,2,2c0.6,0,1,0.4,1,1s-0.4,1-1,1h-4c-1.1,0-2,0.9-2,2s0.9,2,2,2h4
			c2.8,0,5-2.2,5-5S-270.2,1292-273,1292z"/>
		<path class="st5" d="M-318,1298l33,0c4.4,0,8-3.6,8-8s-3.6-8-8-8s-8,3.6-8,8c0,1.1,0.9,2,2,2s2-0.9,2-2c0-2.2,1.8-4,4-4
			c2.2,0,4,1.8,4,4s-1.8,4-4,4l-33,0c-1.1,0-2,0.9-2,2S-319.1,1298-318,1298z"/>
	</g>
	<g>
		<path class="st5" d="M-159,1298c2.2,0,4,1.8,4,4s-1.8,4-4,4h-21c-1.1,0-2,0.9-2,2s0.9,2,2,2h21c4.4,0,8-3.6,8-8s-3.6-8-8-8
			c-1.1,0-2,0.9-2,2S-160.1,1298-159,1298z"/>
		<path class="st4" d="M-162,1312l-30,0l-6,0c-3.9,0-7-3.1-7-7s3.1-7,7-7c0.3,0,0.7,0.1,1.2,0.2v1.8c0,1.1,0.9,2,2,2
			c1.1,0,2-0.9,2-2v-3.2c1.1-6.3,6.4-10.8,12.8-10.8c7.2,0,13,5.8,13,13v1c0,1.1,0.9,2,2,2c1.1,0,2-0.9,2-2v-1c0-9.4-7.6-17-17-17
			c-7.7,0-14.2,5-16.3,12.2c-0.6-0.1-1.2-0.2-1.7-0.2c-6.1,0-11,4.9-11,11s4.9,11,11,11l6,0l30,0c3.9,0,7,3.1,7,7c0,1.1,0.9,2,2,2
			c1.1,0,2-0.9,2-2C-151,1316.9-155.9,1312-162,1312z"/>
		<path class="st5" d="M-162,1318h-36c-1.1,0-2,0.9-2,2s0.9,2,2,2h36c0.6,0,1,0.4,1,1s-0.4,1-1,1c-1.1,0-2,0.9-2,2s0.9,2,2,2
			c2.8,0,5-2.2,5-5S-159.2,1318-162,1318z"/>
		<path class="st5" d="M-148,1304c-1.1,0-2,0.9-2,2s0.9,2,2,2c0.6,0,1,0.4,1,1s-0.4,1-1,1h-4c-1.1,0-2,0.9-2,2s0.9,2,2,2h4
			c2.8,0,5-2.2,5-5S-145.2,1304-148,1304z"/>
	</g>
	<g>
		<path class="st5" d="M-432,1394h42c1.1,0,2-0.9,2-2s-0.9-2-2-2h-42c-1.1,0-2,0.9-2,2S-433.1,1394-432,1394z"/>
		<path class="st5" d="M-390,1398h-39c-1.1,0-2,0.9-2,2s0.9,2,2,2h39c1.1,0,2-0.9,2-2S-388.9,1398-390,1398z"/>
		<path class="st5" d="M-394,1408c0-1.1-0.9-2-2-2h-36c-1.1,0-2,0.9-2,2s0.9,2,2,2h36C-394.9,1410-394,1409.1-394,1408z"/>
		<path class="st5" d="M-390,1414h-33c-1.1,0-2,0.9-2,2s0.9,2,2,2h33c1.1,0,2-0.9,2-2S-388.9,1414-390,1414z"/>
		<path class="st5" d="M-396,1422h-18c-1.1,0-2,0.9-2,2s0.9,2,2,2h18c1.1,0,2-0.9,2-2S-394.9,1422-396,1422z"/>
		<path class="st5" d="M-402,1430h-12c-1.1,0-2,0.9-2,2s0.9,2,2,2h12c1.1,0,2-0.9,2-2S-400.9,1430-402,1430z"/>
		<path class="st5" d="M-408,1438h-6c-1.1,0-2,0.9-2,2s0.9,2,2,2h6c1.1,0,2-0.9,2-2S-406.9,1438-408,1438z"/>
	</g>
	<g>
		<path class="st2" d="M-180,1426c-2.8,0-5,2.2-5,5s2.2,5,5,5c2.8,0,5-2.2,5-5S-177.2,1426-180,1426z M-180,1432c-0.6,0-1-0.4-1-1
			s0.4-1,1-1c0.6,0,1,0.4,1,1S-179.4,1432-180,1432z"/>
		<path class="st2" d="M-172,1423.5l0-25.5c0-4.4-3.6-8-8-8c-4.4,0-8,3.6-8,8l0,25.5c-1.9,2-3,4.7-3,7.5c0,6.1,4.9,11,11,11
			s11-4.9,11-11C-169,1428.2-170.1,1425.5-172,1423.5z M-180,1438c-3.9,0-7-3.1-7-7c0-2,0.8-3.9,2.3-5.2c0.4-0.4,0.7-0.9,0.7-1.5
			l0-26.3c0-2.2,1.8-4,4-4s4,1.8,4,4l0,26.3c0,0.6,0.2,1.1,0.7,1.5c1.5,1.3,2.3,3.2,2.3,5.2C-173,1434.9-176.1,1438-180,1438z"/>
	</g>
	<g>
		<path class="st2" d="M-294,1442c-6.1,0-11-4.9-11-11c0-2.8,1.1-5.5,3-7.5l0-25.5c0-4.4,3.6-8,8-8s8,3.6,8,8l0,25.5
			c1.9,2,3,4.7,3,7.5C-283,1437.1-287.9,1442-294,1442L-294,1442z M-294,1394c-2.2,0-4,1.8-4,4l0,26.3c0,0.6-0.2,1.1-0.7,1.5
			c-1.5,1.3-2.3,3.2-2.3,5.2c0,3.9,3.1,7,7,7s7-3.1,7-7c0-2-0.8-3.9-2.3-5.2c-0.4-0.4-0.7-0.9-0.7-1.5l0-26.3
			C-290,1395.8-291.8,1394-294,1394L-294,1394z"/>
	</g>
	<g>
		<path class="st5" d="M-64,1426.4V1415c0-1.1-0.9-2-2-2c-1.1,0-2,0.9-2,2v11.4c-1.8,0.8-3,2.5-3,4.6c0,2.8,2.2,5,5,5
			c2.8,0,5-2.2,5-5C-61,1429-62.2,1427.2-64,1426.4z M-66,1432c-0.6,0-1-0.4-1-1s0.4-1,1-1c0.6,0,1,0.4,1,1S-65.4,1432-66,1432z"/>
		<path class="st5" d="M-58,1423.5l0-25.5c0-4.4-3.6-8-8-8c-4.4,0-8,3.6-8,8l0,25.5c-1.9,2-3,4.7-3,7.5c0,6.1,4.9,11,11,11
			c6.1,0,11-4.9,11-11C-55,1428.2-56.1,1425.5-58,1423.5z M-66,1438c-3.9,0-7-3.1-7-7c0-2,0.8-3.9,2.3-5.2c0.4-0.4,0.7-0.9,0.7-1.5
			l0-26.3c0-2.2,1.8-4,4-4c2.2,0,4,1.8,4,4l0,26.3c0,0.6,0.2,1.1,0.7,1.5c1.5,1.3,2.3,3.2,2.3,5.2C-59,1434.9-62.1,1438-66,1438z"/>
	</g>
	<g>
		<path class="st6" d="M50,1426.4V1398c0-1.1-0.9-2-2-2c-1.1,0-2,0.9-2,2v28.4c-1.8,0.8-3,2.5-3,4.6c0,2.8,2.2,5,5,5
			c2.8,0,5-2.2,5-5C53,1429,51.8,1427.2,50,1426.4z M48,1432c-0.6,0-1-0.4-1-1s0.4-1,1-1c0.6,0,1,0.4,1,1S48.6,1432,48,1432z"/>
		<path class="st6" d="M56,1423.5l0-25.5c0-4.4-3.6-8-8-8c-4.4,0-8,3.6-8,8l0,25.5c-1.9,2-3,4.7-3,7.5c0,6.1,4.9,11,11,11
			c6.1,0,11-4.9,11-11C59,1428.2,57.9,1425.5,56,1423.5z M48,1438c-3.9,0-7-3.1-7-7c0-2,0.8-3.9,2.3-5.2c0.4-0.4,0.7-0.9,0.7-1.5
			l0-26.3c0-2.2,1.8-4,4-4c2.2,0,4,1.8,4,4l0,26.3c0,0.6,0.2,1.1,0.7,1.5c1.5,1.3,2.3,3.2,2.3,5.2C55,1434.9,51.9,1438,48,1438z"/>
	</g>
	<path d="M80,270.9c0-0.1,0-0.1,0-0.2c0-0.1,0-0.1,0-0.2c0-0.1,0-0.1-0.1-0.2c0-0.1,0-0.1-0.1-0.2c0,0,0,0,0-0.1c0,0,0-0.1-0.1-0.1
		c0-0.1-0.1-0.1-0.1-0.2c0-0.1-0.1-0.1-0.1-0.2c0,0-0.1-0.1-0.1-0.1c-0.1,0-0.1-0.1-0.2-0.1c0,0-0.1-0.1-0.1-0.1
		c-0.1,0-0.1-0.1-0.2-0.1c-0.1,0-0.1-0.1-0.2-0.1c-0.1,0-0.1,0-0.2-0.1c-0.1,0-0.1,0-0.2,0c-0.1,0-0.2,0-0.2,0c0,0-0.1,0-0.1,0h-4
		c0-2.8-2.2-5-5-5H55c-1.4,0-2.7,0.6-3.6,1.5c-0.3,0.3-0.5,0.7-0.7,1c-0.8-0.4-1.7-0.6-2.7-0.6c-0.9,0-1.8,0.2-2.7,0.6
		c-0.2-0.4-0.4-0.7-0.7-1c-0.9-1-2.2-1.5-3.6-1.5H27c-2.8,0-5,2.2-5,5h-4c0,0-0.1,0-0.1,0c-0.1,0-0.1,0-0.2,0c-0.1,0-0.1,0-0.2,0
		c-0.1,0-0.1,0-0.2,0.1c-0.1,0-0.1,0.1-0.2,0.1c-0.1,0-0.1,0.1-0.2,0.1c-0.1,0-0.1,0.1-0.2,0.1c-0.1,0-0.1,0.1-0.2,0.1
		c0,0-0.1,0.1-0.1,0.1c0,0-0.1,0.1-0.1,0.1c0,0.1-0.1,0.1-0.1,0.2c0,0,0,0.1-0.1,0.1c0,0,0,0,0,0.1c0,0.1-0.1,0.1-0.1,0.2
		c0,0.1,0,0.1-0.1,0.2c0,0.1,0,0.1,0,0.2c0,0.1,0,0.1,0,0.2c0,0,0,0,0,0.1c0,0,0,0.1,0,0.1c0,0.1,0,0.1,0,0.2c0,0.1,0,0.1,0,0.2
		c0,0.1,0,0.1,0.1,0.2c0,0.1,0,0.1,0.1,0.2c0,0.1,0.1,0.1,0.1,0.2c0,0.1,0.1,0.1,0.1,0.2c0,0.1,0.1,0.1,0.1,0.2c0,0,0.1,0.1,0.1,0.1
		c0,0,0.1,0.1,0.1,0.1c0.1,0,0.1,0.1,0.2,0.1c0,0,0.1,0,0.1,0.1l4.9,2.5c0.1,6,5,10.8,11,10.8c5,0,11-2.5,12.6-13.6
		c0-0.1,0-0.1,0-0.2c0-0.2,0.1-0.4,0.1-0.7C46,270.7,47,270,48,270c1,0,2,0.7,2.3,1.6c0,0.2,0.1,0.5,0.1,0.7c0,0.1,0,0.1,0,0.2
		C52,283.5,58,286,63,286c6,0,10.9-4.8,11-10.8l4.9-2.5c0,0,0.1,0,0.1-0.1c0.1,0,0.1-0.1,0.2-0.1c0.1,0,0.1-0.1,0.2-0.1
		c0,0,0.1-0.1,0.1-0.1c0-0.1,0.1-0.1,0.1-0.2c0,0,0.1-0.1,0.1-0.1c0-0.1,0.1-0.1,0.1-0.2c0-0.1,0.1-0.1,0.1-0.2c0-0.1,0-0.1,0.1-0.2
		c0-0.1,0-0.1,0-0.2c0-0.1,0-0.1,0-0.2C80,271.1,80,271,80,270.9C80,271,80,271,80,270.9z M34.4,271.4l-5,5
		c-0.4,0.4-0.9,0.6-1.4,0.6c-0.5,0-1-0.2-1.4-0.6c-0.8-0.8-0.8-2,0-2.8l5-5c0.8-0.8,2-0.8,2.8,0C35.2,269.4,35.2,270.6,34.4,271.4z
		 M63.4,271.4l-5,5c-0.4,0.4-0.9,0.6-1.4,0.6c-0.5,0-1-0.2-1.4-0.6c-0.8-0.8-0.8-2,0-2.8l5-5c0.8-0.8,2-0.8,2.8,0
		C64.2,269.4,64.2,270.6,63.4,271.4z"/>
	<path class="st5" d="M-377.5,1513.1l-24-6c0,0-0.1,0-0.1,0c-0.1,0-0.2,0-0.3,0c-0.1,0-0.1,0-0.1,0c-0.1,0-0.2,0-0.3,0
		c0,0-0.1,0-0.1,0c-0.1,0-0.3,0.1-0.4,0.1c0,0,0,0,0,0c-0.1,0.1-0.2,0.1-0.4,0.2l-8.8,6.6v-6.4c1.8-0.8,3-2.5,3-4.6c0-2.8-2.2-5-5-5
		s-5,2.2-5,5c0,2,1.2,3.8,3,4.6v50.4h-22c-1.1,0-2,0.9-2,2s0.9,2,2,2h48c1.1,0,2-0.9,2-2s-0.9-2-2-2h-22v-36l8.8,6.6
		c0.1,0.1,0.2,0.1,0.3,0.2c0.1,0,0.1,0.1,0.2,0.1c0.2,0.1,0.4,0.1,0.6,0.1c0,0,0,0,0,0h0c0,0,0,0,0,0c0.2,0,0.3,0,0.4-0.1
		c0,0,0,0,0,0l24-6c0.9-0.2,1.5-1,1.5-1.9v-6C-376,1514.1-376.6,1513.3-377.5,1513.1z M-404,1523l-6.7-5l6.7-5V1523z M-414,1502
		c0.6,0,1,0.4,1,1s-0.4,1-1,1s-1-0.4-1-1S-414.6,1502-414,1502z M-400,1511.6l8,2v8.9l-8,2V1511.6z M-380,1519.4l-8,2v-6.9l8,2
		V1519.4z"/>
	<path class="st2" d="M-153,1543.3l-6.2-3.6l3.5-0.9c1.1-0.3,1.7-1.4,1.4-2.4c-0.3-1.1-1.4-1.7-2.4-1.4l-7.4,2l-5.5-3.2l6.5-1.8
		c0.8-0.2,1.4-0.9,1.5-1.8c0.1-0.9-0.4-1.6-1.2-2l-5.8-2.4l4.5-2.6l7.4,2c0.2,0,0.3,0.1,0.5,0.1c0.9,0,1.7-0.6,1.9-1.5
		c0.3-1.1-0.3-2.2-1.4-2.4l-3.5-0.9l6.2-3.6c1-0.6,1.3-1.8,0.7-2.7c-0.6-1-1.8-1.3-2.7-0.7l-6.2,3.6l0.9-3.5
		c0.3-1.1-0.3-2.2-1.4-2.4c-1.1-0.3-2.2,0.3-2.4,1.4l-2,7.4l-4.5,2.6l0.8-6.2c0.1-0.8-0.3-1.6-1-2c-0.7-0.4-1.6-0.3-2.2,0.1l-5,3.8
		v-5.2l5.4-5.4c0.8-0.8,0.8-2,0-2.8c-0.8-0.8-2-0.8-2.8,0l-2.6,2.6v-7.2c0-1.1-0.9-2-2-2c-1.1,0-2,0.9-2,2v7.2l-2.6-2.6
		c-0.8-0.8-2-0.8-2.8,0c-0.8,0.8-0.8,2,0,2.8l5.4,5.4v5.2l-5-3.8c-0.7-0.5-1.6-0.5-2.3-0.1c-0.7,0.5-1,1.4-0.8,2.2l1.8,6.5l-5.5-3.2
		l-2-7.4c-0.3-1.1-1.4-1.7-2.4-1.4c-1.1,0.3-1.7,1.4-1.4,2.4l0.9,3.5l-6.2-3.6c-1-0.6-2.2-0.2-2.7,0.7c-0.6,1-0.2,2.2,0.7,2.7
		l6.2,3.6l-3.5,0.9c-1.1,0.3-1.7,1.4-1.4,2.4c0.2,0.9,1,1.5,1.9,1.5c0.2,0,0.3,0,0.5-0.1l7.4-2l5.5,3.2l-6.5,1.8
		c-0.8,0.2-1.4,0.9-1.5,1.8c-0.1,0.9,0.4,1.6,1.2,2l5.8,2.4l-4.5,2.6l-7.4-2c-1.1-0.3-2.2,0.3-2.4,1.4c-0.3,1.1,0.3,2.2,1.4,2.4
		l3.5,0.9l-6.2,3.6c-1,0.6-1.3,1.8-0.7,2.7c0.4,0.6,1,1,1.7,1c0.3,0,0.7-0.1,1-0.3l6.2-3.6l-0.9,3.5c-0.3,1.1,0.3,2.2,1.4,2.4
		c0.2,0,0.3,0.1,0.5,0.1c0.9,0,1.7-0.6,1.9-1.5l2-7.4l4.5-2.6l-0.8,6.2c-0.1,0.8,0.3,1.6,1,2c0.7,0.4,1.6,0.3,2.2-0.1l5-3.8v5.2
		l-5.4,5.4c-0.8,0.8-0.8,2,0,2.8c0.8,0.8,2,0.8,2.8,0l2.6-2.6v7.2c0,1.1,0.9,2,2,2c1.1,0,2-0.9,2-2v-7.2l2.6,2.6
		c0.4,0.4,0.9,0.6,1.4,0.6s1-0.2,1.4-0.6c0.8-0.8,0.8-2,0-2.8l-5.4-5.4v-5.2l5,3.8c0.4,0.3,0.8,0.4,1.2,0.4c0.4,0,0.8-0.1,1.1-0.3
		c0.7-0.5,1-1.4,0.8-2.2l-1.8-6.5l5.5,3.2l2,7.4c0.2,0.9,1,1.5,1.9,1.5c0.2,0,0.3,0,0.5-0.1c1.1-0.3,1.7-1.4,1.4-2.4l-0.9-3.5
		l6.2,3.6c0.3,0.2,0.7,0.3,1,0.3c0.7,0,1.4-0.4,1.7-1C-151.7,1545-152.1,1543.8-153,1543.3z M-169.8,1529.6l-4.8,1.3l-1.5-0.9
		l3.1-1.8L-169.8,1529.6z M-174.4,1520.3l-0.6,4.5l-3.1,1.8v-3.5L-174.4,1520.3z M-184.8,1520.9l2.8,2.1v3.5l-1.5-0.9L-184.8,1520.9
		z M-190.3,1530.4l4.8-1.3l1.5,0.9l-3.1,1.8L-190.3,1530.4z M-185.6,1539.7l0.6-4.5l3.1-1.8v3.5L-185.6,1539.7z M-175.2,1539.1
		l-2.8-2.1v-3.5l1.5,0.9L-175.2,1539.1z"/>
	<g>
		<path class="st5" d="M-270,1508c1.1,0,2-0.9,2-2s-0.9-2-2-2c-7,0-12.9,5.2-13.8,12h-2c1-7.9,7.7-14,15.9-14c1.1,0,2-0.9,2-2
			s-0.9-2-2-2c-10.4,0-18.9,7.9-19.9,18h-8.1v-10c0-1.5-0.4-2.9-1.1-4.1l1.5-1.5c0.8-0.8,0.8-2,0-2.8c-0.8-0.8-2-0.8-2.8,0l-1.5,1.5
			c-0.6-0.4-1.3-0.7-2.1-0.9v-2.3c0-1.1-0.9-2-2-2s-2,0.9-2,2v2.3c-0.7,0.2-1.4,0.5-2.1,0.9l-1.5-1.5c-0.8-0.8-2-0.8-2.8,0
			c-0.8,0.8-0.8,2,0,2.8l1.5,1.5c-0.5,0.9-0.9,2-1,3.1h-4.1c-0.9,0-1.7,0.6-1.9,1.5c-0.2,0.9,0.2,1.8,1.1,2.2l4.9,2.4v6.8
			c0,10.4,7.9,18.9,18,19.9v10.1h-17.2l2.6-2.6c0.8-0.8,0.8-2,0-2.8c-0.8-0.8-2-0.8-2.8,0l-6,6c-0.1,0.1-0.2,0.2-0.2,0.3
			c0,0-0.1,0.1-0.1,0.1c0,0.1-0.1,0.1-0.1,0.2c0,0.1,0,0.1-0.1,0.2c0,0.1,0,0.1-0.1,0.2c-0.1,0.3-0.1,0.5,0,0.8c0,0.1,0,0.1,0.1,0.2
			c0,0.1,0,0.1,0.1,0.2c0,0.1,0.1,0.1,0.1,0.2c0,0,0,0.1,0.1,0.1c0.1,0.1,0.2,0.2,0.2,0.3l6,6c0.4,0.4,0.9,0.6,1.4,0.6
			s1-0.2,1.4-0.6c0.8-0.8,0.8-2,0-2.8l-2.6-2.6h17.2v12c0,1.1,0.9,2,2,2s2-0.9,2-2v-12h15.2l5.4,5.4c0.4,0.4,0.9,0.6,1.4,0.6
			s1-0.2,1.4-0.6c0.8-0.8,0.8-2,0-2.8l-4.6-4.6l4.6-4.6c0.8-0.8,0.8-2,0-2.8c-0.8-0.8-2-0.8-2.8,0l-5.4,5.4H-292v-10.1
			c10.1-1,18-9.5,18-19.9c0-2.2,1.8-4,4-4c1.1,0,2-0.9,2-2s-0.9-2-2-2c-3.7,0-6.8,2.6-7.7,6h-2.1C-278.9,1511.4-274.8,1508-270,1508
			z M-290.6,1520c-0.7,1.2-2,2-3.4,2c-1.5,0-2.8-0.8-3.4-2H-290.6z M-278.1,1520c-1,7.9-7.7,14-15.9,14c-8.8,0-16-7.2-16-16v-12
			c0-2.2,1.8-4,4-4s4,1.8,4,4v12c0,0,0,0,0,0c0,4.4,3.6,8,8,8c3.7,0,6.8-2.6,7.7-6H-278.1z"/>
		<circle class="st6" cx="-306" cy="1506" r="2"/>
	</g>
	<g>
		<path class="st1" d="M-408.1,32.7c-8.5,0-15.3,6.9-15.3,15.3s6.9,15.3,15.3,15.3c8.5,0,15.3-6.9,15.3-15.3S-399.6,32.7-408.1,32.7
			z"/>
		<polygon class="st1" points="-408,19 -402.7,28.3 -413.4,28.3 		"/>
		<polygon class="st1" points="-408,77 -413.4,67.7 -402.7,67.7 		"/>
		<polygon class="st1" points="-437.1,48 -427.7,42.7 -427.7,53.4 		"/>
		<polygon class="st1" points="-378.9,48 -388.3,53.4 -388.3,42.7 		"/>
		<polygon class="st1" points="-389.7,29.7 -391.6,35.7 -395.8,31.5 		"/>
		<polygon class="st1" points="-426.4,66.4 -424.6,60.3 -420.4,64.5 		"/>
		<polygon class="st1" points="-426.4,29.7 -420.4,31.5 -424.6,35.7 		"/>
		<polygon class="st1" points="-389.7,66.4 -395.8,64.5 -391.6,60.3 		"/>
	</g>
	<path class="st4" d="M-276,382c-0.5,0-1.1,0.1-1.7,0.2c-2.1-7.2-8.6-12.2-16.3-12.2c-7.7,0-14.2,5-16.3,12.2
		c-0.6-0.1-1.2-0.2-1.7-0.2c-6.1,0-11,4.9-11,11s4.9,11,11,11h36c6.1,0,11-4.9,11-11S-269.9,382-276,382z"/>
	<path class="st4" d="M-162,382c-0.5,0-1.1,0.1-1.7,0.2c-2.1-7.2-8.6-12.2-16.3-12.2c-7.7,0-14.2,5-16.3,12.2
		c-0.6-0.1-1.2-0.2-1.7-0.2c-6.1,0-11,4.9-11,11s4.9,11,11,11h36c6.1,0,11-4.9,11-11S-155.9,382-162,382z"/>
	<g>
		<path class="st2" d="M-75,414c-1.1,0-2,0.9-2,2v4c0,1.1,0.9,2,2,2c1.1,0,2-0.9,2-2v-4C-73,414.9-73.9,414-75,414z"/>
		<path class="st2" d="M-66,420c-1.1,0-2,0.9-2,2v4c0,1.1,0.9,2,2,2c1.1,0,2-0.9,2-2v-4C-64,420.9-64.9,420-66,420z"/>
		<path class="st2" d="M-66,408c-1.1,0-2,0.9-2,2v4c0,1.1,0.9,2,2,2c1.1,0,2-0.9,2-2v-4C-64,408.9-64.9,408-66,408z"/>
		<path class="st2" d="M-57,414c-1.1,0-2,0.9-2,2v4c0,1.1,0.9,2,2,2c1.1,0,2-0.9,2-2v-4C-55,414.9-55.9,414-57,414z"/>
		<path class="st2" d="M-38.3,387.8c-0.3-0.6-0.7-1.2-1.2-1.8c-1.3-1.6-3.2-2.9-5.2-3.5c-1-0.3-2.1-0.5-3.3-0.5
			c-0.5,0-1.1,0.1-1.7,0.2c-0.9-3.1-2.7-5.9-5-7.9c-0.3-0.3-0.7-0.6-1-0.8c-0.7-0.5-1.5-1-2.3-1.4c-2.4-1.3-5.1-2-8-2
			c-7.7,0-14.2,5-16.3,12.2c-0.6-0.1-1.2-0.2-1.7-0.2c-1.1,0-2.2,0.2-3.3,0.5c-2.1,0.6-3.9,1.9-5.2,3.5c-0.4,0.5-0.8,1.1-1.2,1.8
			c-0.8,1.6-1.3,3.3-1.3,5.2s0.5,3.7,1.3,5.2c0.3,0.6,0.7,1.2,1.2,1.8c1.3,1.6,3.2,2.9,5.2,3.5c1,0.3,2.1,0.5,3.3,0.5h7v4
			c0,1.1,0.9,2,2,2c1.1,0,2-0.9,2-2v-4h14v4c0,1.1,0.9,2,2,2c1.1,0,2-0.9,2-2v-4h7c1.1,0,2.2-0.2,3.3-0.5c2.1-0.6,3.9-1.9,5.2-3.5
			c0.4-0.5,0.8-1.1,1.2-1.8c0.8-1.6,1.3-3.3,1.3-5.2S-37.5,389.3-38.3,387.8z"/>
	</g>
	<g>
		<path class="st2" d="M39,414c-1.1,0-2,0.9-2,2v4c0,1.1,0.9,2,2,2c1.1,0,2-0.9,2-2v-4C41,414.9,40.1,414,39,414z"/>
		<path class="st2" d="M48,420c-1.1,0-2,0.9-2,2v4c0,1.1,0.9,2,2,2c1.1,0,2-0.9,2-2v-4C50,420.9,49.1,420,48,420z"/>
		<path class="st2" d="M48,408c-1.1,0-2,0.9-2,2v4c0,1.1,0.9,2,2,2c1.1,0,2-0.9,2-2v-4C50,408.9,49.1,408,48,408z"/>
		<path class="st2" d="M57,414c-1.1,0-2,0.9-2,2v4c0,1.1,0.9,2,2,2c1.1,0,2-0.9,2-2v-4C59,414.9,58.1,414,57,414z"/>
		<path class="st2" d="M75.7,387.8c-0.3-0.6-0.7-1.2-1.2-1.8c-1.3-1.6-3.2-2.9-5.2-3.5c-1-0.3-2.1-0.5-3.3-0.5
			c-0.5,0-1.1,0.1-1.7,0.2c-0.9-3.1-2.7-5.9-5-7.9c-0.3-0.3-0.7-0.6-1-0.8c-0.7-0.5-1.5-1-2.3-1.4c-2.4-1.3-5.1-2-8-2
			c-7.7,0-14.2,5-16.3,12.2c-0.6-0.1-1.2-0.2-1.7-0.2c-1.1,0-2.2,0.2-3.3,0.5c-2.1,0.6-3.9,1.9-5.2,3.5c-0.4,0.5-0.8,1.1-1.2,1.8
			c-0.8,1.6-1.3,3.3-1.3,5.2s0.5,3.7,1.3,5.2c0.3,0.6,0.7,1.2,1.2,1.8c1.3,1.6,3.2,2.9,5.2,3.5c1,0.3,2.1,0.5,3.3,0.5h7v4
			c0,1.1,0.9,2,2,2c1.1,0,2-0.9,2-2v-4h14v4c0,1.1,0.9,2,2,2c1.1,0,2-0.9,2-2v-4h7c1.1,0,2.2-0.2,3.3-0.5c2.1-0.6,3.9-1.9,5.2-3.5
			c0.4-0.5,0.8-1.1,1.2-1.8c0.8-1.6,1.3-3.3,1.3-5.2S76.5,389.3,75.7,387.8z"/>
	</g>
	<g>
		<path class="st2" d="M-417,528c-1.1,0-2,0.9-2,2v4c0,1.1,0.9,2,2,2s2-0.9,2-2v-4C-415,528.9-415.9,528-417,528z"/>
		<path class="st2" d="M-408,534c-1.1,0-2,0.9-2,2v4c0,1.1,0.9,2,2,2s2-0.9,2-2v-4C-406,534.9-406.9,534-408,534z"/>
		<path class="st2" d="M-408,522c-1.1,0-2,0.9-2,2v4c0,1.1,0.9,2,2,2s2-0.9,2-2v-4C-406,522.9-406.9,522-408,522z"/>
		<path class="st2" d="M-399,528c-1.1,0-2,0.9-2,2v4c0,1.1,0.9,2,2,2s2-0.9,2-2v-4C-397,528.9-397.9,528-399,528z"/>
		<path class="st2" d="M-380.3,501.8c-0.3-0.6-0.7-1.2-1.2-1.8c-1.3-1.6-3.2-2.9-5.2-3.5c-1-0.3-2.1-0.5-3.3-0.5
			c-0.5,0-1.1,0.1-1.7,0.2c-0.9-3.1-2.7-5.9-5-7.9c-0.3-0.3-0.7-0.6-1-0.8c-0.7-0.5-1.5-1-2.3-1.4c-2.4-1.3-5.1-2-8-2
			c-7.7,0-14.2,5-16.3,12.2c-0.6-0.1-1.2-0.2-1.7-0.2c-1.1,0-2.2,0.2-3.3,0.5c-2.1,0.6-3.9,1.9-5.2,3.5c-0.4,0.5-0.8,1.1-1.2,1.8
			c-0.8,1.6-1.3,3.3-1.3,5.2s0.5,3.7,1.3,5.2c0.3,0.6,0.7,1.2,1.2,1.8c1.3,1.6,3.2,2.9,5.2,3.5c1,0.3,2.1,0.5,3.3,0.5h7v4
			c0,1.1,0.9,2,2,2s2-0.9,2-2v-4h14v4c0,1.1,0.9,2,2,2s2-0.9,2-2v-4h7c1.1,0,2.2-0.2,3.3-0.5c2.1-0.6,3.9-1.9,5.2-3.5
			c0.4-0.5,0.8-1.1,1.2-1.8c0.8-1.6,1.3-3.3,1.3-5.2S-379.5,503.3-380.3,501.8z"/>
	</g>
	<g>
		<path class="st2" d="M-294,520c-1.1,0-2,0.9-2,2v18c0,1.1,0.9,2,2,2s2-0.9,2-2v-18C-292,520.9-292.9,520-294,520z"/>
		<path class="st2" d="M-266.3,501.8c-0.3-0.6-0.7-1.2-1.2-1.8c-1.3-1.6-3.2-2.9-5.2-3.5c-1-0.3-2.1-0.5-3.3-0.5
			c-0.5,0-1.1,0.1-1.7,0.2c-2.1-7.2-8.6-12.2-16.3-12.2c-7.7,0-14.2,5-16.3,12.2c-0.6-0.1-1.2-0.2-1.7-0.2c-1.1,0-2.2,0.2-3.3,0.5
			c-2.1,0.6-3.9,1.9-5.2,3.5c-0.4,0.5-0.8,1.1-1.2,1.8c-0.8,1.6-1.3,3.3-1.3,5.2s0.5,3.7,1.3,5.2c0.3,0.6,0.7,1.2,1.2,1.8
			c1.3,1.6,3.2,2.9,5.2,3.5c1,0.3,2.1,0.5,3.3,0.5h7v16c0,1.1,0.9,2,2,2s2-0.9,2-2v-16h14v16c0,1.1,0.9,2,2,2s2-0.9,2-2v-16h7
			c1.1,0,2.2-0.2,3.3-0.5c2.1-0.6,3.9-1.9,5.2-3.5c0.4-0.5,0.8-1.1,1.2-1.8c0.8-1.6,1.3-3.3,1.3-5.2S-265.5,503.3-266.3,501.8z"/>
	</g>
	<g>
		<path class="st2" d="M-66,520c-1.1,0-2,0.9-2,2v18c0,1.1,0.9,2,2,2c1.1,0,2-0.9,2-2v-18C-64,520.9-64.9,520-66,520z"/>
		<path class="st2" d="M-38.3,501.8c-0.3-0.6-0.7-1.2-1.2-1.8c-1.3-1.6-3.2-2.9-5.2-3.5c-1-0.3-2.1-0.5-3.3-0.5
			c-0.5,0-1.1,0.1-1.7,0.2C-51.8,489-58.3,484-66,484c-7.7,0-14.2,5-16.3,12.2c-0.6-0.1-1.2-0.2-1.7-0.2c-1.1,0-2.2,0.2-3.3,0.5
			c-2.1,0.6-3.9,1.9-5.2,3.5c-0.4,0.5-0.8,1.1-1.2,1.8c-0.8,1.6-1.3,3.3-1.3,5.2s0.5,3.7,1.3,5.2c0.3,0.6,0.7,1.2,1.2,1.8
			c1.3,1.6,3.2,2.9,5.2,3.5c1,0.3,2.1,0.5,3.3,0.5h7v16c0,1.1,0.9,2,2,2c1.1,0,2-0.9,2-2v-16h14v16c0,1.1,0.9,2,2,2c1.1,0,2-0.9,2-2
			v-16h7c1.1,0,2.2-0.2,3.3-0.5c2.1-0.6,3.9-1.9,5.2-3.5c0.4-0.5,0.8-1.1,1.2-1.8c0.8-1.6,1.3-3.3,1.3-5.2S-37.5,503.3-38.3,501.8z"
			/>
	</g>
	<g>
		<circle class="st2" cx="39" cy="522" r="2"/>
		<circle class="st2" cx="57" cy="522" r="2"/>
		<circle class="st2" cx="48" cy="528" r="2"/>
		<circle class="st2" cx="57" cy="534" r="2"/>
		<circle class="st2" cx="48" cy="540" r="2"/>
		<circle class="st2" cx="39" cy="534" r="2"/>
		<path class="st2" d="M75.7,501.8c-0.3-0.6-0.7-1.2-1.2-1.8c-1.3-1.6-3.2-2.9-5.2-3.5c-1-0.3-2.1-0.5-3.3-0.5c-0.3,0-0.5,0-0.8,0.1
			c-0.3,0-0.6,0.1-0.9,0.1c-0.9-3.1-2.7-5.9-5-7.9c-0.3-0.3-0.7-0.6-1-0.8c-0.7-0.5-1.5-1-2.3-1.4c-2.4-1.3-5.1-2-8-2
			c-7.7,0-14.2,5-16.3,12.2c-0.1,0-0.1,0-0.2,0c-0.5-0.1-1-0.2-1.5-0.2c-1.1,0-2.2,0.2-3.3,0.5c-2.1,0.6-3.9,1.9-5.2,3.5
			c-0.4,0.5-0.8,1.1-1.2,1.8c-0.8,1.6-1.3,3.3-1.3,5.2s0.5,3.7,1.3,5.2c0.3,0.6,0.7,1.2,1.2,1.8c1.3,1.6,3.2,2.9,5.2,3.5
			c1,0.3,2.1,0.5,3.3,0.5h36c1.1,0,2.2-0.2,3.3-0.5c2.1-0.6,3.9-1.9,5.2-3.5c0.4-0.5,0.8-1.1,1.2-1.8c0.8-1.6,1.3-3.3,1.3-5.2
			S76.5,503.3,75.7,501.8z"/>
	</g>
	<g>
		<circle class="st2" cx="-417" cy="636" r="2"/>
		<circle class="st2" cx="-399" cy="636" r="2"/>
		<circle class="st2" cx="-408" cy="642" r="2"/>
		<circle class="st2" cx="-399" cy="648" r="2"/>
		<circle class="st2" cx="-408" cy="654" r="2"/>
		<circle class="st2" cx="-417" cy="648" r="2"/>
		<path class="st2" d="M-380.3,615.8c-0.3-0.6-0.7-1.2-1.2-1.8c-1.3-1.6-3.2-2.9-5.2-3.5c-1-0.3-2.1-0.5-3.3-0.5
			c-0.3,0-0.5,0-0.8,0.1c-0.3,0-0.6,0.1-0.9,0.1c-0.9-3.1-2.7-5.9-5-7.9c-0.3-0.3-0.7-0.6-1-0.8c-0.7-0.5-1.5-1-2.3-1.4
			c-2.4-1.3-5.1-2-8-2c-7.7,0-14.2,5-16.3,12.2c-0.1,0-0.1,0-0.2,0c-0.5-0.1-1-0.2-1.5-0.2c-1.1,0-2.2,0.2-3.3,0.5
			c-2.1,0.6-3.9,1.9-5.2,3.5c-0.4,0.5-0.8,1.1-1.2,1.8c-0.8,1.6-1.3,3.3-1.3,5.2s0.5,3.7,1.3,5.2c0.3,0.6,0.7,1.2,1.2,1.8
			c1.3,1.6,3.2,2.9,5.2,3.5c1,0.3,2.1,0.5,3.3,0.5h36c1.1,0,2.2-0.2,3.3-0.5c2.1-0.6,3.9-1.9,5.2-3.5c0.4-0.5,0.8-1.1,1.2-1.8
			c0.8-1.6,1.3-3.3,1.3-5.2S-379.5,617.3-380.3,615.8z"/>
	</g>
	<g>
		<circle class="st2" cx="-303" cy="636" r="2"/>
		<circle class="st2" cx="-285" cy="636" r="2"/>
		<circle class="st2" cx="-294" cy="642" r="2"/>
		<circle class="st2" cx="-285" cy="648" r="2"/>
		<circle class="st2" cx="-294" cy="654" r="2"/>
		<circle class="st2" cx="-303" cy="648" r="2"/>
		<path class="st2" d="M-266.3,615.8c-0.3-0.6-0.7-1.2-1.2-1.8c-1.3-1.6-3.2-2.9-5.2-3.5c-1-0.3-2.1-0.5-3.3-0.5
			c-0.3,0-0.5,0-0.8,0.1c-0.3,0-0.6,0.1-0.9,0.1c-0.9-3.1-2.7-5.9-5-7.9c-0.3-0.3-0.7-0.6-1-0.8c-0.7-0.5-1.5-1-2.3-1.4
			c-2.4-1.3-5.1-2-8-2c-7.7,0-14.2,5-16.3,12.2c-0.1,0-0.1,0-0.2,0c-0.5-0.1-1-0.2-1.5-0.2c-1.1,0-2.2,0.2-3.3,0.5
			c-2.1,0.6-3.9,1.9-5.2,3.5c-0.4,0.5-0.8,1.1-1.2,1.8c-0.8,1.6-1.3,3.3-1.3,5.2s0.5,3.7,1.3,5.2c0.3,0.6,0.7,1.2,1.2,1.8
			c1.3,1.6,3.2,2.9,5.2,3.5c1,0.3,2.1,0.5,3.3,0.5h36c1.1,0,2.2-0.2,3.3-0.5c2.1-0.6,3.9-1.9,5.2-3.5c0.4-0.5,0.8-1.1,1.2-1.8
			c0.8-1.6,1.3-3.3,1.3-5.2S-265.5,617.3-266.3,615.8z"/>
	</g>
	<path class="st4" d="M-162,610c-0.5,0-1.1,0.1-1.7,0.2c-2.1-7.2-8.6-12.2-16.3-12.2c-7.7,0-14.2,5-16.3,12.2
		c-0.6-0.1-1.2-0.2-1.7-0.2c-6.1,0-11,4.9-11,11s4.9,11,11,11h36c6.1,0,11-4.9,11-11S-155.9,610-162,610z"/>
	<path class="st4" d="M-48,610c-0.5,0-1.1,0.1-1.7,0.2C-51.8,603-58.3,598-66,598c-7.7,0-14.2,5-16.3,12.2c-0.6-0.1-1.2-0.2-1.7-0.2
		c-6.1,0-11,4.9-11,11s4.9,11,11,11h36c6.1,0,11-4.9,11-11S-41.9,610-48,610z"/>
	<path class="st1" d="M66,610c-0.5,0-1.1,0.1-1.7,0.2C62.2,603,55.7,598,48,598c-7.7,0-14.2,5-16.3,12.2c-0.6-0.1-1.2-0.2-1.7-0.2
		c-6.1,0-11,4.9-11,11s4.9,11,11,11h11.3l-3.9,5.9c-0.4,0.6-0.4,1.4-0.1,2.1c0.3,0.7,1,1.1,1.8,1.1h2.3l-3.9,5.9
		c-0.6,0.9-0.4,2.2,0.6,2.8c0.3,0.2,0.7,0.3,1.1,0.3c0.6,0,1.3-0.3,1.7-0.9l6-9c0.4-0.6,0.4-1.4,0.1-2.1c-0.3-0.7-1-1.1-1.8-1.1
		h-2.3l3.3-5h5.2l-1.9,2.9c-0.4,0.6-0.4,1.4-0.1,2.1c0.3,0.7,1,1.1,1.8,1.1h2.3l-1.9,2.9c-0.6,0.9-0.4,2.2,0.6,2.8
		c0.3,0.2,0.7,0.3,1.1,0.3c0.6,0,1.3-0.3,1.7-0.9l4-6c0.4-0.6,0.4-1.4,0.1-2.1c-0.3-0.7-1-1.1-1.8-1.1h-2.3l1.3-2H66
		c6.1,0,11-4.9,11-11S72.1,610,66,610z M66,628H30c-3.9,0-7-3.1-7-7s3.1-7,7-7c0.3,0,0.7,0.1,1.2,0.2v1.8c0,1.1,0.9,2,2,2s2-0.9,2-2
		v-3.2c1.1-6.3,6.4-10.8,12.8-10.8c6.4,0,11.7,4.5,12.8,10.8v3.2c0,1.1,0.9,2,2,2s2-0.9,2-2v-1.8c0.5-0.1,0.9-0.2,1.2-0.2
		c3.9,0,7,3.1,7,7S69.9,628,66,628z"/>
	<path class="st4" d="M66,610c-0.5,0-1.1,0.1-1.7,0.2C62.2,603,55.7,598,48,598c-7.7,0-14.2,5-16.3,12.2c-0.6-0.1-1.2-0.2-1.7-0.2
		c-6.1,0-11,4.9-11,11s4.9,11,11,11h36c6.1,0,11-4.9,11-11S72.1,610,66,610z"/>
	<g>
		<path class="st2" d="M-411.3,754.7c-0.6-1-1.8-1.3-2.7-0.7c-1,0.6-1.3,1.8-0.7,2.7l1,1.7c0.4,0.6,1,1,1.7,1c0.3,0,0.7-0.1,1-0.3
			c1-0.6,1.3-1.8,0.7-2.7L-411.3,754.7z"/>
		<path class="st2" d="M-416,753.9c-1-0.6-2.2-0.2-2.7,0.7l-1,1.7c-0.6,1-0.2,2.2,0.7,2.7c0.3,0.2,0.7,0.3,1,0.3
			c0.7,0,1.4-0.4,1.7-1l1-1.7C-414.7,755.7-415,754.5-416,753.9z"/>
		<path class="st2" d="M-417,752.2c0-1.1-0.9-2-2-2h-2c-1.1,0-2,0.9-2,2c0,1.1,0.9,2,2,2h2C-417.9,754.2-417,753.3-417,752.2z"/>
		<path class="st2" d="M-409,750.2h-2c-1.1,0-2,0.9-2,2c0,1.1,0.9,2,2,2h2c1.1,0,2-0.9,2-2C-407,751.1-407.9,750.2-409,750.2z"/>
		<path class="st2" d="M-389,725c-0.5,0-1.1,0.1-1.7,0.2c-2.1-7.2-8.6-12.2-16.3-12.2c-7.7,0-14.2,5-16.3,12.2
			c-0.6-0.1-1.2-0.2-1.7-0.2c-6.1,0-11,4.9-11,11s4.9,11,11,11h5c0,0.3,0.1,0.7,0.3,1l1,1.7c0.4,0.6,1,1,1.7,1c0.3,0,0.7-0.1,1-0.3
			c1-0.6,1.3-1.8,0.7-2.7l-0.4-0.7h1.4l-0.4,0.7c-0.6,1-0.2,2.2,0.7,2.7c0.3,0.2,0.7,0.3,1,0.3c0.7,0,1.4-0.4,1.7-1l1-1.7
			c0.2-0.3,0.3-0.7,0.3-1h21c6.1,0,11-4.9,11-11S-382.9,725-389,725z"/>
		<path class="st2" d="M-394.3,759.7c-0.6-1-1.8-1.3-2.7-0.7c-1,0.6-1.3,1.8-0.7,2.7l1,1.7c0.4,0.6,1,1,1.7,1c0.3,0,0.7-0.1,1-0.3
			c1-0.6,1.3-1.8,0.7-2.7L-394.3,759.7z"/>
		<path class="st2" d="M-399.3,751c-0.6-1-1.8-1.3-2.7-0.7c-1,0.6-1.3,1.8-0.7,2.7l1,1.7c0.4,0.6,1,1,1.7,1c0.3,0,0.7-0.1,1-0.3
			c1-0.6,1.3-1.8,0.7-2.7L-399.3,751z"/>
		<path class="st2" d="M-397,755.5c0.3,0.2,0.7,0.3,1,0.3c0.7,0,1.4-0.4,1.7-1l1-1.7c0.6-1,0.2-2.2-0.7-2.7c-1-0.6-2.2-0.2-2.7,0.7
			l-1,1.7C-398.3,753.7-398,754.9-397,755.5z"/>
		<path class="st2" d="M-399,758.9c-1-0.6-2.2-0.2-2.7,0.7l-1,1.7c-0.6,1-0.2,2.2,0.7,2.7c0.3,0.2,0.7,0.3,1,0.3
			c0.7,0,1.4-0.4,1.7-1l1-1.7C-397.7,760.7-398,759.5-399,758.9z"/>
		<path class="st2" d="M-400,757.2c0-1.1-0.9-2-2-2h-2c-1.1,0-2,0.9-2,2c0,1.1,0.9,2,2,2h2C-400.9,759.2-400,758.3-400,757.2z"/>
		<path class="st2" d="M-392,755.2h-2c-1.1,0-2,0.9-2,2c0,1.1,0.9,2,2,2h2c1.1,0,2-0.9,2-2C-390,756.1-390.9,755.2-392,755.2z"/>
	</g>
	<g>
		<path class="st2" d="M-298.3,753.7c-0.6-1-1.8-1.3-2.7-0.7c-1,0.6-1.3,1.8-0.7,2.7l1,1.7c0.4,0.6,1,1,1.7,1c0.3,0,0.7-0.1,1-0.3
			c1-0.6,1.3-1.8,0.7-2.7L-298.3,753.7z"/>
		<path class="st2" d="M-303,752.9c-1-0.6-2.2-0.2-2.7,0.7l-1,1.7c-0.6,1-0.2,2.2,0.7,2.7c0.3,0.2,0.7,0.3,1,0.3
			c0.7,0,1.4-0.4,1.7-1l1-1.7C-301.7,754.7-302,753.5-303,752.9z"/>
		<path class="st2" d="M-304,751.2c0-1.1-0.9-2-2-2h-2c-1.1,0-2,0.9-2,2c0,1.1,0.9,2,2,2h2C-304.9,753.2-304,752.3-304,751.2z"/>
		<path class="st2" d="M-296,749.2h-2c-1.1,0-2,0.9-2,2c0,1.1,0.9,2,2,2h2c1.1,0,2-0.9,2-2C-294,750.1-294.9,749.2-296,749.2z"/>
		<path class="st2" d="M-276,724c-0.5,0-1.1,0.1-1.7,0.2c-2.1-7.2-8.6-12.2-16.3-12.2c-7.7,0-14.2,5-16.3,12.2
			c-0.6-0.1-1.2-0.2-1.7-0.2c-6.1,0-11,4.9-11,11s4.9,11,11,11h5c0,0.3,0.1,0.7,0.3,1l1,1.7c0.4,0.6,1,1,1.7,1c0.3,0,0.7-0.1,1-0.3
			c1-0.6,1.3-1.8,0.7-2.7l-0.4-0.7h1.4l-0.4,0.7c-0.6,1-0.2,2.2,0.7,2.7c0.3,0.2,0.7,0.3,1,0.3c0.7,0,1.4-0.4,1.7-1l1-1.7
			c0.2-0.3,0.3-0.7,0.3-1h21c6.1,0,11-4.9,11-11S-269.9,724-276,724z"/>
		<path class="st2" d="M-281.3,758.7c-0.6-1-1.8-1.3-2.7-0.7c-1,0.6-1.3,1.8-0.7,2.7l1,1.7c0.4,0.6,1,1,1.7,1c0.3,0,0.7-0.1,1-0.3
			c1-0.6,1.3-1.8,0.7-2.7L-281.3,758.7z"/>
		<path class="st2" d="M-286.3,750c-0.6-1-1.8-1.3-2.7-0.7c-1,0.6-1.3,1.8-0.7,2.7l1,1.7c0.4,0.6,1,1,1.7,1c0.3,0,0.7-0.1,1-0.3
			c1-0.6,1.3-1.8,0.7-2.7L-286.3,750z"/>
		<path class="st2" d="M-284,754.5c0.3,0.2,0.7,0.3,1,0.3c0.7,0,1.4-0.4,1.7-1l1-1.7c0.6-1,0.2-2.2-0.7-2.7c-1-0.6-2.2-0.2-2.7,0.7
			l-1,1.7C-285.3,752.7-285,753.9-284,754.5z"/>
		<path class="st2" d="M-286,757.9c-1-0.6-2.2-0.2-2.7,0.7l-1,1.7c-0.6,1-0.2,2.2,0.7,2.7c0.3,0.2,0.7,0.3,1,0.3
			c0.7,0,1.4-0.4,1.7-1l1-1.7C-284.7,759.7-285,758.5-286,757.9z"/>
		<path class="st2" d="M-287,756.2c0-1.1-0.9-2-2-2h-2c-1.1,0-2,0.9-2,2c0,1.1,0.9,2,2,2h2C-287.9,758.2-287,757.3-287,756.2z"/>
		<path class="st2" d="M-279,754.2h-2c-1.1,0-2,0.9-2,2c0,1.1,0.9,2,2,2h2c1.1,0,2-0.9,2-2C-277,755.1-277.9,754.2-279,754.2z"/>
	</g>
	<g>
		<path class="st2" d="M-184.3,753.7c-0.6-1-1.8-1.3-2.7-0.7c-1,0.6-1.3,1.8-0.7,2.7l1,1.7c0.4,0.6,1,1,1.7,1c0.3,0,0.7-0.1,1-0.3
			c1-0.6,1.3-1.8,0.7-2.7L-184.3,753.7z"/>
		<path class="st2" d="M-189,752.9c-1-0.6-2.2-0.2-2.7,0.7l-1,1.7c-0.6,1-0.2,2.2,0.7,2.7c0.3,0.2,0.7,0.3,1,0.3
			c0.7,0,1.4-0.4,1.7-1l1-1.7C-187.7,754.7-188,753.5-189,752.9z"/>
		<path class="st2" d="M-190,751.2c0-1.1-0.9-2-2-2h-2c-1.1,0-2,0.9-2,2c0,1.1,0.9,2,2,2h2C-190.9,753.2-190,752.3-190,751.2z"/>
		<path class="st2" d="M-182,749.2h-2c-1.1,0-2,0.9-2,2c0,1.1,0.9,2,2,2h2c1.1,0,2-0.9,2-2C-180,750.1-180.9,749.2-182,749.2z"/>
		<path class="st2" d="M-162,724c-0.5,0-1.1,0.1-1.7,0.2c-2.1-7.2-8.6-12.2-16.3-12.2c-7.7,0-14.2,5-16.3,12.2
			c-0.6-0.1-1.2-0.2-1.7-0.2c-6.1,0-11,4.9-11,11s4.9,11,11,11h5c0,0.3,0.1,0.7,0.3,1l1,1.7c0.4,0.6,1,1,1.7,1c0.3,0,0.7-0.1,1-0.3
			c1-0.6,1.3-1.8,0.7-2.7l-0.4-0.7h1.4l-0.4,0.7c-0.6,1-0.2,2.2,0.7,2.7c0.3,0.2,0.7,0.3,1,0.3c0.7,0,1.4-0.4,1.7-1l1-1.7
			c0.2-0.3,0.3-0.7,0.3-1h21c6.1,0,11-4.9,11-11S-155.9,724-162,724z"/>
		<path class="st2" d="M-167.3,758.7c-0.6-1-1.8-1.3-2.7-0.7c-1,0.6-1.3,1.8-0.7,2.7l1,1.7c0.4,0.6,1,1,1.7,1c0.3,0,0.7-0.1,1-0.3
			c1-0.6,1.3-1.8,0.7-2.7L-167.3,758.7z"/>
		<path class="st2" d="M-172.3,750c-0.6-1-1.8-1.3-2.7-0.7c-1,0.6-1.3,1.8-0.7,2.7l1,1.7c0.4,0.6,1,1,1.7,1c0.3,0,0.7-0.1,1-0.3
			c1-0.6,1.3-1.8,0.7-2.7L-172.3,750z"/>
		<path class="st2" d="M-170,754.5c0.3,0.2,0.7,0.3,1,0.3c0.7,0,1.4-0.4,1.7-1l1-1.7c0.6-1,0.2-2.2-0.7-2.7c-1-0.6-2.2-0.2-2.7,0.7
			l-1,1.7C-171.3,752.7-171,753.9-170,754.5z"/>
		<path class="st2" d="M-172,757.9c-1-0.6-2.2-0.2-2.7,0.7l-1,1.7c-0.6,1-0.2,2.2,0.7,2.7c0.3,0.2,0.7,0.3,1,0.3
			c0.7,0,1.4-0.4,1.7-1l1-1.7C-170.7,759.7-171,758.5-172,757.9z"/>
		<path class="st2" d="M-173,756.2c0-1.1-0.9-2-2-2h-2c-1.1,0-2,0.9-2,2c0,1.1,0.9,2,2,2h2C-173.9,758.2-173,757.3-173,756.2z"/>
		<path class="st2" d="M-165,754.2h-2c-1.1,0-2,0.9-2,2c0,1.1,0.9,2,2,2h2c1.1,0,2-0.9,2-2C-163,755.1-163.9,754.2-165,754.2z"/>
	</g>
	<g>
		<path class="st1" d="M-61.4,748.6l-2.6,2.6V746c0-1.1-0.9-2-2-2c-1.1,0-2,0.9-2,2v5.2l-2.6-2.6c-0.8-0.8-2-0.8-2.8,0
			c-0.8,0.8-0.8,2,0,2.8l6,6c0.4,0.4,0.9,0.6,1.4,0.6c0.5,0,1-0.2,1.4-0.6l6-6c0.8-0.8,0.8-2,0-2.8
			C-59.4,747.8-60.6,747.8-61.4,748.6z"/>
		<path class="st1" d="M-56.1,722.1c-1-1-2-1.8-3.2-2.4c-1.6-0.9-3.4-1.4-5.2-1.6c-0.5,0-0.9-0.1-1.4-0.1c-7.7,0-14,6.3-14,14
			c0,1.5,0.3,3.1,0.7,4.5c0.3,0.9,0.7,1.7,1.1,2.5c0.4,0.6,1,1,1.7,1l0,0h20.8c0.2,0,0.4,0,0.5-0.1c0.5-0.1,0.9-0.5,1.2-0.9
			c0.5-0.8,0.8-1.6,1.1-2.5c0.5-1.4,0.7-3,0.7-4.5c0-2.9-0.9-5.6-2.4-7.8C-54.9,723.4-55.5,722.7-56.1,722.1z M-65.8,722
			c-0.5,0-1,0-1.4,0.1h0c0.4-0.1,0.8-0.1,1.2-0.1C-65.9,722-65.9,722-65.8,722z M-75.2,736C-75.2,736-75.2,736-75.2,736
			C-75.2,736-75.1,736-75.2,736L-75.2,736z"/>
	</g>
	<g>
		<path class="st1" d="M49.4,744.6c-0.8-0.8-2-0.8-2.8,0l-6,6c-0.8,0.8-0.8,2,0,2.8c0.8,0.8,2,0.8,2.8,0l2.6-2.6v5.2
			c0,1.1,0.9,2,2,2c1.1,0,2-0.9,2-2v-5.2l2.6,2.6c0.4,0.4,0.9,0.6,1.4,0.6c0.5,0,1-0.2,1.4-0.6c0.8-0.8,0.8-2,0-2.8L49.4,744.6z"/>
		<path class="st1" d="M57.9,722.1c-1-1-2-1.8-3.2-2.4c-1.6-0.9-3.4-1.4-5.2-1.6c-0.5,0-0.9-0.1-1.4-0.1c-7.7,0-14,6.3-14,14
			c0,1.5,0.3,3.1,0.7,4.5c0.3,0.9,0.7,1.7,1.1,2.5c0.4,0.6,1,1,1.7,1l0,0h20.8c0.2,0,0.4,0,0.5-0.1c0.5-0.1,0.9-0.5,1.2-0.9
			c0.5-0.8,0.8-1.6,1.1-2.5c0.5-1.4,0.7-3,0.7-4.5c0-2.9-0.9-5.6-2.4-7.8C59.1,723.4,58.5,722.7,57.9,722.1z M48.2,722
			c-0.5,0-1,0-1.4,0.1h0c0.4-0.1,0.8-0.1,1.2-0.1C48.1,722,48.1,722,48.2,722z M38.8,736C38.8,736,38.8,736,38.8,736
			C38.8,736,38.9,736,38.8,736L38.8,736z"/>
	</g>
	<path class="st2" d="M-390,838c-0.5,0-1.1,0.1-1.7,0.2c-2.1-7.2-8.6-12.2-16.3-12.2c-7.7,0-14.2,5-16.3,12.2
		c-0.6-0.1-1.2-0.2-1.7-0.2c-6.1,0-11,4.9-11,11s4.9,11,11,11h5.4l-2.4,9.5c-0.3,1.1,0.4,2.2,1.5,2.4c0.2,0,0.3,0.1,0.5,0.1
		c0.9,0,1.7-0.6,1.9-1.5l2.6-10.5h5.4l-3.9,15.5c-0.3,1.1,0.4,2.2,1.5,2.4c0.2,0,0.3,0.1,0.5,0.1c0.9,0,1.7-0.6,1.9-1.5l4.1-16.5
		h5.4l-2.4,9.5c-0.3,1.1,0.4,2.2,1.5,2.4c0.2,0,0.3,0.1,0.5,0.1c0.9,0,1.7-0.6,1.9-1.5l2.6-10.5h7.4c6.1,0,11-4.9,11-11
		S-383.9,838-390,838z"/>
	<path class="st2" d="M-276,838c-0.5,0-1.1,0.1-1.7,0.2c-2.1-7.2-8.6-12.2-16.3-12.2c-7.7,0-14.2,5-16.3,12.2
		c-0.6-0.1-1.2-0.2-1.7-0.2c-6.1,0-11,4.9-11,11s4.9,11,11,11h5.4l-2.4,9.5c-0.3,1.1,0.4,2.2,1.5,2.4c0.2,0,0.3,0.1,0.5,0.1
		c0.9,0,1.7-0.6,1.9-1.5l2.6-10.5h5.4l-3.9,15.5c-0.3,1.1,0.4,2.2,1.5,2.4c0.2,0,0.3,0.1,0.5,0.1c0.9,0,1.7-0.6,1.9-1.5l4.1-16.5
		h5.4l-2.4,9.5c-0.3,1.1,0.4,2.2,1.5,2.4c0.2,0,0.3,0.1,0.5,0.1c0.9,0,1.7-0.6,1.9-1.5l2.6-10.5h7.4c6.1,0,11-4.9,11-11
		S-269.9,838-276,838z"/>
	<path class="st2" d="M-162,838c-0.5,0-1.1,0.1-1.7,0.2c-2.1-7.2-8.6-12.2-16.3-12.2c-7.7,0-14.2,5-16.3,12.2
		c-0.6-0.1-1.2-0.2-1.7-0.2c-6.1,0-11,4.9-11,11s4.9,11,11,11h5.4l-2.4,9.5c-0.3,1.1,0.4,2.2,1.5,2.4c0.2,0,0.3,0.1,0.5,0.1
		c0.9,0,1.7-0.6,1.9-1.5l2.6-10.5h5.4l-3.9,15.5c-0.3,1.1,0.4,2.2,1.5,2.4c0.2,0,0.3,0.1,0.5,0.1c0.9,0,1.7-0.6,1.9-1.5l4.1-16.5
		h5.4l-2.4,9.5c-0.3,1.1,0.4,2.2,1.5,2.4c0.2,0,0.3,0.1,0.5,0.1c0.9,0,1.7-0.6,1.9-1.5l2.6-10.5h7.4c6.1,0,11-4.9,11-11
		S-155.9,838-162,838z"/>
	<g>
		<path class="st5" d="M33,836h12c1.1,0,2-0.9,2-2s-0.9-2-2-2H33c-1.1,0-2,0.9-2,2S31.9,836,33,836z"/>
		<path class="st5" d="M21,842h24c1.1,0,2-0.9,2-2s-0.9-2-2-2H21c-1.1,0-2,0.9-2,2S19.9,842,21,842z"/>
		<path class="st5" d="M15,848h24c1.1,0,2-0.9,2-2s-0.9-2-2-2H15c-1.1,0-2,0.9-2,2S13.9,848,15,848z"/>
		<path class="st5" d="M74,852c0-1.1-0.9-2-2-2H12c-1.1,0-2,0.9-2,2s0.9,2,2,2h60C73.1,854,74,853.1,74,852z"/>
		<path class="st5" d="M72,856H15c-1.1,0-2,0.9-2,2s0.9,2,2,2h57c1.1,0,2-0.9,2-2S73.1,856,72,856z"/>
		<path class="st5" d="M33,862l-12,0c-1.1,0-2,0.9-2,2c0,1.1,0.9,2,2,2l12,0c1.1,0,2-0.9,2-2S34.1,862,33,862z"/>
		<path class="st5" d="M52,842h8c1.1,0,2-0.9,2-2s-0.9-2-2-2h-8c-1.1,0-2,0.9-2,2S50.9,842,52,842z"/>
		<path class="st5" d="M43,846c0,1.1,0.9,2,2,2h21c1.1,0,2-0.9,2-2s-0.9-2-2-2H45C43.9,844,43,844.9,43,846z"/>
		<path class="st5" d="M66,862l-27,0c-1.1,0-2,0.9-2,2s0.9,2,2,2l27,0c1.1,0,2-0.9,2-2C68,862.9,67.1,862,66,862z"/>
	</g>
	<path class="st4" d="M-276,952c-0.5,0-1.1,0.1-1.7,0.2c-2.1-7.2-8.6-12.2-16.3-12.2c-7.7,0-14.2,5-16.3,12.2
		c-0.6-0.1-1.2-0.2-1.7-0.2c-6.1,0-11,4.9-11,11s4.9,11,11,11h36c6.1,0,11-4.9,11-11S-269.9,952-276,952z"/>
	<g>
		<path class="st2" d="M-207,965c1.1,0,2-0.9,2-2c0-3.9,3.1-7,7-7c0.3,0,0.7,0.1,1.2,0.2v1.8c0,1.1,0.9,2,2,2c1.1,0,2-0.9,2-2v-3.2
			c1.1-6.3,6.4-10.8,12.8-10.8c6.4,0,11.7,4.5,12.8,10.8v3.2c0,1.1,0.9,2,2,2c1.1,0,2-0.9,2-2v-1.8c0.5-0.1,0.9-0.2,1.2-0.2
			c3.9,0,7,3.1,7,7c0,1.1,0.9,2,2,2c1.1,0,2-0.9,2-2c0-6.1-4.9-11-11-11c-0.5,0-1.1,0.1-1.7,0.2c-2.1-7.2-8.6-12.2-16.3-12.2
			c-7.7,0-14.2,5-16.3,12.2c-0.6-0.1-1.2-0.2-1.7-0.2c-6.1,0-11,4.9-11,11C-209,964.1-208.1,965-207,965z"/>
		<path class="st2" d="M-188,971c0,1.1,0.9,2,2,2h36c1.1,0,2-0.9,2-2s-0.9-2-2-2h-36C-187.1,969-188,969.9-188,971z"/>
		<path class="st2" d="M-180,976c-1.1,0-2,0.9-2,2s0.9,2,2,2h27c1.1,0,2-0.9,2-2s-0.9-2-2-2H-180z"/>
		<path class="st2" d="M-150,983h-24c-1.1,0-2,0.9-2,2s0.9,2,2,2h24c1.1,0,2-0.9,2-2S-148.9,983-150,983z"/>
		<path class="st2" d="M-210,973h18c1.1,0,2-0.9,2-2s-0.9-2-2-2h-18c-1.1,0-2,0.9-2,2S-211.1,973-210,973z"/>
		<path class="st2" d="M-207,976c-1.1,0-2,0.9-2,2s0.9,2,2,2h21c1.1,0,2-0.9,2-2s-0.9-2-2-2H-207z"/>
		<path class="st2" d="M-180,983h-30c-1.1,0-2,0.9-2,2s0.9,2,2,2h30c1.1,0,2-0.9,2-2S-178.9,983-180,983z"/>
	</g>
	<path class="st4" d="M-162,952c-0.5,0-1.1,0.1-1.7,0.2c-2.1-7.2-8.6-12.2-16.3-12.2c-7.7,0-14.2,5-16.3,12.2
		c-0.6-0.1-1.2-0.2-1.7-0.2c-6.1,0-11,4.9-11,11s4.9,11,11,11h36c6.1,0,11-4.9,11-11S-155.9,952-162,952z"/>
	<g>
		<path class="st2" d="M-93,965c1.1,0,2-0.9,2-2c0-3.9,3.1-7,7-7c0.3,0,0.7,0.1,1.2,0.2v1.8c0,1.1,0.9,2,2,2s2-0.9,2-2v-3.2
			c1.1-6.3,6.4-10.8,12.8-10.8c6.4,0,11.7,4.5,12.8,10.8v3.2c0,1.1,0.9,2,2,2s2-0.9,2-2v-1.8c0.5-0.1,0.9-0.2,1.2-0.2
			c3.9,0,7,3.1,7,7c0,1.1,0.9,2,2,2c1.1,0,2-0.9,2-2c0-6.1-4.9-11-11-11c-0.5,0-1.1,0.1-1.7,0.2C-51.8,945-58.3,940-66,940
			c-7.7,0-14.2,5-16.3,12.2c-0.6-0.1-1.2-0.2-1.7-0.2c-6.1,0-11,4.9-11,11C-95,964.1-94.1,965-93,965z"/>
		<path class="st2" d="M-74,971c0,1.1,0.9,2,2,2h36c1.1,0,2-0.9,2-2s-0.9-2-2-2h-36C-73.1,969-74,969.9-74,971z"/>
		<path class="st2" d="M-66,976c-1.1,0-2,0.9-2,2s0.9,2,2,2h27c1.1,0,2-0.9,2-2s-0.9-2-2-2H-66z"/>
		<path class="st2" d="M-36,983h-24c-1.1,0-2,0.9-2,2s0.9,2,2,2h24c1.1,0,2-0.9,2-2S-34.9,983-36,983z"/>
		<path class="st2" d="M-96,973h18c1.1,0,2-0.9,2-2s-0.9-2-2-2h-18c-1.1,0-2,0.9-2,2S-97.1,973-96,973z"/>
		<path class="st2" d="M-93,976c-1.1,0-2,0.9-2,2s0.9,2,2,2h21c1.1,0,2-0.9,2-2s-0.9-2-2-2H-93z"/>
		<path class="st2" d="M-66,983h-30c-1.1,0-2,0.9-2,2s0.9,2,2,2h30c1.1,0,2-0.9,2-2S-64.9,983-66,983z"/>
	</g>
	<path class="st4" d="M-48,952c-0.5,0-1.1,0.1-1.7,0.2C-51.8,945-58.3,940-66,940c-7.7,0-14.2,5-16.3,12.2c-0.6-0.1-1.2-0.2-1.7-0.2
		c-6.1,0-11,4.9-11,11s4.9,11,11,11h36c6.1,0,11-4.9,11-11S-41.9,952-48,952z"/>
	<path class="st4" d="M66,946c-0.5,0-1.1,0.1-1.7,0.2C62.2,939,55.7,934,48,934c-7.7,0-14.2,5-16.3,12.2c-0.6-0.1-1.2-0.2-1.7-0.2
		c-6.1,0-11,4.9-11,11s4.9,11,11,11h36c6.1,0,11-4.9,11-11S72.1,946,66,946z"/>
	<path class="st4" d="M-48,382c-0.5,0-1.1,0.1-1.7,0.2C-51.8,375-58.3,370-66,370c-7.7,0-14.2,5-16.3,12.2c-0.6-0.1-1.2-0.2-1.7-0.2
		c-6.1,0-11,4.9-11,11s4.9,11,11,11h36c6.1,0,11-4.9,11-11S-41.9,382-48,382z"/>
	<path class="st4" d="M66,382c-0.5,0-1.1,0.1-1.7,0.2C62.2,375,55.7,370,48,370c-7.7,0-14.2,5-16.3,12.2c-0.6-0.1-1.2-0.2-1.7-0.2
		c-6.1,0-11,4.9-11,11s4.9,11,11,11h36c6.1,0,11-4.9,11-11S72.1,382,66,382z"/>
	<path class="st4" d="M-390,496c-0.5,0-1.1,0.1-1.7,0.2c-2.1-7.2-8.6-12.2-16.3-12.2c-7.7,0-14.2,5-16.3,12.2
		c-0.6-0.1-1.2-0.2-1.7-0.2c-6.1,0-11,4.9-11,11c0,6.1,4.9,11,11,11h36c6.1,0,11-4.9,11-11C-379,500.9-383.9,496-390,496z"/>
	<path class="st4" d="M-276,496c-0.5,0-1.1,0.1-1.7,0.2c-2.1-7.2-8.6-12.2-16.3-12.2c-7.7,0-14.2,5-16.3,12.2
		c-0.6-0.1-1.2-0.2-1.7-0.2c-6.1,0-11,4.9-11,11c0,6.1,4.9,11,11,11h36c6.1,0,11-4.9,11-11C-265,500.9-269.9,496-276,496z"/>
	<path class="st4" d="M-162,496c-0.5,0-1.1,0.1-1.7,0.2c-2.1-7.2-8.6-12.2-16.3-12.2c-7.7,0-14.2,5-16.3,12.2
		c-0.6-0.1-1.2-0.2-1.7-0.2c-6.1,0-11,4.9-11,11c0,6.1,4.9,11,11,11h36c6.1,0,11-4.9,11-11C-151,500.9-155.9,496-162,496z"/>
	<path class="st4" d="M-48,496c-0.5,0-1.1,0.1-1.7,0.2C-51.8,489-58.3,484-66,484c-7.7,0-14.2,5-16.3,12.2c-0.6-0.1-1.2-0.2-1.7-0.2
		c-6.1,0-11,4.9-11,11c0,6.1,4.9,11,11,11h36c6.1,0,11-4.9,11-11C-37,500.9-41.9,496-48,496z"/>
	<path class="st4" d="M66,496c-0.5,0-1.1,0.1-1.7,0.2C62.2,489,55.7,484,48,484c-7.7,0-14.2,5-16.3,12.2c-0.6-0.1-1.2-0.2-1.7-0.2
		c-6.1,0-11,4.9-11,11c0,6.1,4.9,11,11,11h36c6.1,0,11-4.9,11-11C77,500.9,72.1,496,66,496z"/>
	<path class="st4" d="M-390,610c-0.5,0-1.1,0.1-1.7,0.2c-2.1-7.2-8.6-12.2-16.3-12.2c-7.7,0-14.2,5-16.3,12.2
		c-0.6-0.1-1.2-0.2-1.7-0.2c-6.1,0-11,4.9-11,11s4.9,11,11,11h36c6.1,0,11-4.9,11-11S-383.9,610-390,610z"/>
	<path class="st4" d="M-276,610c-0.5,0-1.1,0.1-1.7,0.2c-2.1-7.2-8.6-12.2-16.3-12.2c-7.7,0-14.2,5-16.3,12.2
		c-0.6-0.1-1.2-0.2-1.7-0.2c-6.1,0-11,4.9-11,11s4.9,11,11,11h36c6.1,0,11-4.9,11-11S-269.9,610-276,610z"/>
	<path class="st4" d="M-389,725c-0.5,0-1.1,0.1-1.7,0.2c-2.1-7.2-8.6-12.2-16.3-12.2c-7.7,0-14.2,5-16.3,12.2
		c-0.6-0.1-1.2-0.2-1.7-0.2c-6.1,0-11,4.9-11,11s4.9,11,11,11h36c6.1,0,11-4.9,11-11S-382.9,725-389,725z"/>
	<path class="st4" d="M-276,724c-0.5,0-1.1,0.1-1.7,0.2c-2.1-7.2-8.6-12.2-16.3-12.2c-7.7,0-14.2,5-16.3,12.2
		c-0.6-0.1-1.2-0.2-1.7-0.2c-6.1,0-11,4.9-11,11s4.9,11,11,11h36c6.1,0,11-4.9,11-11S-269.9,724-276,724z"/>
	<path class="st4" d="M-162,724c-0.5,0-1.1,0.1-1.7,0.2c-2.1-7.2-8.6-12.2-16.3-12.2c-7.7,0-14.2,5-16.3,12.2
		c-0.6-0.1-1.2-0.2-1.7-0.2c-6.1,0-11,4.9-11,11s4.9,11,11,11h36c6.1,0,11-4.9,11-11S-155.9,724-162,724z"/>
	<path class="st4" d="M-390,838c-0.5,0-1.1,0.1-1.7,0.2c-2.1-7.2-8.6-12.2-16.3-12.2c-7.7,0-14.2,5-16.3,12.2
		c-0.6-0.1-1.2-0.2-1.7-0.2c-6.1,0-11,4.9-11,11s4.9,11,11,11h36c6.1,0,11-4.9,11-11S-383.9,838-390,838z"/>
	<path class="st4" d="M-276,838c-0.5,0-1.1,0.1-1.7,0.2c-2.1-7.2-8.6-12.2-16.3-12.2c-7.7,0-14.2,5-16.3,12.2
		c-0.6-0.1-1.2-0.2-1.7-0.2c-6.1,0-11,4.9-11,11s4.9,11,11,11h36c6.1,0,11-4.9,11-11S-269.9,838-276,838z"/>
	<path class="st4" d="M-162,838c-0.5,0-1.1,0.1-1.7,0.2c-2.1-7.2-8.6-12.2-16.3-12.2c-7.7,0-14.2,5-16.3,12.2
		c-0.6-0.1-1.2-0.2-1.7-0.2c-6.1,0-11,4.9-11,11s4.9,11,11,11h36c6.1,0,11-4.9,11-11S-155.9,838-162,838z"/>
	<path class="st4" d="M-390,1066c-0.5,0-1.1,0.1-1.7,0.2c-2.1-7.2-8.6-12.2-16.3-12.2c-7.7,0-14.2,5-16.3,12.2
		c-0.6-0.1-1.2-0.2-1.7-0.2c-6.1,0-11,4.9-11,11s4.9,11,11,11h36c6.1,0,11-4.9,11-11S-383.9,1066-390,1066z"/>
	<path class="st4" d="M-390,1180c-0.5,0-1.1,0.1-1.7,0.2c-2.1-7.2-8.6-12.2-16.3-12.2c-7.7,0-14.2,5-16.3,12.2
		c-0.6-0.1-1.2-0.2-1.7-0.2c-6.1,0-11,4.9-11,11s4.9,11,11,11h36c6.1,0,11-4.9,11-11S-383.9,1180-390,1180z"/>
	<path class="st4" d="M-48,1180c-0.5,0-1.1,0.1-1.7,0.2c-2.1-7.2-8.6-12.2-16.3-12.2c-7.7,0-14.2,5-16.3,12.2
		c-0.6-0.1-1.2-0.2-1.7-0.2c-6.1,0-11,4.9-11,11s4.9,11,11,11h36c6.1,0,11-4.9,11-11S-41.9,1180-48,1180z"/>
	<path class="st4" d="M-161,1293c-0.5,0-1.1,0.1-1.7,0.2c-2.1-7.2-8.6-12.2-16.3-12.2c-7.7,0-14.2,5-16.3,12.2
		c-0.6-0.1-1.2-0.2-1.7-0.2c-6.1,0-11,4.9-11,11s4.9,11,11,11h36c6.1,0,11-4.9,11-11S-154.9,1293-161,1293z"/>
	<g>
		<path class="st5" d="M-45,1298c2.2,0,4,1.8,4,4s-1.8,4-4,4h-21c-1.1,0-2,0.9-2,2s0.9,2,2,2h21c4.4,0,8-3.6,8-8s-3.6-8-8-8
			c-1.1,0-2,0.9-2,2S-46.1,1298-45,1298z"/>
		<path class="st4" d="M-48,1312l-30,0l-6,0c-3.9,0-7-3.1-7-7s3.1-7,7-7c0.3,0,0.7,0.1,1.2,0.2v1.8c0,1.1,0.9,2,2,2s2-0.9,2-2v-3.2
			c1.1-6.3,6.4-10.8,12.8-10.8c7.2,0,13,5.8,13,13v1c0,1.1,0.9,2,2,2c1.1,0,2-0.9,2-2v-1c0-9.4-7.6-17-17-17
			c-7.7,0-14.2,5-16.3,12.2c-0.6-0.1-1.2-0.2-1.7-0.2c-6.1,0-11,4.9-11,11s4.9,11,11,11l6,0l30,0c3.9,0,7,3.1,7,7c0,1.1,0.9,2,2,2
			c1.1,0,2-0.9,2-2C-37,1316.9-41.9,1312-48,1312z"/>
		<path class="st5" d="M-48,1318h-36c-1.1,0-2,0.9-2,2s0.9,2,2,2h36c0.6,0,1,0.4,1,1s-0.4,1-1,1c-1.1,0-2,0.9-2,2s0.9,2,2,2
			c2.8,0,5-2.2,5-5S-45.2,1318-48,1318z"/>
		<path class="st5" d="M-34,1304c-1.1,0-2,0.9-2,2s0.9,2,2,2c0.6,0,1,0.4,1,1s-0.4,1-1,1h-4c-1.1,0-2,0.9-2,2s0.9,2,2,2h4
			c2.8,0,5-2.2,5-5S-31.2,1304-34,1304z"/>
	</g>
	<g>
		<path class="st5" d="M69,1298c2.2,0,4,1.8,4,4s-1.8,4-4,4H48c-1.1,0-2,0.9-2,2s0.9,2,2,2h21c4.4,0,8-3.6,8-8s-3.6-8-8-8
			c-1.1,0-2,0.9-2,2S67.9,1298,69,1298z"/>
		<path class="st4" d="M66,1312l-30,0l-6,0c-3.9,0-7-3.1-7-7s3.1-7,7-7c0.3,0,0.7,0.1,1.2,0.2v1.8c0,1.1,0.9,2,2,2s2-0.9,2-2v-3.2
			c1.1-6.3,6.4-10.8,12.8-10.8c7.2,0,13,5.8,13,13v1c0,1.1,0.9,2,2,2c1.1,0,2-0.9,2-2v-1c0-9.4-7.6-17-17-17
			c-7.7,0-14.2,5-16.3,12.2c-0.6-0.1-1.2-0.2-1.7-0.2c-6.1,0-11,4.9-11,11s4.9,11,11,11l6,0l30,0c3.9,0,7,3.1,7,7c0,1.1,0.9,2,2,2
			c1.1,0,2-0.9,2-2C77,1316.9,72.1,1312,66,1312z"/>
		<path class="st5" d="M66,1318H30c-1.1,0-2,0.9-2,2s0.9,2,2,2h36c0.6,0,1,0.4,1,1s-0.4,1-1,1c-1.1,0-2,0.9-2,2s0.9,2,2,2
			c2.8,0,5-2.2,5-5S68.8,1318,66,1318z"/>
		<path class="st5" d="M80,1304c-1.1,0-2,0.9-2,2s0.9,2,2,2c0.6,0,1,0.4,1,1s-0.4,1-1,1h-4c-1.1,0-2,0.9-2,2s0.9,2,2,2h4
			c2.8,0,5-2.2,5-5S82.8,1304,80,1304z"/>
	</g>
	<path class="st4" d="M-48,1066c-0.5,0-1.1,0.1-1.7,0.2c-2.1-7.2-8.6-12.2-16.3-12.2c-7.7,0-14.2,5-16.3,12.2
		c-0.6-0.1-1.2-0.2-1.7-0.2c-6.1,0-11,4.9-11,11s4.9,11,11,11h36c6.1,0,11-4.9,11-11S-41.9,1066-48,1066z"/>
	<path class="st2" d="M-305.6,1089.8c-0.8,1.1-3.4,4.7-3.4,7.2c0,2.9,2.1,5,5,5s5-2.1,5-5c0-2.5-2.6-6.1-3.4-7.2
		C-303.2,1088.8-304.8,1088.8-305.6,1089.8z"/>
	<path class="st2" d="M-287.6,1089.8c-0.8,1.1-3.4,4.7-3.4,7.2c0,2.9,2.1,5,5,5s5-2.1,5-5c0-2.5-2.6-6.1-3.4-7.2
		C-285.2,1088.8-286.8,1088.8-287.6,1089.8z"/>
	<path class="st2" d="M-296.6,1100.8c-0.8,1.1-3.4,4.7-3.4,7.2c0,2.9,2.1,5,5,5s5-2.1,5-5c0-2.5-2.6-6.1-3.4-7.2
		C-294.2,1099.8-295.8,1099.8-296.6,1100.8z"/>
	<path class="st4" d="M-276,1066c-0.5,0-1.1,0.1-1.7,0.2c-2.1-7.2-8.6-12.2-16.3-12.2c-7.7,0-14.2,5-16.3,12.2
		c-0.6-0.1-1.2-0.2-1.7-0.2c-6.1,0-11,4.9-11,11s4.9,11,11,11h36c6.1,0,11-4.9,11-11S-269.9,1066-276,1066z"/>
	<path class="st2" d="M-419.6,1089.8c-0.8,1.1-3.4,4.7-3.4,7.2c0,2.9,2.1,5,5,5s5-2.1,5-5c0-2.5-2.6-6.1-3.4-7.2
		C-417.2,1088.7-418.8,1088.7-419.6,1089.8z"/>
	<path class="st2" d="M-401.6,1089.8c-0.8,1.1-3.4,4.7-3.4,7.2c0,2.9,2.1,5,5,5s5-2.1,5-5c0-2.5-2.6-6.1-3.4-7.2
		C-399.2,1088.7-400.8,1088.7-401.6,1089.8z"/>
	<path class="st2" d="M-410.6,1100.8c-0.8,1.1-3.4,4.7-3.4,7.2c0,2.9,2.1,5,5,5s5-2.1,5-5c0-2.5-2.6-6.1-3.4-7.2
		C-408.2,1099.7-409.8,1099.7-410.6,1100.8z"/>
	<path class="st2" d="M-177.3,1089.6c-0.7-0.8-2.1-0.8-2.8,0c-0.6,0.7-5.9,7-5.9,12.1c0,1.9,0.6,3.6,1.8,5c0.9,1.1,2.6,2.3,5.5,2.3
		c4.8,0,7.3-3.7,7.3-7.3C-171.5,1096.6-176.7,1090.3-177.3,1089.6z M-178.7,1106.3L-178.7,1106.3l0,0.9L-178.7,1106.3z"/>
	<path class="st4" d="M-162,1066c-0.5,0-1.1,0.1-1.7,0.2c-2.1-7.2-8.6-12.2-16.3-12.2c-7.7,0-14.2,5-16.3,12.2
		c-0.6-0.1-1.2-0.2-1.7-0.2c-6.1,0-11,4.9-11,11s4.9,11,11,11h36c6.1,0,11-4.9,11-11S-155.9,1066-162,1066z"/>
	<path class="st2" d="M-62.9,1089.6c-0.7-0.8-2.1-0.8-2.8,0c-0.6,0.7-5.9,7-5.9,12.1c0,1.9,0.6,3.6,1.8,5c0.9,1.1,2.6,2.3,5.5,2.3
		c4.8,0,7.3-3.7,7.3-7.3C-57,1096.7-62.3,1090.3-62.9,1089.6z M-64.3,1106.3L-64.3,1106.3l0,0.9L-64.3,1106.3z"/>
	<path class="st4" d="M-162,1180c-0.5,0-1.1,0.1-1.7,0.2c-2.1-7.2-8.6-12.2-16.3-12.2c-7.7,0-14.2,5-16.3,12.2
		c-0.6-0.1-1.2-0.2-1.7-0.2c-6.1,0-11,4.9-11,11s4.9,11,11,11h36c6.1,0,11-4.9,11-11S-155.9,1180-162,1180z"/>
	<path class="st4" d="M-276,1180c-0.5,0-1.1,0.1-1.7,0.2c-2.1-7.2-8.6-12.2-16.3-12.2c-7.7,0-14.2,5-16.3,12.2
		c-0.6-0.1-1.2-0.2-1.7-0.2c-6.1,0-11,4.9-11,11s4.9,11,11,11h36c6.1,0,11-4.9,11-11S-269.9,1180-276,1180z"/>
	<path class="st4" d="M66,1180c-0.5,0-1.1,0.1-1.7,0.2c-2.1-7.2-8.6-12.2-16.3-12.2c-7.7,0-14.2,5-16.3,12.2
		c-0.6-0.1-1.2-0.2-1.7-0.2c-6.1,0-11,4.9-11,11s4.9,11,11,11h36c6.1,0,11-4.9,11-11S72.1,1180,66,1180z"/>
	<path class="st4" d="M66,1066c-0.5,0-1.1,0.1-1.7,0.2c-2.1-7.2-8.6-12.2-16.3-12.2c-7.7,0-14.2,5-16.3,12.2
		c-0.6-0.1-1.2-0.2-1.7-0.2c-6.1,0-11,4.9-11,11s4.9,11,11,11h36c6.1,0,11-4.9,11-11S72.1,1066,66,1066z"/>
	<path class="st2" d="M51.1,1089.6c-0.7-0.8-2.1-0.8-2.8,0c-0.6,0.7-5.9,7-5.9,12.1c0,1.9,0.6,3.6,1.8,5c0.9,1.1,2.6,2.3,5.5,2.3
		c4.8,0,7.3-3.7,7.3-7.3C57,1096.7,51.7,1090.3,51.1,1089.6z M49.7,1106.3L49.7,1106.3l0,0.9L49.7,1106.3z"/>
	<path class="st4" d="M-390,1294c-0.5,0-1.1,0.1-1.7,0.2c-2.1-7.2-8.6-12.2-16.3-12.2c-7.7,0-14.2,5-16.3,12.2
		c-0.6-0.1-1.2-0.2-1.7-0.2c-6.1,0-11,4.9-11,11s4.9,11,11,11h36c6.1,0,11-4.9,11-11S-383.9,1294-390,1294z"/>
	<path class="st4" d="M66.8,1293.4c-0.5,0-1.1,0.1-1.7,0.2c-2.1-7.4-8.8-12.5-16.6-12.5c-7.8,0-14.5,5.2-16.6,12.5
		c-0.6-0.1-1.2-0.2-1.7-0.2c-6.2,0-11.2,5.1-11.2,11.3c0,6.2,5,11.3,11.2,11.3h36.6c6.2,0,11.2-5.1,11.2-11.3
		C78,1298.4,73,1293.4,66.8,1293.4z"/>
	<path class="st4" d="M-47,1293c-0.5,0-1.1,0.1-1.7,0.2c-2.1-7.2-8.6-12.2-16.3-12.2c-7.7,0-14.2,5-16.3,12.2
		c-0.6-0.1-1.2-0.2-1.7-0.2c-6.1,0-11,4.9-11,11s4.9,11,11,11h36c6.1,0,11-4.9,11-11S-40.9,1293-47,1293z"/>
	<g>
		<path class="st5" d="M-423,950h12c1.1,0,2-0.9,2-2s-0.9-2-2-2h-12c-1.1,0-2,0.9-2,2S-424.1,950-423,950z"/>
		<path class="st5" d="M-435,956h24c1.1,0,2-0.9,2-2s-0.9-2-2-2h-24c-1.1,0-2,0.9-2,2S-436.1,956-435,956z"/>
		<path class="st5" d="M-441,962h24c1.1,0,2-0.9,2-2s-0.9-2-2-2h-24c-1.1,0-2,0.9-2,2S-442.1,962-441,962z"/>
		<path class="st5" d="M-382,966c0-1.1-0.9-2-2-2h-60c-1.1,0-2,0.9-2,2s0.9,2,2,2h60C-382.9,968-382,967.1-382,966z"/>
		<path class="st5" d="M-384,970h-57c-1.1,0-2,0.9-2,2s0.9,2,2,2h57c1.1,0,2-0.9,2-2S-382.9,970-384,970z"/>
		<path class="st5" d="M-423,976l-12,0c-1.1,0-2,0.9-2,2c0,1.1,0.9,2,2,2l12,0c1.1,0,2-0.9,2-2S-421.9,976-423,976z"/>
		<path class="st5" d="M-404,956h8c1.1,0,2-0.9,2-2s-0.9-2-2-2h-8c-1.1,0-2,0.9-2,2S-405.1,956-404,956z"/>
		<path class="st5" d="M-413,960c0,1.1,0.9,2,2,2h21c1.1,0,2-0.9,2-2s-0.9-2-2-2h-21C-412.1,958-413,958.9-413,960z"/>
		<path class="st5" d="M-390,976l-27,0c-1.1,0-2,0.9-2,2s0.9,2,2,2l27,0c1.1,0,2-0.9,2-2C-388,976.9-388.9,976-390,976z"/>
	</g>
	<g>
		<path class="st1" d="M-308,54c0,2.4,0.7,4.9,1.9,7c0.4,0.6,1,1,1.7,1h20.8c0.7,0,1.4-0.4,1.7-1c1.2-2.1,1.9-4.6,1.9-7
			c0-7.7-6.3-14-14-14S-308,46.3-308,54z M-303.2,58C-303.2,58-303.2,58-303.2,58C-303.2,58-303.1,58-303.2,58L-303.2,58z
			 M-295.2,44.1c0.4-0.1,0.8-0.1,1.2-0.1c0.1,0,0.1,0,0.2,0C-294.3,44-294.8,44-295.2,44.1z"/>
		<polygon class="st1" points="-293.9,27.6 -298.8,36.1 -289,36.1 		"/>
		<polygon class="st1" points="-311.9,49.2 -320.4,54.2 -311.9,59.1 		"/>
		<polygon class="st1" points="-275.9,59.1 -267.4,54.2 -275.9,49.2 		"/>
		<polygon class="st1" points="-277.2,37.4 -282.7,39.1 -278.9,42.9 		"/>
		<polygon class="st1" points="-309,42.9 -305.2,39.1 -310.7,37.4 		"/>
	</g>
	<g>
		<path class="st1" d="M-167.7,53.4c-2.4-4.4-7-7.4-12.3-7.4c-7.7,0-14,6.3-14,14c0,1.1,0.9,2,2,2h24c1.1,0,2-0.9,2-2
			c0-2-0.4-3.9-1.2-5.6C-167.3,54-167.5,53.7-167.7,53.4z"/>
		<path class="st1" d="M-189.3,64.1L-189.3,64.1C-189.3,64.1-189.3,64.1-189.3,64.1C-189.3,64.1-189.3,64.1-189.3,64.1z"/>
		<polygon class="st1" points="-180.1,33.8 -185,42.3 -175.2,42.3 		"/>
		<polygon class="st1" points="-168.9,45.2 -165,49.1 -163.3,43.5 		"/>
		<polygon class="st1" points="-196.9,43.5 -195.2,49.1 -191.3,45.2 		"/>
	</g>
	<g>
		<path class="st1" d="M-66,52c-5,0-9.6,2.7-12.1,7c-0.4,0.6-0.4,1.4,0,2c0.4,0.6,1,1,1.7,1h20.8c0.7,0,1.4-0.4,1.7-1
			c0.4-0.6,0.4-1.4,0-2C-56.4,54.7-61,52-66,52z M-66.2,56c0.1,0,0.1,0,0.2,0c0,0,0.1,0,0.1,0C-66,56-66.1,56-66.2,56z"/>
		<path class="st1" d="M-75.2,70.2L-75.2,70.2C-75.2,70.2-75.2,70.2-75.2,70.2C-75.2,70.2-75.2,70.2-75.2,70.2z"/>
		<polygon class="st1" points="-66,39.8 -70.9,48.3 -61.1,48.3 		"/>
		<polygon class="st1" points="-54.8,51.3 -51,55.1 -49.3,49.6 		"/>
		<polygon class="st1" points="-82.8,49.6 -81.1,55.1 -77.3,51.3 		"/>
	</g>
	<g>
		<path class="st1" d="M-80.1,732.4c0,2.4,0.7,4.9,1.9,7c0.4,0.6,1,1,1.7,1h20.8c0.7,0,1.4-0.4,1.7-1c1.2-2.1,1.9-4.6,1.9-7
			c0-7.7-6.3-14-14-14C-73.8,718.4-80.1,724.6-80.1,732.4z M-75.2,736.4C-75.3,736.3-75.3,736.3-75.2,736.4
			C-75.2,736.3-75.2,736.3-75.2,736.4L-75.2,736.4z M-67.3,722.4c0.4-0.1,0.8-0.1,1.2-0.1c0.1,0,0.1,0,0.2,0
			C-66.4,722.4-66.9,722.4-67.3,722.4z"/>
		<polygon class="st1" points="-66,706 -70.9,714.5 -61.1,714.5 		"/>
		<polygon class="st1" points="-84,727.6 -92.5,732.5 -84,737.4 		"/>
		<polygon class="st1" points="-48,737.4 -39.5,732.5 -48,727.6 		"/>
		<polygon class="st1" points="-49.3,715.7 -54.8,717.4 -51,721.3 		"/>
		<polygon class="st1" points="-81.1,721.3 -77.3,717.4 -82.8,715.7 		"/>
	</g>
	<g>
		<path class="st1" d="M34.1,732c0,2.4,0.7,4.9,1.9,7c0.4,0.6,1,1,1.7,1h20.8c0.7,0,1.4-0.4,1.7-1c1.2-2.1,1.9-4.6,1.9-7
			c0-7.7-6.3-14-14-14S34.1,724.3,34.1,732z M38.9,736C38.9,736,38.9,736,38.9,736C38.9,736,39,736,38.9,736L38.9,736z M46.8,722.1
			c0.4-0.1,0.8-0.1,1.2-0.1c0.1,0,0.1,0,0.2,0C47.8,722,47.3,722,46.8,722.1z"/>
		<polygon class="st1" points="48.1,705.6 43.2,714.1 53,714.1 		"/>
		<polygon class="st1" points="30.1,727.2 21.7,732.2 30.1,737.1 		"/>
		<polygon class="st1" points="66.2,737.1 74.7,732.2 66.2,727.2 		"/>
		<polygon class="st1" points="64.9,715.4 59.3,717.1 63.2,720.9 		"/>
		<polygon class="st1" points="33.1,720.9 36.9,717.1 31.3,715.4 		"/>
	</g>
</g>
</svg>
