<?xml version="1.0" encoding="utf-8"?>
<!-- Generator: Adobe Illustrator 19.2.0, SVG Export Plug-In . SVG Version: 6.00 Build 0)  -->
<svg version="1.1" xmlns="http://www.w3.org/2000/svg" xmlns:xlink="http://www.w3.org/1999/xlink" x="0px" y="0px"
	 viewBox="0 0 96 96" style="enable-background:new 0 0 96 96;" xml:space="preserve">
<style type="text/css">
	.st0{display:none;}
	.st1{fill:#FFCC00;}
	.st2{fill:#5AC8FA;}
	.st3{fill:#5856D6;}
	.st4{fill:#007AFF;}
	.st5{fill:#FF9500;}
	.st6{fill:#FF3B30;}
</style>
<g id="Base" class="st0">
</g>
<g id="Dibujo">
	<g>
		<polyline class="st1" points="381.7,629.1 374.7,642.2 379.9,642.2 374.1,653.6 386.3,639.4 380.1,639.5 389,629.1 		"/>
		<polyline class="st1" points="394.5,624.2 387.5,637.3 392.7,637.3 386.9,648.7 399.1,634.5 392.9,634.6 401.8,624.2 		"/>
	</g>
	<g>
		<polyline class="st1" points="266.8,628.6 259.8,641.7 264.9,641.6 259.1,653 271.4,638.8 265.1,638.9 274,628.6 		"/>
		<polyline class="st1" points="279.6,623.7 272.6,636.8 277.8,636.7 272,648.1 284.2,633.9 278,634 286.8,623.7 		"/>
	</g>
	<g>
		<path class="st2" d="M45.5,1308v18c0,1.1,0.9,2,2,2c1.1,0,2-0.9,2-2v-18c0-1.1-0.9-2-2-2C46.4,1306,45.5,1306.9,45.5,1308z"/>
		<path class="st2" d="M22.5,1327h-2c-1.1,0-2,0.9-2,2v2c0,1.1,0.9,2,2,2h2c1.1,0,2-0.9,2-2v-2C24.5,1327.9,23.6,1327,22.5,1327z"/>
		<path class="st2" d="M48.5,1332h-2c-1.1,0-2,0.9-2,2v2c0,1.1,0.9,2,2,2h2c1.1,0,2-0.9,2-2v-2C50.5,1332.9,49.6,1332,48.5,1332z"/>
		<path class="st2" d="M75.5,1324h-2c-1.1,0-2,0.9-2,2v2c0,1.1,0.9,2,2,2h2c1.1,0,2-0.9,2-2v-2C77.5,1324.9,76.6,1324,75.5,1324z"/>
		<path class="st2" d="M38.5,1312c-1.1,0-2,0.9-2,2v15.1c-1.2-0.7-2.5-1.1-4-1.1h-2c-1.1,0-2,0.9-2,2s0.9,2,2,2h2c2.2,0,4,1.8,4,4
			c0,1.1,0.9,2,2,2c1.1,0,2-0.9,2-2v-22C40.5,1312.9,39.6,1312,38.5,1312z"/>
		<path class="st2" d="M65.5,1325c-2.7,0-5.1,0.9-7,2.5V1314c0-1.1-0.9-2-2-2c-1.1,0-2,0.9-2,2v22c0,0,0,0,0,0c0,1.1,0.9,2,2,2
			c1.1,0,2-0.9,2-2v0c0-3.9,3.1-7,7-7c1.1,0,2-0.9,2-2S66.6,1325,65.5,1325z"/>
	</g>
	<g>
		<path class="st1" d="M402.2,1276c-7.7,0-14,6.3-14,14s6.3,14,14,14c7.7,0,14-6.3,14-14S409.9,1276,402.2,1276z"/>
		<polygon class="st1" points="402.2,1263.5 407.1,1272 397.3,1272 		"/>
		<polygon class="st1" points="428.8,1290 420.3,1294.9 420.3,1285.1 		"/>
		<polygon class="st1" points="419,1273.2 417.3,1278.8 413.4,1274.9 		"/>
		<polygon class="st1" points="385.4,1273.2 391,1274.9 387.1,1278.8 		"/>
	</g>
	<g>
		<path class="st1" d="M515.9,1162c-7.7,0-14,6.3-14,14s6.3,14,14,14c7.7,0,14-6.3,14-14S523.6,1162,515.9,1162z"/>
		<polygon class="st1" points="515.9,1149.5 520.8,1158 511,1158 		"/>
		<polygon class="st1" points="542.4,1176 534,1180.9 534,1171.1 		"/>
		<polygon class="st1" points="532.6,1159.2 530.9,1164.8 527.1,1160.9 		"/>
		<polygon class="st1" points="499.1,1159.2 504.6,1160.9 500.8,1164.8 		"/>
	</g>
	<g>
		<path class="st2" d="M164,1205.9v-12c0-1.1-0.9-2-2-2c-1.1,0-2,0.9-2,2v12c0,1.1,0.9,2,2,2C163.1,1207.9,164,1207,164,1205.9z"/>
		<path class="st2" d="M155,1211.9v-12c0-1.1-0.9-2-2-2c-1.1,0-2,0.9-2,2v12c0,1.1,0.9,2,2,2C154.1,1213.9,155,1213,155,1211.9z"/>
		<path class="st2" d="M173,1211.9v-12c0-1.1-0.9-2-2-2c-1.1,0-2,0.9-2,2v12c0,1.1,0.9,2,2,2C172.1,1213.9,173,1213,173,1211.9z"/>
		<path class="st2" d="M154,1217.9h-2c-1.1,0-2,0.9-2,2v2c0,1.1,0.9,2,2,2h2c1.1,0,2-0.9,2-2v-2C156,1218.8,155.1,1217.9,154,1217.9
			z"/>
		<path class="st2" d="M163,1211.9h-2c-1.1,0-2,0.9-2,2v2c0,1.1,0.9,2,2,2h2c1.1,0,2-0.9,2-2v-2C165,1212.8,164.1,1211.9,163,1211.9
			z"/>
		<path class="st2" d="M172,1217.9h-2c-1.1,0-2,0.9-2,2v2c0,1.1,0.9,2,2,2h2c1.1,0,2-0.9,2-2v-2C174,1218.8,173.1,1217.9,172,1217.9
			z"/>
	</g>
	<g>
		<path class="st1" d="M174.1,1162c-7.7,0-14,6.3-14,14s6.3,14,14,14c7.7,0,14-6.3,14-14S181.8,1162,174.1,1162z"/>
		<polygon class="st1" points="174.1,1149.5 179,1158 169.2,1158 		"/>
		<polygon class="st1" points="200.7,1176 192.2,1180.9 192.2,1171.1 		"/>
		<polygon class="st1" points="190.9,1159.2 189.2,1164.8 185.3,1160.9 		"/>
		<polygon class="st1" points="157.3,1159.2 162.9,1160.9 159,1164.8 		"/>
	</g>
	<g>
		<path class="st1" d="M59.8,1048.1c-7.7,0-14,6.3-14,14c0,7.7,6.3,14,14,14c7.7,0,14-6.3,14-14
			C73.8,1054.3,67.5,1048.1,59.8,1048.1z"/>
		<polygon class="st1" points="59.8,1035.6 64.7,1044 54.9,1044 		"/>
		<polygon class="st1" points="86.4,1062.1 77.9,1067 77.9,1057.2 		"/>
		<polygon class="st1" points="76.6,1045.3 74.8,1050.8 71,1047 		"/>
		<polygon class="st1" points="43,1045.3 48.6,1047 44.7,1050.8 		"/>
	</g>
	<g>
		<path class="st1" d="M402,1048c-7.7,0-14,6.3-14,14s6.3,14,14,14s14-6.3,14-14S409.7,1048,402,1048z"/>
		<polygon class="st1" points="402,1035.5 406.9,1044 397.1,1044 		"/>
		<polygon class="st1" points="428.6,1062 420.1,1066.9 420.1,1057.1 		"/>
		<polygon class="st1" points="418.8,1045.2 417,1050.8 413.2,1046.9 		"/>
		<polygon class="st1" points="385.2,1045.2 390.8,1046.9 386.9,1050.8 		"/>
	</g>
	<g>
		<path class="st1" d="M288.2,934c-7.7,0-14,6.3-14,14s6.3,14,14,14s14-6.3,14-14S296,934,288.2,934z"/>
		<polygon class="st1" points="288.3,921.5 293.2,930 283.4,930 		"/>
		<polygon class="st1" points="314.8,948 306.3,952.9 306.3,943.1 		"/>
		<polygon class="st1" points="305,931.2 303.3,936.8 299.5,932.9 		"/>
		<polygon class="st1" points="271.5,931.2 277,932.9 273.2,936.8 		"/>
	</g>
	<g>
		<path class="st1" d="M513.1,826c-7.7,0-14,6.3-14,14s6.3,14,14,14c7.7,0,14-6.3,14-14S520.8,826,513.1,826z"/>
		<polygon class="st1" points="513.1,813.5 518,822 508.2,822 		"/>
		<polygon class="st1" points="539.7,840 531.2,844.9 531.2,835.1 		"/>
		<polygon class="st1" points="529.9,823.2 528.2,828.8 524.3,824.9 		"/>
		<polygon class="st1" points="496.3,823.2 501.9,824.9 498,828.8 		"/>
	</g>
	<g>
		<path class="st1" d="M174,820c-7.7,0-14,6.3-14,14s6.3,14,14,14s14-6.3,14-14S181.7,820,174,820z"/>
		<polygon class="st1" points="174,807.5 179,816 169.1,816 		"/>
		<polygon class="st1" points="200.6,834 192.1,838.9 192.1,829.1 		"/>
		<polygon class="st1" points="190.8,817.2 189.1,822.8 185.2,818.9 		"/>
		<polygon class="st1" points="157.2,817.2 162.8,818.9 159,822.8 		"/>
	</g>
	<g>
		<path class="st1" d="M174.1,706c-7.7,0-14,6.3-14,14s6.3,14,14,14c7.7,0,14-6.3,14-14S181.8,706,174.1,706z"/>
		<polygon class="st1" points="174.1,693.5 179,702 169.2,702 		"/>
		<polygon class="st1" points="200.7,720 192.2,724.9 192.2,715.1 		"/>
		<polygon class="st1" points="190.9,703.2 189.2,708.8 185.3,704.9 		"/>
		<polygon class="st1" points="157.3,703.2 162.9,704.9 159,708.8 		"/>
	</g>
	<g>
		<path class="st1" d="M60.2,592c-7.7,0-14,6.3-14,14s6.3,14,14,14c7.7,0,14-6.3,14-14S67.9,592,60.2,592z"/>
		<polygon class="st1" points="60.2,579.5 65.1,588 55.3,588 		"/>
		<polygon class="st1" points="86.8,606 78.3,610.9 78.3,601.1 		"/>
		<polygon class="st1" points="77,589.2 75.2,594.8 71.4,590.9 		"/>
		<polygon class="st1" points="43.4,589.2 49,590.9 45.1,594.8 		"/>
	</g>
	<g>
		<path class="st1" d="M401.9,592c-7.7,0-14,6.3-14,14s6.3,14,14,14s14-6.3,14-14S409.6,592,401.9,592z"/>
		<polygon class="st1" points="401.9,579.5 406.9,588 397,588 		"/>
		<polygon class="st1" points="428.5,606 420,610.9 420,601.1 		"/>
		<polygon class="st1" points="418.7,589.2 417,594.8 413.1,590.9 		"/>
		<polygon class="st1" points="385.1,589.2 390.7,590.9 386.9,594.8 		"/>
	</g>
	<g>
		<path class="st1" d="M288,478c-7.7,0-14,6.3-14,14s6.3,14,14,14c7.7,0,14-6.3,14-14S295.7,478,288,478z"/>
		<polygon class="st1" points="288.1,465.5 293,474 283.2,474 		"/>
		<polygon class="st1" points="314.6,492 306.1,496.9 306.1,487.1 		"/>
		<polygon class="st1" points="304.8,475.2 303.1,480.8 299.3,476.9 		"/>
		<polygon class="st1" points="271.3,475.2 276.8,476.9 273,480.8 		"/>
	</g>
	<g>
		<path class="st1" d="M515.9,364c-7.7,0-14,6.3-14,14c0,7.7,6.3,14,14,14c7.7,0,14-6.3,14-14C529.9,370.3,523.7,364,515.9,364z"/>
		<polygon class="st1" points="516,351.5 520.9,360 511.1,360 		"/>
		<polygon class="st1" points="542.5,378 534,382.9 534,373.1 		"/>
		<polygon class="st1" points="532.7,361.3 531,366.8 527.2,363 		"/>
		<polygon class="st1" points="499.2,361.3 504.7,363 500.9,366.8 		"/>
	</g>
	<g>
		<path class="st1" d="M173.8,364c-7.7,0-14,6.3-14,14c0,7.7,6.3,14,14,14c7.7,0,14-6.3,14-14C187.8,370.3,181.6,364,173.8,364z"/>
		<polygon class="st1" points="173.9,351.5 178.8,360 169,360 		"/>
		<polygon class="st1" points="200.4,378 191.9,382.9 191.9,373.1 		"/>
		<polygon class="st1" points="190.6,361.3 188.9,366.8 185.1,363 		"/>
		<polygon class="st1" points="157.1,361.3 162.6,363 158.8,366.8 		"/>
	</g>
	<path class="st3" d="M62.5,1273.4c0-1.2,0.2-2.3,0.6-3.4c-1-0.2-2-0.3-3-0.3c-7.7,0-14,6.3-14,14s6.3,14,14,14
		c7.7,0,13.9-6.2,14-13.8c-0.3,0-0.7,0.1-1,0.1C67.2,1283.9,62.5,1279.2,62.5,1273.4z"/>
	<path class="st3" d="M518.5,1273.7c0-1.2,0.2-2.3,0.6-3.4c-1-0.2-2-0.3-3-0.3c-7.7,0-14,6.3-14,14s6.3,14,14,14
		c7.7,0,13.9-6.2,14-13.8c-0.3,0-0.7,0.1-1,0.1C523.2,1284.3,518.5,1279.5,518.5,1273.7z"/>
	<path class="st3" d="M290.5,1159.4c0-1.2,0.2-2.3,0.6-3.4c-1-0.2-2-0.3-3-0.3c-7.7,0-14,6.3-14,14s6.3,14,14,14
		c7.7,0,13.9-6.2,14-13.8c-0.3,0-0.7,0.1-1,0.1C295.2,1169.9,290.5,1165.2,290.5,1159.4z"/>
	<path class="st3" d="M518.6,1045.7c0-1.2,0.2-2.3,0.6-3.4c-1-0.2-2-0.3-3-0.3c-7.7,0-14,6.3-14,14s6.3,14,14,14
		c7.7,0,13.9-6.2,14-13.8c-0.3,0-0.7,0.1-1,0.1C523.3,1056.3,518.6,1051.5,518.6,1045.7z"/>
	<path class="st3" d="M176.5,1045.7c0-1.2,0.2-2.3,0.6-3.4c-1-0.2-2-0.3-3-0.3c-7.7,0-14,6.3-14,14s6.3,14,14,14
		c7.7,0,13.9-6.2,14-13.8c-0.3,0-0.7,0.1-1,0.1C181.2,1056.3,176.5,1051.5,176.5,1045.7z"/>
	<path class="st3" d="M59.5,937.7c0-1.2,0.2-2.3,0.6-3.4c-1-0.2-2-0.3-3-0.3c-7.7,0-14,6.3-14,14s6.3,14,14,14
		c7.7,0,13.9-6.2,14-13.8c-0.3,0-0.7,0.1-1,0.1C64.2,948.3,59.5,943.5,59.5,937.7z"/>
	<path class="st3" d="M290.5,817.7c0-1.2,0.2-2.3,0.6-3.4c-1-0.2-2-0.3-3-0.3c-7.7,0-14,6.3-14,14s6.3,14,14,14
		c7.7,0,13.9-6.2,14-13.8c-0.3,0-0.7,0.1-1,0.1C295.2,828.3,290.5,823.5,290.5,817.7z"/>
	<path class="st3" d="M404.5,931.7c0-1.2,0.2-2.3,0.6-3.4c-1-0.2-2-0.3-3-0.3c-7.7,0-14,6.3-14,14s6.3,14,14,14
		c7.7,0,13.9-6.2,14-13.8c-0.3,0-0.7,0.1-1,0.1C409.2,942.3,404.5,937.5,404.5,931.7z"/>
	<path class="st3" d="M290.5,703.7c0-1.2,0.2-2.3,0.6-3.4c-1-0.2-2-0.3-3-0.3c-7.7,0-14,6.3-14,14s6.3,14,14,14
		c7.7,0,13.9-6.2,14-13.8c-0.3,0-0.7,0.1-1,0.1C295.2,714.3,290.5,709.5,290.5,703.7z"/>
	<path class="st3" d="M176.5,589.7c0-1.2,0.2-2.3,0.6-3.4c-1-0.2-2-0.3-3-0.3c-7.7,0-14,6.3-14,14s6.3,14,14,14
		c7.7,0,13.9-6.2,14-13.8c-0.3,0-0.7,0.1-1,0.1C181.2,600.3,176.5,595.5,176.5,589.7z"/>
	<path class="st3" d="M518.6,589.7c0-1.2,0.2-2.3,0.6-3.4c-1-0.2-2-0.3-3-0.3c-7.7,0-14,6.3-14,14s6.3,14,14,14
		c7.7,0,13.9-6.2,14-13.8c-0.3,0-0.7,0.1-1,0.1C523.3,600.3,518.6,595.5,518.6,589.7z"/>
	<path class="st3" d="M62.5,475.7c0-1.2,0.2-2.3,0.6-3.4c-1-0.2-2-0.3-3-0.3c-7.7,0-14,6.3-14,14s6.3,14,14,14
		c7.7,0,13.9-6.2,14-13.8c-0.3,0-0.7,0.1-1,0.1C67.2,486.3,62.5,481.5,62.5,475.7z"/>
	<path class="st3" d="M290.4,361.7c0-1.2,0.2-2.3,0.6-3.4c-1-0.2-2-0.3-3-0.3c-7.7,0-14,6.3-14,14s6.3,14,14,14
		c7.7,0,13.9-6.2,14-13.8c-0.3,0-0.7,0.1-1,0.1C295.1,372.3,290.4,367.5,290.4,361.7z"/>
	<path class="st3" d="M404.5,475.7c0-1.2,0.2-2.3,0.6-3.4c-1-0.2-2-0.3-3-0.3c-7.7,0-14,6.3-14,14s6.3,14,14,14
		c7.7,0,13.9-6.2,14-13.8c-0.3,0-0.7,0.1-1,0.1C409.2,486.3,404.5,481.5,404.5,475.7z"/>
	<path class="st3" d="M509.8,32.2c0-1.6,0.3-3.2,0.8-4.6c-1.3-0.3-2.7-0.5-4.2-0.5c-10.6,0-19.2,8.6-19.2,19.2
		c0,10.6,8.6,19.2,19.2,19.2c10.5,0,19-8.5,19.2-18.9c-0.5,0-0.9,0.1-1.4,0.1C516.3,46.6,509.8,40.2,509.8,32.2z"/>
	<g>
		<path class="st2" d="M276,520c-1.1,0-2,0.9-2,2v18c0,1.1,0.9,2,2,2s2-0.9,2-2v-18C278,520.9,277.1,520,276,520z"/>
		<path class="st2" d="M303.7,501.8c-0.3-0.6-0.7-1.2-1.2-1.8c-1.3-1.6-3.2-2.9-5.2-3.5c-1-0.3-2.1-0.5-3.3-0.5
			c-0.5,0-1.1,0.1-1.7,0.2c-2.1-7.2-8.6-12.2-16.3-12.2c-7.7,0-14.2,5-16.3,12.2c-0.6-0.1-1.2-0.2-1.7-0.2c-1.1,0-2.2,0.2-3.3,0.5
			c-2.1,0.6-3.9,1.9-5.2,3.5c-0.4,0.5-0.8,1.1-1.2,1.8c-0.8,1.6-1.3,3.3-1.3,5.2s0.5,3.7,1.3,5.2c0.3,0.6,0.7,1.2,1.2,1.8
			c1.3,1.6,3.2,2.9,5.2,3.5c1,0.3,2.1,0.5,3.3,0.5h7v16c0,1.1,0.9,2,2,2s2-0.9,2-2v-16h14v16c0,1.1,0.9,2,2,2s2-0.9,2-2v-16h7
			c1.1,0,2.2-0.2,3.3-0.5c2.1-0.6,3.9-1.9,5.2-3.5c0.4-0.5,0.8-1.1,1.2-1.8c0.8-1.6,1.3-3.3,1.3-5.2S304.5,503.3,303.7,501.8z"/>
	</g>
	<path class="st4" d="M66,382c-0.5,0-1.1,0.1-1.7,0.2C62.2,375,55.7,370,48,370c-7.7,0-14.2,5-16.3,12.2c-0.6-0.1-1.2-0.2-1.7-0.2
		c-6.1,0-11,4.9-11,11s4.9,11,11,11h36c6.1,0,11-4.9,11-11S72.1,382,66,382z"/>
	<path class="st3" d="M48,148c-7.7,0-14,6.3-14,14s6.3,14,14,14s14-6.3,14-14S55.7,148,48,148z"/>
	<path class="st3" d="M162,148c-7.7,0-14,6.3-14,14s6.3,14,14,14s14-6.3,14-14S169.7,148,162,148z M162.7,172
		c3.2-2.1,5.3-5.8,5.3-10s-2.1-7.8-5.3-10c5.2,0.3,9.3,4.7,9.3,10S167.9,171.6,162.7,172z"/>
	<path class="st3" d="M276,262c-7.7,0-14,6.3-14,14s6.3,14,14,14s14-6.3,14-14S283.7,262,276,262z M266,276c0-5.3,4.1-9.6,9.3-10
		c-3.2,2.1-5.3,5.8-5.3,10s2.1,7.8,5.3,10C270.1,285.6,266,281.3,266,276z"/>
	<path class="st3" d="M276,148c-7.7,0-14,6.3-14,14s6.3,14,14,14s14-6.3,14-14S283.7,148,276,148z M276,172v-20c5.5,0,10,4.5,10,10
		S281.5,172,276,172z"/>
	<path class="st3" d="M162,262c-7.7,0-14,6.3-14,14s6.3,14,14,14s14-6.3,14-14S169.7,262,162,262z M152,276c0-5.5,4.5-10,10-10v20
		C156.5,286,152,281.5,152,276z"/>
	<path class="st3" d="M390,148c-7.7,0-14,6.3-14,14s6.3,14,14,14s14-6.3,14-14S397.7,148,390,148z M390,172c-0.2,0-0.4,0-0.7,0
		c-3.2-2.1-5.3-5.8-5.3-10s2.1-7.8,5.3-10c0.2,0,0.4,0,0.7,0c5.5,0,10,4.5,10,10S395.5,172,390,172z"/>
	<path class="st3" d="M48,262c-7.7,0-14,6.3-14,14s6.3,14,14,14s14-6.3,14-14S55.7,262,48,262z M38,276c0-5.5,4.5-10,10-10
		c0.2,0,0.4,0,0.7,0c3.2,2.1,5.3,5.8,5.3,10s-2.1,7.8-5.3,10c-0.2,0-0.4,0-0.7,0C42.5,286,38,281.5,38,276z"/>
	<path class="st3" d="M504,148c-7.7,0-14,6.3-14,14s6.3,14,14,14c7.7,0,14-6.3,14-14S511.7,148,504,148z M504,172
		c-5.5,0-10-4.5-10-10s4.5-10,10-10s10,4.5,10,10S509.5,172,504,172z"/>
	<path class="st4" d="M392,250.1V248c0-1.1-0.9-2-2-2c-1.1,0-2,0.9-2,2v2.1c-13.4,1-24,12.3-24,25.9c0,1.1,0.9,2,2,2
		c1.1,0,2-0.9,2-2c0-2.2,1.8-4,4-4c2.2,0,4,1.8,4,4c0,1.1,0.9,2,2,2c1.1,0,2-0.9,2-2c0-2.2,1.8-4,4-4c2.2,0,4,1.8,4,4v21
		c0,2.8,2.2,5,5,5s5-2.2,5-5c0-1.1-0.9-2-2-2c-1.1,0-2,0.9-2,2c0,0.6-0.4,1-1,1c-0.6,0-1-0.4-1-1v-21c0-2.2,1.8-4,4-4
		c2.2,0,4,1.8,4,4c0,1.1,0.9,2,2,2c1.1,0,2-0.9,2-2c0-2.2,1.8-4,4-4c2.2,0,4,1.8,4,4c0,1.1,0.9,2,2,2c1.1,0,2-0.9,2-2
		C416,262.3,405.4,251.1,392,250.1z"/>
	<g>
		<path class="st5" d="M381,836h12c1.1,0,2-0.9,2-2s-0.9-2-2-2h-12c-1.1,0-2,0.9-2,2S379.9,836,381,836z"/>
		<path class="st5" d="M369,842h24c1.1,0,2-0.9,2-2s-0.9-2-2-2h-24c-1.1,0-2,0.9-2,2S367.9,842,369,842z"/>
		<path class="st5" d="M363,848h24c1.1,0,2-0.9,2-2s-0.9-2-2-2h-24c-1.1,0-2,0.9-2,2S361.9,848,363,848z"/>
		<path class="st5" d="M422,852c0-1.1-0.9-2-2-2h-60c-1.1,0-2,0.9-2,2s0.9,2,2,2h60C421.1,854,422,853.1,422,852z"/>
		<path class="st5" d="M420,856h-57c-1.1,0-2,0.9-2,2s0.9,2,2,2h57c1.1,0,2-0.9,2-2S421.1,856,420,856z"/>
		<path class="st5" d="M381,862l-12,0c-1.1,0-2,0.9-2,2c0,1.1,0.9,2,2,2l12,0c1.1,0,2-0.9,2-2S382.1,862,381,862z"/>
		<path class="st5" d="M400,842h8c1.1,0,2-0.9,2-2s-0.9-2-2-2h-8c-1.1,0-2,0.9-2,2S398.9,842,400,842z"/>
		<path class="st5" d="M391,846c0,1.1,0.9,2,2,2h21c1.1,0,2-0.9,2-2s-0.9-2-2-2h-21C391.9,844,391,844.9,391,846z"/>
		<path class="st5" d="M414,862l-27,0c-1.1,0-2,0.9-2,2s0.9,2,2,2l27,0c1.1,0,2-0.9,2-2C416,862.9,415.1,862,414,862z"/>
	</g>
	<g>
		<path class="st2" d="M135,965c1.1,0,2-0.9,2-2c0-3.9,3.1-7,7-7c0.3,0,0.7,0.1,1.2,0.2v1.8c0,1.1,0.9,2,2,2c1.1,0,2-0.9,2-2v-3.2
			c1.1-6.3,6.4-10.8,12.8-10.8c6.4,0,11.7,4.5,12.8,10.8v3.2c0,1.1,0.9,2,2,2c1.1,0,2-0.9,2-2v-1.8c0.5-0.1,0.9-0.2,1.2-0.2
			c3.9,0,7,3.1,7,7c0,1.1,0.9,2,2,2c1.1,0,2-0.9,2-2c0-6.1-4.9-11-11-11c-0.5,0-1.1,0.1-1.7,0.2c-2.1-7.2-8.6-12.2-16.3-12.2
			c-7.7,0-14.2,5-16.3,12.2c-0.6-0.1-1.2-0.2-1.7-0.2c-6.1,0-11,4.9-11,11C133,964.1,133.9,965,135,965z"/>
		<path class="st2" d="M154,971c0,1.1,0.9,2,2,2h36c1.1,0,2-0.9,2-2s-0.9-2-2-2h-36C154.9,969,154,969.9,154,971z"/>
		<path class="st2" d="M162,976c-1.1,0-2,0.9-2,2s0.9,2,2,2h27c1.1,0,2-0.9,2-2s-0.9-2-2-2H162z"/>
		<path class="st2" d="M192,983h-24c-1.1,0-2,0.9-2,2s0.9,2,2,2h24c1.1,0,2-0.9,2-2S193.1,983,192,983z"/>
		<path class="st2" d="M132,973h18c1.1,0,2-0.9,2-2s-0.9-2-2-2h-18c-1.1,0-2,0.9-2,2S130.9,973,132,973z"/>
		<path class="st2" d="M135,976c-1.1,0-2,0.9-2,2s0.9,2,2,2h21c1.1,0,2-0.9,2-2s-0.9-2-2-2H135z"/>
		<path class="st2" d="M162,983h-30c-1.1,0-2,0.9-2,2s0.9,2,2,2h30c1.1,0,2-0.9,2-2S163.1,983,162,983z"/>
	</g>
	<g>
		<path class="st2" d="M522,946c-0.5,0-1.1,0.1-1.7,0.2c-2.1-7.2-8.6-12.2-16.3-12.2c-7.7,0-14.2,5-16.3,12.2
			c-0.6-0.1-1.2-0.2-1.7-0.2c-6.1,0-11,4.9-11,11s4.9,11,11,11c1.1,0,2-0.9,2-2s-0.9-2-2-2c-3.9,0-7-3.1-7-7s3.1-7,7-7
			c0.3,0,0.7,0.1,1.2,0.2v1.8c0,1.1,0.9,2,2,2c1.1,0,2-0.9,2-2v-3.2c1.1-6.3,6.4-10.8,12.8-10.8c6.4,0,11.7,4.5,12.8,10.8v3.2
			c0,1.1,0.9,2,2,2c1.1,0,2-0.9,2-2v-1.8c0.5-0.1,0.9-0.2,1.2-0.2c3.9,0,7,3.1,7,7s-3.1,7-7,7c-1.1,0-2,0.9-2,2s0.9,2,2,2
			c6.1,0,11-4.9,11-11S528.1,946,522,946z"/>
		<path class="st2" d="M495.6,964.8c-0.8-1-2.4-1-3.2,0c-0.8,1.1-3.4,4.7-3.4,7.2c0,2.9,2.1,5,5,5c2.9,0,5-2.1,5-5
			C499,969.5,496.4,965.9,495.6,964.8z"/>
		<path class="st2" d="M512.4,964.8c-0.8,1.1-3.4,4.7-3.4,7.2c0,2.9,2.1,5,5,5c2.9,0,5-2.1,5-5c0-2.5-2.6-6.1-3.4-7.2
			C514.8,963.8,513.2,963.8,512.4,964.8z"/>
		<path class="st2" d="M502.4,976.8c-0.8,1.1-3.4,4.7-3.4,7.2c0,2.9,2.1,5,5,5c2.9,0,5-2.1,5-5c0-2.5-2.6-6.1-3.4-7.2
			C504.8,975.8,503.2,975.8,502.4,976.8z"/>
	</g>
	<g>
		<path class="st2" d="M50,1206v-12c0-1.1-0.9-2-2-2c-1.1,0-2,0.9-2,2v12c0,1.1,0.9,2,2,2C49.1,1208,50,1207.1,50,1206z"/>
		<path class="st2" d="M41,1212v-12c0-1.1-0.9-2-2-2c-1.1,0-2,0.9-2,2v12c0,1.1,0.9,2,2,2C40.1,1214,41,1213.1,41,1212z"/>
		<path class="st2" d="M59,1212v-12c0-1.1-0.9-2-2-2c-1.1,0-2,0.9-2,2v12c0,1.1,0.9,2,2,2C58.1,1214,59,1213.1,59,1212z"/>
		<path class="st2" d="M40,1218h-2c-1.1,0-2,0.9-2,2v2c0,1.1,0.9,2,2,2h2c1.1,0,2-0.9,2-2v-2C42,1218.9,41.1,1218,40,1218z"/>
		<path class="st2" d="M49,1212h-2c-1.1,0-2,0.9-2,2v2c0,1.1,0.9,2,2,2h2c1.1,0,2-0.9,2-2v-2C51,1212.9,50.1,1212,49,1212z"/>
		<path class="st2" d="M58,1218h-2c-1.1,0-2,0.9-2,2v2c0,1.1,0.9,2,2,2h2c1.1,0,2-0.9,2-2v-2C60,1218.9,59.1,1218,58,1218z"/>
	</g>
	<g>
		<path d="M397.6,1540.6l-5.6,5.6V1533c0-1.1-0.9-2-2-2c-1.1,0-2,0.9-2,2v13.2l-5.6-5.6c-0.8-0.8-2-0.8-2.8,0c-0.8,0.8-0.8,2,0,2.8
			l9,9c0.1,0.1,0.2,0.2,0.3,0.3c0,0,0.1,0.1,0.1,0.1c0.1,0,0.1,0.1,0.2,0.1c0.1,0,0.1,0,0.2,0.1c0.1,0,0.1,0,0.2,0.1
			c0.1,0,0.3,0,0.4,0c0.1,0,0.3,0,0.4,0c0.1,0,0.1,0,0.2-0.1c0.1,0,0.1,0,0.2-0.1c0.1,0,0.1-0.1,0.2-0.1c0,0,0.1,0,0.1-0.1
			c0.1-0.1,0.2-0.2,0.3-0.3l9-9c0.8-0.8,0.8-2,0-2.8C399.6,1539.8,398.4,1539.8,397.6,1540.6z"/>
		<path d="M408,1522c-0.5,0-1.1,0.1-1.7,0.2c-2.1-7.2-8.6-12.2-16.3-12.2c-7.7,0-14.2,5-16.3,12.2c-0.6-0.1-1.2-0.2-1.7-0.2
			c-6.1,0-11,4.9-11,11s4.9,11,11,11l2,0c1.1,0,2-0.9,2-2s-0.9-2-2-2h0l-2,0c-3.9,0-7-3.1-7-7s3.1-7,7-7c0.3,0,0.7,0.1,1.2,0.2v1.8
			c0,1.1,0.9,2,2,2c1.1,0,2-0.9,2-2v-3.2c1.1-6.3,6.4-10.8,12.8-10.8c6.4,0,11.7,4.5,12.8,10.8v3.2c0,1.1,0.9,2,2,2s2-0.9,2-2v-1.8
			c0.5-0.1,0.9-0.2,1.2-0.2c3.9,0,7,3.1,7,7s-3.1,7-7,7l-2,0h0c-1.1,0-2,0.9-2,2s0.9,2,2,2l2,0c6.1,0,11-4.9,11-11
			S414.1,1522,408,1522z"/>
	</g>
	<g>
		<path d="M505.4,1531.6c-0.1-0.1-0.2-0.2-0.3-0.3c0,0-0.1-0.1-0.1-0.1c-0.1,0-0.1-0.1-0.2-0.1c-0.1,0-0.1,0-0.2-0.1
			c-0.1,0-0.1,0-0.2-0.1c-0.3-0.1-0.5-0.1-0.8,0c-0.1,0-0.1,0-0.2,0.1c-0.1,0-0.1,0-0.2,0.1c-0.1,0-0.1,0.1-0.2,0.1
			c0,0-0.1,0-0.1,0.1c-0.1,0.1-0.2,0.2-0.3,0.3l-9,9c-0.8,0.8-0.8,2,0,2.8c0.8,0.8,2,0.8,2.8,0l5.6-5.6v13.2c0,1.1,0.9,2,2,2
			c1.1,0,2-0.9,2-2v-13.2l5.6,5.6c0.4,0.4,0.9,0.6,1.4,0.6s1-0.2,1.4-0.6c0.8-0.8,0.8-2,0-2.8L505.4,1531.6z"/>
		<path d="M522,1522c-0.5,0-1.1,0.1-1.7,0.2c-2.1-7.2-8.6-12.2-16.3-12.2c-7.7,0-14.2,5-16.3,12.2c-0.6-0.1-1.2-0.2-1.7-0.2
			c-6.1,0-11,4.9-11,11s4.9,11,11,11l2,0c1.1,0,2-0.9,2-2s-0.9-2-2-2h0l-2,0c-3.9,0-7-3.1-7-7s3.1-7,7-7c0.3,0,0.7,0.1,1.2,0.2v1.8
			c0,1.1,0.9,2,2,2c1.1,0,2-0.9,2-2v-3.2c1.1-6.3,6.4-10.8,12.8-10.8c6.4,0,11.7,4.5,12.8,10.8v3.2c0,1.1,0.9,2,2,2c1.1,0,2-0.9,2-2
			v-1.8c0.5-0.1,0.9-0.2,1.2-0.2c3.9,0,7,3.1,7,7s-3.1,7-7,7l-2,0h0c-1.1,0-2,0.9-2,2s0.9,2,2,2l2,0c6.1,0,11-4.9,11-11
			S528.1,1522,522,1522z"/>
	</g>
	<g>
		<path class="st2" d="M387.5,1194v18c0,1.1,0.9,2,2,2c1.1,0,2-0.9,2-2v-18c0-1.1-0.9-2-2-2C388.4,1192,387.5,1192.9,387.5,1194z"/>
		<path class="st2" d="M364.5,1213h-2c-1.1,0-2,0.9-2,2v2c0,1.1,0.9,2,2,2h2c1.1,0,2-0.9,2-2v-2C366.5,1213.9,365.6,1213,364.5,1213
			z"/>
		<path class="st2" d="M390.5,1218h-2c-1.1,0-2,0.9-2,2v2c0,1.1,0.9,2,2,2h2c1.1,0,2-0.9,2-2v-2C392.5,1218.9,391.6,1218,390.5,1218
			z"/>
		<path class="st2" d="M417.5,1210h-2c-1.1,0-2,0.9-2,2v2c0,1.1,0.9,2,2,2h2c1.1,0,2-0.9,2-2v-2C419.5,1210.9,418.6,1210,417.5,1210
			z"/>
		<path class="st2" d="M380.5,1198c-1.1,0-2,0.9-2,2v15.1c-1.2-0.7-2.5-1.1-4-1.1h-2c-1.1,0-2,0.9-2,2s0.9,2,2,2h2c2.2,0,4,1.8,4,4
			c0,1.1,0.9,2,2,2c1.1,0,2-0.9,2-2v-22C382.5,1198.9,381.6,1198,380.5,1198z"/>
		<path class="st2" d="M407.5,1211c-2.7,0-5.1,0.9-7,2.5V1200c0-1.1-0.9-2-2-2c-1.1,0-2,0.9-2,2v22c0,0,0,0,0,0c0,1.1,0.9,2,2,2
			c1.1,0,2-0.9,2-2v0c0-3.9,3.1-7,7-7c1.1,0,2-0.9,2-2S408.6,1211,407.5,1211z"/>
	</g>
	<g>
		<path class="st2" d="M502,1194v18c0,1.1,0.9,2,2,2c1.1,0,2-0.9,2-2v-18c0-1.1-0.9-2-2-2C502.9,1192,502,1192.9,502,1194z"/>
		<path class="st2" d="M479,1213h-2c-1.1,0-2,0.9-2,2v2c0,1.1,0.9,2,2,2h2c1.1,0,2-0.9,2-2v-2C481,1213.9,480.1,1213,479,1213z"/>
		<path class="st2" d="M505,1218h-2c-1.1,0-2,0.9-2,2v2c0,1.1,0.9,2,2,2h2c1.1,0,2-0.9,2-2v-2C507,1218.9,506.1,1218,505,1218z"/>
		<path class="st2" d="M532,1210h-2c-1.1,0-2,0.9-2,2v2c0,1.1,0.9,2,2,2h2c1.1,0,2-0.9,2-2v-2C534,1210.9,533.1,1210,532,1210z"/>
		<path class="st2" d="M495,1198c-1.1,0-2,0.9-2,2v15.1c-1.2-0.7-2.5-1.1-4-1.1h-2c-1.1,0-2,0.9-2,2s0.9,2,2,2h2c2.2,0,4,1.8,4,4
			c0,1.1,0.9,2,2,2c1.1,0,2-0.9,2-2v-22C497,1198.9,496.1,1198,495,1198z"/>
		<path class="st2" d="M522,1211c-2.7,0-5.1,0.9-7,2.5V1200c0-1.1-0.9-2-2-2c-1.1,0-2,0.9-2,2v22c0,0,0,0,0,0c0,1.1,0.9,2,2,2
			c1.1,0,2-0.9,2-2v0c0-3.9,3.1-7,7-7c1.1,0,2-0.9,2-2S523.1,1211,522,1211z"/>
	</g>
	<g>
		<path class="st5" d="M168,1300l-30,0c-1.1,0-2,0.9-2,2s0.9,2,2,2l30,0c3.9,0,7,3.1,7,7s-3.1,7-7,7c-1.1,0-2,0.9-2,2s0.9,2,2,2
			c6.1,0,11-4.9,11-11S174.1,1300,168,1300z"/>
		<path class="st5" d="M162,1306h-24c-1.1,0-2,0.9-2,2s0.9,2,2,2h24c0.6,0,1,0.4,1,1s-0.4,1-1,1c-1.1,0-2,0.9-2,2s0.9,2,2,2
			c2.8,0,5-2.2,5-5S164.8,1306,162,1306z"/>
		<path class="st5" d="M183,1292c-1.1,0-2,0.9-2,2s0.9,2,2,2c0.6,0,1,0.4,1,1s-0.4,1-1,1h-4c-1.1,0-2,0.9-2,2s0.9,2,2,2h4
			c2.8,0,5-2.2,5-5S185.8,1292,183,1292z"/>
		<path class="st5" d="M138,1298l33,0c4.4,0,8-3.6,8-8s-3.6-8-8-8s-8,3.6-8,8c0,1.1,0.9,2,2,2c1.1,0,2-0.9,2-2c0-2.2,1.8-4,4-4
			s4,1.8,4,4s-1.8,4-4,4l-33,0c-1.1,0-2,0.9-2,2S136.9,1298,138,1298z"/>
	</g>
	<g>
		<path class="st5" d="M297,1298c2.2,0,4,1.8,4,4s-1.8,4-4,4h-21c-1.1,0-2,0.9-2,2s0.9,2,2,2h21c4.4,0,8-3.6,8-8s-3.6-8-8-8
			c-1.1,0-2,0.9-2,2S295.9,1298,297,1298z"/>
		<path class="st4" d="M294,1312l-30,0l-6,0c-3.9,0-7-3.1-7-7s3.1-7,7-7c0.3,0,0.7,0.1,1.2,0.2v1.8c0,1.1,0.9,2,2,2c1.1,0,2-0.9,2-2
			v-3.2c1.1-6.3,6.4-10.8,12.8-10.8c7.2,0,13,5.8,13,13v1c0,1.1,0.9,2,2,2s2-0.9,2-2v-1c0-9.4-7.6-17-17-17c-7.7,0-14.2,5-16.3,12.2
			c-0.6-0.1-1.2-0.2-1.7-0.2c-6.1,0-11,4.9-11,11s4.9,11,11,11l6,0l30,0c3.9,0,7,3.1,7,7c0,1.1,0.9,2,2,2s2-0.9,2-2
			C305,1316.9,300.1,1312,294,1312z"/>
		<path class="st5" d="M294,1318h-36c-1.1,0-2,0.9-2,2s0.9,2,2,2h36c0.6,0,1,0.4,1,1s-0.4,1-1,1c-1.1,0-2,0.9-2,2s0.9,2,2,2
			c2.8,0,5-2.2,5-5S296.8,1318,294,1318z"/>
		<path class="st5" d="M308,1304c-1.1,0-2,0.9-2,2s0.9,2,2,2c0.6,0,1,0.4,1,1s-0.4,1-1,1h-4c-1.1,0-2,0.9-2,2s0.9,2,2,2h4
			c2.8,0,5-2.2,5-5S310.8,1304,308,1304z"/>
	</g>
	<g>
		<path class="st5" d="M24,1394h42c1.1,0,2-0.9,2-2s-0.9-2-2-2H24c-1.1,0-2,0.9-2,2S22.9,1394,24,1394z"/>
		<path class="st5" d="M66,1398H27c-1.1,0-2,0.9-2,2s0.9,2,2,2h39c1.1,0,2-0.9,2-2S67.1,1398,66,1398z"/>
		<path class="st5" d="M62,1408c0-1.1-0.9-2-2-2H24c-1.1,0-2,0.9-2,2s0.9,2,2,2h36C61.1,1410,62,1409.1,62,1408z"/>
		<path class="st5" d="M66,1414H33c-1.1,0-2,0.9-2,2s0.9,2,2,2h33c1.1,0,2-0.9,2-2S67.1,1414,66,1414z"/>
		<path class="st5" d="M60,1422H42c-1.1,0-2,0.9-2,2s0.9,2,2,2h18c1.1,0,2-0.9,2-2S61.1,1422,60,1422z"/>
		<path class="st5" d="M54,1430H42c-1.1,0-2,0.9-2,2s0.9,2,2,2h12c1.1,0,2-0.9,2-2S55.1,1430,54,1430z"/>
		<path class="st5" d="M48,1438h-6c-1.1,0-2,0.9-2,2s0.9,2,2,2h6c1.1,0,2-0.9,2-2S49.1,1438,48,1438z"/>
	</g>
	<g>
		<path class="st2" d="M276,1426c-2.8,0-5,2.2-5,5s2.2,5,5,5s5-2.2,5-5S278.8,1426,276,1426z M276,1432c-0.6,0-1-0.4-1-1s0.4-1,1-1
			c0.6,0,1,0.4,1,1S276.6,1432,276,1432z"/>
		<path class="st2" d="M284,1423.5l0-25.5c0-4.4-3.6-8-8-8s-8,3.6-8,8l0,25.5c-1.9,2-3,4.7-3,7.5c0,6.1,4.9,11,11,11s11-4.9,11-11
			C287,1428.2,285.9,1425.5,284,1423.5z M276,1438c-3.9,0-7-3.1-7-7c0-2,0.8-3.9,2.3-5.2c0.4-0.4,0.7-0.9,0.7-1.5l0-26.3
			c0-2.2,1.8-4,4-4c2.2,0,4,1.8,4,4l0,26.3c0,0.6,0.2,1.1,0.7,1.5c1.5,1.3,2.3,3.2,2.3,5.2C283,1434.9,279.9,1438,276,1438z"/>
	</g>
	<g>
		<path class="st2" d="M162,1442c-6.1,0-11-4.9-11-11c0-2.8,1.1-5.5,3-7.5l0-25.5c0-4.4,3.6-8,8-8s8,3.6,8,8l0,25.5
			c1.9,2,3,4.7,3,7.5C173,1437.1,168.1,1442,162,1442L162,1442z M162,1394c-2.2,0-4,1.8-4,4l0,26.3c0,0.6-0.2,1.1-0.7,1.5
			c-1.5,1.3-2.3,3.2-2.3,5.2c0,3.9,3.1,7,7,7c3.9,0,7-3.1,7-7c0-2-0.8-3.9-2.3-5.2c-0.4-0.4-0.7-0.9-0.7-1.5l0-26.3
			C166,1395.8,164.2,1394,162,1394L162,1394z"/>
	</g>
	<g>
		<path class="st5" d="M392,1426.4V1415c0-1.1-0.9-2-2-2c-1.1,0-2,0.9-2,2v11.4c-1.8,0.8-3,2.5-3,4.6c0,2.8,2.2,5,5,5s5-2.2,5-5
			C395,1429,393.8,1427.2,392,1426.4z M390,1432c-0.6,0-1-0.4-1-1s0.4-1,1-1c0.6,0,1,0.4,1,1S390.6,1432,390,1432z"/>
		<path class="st5" d="M398,1423.5l0-25.5c0-4.4-3.6-8-8-8s-8,3.6-8,8l0,25.5c-1.9,2-3,4.7-3,7.5c0,6.1,4.9,11,11,11s11-4.9,11-11
			C401,1428.2,399.9,1425.5,398,1423.5z M390,1438c-3.9,0-7-3.1-7-7c0-2,0.8-3.9,2.3-5.2c0.4-0.4,0.7-0.9,0.7-1.5l0-26.3
			c0-2.2,1.8-4,4-4c2.2,0,4,1.8,4,4l0,26.3c0,0.6,0.2,1.1,0.7,1.5c1.5,1.3,2.3,3.2,2.3,5.2C397,1434.9,393.9,1438,390,1438z"/>
	</g>
	<g>
		<path class="st6" d="M506,1426.4V1398c0-1.1-0.9-2-2-2c-1.1,0-2,0.9-2,2v28.4c-1.8,0.8-3,2.5-3,4.6c0,2.8,2.2,5,5,5
			c2.8,0,5-2.2,5-5C509,1429,507.8,1427.2,506,1426.4z M504,1432c-0.6,0-1-0.4-1-1s0.4-1,1-1c0.6,0,1,0.4,1,1S504.6,1432,504,1432z"
			/>
		<path class="st6" d="M512,1423.5l0-25.5c0-4.4-3.6-8-8-8s-8,3.6-8,8l0,25.5c-1.9,2-3,4.7-3,7.5c0,6.1,4.9,11,11,11s11-4.9,11-11
			C515,1428.2,513.9,1425.5,512,1423.5z M504,1438c-3.9,0-7-3.1-7-7c0-2,0.8-3.9,2.3-5.2c0.4-0.4,0.7-0.9,0.7-1.5l0-26.3
			c0-2.2,1.8-4,4-4c2.2,0,4,1.8,4,4l0,26.3c0,0.6,0.2,1.1,0.7,1.5c1.5,1.3,2.3,3.2,2.3,5.2C511,1434.9,507.9,1438,504,1438z"/>
	</g>
	<path d="M536,270.9c0-0.1,0-0.1,0-0.2c0-0.1,0-0.1,0-0.2c0-0.1,0-0.1-0.1-0.2c0-0.1,0-0.1-0.1-0.2c0,0,0,0,0-0.1c0,0,0-0.1-0.1-0.1
		c0-0.1-0.1-0.1-0.1-0.2c0-0.1-0.1-0.1-0.1-0.2c0,0-0.1-0.1-0.1-0.1c-0.1,0-0.1-0.1-0.2-0.1c0,0-0.1-0.1-0.1-0.1
		c-0.1,0-0.1-0.1-0.2-0.1c-0.1,0-0.1-0.1-0.2-0.1c-0.1,0-0.1,0-0.2-0.1c-0.1,0-0.1,0-0.2,0c-0.1,0-0.2,0-0.2,0c0,0-0.1,0-0.1,0h-4
		c0-2.8-2.2-5-5-5h-14c-1.4,0-2.7,0.6-3.6,1.5c-0.3,0.3-0.5,0.7-0.7,1c-0.8-0.4-1.7-0.6-2.7-0.6s-1.8,0.2-2.7,0.6
		c-0.2-0.4-0.4-0.7-0.7-1c-0.9-1-2.2-1.5-3.6-1.5h-14c-2.8,0-5,2.2-5,5h-4c0,0-0.1,0-0.1,0c-0.1,0-0.1,0-0.2,0c-0.1,0-0.1,0-0.2,0
		c-0.1,0-0.1,0-0.2,0.1c-0.1,0-0.1,0.1-0.2,0.1c-0.1,0-0.1,0.1-0.2,0.1c-0.1,0-0.1,0.1-0.2,0.1c-0.1,0-0.1,0.1-0.2,0.1
		c0,0-0.1,0.1-0.1,0.1c0,0-0.1,0.1-0.1,0.1c0,0.1-0.1,0.1-0.1,0.2c0,0,0,0.1-0.1,0.1c0,0,0,0,0,0.1c0,0.1-0.1,0.1-0.1,0.2
		c0,0.1,0,0.1-0.1,0.2c0,0.1,0,0.1,0,0.2c0,0.1,0,0.1,0,0.2c0,0,0,0,0,0.1c0,0,0,0.1,0,0.1c0,0.1,0,0.1,0,0.2c0,0.1,0,0.1,0,0.2
		c0,0.1,0,0.1,0.1,0.2c0,0.1,0,0.1,0.1,0.2c0,0.1,0.1,0.1,0.1,0.2c0,0.1,0.1,0.1,0.1,0.2c0,0.1,0.1,0.1,0.1,0.2c0,0,0.1,0.1,0.1,0.1
		c0,0,0.1,0.1,0.1,0.1c0.1,0,0.1,0.1,0.2,0.1c0,0,0.1,0,0.1,0.1l4.9,2.5c0.1,6,5,10.8,11,10.8c5,0,11-2.5,12.6-13.6
		c0-0.1,0-0.1,0-0.2c0-0.2,0.1-0.4,0.1-0.7c0.3-0.9,1.3-1.6,2.3-1.6c1,0,2,0.7,2.3,1.6c0,0.2,0.1,0.5,0.1,0.7c0,0.1,0,0.1,0,0.2
		C508,283.5,514,286,519,286c6,0,10.9-4.8,11-10.8l4.9-2.5c0,0,0.1,0,0.1-0.1c0.1,0,0.1-0.1,0.2-0.1c0.1,0,0.1-0.1,0.2-0.1
		c0,0,0.1-0.1,0.1-0.1c0-0.1,0.1-0.1,0.1-0.2c0,0,0.1-0.1,0.1-0.1c0-0.1,0.1-0.1,0.1-0.2c0-0.1,0.1-0.1,0.1-0.2c0-0.1,0-0.1,0.1-0.2
		c0-0.1,0-0.1,0-0.2c0-0.1,0-0.1,0-0.2C536,271.1,536,271,536,270.9C536,271,536,271,536,270.9z M490.4,271.4l-5,5
		c-0.4,0.4-0.9,0.6-1.4,0.6c-0.5,0-1-0.2-1.4-0.6c-0.8-0.8-0.8-2,0-2.8l5-5c0.8-0.8,2-0.8,2.8,0
		C491.2,269.4,491.2,270.6,490.4,271.4z M519.4,271.4l-5,5c-0.4,0.4-0.9,0.6-1.4,0.6s-1-0.2-1.4-0.6c-0.8-0.8-0.8-2,0-2.8l5-5
		c0.8-0.8,2-0.8,2.8,0C520.2,269.4,520.2,270.6,519.4,271.4z"/>
	<path class="st5" d="M78.5,1513.1l-24-6c0,0-0.1,0-0.1,0c-0.1,0-0.2,0-0.3,0c-0.1,0-0.1,0-0.1,0c-0.1,0-0.2,0-0.3,0
		c0,0-0.1,0-0.1,0c-0.1,0-0.3,0.1-0.4,0.1c0,0,0,0,0,0c-0.1,0.1-0.2,0.1-0.4,0.2L44,1514v-6.4c1.8-0.8,3-2.5,3-4.6c0-2.8-2.2-5-5-5
		s-5,2.2-5,5c0,2,1.2,3.8,3,4.6v50.4H18c-1.1,0-2,0.9-2,2s0.9,2,2,2h48c1.1,0,2-0.9,2-2s-0.9-2-2-2H44v-36l8.8,6.6
		c0.1,0.1,0.2,0.1,0.3,0.2c0.1,0,0.1,0.1,0.2,0.1c0.2,0.1,0.4,0.1,0.6,0.1c0,0,0,0,0,0h0c0,0,0,0,0,0c0.2,0,0.3,0,0.4-0.1
		c0,0,0,0,0,0l24-6c0.9-0.2,1.5-1,1.5-1.9v-6C80,1514.1,79.4,1513.3,78.5,1513.1z M52,1523l-6.7-5l6.7-5V1523z M42,1502
		c0.6,0,1,0.4,1,1s-0.4,1-1,1s-1-0.4-1-1S41.4,1502,42,1502z M56,1511.6l8,2v8.9l-8,2V1511.6z M76,1519.4l-8,2v-6.9l8,2V1519.4z"/>
	<path class="st2" d="M303,1543.3l-6.2-3.6l3.5-0.9c1.1-0.3,1.7-1.4,1.4-2.4c-0.3-1.1-1.4-1.7-2.4-1.4l-7.4,2l-5.5-3.2l6.5-1.8
		c0.8-0.2,1.4-0.9,1.5-1.8c0.1-0.9-0.4-1.6-1.2-2l-5.8-2.4l4.5-2.6l7.4,2c0.2,0,0.3,0.1,0.5,0.1c0.9,0,1.7-0.6,1.9-1.5
		c0.3-1.1-0.3-2.2-1.4-2.4l-3.5-0.9l6.2-3.6c1-0.6,1.3-1.8,0.7-2.7c-0.6-1-1.8-1.3-2.7-0.7l-6.2,3.6l0.9-3.5
		c0.3-1.1-0.3-2.2-1.4-2.4c-1.1-0.3-2.2,0.3-2.4,1.4l-2,7.4l-4.5,2.6l0.8-6.2c0.1-0.8-0.3-1.6-1-2c-0.7-0.4-1.6-0.3-2.2,0.1l-5,3.8
		v-5.2l5.4-5.4c0.8-0.8,0.8-2,0-2.8c-0.8-0.8-2-0.8-2.8,0l-2.6,2.6v-7.2c0-1.1-0.9-2-2-2s-2,0.9-2,2v7.2l-2.6-2.6
		c-0.8-0.8-2-0.8-2.8,0c-0.8,0.8-0.8,2,0,2.8l5.4,5.4v5.2l-5-3.8c-0.7-0.5-1.6-0.5-2.3-0.1c-0.7,0.5-1,1.4-0.8,2.2l1.8,6.5l-5.5-3.2
		l-2-7.4c-0.3-1.1-1.4-1.7-2.4-1.4c-1.1,0.3-1.7,1.4-1.4,2.4l0.9,3.5l-6.2-3.6c-1-0.6-2.2-0.2-2.7,0.7c-0.6,1-0.2,2.2,0.7,2.7
		l6.2,3.6l-3.5,0.9c-1.1,0.3-1.7,1.4-1.4,2.4c0.2,0.9,1,1.5,1.9,1.5c0.2,0,0.3,0,0.5-0.1l7.4-2l5.5,3.2l-6.5,1.8
		c-0.8,0.2-1.4,0.9-1.5,1.8c-0.1,0.9,0.4,1.6,1.2,2l5.8,2.4l-4.5,2.6l-7.4-2c-1.1-0.3-2.2,0.3-2.4,1.4c-0.3,1.1,0.3,2.2,1.4,2.4
		l3.5,0.9l-6.2,3.6c-1,0.6-1.3,1.8-0.7,2.7c0.4,0.6,1,1,1.7,1c0.3,0,0.7-0.1,1-0.3l6.2-3.6l-0.9,3.5c-0.3,1.1,0.3,2.2,1.4,2.4
		c0.2,0,0.3,0.1,0.5,0.1c0.9,0,1.7-0.6,1.9-1.5l2-7.4l4.5-2.6l-0.8,6.2c-0.1,0.8,0.3,1.6,1,2c0.7,0.4,1.6,0.3,2.2-0.1l5-3.8v5.2
		l-5.4,5.4c-0.8,0.8-0.8,2,0,2.8c0.8,0.8,2,0.8,2.8,0l2.6-2.6v7.2c0,1.1,0.9,2,2,2s2-0.9,2-2v-7.2l2.6,2.6c0.4,0.4,0.9,0.6,1.4,0.6
		s1-0.2,1.4-0.6c0.8-0.8,0.8-2,0-2.8l-5.4-5.4v-5.2l5,3.8c0.4,0.3,0.8,0.4,1.2,0.4c0.4,0,0.8-0.1,1.1-0.3c0.7-0.5,1-1.4,0.8-2.2
		l-1.8-6.5l5.5,3.2l2,7.4c0.2,0.9,1,1.5,1.9,1.5c0.2,0,0.3,0,0.5-0.1c1.1-0.3,1.7-1.4,1.4-2.4l-0.9-3.5l6.2,3.6
		c0.3,0.2,0.7,0.3,1,0.3c0.7,0,1.4-0.4,1.7-1C304.3,1545,303.9,1543.8,303,1543.3z M286.2,1529.6l-4.8,1.3l-1.5-0.9l3.1-1.8
		L286.2,1529.6z M281.6,1520.3l-0.6,4.5l-3.1,1.8v-3.5L281.6,1520.3z M271.2,1520.9l2.8,2.1v3.5l-1.5-0.9L271.2,1520.9z
		 M265.7,1530.4l4.8-1.3l1.5,0.9l-3.1,1.8L265.7,1530.4z M270.4,1539.7l0.6-4.5l3.1-1.8v3.5L270.4,1539.7z M280.8,1539.1l-2.8-2.1
		v-3.5l1.5,0.9L280.8,1539.1z"/>
	<g>
		<path class="st5" d="M186,1508c1.1,0,2-0.9,2-2s-0.9-2-2-2c-7,0-12.9,5.2-13.8,12h-2c1-7.9,7.7-14,15.9-14c1.1,0,2-0.9,2-2
			s-0.9-2-2-2c-10.4,0-18.9,7.9-19.9,18H158v-10c0-1.5-0.4-2.9-1.1-4.1l1.5-1.5c0.8-0.8,0.8-2,0-2.8c-0.8-0.8-2-0.8-2.8,0l-1.5,1.5
			c-0.6-0.4-1.3-0.7-2.1-0.9v-2.3c0-1.1-0.9-2-2-2c-1.1,0-2,0.9-2,2v2.3c-0.7,0.2-1.4,0.5-2.1,0.9l-1.5-1.5c-0.8-0.8-2-0.8-2.8,0
			c-0.8,0.8-0.8,2,0,2.8l1.5,1.5c-0.5,0.9-0.9,2-1,3.1H138c-0.9,0-1.7,0.6-1.9,1.5c-0.2,0.9,0.2,1.8,1.1,2.2l4.9,2.4v6.8
			c0,10.4,7.9,18.9,18,19.9v10.1h-17.2l2.6-2.6c0.8-0.8,0.8-2,0-2.8c-0.8-0.8-2-0.8-2.8,0l-6,6c-0.1,0.1-0.2,0.2-0.2,0.3
			c0,0-0.1,0.1-0.1,0.1c0,0.1-0.1,0.1-0.1,0.2c0,0.1,0,0.1-0.1,0.2c0,0.1,0,0.1-0.1,0.2c-0.1,0.3-0.1,0.5,0,0.8c0,0.1,0,0.1,0.1,0.2
			c0,0.1,0,0.1,0.1,0.2c0,0.1,0.1,0.1,0.1,0.2c0,0,0,0.1,0.1,0.1c0.1,0.1,0.2,0.2,0.2,0.3l6,6c0.4,0.4,0.9,0.6,1.4,0.6
			s1-0.2,1.4-0.6c0.8-0.8,0.8-2,0-2.8l-2.6-2.6H160v12c0,1.1,0.9,2,2,2c1.1,0,2-0.9,2-2v-12h15.2l5.4,5.4c0.4,0.4,0.9,0.6,1.4,0.6
			s1-0.2,1.4-0.6c0.8-0.8,0.8-2,0-2.8l-4.6-4.6l4.6-4.6c0.8-0.8,0.8-2,0-2.8c-0.8-0.8-2-0.8-2.8,0l-5.4,5.4H164v-10.1
			c10.1-1,18-9.5,18-19.9c0-2.2,1.8-4,4-4c1.1,0,2-0.9,2-2s-0.9-2-2-2c-3.7,0-6.8,2.6-7.7,6h-2.1C177.1,1511.4,181.2,1508,186,1508z
			 M165.4,1520c-0.7,1.2-2,2-3.4,2c-1.5,0-2.8-0.8-3.4-2H165.4z M177.9,1520c-1,7.9-7.7,14-15.9,14c-8.8,0-16-7.2-16-16v-12
			c0-2.2,1.8-4,4-4s4,1.8,4,4v12c0,0,0,0,0,0c0,4.4,3.6,8,8,8c3.7,0,6.8-2.6,7.7-6H177.9z"/>
		<circle class="st6" cx="150" cy="1506" r="2"/>
	</g>
	<g>
		<path class="st1" d="M47.9,32.7c-8.5,0-15.3,6.9-15.3,15.3s6.9,15.3,15.3,15.3c8.5,0,15.3-6.9,15.3-15.3S56.4,32.7,47.9,32.7z"/>
		<polygon class="st1" points="48,19 53.3,28.3 42.6,28.3 		"/>
		<polygon class="st1" points="48,77 42.6,67.7 53.3,67.7 		"/>
		<polygon class="st1" points="18.9,48 28.3,42.7 28.3,53.4 		"/>
		<polygon class="st1" points="77.1,48 67.7,53.4 67.7,42.7 		"/>
		<polygon class="st1" points="66.3,29.7 64.4,35.7 60.2,31.5 		"/>
		<polygon class="st1" points="29.6,66.4 31.4,60.3 35.6,64.5 		"/>
		<polygon class="st1" points="29.6,29.7 35.6,31.5 31.4,35.7 		"/>
		<polygon class="st1" points="66.3,66.4 60.2,64.5 64.4,60.3 		"/>
	</g>
	<path class="st4" d="M180,382c-0.5,0-1.1,0.1-1.7,0.2c-2.1-7.2-8.6-12.2-16.3-12.2c-7.7,0-14.2,5-16.3,12.2
		c-0.6-0.1-1.2-0.2-1.7-0.2c-6.1,0-11,4.9-11,11s4.9,11,11,11h36c6.1,0,11-4.9,11-11S186.1,382,180,382z"/>
	<path class="st4" d="M294,382c-0.5,0-1.1,0.1-1.7,0.2c-2.1-7.2-8.6-12.2-16.3-12.2c-7.7,0-14.2,5-16.3,12.2
		c-0.6-0.1-1.2-0.2-1.7-0.2c-6.1,0-11,4.9-11,11s4.9,11,11,11h36c6.1,0,11-4.9,11-11S300.1,382,294,382z"/>
	<g>
		<path class="st2" d="M381,414c-1.1,0-2,0.9-2,2v4c0,1.1,0.9,2,2,2c1.1,0,2-0.9,2-2v-4C383,414.9,382.1,414,381,414z"/>
		<path class="st2" d="M390,420c-1.1,0-2,0.9-2,2v4c0,1.1,0.9,2,2,2c1.1,0,2-0.9,2-2v-4C392,420.9,391.1,420,390,420z"/>
		<path class="st2" d="M390,408c-1.1,0-2,0.9-2,2v4c0,1.1,0.9,2,2,2c1.1,0,2-0.9,2-2v-4C392,408.9,391.1,408,390,408z"/>
		<path class="st2" d="M399,414c-1.1,0-2,0.9-2,2v4c0,1.1,0.9,2,2,2c1.1,0,2-0.9,2-2v-4C401,414.9,400.1,414,399,414z"/>
		<path class="st2" d="M417.7,387.8c-0.3-0.6-0.7-1.2-1.2-1.8c-1.3-1.6-3.2-2.9-5.2-3.5c-1-0.3-2.1-0.5-3.3-0.5
			c-0.5,0-1.1,0.1-1.7,0.2c-0.9-3.1-2.7-5.9-5-7.9c-0.3-0.3-0.7-0.6-1-0.8c-0.7-0.5-1.5-1-2.3-1.4c-2.4-1.3-5.1-2-8-2
			c-7.7,0-14.2,5-16.3,12.2c-0.6-0.1-1.2-0.2-1.7-0.2c-1.1,0-2.2,0.2-3.3,0.5c-2.1,0.6-3.9,1.9-5.2,3.5c-0.4,0.5-0.8,1.1-1.2,1.8
			c-0.8,1.6-1.3,3.3-1.3,5.2s0.5,3.7,1.3,5.2c0.3,0.6,0.7,1.2,1.2,1.8c1.3,1.6,3.2,2.9,5.2,3.5c1,0.3,2.1,0.5,3.3,0.5h7v4
			c0,1.1,0.9,2,2,2c1.1,0,2-0.9,2-2v-4h14v4c0,1.1,0.9,2,2,2c1.1,0,2-0.9,2-2v-4h7c1.1,0,2.2-0.2,3.3-0.5c2.1-0.6,3.9-1.9,5.2-3.5
			c0.4-0.5,0.8-1.1,1.2-1.8c0.8-1.6,1.3-3.3,1.3-5.2S418.5,389.3,417.7,387.8z"/>
	</g>
	<g>
		<path class="st2" d="M495,414c-1.1,0-2,0.9-2,2v4c0,1.1,0.9,2,2,2c1.1,0,2-0.9,2-2v-4C497,414.9,496.1,414,495,414z"/>
		<path class="st2" d="M504,420c-1.1,0-2,0.9-2,2v4c0,1.1,0.9,2,2,2c1.1,0,2-0.9,2-2v-4C506,420.9,505.1,420,504,420z"/>
		<path class="st2" d="M504,408c-1.1,0-2,0.9-2,2v4c0,1.1,0.9,2,2,2c1.1,0,2-0.9,2-2v-4C506,408.9,505.1,408,504,408z"/>
		<path class="st2" d="M513,414c-1.1,0-2,0.9-2,2v4c0,1.1,0.9,2,2,2c1.1,0,2-0.9,2-2v-4C515,414.9,514.1,414,513,414z"/>
		<path class="st2" d="M531.7,387.8c-0.3-0.6-0.7-1.2-1.2-1.8c-1.3-1.6-3.2-2.9-5.2-3.5c-1-0.3-2.1-0.5-3.3-0.5
			c-0.5,0-1.1,0.1-1.7,0.2c-0.9-3.1-2.7-5.9-5-7.9c-0.3-0.3-0.7-0.6-1-0.8c-0.7-0.5-1.5-1-2.3-1.4c-2.4-1.3-5.1-2-8-2
			c-7.7,0-14.2,5-16.3,12.2c-0.6-0.1-1.2-0.2-1.7-0.2c-1.1,0-2.2,0.2-3.3,0.5c-2.1,0.6-3.9,1.9-5.2,3.5c-0.4,0.5-0.8,1.1-1.2,1.8
			c-0.8,1.6-1.3,3.3-1.3,5.2s0.5,3.7,1.3,5.2c0.3,0.6,0.7,1.2,1.2,1.8c1.3,1.6,3.2,2.9,5.2,3.5c1,0.3,2.1,0.5,3.3,0.5h7v4
			c0,1.1,0.9,2,2,2c1.1,0,2-0.9,2-2v-4h14v4c0,1.1,0.9,2,2,2c1.1,0,2-0.9,2-2v-4h7c1.1,0,2.2-0.2,3.3-0.5c2.1-0.6,3.9-1.9,5.2-3.5
			c0.4-0.5,0.8-1.1,1.2-1.8c0.8-1.6,1.3-3.3,1.3-5.2S532.5,389.3,531.7,387.8z"/>
	</g>
	<g>
		<path class="st2" d="M39,528c-1.1,0-2,0.9-2,2v4c0,1.1,0.9,2,2,2c1.1,0,2-0.9,2-2v-4C41,528.9,40.1,528,39,528z"/>
		<path class="st2" d="M48,534c-1.1,0-2,0.9-2,2v4c0,1.1,0.9,2,2,2s2-0.9,2-2v-4C50,534.9,49.1,534,48,534z"/>
		<path class="st2" d="M48,522c-1.1,0-2,0.9-2,2v4c0,1.1,0.9,2,2,2s2-0.9,2-2v-4C50,522.9,49.1,522,48,522z"/>
		<path class="st2" d="M57,528c-1.1,0-2,0.9-2,2v4c0,1.1,0.9,2,2,2c1.1,0,2-0.9,2-2v-4C59,528.9,58.1,528,57,528z"/>
		<path class="st2" d="M75.7,501.8c-0.3-0.6-0.7-1.2-1.2-1.8c-1.3-1.6-3.2-2.9-5.2-3.5c-1-0.3-2.1-0.5-3.3-0.5
			c-0.5,0-1.1,0.1-1.7,0.2c-0.9-3.1-2.7-5.9-5-7.9c-0.3-0.3-0.7-0.6-1-0.8c-0.7-0.5-1.5-1-2.3-1.4c-2.4-1.3-5.1-2-8-2
			c-7.7,0-14.2,5-16.3,12.2c-0.6-0.1-1.2-0.2-1.7-0.2c-1.1,0-2.2,0.2-3.3,0.5c-2.1,0.6-3.9,1.9-5.2,3.5c-0.4,0.5-0.8,1.1-1.2,1.8
			c-0.8,1.6-1.3,3.3-1.3,5.2s0.5,3.7,1.3,5.2c0.3,0.6,0.7,1.2,1.2,1.8c1.3,1.6,3.2,2.9,5.2,3.5c1,0.3,2.1,0.5,3.3,0.5h7v4
			c0,1.1,0.9,2,2,2c1.1,0,2-0.9,2-2v-4h14v4c0,1.1,0.9,2,2,2c1.1,0,2-0.9,2-2v-4h7c1.1,0,2.2-0.2,3.3-0.5c2.1-0.6,3.9-1.9,5.2-3.5
			c0.4-0.5,0.8-1.1,1.2-1.8c0.8-1.6,1.3-3.3,1.3-5.2S76.5,503.3,75.7,501.8z"/>
	</g>
	<g>
		<path class="st2" d="M162,520c-1.1,0-2,0.9-2,2v18c0,1.1,0.9,2,2,2c1.1,0,2-0.9,2-2v-18C164,520.9,163.1,520,162,520z"/>
		<path class="st2" d="M189.7,501.8c-0.3-0.6-0.7-1.2-1.2-1.8c-1.3-1.6-3.2-2.9-5.2-3.5c-1-0.3-2.1-0.5-3.3-0.5
			c-0.5,0-1.1,0.1-1.7,0.2c-2.1-7.2-8.6-12.2-16.3-12.2c-7.7,0-14.2,5-16.3,12.2c-0.6-0.1-1.2-0.2-1.7-0.2c-1.1,0-2.2,0.2-3.3,0.5
			c-2.1,0.6-3.9,1.9-5.2,3.5c-0.4,0.5-0.8,1.1-1.2,1.8c-0.8,1.6-1.3,3.3-1.3,5.2s0.5,3.7,1.3,5.2c0.3,0.6,0.7,1.2,1.2,1.8
			c1.3,1.6,3.2,2.9,5.2,3.5c1,0.3,2.1,0.5,3.3,0.5h7v16c0,1.1,0.9,2,2,2c1.1,0,2-0.9,2-2v-16h14v16c0,1.1,0.9,2,2,2c1.1,0,2-0.9,2-2
			v-16h7c1.1,0,2.2-0.2,3.3-0.5c2.1-0.6,3.9-1.9,5.2-3.5c0.4-0.5,0.8-1.1,1.2-1.8c0.8-1.6,1.3-3.3,1.3-5.2S190.5,503.3,189.7,501.8z
			"/>
	</g>
	<g>
		<path class="st2" d="M390,520c-1.1,0-2,0.9-2,2v18c0,1.1,0.9,2,2,2c1.1,0,2-0.9,2-2v-18C392,520.9,391.1,520,390,520z"/>
		<path class="st2" d="M417.7,501.8c-0.3-0.6-0.7-1.2-1.2-1.8c-1.3-1.6-3.2-2.9-5.2-3.5c-1-0.3-2.1-0.5-3.3-0.5
			c-0.5,0-1.1,0.1-1.7,0.2c-2.1-7.2-8.6-12.2-16.3-12.2c-7.7,0-14.2,5-16.3,12.2c-0.6-0.1-1.2-0.2-1.7-0.2c-1.1,0-2.2,0.2-3.3,0.5
			c-2.1,0.6-3.9,1.9-5.2,3.5c-0.4,0.5-0.8,1.1-1.2,1.8c-0.8,1.6-1.3,3.3-1.3,5.2s0.5,3.7,1.3,5.2c0.3,0.6,0.7,1.2,1.2,1.8
			c1.3,1.6,3.2,2.9,5.2,3.5c1,0.3,2.1,0.5,3.3,0.5h7v16c0,1.1,0.9,2,2,2c1.1,0,2-0.9,2-2v-16h14v16c0,1.1,0.9,2,2,2c1.1,0,2-0.9,2-2
			v-16h7c1.1,0,2.2-0.2,3.3-0.5c2.1-0.6,3.9-1.9,5.2-3.5c0.4-0.5,0.8-1.1,1.2-1.8c0.8-1.6,1.3-3.3,1.3-5.2S418.5,503.3,417.7,501.8z
			"/>
	</g>
	<g>
		<circle class="st2" cx="495" cy="522" r="2"/>
		<circle class="st2" cx="513" cy="522" r="2"/>
		<circle class="st2" cx="504" cy="528" r="2"/>
		<circle class="st2" cx="513" cy="534" r="2"/>
		<circle class="st2" cx="504" cy="540" r="2"/>
		<circle class="st2" cx="495" cy="534" r="2"/>
		<path class="st2" d="M531.7,501.8c-0.3-0.6-0.7-1.2-1.2-1.8c-1.3-1.6-3.2-2.9-5.2-3.5c-1-0.3-2.1-0.5-3.3-0.5
			c-0.3,0-0.5,0-0.8,0.1c-0.3,0-0.6,0.1-0.9,0.1c-0.9-3.1-2.7-5.9-5-7.9c-0.3-0.3-0.7-0.6-1-0.8c-0.7-0.5-1.5-1-2.3-1.4
			c-2.4-1.3-5.1-2-8-2c-7.7,0-14.2,5-16.3,12.2c-0.1,0-0.1,0-0.2,0c-0.5-0.1-1-0.2-1.5-0.2c-1.1,0-2.2,0.2-3.3,0.5
			c-2.1,0.6-3.9,1.9-5.2,3.5c-0.4,0.5-0.8,1.1-1.2,1.8c-0.8,1.6-1.3,3.3-1.3,5.2s0.5,3.7,1.3,5.2c0.3,0.6,0.7,1.2,1.2,1.8
			c1.3,1.6,3.2,2.9,5.2,3.5c1,0.3,2.1,0.5,3.3,0.5h36c1.1,0,2.2-0.2,3.3-0.5c2.1-0.6,3.9-1.9,5.2-3.5c0.4-0.5,0.8-1.1,1.2-1.8
			c0.8-1.6,1.3-3.3,1.3-5.2S532.5,503.3,531.7,501.8z"/>
	</g>
	<g>
		<circle class="st2" cx="39" cy="636" r="2"/>
		<circle class="st2" cx="57" cy="636" r="2"/>
		<circle class="st2" cx="48" cy="642" r="2"/>
		<circle class="st2" cx="57" cy="648" r="2"/>
		<circle class="st2" cx="48" cy="654" r="2"/>
		<circle class="st2" cx="39" cy="648" r="2"/>
		<path class="st2" d="M75.7,615.8c-0.3-0.6-0.7-1.2-1.2-1.8c-1.3-1.6-3.2-2.9-5.2-3.5c-1-0.3-2.1-0.5-3.3-0.5c-0.3,0-0.5,0-0.8,0.1
			c-0.3,0-0.6,0.1-0.9,0.1c-0.9-3.1-2.7-5.9-5-7.9c-0.3-0.3-0.7-0.6-1-0.8c-0.7-0.5-1.5-1-2.3-1.4c-2.4-1.3-5.1-2-8-2
			c-7.7,0-14.2,5-16.3,12.2c-0.1,0-0.1,0-0.2,0c-0.5-0.1-1-0.2-1.5-0.2c-1.1,0-2.2,0.2-3.3,0.5c-2.1,0.6-3.9,1.9-5.2,3.5
			c-0.4,0.5-0.8,1.1-1.2,1.8c-0.8,1.6-1.3,3.3-1.3,5.2s0.5,3.7,1.3,5.2c0.3,0.6,0.7,1.2,1.2,1.8c1.3,1.6,3.2,2.9,5.2,3.5
			c1,0.3,2.1,0.5,3.3,0.5h36c1.1,0,2.2-0.2,3.3-0.5c2.1-0.6,3.9-1.9,5.2-3.5c0.4-0.5,0.8-1.1,1.2-1.8c0.8-1.6,1.3-3.3,1.3-5.2
			S76.5,617.3,75.7,615.8z"/>
	</g>
	<g>
		<circle class="st2" cx="153" cy="636" r="2"/>
		<circle class="st2" cx="171" cy="636" r="2"/>
		<circle class="st2" cx="162" cy="642" r="2"/>
		<circle class="st2" cx="171" cy="648" r="2"/>
		<circle class="st2" cx="162" cy="654" r="2"/>
		<circle class="st2" cx="153" cy="648" r="2"/>
		<path class="st2" d="M189.7,615.8c-0.3-0.6-0.7-1.2-1.2-1.8c-1.3-1.6-3.2-2.9-5.2-3.5c-1-0.3-2.1-0.5-3.3-0.5
			c-0.3,0-0.5,0-0.8,0.1c-0.3,0-0.6,0.1-0.9,0.1c-0.9-3.1-2.7-5.9-5-7.9c-0.3-0.3-0.7-0.6-1-0.8c-0.7-0.5-1.5-1-2.3-1.4
			c-2.4-1.3-5.1-2-8-2c-7.7,0-14.2,5-16.3,12.2c-0.1,0-0.1,0-0.2,0c-0.5-0.1-1-0.2-1.5-0.2c-1.1,0-2.2,0.2-3.3,0.5
			c-2.1,0.6-3.9,1.9-5.2,3.5c-0.4,0.5-0.8,1.1-1.2,1.8c-0.8,1.6-1.3,3.3-1.3,5.2s0.5,3.7,1.3,5.2c0.3,0.6,0.7,1.2,1.2,1.8
			c1.3,1.6,3.2,2.9,5.2,3.5c1,0.3,2.1,0.5,3.3,0.5h36c1.1,0,2.2-0.2,3.3-0.5c2.1-0.6,3.9-1.9,5.2-3.5c0.4-0.5,0.8-1.1,1.2-1.8
			c0.8-1.6,1.3-3.3,1.3-5.2S190.5,617.3,189.7,615.8z"/>
	</g>
	<path class="st4" d="M294,610c-0.5,0-1.1,0.1-1.7,0.2c-2.1-7.2-8.6-12.2-16.3-12.2c-7.7,0-14.2,5-16.3,12.2
		c-0.6-0.1-1.2-0.2-1.7-0.2c-6.1,0-11,4.9-11,11s4.9,11,11,11h36c6.1,0,11-4.9,11-11S300.1,610,294,610z"/>
	<path class="st4" d="M408,610c-0.5,0-1.1,0.1-1.7,0.2c-2.1-7.2-8.6-12.2-16.3-12.2c-7.7,0-14.2,5-16.3,12.2
		c-0.6-0.1-1.2-0.2-1.7-0.2c-6.1,0-11,4.9-11,11s4.9,11,11,11h36c6.1,0,11-4.9,11-11S414.1,610,408,610z"/>
	<path class="st1" d="M522,610c-0.5,0-1.1,0.1-1.7,0.2c-2.1-7.2-8.6-12.2-16.3-12.2c-7.7,0-14.2,5-16.3,12.2
		c-0.6-0.1-1.2-0.2-1.7-0.2c-6.1,0-11,4.9-11,11s4.9,11,11,11h11.3l-3.9,5.9c-0.4,0.6-0.4,1.4-0.1,2.1c0.3,0.7,1,1.1,1.8,1.1h2.3
		l-3.9,5.9c-0.6,0.9-0.4,2.2,0.6,2.8c0.3,0.2,0.7,0.3,1.1,0.3c0.6,0,1.3-0.3,1.7-0.9l6-9c0.4-0.6,0.4-1.4,0.1-2.1
		c-0.3-0.7-1-1.1-1.8-1.1h-2.3l3.3-5h5.2l-1.9,2.9c-0.4,0.6-0.4,1.4-0.1,2.1c0.3,0.7,1,1.1,1.8,1.1h2.3l-1.9,2.9
		c-0.6,0.9-0.4,2.2,0.6,2.8c0.3,0.2,0.7,0.3,1.1,0.3c0.6,0,1.3-0.3,1.7-0.9l4-6c0.4-0.6,0.4-1.4,0.1-2.1c-0.3-0.7-1-1.1-1.8-1.1
		h-2.3l1.3-2h9.9c6.1,0,11-4.9,11-11S528.1,610,522,610z M522,628h-36c-3.9,0-7-3.1-7-7s3.1-7,7-7c0.3,0,0.7,0.1,1.2,0.2v1.8
		c0,1.1,0.9,2,2,2s2-0.9,2-2v-3.2c1.1-6.3,6.4-10.8,12.8-10.8c6.4,0,11.7,4.5,12.8,10.8v3.2c0,1.1,0.9,2,2,2s2-0.9,2-2v-1.8
		c0.5-0.1,0.9-0.2,1.2-0.2c3.9,0,7,3.1,7,7S525.9,628,522,628z"/>
	<path class="st4" d="M522,610c-0.5,0-1.1,0.1-1.7,0.2c-2.1-7.2-8.6-12.2-16.3-12.2c-7.7,0-14.2,5-16.3,12.2
		c-0.6-0.1-1.2-0.2-1.7-0.2c-6.1,0-11,4.9-11,11s4.9,11,11,11h36c6.1,0,11-4.9,11-11S528.1,610,522,610z"/>
	<g>
		<path class="st2" d="M44.7,754.7c-0.6-1-1.8-1.3-2.7-0.7c-1,0.6-1.3,1.8-0.7,2.7l1,1.7c0.4,0.6,1,1,1.7,1c0.3,0,0.7-0.1,1-0.3
			c1-0.6,1.3-1.8,0.7-2.7L44.7,754.7z"/>
		<path class="st2" d="M40,753.9c-1-0.6-2.2-0.2-2.7,0.7l-1,1.7c-0.6,1-0.2,2.2,0.7,2.7c0.3,0.2,0.7,0.3,1,0.3c0.7,0,1.4-0.4,1.7-1
			l1-1.7C41.3,755.7,41,754.5,40,753.9z"/>
		<path class="st2" d="M39,752.2c0-1.1-0.9-2-2-2h-2c-1.1,0-2,0.9-2,2c0,1.1,0.9,2,2,2h2C38.1,754.2,39,753.3,39,752.2z"/>
		<path class="st2" d="M47,750.2h-2c-1.1,0-2,0.9-2,2c0,1.1,0.9,2,2,2h2c1.1,0,2-0.9,2-2C49,751.1,48.1,750.2,47,750.2z"/>
		<path class="st2" d="M67,725c-0.5,0-1.1,0.1-1.7,0.2C63.2,718,56.7,713,49,713c-7.7,0-14.2,5-16.3,12.2c-0.6-0.1-1.2-0.2-1.7-0.2
			c-6.1,0-11,4.9-11,11s4.9,11,11,11h5c0,0.3,0.1,0.7,0.3,1l1,1.7c0.4,0.6,1,1,1.7,1c0.3,0,0.7-0.1,1-0.3c1-0.6,1.3-1.8,0.7-2.7
			l-0.4-0.7h1.4l-0.4,0.7c-0.6,1-0.2,2.2,0.7,2.7c0.3,0.2,0.7,0.3,1,0.3c0.7,0,1.4-0.4,1.7-1l1-1.7c0.2-0.3,0.3-0.7,0.3-1h21
			c6.1,0,11-4.9,11-11S73.1,725,67,725z"/>
		<path class="st2" d="M61.7,759.7c-0.6-1-1.8-1.3-2.7-0.7c-1,0.6-1.3,1.8-0.7,2.7l1,1.7c0.4,0.6,1,1,1.7,1c0.3,0,0.7-0.1,1-0.3
			c1-0.6,1.3-1.8,0.7-2.7L61.7,759.7z"/>
		<path class="st2" d="M56.7,751c-0.6-1-1.8-1.3-2.7-0.7c-1,0.6-1.3,1.8-0.7,2.7l1,1.7c0.4,0.6,1,1,1.7,1c0.3,0,0.7-0.1,1-0.3
			c1-0.6,1.3-1.8,0.7-2.7L56.7,751z"/>
		<path class="st2" d="M59,755.5c0.3,0.2,0.7,0.3,1,0.3c0.7,0,1.4-0.4,1.7-1l1-1.7c0.6-1,0.2-2.2-0.7-2.7c-1-0.6-2.2-0.2-2.7,0.7
			l-1,1.7C57.7,753.7,58,754.9,59,755.5z"/>
		<path class="st2" d="M57,758.9c-1-0.6-2.2-0.2-2.7,0.7l-1,1.7c-0.6,1-0.2,2.2,0.7,2.7c0.3,0.2,0.7,0.3,1,0.3c0.7,0,1.4-0.4,1.7-1
			l1-1.7C58.3,760.7,58,759.5,57,758.9z"/>
		<path class="st2" d="M56,757.2c0-1.1-0.9-2-2-2h-2c-1.1,0-2,0.9-2,2c0,1.1,0.9,2,2,2h2C55.1,759.2,56,758.3,56,757.2z"/>
		<path class="st2" d="M64,755.2h-2c-1.1,0-2,0.9-2,2c0,1.1,0.9,2,2,2h2c1.1,0,2-0.9,2-2C66,756.1,65.1,755.2,64,755.2z"/>
	</g>
	<g>
		<path class="st2" d="M157.7,753.7c-0.6-1-1.8-1.3-2.7-0.7c-1,0.6-1.3,1.8-0.7,2.7l1,1.7c0.4,0.6,1,1,1.7,1c0.3,0,0.7-0.1,1-0.3
			c1-0.6,1.3-1.8,0.7-2.7L157.7,753.7z"/>
		<path class="st2" d="M153,752.9c-1-0.6-2.2-0.2-2.7,0.7l-1,1.7c-0.6,1-0.2,2.2,0.7,2.7c0.3,0.2,0.7,0.3,1,0.3c0.7,0,1.4-0.4,1.7-1
			l1-1.7C154.3,754.7,154,753.5,153,752.9z"/>
		<path class="st2" d="M152,751.2c0-1.1-0.9-2-2-2h-2c-1.1,0-2,0.9-2,2c0,1.1,0.9,2,2,2h2C151.1,753.2,152,752.3,152,751.2z"/>
		<path class="st2" d="M160,749.2h-2c-1.1,0-2,0.9-2,2c0,1.1,0.9,2,2,2h2c1.1,0,2-0.9,2-2C162,750.1,161.1,749.2,160,749.2z"/>
		<path class="st2" d="M180,724c-0.5,0-1.1,0.1-1.7,0.2c-2.1-7.2-8.6-12.2-16.3-12.2c-7.7,0-14.2,5-16.3,12.2
			c-0.6-0.1-1.2-0.2-1.7-0.2c-6.1,0-11,4.9-11,11s4.9,11,11,11h5c0,0.3,0.1,0.7,0.3,1l1,1.7c0.4,0.6,1,1,1.7,1c0.3,0,0.7-0.1,1-0.3
			c1-0.6,1.3-1.8,0.7-2.7l-0.4-0.7h1.4l-0.4,0.7c-0.6,1-0.2,2.2,0.7,2.7c0.3,0.2,0.7,0.3,1,0.3c0.7,0,1.4-0.4,1.7-1l1-1.7
			c0.2-0.3,0.3-0.7,0.3-1h21c6.1,0,11-4.9,11-11S186.1,724,180,724z"/>
		<path class="st2" d="M174.7,758.7c-0.6-1-1.8-1.3-2.7-0.7c-1,0.6-1.3,1.8-0.7,2.7l1,1.7c0.4,0.6,1,1,1.7,1c0.3,0,0.7-0.1,1-0.3
			c1-0.6,1.3-1.8,0.7-2.7L174.7,758.7z"/>
		<path class="st2" d="M169.7,750c-0.6-1-1.8-1.3-2.7-0.7c-1,0.6-1.3,1.8-0.7,2.7l1,1.7c0.4,0.6,1,1,1.7,1c0.3,0,0.7-0.1,1-0.3
			c1-0.6,1.3-1.8,0.7-2.7L169.7,750z"/>
		<path class="st2" d="M172,754.5c0.3,0.2,0.7,0.3,1,0.3c0.7,0,1.4-0.4,1.7-1l1-1.7c0.6-1,0.2-2.2-0.7-2.7c-1-0.6-2.2-0.2-2.7,0.7
			l-1,1.7C170.7,752.7,171,753.9,172,754.5z"/>
		<path class="st2" d="M170,757.9c-1-0.6-2.2-0.2-2.7,0.7l-1,1.7c-0.6,1-0.2,2.2,0.7,2.7c0.3,0.2,0.7,0.3,1,0.3c0.7,0,1.4-0.4,1.7-1
			l1-1.7C171.3,759.7,171,758.5,170,757.9z"/>
		<path class="st2" d="M169,756.2c0-1.1-0.9-2-2-2h-2c-1.1,0-2,0.9-2,2c0,1.1,0.9,2,2,2h2C168.1,758.2,169,757.3,169,756.2z"/>
		<path class="st2" d="M177,754.2h-2c-1.1,0-2,0.9-2,2c0,1.1,0.9,2,2,2h2c1.1,0,2-0.9,2-2C179,755.1,178.1,754.2,177,754.2z"/>
	</g>
	<g>
		<path class="st2" d="M271.7,753.7c-0.6-1-1.8-1.3-2.7-0.7c-1,0.6-1.3,1.8-0.7,2.7l1,1.7c0.4,0.6,1,1,1.7,1c0.3,0,0.7-0.1,1-0.3
			c1-0.6,1.3-1.8,0.7-2.7L271.7,753.7z"/>
		<path class="st2" d="M267,752.9c-1-0.6-2.2-0.2-2.7,0.7l-1,1.7c-0.6,1-0.2,2.2,0.7,2.7c0.3,0.2,0.7,0.3,1,0.3c0.7,0,1.4-0.4,1.7-1
			l1-1.7C268.3,754.7,268,753.5,267,752.9z"/>
		<path class="st2" d="M266,751.2c0-1.1-0.9-2-2-2h-2c-1.1,0-2,0.9-2,2c0,1.1,0.9,2,2,2h2C265.1,753.2,266,752.3,266,751.2z"/>
		<path class="st2" d="M274,749.2h-2c-1.1,0-2,0.9-2,2c0,1.1,0.9,2,2,2h2c1.1,0,2-0.9,2-2C276,750.1,275.1,749.2,274,749.2z"/>
		<path class="st2" d="M294,724c-0.5,0-1.1,0.1-1.7,0.2c-2.1-7.2-8.6-12.2-16.3-12.2c-7.7,0-14.2,5-16.3,12.2
			c-0.6-0.1-1.2-0.2-1.7-0.2c-6.1,0-11,4.9-11,11s4.9,11,11,11h5c0,0.3,0.1,0.7,0.3,1l1,1.7c0.4,0.6,1,1,1.7,1c0.3,0,0.7-0.1,1-0.3
			c1-0.6,1.3-1.8,0.7-2.7l-0.4-0.7h1.4l-0.4,0.7c-0.6,1-0.2,2.2,0.7,2.7c0.3,0.2,0.7,0.3,1,0.3c0.7,0,1.4-0.4,1.7-1l1-1.7
			c0.2-0.3,0.3-0.7,0.3-1h21c6.1,0,11-4.9,11-11S300.1,724,294,724z"/>
		<path class="st2" d="M288.7,758.7c-0.6-1-1.8-1.3-2.7-0.7c-1,0.6-1.3,1.8-0.7,2.7l1,1.7c0.4,0.6,1,1,1.7,1c0.3,0,0.7-0.1,1-0.3
			c1-0.6,1.3-1.8,0.7-2.7L288.7,758.7z"/>
		<path class="st2" d="M283.7,750c-0.6-1-1.8-1.3-2.7-0.7c-1,0.6-1.3,1.8-0.7,2.7l1,1.7c0.4,0.6,1,1,1.7,1c0.3,0,0.7-0.1,1-0.3
			c1-0.6,1.3-1.8,0.7-2.7L283.7,750z"/>
		<path class="st2" d="M286,754.5c0.3,0.2,0.7,0.3,1,0.3c0.7,0,1.4-0.4,1.7-1l1-1.7c0.6-1,0.2-2.2-0.7-2.7c-1-0.6-2.2-0.2-2.7,0.7
			l-1,1.7C284.7,752.7,285,753.9,286,754.5z"/>
		<path class="st2" d="M284,757.9c-1-0.6-2.2-0.2-2.7,0.7l-1,1.7c-0.6,1-0.2,2.2,0.7,2.7c0.3,0.2,0.7,0.3,1,0.3c0.7,0,1.4-0.4,1.7-1
			l1-1.7C285.3,759.7,285,758.5,284,757.9z"/>
		<path class="st2" d="M283,756.2c0-1.1-0.9-2-2-2h-2c-1.1,0-2,0.9-2,2c0,1.1,0.9,2,2,2h2C282.1,758.2,283,757.3,283,756.2z"/>
		<path class="st2" d="M291,754.2h-2c-1.1,0-2,0.9-2,2c0,1.1,0.9,2,2,2h2c1.1,0,2-0.9,2-2C293,755.1,292.1,754.2,291,754.2z"/>
	</g>
	<g>
		<path class="st1" d="M394.6,748.6l-2.6,2.6V746c0-1.1-0.9-2-2-2c-1.1,0-2,0.9-2,2v5.2l-2.6-2.6c-0.8-0.8-2-0.8-2.8,0
			c-0.8,0.8-0.8,2,0,2.8l6,6c0.4,0.4,0.9,0.6,1.4,0.6c0.5,0,1-0.2,1.4-0.6l6-6c0.8-0.8,0.8-2,0-2.8
			C396.6,747.8,395.4,747.8,394.6,748.6z"/>
		<path class="st1" d="M399.9,722.1c-1-1-2-1.8-3.2-2.4c-1.6-0.9-3.4-1.4-5.2-1.6c-0.5,0-0.9-0.1-1.4-0.1c-7.7,0-14,6.3-14,14
			c0,1.5,0.3,3.1,0.7,4.5c0.3,0.9,0.7,1.7,1.1,2.5c0.4,0.6,1,1,1.7,1l0,0h20.8c0.2,0,0.4,0,0.5-0.1c0.5-0.1,0.9-0.5,1.2-0.9
			c0.5-0.8,0.8-1.6,1.1-2.5c0.5-1.4,0.7-3,0.7-4.5c0-2.9-0.9-5.6-2.4-7.8C401.1,723.4,400.5,722.7,399.9,722.1z M390.2,722
			c-0.5,0-1,0-1.4,0.1h0c0.4-0.1,0.8-0.1,1.2-0.1C390.1,722,390.1,722,390.2,722z M380.8,736C380.8,736,380.8,736,380.8,736
			C380.8,736,380.9,736,380.8,736L380.8,736z"/>
	</g>
	<g>
		<path class="st1" d="M505.4,744.6c-0.8-0.8-2-0.8-2.8,0l-6,6c-0.8,0.8-0.8,2,0,2.8c0.8,0.8,2,0.8,2.8,0l2.6-2.6v5.2
			c0,1.1,0.9,2,2,2c1.1,0,2-0.9,2-2v-5.2l2.6,2.6c0.4,0.4,0.9,0.6,1.4,0.6c0.5,0,1-0.2,1.4-0.6c0.8-0.8,0.8-2,0-2.8L505.4,744.6z"/>
		<path class="st1" d="M513.9,722.1c-1-1-2-1.8-3.2-2.4c-1.6-0.9-3.4-1.4-5.2-1.6c-0.5,0-0.9-0.1-1.4-0.1c-7.7,0-14,6.3-14,14
			c0,1.5,0.3,3.1,0.7,4.5c0.3,0.9,0.7,1.7,1.1,2.5c0.4,0.6,1,1,1.7,1l0,0h20.8c0.2,0,0.4,0,0.5-0.1c0.5-0.1,0.9-0.5,1.2-0.9
			c0.5-0.8,0.8-1.6,1.1-2.5c0.5-1.4,0.7-3,0.7-4.5c0-2.9-0.9-5.6-2.4-7.8C515.1,723.4,514.5,722.7,513.9,722.1z M504.2,722
			c-0.5,0-1,0-1.4,0.1h0c0.4-0.1,0.8-0.1,1.2-0.1C504.1,722,504.1,722,504.2,722z M494.8,736C494.8,736,494.8,736,494.8,736
			C494.8,736,494.9,736,494.8,736L494.8,736z"/>
	</g>
	<path class="st2" d="M66,838c-0.5,0-1.1,0.1-1.7,0.2C62.2,831,55.7,826,48,826c-7.7,0-14.2,5-16.3,12.2c-0.6-0.1-1.2-0.2-1.7-0.2
		c-6.1,0-11,4.9-11,11s4.9,11,11,11h5.4l-2.4,9.5c-0.3,1.1,0.4,2.2,1.5,2.4c0.2,0,0.3,0.1,0.5,0.1c0.9,0,1.7-0.6,1.9-1.5l2.6-10.5
		h5.4l-3.9,15.5c-0.3,1.1,0.4,2.2,1.5,2.4c0.2,0,0.3,0.1,0.5,0.1c0.9,0,1.7-0.6,1.9-1.5l4.1-16.5h5.4l-2.4,9.5
		c-0.3,1.1,0.4,2.2,1.5,2.4c0.2,0,0.3,0.1,0.5,0.1c0.9,0,1.7-0.6,1.9-1.5l2.6-10.5H66c6.1,0,11-4.9,11-11S72.1,838,66,838z"/>
	<path class="st2" d="M180,838c-0.5,0-1.1,0.1-1.7,0.2c-2.1-7.2-8.6-12.2-16.3-12.2c-7.7,0-14.2,5-16.3,12.2
		c-0.6-0.1-1.2-0.2-1.7-0.2c-6.1,0-11,4.9-11,11s4.9,11,11,11h5.4l-2.4,9.5c-0.3,1.1,0.4,2.2,1.5,2.4c0.2,0,0.3,0.1,0.5,0.1
		c0.9,0,1.7-0.6,1.9-1.5l2.6-10.5h5.4l-3.9,15.5c-0.3,1.1,0.4,2.2,1.5,2.4c0.2,0,0.3,0.1,0.5,0.1c0.9,0,1.7-0.6,1.9-1.5l4.1-16.5
		h5.4l-2.4,9.5c-0.3,1.1,0.4,2.2,1.5,2.4c0.2,0,0.3,0.1,0.5,0.1c0.9,0,1.7-0.6,1.9-1.5l2.6-10.5h7.4c6.1,0,11-4.9,11-11
		S186.1,838,180,838z"/>
	<path class="st2" d="M294,838c-0.5,0-1.1,0.1-1.7,0.2c-2.1-7.2-8.6-12.2-16.3-12.2c-7.7,0-14.2,5-16.3,12.2
		c-0.6-0.1-1.2-0.2-1.7-0.2c-6.1,0-11,4.9-11,11s4.9,11,11,11h5.4l-2.4,9.5c-0.3,1.1,0.4,2.2,1.5,2.4c0.2,0,0.3,0.1,0.5,0.1
		c0.9,0,1.7-0.6,1.9-1.5l2.6-10.5h5.4l-3.9,15.5c-0.3,1.1,0.4,2.2,1.5,2.4c0.2,0,0.3,0.1,0.5,0.1c0.9,0,1.7-0.6,1.9-1.5l4.1-16.5
		h5.4l-2.4,9.5c-0.3,1.1,0.4,2.2,1.5,2.4c0.2,0,0.3,0.1,0.5,0.1c0.9,0,1.7-0.6,1.9-1.5l2.6-10.5h7.4c6.1,0,11-4.9,11-11
		S300.1,838,294,838z"/>
	<g>
		<path class="st5" d="M489,836h12c1.1,0,2-0.9,2-2s-0.9-2-2-2h-12c-1.1,0-2,0.9-2,2S487.9,836,489,836z"/>
		<path class="st5" d="M477,842h24c1.1,0,2-0.9,2-2s-0.9-2-2-2h-24c-1.1,0-2,0.9-2,2S475.9,842,477,842z"/>
		<path class="st5" d="M471,848h24c1.1,0,2-0.9,2-2s-0.9-2-2-2h-24c-1.1,0-2,0.9-2,2S469.9,848,471,848z"/>
		<path class="st5" d="M530,852c0-1.1-0.9-2-2-2h-60c-1.1,0-2,0.9-2,2s0.9,2,2,2h60C529.1,854,530,853.1,530,852z"/>
		<path class="st5" d="M528,856h-57c-1.1,0-2,0.9-2,2s0.9,2,2,2h57c1.1,0,2-0.9,2-2S529.1,856,528,856z"/>
		<path class="st5" d="M489,862l-12,0c-1.1,0-2,0.9-2,2c0,1.1,0.9,2,2,2l12,0c1.1,0,2-0.9,2-2S490.1,862,489,862z"/>
		<path class="st5" d="M508,842h8c1.1,0,2-0.9,2-2s-0.9-2-2-2h-8c-1.1,0-2,0.9-2,2S506.9,842,508,842z"/>
		<path class="st5" d="M499,846c0,1.1,0.9,2,2,2h21c1.1,0,2-0.9,2-2s-0.9-2-2-2h-21C499.9,844,499,844.9,499,846z"/>
		<path class="st5" d="M522,862l-27,0c-1.1,0-2,0.9-2,2s0.9,2,2,2l27,0c1.1,0,2-0.9,2-2C524,862.9,523.1,862,522,862z"/>
	</g>
	<path class="st4" d="M180,952c-0.5,0-1.1,0.1-1.7,0.2c-2.1-7.2-8.6-12.2-16.3-12.2c-7.7,0-14.2,5-16.3,12.2
		c-0.6-0.1-1.2-0.2-1.7-0.2c-6.1,0-11,4.9-11,11s4.9,11,11,11h36c6.1,0,11-4.9,11-11S186.1,952,180,952z"/>
	<g>
		<path class="st2" d="M249,965c1.1,0,2-0.9,2-2c0-3.9,3.1-7,7-7c0.3,0,0.7,0.1,1.2,0.2v1.8c0,1.1,0.9,2,2,2s2-0.9,2-2v-3.2
			c1.1-6.3,6.4-10.8,12.8-10.8s11.7,4.5,12.8,10.8v3.2c0,1.1,0.9,2,2,2c1.1,0,2-0.9,2-2v-1.8c0.5-0.1,0.9-0.2,1.2-0.2
			c3.9,0,7,3.1,7,7c0,1.1,0.9,2,2,2s2-0.9,2-2c0-6.1-4.9-11-11-11c-0.5,0-1.1,0.1-1.7,0.2c-2.1-7.2-8.6-12.2-16.3-12.2
			s-14.2,5-16.3,12.2c-0.6-0.1-1.2-0.2-1.7-0.2c-6.1,0-11,4.9-11,11C247,964.1,247.9,965,249,965z"/>
		<path class="st2" d="M268,971c0,1.1,0.9,2,2,2h36c1.1,0,2-0.9,2-2s-0.9-2-2-2h-36C268.9,969,268,969.9,268,971z"/>
		<path class="st2" d="M276,976c-1.1,0-2,0.9-2,2s0.9,2,2,2h27c1.1,0,2-0.9,2-2s-0.9-2-2-2H276z"/>
		<path class="st2" d="M306,983h-24c-1.1,0-2,0.9-2,2s0.9,2,2,2h24c1.1,0,2-0.9,2-2S307.1,983,306,983z"/>
		<path class="st2" d="M246,973h18c1.1,0,2-0.9,2-2s-0.9-2-2-2h-18c-1.1,0-2,0.9-2,2S244.9,973,246,973z"/>
		<path class="st2" d="M249,976c-1.1,0-2,0.9-2,2s0.9,2,2,2h21c1.1,0,2-0.9,2-2s-0.9-2-2-2H249z"/>
		<path class="st2" d="M276,983h-30c-1.1,0-2,0.9-2,2s0.9,2,2,2h30c1.1,0,2-0.9,2-2S277.1,983,276,983z"/>
	</g>
	<path class="st4" d="M294,952c-0.5,0-1.1,0.1-1.7,0.2c-2.1-7.2-8.6-12.2-16.3-12.2c-7.7,0-14.2,5-16.3,12.2
		c-0.6-0.1-1.2-0.2-1.7-0.2c-6.1,0-11,4.9-11,11s4.9,11,11,11h36c6.1,0,11-4.9,11-11S300.1,952,294,952z"/>
	<g>
		<path class="st2" d="M363,965c1.1,0,2-0.9,2-2c0-3.9,3.1-7,7-7c0.3,0,0.7,0.1,1.2,0.2v1.8c0,1.1,0.9,2,2,2s2-0.9,2-2v-3.2
			c1.1-6.3,6.4-10.8,12.8-10.8s11.7,4.5,12.8,10.8v3.2c0,1.1,0.9,2,2,2c1.1,0,2-0.9,2-2v-1.8c0.5-0.1,0.9-0.2,1.2-0.2
			c3.9,0,7,3.1,7,7c0,1.1,0.9,2,2,2c1.1,0,2-0.9,2-2c0-6.1-4.9-11-11-11c-0.5,0-1.1,0.1-1.7,0.2c-2.1-7.2-8.6-12.2-16.3-12.2
			c-7.7,0-14.2,5-16.3,12.2c-0.6-0.1-1.2-0.2-1.7-0.2c-6.1,0-11,4.9-11,11C361,964.1,361.9,965,363,965z"/>
		<path class="st2" d="M382,971c0,1.1,0.9,2,2,2h36c1.1,0,2-0.9,2-2s-0.9-2-2-2h-36C382.9,969,382,969.9,382,971z"/>
		<path class="st2" d="M390,976c-1.1,0-2,0.9-2,2s0.9,2,2,2h27c1.1,0,2-0.9,2-2s-0.9-2-2-2H390z"/>
		<path class="st2" d="M420,983h-24c-1.1,0-2,0.9-2,2s0.9,2,2,2h24c1.1,0,2-0.9,2-2S421.1,983,420,983z"/>
		<path class="st2" d="M360,973h18c1.1,0,2-0.9,2-2s-0.9-2-2-2h-18c-1.1,0-2,0.9-2,2S358.9,973,360,973z"/>
		<path class="st2" d="M363,976c-1.1,0-2,0.9-2,2s0.9,2,2,2h21c1.1,0,2-0.9,2-2s-0.9-2-2-2H363z"/>
		<path class="st2" d="M390,983h-30c-1.1,0-2,0.9-2,2s0.9,2,2,2h30c1.1,0,2-0.9,2-2S391.1,983,390,983z"/>
	</g>
	<path class="st4" d="M408,952c-0.5,0-1.1,0.1-1.7,0.2c-2.1-7.2-8.6-12.2-16.3-12.2c-7.7,0-14.2,5-16.3,12.2
		c-0.6-0.1-1.2-0.2-1.7-0.2c-6.1,0-11,4.9-11,11s4.9,11,11,11h36c6.1,0,11-4.9,11-11S414.1,952,408,952z"/>
	<path class="st4" d="M522,946c-0.5,0-1.1,0.1-1.7,0.2c-2.1-7.2-8.6-12.2-16.3-12.2c-7.7,0-14.2,5-16.3,12.2
		c-0.6-0.1-1.2-0.2-1.7-0.2c-6.1,0-11,4.9-11,11s4.9,11,11,11h36c6.1,0,11-4.9,11-11S528.1,946,522,946z"/>
	<path class="st4" d="M408,382c-0.5,0-1.1,0.1-1.7,0.2c-2.1-7.2-8.6-12.2-16.3-12.2c-7.7,0-14.2,5-16.3,12.2
		c-0.6-0.1-1.2-0.2-1.7-0.2c-6.1,0-11,4.9-11,11s4.9,11,11,11h36c6.1,0,11-4.9,11-11S414.1,382,408,382z"/>
	<path class="st4" d="M522,382c-0.5,0-1.1,0.1-1.7,0.2c-2.1-7.2-8.6-12.2-16.3-12.2c-7.7,0-14.2,5-16.3,12.2
		c-0.6-0.1-1.2-0.2-1.7-0.2c-6.1,0-11,4.9-11,11s4.9,11,11,11h36c6.1,0,11-4.9,11-11S528.1,382,522,382z"/>
	<path class="st4" d="M66,496c-0.5,0-1.1,0.1-1.7,0.2C62.2,489,55.7,484,48,484c-7.7,0-14.2,5-16.3,12.2c-0.6-0.1-1.2-0.2-1.7-0.2
		c-6.1,0-11,4.9-11,11c0,6.1,4.9,11,11,11h36c6.1,0,11-4.9,11-11C77,500.9,72.1,496,66,496z"/>
	<path class="st4" d="M180,496c-0.5,0-1.1,0.1-1.7,0.2c-2.1-7.2-8.6-12.2-16.3-12.2c-7.7,0-14.2,5-16.3,12.2
		c-0.6-0.1-1.2-0.2-1.7-0.2c-6.1,0-11,4.9-11,11c0,6.1,4.9,11,11,11h36c6.1,0,11-4.9,11-11C191,500.9,186.1,496,180,496z"/>
	<path class="st4" d="M294,496c-0.5,0-1.1,0.1-1.7,0.2c-2.1-7.2-8.6-12.2-16.3-12.2c-7.7,0-14.2,5-16.3,12.2
		c-0.6-0.1-1.2-0.2-1.7-0.2c-6.1,0-11,4.9-11,11c0,6.1,4.9,11,11,11h36c6.1,0,11-4.9,11-11C305,500.9,300.1,496,294,496z"/>
	<path class="st4" d="M408,496c-0.5,0-1.1,0.1-1.7,0.2c-2.1-7.2-8.6-12.2-16.3-12.2c-7.7,0-14.2,5-16.3,12.2
		c-0.6-0.1-1.2-0.2-1.7-0.2c-6.1,0-11,4.9-11,11c0,6.1,4.9,11,11,11h36c6.1,0,11-4.9,11-11C419,500.9,414.1,496,408,496z"/>
	<path class="st4" d="M522,496c-0.5,0-1.1,0.1-1.7,0.2c-2.1-7.2-8.6-12.2-16.3-12.2c-7.7,0-14.2,5-16.3,12.2
		c-0.6-0.1-1.2-0.2-1.7-0.2c-6.1,0-11,4.9-11,11c0,6.1,4.9,11,11,11h36c6.1,0,11-4.9,11-11C533,500.9,528.1,496,522,496z"/>
	<path class="st4" d="M66,610c-0.5,0-1.1,0.1-1.7,0.2C62.2,603,55.7,598,48,598c-7.7,0-14.2,5-16.3,12.2c-0.6-0.1-1.2-0.2-1.7-0.2
		c-6.1,0-11,4.9-11,11s4.9,11,11,11h36c6.1,0,11-4.9,11-11S72.1,610,66,610z"/>
	<path class="st4" d="M180,610c-0.5,0-1.1,0.1-1.7,0.2c-2.1-7.2-8.6-12.2-16.3-12.2c-7.7,0-14.2,5-16.3,12.2
		c-0.6-0.1-1.2-0.2-1.7-0.2c-6.1,0-11,4.9-11,11s4.9,11,11,11h36c6.1,0,11-4.9,11-11S186.1,610,180,610z"/>
	<path class="st4" d="M67,725c-0.5,0-1.1,0.1-1.7,0.2C63.2,718,56.7,713,49,713c-7.7,0-14.2,5-16.3,12.2c-0.6-0.1-1.2-0.2-1.7-0.2
		c-6.1,0-11,4.9-11,11s4.9,11,11,11h36c6.1,0,11-4.9,11-11S73.1,725,67,725z"/>
	<path class="st4" d="M180,724c-0.5,0-1.1,0.1-1.7,0.2c-2.1-7.2-8.6-12.2-16.3-12.2c-7.7,0-14.2,5-16.3,12.2
		c-0.6-0.1-1.2-0.2-1.7-0.2c-6.1,0-11,4.9-11,11s4.9,11,11,11h36c6.1,0,11-4.9,11-11S186.1,724,180,724z"/>
	<path class="st4" d="M294,724c-0.5,0-1.1,0.1-1.7,0.2c-2.1-7.2-8.6-12.2-16.3-12.2c-7.7,0-14.2,5-16.3,12.2
		c-0.6-0.1-1.2-0.2-1.7-0.2c-6.1,0-11,4.9-11,11s4.9,11,11,11h36c6.1,0,11-4.9,11-11S300.1,724,294,724z"/>
	<path class="st4" d="M66,838c-0.5,0-1.1,0.1-1.7,0.2C62.2,831,55.7,826,48,826c-7.7,0-14.2,5-16.3,12.2c-0.6-0.1-1.2-0.2-1.7-0.2
		c-6.1,0-11,4.9-11,11s4.9,11,11,11h36c6.1,0,11-4.9,11-11S72.1,838,66,838z"/>
	<path class="st4" d="M180,838c-0.5,0-1.1,0.1-1.7,0.2c-2.1-7.2-8.6-12.2-16.3-12.2c-7.7,0-14.2,5-16.3,12.2
		c-0.6-0.1-1.2-0.2-1.7-0.2c-6.1,0-11,4.9-11,11s4.9,11,11,11h36c6.1,0,11-4.9,11-11S186.1,838,180,838z"/>
	<path class="st4" d="M294,838c-0.5,0-1.1,0.1-1.7,0.2c-2.1-7.2-8.6-12.2-16.3-12.2c-7.7,0-14.2,5-16.3,12.2
		c-0.6-0.1-1.2-0.2-1.7-0.2c-6.1,0-11,4.9-11,11s4.9,11,11,11h36c6.1,0,11-4.9,11-11S300.1,838,294,838z"/>
	<path class="st4" d="M66,1066c-0.5,0-1.1,0.1-1.7,0.2c-2.1-7.2-8.6-12.2-16.3-12.2c-7.7,0-14.2,5-16.3,12.2
		c-0.6-0.1-1.2-0.2-1.7-0.2c-6.1,0-11,4.9-11,11s4.9,11,11,11h36c6.1,0,11-4.9,11-11S72.1,1066,66,1066z"/>
	<path class="st4" d="M66,1180c-0.5,0-1.1,0.1-1.7,0.2c-2.1-7.2-8.6-12.2-16.3-12.2c-7.7,0-14.2,5-16.3,12.2
		c-0.6-0.1-1.2-0.2-1.7-0.2c-6.1,0-11,4.9-11,11s4.9,11,11,11h36c6.1,0,11-4.9,11-11S72.1,1180,66,1180z"/>
	<path class="st4" d="M408,1180c-0.5,0-1.1,0.1-1.7,0.2c-2.1-7.2-8.6-12.2-16.3-12.2c-7.7,0-14.2,5-16.3,12.2
		c-0.6-0.1-1.2-0.2-1.7-0.2c-6.1,0-11,4.9-11,11s4.9,11,11,11h36c6.1,0,11-4.9,11-11S414.1,1180,408,1180z"/>
	<path class="st4" d="M295,1293c-0.5,0-1.1,0.1-1.7,0.2c-2.1-7.2-8.6-12.2-16.3-12.2c-7.7,0-14.2,5-16.3,12.2
		c-0.6-0.1-1.2-0.2-1.7-0.2c-6.1,0-11,4.9-11,11s4.9,11,11,11h36c6.1,0,11-4.9,11-11S301.1,1293,295,1293z"/>
	<g>
		<path class="st5" d="M411,1298c2.2,0,4,1.8,4,4s-1.8,4-4,4h-21c-1.1,0-2,0.9-2,2s0.9,2,2,2h21c4.4,0,8-3.6,8-8s-3.6-8-8-8
			c-1.1,0-2,0.9-2,2S409.9,1298,411,1298z"/>
		<path class="st4" d="M408,1312l-30,0l-6,0c-3.9,0-7-3.1-7-7s3.1-7,7-7c0.3,0,0.7,0.1,1.2,0.2v1.8c0,1.1,0.9,2,2,2c1.1,0,2-0.9,2-2
			v-3.2c1.1-6.3,6.4-10.8,12.8-10.8c7.2,0,13,5.8,13,13v1c0,1.1,0.9,2,2,2c1.1,0,2-0.9,2-2v-1c0-9.4-7.6-17-17-17
			c-7.7,0-14.2,5-16.3,12.2c-0.6-0.1-1.2-0.2-1.7-0.2c-6.1,0-11,4.9-11,11s4.9,11,11,11l6,0l30,0c3.9,0,7,3.1,7,7c0,1.1,0.9,2,2,2
			c1.1,0,2-0.9,2-2C419,1316.9,414.1,1312,408,1312z"/>
		<path class="st5" d="M408,1318h-36c-1.1,0-2,0.9-2,2s0.9,2,2,2h36c0.6,0,1,0.4,1,1s-0.4,1-1,1c-1.1,0-2,0.9-2,2s0.9,2,2,2
			c2.8,0,5-2.2,5-5S410.8,1318,408,1318z"/>
		<path class="st5" d="M422,1304c-1.1,0-2,0.9-2,2s0.9,2,2,2c0.6,0,1,0.4,1,1s-0.4,1-1,1h-4c-1.1,0-2,0.9-2,2s0.9,2,2,2h4
			c2.8,0,5-2.2,5-5S424.8,1304,422,1304z"/>
	</g>
	<g>
		<path class="st5" d="M525,1298c2.2,0,4,1.8,4,4s-1.8,4-4,4h-21c-1.1,0-2,0.9-2,2s0.9,2,2,2h21c4.4,0,8-3.6,8-8s-3.6-8-8-8
			c-1.1,0-2,0.9-2,2S523.9,1298,525,1298z"/>
		<path class="st4" d="M522,1312l-30,0l-6,0c-3.9,0-7-3.1-7-7s3.1-7,7-7c0.3,0,0.7,0.1,1.2,0.2v1.8c0,1.1,0.9,2,2,2c1.1,0,2-0.9,2-2
			v-3.2c1.1-6.3,6.4-10.8,12.8-10.8c7.2,0,13,5.8,13,13v1c0,1.1,0.9,2,2,2s2-0.9,2-2v-1c0-9.4-7.6-17-17-17c-7.7,0-14.2,5-16.3,12.2
			c-0.6-0.1-1.2-0.2-1.7-0.2c-6.1,0-11,4.9-11,11s4.9,11,11,11l6,0l30,0c3.9,0,7,3.1,7,7c0,1.1,0.9,2,2,2s2-0.9,2-2
			C533,1316.9,528.1,1312,522,1312z"/>
		<path class="st5" d="M522,1318h-36c-1.1,0-2,0.9-2,2s0.9,2,2,2h36c0.6,0,1,0.4,1,1s-0.4,1-1,1c-1.1,0-2,0.9-2,2s0.9,2,2,2
			c2.8,0,5-2.2,5-5S524.8,1318,522,1318z"/>
		<path class="st5" d="M536,1304c-1.1,0-2,0.9-2,2s0.9,2,2,2c0.6,0,1,0.4,1,1s-0.4,1-1,1h-4c-1.1,0-2,0.9-2,2s0.9,2,2,2h4
			c2.8,0,5-2.2,5-5S538.8,1304,536,1304z"/>
	</g>
	<path class="st4" d="M408,1066c-0.5,0-1.1,0.1-1.7,0.2c-2.1-7.2-8.6-12.2-16.3-12.2c-7.7,0-14.2,5-16.3,12.2
		c-0.6-0.1-1.2-0.2-1.7-0.2c-6.1,0-11,4.9-11,11s4.9,11,11,11h36c6.1,0,11-4.9,11-11S414.1,1066,408,1066z"/>
	<path class="st2" d="M150.4,1089.8c-0.8,1.1-3.4,4.7-3.4,7.2c0,2.9,2.1,5,5,5c2.9,0,5-2.1,5-5c0-2.5-2.6-6.1-3.4-7.2
		C152.8,1088.8,151.2,1088.8,150.4,1089.8z"/>
	<path class="st2" d="M168.4,1089.8c-0.8,1.1-3.4,4.7-3.4,7.2c0,2.9,2.1,5,5,5c2.9,0,5-2.1,5-5c0-2.5-2.6-6.1-3.4-7.2
		C170.8,1088.8,169.2,1088.8,168.4,1089.8z"/>
	<path class="st2" d="M159.4,1100.8c-0.8,1.1-3.4,4.7-3.4,7.2c0,2.9,2.1,5,5,5c2.9,0,5-2.1,5-5c0-2.5-2.6-6.1-3.4-7.2
		C161.8,1099.8,160.2,1099.8,159.4,1100.8z"/>
	<path class="st4" d="M180,1066c-0.5,0-1.1,0.1-1.7,0.2c-2.1-7.2-8.6-12.2-16.3-12.2c-7.7,0-14.2,5-16.3,12.2
		c-0.6-0.1-1.2-0.2-1.7-0.2c-6.1,0-11,4.9-11,11s4.9,11,11,11h36c6.1,0,11-4.9,11-11S186.1,1066,180,1066z"/>
	<path class="st2" d="M36.4,1089.8c-0.8,1.1-3.4,4.7-3.4,7.2c0,2.9,2.1,5,5,5s5-2.1,5-5c0-2.5-2.6-6.1-3.4-7.2
		C38.8,1088.7,37.2,1088.7,36.4,1089.8z"/>
	<path class="st2" d="M54.4,1089.8c-0.8,1.1-3.4,4.7-3.4,7.2c0,2.9,2.1,5,5,5s5-2.1,5-5c0-2.5-2.6-6.1-3.4-7.2
		C56.8,1088.7,55.2,1088.7,54.4,1089.8z"/>
	<path class="st2" d="M45.4,1100.8c-0.8,1.1-3.4,4.7-3.4,7.2c0,2.9,2.1,5,5,5s5-2.1,5-5c0-2.5-2.6-6.1-3.4-7.2
		C47.8,1099.7,46.2,1099.7,45.4,1100.8z"/>
	<path class="st2" d="M278.7,1089.6c-0.7-0.8-2.1-0.8-2.8,0c-0.6,0.7-5.9,7-5.9,12.1c0,1.9,0.6,3.6,1.8,5c0.9,1.1,2.6,2.3,5.5,2.3
		c4.8,0,7.3-3.7,7.3-7.3C284.5,1096.6,279.3,1090.3,278.7,1089.6z M277.3,1106.3L277.3,1106.3l0,0.9L277.3,1106.3z"/>
	<path class="st4" d="M294,1066c-0.5,0-1.1,0.1-1.7,0.2c-2.1-7.2-8.6-12.2-16.3-12.2c-7.7,0-14.2,5-16.3,12.2
		c-0.6-0.1-1.2-0.2-1.7-0.2c-6.1,0-11,4.9-11,11s4.9,11,11,11h36c6.1,0,11-4.9,11-11S300.1,1066,294,1066z"/>
	<path class="st2" d="M393.1,1089.6c-0.7-0.8-2.1-0.8-2.8,0c-0.6,0.7-5.9,7-5.9,12.1c0,1.9,0.6,3.6,1.8,5c0.9,1.1,2.6,2.3,5.5,2.3
		c4.8,0,7.3-3.7,7.3-7.3C399,1096.7,393.7,1090.3,393.1,1089.6z M391.7,1106.3L391.7,1106.3l0,0.9L391.7,1106.3z"/>
	<path class="st4" d="M294,1180c-0.5,0-1.1,0.1-1.7,0.2c-2.1-7.2-8.6-12.2-16.3-12.2c-7.7,0-14.2,5-16.3,12.2
		c-0.6-0.1-1.2-0.2-1.7-0.2c-6.1,0-11,4.9-11,11s4.9,11,11,11h36c6.1,0,11-4.9,11-11S300.1,1180,294,1180z"/>
	<path class="st4" d="M180,1180c-0.5,0-1.1,0.1-1.7,0.2c-2.1-7.2-8.6-12.2-16.3-12.2c-7.7,0-14.2,5-16.3,12.2
		c-0.6-0.1-1.2-0.2-1.7-0.2c-6.1,0-11,4.9-11,11s4.9,11,11,11h36c6.1,0,11-4.9,11-11S186.1,1180,180,1180z"/>
	<path class="st4" d="M522,1180c-0.5,0-1.1,0.1-1.7,0.2c-2.1-7.2-8.6-12.2-16.3-12.2c-7.7,0-14.2,5-16.3,12.2
		c-0.6-0.1-1.2-0.2-1.7-0.2c-6.1,0-11,4.9-11,11s4.9,11,11,11h36c6.1,0,11-4.9,11-11S528.1,1180,522,1180z"/>
	<path class="st4" d="M522,1066c-0.5,0-1.1,0.1-1.7,0.2c-2.1-7.2-8.6-12.2-16.3-12.2c-7.7,0-14.2,5-16.3,12.2
		c-0.6-0.1-1.2-0.2-1.7-0.2c-6.1,0-11,4.9-11,11s4.9,11,11,11h36c6.1,0,11-4.9,11-11S528.1,1066,522,1066z"/>
	<path class="st2" d="M507.1,1089.6c-0.7-0.8-2.1-0.8-2.8,0c-0.6,0.7-5.9,7-5.9,12.1c0,1.9,0.6,3.6,1.8,5c0.9,1.1,2.6,2.3,5.5,2.3
		c4.8,0,7.3-3.7,7.3-7.3C513,1096.7,507.7,1090.3,507.1,1089.6z M505.7,1106.3L505.7,1106.3l0,0.9L505.7,1106.3z"/>
	<path class="st4" d="M66,1294c-0.5,0-1.1,0.1-1.7,0.2c-2.1-7.2-8.6-12.2-16.3-12.2c-7.7,0-14.2,5-16.3,12.2
		c-0.6-0.1-1.2-0.2-1.7-0.2c-6.1,0-11,4.9-11,11s4.9,11,11,11h36c6.1,0,11-4.9,11-11S72.1,1294,66,1294z"/>
	<path class="st4" d="M522.8,1293.4c-0.5,0-1.1,0.1-1.7,0.2c-2.1-7.4-8.8-12.5-16.6-12.5c-7.8,0-14.5,5.2-16.6,12.5
		c-0.6-0.1-1.2-0.2-1.7-0.2c-6.2,0-11.2,5.1-11.2,11.3c0,6.2,5,11.3,11.2,11.3h36.6c6.2,0,11.2-5.1,11.2-11.3
		C534,1298.4,529,1293.4,522.8,1293.4z"/>
	<path class="st4" d="M409,1293c-0.5,0-1.1,0.1-1.7,0.2c-2.1-7.2-8.6-12.2-16.3-12.2c-7.7,0-14.2,5-16.3,12.2
		c-0.6-0.1-1.2-0.2-1.7-0.2c-6.1,0-11,4.9-11,11s4.9,11,11,11h36c6.1,0,11-4.9,11-11S415.1,1293,409,1293z"/>
	<g>
		<path class="st5" d="M33,950h12c1.1,0,2-0.9,2-2s-0.9-2-2-2H33c-1.1,0-2,0.9-2,2S31.9,950,33,950z"/>
		<path class="st5" d="M21,956h24c1.1,0,2-0.9,2-2s-0.9-2-2-2H21c-1.1,0-2,0.9-2,2S19.9,956,21,956z"/>
		<path class="st5" d="M15,962h24c1.1,0,2-0.9,2-2s-0.9-2-2-2H15c-1.1,0-2,0.9-2,2S13.9,962,15,962z"/>
		<path class="st5" d="M74,966c0-1.1-0.9-2-2-2H12c-1.1,0-2,0.9-2,2s0.9,2,2,2h60C73.1,968,74,967.1,74,966z"/>
		<path class="st5" d="M72,970H15c-1.1,0-2,0.9-2,2s0.9,2,2,2h57c1.1,0,2-0.9,2-2S73.1,970,72,970z"/>
		<path class="st5" d="M33,976l-12,0c-1.1,0-2,0.9-2,2c0,1.1,0.9,2,2,2l12,0c1.1,0,2-0.9,2-2S34.1,976,33,976z"/>
		<path class="st5" d="M52,956h8c1.1,0,2-0.9,2-2s-0.9-2-2-2h-8c-1.1,0-2,0.9-2,2S50.9,956,52,956z"/>
		<path class="st5" d="M43,960c0,1.1,0.9,2,2,2h21c1.1,0,2-0.9,2-2s-0.9-2-2-2H45C43.9,958,43,958.9,43,960z"/>
		<path class="st5" d="M66,976l-27,0c-1.1,0-2,0.9-2,2s0.9,2,2,2l27,0c1.1,0,2-0.9,2-2C68,976.9,67.1,976,66,976z"/>
	</g>
	<g>
		<path class="st1" d="M148,54c0,2.4,0.7,4.9,1.9,7c0.4,0.6,1,1,1.7,1h20.8c0.7,0,1.4-0.4,1.7-1c1.2-2.1,1.9-4.6,1.9-7
			c0-7.7-6.3-14-14-14S148,46.3,148,54z M152.8,58C152.8,58,152.8,58,152.8,58C152.8,58,152.9,58,152.8,58L152.8,58z M160.8,44.1
			c0.4-0.1,0.8-0.1,1.2-0.1c0.1,0,0.1,0,0.2,0C161.7,44,161.2,44,160.8,44.1z"/>
		<polygon class="st1" points="162.1,27.6 157.2,36.1 167,36.1 		"/>
		<polygon class="st1" points="144.1,49.2 135.6,54.2 144.1,59.1 		"/>
		<polygon class="st1" points="180.1,59.1 188.6,54.2 180.1,49.2 		"/>
		<polygon class="st1" points="178.8,37.4 173.3,39.1 177.1,42.9 		"/>
		<polygon class="st1" points="147,42.9 150.8,39.1 145.3,37.4 		"/>
	</g>
	<g>
		<path class="st1" d="M288.3,53.4C286,49,281.3,46,276,46c-7.7,0-14,6.3-14,14c0,1.1,0.9,2,2,2h24c1.1,0,2-0.9,2-2
			c0-2-0.4-3.9-1.2-5.6C288.7,54,288.5,53.7,288.3,53.4z"/>
		<path class="st1" d="M266.7,64.1L266.7,64.1C266.7,64.1,266.7,64.1,266.7,64.1C266.7,64.1,266.7,64.1,266.7,64.1z"/>
		<polygon class="st1" points="275.9,33.8 271,42.3 280.8,42.3 		"/>
		<polygon class="st1" points="287.1,45.2 291,49.1 292.7,43.5 		"/>
		<polygon class="st1" points="259.1,43.5 260.8,49.1 264.7,45.2 		"/>
	</g>
	<g>
		<path class="st1" d="M390,52c-5,0-9.6,2.7-12.1,7c-0.4,0.6-0.4,1.4,0,2c0.4,0.6,1,1,1.7,1h20.8c0.7,0,1.4-0.4,1.7-1
			c0.4-0.6,0.4-1.4,0-2C399.6,54.7,395,52,390,52z M389.8,56c0.1,0,0.1,0,0.2,0c0,0,0.1,0,0.1,0C390,56,389.9,56,389.8,56z"/>
		<path class="st1" d="M380.8,70.2L380.8,70.2C380.8,70.2,380.8,70.2,380.8,70.2C380.8,70.2,380.8,70.2,380.8,70.2z"/>
		<polygon class="st1" points="390,39.8 385.1,48.3 394.9,48.3 		"/>
		<polygon class="st1" points="401.2,51.3 405,55.1 406.7,49.6 		"/>
		<polygon class="st1" points="373.2,49.6 374.9,55.1 378.7,51.3 		"/>
	</g>
	<g>
		<path class="st1" d="M375.9,732.4c0,2.4,0.7,4.9,1.9,7c0.4,0.6,1,1,1.7,1h20.8c0.7,0,1.4-0.4,1.7-1c1.2-2.1,1.9-4.6,1.9-7
			c0-7.7-6.3-14-14-14C382.2,718.4,375.9,724.6,375.9,732.4z M380.8,736.4C380.7,736.3,380.7,736.3,380.8,736.4
			C380.8,736.3,380.8,736.3,380.8,736.4L380.8,736.4z M388.7,722.4c0.4-0.1,0.8-0.1,1.2-0.1c0.1,0,0.1,0,0.2,0
			C389.6,722.4,389.1,722.4,388.7,722.4z"/>
		<polygon class="st1" points="390,706 385.1,714.5 394.9,714.5 		"/>
		<polygon class="st1" points="372,727.6 363.5,732.5 372,737.4 		"/>
		<polygon class="st1" points="408,737.4 416.5,732.5 408,727.6 		"/>
		<polygon class="st1" points="406.7,715.7 401.2,717.4 405,721.3 		"/>
		<polygon class="st1" points="374.9,721.3 378.7,717.4 373.2,715.7 		"/>
	</g>
	<g>
		<path class="st1" d="M490.1,732c0,2.4,0.7,4.9,1.9,7c0.4,0.6,1,1,1.7,1h20.8c0.7,0,1.4-0.4,1.7-1c1.2-2.1,1.9-4.6,1.9-7
			c0-7.7-6.3-14-14-14S490.1,724.3,490.1,732z M494.9,736C494.9,736,494.9,736,494.9,736C494.9,736,495,736,494.9,736L494.9,736z
			 M502.8,722.1c0.4-0.1,0.8-0.1,1.2-0.1c0.1,0,0.1,0,0.2,0C503.8,722,503.3,722,502.8,722.1z"/>
		<polygon class="st1" points="504.1,705.6 499.2,714.1 509,714.1 		"/>
		<polygon class="st1" points="486.1,727.2 477.7,732.2 486.1,737.1 		"/>
		<polygon class="st1" points="522.2,737.1 530.7,732.2 522.2,727.2 		"/>
		<polygon class="st1" points="520.9,715.4 515.3,717.1 519.2,720.9 		"/>
		<polygon class="st1" points="489.1,720.9 492.9,717.1 487.3,715.4 		"/>
	</g>
</g>
</svg>
