<?xml version="1.0" encoding="utf-8"?>
<!-- Generator: Adobe Illustrator 19.2.0, SVG Export Plug-In . SVG Version: 6.00 Build 0)  -->
<svg version="1.1" xmlns="http://www.w3.org/2000/svg" xmlns:xlink="http://www.w3.org/1999/xlink" x="0px" y="0px"
	 viewBox="0 0 96 96" style="enable-background:new 0 0 96 96;" xml:space="preserve">
<style type="text/css">
	.st0{display:none;}
	.st1{fill:#FFCC00;}
	.st2{fill:#5AC8FA;}
	.st3{fill:#5856D6;}
	.st4{fill:#007AFF;}
	.st5{fill:#FF9500;}
	.st6{fill:#FF3B30;}
</style>
<g id="Base" class="st0">
</g>
<g id="Dibujo">
	<g>
		<polyline class="st1" points="-74.3,-738.9 -81.3,-725.8 -76.1,-725.8 -81.9,-714.4 -69.7,-728.6 -75.9,-728.5 -67,-738.9 		"/>
		<polyline class="st1" points="-61.5,-743.8 -68.5,-730.7 -63.3,-730.7 -69.1,-719.3 -56.9,-733.5 -63.1,-733.4 -54.2,-743.8 		"/>
	</g>
	<g>
		<path class="st2" d="M-410.5-60v18c0,1.1,0.9,2,2,2c1.1,0,2-0.9,2-2v-18c0-1.1-0.9-2-2-2C-409.6-62-410.5-61.1-410.5-60z"/>
		<path class="st2" d="M-433.5-41h-2c-1.1,0-2,0.9-2,2v2c0,1.1,0.9,2,2,2h2c1.1,0,2-0.9,2-2v-2C-431.5-40.1-432.4-41-433.5-41z"/>
		<path class="st2" d="M-407.5-36h-2c-1.1,0-2,0.9-2,2v2c0,1.1,0.9,2,2,2h2c1.1,0,2-0.9,2-2v-2C-405.5-35.1-406.4-36-407.5-36z"/>
		<path class="st2" d="M-380.5-44h-2c-1.1,0-2,0.9-2,2v2c0,1.1,0.9,2,2,2h2c1.1,0,2-0.9,2-2v-2C-378.5-43.1-379.4-44-380.5-44z"/>
		<path class="st2" d="M-417.5-56c-1.1,0-2,0.9-2,2v15.1c-1.2-0.7-2.5-1.1-4-1.1h-2c-1.1,0-2,0.9-2,2s0.9,2,2,2h2c2.2,0,4,1.8,4,4
			c0,1.1,0.9,2,2,2s2-0.9,2-2v-22C-415.5-55.1-416.4-56-417.5-56z"/>
		<path class="st2" d="M-390.5-43c-2.7,0-5.1,0.9-7,2.5V-54c0-1.1-0.9-2-2-2c-1.1,0-2,0.9-2,2v22c0,0,0,0,0,0c0,1.1,0.9,2,2,2
			c1.1,0,2-0.9,2-2v0c0-3.9,3.1-7,7-7c1.1,0,2-0.9,2-2S-389.4-43-390.5-43z"/>
	</g>
	<g>
		<path class="st1" d="M-53.8-92c-7.7,0-14,6.3-14,14s6.3,14,14,14c7.7,0,14-6.3,14-14S-46.1-92-53.8-92z"/>
		<polygon class="st1" points="-53.8,-104.5 -48.9,-96 -58.7,-96 		"/>
		<polygon class="st1" points="-27.2,-78 -35.7,-73.1 -35.7,-82.9 		"/>
		<polygon class="st1" points="-37,-94.8 -38.7,-89.2 -42.6,-93.1 		"/>
		<polygon class="st1" points="-70.6,-94.8 -65,-93.1 -68.9,-89.2 		"/>
	</g>
	<g>
		<path class="st1" d="M59.9-206c-7.7,0-14,6.3-14,14s6.3,14,14,14s14-6.3,14-14S67.6-206,59.9-206z"/>
		<polygon class="st1" points="59.9,-218.5 64.8,-210 55,-210 		"/>
		<polygon class="st1" points="86.4,-192 78,-187.1 78,-196.9 		"/>
		<polygon class="st1" points="76.6,-208.8 74.9,-203.2 71.1,-207.1 		"/>
		<polygon class="st1" points="43.1,-208.8 48.6,-207.1 44.8,-203.2 		"/>
	</g>
	<g>
		<path class="st2" d="M-292-162.1v-12c0-1.1-0.9-2-2-2s-2,0.9-2,2v12c0,1.1,0.9,2,2,2S-292-161-292-162.1z"/>
		<path class="st2" d="M-301-156.1v-12c0-1.1-0.9-2-2-2s-2,0.9-2,2v12c0,1.1,0.9,2,2,2S-301-155-301-156.1z"/>
		<path class="st2" d="M-283-156.1v-12c0-1.1-0.9-2-2-2s-2,0.9-2,2v12c0,1.1,0.9,2,2,2S-283-155-283-156.1z"/>
		<path class="st2" d="M-302-150.1h-2c-1.1,0-2,0.9-2,2v2c0,1.1,0.9,2,2,2h2c1.1,0,2-0.9,2-2v-2C-300-149.2-300.9-150.1-302-150.1z"
			/>
		<path class="st2" d="M-293-156.1h-2c-1.1,0-2,0.9-2,2v2c0,1.1,0.9,2,2,2h2c1.1,0,2-0.9,2-2v-2C-291-155.2-291.9-156.1-293-156.1z"
			/>
		<path class="st2" d="M-284-150.1h-2c-1.1,0-2,0.9-2,2v2c0,1.1,0.9,2,2,2h2c1.1,0,2-0.9,2-2v-2C-282-149.2-282.9-150.1-284-150.1z"
			/>
	</g>
	<g>
		<path class="st1" d="M-281.9-206c-7.7,0-14,6.3-14,14s6.3,14,14,14c7.7,0,14-6.3,14-14S-274.2-206-281.9-206z"/>
		<polygon class="st1" points="-281.9,-218.5 -277,-210 -286.8,-210 		"/>
		<polygon class="st1" points="-255.3,-192 -263.8,-187.1 -263.8,-196.9 		"/>
		<polygon class="st1" points="-265.1,-208.8 -266.8,-203.2 -270.7,-207.1 		"/>
		<polygon class="st1" points="-298.7,-208.8 -293.1,-207.1 -297,-203.2 		"/>
	</g>
	<g>
		<path class="st1" d="M-396.2-319.9c-7.7,0-14,6.3-14,14c0,7.7,6.3,14,14,14s14-6.3,14-14C-382.2-313.7-388.5-319.9-396.2-319.9z"
			/>
		<polygon class="st1" points="-396.2,-332.4 -391.3,-324 -401.1,-324 		"/>
		<polygon class="st1" points="-369.6,-305.9 -378.1,-301 -378.1,-310.8 		"/>
		<polygon class="st1" points="-379.4,-322.7 -381.2,-317.2 -385,-321 		"/>
		<polygon class="st1" points="-413,-322.7 -407.4,-321 -411.3,-317.2 		"/>
	</g>
	<g>
		<path class="st1" d="M-54-320c-7.7,0-14,6.3-14,14s6.3,14,14,14c7.7,0,14-6.3,14-14S-46.3-320-54-320z"/>
		<polygon class="st1" points="-54,-332.5 -49.1,-324 -58.9,-324 		"/>
		<polygon class="st1" points="-27.4,-306 -35.9,-301.1 -35.9,-310.9 		"/>
		<polygon class="st1" points="-37.2,-322.8 -39,-317.2 -42.8,-321.1 		"/>
		<polygon class="st1" points="-70.8,-322.8 -65.2,-321.1 -69.1,-317.2 		"/>
	</g>
	<g>
		<path class="st1" d="M-167.8-434c-7.7,0-14,6.3-14,14s6.3,14,14,14s14-6.3,14-14S-160-434-167.8-434z"/>
		<polygon class="st1" points="-167.7,-446.5 -162.8,-438 -172.6,-438 		"/>
		<polygon class="st1" points="-141.2,-420 -149.7,-415.1 -149.7,-424.9 		"/>
		<polygon class="st1" points="-151,-436.8 -152.7,-431.2 -156.5,-435.1 		"/>
		<polygon class="st1" points="-184.5,-436.8 -179,-435.1 -182.8,-431.2 		"/>
	</g>
	<g>
		<path class="st1" d="M-282-548c-7.7,0-14,6.3-14,14s6.3,14,14,14s14-6.3,14-14S-274.3-548-282-548z"/>
		<polygon class="st1" points="-282,-560.5 -277,-552 -286.9,-552 		"/>
		<polygon class="st1" points="-255.4,-534 -263.9,-529.1 -263.9,-538.9 		"/>
		<polygon class="st1" points="-265.2,-550.8 -266.9,-545.2 -270.8,-549.1 		"/>
		<polygon class="st1" points="-298.8,-550.8 -293.2,-549.1 -297,-545.2 		"/>
	</g>
	<g>
		<path class="st1" d="M-281.9-662c-7.7,0-14,6.3-14,14s6.3,14,14,14s14-6.3,14-14S-274.2-662-281.9-662z"/>
		<polygon class="st1" points="-281.9,-674.5 -277,-666 -286.8,-666 		"/>
		<polygon class="st1" points="-255.3,-648 -263.8,-643.1 -263.8,-652.9 		"/>
		<polygon class="st1" points="-265.1,-664.8 -266.8,-659.2 -270.7,-663.1 		"/>
		<polygon class="st1" points="-298.7,-664.8 -293.1,-663.1 -297,-659.2 		"/>
	</g>
	<g>
		<path class="st1" d="M-395.8-776c-7.7,0-14,6.3-14,14s6.3,14,14,14s14-6.3,14-14S-388.1-776-395.8-776z"/>
		<polygon class="st1" points="-395.8,-788.5 -390.9,-780 -400.7,-780 		"/>
		<polygon class="st1" points="-369.2,-762 -377.7,-757.1 -377.7,-766.9 		"/>
		<polygon class="st1" points="-379,-778.8 -380.8,-773.2 -384.6,-777.1 		"/>
		<polygon class="st1" points="-412.6,-778.8 -407,-777.1 -410.9,-773.2 		"/>
	</g>
	<g>
		<path class="st1" d="M-54.1-776c-7.7,0-14,6.3-14,14s6.3,14,14,14s14-6.3,14-14S-46.4-776-54.1-776z"/>
		<polygon class="st1" points="-54.1,-788.5 -49.1,-780 -59,-780 		"/>
		<polygon class="st1" points="-27.5,-762 -36,-757.1 -36,-766.9 		"/>
		<polygon class="st1" points="-37.3,-778.8 -39,-773.2 -42.9,-777.1 		"/>
		<polygon class="st1" points="-70.9,-778.8 -65.3,-777.1 -69.1,-773.2 		"/>
	</g>
	<g>
		<path class="st1" d="M-168-890c-7.7,0-14,6.3-14,14s6.3,14,14,14s14-6.3,14-14S-160.3-890-168-890z"/>
		<polygon class="st1" points="-167.9,-902.5 -163,-894 -172.8,-894 		"/>
		<polygon class="st1" points="-141.4,-876 -149.9,-871.1 -149.9,-880.9 		"/>
		<polygon class="st1" points="-151.2,-892.8 -152.9,-887.2 -156.7,-891.1 		"/>
		<polygon class="st1" points="-184.7,-892.8 -179.2,-891.1 -183,-887.2 		"/>
	</g>
	<g>
		<path class="st1" d="M59.9-1004c-7.7,0-14,6.3-14,14s6.3,14,14,14s14-6.3,14-14S67.7-1004,59.9-1004z"/>
		<polygon class="st1" points="60,-1016.5 64.9,-1008 55.1,-1008 		"/>
		<polygon class="st1" points="86.5,-990 78,-985.1 78,-994.9 		"/>
		<polygon class="st1" points="76.7,-1006.7 75,-1001.2 71.2,-1005 		"/>
		<polygon class="st1" points="43.2,-1006.7 48.7,-1005 44.9,-1001.2 		"/>
	</g>
	<path class="st3" d="M-393.5-94.6c0-1.2,0.2-2.3,0.6-3.4c-1-0.2-2-0.3-3-0.3c-7.7,0-14,6.3-14,14s6.3,14,14,14
		c7.7,0,13.9-6.2,14-13.8c-0.3,0-0.7,0.1-1,0.1C-388.8-84.1-393.5-88.8-393.5-94.6z"/>
	<path class="st3" d="M62.5-94.3c0-1.2,0.2-2.3,0.6-3.4c-1-0.2-2-0.3-3-0.3c-7.7,0-14,6.3-14,14s6.3,14,14,14
		c7.7,0,13.9-6.2,14-13.8c-0.3,0-0.7,0.1-1,0.1C67.2-83.7,62.5-88.5,62.5-94.3z"/>
	<path class="st3" d="M-165.5-208.6c0-1.2,0.2-2.3,0.6-3.4c-1-0.2-2-0.3-3-0.3c-7.7,0-14,6.3-14,14s6.3,14,14,14
		c7.7,0,13.9-6.2,14-13.8c-0.3,0-0.7,0.1-1,0.1C-160.8-198.1-165.5-202.8-165.5-208.6z"/>
	<path class="st3" d="M62.6-322.3c0-1.2,0.2-2.3,0.6-3.4c-1-0.2-2-0.3-3-0.3c-7.7,0-14,6.3-14,14s6.3,14,14,14
		c7.7,0,13.9-6.2,14-13.8c-0.3,0-0.7,0.1-1,0.1C67.3-311.7,62.6-316.5,62.6-322.3z"/>
	<path class="st3" d="M-279.5-322.3c0-1.2,0.2-2.3,0.6-3.4c-1-0.2-2-0.3-3-0.3c-7.7,0-14,6.3-14,14s6.3,14,14,14
		c7.7,0,13.9-6.2,14-13.8c-0.3,0-0.7,0.1-1,0.1C-274.8-311.7-279.5-316.5-279.5-322.3z"/>
	<path class="st3" d="M-396.5-430.3c0-1.2,0.2-2.3,0.6-3.4c-1-0.2-2-0.3-3-0.3c-7.7,0-14,6.3-14,14s6.3,14,14,14
		c7.7,0,13.9-6.2,14-13.8c-0.3,0-0.7,0.1-1,0.1C-391.8-419.7-396.5-424.5-396.5-430.3z"/>
	<path class="st3" d="M-165.5-550.3c0-1.2,0.2-2.3,0.6-3.4c-1-0.2-2-0.3-3-0.3c-7.7,0-14,6.3-14,14s6.3,14,14,14
		c7.7,0,13.9-6.2,14-13.8c-0.3,0-0.7,0.1-1,0.1C-160.8-539.7-165.5-544.5-165.5-550.3z"/>
	<path class="st3" d="M-51.5-436.3c0-1.2,0.2-2.3,0.6-3.4c-1-0.2-2-0.3-3-0.3c-7.7,0-14,6.3-14,14s6.3,14,14,14
		c7.7,0,13.9-6.2,14-13.8c-0.3,0-0.7,0.1-1,0.1C-46.8-425.7-51.5-430.5-51.5-436.3z"/>
	<path class="st3" d="M-165.5-664.3c0-1.2,0.2-2.3,0.6-3.4c-1-0.2-2-0.3-3-0.3c-7.7,0-14,6.3-14,14s6.3,14,14,14
		c7.7,0,13.9-6.2,14-13.8c-0.3,0-0.7,0.1-1,0.1C-160.8-653.7-165.5-658.5-165.5-664.3z"/>
	<path class="st3" d="M-279.5-778.3c0-1.2,0.2-2.3,0.6-3.4c-1-0.2-2-0.3-3-0.3c-7.7,0-14,6.3-14,14s6.3,14,14,14
		c7.7,0,13.9-6.2,14-13.8c-0.3,0-0.7,0.1-1,0.1C-274.8-767.7-279.5-772.5-279.5-778.3z"/>
	<path class="st3" d="M62.6-778.3c0-1.2,0.2-2.3,0.6-3.4c-1-0.2-2-0.3-3-0.3c-7.7,0-14,6.3-14,14s6.3,14,14,14
		c7.7,0,13.9-6.2,14-13.8c-0.3,0-0.7,0.1-1,0.1C67.3-767.7,62.6-772.5,62.6-778.3z"/>
	<path class="st3" d="M-393.5-892.3c0-1.2,0.2-2.3,0.6-3.4c-1-0.2-2-0.3-3-0.3c-7.7,0-14,6.3-14,14s6.3,14,14,14
		c7.7,0,13.9-6.2,14-13.8c-0.3,0-0.7,0.1-1,0.1C-388.8-881.7-393.5-886.5-393.5-892.3z"/>
	<path class="st3" d="M-51.5-892.3c0-1.2,0.2-2.3,0.6-3.4c-1-0.2-2-0.3-3-0.3c-7.7,0-14,6.3-14,14s6.3,14,14,14
		c7.7,0,13.9-6.2,14-13.8c-0.3,0-0.7,0.1-1,0.1C-46.8-881.7-51.5-886.5-51.5-892.3z"/>
	<path class="st3" d="M50.4-1330.2c0-1.2,0.2-2.3,0.6-3.4c-1-0.2-2-0.3-3-0.3c-7.7,0-14,6.3-14,14c0,7.7,6.3,14,14,14
		c7.7,0,13.9-6.2,14-13.8c-0.3,0-0.7,0.1-1,0.1C55.1-1319.7,50.4-1324.4,50.4-1330.2z"/>
	<g>
		<path class="st2" d="M-180-848c-1.1,0-2,0.9-2,2v18c0,1.1,0.9,2,2,2c1.1,0,2-0.9,2-2v-18C-178-847.1-178.9-848-180-848z"/>
		<path class="st2" d="M-152.3-866.2c-0.3-0.6-0.7-1.2-1.2-1.8c-1.3-1.6-3.2-2.9-5.2-3.5c-1-0.3-2.1-0.5-3.3-0.5
			c-0.5,0-1.1,0.1-1.7,0.2c-2.1-7.2-8.6-12.2-16.3-12.2c-7.7,0-14.2,5-16.3,12.2c-0.6-0.1-1.2-0.2-1.7-0.2c-1.1,0-2.2,0.2-3.3,0.5
			c-2.1,0.6-3.9,1.9-5.2,3.5c-0.4,0.5-0.8,1.1-1.2,1.8c-0.8,1.6-1.3,3.3-1.3,5.2s0.5,3.7,1.3,5.2c0.3,0.6,0.7,1.2,1.2,1.8
			c1.3,1.6,3.2,2.9,5.2,3.5c1,0.3,2.1,0.5,3.3,0.5h7v16c0,1.1,0.9,2,2,2c1.1,0,2-0.9,2-2v-16h14v16c0,1.1,0.9,2,2,2c1.1,0,2-0.9,2-2
			v-16h7c1.1,0,2.2-0.2,3.3-0.5c2.1-0.6,3.9-1.9,5.2-3.5c0.4-0.5,0.8-1.1,1.2-1.8c0.8-1.6,1.3-3.3,1.3-5.2S-151.5-864.7-152.3-866.2
			z"/>
	</g>
	<path class="st4" d="M-390-986c-0.5,0-1.1,0.1-1.7,0.2c-2.1-7.2-8.6-12.2-16.3-12.2c-7.7,0-14.2,5-16.3,12.2
		c-0.6-0.1-1.2-0.2-1.7-0.2c-6.1,0-11,4.9-11,11s4.9,11,11,11h36c6.1,0,11-4.9,11-11S-383.9-986-390-986z"/>
	<path class="st3" d="M-408-1220c-7.7,0-14,6.3-14,14s6.3,14,14,14s14-6.3,14-14S-400.3-1220-408-1220z"/>
	<path class="st3" d="M-294-1220c-7.7,0-14,6.3-14,14s6.3,14,14,14s14-6.3,14-14S-286.3-1220-294-1220z M-293.3-1196
		c3.2-2.1,5.3-5.8,5.3-10s-2.1-7.8-5.3-10c5.2,0.3,9.3,4.7,9.3,10S-288.1-1196.4-293.3-1196z"/>
	<path class="st3" d="M-180-1106c-7.7,0-14,6.3-14,14s6.3,14,14,14c7.7,0,14-6.3,14-14S-172.3-1106-180-1106z M-190-1092
		c0-5.3,4.1-9.6,9.3-10c-3.2,2.1-5.3,5.8-5.3,10s2.1,7.8,5.3,10C-185.9-1082.4-190-1086.7-190-1092z"/>
	<path class="st3" d="M-180-1220c-7.7,0-14,6.3-14,14s6.3,14,14,14c7.7,0,14-6.3,14-14S-172.3-1220-180-1220z M-180-1196v-20
		c5.5,0,10,4.5,10,10S-174.5-1196-180-1196z"/>
	<path class="st3" d="M-294-1106c-7.7,0-14,6.3-14,14s6.3,14,14,14s14-6.3,14-14S-286.3-1106-294-1106z M-304-1092
		c0-5.5,4.5-10,10-10v20C-299.5-1082-304-1086.5-304-1092z"/>
	<path class="st3" d="M-66-1220c-7.7,0-14,6.3-14,14s6.3,14,14,14c7.7,0,14-6.3,14-14S-58.3-1220-66-1220z M-66-1196
		c-0.2,0-0.4,0-0.7,0c-3.2-2.1-5.3-5.8-5.3-10s2.1-7.8,5.3-10c0.2,0,0.4,0,0.7,0c5.5,0,10,4.5,10,10S-60.5-1196-66-1196z"/>
	<path class="st3" d="M-408-1106c-7.7,0-14,6.3-14,14s6.3,14,14,14s14-6.3,14-14S-400.3-1106-408-1106z M-418-1092
		c0-5.5,4.5-10,10-10c0.2,0,0.4,0,0.7,0c3.2,2.1,5.3,5.8,5.3,10s-2.1,7.8-5.3,10c-0.2,0-0.4,0-0.7,0
		C-413.5-1082-418-1086.5-418-1092z"/>
	<path class="st3" d="M48-1220c-7.7,0-14,6.3-14,14s6.3,14,14,14c7.7,0,14-6.3,14-14S55.7-1220,48-1220z M48-1196
		c-5.5,0-10-4.5-10-10s4.5-10,10-10c5.5,0,10,4.5,10,10S53.5-1196,48-1196z"/>
	<path class="st4" d="M-64-1117.9v-2.1c0-1.1-0.9-2-2-2c-1.1,0-2,0.9-2,2v2.1c-13.4,1-24,12.3-24,25.9c0,1.1,0.9,2,2,2
		c1.1,0,2-0.9,2-2c0-2.2,1.8-4,4-4c2.2,0,4,1.8,4,4c0,1.1,0.9,2,2,2c1.1,0,2-0.9,2-2c0-2.2,1.8-4,4-4c2.2,0,4,1.8,4,4v21
		c0,2.8,2.2,5,5,5c2.8,0,5-2.2,5-5c0-1.1-0.9-2-2-2c-1.1,0-2,0.9-2,2c0,0.6-0.4,1-1,1c-0.6,0-1-0.4-1-1v-21c0-2.2,1.8-4,4-4
		c2.2,0,4,1.8,4,4c0,1.1,0.9,2,2,2c1.1,0,2-0.9,2-2c0-2.2,1.8-4,4-4c2.2,0,4,1.8,4,4c0,1.1,0.9,2,2,2c1.1,0,2-0.9,2-2
		C-40-1105.7-50.6-1116.9-64-1117.9z"/>
	<g>
		<path class="st5" d="M-75-532h12c1.1,0,2-0.9,2-2s-0.9-2-2-2h-12c-1.1,0-2,0.9-2,2S-76.1-532-75-532z"/>
		<path class="st5" d="M-87-526h24c1.1,0,2-0.9,2-2s-0.9-2-2-2h-24c-1.1,0-2,0.9-2,2S-88.1-526-87-526z"/>
		<path class="st5" d="M-93-520h24c1.1,0,2-0.9,2-2s-0.9-2-2-2h-24c-1.1,0-2,0.9-2,2S-94.1-520-93-520z"/>
		<path class="st5" d="M-34-516c0-1.1-0.9-2-2-2h-60c-1.1,0-2,0.9-2,2s0.9,2,2,2h60C-34.9-514-34-514.9-34-516z"/>
		<path class="st5" d="M-36-512h-57c-1.1,0-2,0.9-2,2s0.9,2,2,2h57c1.1,0,2-0.9,2-2S-34.9-512-36-512z"/>
		<path class="st5" d="M-75-506l-12,0c-1.1,0-2,0.9-2,2s0.9,2,2,2l12,0c1.1,0,2-0.9,2-2S-73.9-506-75-506z"/>
		<path class="st5" d="M-56-526h8c1.1,0,2-0.9,2-2s-0.9-2-2-2h-8c-1.1,0-2,0.9-2,2S-57.1-526-56-526z"/>
		<path class="st5" d="M-65-522c0,1.1,0.9,2,2,2h21c1.1,0,2-0.9,2-2s-0.9-2-2-2h-21C-64.1-524-65-523.1-65-522z"/>
		<path class="st5" d="M-42-506l-27,0c-1.1,0-2,0.9-2,2s0.9,2,2,2l27,0c1.1,0,2-0.9,2-2S-40.9-506-42-506z"/>
	</g>
	<g>
		<path class="st2" d="M-321-403c1.1,0,2-0.9,2-2c0-3.9,3.1-7,7-7c0.3,0,0.7,0.1,1.2,0.2v1.8c0,1.1,0.9,2,2,2c1.1,0,2-0.9,2-2v-3.2
			c1.1-6.3,6.4-10.8,12.8-10.8s11.7,4.5,12.8,10.8v3.2c0,1.1,0.9,2,2,2c1.1,0,2-0.9,2-2v-1.8c0.5-0.1,0.9-0.2,1.2-0.2
			c3.9,0,7,3.1,7,7c0,1.1,0.9,2,2,2s2-0.9,2-2c0-6.1-4.9-11-11-11c-0.5,0-1.1,0.1-1.7,0.2c-2.1-7.2-8.6-12.2-16.3-12.2
			s-14.2,5-16.3,12.2c-0.6-0.1-1.2-0.2-1.7-0.2c-6.1,0-11,4.9-11,11C-323-403.9-322.1-403-321-403z"/>
		<path class="st2" d="M-302-397c0,1.1,0.9,2,2,2h36c1.1,0,2-0.9,2-2s-0.9-2-2-2h-36C-301.1-399-302-398.1-302-397z"/>
		<path class="st2" d="M-294-392c-1.1,0-2,0.9-2,2s0.9,2,2,2h27c1.1,0,2-0.9,2-2s-0.9-2-2-2H-294z"/>
		<path class="st2" d="M-264-385h-24c-1.1,0-2,0.9-2,2s0.9,2,2,2h24c1.1,0,2-0.9,2-2S-262.9-385-264-385z"/>
		<path class="st2" d="M-324-395h18c1.1,0,2-0.9,2-2s-0.9-2-2-2h-18c-1.1,0-2,0.9-2,2S-325.1-395-324-395z"/>
		<path class="st2" d="M-321-392c-1.1,0-2,0.9-2,2s0.9,2,2,2h21c1.1,0,2-0.9,2-2s-0.9-2-2-2H-321z"/>
		<path class="st2" d="M-294-385h-30c-1.1,0-2,0.9-2,2s0.9,2,2,2h30c1.1,0,2-0.9,2-2S-292.9-385-294-385z"/>
	</g>
	<g>
		<path class="st2" d="M66-422c-0.5,0-1.1,0.1-1.7,0.2C62.2-429,55.7-434,48-434c-7.7,0-14.2,5-16.3,12.2c-0.6-0.1-1.2-0.2-1.7-0.2
			c-6.1,0-11,4.9-11,11s4.9,11,11,11c1.1,0,2-0.9,2-2s-0.9-2-2-2c-3.9,0-7-3.1-7-7s3.1-7,7-7c0.3,0,0.7,0.1,1.2,0.2v1.8
			c0,1.1,0.9,2,2,2s2-0.9,2-2v-3.2c1.1-6.3,6.4-10.8,12.8-10.8c6.4,0,11.7,4.5,12.8,10.8v3.2c0,1.1,0.9,2,2,2s2-0.9,2-2v-1.8
			c0.5-0.1,0.9-0.2,1.2-0.2c3.9,0,7,3.1,7,7s-3.1,7-7,7c-1.1,0-2,0.9-2,2s0.9,2,2,2c6.1,0,11-4.9,11-11S72.1-422,66-422z"/>
		<path class="st2" d="M39.6-403.2c-0.8-1-2.4-1-3.2,0c-0.8,1.1-3.4,4.7-3.4,7.2c0,2.9,2.1,5,5,5c2.9,0,5-2.1,5-5
			C43-398.5,40.4-402.1,39.6-403.2z"/>
		<path class="st2" d="M56.4-403.2c-0.8,1.1-3.4,4.7-3.4,7.2c0,2.9,2.1,5,5,5c2.9,0,5-2.1,5-5c0-2.5-2.6-6.1-3.4-7.2
			C58.8-404.2,57.2-404.2,56.4-403.2z"/>
		<path class="st2" d="M46.4-391.2c-0.8,1.1-3.4,4.7-3.4,7.2c0,2.9,2.1,5,5,5c2.9,0,5-2.1,5-5c0-2.5-2.6-6.1-3.4-7.2
			C48.8-392.2,47.2-392.2,46.4-391.2z"/>
	</g>
	<g>
		<path d="M-58.4,172.6l-5.6,5.6V165c0-1.1-0.9-2-2-2c-1.1,0-2,0.9-2,2v13.2l-5.6-5.6c-0.8-0.8-2-0.8-2.8,0c-0.8,0.8-0.8,2,0,2.8
			l9,9c0.1,0.1,0.2,0.2,0.3,0.3c0,0,0.1,0.1,0.1,0.1c0.1,0,0.1,0.1,0.2,0.1c0.1,0,0.1,0,0.2,0.1c0.1,0,0.1,0,0.2,0.1
			c0.1,0,0.3,0,0.4,0c0.1,0,0.3,0,0.4,0c0.1,0,0.1,0,0.2-0.1c0.1,0,0.1,0,0.2-0.1c0.1,0,0.1-0.1,0.2-0.1c0,0,0.1,0,0.1-0.1
			c0.1-0.1,0.2-0.2,0.3-0.3l9-9c0.8-0.8,0.8-2,0-2.8C-56.4,171.8-57.6,171.8-58.4,172.6z"/>
		<path d="M-48,154c-0.5,0-1.1,0.1-1.7,0.2C-51.8,147-58.3,142-66,142c-7.7,0-14.2,5-16.3,12.2c-0.6-0.1-1.2-0.2-1.7-0.2
			c-6.1,0-11,4.9-11,11s4.9,11,11,11l2,0c1.1,0,2-0.9,2-2c0-1.1-0.9-2-2-2h0l-2,0c-3.9,0-7-3.1-7-7s3.1-7,7-7c0.3,0,0.7,0.1,1.2,0.2
			v1.8c0,1.1,0.9,2,2,2s2-0.9,2-2v-3.2c1.1-6.3,6.4-10.8,12.8-10.8c6.4,0,11.7,4.5,12.8,10.8v3.2c0,1.1,0.9,2,2,2s2-0.9,2-2v-1.8
			c0.5-0.1,0.9-0.2,1.2-0.2c3.9,0,7,3.1,7,7s-3.1,7-7,7l-2,0h0c-1.1,0-2,0.9-2,2c0,1.1,0.9,2,2,2l2,0c6.1,0,11-4.9,11-11
			S-41.9,154-48,154z"/>
	</g>
	<g>
		<path d="M49.4,163.6c-0.1-0.1-0.2-0.2-0.3-0.3c0,0-0.1-0.1-0.1-0.1c-0.1,0-0.1-0.1-0.2-0.1c-0.1,0-0.1,0-0.2-0.1
			c-0.1,0-0.1,0-0.2-0.1c-0.3-0.1-0.5-0.1-0.8,0c-0.1,0-0.1,0-0.2,0.1c-0.1,0-0.1,0-0.2,0.1c-0.1,0-0.1,0.1-0.2,0.1
			c0,0-0.1,0-0.1,0.1c-0.1,0.1-0.2,0.2-0.3,0.3l-9,9c-0.8,0.8-0.8,2,0,2.8c0.8,0.8,2,0.8,2.8,0l5.6-5.6V183c0,1.1,0.9,2,2,2
			c1.1,0,2-0.9,2-2v-13.2l5.6,5.6c0.4,0.4,0.9,0.6,1.4,0.6c0.5,0,1-0.2,1.4-0.6c0.8-0.8,0.8-2,0-2.8L49.4,163.6z"/>
		<path d="M66,154c-0.5,0-1.1,0.1-1.7,0.2C62.2,147,55.7,142,48,142c-7.7,0-14.2,5-16.3,12.2c-0.6-0.1-1.2-0.2-1.7-0.2
			c-6.1,0-11,4.9-11,11s4.9,11,11,11l2,0c1.1,0,2-0.9,2-2c0-1.1-0.9-2-2-2h0l-2,0c-3.9,0-7-3.1-7-7s3.1-7,7-7c0.3,0,0.7,0.1,1.2,0.2
			v1.8c0,1.1,0.9,2,2,2s2-0.9,2-2v-3.2c1.1-6.3,6.4-10.8,12.8-10.8c6.4,0,11.7,4.5,12.8,10.8v3.2c0,1.1,0.9,2,2,2s2-0.9,2-2v-1.8
			c0.5-0.1,0.9-0.2,1.2-0.2c3.9,0,7,3.1,7,7s-3.1,7-7,7l-2,0h0c-1.1,0-2,0.9-2,2c0,1.1,0.9,2,2,2l2,0c6.1,0,11-4.9,11-11
			S72.1,154,66,154z"/>
	</g>
	<g>
		<path class="st2" d="M46-174v18c0,1.1,0.9,2,2,2c1.1,0,2-0.9,2-2v-18c0-1.1-0.9-2-2-2C46.9-176,46-175.1,46-174z"/>
		<path class="st2" d="M23-155h-2c-1.1,0-2,0.9-2,2v2c0,1.1,0.9,2,2,2h2c1.1,0,2-0.9,2-2v-2C25-154.1,24.1-155,23-155z"/>
		<path class="st2" d="M49-150h-2c-1.1,0-2,0.9-2,2v2c0,1.1,0.9,2,2,2h2c1.1,0,2-0.9,2-2v-2C51-149.1,50.1-150,49-150z"/>
		<path class="st2" d="M76-158h-2c-1.1,0-2,0.9-2,2v2c0,1.1,0.9,2,2,2h2c1.1,0,2-0.9,2-2v-2C78-157.1,77.1-158,76-158z"/>
		<path class="st2" d="M39-170c-1.1,0-2,0.9-2,2v15.1c-1.2-0.7-2.5-1.1-4-1.1h-2c-1.1,0-2,0.9-2,2c0,1.1,0.9,2,2,2h2
			c2.2,0,4,1.8,4,4c0,1.1,0.9,2,2,2c1.1,0,2-0.9,2-2v-22C41-169.1,40.1-170,39-170z"/>
		<path class="st2" d="M66-157c-2.7,0-5.1,0.9-7,2.5V-168c0-1.1-0.9-2-2-2c-1.1,0-2,0.9-2,2v22c0,0,0,0,0,0c0,1.1,0.9,2,2,2
			c1.1,0,2-0.9,2-2v0c0-3.9,3.1-7,7-7c1.1,0,2-0.9,2-2C68-156.1,67.1-157,66-157z"/>
	</g>
	<g>
		<path class="st5" d="M-288-68l-30,0c-1.1,0-2,0.9-2,2s0.9,2,2,2l30,0c3.9,0,7,3.1,7,7s-3.1,7-7,7c-1.1,0-2,0.9-2,2s0.9,2,2,2
			c6.1,0,11-4.9,11-11S-281.9-68-288-68z"/>
		<path class="st5" d="M-294-62h-24c-1.1,0-2,0.9-2,2s0.9,2,2,2h24c0.6,0,1,0.4,1,1s-0.4,1-1,1c-1.1,0-2,0.9-2,2s0.9,2,2,2
			c2.8,0,5-2.2,5-5S-291.2-62-294-62z"/>
		<path class="st5" d="M-273-76c-1.1,0-2,0.9-2,2s0.9,2,2,2c0.6,0,1,0.4,1,1s-0.4,1-1,1h-4c-1.1,0-2,0.9-2,2s0.9,2,2,2h4
			c2.8,0,5-2.2,5-5S-270.2-76-273-76z"/>
		<path class="st5" d="M-318-70l33,0c4.4,0,8-3.6,8-8s-3.6-8-8-8s-8,3.6-8,8c0,1.1,0.9,2,2,2s2-0.9,2-2c0-2.2,1.8-4,4-4
			c2.2,0,4,1.8,4,4s-1.8,4-4,4l-33,0c-1.1,0-2,0.9-2,2S-319.1-70-318-70z"/>
	</g>
	<g>
		<path class="st5" d="M-432,26h42c1.1,0,2-0.9,2-2s-0.9-2-2-2h-42c-1.1,0-2,0.9-2,2S-433.1,26-432,26z"/>
		<path class="st5" d="M-390,30h-39c-1.1,0-2,0.9-2,2s0.9,2,2,2h39c1.1,0,2-0.9,2-2S-388.9,30-390,30z"/>
		<path class="st5" d="M-394,40c0-1.1-0.9-2-2-2h-36c-1.1,0-2,0.9-2,2s0.9,2,2,2h36C-394.9,42-394,41.1-394,40z"/>
		<path class="st5" d="M-390,46h-33c-1.1,0-2,0.9-2,2s0.9,2,2,2h33c1.1,0,2-0.9,2-2S-388.9,46-390,46z"/>
		<path class="st5" d="M-396,54h-18c-1.1,0-2,0.9-2,2s0.9,2,2,2h18c1.1,0,2-0.9,2-2S-394.9,54-396,54z"/>
		<path class="st5" d="M-402,62h-12c-1.1,0-2,0.9-2,2s0.9,2,2,2h12c1.1,0,2-0.9,2-2S-400.9,62-402,62z"/>
		<path class="st5" d="M-408,70h-6c-1.1,0-2,0.9-2,2s0.9,2,2,2h6c1.1,0,2-0.9,2-2S-406.9,70-408,70z"/>
	</g>
	<g>
		<path class="st2" d="M-180,58c-2.8,0-5,2.2-5,5c0,2.8,2.2,5,5,5c2.8,0,5-2.2,5-5C-175,60.2-177.2,58-180,58z M-180,64
			c-0.6,0-1-0.4-1-1s0.4-1,1-1c0.6,0,1,0.4,1,1S-179.4,64-180,64z"/>
		<path class="st2" d="M-172,55.5l0-25.5c0-4.4-3.6-8-8-8c-4.4,0-8,3.6-8,8l0,25.5c-1.9,2-3,4.7-3,7.5c0,6.1,4.9,11,11,11
			s11-4.9,11-11C-169,60.2-170.1,57.5-172,55.5z M-180,70c-3.9,0-7-3.1-7-7c0-2,0.8-3.9,2.3-5.2c0.4-0.4,0.7-0.9,0.7-1.5l0-26.3
			c0-2.2,1.8-4,4-4s4,1.8,4,4l0,26.3c0,0.6,0.2,1.1,0.7,1.5c1.5,1.3,2.3,3.2,2.3,5.2C-173,66.9-176.1,70-180,70z"/>
	</g>
	<g>
		<path class="st2" d="M-294,74c-6.1,0-11-4.9-11-11c0-2.8,1.1-5.5,3-7.5l0-25.5c0-4.4,3.6-8,8-8s8,3.6,8,8l0,25.5
			c1.9,2,3,4.7,3,7.5C-283,69.1-287.9,74-294,74L-294,74z M-294,26c-2.2,0-4,1.8-4,4l0,26.3c0,0.6-0.2,1.1-0.7,1.5
			c-1.5,1.3-2.3,3.2-2.3,5.2c0,3.9,3.1,7,7,7s7-3.1,7-7c0-2-0.8-3.9-2.3-5.2c-0.4-0.4-0.7-0.9-0.7-1.5l0-26.3
			C-290,27.8-291.8,26-294,26L-294,26z"/>
	</g>
	<g>
		<path class="st5" d="M-64,58.4V47c0-1.1-0.9-2-2-2c-1.1,0-2,0.9-2,2v11.4c-1.8,0.8-3,2.5-3,4.6c0,2.8,2.2,5,5,5c2.8,0,5-2.2,5-5
			C-61,61-62.2,59.2-64,58.4z M-66,64c-0.6,0-1-0.4-1-1s0.4-1,1-1c0.6,0,1,0.4,1,1S-65.4,64-66,64z"/>
		<path class="st5" d="M-58,55.5l0-25.5c0-4.4-3.6-8-8-8c-4.4,0-8,3.6-8,8l0,25.5c-1.9,2-3,4.7-3,7.5c0,6.1,4.9,11,11,11
			c6.1,0,11-4.9,11-11C-55,60.2-56.1,57.5-58,55.5z M-66,70c-3.9,0-7-3.1-7-7c0-2,0.8-3.9,2.3-5.2c0.4-0.4,0.7-0.9,0.7-1.5l0-26.3
			c0-2.2,1.8-4,4-4c2.2,0,4,1.8,4,4l0,26.3c0,0.6,0.2,1.1,0.7,1.5C-59.8,59.1-59,61-59,63C-59,66.9-62.1,70-66,70z"/>
	</g>
	<g>
		<path class="st6" d="M50,58.4V30c0-1.1-0.9-2-2-2c-1.1,0-2,0.9-2,2v28.4c-1.8,0.8-3,2.5-3,4.6c0,2.8,2.2,5,5,5c2.8,0,5-2.2,5-5
			C53,61,51.8,59.2,50,58.4z M48,64c-0.6,0-1-0.4-1-1s0.4-1,1-1c0.6,0,1,0.4,1,1S48.6,64,48,64z"/>
		<path class="st6" d="M56,55.5L56,30c0-4.4-3.6-8-8-8c-4.4,0-8,3.6-8,8l0,25.5c-1.9,2-3,4.7-3,7.5c0,6.1,4.9,11,11,11
			c6.1,0,11-4.9,11-11C59,60.2,57.9,57.5,56,55.5z M48,70c-3.9,0-7-3.1-7-7c0-2,0.8-3.9,2.3-5.2c0.4-0.4,0.7-0.9,0.7-1.5L44,30
			c0-2.2,1.8-4,4-4c2.2,0,4,1.8,4,4l0,26.3c0,0.6,0.2,1.1,0.7,1.5C54.2,59.1,55,61,55,63C55,66.9,51.9,70,48,70z"/>
	</g>
	<path class="st6" d="M80-1097.1c0-0.1,0-0.1,0-0.2c0-0.1,0-0.1,0-0.2c0-0.1,0-0.1-0.1-0.2c0-0.1,0-0.1-0.1-0.2c0,0,0,0,0-0.1
		c0,0,0-0.1-0.1-0.1c0-0.1-0.1-0.1-0.1-0.2c0-0.1-0.1-0.1-0.1-0.2c0,0-0.1-0.1-0.1-0.1c-0.1,0-0.1-0.1-0.2-0.1c0,0-0.1-0.1-0.1-0.1
		c-0.1,0-0.1-0.1-0.2-0.1c-0.1,0-0.1-0.1-0.2-0.1c-0.1,0-0.1,0-0.2-0.1c-0.1,0-0.1,0-0.2,0c-0.1,0-0.2,0-0.2,0c0,0-0.1,0-0.1,0h-4
		c0-2.8-2.2-5-5-5H55c-1.4,0-2.7,0.6-3.6,1.5c-0.3,0.3-0.5,0.7-0.7,1c-0.8-0.4-1.7-0.6-2.7-0.6c-0.9,0-1.8,0.2-2.7,0.6
		c-0.2-0.4-0.4-0.7-0.7-1c-0.9-1-2.2-1.5-3.6-1.5H27c-2.8,0-5,2.2-5,5h-4c0,0-0.1,0-0.1,0c-0.1,0-0.1,0-0.2,0c-0.1,0-0.1,0-0.2,0
		c-0.1,0-0.1,0-0.2,0.1c-0.1,0-0.1,0.1-0.2,0.1c-0.1,0-0.1,0.1-0.2,0.1c-0.1,0-0.1,0.1-0.2,0.1c-0.1,0-0.1,0.1-0.2,0.1
		c0,0-0.1,0.1-0.1,0.1c0,0-0.1,0.1-0.1,0.1c0,0.1-0.1,0.1-0.1,0.2c0,0,0,0.1-0.1,0.1c0,0,0,0,0,0.1c0,0.1-0.1,0.1-0.1,0.2
		c0,0.1,0,0.1-0.1,0.2c0,0.1,0,0.1,0,0.2c0,0.1,0,0.1,0,0.2c0,0,0,0,0,0.1c0,0,0,0.1,0,0.1c0,0.1,0,0.1,0,0.2c0,0.1,0,0.1,0,0.2
		c0,0.1,0,0.1,0.1,0.2c0,0.1,0,0.1,0.1,0.2c0,0.1,0.1,0.1,0.1,0.2c0,0.1,0.1,0.1,0.1,0.2c0,0.1,0.1,0.1,0.1,0.2c0,0,0.1,0.1,0.1,0.1
		c0,0,0.1,0.1,0.1,0.1c0.1,0,0.1,0.1,0.2,0.1c0,0,0.1,0,0.1,0.1l4.9,2.5c0.1,6,5,10.8,11,10.8c5,0,11-2.5,12.6-13.6
		c0-0.1,0-0.1,0-0.2c0-0.2,0.1-0.4,0.1-0.7c0.3-0.9,1.3-1.6,2.3-1.6c1,0,2,0.7,2.3,1.6c0,0.2,0.1,0.5,0.1,0.7c0,0.1,0,0.1,0,0.2
		C52-1084.5,58-1082,63-1082c6,0,10.9-4.8,11-10.8l4.9-2.5c0,0,0.1,0,0.1-0.1c0.1,0,0.1-0.1,0.2-0.1c0.1,0,0.1-0.1,0.2-0.1
		c0,0,0.1-0.1,0.1-0.1c0-0.1,0.1-0.1,0.1-0.2c0,0,0.1-0.1,0.1-0.1c0-0.1,0.1-0.1,0.1-0.2c0-0.1,0.1-0.1,0.1-0.2c0-0.1,0-0.1,0.1-0.2
		c0-0.1,0-0.1,0-0.2c0-0.1,0-0.1,0-0.2C80-1096.9,80-1097,80-1097.1C80-1097,80-1097,80-1097.1z M34.4-1096.6l-5,5
		c-0.4,0.4-0.9,0.6-1.4,0.6c-0.5,0-1-0.2-1.4-0.6c-0.8-0.8-0.8-2,0-2.8l5-5c0.8-0.8,2-0.8,2.8,0
		C35.2-1098.6,35.2-1097.4,34.4-1096.6z M63.4-1096.6l-5,5c-0.4,0.4-0.9,0.6-1.4,0.6c-0.5,0-1-0.2-1.4-0.6c-0.8-0.8-0.8-2,0-2.8l5-5
		c0.8-0.8,2-0.8,2.8,0C64.2-1098.6,64.2-1097.4,63.4-1096.6z"/>
	<path class="st5" d="M-377.5,145.1l-24-6c0,0-0.1,0-0.1,0c-0.1,0-0.2,0-0.3,0c-0.1,0-0.1,0-0.1,0c-0.1,0-0.2,0-0.3,0
		c0,0-0.1,0-0.1,0c-0.1,0-0.3,0.1-0.4,0.1c0,0,0,0,0,0c-0.1,0.1-0.2,0.1-0.4,0.2l-8.8,6.6v-6.4c1.8-0.8,3-2.5,3-4.6c0-2.8-2.2-5-5-5
		s-5,2.2-5,5c0,2,1.2,3.8,3,4.6V190h-22c-1.1,0-2,0.9-2,2s0.9,2,2,2h48c1.1,0,2-0.9,2-2s-0.9-2-2-2h-22v-36l8.8,6.6
		c0.1,0.1,0.2,0.1,0.3,0.2c0.1,0,0.1,0.1,0.2,0.1c0.2,0.1,0.4,0.1,0.6,0.1c0,0,0,0,0,0h0c0,0,0,0,0,0c0.2,0,0.3,0,0.4-0.1
		c0,0,0,0,0,0l24-6c0.9-0.2,1.5-1,1.5-1.9v-6C-376,146.1-376.6,145.3-377.5,145.1z M-404,155l-6.7-5l6.7-5V155z M-414,134
		c0.6,0,1,0.4,1,1s-0.4,1-1,1s-1-0.4-1-1S-414.6,134-414,134z M-400,143.6l8,2v8.9l-8,2V143.6z M-380,151.4l-8,2v-6.9l8,2V151.4z"/>
	<path class="st2" d="M-153,175.3l-6.2-3.6l3.5-0.9c1.1-0.3,1.7-1.4,1.4-2.4c-0.3-1.1-1.4-1.7-2.4-1.4l-7.4,2l-5.5-3.2l6.5-1.8
		c0.8-0.2,1.4-0.9,1.5-1.8c0.1-0.9-0.4-1.6-1.2-2l-5.8-2.4l4.5-2.6l7.4,2c0.2,0,0.3,0.1,0.5,0.1c0.9,0,1.7-0.6,1.9-1.5
		c0.3-1.1-0.3-2.2-1.4-2.4l-3.5-0.9l6.2-3.6c1-0.6,1.3-1.8,0.7-2.7c-0.6-1-1.8-1.3-2.7-0.7l-6.2,3.6l0.9-3.5
		c0.3-1.1-0.3-2.2-1.4-2.4c-1.1-0.3-2.2,0.3-2.4,1.4l-2,7.4l-4.5,2.6l0.8-6.2c0.1-0.8-0.3-1.6-1-2c-0.7-0.4-1.6-0.3-2.2,0.1l-5,3.8
		v-5.2l5.4-5.4c0.8-0.8,0.8-2,0-2.8c-0.8-0.8-2-0.8-2.8,0l-2.6,2.6V132c0-1.1-0.9-2-2-2c-1.1,0-2,0.9-2,2v7.2l-2.6-2.6
		c-0.8-0.8-2-0.8-2.8,0c-0.8,0.8-0.8,2,0,2.8l5.4,5.4v5.2l-5-3.8c-0.7-0.5-1.6-0.5-2.3-0.1c-0.7,0.5-1,1.4-0.8,2.2l1.8,6.5l-5.5-3.2
		l-2-7.4c-0.3-1.1-1.4-1.7-2.4-1.4c-1.1,0.3-1.7,1.4-1.4,2.4l0.9,3.5l-6.2-3.6c-1-0.6-2.2-0.2-2.7,0.7c-0.6,1-0.2,2.2,0.7,2.7
		l6.2,3.6l-3.5,0.9c-1.1,0.3-1.7,1.4-1.4,2.4c0.2,0.9,1,1.5,1.9,1.5c0.2,0,0.3,0,0.5-0.1l7.4-2l5.5,3.2l-6.5,1.8
		c-0.8,0.2-1.4,0.9-1.5,1.8c-0.1,0.9,0.4,1.6,1.2,2l5.8,2.4l-4.5,2.6l-7.4-2c-1.1-0.3-2.2,0.3-2.4,1.4c-0.3,1.1,0.3,2.2,1.4,2.4
		l3.5,0.9l-6.2,3.6c-1,0.6-1.3,1.8-0.7,2.7c0.4,0.6,1,1,1.7,1c0.3,0,0.7-0.1,1-0.3l6.2-3.6l-0.9,3.5c-0.3,1.1,0.3,2.2,1.4,2.4
		c0.2,0,0.3,0.1,0.5,0.1c0.9,0,1.7-0.6,1.9-1.5l2-7.4l4.5-2.6l-0.8,6.2c-0.1,0.8,0.3,1.6,1,2c0.7,0.4,1.6,0.3,2.2-0.1l5-3.8v5.2
		l-5.4,5.4c-0.8,0.8-0.8,2,0,2.8c0.8,0.8,2,0.8,2.8,0l2.6-2.6v7.2c0,1.1,0.9,2,2,2c1.1,0,2-0.9,2-2v-7.2l2.6,2.6
		c0.4,0.4,0.9,0.6,1.4,0.6s1-0.2,1.4-0.6c0.8-0.8,0.8-2,0-2.8l-5.4-5.4V174l5,3.8c0.4,0.3,0.8,0.4,1.2,0.4c0.4,0,0.8-0.1,1.1-0.3
		c0.7-0.5,1-1.4,0.8-2.2l-1.8-6.5l5.5,3.2l2,7.4c0.2,0.9,1,1.5,1.9,1.5c0.2,0,0.3,0,0.5-0.1c1.1-0.3,1.7-1.4,1.4-2.4l-0.9-3.5
		l6.2,3.6c0.3,0.2,0.7,0.3,1,0.3c0.7,0,1.4-0.4,1.7-1C-151.7,177-152.1,175.8-153,175.3z M-169.8,161.6l-4.8,1.3l-1.5-0.9l3.1-1.8
		L-169.8,161.6z M-174.4,152.3l-0.6,4.5l-3.1,1.8V155L-174.4,152.3z M-184.8,152.9l2.8,2.1v3.5l-1.5-0.9L-184.8,152.9z
		 M-190.3,162.4l4.8-1.3l1.5,0.9l-3.1,1.8L-190.3,162.4z M-185.6,171.7l0.6-4.5l3.1-1.8v3.5L-185.6,171.7z M-175.2,171.1l-2.8-2.1
		v-3.5l1.5,0.9L-175.2,171.1z"/>
	<g>
		<path class="st5" d="M-270,140c1.1,0,2-0.9,2-2s-0.9-2-2-2c-7,0-12.9,5.2-13.8,12h-2c1-7.9,7.7-14,15.9-14c1.1,0,2-0.9,2-2
			s-0.9-2-2-2c-10.4,0-18.9,7.9-19.9,18h-8.1v-10c0-1.5-0.4-2.9-1.1-4.1l1.5-1.5c0.8-0.8,0.8-2,0-2.8c-0.8-0.8-2-0.8-2.8,0l-1.5,1.5
			c-0.6-0.4-1.3-0.7-2.1-0.9V128c0-1.1-0.9-2-2-2s-2,0.9-2,2v2.3c-0.7,0.2-1.4,0.5-2.1,0.9l-1.5-1.5c-0.8-0.8-2-0.8-2.8,0
			c-0.8,0.8-0.8,2,0,2.8l1.5,1.5c-0.5,0.9-0.9,2-1,3.1h-4.1c-0.9,0-1.7,0.6-1.9,1.5c-0.2,0.9,0.2,1.8,1.1,2.2l4.9,2.4v6.8
			c0,10.4,7.9,18.9,18,19.9V180h-17.2l2.6-2.6c0.8-0.8,0.8-2,0-2.8c-0.8-0.8-2-0.8-2.8,0l-6,6c-0.1,0.1-0.2,0.2-0.2,0.3
			c0,0-0.1,0.1-0.1,0.1c0,0.1-0.1,0.1-0.1,0.2c0,0.1,0,0.1-0.1,0.2c0,0.1,0,0.1-0.1,0.2c-0.1,0.3-0.1,0.5,0,0.8c0,0.1,0,0.1,0.1,0.2
			c0,0.1,0,0.1,0.1,0.2c0,0.1,0.1,0.1,0.1,0.2c0,0,0,0.1,0.1,0.1c0.1,0.1,0.2,0.2,0.2,0.3l6,6c0.4,0.4,0.9,0.6,1.4,0.6
			s1-0.2,1.4-0.6c0.8-0.8,0.8-2,0-2.8l-2.6-2.6h17.2v12c0,1.1,0.9,2,2,2s2-0.9,2-2v-12h15.2l5.4,5.4c0.4,0.4,0.9,0.6,1.4,0.6
			s1-0.2,1.4-0.6c0.8-0.8,0.8-2,0-2.8l-4.6-4.6l4.6-4.6c0.8-0.8,0.8-2,0-2.8c-0.8-0.8-2-0.8-2.8,0l-5.4,5.4H-292v-10.1
			c10.1-1,18-9.5,18-19.9c0-2.2,1.8-4,4-4c1.1,0,2-0.9,2-2s-0.9-2-2-2c-3.7,0-6.8,2.6-7.7,6h-2.1C-278.9,143.4-274.8,140-270,140z
			 M-290.6,152c-0.7,1.2-2,2-3.4,2c-1.5,0-2.8-0.8-3.4-2H-290.6z M-278.1,152c-1,7.9-7.7,14-15.9,14c-8.8,0-16-7.2-16-16v-12
			c0-2.2,1.8-4,4-4s4,1.8,4,4v12c0,0,0,0,0,0c0,4.4,3.6,8,8,8c3.7,0,6.8-2.6,7.7-6H-278.1z"/>
		<circle class="st6" cx="-306" cy="138" r="2"/>
	</g>
	<g>
		<path class="st1" d="M-408-1334c-7.7,0-14,6.3-14,14s6.3,14,14,14s14-6.3,14-14S-400.3-1334-408-1334z"/>
		<polygon class="st1" points="-408,-1346.5 -403.1,-1338 -412.9,-1338 		"/>
		<polygon class="st1" points="-408,-1293.6 -412.9,-1302 -403.1,-1302 		"/>
		<polygon class="st1" points="-434.5,-1320 -426,-1324.9 -426,-1315.1 		"/>
		<polygon class="st1" points="-381.4,-1320 -389.9,-1315.1 -389.9,-1324.9 		"/>
		<polygon class="st1" points="-391.3,-1336.8 -393,-1331.2 -396.8,-1335.1 		"/>
		<polygon class="st1" points="-424.8,-1303.2 -423.1,-1308.8 -419.3,-1304.9 		"/>
		<polygon class="st1" points="-424.8,-1336.8 -419.3,-1335.1 -423.1,-1331.2 		"/>
		<polygon class="st1" points="-391.3,-1303.2 -396.8,-1304.9 -393,-1308.8 		"/>
	</g>
	<g>
		<g>
			<path class="st1" d="M-282.2-1004c-7.7,0-14,6.3-14,14s6.3,14,14,14s14-6.3,14-14S-274.4-1004-282.2-1004z"/>
			<polygon class="st1" points="-282.1,-1016.5 -277.2,-1008 -287,-1008 			"/>
			<polygon class="st1" points="-255.6,-990 -264.1,-985.1 -264.1,-994.9 			"/>
			<polygon class="st1" points="-265.4,-1006.7 -267.1,-1001.2 -270.9,-1005 			"/>
			<polygon class="st1" points="-298.9,-1006.7 -293.4,-1005 -297.2,-1001.2 			"/>
		</g>
		<path class="st4" d="M-276-986c-0.5,0-1.1,0.1-1.7,0.2c-2.1-7.2-8.6-12.2-16.3-12.2c-7.7,0-14.2,5-16.3,12.2
			c-0.6-0.1-1.2-0.2-1.7-0.2c-6.1,0-11,4.9-11,11s4.9,11,11,11h36c6.1,0,11-4.9,11-11S-269.9-986-276-986z"/>
	</g>
	<g>
		<path class="st3" d="M-165.6-1006.3c0-1.2,0.2-2.3,0.6-3.4c-1-0.2-2-0.3-3-0.3c-7.7,0-14,6.3-14,14s6.3,14,14,14
			c7.7,0,13.9-6.2,14-13.8c-0.3,0-0.7,0.1-1,0.1C-160.9-995.7-165.6-1000.5-165.6-1006.3z"/>
		<path class="st4" d="M-162-986c-0.5,0-1.1,0.1-1.7,0.2c-2.1-7.2-8.6-12.2-16.3-12.2c-7.7,0-14.2,5-16.3,12.2
			c-0.6-0.1-1.2-0.2-1.7-0.2c-6.1,0-11,4.9-11,11s4.9,11,11,11h36c6.1,0,11-4.9,11-11S-155.9-986-162-986z"/>
	</g>
	<g>
		<path class="st2" d="M-75-954c-1.1,0-2,0.9-2,2v4c0,1.1,0.9,2,2,2c1.1,0,2-0.9,2-2v-4C-73-953.1-73.9-954-75-954z"/>
		<path class="st2" d="M-66-948c-1.1,0-2,0.9-2,2v4c0,1.1,0.9,2,2,2c1.1,0,2-0.9,2-2v-4C-64-947.1-64.9-948-66-948z"/>
		<path class="st2" d="M-66-960c-1.1,0-2,0.9-2,2v4c0,1.1,0.9,2,2,2c1.1,0,2-0.9,2-2v-4C-64-959.1-64.9-960-66-960z"/>
		<path class="st2" d="M-57-954c-1.1,0-2,0.9-2,2v4c0,1.1,0.9,2,2,2c1.1,0,2-0.9,2-2v-4C-55-953.1-55.9-954-57-954z"/>
		<path class="st2" d="M-38.3-980.2c-0.3-0.6-0.7-1.2-1.2-1.8c-1.3-1.6-3.2-2.9-5.2-3.5c-1-0.3-2.1-0.5-3.3-0.5
			c-0.5,0-1.1,0.1-1.7,0.2c-0.9-3.1-2.7-5.9-5-7.9c-0.3-0.3-0.7-0.6-1-0.8c-0.7-0.5-1.5-1-2.3-1.4c-2.4-1.3-5.1-2-8-2
			c-7.7,0-14.2,5-16.3,12.2c-0.6-0.1-1.2-0.2-1.7-0.2c-1.1,0-2.2,0.2-3.3,0.5c-2.1,0.6-3.9,1.9-5.2,3.5c-0.4,0.5-0.8,1.1-1.2,1.8
			c-0.8,1.6-1.3,3.3-1.3,5.2s0.5,3.7,1.3,5.2c0.3,0.6,0.7,1.2,1.2,1.8c1.3,1.6,3.2,2.9,5.2,3.5c1,0.3,2.1,0.5,3.3,0.5h7v4
			c0,1.1,0.9,2,2,2c1.1,0,2-0.9,2-2v-4h14v4c0,1.1,0.9,2,2,2c1.1,0,2-0.9,2-2v-4h7c1.1,0,2.2-0.2,3.3-0.5c2.1-0.6,3.9-1.9,5.2-3.5
			c0.4-0.5,0.8-1.1,1.2-1.8c0.8-1.6,1.3-3.3,1.3-5.2S-37.5-978.7-38.3-980.2z"/>
	</g>
	<g>
		<path class="st2" d="M39-954c-1.1,0-2,0.9-2,2v4c0,1.1,0.9,2,2,2c1.1,0,2-0.9,2-2v-4C41-953.1,40.1-954,39-954z"/>
		<path class="st2" d="M48-948c-1.1,0-2,0.9-2,2v4c0,1.1,0.9,2,2,2c1.1,0,2-0.9,2-2v-4C50-947.1,49.1-948,48-948z"/>
		<path class="st2" d="M48-960c-1.1,0-2,0.9-2,2v4c0,1.1,0.9,2,2,2c1.1,0,2-0.9,2-2v-4C50-959.1,49.1-960,48-960z"/>
		<path class="st2" d="M57-954c-1.1,0-2,0.9-2,2v4c0,1.1,0.9,2,2,2c1.1,0,2-0.9,2-2v-4C59-953.1,58.1-954,57-954z"/>
		<path class="st2" d="M75.7-980.2c-0.3-0.6-0.7-1.2-1.2-1.8c-1.3-1.6-3.2-2.9-5.2-3.5c-1-0.3-2.1-0.5-3.3-0.5
			c-0.5,0-1.1,0.1-1.7,0.2c-0.9-3.1-2.7-5.9-5-7.9c-0.3-0.3-0.7-0.6-1-0.8c-0.7-0.5-1.5-1-2.3-1.4c-2.4-1.3-5.1-2-8-2
			c-7.7,0-14.2,5-16.3,12.2c-0.6-0.1-1.2-0.2-1.7-0.2c-1.1,0-2.2,0.2-3.3,0.5c-2.1,0.6-3.9,1.9-5.2,3.5c-0.4,0.5-0.8,1.1-1.2,1.8
			c-0.8,1.6-1.3,3.3-1.3,5.2s0.5,3.7,1.3,5.2c0.3,0.6,0.7,1.2,1.2,1.8c1.3,1.6,3.2,2.9,5.2,3.5c1,0.3,2.1,0.5,3.3,0.5h7v4
			c0,1.1,0.9,2,2,2c1.1,0,2-0.9,2-2v-4h14v4c0,1.1,0.9,2,2,2c1.1,0,2-0.9,2-2v-4h7c1.1,0,2.2-0.2,3.3-0.5c2.1-0.6,3.9-1.9,5.2-3.5
			c0.4-0.5,0.8-1.1,1.2-1.8c0.8-1.6,1.3-3.3,1.3-5.2S76.5-978.7,75.7-980.2z"/>
	</g>
	<g>
		<path class="st2" d="M-417-840c-1.1,0-2,0.9-2,2v4c0,1.1,0.9,2,2,2s2-0.9,2-2v-4C-415-839.1-415.9-840-417-840z"/>
		<path class="st2" d="M-408-834c-1.1,0-2,0.9-2,2v4c0,1.1,0.9,2,2,2s2-0.9,2-2v-4C-406-833.1-406.9-834-408-834z"/>
		<path class="st2" d="M-408-846c-1.1,0-2,0.9-2,2v4c0,1.1,0.9,2,2,2s2-0.9,2-2v-4C-406-845.1-406.9-846-408-846z"/>
		<path class="st2" d="M-399-840c-1.1,0-2,0.9-2,2v4c0,1.1,0.9,2,2,2s2-0.9,2-2v-4C-397-839.1-397.9-840-399-840z"/>
		<path class="st2" d="M-380.3-866.2c-0.3-0.6-0.7-1.2-1.2-1.8c-1.3-1.6-3.2-2.9-5.2-3.5c-1-0.3-2.1-0.5-3.3-0.5
			c-0.5,0-1.1,0.1-1.7,0.2c-0.9-3.1-2.7-5.9-5-7.9c-0.3-0.3-0.7-0.6-1-0.8c-0.7-0.5-1.5-1-2.3-1.4c-2.4-1.3-5.1-2-8-2
			c-7.7,0-14.2,5-16.3,12.2c-0.6-0.1-1.2-0.2-1.7-0.2c-1.1,0-2.2,0.2-3.3,0.5c-2.1,0.6-3.9,1.9-5.2,3.5c-0.4,0.5-0.8,1.1-1.2,1.8
			c-0.8,1.6-1.3,3.3-1.3,5.2s0.5,3.7,1.3,5.2c0.3,0.6,0.7,1.2,1.2,1.8c1.3,1.6,3.2,2.9,5.2,3.5c1,0.3,2.1,0.5,3.3,0.5h7v4
			c0,1.1,0.9,2,2,2s2-0.9,2-2v-4h14v4c0,1.1,0.9,2,2,2s2-0.9,2-2v-4h7c1.1,0,2.2-0.2,3.3-0.5c2.1-0.6,3.9-1.9,5.2-3.5
			c0.4-0.5,0.8-1.1,1.2-1.8c0.8-1.6,1.3-3.3,1.3-5.2S-379.5-864.7-380.3-866.2z"/>
	</g>
	<g>
		<path class="st2" d="M-66-848c-1.1,0-2,0.9-2,2v18c0,1.1,0.9,2,2,2c1.1,0,2-0.9,2-2v-18C-64-847.1-64.9-848-66-848z"/>
		<path class="st2" d="M-38.3-866.2c-0.3-0.6-0.7-1.2-1.2-1.8c-1.3-1.6-3.2-2.9-5.2-3.5c-1-0.3-2.1-0.5-3.3-0.5
			c-0.5,0-1.1,0.1-1.7,0.2C-51.8-879-58.3-884-66-884c-7.7,0-14.2,5-16.3,12.2c-0.6-0.1-1.2-0.2-1.7-0.2c-1.1,0-2.2,0.2-3.3,0.5
			c-2.1,0.6-3.9,1.9-5.2,3.5c-0.4,0.5-0.8,1.1-1.2,1.8c-0.8,1.6-1.3,3.3-1.3,5.2s0.5,3.7,1.3,5.2c0.3,0.6,0.7,1.2,1.2,1.8
			c1.3,1.6,3.2,2.9,5.2,3.5c1,0.3,2.1,0.5,3.3,0.5h7v16c0,1.1,0.9,2,2,2c1.1,0,2-0.9,2-2v-16h14v16c0,1.1,0.9,2,2,2c1.1,0,2-0.9,2-2
			v-16h7c1.1,0,2.2-0.2,3.3-0.5c2.1-0.6,3.9-1.9,5.2-3.5c0.4-0.5,0.8-1.1,1.2-1.8c0.8-1.6,1.3-3.3,1.3-5.2S-37.5-864.7-38.3-866.2z"
			/>
	</g>
	<g>
		<circle class="st2" cx="-417" cy="-732" r="2"/>
		<circle class="st2" cx="-399" cy="-732" r="2"/>
		<circle class="st2" cx="-408" cy="-726" r="2"/>
		<circle class="st2" cx="-399" cy="-720" r="2"/>
		<circle class="st2" cx="-408" cy="-714" r="2"/>
		<circle class="st2" cx="-417" cy="-720" r="2"/>
		<path class="st2" d="M-380.3-752.2c-0.3-0.6-0.7-1.2-1.2-1.8c-1.3-1.6-3.2-2.9-5.2-3.5c-1-0.3-2.1-0.5-3.3-0.5
			c-0.3,0-0.5,0-0.8,0.1c-0.3,0-0.6,0.1-0.9,0.1c-0.9-3.1-2.7-5.9-5-7.9c-0.3-0.3-0.7-0.6-1-0.8c-0.7-0.5-1.5-1-2.3-1.4
			c-2.4-1.3-5.1-2-8-2c-7.7,0-14.2,5-16.3,12.2c-0.1,0-0.1,0-0.2,0c-0.5-0.1-1-0.2-1.5-0.2c-1.1,0-2.2,0.2-3.3,0.5
			c-2.1,0.6-3.9,1.9-5.2,3.5c-0.4,0.5-0.8,1.1-1.2,1.8c-0.8,1.6-1.3,3.3-1.3,5.2s0.5,3.7,1.3,5.2c0.3,0.6,0.7,1.2,1.2,1.8
			c1.3,1.6,3.2,2.9,5.2,3.5c1,0.3,2.1,0.5,3.3,0.5h36c1.1,0,2.2-0.2,3.3-0.5c2.1-0.6,3.9-1.9,5.2-3.5c0.4-0.5,0.8-1.1,1.2-1.8
			c0.8-1.6,1.3-3.3,1.3-5.2S-379.5-750.7-380.3-752.2z"/>
	</g>
	<g>
		<circle class="st2" cx="-303" cy="-732" r="2"/>
		<circle class="st2" cx="-285" cy="-732" r="2"/>
		<circle class="st2" cx="-294" cy="-726" r="2"/>
		<circle class="st2" cx="-285" cy="-720" r="2"/>
		<circle class="st2" cx="-294" cy="-714" r="2"/>
		<circle class="st2" cx="-303" cy="-720" r="2"/>
		<path class="st2" d="M-266.3-752.2c-0.3-0.6-0.7-1.2-1.2-1.8c-1.3-1.6-3.2-2.9-5.2-3.5c-1-0.3-2.1-0.5-3.3-0.5
			c-0.3,0-0.5,0-0.8,0.1c-0.3,0-0.6,0.1-0.9,0.1c-0.9-3.1-2.7-5.9-5-7.9c-0.3-0.3-0.7-0.6-1-0.8c-0.7-0.5-1.5-1-2.3-1.4
			c-2.4-1.3-5.1-2-8-2c-7.7,0-14.2,5-16.3,12.2c-0.1,0-0.1,0-0.2,0c-0.5-0.1-1-0.2-1.5-0.2c-1.1,0-2.2,0.2-3.3,0.5
			c-2.1,0.6-3.9,1.9-5.2,3.5c-0.4,0.5-0.8,1.1-1.2,1.8c-0.8,1.6-1.3,3.3-1.3,5.2s0.5,3.7,1.3,5.2c0.3,0.6,0.7,1.2,1.2,1.8
			c1.3,1.6,3.2,2.9,5.2,3.5c1,0.3,2.1,0.5,3.3,0.5h36c1.1,0,2.2-0.2,3.3-0.5c2.1-0.6,3.9-1.9,5.2-3.5c0.4-0.5,0.8-1.1,1.2-1.8
			c0.8-1.6,1.3-3.3,1.3-5.2S-265.5-750.7-266.3-752.2z"/>
	</g>
	<g>
		<g>
			<polyline class="st1" points="-189.2,-739.4 -196.2,-726.3 -191.1,-726.4 -196.9,-715 -184.6,-729.2 -190.9,-729.1 -182,-739.4 
							"/>
			<polyline class="st1" points="-176.4,-744.3 -183.4,-731.2 -178.2,-731.3 -184,-719.9 -171.8,-734.1 -178,-734 -169.2,-744.3 			
				"/>
		</g>
		<path class="st4" d="M-162-758c-0.5,0-1.1,0.1-1.7,0.2c-2.1-7.2-8.6-12.2-16.3-12.2c-7.7,0-14.2,5-16.3,12.2
			c-0.6-0.1-1.2-0.2-1.7-0.2c-6.1,0-11,4.9-11,11s4.9,11,11,11h36c6.1,0,11-4.9,11-11S-155.9-758-162-758z"/>
	</g>
	<path class="st4" d="M-48-758c-0.5,0-1.1,0.1-1.7,0.2C-51.8-765-58.3-770-66-770c-7.7,0-14.2,5-16.3,12.2c-0.6-0.1-1.2-0.2-1.7-0.2
		c-6.1,0-11,4.9-11,11s4.9,11,11,11h36c6.1,0,11-4.9,11-11S-41.9-758-48-758z"/>
	<path class="st1" d="M66-758c-0.5,0-1.1,0.1-1.7,0.2C62.2-765,55.7-770,48-770c-7.7,0-14.2,5-16.3,12.2c-0.6-0.1-1.2-0.2-1.7-0.2
		c-6.1,0-11,4.9-11,11s4.9,11,11,11h11.3l-3.9,5.9c-0.4,0.6-0.4,1.4-0.1,2.1c0.3,0.7,1,1.1,1.8,1.1h2.3l-3.9,5.9
		c-0.6,0.9-0.4,2.2,0.6,2.8c0.3,0.2,0.7,0.3,1.1,0.3c0.6,0,1.3-0.3,1.7-0.9l6-9c0.4-0.6,0.4-1.4,0.1-2.1c-0.3-0.7-1-1.1-1.8-1.1
		h-2.3l3.3-5h5.2l-1.9,2.9c-0.4,0.6-0.4,1.4-0.1,2.1c0.3,0.7,1,1.1,1.8,1.1h2.3l-1.9,2.9c-0.6,0.9-0.4,2.2,0.6,2.8
		c0.3,0.2,0.7,0.3,1.1,0.3c0.6,0,1.3-0.3,1.7-0.9l4-6c0.4-0.6,0.4-1.4,0.1-2.1c-0.3-0.7-1-1.1-1.8-1.1h-2.3l1.3-2H66
		c6.1,0,11-4.9,11-11S72.1-758,66-758z M66-740H30c-3.9,0-7-3.1-7-7s3.1-7,7-7c0.3,0,0.7,0.1,1.2,0.2v1.8c0,1.1,0.9,2,2,2s2-0.9,2-2
		v-3.2c1.1-6.3,6.4-10.8,12.8-10.8c6.4,0,11.7,4.5,12.8,10.8v3.2c0,1.1,0.9,2,2,2s2-0.9,2-2v-1.8c0.5-0.1,0.9-0.2,1.2-0.2
		c3.9,0,7,3.1,7,7S69.9-740,66-740z"/>
	<path class="st4" d="M66-758c-0.5,0-1.1,0.1-1.7,0.2C62.2-765,55.7-770,48-770c-7.7,0-14.2,5-16.3,12.2c-0.6-0.1-1.2-0.2-1.7-0.2
		c-6.1,0-11,4.9-11,11s4.9,11,11,11h36c6.1,0,11-4.9,11-11S72.1-758,66-758z"/>
	<g>
		<path class="st2" d="M-298.3-614.3c-0.6-1-1.8-1.3-2.7-0.7c-1,0.6-1.3,1.8-0.7,2.7l1,1.7c0.4,0.6,1,1,1.7,1c0.3,0,0.7-0.1,1-0.3
			c1-0.6,1.3-1.8,0.7-2.7L-298.3-614.3z"/>
		<path class="st2" d="M-303-615.1c-1-0.6-2.2-0.2-2.7,0.7l-1,1.7c-0.6,1-0.2,2.2,0.7,2.7c0.3,0.2,0.7,0.3,1,0.3
			c0.7,0,1.4-0.4,1.7-1l1-1.7C-301.7-613.3-302-614.5-303-615.1z"/>
		<path class="st2" d="M-304-616.8c0-1.1-0.9-2-2-2h-2c-1.1,0-2,0.9-2,2c0,1.1,0.9,2,2,2h2C-304.9-614.8-304-615.7-304-616.8z"/>
		<path class="st2" d="M-296-618.8h-2c-1.1,0-2,0.9-2,2c0,1.1,0.9,2,2,2h2c1.1,0,2-0.9,2-2C-294-617.9-294.9-618.8-296-618.8z"/>
		<path class="st2" d="M-276-644c-0.5,0-1.1,0.1-1.7,0.2c-2.1-7.2-8.6-12.2-16.3-12.2c-7.7,0-14.2,5-16.3,12.2
			c-0.6-0.1-1.2-0.2-1.7-0.2c-6.1,0-11,4.9-11,11s4.9,11,11,11h5c0,0.3,0.1,0.7,0.3,1l1,1.7c0.4,0.6,1,1,1.7,1c0.3,0,0.7-0.1,1-0.3
			c1-0.6,1.3-1.8,0.7-2.7l-0.4-0.7h1.4l-0.4,0.7c-0.6,1-0.2,2.2,0.7,2.7c0.3,0.2,0.7,0.3,1,0.3c0.7,0,1.4-0.4,1.7-1l1-1.7
			c0.2-0.3,0.3-0.7,0.3-1h21c6.1,0,11-4.9,11-11S-269.9-644-276-644z"/>
		<path class="st2" d="M-281.3-609.3c-0.6-1-1.8-1.3-2.7-0.7c-1,0.6-1.3,1.8-0.7,2.7l1,1.7c0.4,0.6,1,1,1.7,1c0.3,0,0.7-0.1,1-0.3
			c1-0.6,1.3-1.8,0.7-2.7L-281.3-609.3z"/>
		<path class="st2" d="M-286.3-618c-0.6-1-1.8-1.3-2.7-0.7c-1,0.6-1.3,1.8-0.7,2.7l1,1.7c0.4,0.6,1,1,1.7,1c0.3,0,0.7-0.1,1-0.3
			c1-0.6,1.3-1.8,0.7-2.7L-286.3-618z"/>
		<path class="st2" d="M-284-613.5c0.3,0.2,0.7,0.3,1,0.3c0.7,0,1.4-0.4,1.7-1l1-1.7c0.6-1,0.2-2.2-0.7-2.7c-1-0.6-2.2-0.2-2.7,0.7
			l-1,1.7C-285.3-615.3-285-614.1-284-613.5z"/>
		<path class="st2" d="M-286-610.1c-1-0.6-2.2-0.2-2.7,0.7l-1,1.7c-0.6,1-0.2,2.2,0.7,2.7c0.3,0.2,0.7,0.3,1,0.3
			c0.7,0,1.4-0.4,1.7-1l1-1.7C-284.7-608.3-285-609.5-286-610.1z"/>
		<path class="st2" d="M-287-611.8c0-1.1-0.9-2-2-2h-2c-1.1,0-2,0.9-2,2c0,1.1,0.9,2,2,2h2C-287.9-609.8-287-610.7-287-611.8z"/>
		<path class="st2" d="M-279-613.8h-2c-1.1,0-2,0.9-2,2c0,1.1,0.9,2,2,2h2c1.1,0,2-0.9,2-2C-277-612.9-277.9-613.8-279-613.8z"/>
	</g>
	<g>
		<path class="st2" d="M-184.3-614.3c-0.6-1-1.8-1.3-2.7-0.7c-1,0.6-1.3,1.8-0.7,2.7l1,1.7c0.4,0.6,1,1,1.7,1c0.3,0,0.7-0.1,1-0.3
			c1-0.6,1.3-1.8,0.7-2.7L-184.3-614.3z"/>
		<path class="st2" d="M-189-615.1c-1-0.6-2.2-0.2-2.7,0.7l-1,1.7c-0.6,1-0.2,2.2,0.7,2.7c0.3,0.2,0.7,0.3,1,0.3
			c0.7,0,1.4-0.4,1.7-1l1-1.7C-187.7-613.3-188-614.5-189-615.1z"/>
		<path class="st2" d="M-190-616.8c0-1.1-0.9-2-2-2h-2c-1.1,0-2,0.9-2,2c0,1.1,0.9,2,2,2h2C-190.9-614.8-190-615.7-190-616.8z"/>
		<path class="st2" d="M-182-618.8h-2c-1.1,0-2,0.9-2,2c0,1.1,0.9,2,2,2h2c1.1,0,2-0.9,2-2C-180-617.9-180.9-618.8-182-618.8z"/>
		<path class="st2" d="M-162-644c-0.5,0-1.1,0.1-1.7,0.2c-2.1-7.2-8.6-12.2-16.3-12.2c-7.7,0-14.2,5-16.3,12.2
			c-0.6-0.1-1.2-0.2-1.7-0.2c-6.1,0-11,4.9-11,11s4.9,11,11,11h5c0,0.3,0.1,0.7,0.3,1l1,1.7c0.4,0.6,1,1,1.7,1c0.3,0,0.7-0.1,1-0.3
			c1-0.6,1.3-1.8,0.7-2.7l-0.4-0.7h1.4l-0.4,0.7c-0.6,1-0.2,2.2,0.7,2.7c0.3,0.2,0.7,0.3,1,0.3c0.7,0,1.4-0.4,1.7-1l1-1.7
			c0.2-0.3,0.3-0.7,0.3-1h21c6.1,0,11-4.9,11-11S-155.9-644-162-644z"/>
		<path class="st2" d="M-167.3-609.3c-0.6-1-1.8-1.3-2.7-0.7c-1,0.6-1.3,1.8-0.7,2.7l1,1.7c0.4,0.6,1,1,1.7,1c0.3,0,0.7-0.1,1-0.3
			c1-0.6,1.3-1.8,0.7-2.7L-167.3-609.3z"/>
		<path class="st2" d="M-172.3-618c-0.6-1-1.8-1.3-2.7-0.7c-1,0.6-1.3,1.8-0.7,2.7l1,1.7c0.4,0.6,1,1,1.7,1c0.3,0,0.7-0.1,1-0.3
			c1-0.6,1.3-1.8,0.7-2.7L-172.3-618z"/>
		<path class="st2" d="M-170-613.5c0.3,0.2,0.7,0.3,1,0.3c0.7,0,1.4-0.4,1.7-1l1-1.7c0.6-1,0.2-2.2-0.7-2.7c-1-0.6-2.2-0.2-2.7,0.7
			l-1,1.7C-171.3-615.3-171-614.1-170-613.5z"/>
		<path class="st2" d="M-172-610.1c-1-0.6-2.2-0.2-2.7,0.7l-1,1.7c-0.6,1-0.2,2.2,0.7,2.7c0.3,0.2,0.7,0.3,1,0.3
			c0.7,0,1.4-0.4,1.7-1l1-1.7C-170.7-608.3-171-609.5-172-610.1z"/>
		<path class="st2" d="M-173-611.8c0-1.1-0.9-2-2-2h-2c-1.1,0-2,0.9-2,2c0,1.1,0.9,2,2,2h2C-173.9-609.8-173-610.7-173-611.8z"/>
		<path class="st2" d="M-165-613.8h-2c-1.1,0-2,0.9-2,2c0,1.1,0.9,2,2,2h2c1.1,0,2-0.9,2-2C-163-612.9-163.9-613.8-165-613.8z"/>
	</g>
	<g>
		<path class="st1" d="M-61.4-619.4l-2.6,2.6v-5.2c0-1.1-0.9-2-2-2c-1.1,0-2,0.9-2,2v5.2l-2.6-2.6c-0.8-0.8-2-0.8-2.8,0
			c-0.8,0.8-0.8,2,0,2.8l6,6c0.4,0.4,0.9,0.6,1.4,0.6c0.5,0,1-0.2,1.4-0.6l6-6c0.8-0.8,0.8-2,0-2.8
			C-59.4-620.2-60.6-620.2-61.4-619.4z"/>
		<path class="st1" d="M-56.1-645.9c-1-1-2-1.8-3.2-2.4c-1.6-0.9-3.4-1.4-5.2-1.6c-0.5,0-0.9-0.1-1.4-0.1c-7.7,0-14,6.3-14,14
			c0,1.5,0.3,3.1,0.7,4.5c0.3,0.9,0.7,1.7,1.1,2.5c0.4,0.6,1,1,1.7,1l0,0h20.8c0.2,0,0.4,0,0.5-0.1c0.5-0.1,0.9-0.5,1.2-0.9
			c0.5-0.8,0.8-1.6,1.1-2.5c0.5-1.4,0.7-3,0.7-4.5c0-2.9-0.9-5.6-2.4-7.8C-54.9-644.6-55.5-645.3-56.1-645.9z M-65.8-646
			c-0.5,0-1,0-1.4,0.1h0c0.4-0.1,0.8-0.1,1.2-0.1C-65.9-646-65.9-646-65.8-646z M-75.2-632C-75.2-632-75.2-632-75.2-632
			C-75.2-632-75.1-632-75.2-632L-75.2-632z"/>
	</g>
	<g>
		<path class="st1" d="M49.4-623.4c-0.8-0.8-2-0.8-2.8,0l-6,6c-0.8,0.8-0.8,2,0,2.8c0.8,0.8,2,0.8,2.8,0l2.6-2.6v5.2
			c0,1.1,0.9,2,2,2c1.1,0,2-0.9,2-2v-5.2l2.6,2.6c0.4,0.4,0.9,0.6,1.4,0.6c0.5,0,1-0.2,1.4-0.6c0.8-0.8,0.8-2,0-2.8L49.4-623.4z"/>
		<path class="st1" d="M57.9-645.9c-1-1-2-1.8-3.2-2.4c-1.6-0.9-3.4-1.4-5.2-1.6c-0.5,0-0.9-0.1-1.4-0.1c-7.7,0-14,6.3-14,14
			c0,1.5,0.3,3.1,0.7,4.5c0.3,0.9,0.7,1.7,1.1,2.5c0.4,0.6,1,1,1.7,1l0,0h20.8c0.2,0,0.4,0,0.5-0.1c0.5-0.1,0.9-0.5,1.2-0.9
			c0.5-0.8,0.8-1.6,1.1-2.5c0.5-1.4,0.7-3,0.7-4.5c0-2.9-0.9-5.6-2.4-7.8C59.1-644.6,58.5-645.3,57.9-645.9z M48.2-646
			c-0.5,0-1,0-1.4,0.1h0c0.4-0.1,0.8-0.1,1.2-0.1C48.1-646,48.1-646,48.2-646z M38.8-632C38.8-632,38.8-632,38.8-632
			C38.8-632,38.9-632,38.8-632L38.8-632z"/>
	</g>
	<g>
		<path class="st2" d="M-390-530c-0.5,0-1.1,0.1-1.7,0.2c-2.1-7.2-8.6-12.2-16.3-12.2c-7.7,0-14.2,5-16.3,12.2
			c-0.6-0.1-1.2-0.2-1.7-0.2c-6.1,0-11,4.9-11,11s4.9,11,11,11h5.4l-2.4,9.5c-0.3,1.1,0.4,2.2,1.5,2.4c0.2,0,0.3,0.1,0.5,0.1
			c0.9,0,1.7-0.6,1.9-1.5l2.6-10.5h5.4l-3.9,15.5c-0.3,1.1,0.4,2.2,1.5,2.4c0.2,0,0.3,0.1,0.5,0.1c0.9,0,1.7-0.6,1.9-1.5l4.1-16.5
			h5.4l-2.4,9.5c-0.3,1.1,0.4,2.2,1.5,2.4c0.2,0,0.3,0.1,0.5,0.1c0.9,0,1.7-0.6,1.9-1.5l2.6-10.5h7.4c6.1,0,11-4.9,11-11
			S-383.9-530-390-530z"/>
	</g>
	<path class="st2" d="M-276-530c-0.5,0-1.1,0.1-1.7,0.2c-2.1-7.2-8.6-12.2-16.3-12.2c-7.7,0-14.2,5-16.3,12.2
		c-0.6-0.1-1.2-0.2-1.7-0.2c-6.1,0-11,4.9-11,11s4.9,11,11,11h5.4l-2.4,9.5c-0.3,1.1,0.4,2.2,1.5,2.4c0.2,0,0.3,0.1,0.5,0.1
		c0.9,0,1.7-0.6,1.9-1.5l2.6-10.5h5.4l-3.9,15.5c-0.3,1.1,0.4,2.2,1.5,2.4c0.2,0,0.3,0.1,0.5,0.1c0.9,0,1.7-0.6,1.9-1.5l4.1-16.5
		h5.4l-2.4,9.5c-0.3,1.1,0.4,2.2,1.5,2.4c0.2,0,0.3,0.1,0.5,0.1c0.9,0,1.7-0.6,1.9-1.5l2.6-10.5h7.4c6.1,0,11-4.9,11-11
		S-269.9-530-276-530z"/>
	<path class="st2" d="M-162-530c-0.5,0-1.1,0.1-1.7,0.2c-2.1-7.2-8.6-12.2-16.3-12.2c-7.7,0-14.2,5-16.3,12.2
		c-0.6-0.1-1.2-0.2-1.7-0.2c-6.1,0-11,4.9-11,11s4.9,11,11,11h5.4l-2.4,9.5c-0.3,1.1,0.4,2.2,1.5,2.4c0.2,0,0.3,0.1,0.5,0.1
		c0.9,0,1.7-0.6,1.9-1.5l2.6-10.5h5.4l-3.9,15.5c-0.3,1.1,0.4,2.2,1.5,2.4c0.2,0,0.3,0.1,0.5,0.1c0.9,0,1.7-0.6,1.9-1.5l4.1-16.5
		h5.4l-2.4,9.5c-0.3,1.1,0.4,2.2,1.5,2.4c0.2,0,0.3,0.1,0.5,0.1c0.9,0,1.7-0.6,1.9-1.5l2.6-10.5h7.4c6.1,0,11-4.9,11-11
		S-155.9-530-162-530z"/>
	<g>
		<path class="st2" d="M37.8-533h12c1.1,0,2-0.9,2-2s-0.9-2-2-2h-12c-1.1,0-2,0.9-2,2S36.7-533,37.8-533z"/>
		<path class="st2" d="M25.8-527h24c1.1,0,2-0.9,2-2s-0.9-2-2-2h-24c-1.1,0-2,0.9-2,2S24.7-527,25.8-527z"/>
		<path class="st2" d="M19.8-521h24c1.1,0,2-0.9,2-2s-0.9-2-2-2h-24c-1.1,0-2,0.9-2,2S18.7-521,19.8-521z"/>
		<path class="st2" d="M78.8-517c0-1.1-0.9-2-2-2h-60c-1.1,0-2,0.9-2,2s0.9,2,2,2h60C77.9-515,78.8-515.9,78.8-517z"/>
		<path class="st2" d="M76.8-513h-57c-1.1,0-2,0.9-2,2s0.9,2,2,2h57c1.1,0,2-0.9,2-2S77.9-513,76.8-513z"/>
		<path class="st2" d="M37.8-507l-12,0c-1.1,0-2,0.9-2,2s0.9,2,2,2l12,0c1.1,0,2-0.9,2-2S38.9-507,37.8-507z"/>
		<path class="st2" d="M56.8-527h8c1.1,0,2-0.9,2-2s-0.9-2-2-2h-8c-1.1,0-2,0.9-2,2S55.7-527,56.8-527z"/>
		<path class="st2" d="M47.8-523c0,1.1,0.9,2,2,2h21c1.1,0,2-0.9,2-2s-0.9-2-2-2h-21C48.7-525,47.8-524.1,47.8-523z"/>
		<path class="st2" d="M70.8-507l-27,0c-1.1,0-2,0.9-2,2s0.9,2,2,2l27,0c1.1,0,2-0.9,2-2S71.9-507,70.8-507z"/>
	</g>
	<path class="st4" d="M-276-416c-0.5,0-1.1,0.1-1.7,0.2c-2.1-7.2-8.6-12.2-16.3-12.2c-7.7,0-14.2,5-16.3,12.2
		c-0.6-0.1-1.2-0.2-1.7-0.2c-6.1,0-11,4.9-11,11s4.9,11,11,11h36c6.1,0,11-4.9,11-11S-269.9-416-276-416z"/>
	<g>
		<path class="st2" d="M-207-403c1.1,0,2-0.9,2-2c0-3.9,3.1-7,7-7c0.3,0,0.7,0.1,1.2,0.2v1.8c0,1.1,0.9,2,2,2c1.1,0,2-0.9,2-2v-3.2
			c1.1-6.3,6.4-10.8,12.8-10.8c6.4,0,11.7,4.5,12.8,10.8v3.2c0,1.1,0.9,2,2,2c1.1,0,2-0.9,2-2v-1.8c0.5-0.1,0.9-0.2,1.2-0.2
			c3.9,0,7,3.1,7,7c0,1.1,0.9,2,2,2c1.1,0,2-0.9,2-2c0-6.1-4.9-11-11-11c-0.5,0-1.1,0.1-1.7,0.2c-2.1-7.2-8.6-12.2-16.3-12.2
			c-7.7,0-14.2,5-16.3,12.2c-0.6-0.1-1.2-0.2-1.7-0.2c-6.1,0-11,4.9-11,11C-209-403.9-208.1-403-207-403z"/>
		<path class="st2" d="M-188-397c0,1.1,0.9,2,2,2h36c1.1,0,2-0.9,2-2s-0.9-2-2-2h-36C-187.1-399-188-398.1-188-397z"/>
		<path class="st2" d="M-180-392c-1.1,0-2,0.9-2,2s0.9,2,2,2h27c1.1,0,2-0.9,2-2s-0.9-2-2-2H-180z"/>
		<path class="st2" d="M-150-385h-24c-1.1,0-2,0.9-2,2s0.9,2,2,2h24c1.1,0,2-0.9,2-2S-148.9-385-150-385z"/>
		<path class="st2" d="M-210-395h18c1.1,0,2-0.9,2-2s-0.9-2-2-2h-18c-1.1,0-2,0.9-2,2S-211.1-395-210-395z"/>
		<path class="st2" d="M-207-392c-1.1,0-2,0.9-2,2s0.9,2,2,2h21c1.1,0,2-0.9,2-2s-0.9-2-2-2H-207z"/>
		<path class="st2" d="M-180-385h-30c-1.1,0-2,0.9-2,2s0.9,2,2,2h30c1.1,0,2-0.9,2-2S-178.9-385-180-385z"/>
	</g>
	<path class="st4" d="M-162-416c-0.5,0-1.1,0.1-1.7,0.2c-2.1-7.2-8.6-12.2-16.3-12.2c-7.7,0-14.2,5-16.3,12.2
		c-0.6-0.1-1.2-0.2-1.7-0.2c-6.1,0-11,4.9-11,11s4.9,11,11,11h36c6.1,0,11-4.9,11-11S-155.9-416-162-416z"/>
	<g>
		<path class="st2" d="M-93-403c1.1,0,2-0.9,2-2c0-3.9,3.1-7,7-7c0.3,0,0.7,0.1,1.2,0.2v1.8c0,1.1,0.9,2,2,2s2-0.9,2-2v-3.2
			c1.1-6.3,6.4-10.8,12.8-10.8c6.4,0,11.7,4.5,12.8,10.8v3.2c0,1.1,0.9,2,2,2s2-0.9,2-2v-1.8c0.5-0.1,0.9-0.2,1.2-0.2
			c3.9,0,7,3.1,7,7c0,1.1,0.9,2,2,2c1.1,0,2-0.9,2-2c0-6.1-4.9-11-11-11c-0.5,0-1.1,0.1-1.7,0.2C-51.8-423-58.3-428-66-428
			c-7.7,0-14.2,5-16.3,12.2c-0.6-0.1-1.2-0.2-1.7-0.2c-6.1,0-11,4.9-11,11C-95-403.9-94.1-403-93-403z"/>
		<path class="st2" d="M-74-397c0,1.1,0.9,2,2,2h36c1.1,0,2-0.9,2-2s-0.9-2-2-2h-36C-73.1-399-74-398.1-74-397z"/>
		<path class="st2" d="M-66-392c-1.1,0-2,0.9-2,2s0.9,2,2,2h27c1.1,0,2-0.9,2-2s-0.9-2-2-2H-66z"/>
		<path class="st2" d="M-36-385h-24c-1.1,0-2,0.9-2,2s0.9,2,2,2h24c1.1,0,2-0.9,2-2S-34.9-385-36-385z"/>
		<path class="st2" d="M-96-395h18c1.1,0,2-0.9,2-2s-0.9-2-2-2h-18c-1.1,0-2,0.9-2,2S-97.1-395-96-395z"/>
		<path class="st2" d="M-93-392c-1.1,0-2,0.9-2,2s0.9,2,2,2h21c1.1,0,2-0.9,2-2s-0.9-2-2-2H-93z"/>
		<path class="st2" d="M-66-385h-30c-1.1,0-2,0.9-2,2s0.9,2,2,2h30c1.1,0,2-0.9,2-2S-64.9-385-66-385z"/>
	</g>
	<path class="st4" d="M-48-416c-0.5,0-1.1,0.1-1.7,0.2C-51.8-423-58.3-428-66-428c-7.7,0-14.2,5-16.3,12.2c-0.6-0.1-1.2-0.2-1.7-0.2
		c-6.1,0-11,4.9-11,11s4.9,11,11,11h36c6.1,0,11-4.9,11-11S-41.9-416-48-416z"/>
	<path class="st4" d="M66-422c-0.5,0-1.1,0.1-1.7,0.2C62.2-429,55.7-434,48-434c-7.7,0-14.2,5-16.3,12.2c-0.6-0.1-1.2-0.2-1.7-0.2
		c-6.1,0-11,4.9-11,11s4.9,11,11,11h36c6.1,0,11-4.9,11-11S72.1-422,66-422z"/>
	<path class="st4" d="M-48-986c-0.5,0-1.1,0.1-1.7,0.2C-51.8-993-58.3-998-66-998c-7.7,0-14.2,5-16.3,12.2c-0.6-0.1-1.2-0.2-1.7-0.2
		c-6.1,0-11,4.9-11,11s4.9,11,11,11h36c6.1,0,11-4.9,11-11S-41.9-986-48-986z"/>
	<path class="st4" d="M66-986c-0.5,0-1.1,0.1-1.7,0.2C62.2-993,55.7-998,48-998c-7.7,0-14.2,5-16.3,12.2c-0.6-0.1-1.2-0.2-1.7-0.2
		c-6.1,0-11,4.9-11,11s4.9,11,11,11h36c6.1,0,11-4.9,11-11S72.1-986,66-986z"/>
	<path class="st4" d="M-390-872c-0.5,0-1.1,0.1-1.7,0.2c-2.1-7.2-8.6-12.2-16.3-12.2c-7.7,0-14.2,5-16.3,12.2
		c-0.6-0.1-1.2-0.2-1.7-0.2c-6.1,0-11,4.9-11,11s4.9,11,11,11h36c6.1,0,11-4.9,11-11S-383.9-872-390-872z"/>
	<g>
		<g>
			<path class="st2" d="M-294-848c-1.1,0-2,0.9-2,2v18c0,1.1,0.9,2,2,2s2-0.9,2-2v-18C-292-847.1-292.9-848-294-848z"/>
			<path class="st2" d="M-266.3-866.2c-0.3-0.6-0.7-1.2-1.2-1.8c-1.3-1.6-3.2-2.9-5.2-3.5c-1-0.3-2.1-0.5-3.3-0.5
				c-0.5,0-1.1,0.1-1.7,0.2c-2.1-7.2-8.6-12.2-16.3-12.2c-7.7,0-14.2,5-16.3,12.2c-0.6-0.1-1.2-0.2-1.7-0.2c-1.1,0-2.2,0.2-3.3,0.5
				c-2.1,0.6-3.9,1.9-5.2,3.5c-0.4,0.5-0.8,1.1-1.2,1.8c-0.8,1.6-1.3,3.3-1.3,5.2s0.5,3.7,1.3,5.2c0.3,0.6,0.7,1.2,1.2,1.8
				c1.3,1.6,3.2,2.9,5.2,3.5c1,0.3,2.1,0.5,3.3,0.5h7v16c0,1.1,0.9,2,2,2s2-0.9,2-2v-16h14v16c0,1.1,0.9,2,2,2s2-0.9,2-2v-16h7
				c1.1,0,2.2-0.2,3.3-0.5c2.1-0.6,3.9-1.9,5.2-3.5c0.4-0.5,0.8-1.1,1.2-1.8c0.8-1.6,1.3-3.3,1.3-5.2S-265.5-864.7-266.3-866.2z"/>
		</g>
		<path class="st4" d="M-276-872c-0.5,0-1.1,0.1-1.7,0.2c-2.1-7.2-8.6-12.2-16.3-12.2c-7.7,0-14.2,5-16.3,12.2
			c-0.6-0.1-1.2-0.2-1.7-0.2c-6.1,0-11,4.9-11,11s4.9,11,11,11h36c6.1,0,11-4.9,11-11S-269.9-872-276-872z"/>
	</g>
	<path class="st4" d="M-162-872c-0.5,0-1.1,0.1-1.7,0.2c-2.1-7.2-8.6-12.2-16.3-12.2c-7.7,0-14.2,5-16.3,12.2
		c-0.6-0.1-1.2-0.2-1.7-0.2c-6.1,0-11,4.9-11,11s4.9,11,11,11h36c6.1,0,11-4.9,11-11S-155.9-872-162-872z"/>
	<path class="st4" d="M-48-872c-0.5,0-1.1,0.1-1.7,0.2C-51.8-879-58.3-884-66-884c-7.7,0-14.2,5-16.3,12.2c-0.6-0.1-1.2-0.2-1.7-0.2
		c-6.1,0-11,4.9-11,11s4.9,11,11,11h36c6.1,0,11-4.9,11-11S-41.9-872-48-872z"/>
	<g>
		<g>
			<circle class="st2" cx="39" cy="-846" r="2"/>
			<circle class="st2" cx="57" cy="-846" r="2"/>
			<circle class="st2" cx="48" cy="-840" r="2"/>
			<circle class="st2" cx="57" cy="-834" r="2"/>
			<circle class="st2" cx="48" cy="-828" r="2"/>
			<circle class="st2" cx="39" cy="-834" r="2"/>
			<path class="st2" d="M75.7-866.2c-0.3-0.6-0.7-1.2-1.2-1.8c-1.3-1.6-3.2-2.9-5.2-3.5c-1-0.3-2.1-0.5-3.3-0.5
				c-0.3,0-0.5,0-0.8,0.1c-0.3,0-0.6,0.1-0.9,0.1c-0.9-3.1-2.7-5.9-5-7.9c-0.3-0.3-0.7-0.6-1-0.8c-0.7-0.5-1.5-1-2.3-1.4
				c-2.4-1.3-5.1-2-8-2c-7.7,0-14.2,5-16.3,12.2c-0.1,0-0.1,0-0.2,0c-0.5-0.1-1-0.2-1.5-0.2c-1.1,0-2.2,0.2-3.3,0.5
				c-2.1,0.6-3.9,1.9-5.2,3.5c-0.4,0.5-0.8,1.1-1.2,1.8c-0.8,1.6-1.3,3.3-1.3,5.2s0.5,3.7,1.3,5.2c0.3,0.6,0.7,1.2,1.2,1.8
				c1.3,1.6,3.2,2.9,5.2,3.5c1,0.3,2.1,0.5,3.3,0.5h36c1.1,0,2.2-0.2,3.3-0.5c2.1-0.6,3.9-1.9,5.2-3.5c0.4-0.5,0.8-1.1,1.2-1.8
				c0.8-1.6,1.3-3.3,1.3-5.2S76.5-864.7,75.7-866.2z"/>
		</g>
		<path class="st4" d="M66-872c-0.5,0-1.1,0.1-1.7,0.2C62.2-879,55.7-884,48-884c-7.7,0-14.2,5-16.3,12.2c-0.6-0.1-1.2-0.2-1.7-0.2
			c-6.1,0-11,4.9-11,11s4.9,11,11,11h36c6.1,0,11-4.9,11-11S72.1-872,66-872z"/>
	</g>
	<path class="st4" d="M-390-758c-0.5,0-1.1,0.1-1.7,0.2c-2.1-7.2-8.6-12.2-16.3-12.2c-7.7,0-14.2,5-16.3,12.2
		c-0.6-0.1-1.2-0.2-1.7-0.2c-6.1,0-11,4.9-11,11s4.9,11,11,11h36c6.1,0,11-4.9,11-11S-383.9-758-390-758z"/>
	<path class="st4" d="M-276-758c-0.5,0-1.1,0.1-1.7,0.2c-2.1-7.2-8.6-12.2-16.3-12.2c-7.7,0-14.2,5-16.3,12.2
		c-0.6-0.1-1.2-0.2-1.7-0.2c-6.1,0-11,4.9-11,11s4.9,11,11,11h36c6.1,0,11-4.9,11-11S-269.9-758-276-758z"/>
	<g>
		<g>
			<path class="st2" d="M-411.3-613.3c-0.6-1-1.8-1.3-2.7-0.7c-1,0.6-1.3,1.8-0.7,2.7l1,1.7c0.4,0.6,1,1,1.7,1c0.3,0,0.7-0.1,1-0.3
				c1-0.6,1.3-1.8,0.7-2.7L-411.3-613.3z"/>
			<path class="st2" d="M-416-614.1c-1-0.6-2.2-0.2-2.7,0.7l-1,1.7c-0.6,1-0.2,2.2,0.7,2.7c0.3,0.2,0.7,0.3,1,0.3
				c0.7,0,1.4-0.4,1.7-1l1-1.7C-414.7-612.3-415-613.5-416-614.1z"/>
			<path class="st2" d="M-417-615.8c0-1.1-0.9-2-2-2h-2c-1.1,0-2,0.9-2,2c0,1.1,0.9,2,2,2h2C-417.9-613.8-417-614.7-417-615.8z"/>
			<path class="st2" d="M-409-617.8h-2c-1.1,0-2,0.9-2,2c0,1.1,0.9,2,2,2h2c1.1,0,2-0.9,2-2C-407-616.9-407.9-617.8-409-617.8z"/>
			<path class="st2" d="M-389-643c-0.5,0-1.1,0.1-1.7,0.2c-2.1-7.2-8.6-12.2-16.3-12.2c-7.7,0-14.2,5-16.3,12.2
				c-0.6-0.1-1.2-0.2-1.7-0.2c-6.1,0-11,4.9-11,11s4.9,11,11,11h5c0,0.3,0.1,0.7,0.3,1l1,1.7c0.4,0.6,1,1,1.7,1c0.3,0,0.7-0.1,1-0.3
				c1-0.6,1.3-1.8,0.7-2.7l-0.4-0.7h1.4l-0.4,0.7c-0.6,1-0.2,2.2,0.7,2.7c0.3,0.2,0.7,0.3,1,0.3c0.7,0,1.4-0.4,1.7-1l1-1.7
				c0.2-0.3,0.3-0.7,0.3-1h21c6.1,0,11-4.9,11-11S-382.9-643-389-643z"/>
			<path class="st2" d="M-394.3-608.3c-0.6-1-1.8-1.3-2.7-0.7c-1,0.6-1.3,1.8-0.7,2.7l1,1.7c0.4,0.6,1,1,1.7,1c0.3,0,0.7-0.1,1-0.3
				c1-0.6,1.3-1.8,0.7-2.7L-394.3-608.3z"/>
			<path class="st2" d="M-399.3-617c-0.6-1-1.8-1.3-2.7-0.7c-1,0.6-1.3,1.8-0.7,2.7l1,1.7c0.4,0.6,1,1,1.7,1c0.3,0,0.7-0.1,1-0.3
				c1-0.6,1.3-1.8,0.7-2.7L-399.3-617z"/>
			<path class="st2" d="M-397-612.5c0.3,0.2,0.7,0.3,1,0.3c0.7,0,1.4-0.4,1.7-1l1-1.7c0.6-1,0.2-2.2-0.7-2.7c-1-0.6-2.2-0.2-2.7,0.7
				l-1,1.7C-398.3-614.3-398-613.1-397-612.5z"/>
			<path class="st2" d="M-399-609.1c-1-0.6-2.2-0.2-2.7,0.7l-1,1.7c-0.6,1-0.2,2.2,0.7,2.7c0.3,0.2,0.7,0.3,1,0.3
				c0.7,0,1.4-0.4,1.7-1l1-1.7C-397.7-607.3-398-608.5-399-609.1z"/>
			<path class="st2" d="M-400-610.8c0-1.1-0.9-2-2-2h-2c-1.1,0-2,0.9-2,2c0,1.1,0.9,2,2,2h2C-400.9-608.8-400-609.7-400-610.8z"/>
			<path class="st2" d="M-392-612.8h-2c-1.1,0-2,0.9-2,2c0,1.1,0.9,2,2,2h2c1.1,0,2-0.9,2-2C-390-611.9-390.9-612.8-392-612.8z"/>
		</g>
		<path class="st4" d="M-389-643c-0.5,0-1.1,0.1-1.7,0.2c-2.1-7.2-8.6-12.2-16.3-12.2c-7.7,0-14.2,5-16.3,12.2
			c-0.6-0.1-1.2-0.2-1.7-0.2c-6.1,0-11,4.9-11,11s4.9,11,11,11h36c6.1,0,11-4.9,11-11S-382.9-643-389-643z"/>
	</g>
	<path class="st4" d="M-276-644c-0.5,0-1.1,0.1-1.7,0.2c-2.1-7.2-8.6-12.2-16.3-12.2c-7.7,0-14.2,5-16.3,12.2
		c-0.6-0.1-1.2-0.2-1.7-0.2c-6.1,0-11,4.9-11,11s4.9,11,11,11h36c6.1,0,11-4.9,11-11S-269.9-644-276-644z"/>
	<path class="st4" d="M-162-644c-0.5,0-1.1,0.1-1.7,0.2c-2.1-7.2-8.6-12.2-16.3-12.2c-7.7,0-14.2,5-16.3,12.2
		c-0.6-0.1-1.2-0.2-1.7-0.2c-6.1,0-11,4.9-11,11s4.9,11,11,11h36c6.1,0,11-4.9,11-11S-155.9-644-162-644z"/>
	<path class="st4" d="M-390-530c-0.5,0-1.1,0.1-1.7,0.2c-2.1-7.2-8.6-12.2-16.3-12.2c-7.7,0-14.2,5-16.3,12.2
		c-0.6-0.1-1.2-0.2-1.7-0.2c-6.1,0-11,4.9-11,11s4.9,11,11,11h36c6.1,0,11-4.9,11-11S-383.9-530-390-530z"/>
	<path class="st4" d="M-276-530c-0.5,0-1.1,0.1-1.7,0.2c-2.1-7.2-8.6-12.2-16.3-12.2c-7.7,0-14.2,5-16.3,12.2
		c-0.6-0.1-1.2-0.2-1.7-0.2c-6.1,0-11,4.9-11,11s4.9,11,11,11h36c6.1,0,11-4.9,11-11S-269.9-530-276-530z"/>
	<path class="st4" d="M-162-530c-0.5,0-1.1,0.1-1.7,0.2c-2.1-7.2-8.6-12.2-16.3-12.2c-7.7,0-14.2,5-16.3,12.2
		c-0.6-0.1-1.2-0.2-1.7-0.2c-6.1,0-11,4.9-11,11s4.9,11,11,11h36c6.1,0,11-4.9,11-11S-155.9-530-162-530z"/>
	<path class="st4" d="M-390-302c-0.5,0-1.1,0.1-1.7,0.2c-2.1-7.2-8.6-12.2-16.3-12.2c-7.7,0-14.2,5-16.3,12.2
		c-0.6-0.1-1.2-0.2-1.7-0.2c-6.1,0-11,4.9-11,11s4.9,11,11,11h36c6.1,0,11-4.9,11-11S-383.9-302-390-302z"/>
	<g>
		<g>
			<path class="st2" d="M-406-162v-12c0-1.1-0.9-2-2-2s-2,0.9-2,2v12c0,1.1,0.9,2,2,2S-406-160.9-406-162z"/>
			<path class="st2" d="M-415-156v-12c0-1.1-0.9-2-2-2s-2,0.9-2,2v12c0,1.1,0.9,2,2,2S-415-154.9-415-156z"/>
			<path class="st2" d="M-397-156v-12c0-1.1-0.9-2-2-2s-2,0.9-2,2v12c0,1.1,0.9,2,2,2S-397-154.9-397-156z"/>
			<path class="st2" d="M-416-150h-2c-1.1,0-2,0.9-2,2v2c0,1.1,0.9,2,2,2h2c1.1,0,2-0.9,2-2v-2C-414-149.1-414.9-150-416-150z"/>
			<path class="st2" d="M-407-156h-2c-1.1,0-2,0.9-2,2v2c0,1.1,0.9,2,2,2h2c1.1,0,2-0.9,2-2v-2C-405-155.1-405.9-156-407-156z"/>
			<path class="st2" d="M-398-150h-2c-1.1,0-2,0.9-2,2v2c0,1.1,0.9,2,2,2h2c1.1,0,2-0.9,2-2v-2C-396-149.1-396.9-150-398-150z"/>
		</g>
		<path class="st4" d="M-390-188c-0.5,0-1.1,0.1-1.7,0.2c-2.1-7.2-8.6-12.2-16.3-12.2c-7.7,0-14.2,5-16.3,12.2
			c-0.6-0.1-1.2-0.2-1.7-0.2c-6.1,0-11,4.9-11,11s4.9,11,11,11h36c6.1,0,11-4.9,11-11S-383.9-188-390-188z"/>
	</g>
	<g>
		<g>
			<path class="st2" d="M-68.5-174v18c0,1.1,0.9,2,2,2c1.1,0,2-0.9,2-2v-18c0-1.1-0.9-2-2-2C-67.6-176-68.5-175.1-68.5-174z"/>
			<path class="st2" d="M-91.5-155h-2c-1.1,0-2,0.9-2,2v2c0,1.1,0.9,2,2,2h2c1.1,0,2-0.9,2-2v-2C-89.5-154.1-90.4-155-91.5-155z"/>
			<path class="st2" d="M-65.5-150h-2c-1.1,0-2,0.9-2,2v2c0,1.1,0.9,2,2,2h2c1.1,0,2-0.9,2-2v-2C-63.5-149.1-64.4-150-65.5-150z"/>
			<path class="st2" d="M-38.5-158h-2c-1.1,0-2,0.9-2,2v2c0,1.1,0.9,2,2,2h2c1.1,0,2-0.9,2-2v-2C-36.5-157.1-37.4-158-38.5-158z"/>
			<path class="st2" d="M-75.5-170c-1.1,0-2,0.9-2,2v15.1c-1.2-0.7-2.5-1.1-4-1.1h-2c-1.1,0-2,0.9-2,2c0,1.1,0.9,2,2,2h2
				c2.2,0,4,1.8,4,4c0,1.1,0.9,2,2,2c1.1,0,2-0.9,2-2v-22C-73.5-169.1-74.4-170-75.5-170z"/>
			<path class="st2" d="M-48.5-157c-2.7,0-5.1,0.9-7,2.5V-168c0-1.1-0.9-2-2-2c-1.1,0-2,0.9-2,2v22c0,0,0,0,0,0c0,1.1,0.9,2,2,2
				c1.1,0,2-0.9,2-2v0c0-3.9,3.1-7,7-7c1.1,0,2-0.9,2-2C-46.5-156.1-47.4-157-48.5-157z"/>
		</g>
		<path class="st4" d="M-48-188c-0.5,0-1.1,0.1-1.7,0.2C-51.8-195-58.3-200-66-200c-7.7,0-14.2,5-16.3,12.2
			c-0.6-0.1-1.2-0.2-1.7-0.2c-6.1,0-11,4.9-11,11s4.9,11,11,11h36c6.1,0,11-4.9,11-11S-41.9-188-48-188z"/>
	</g>
	<path class="st4" d="M-48-302c-0.5,0-1.1,0.1-1.7,0.2C-51.8-309-58.3-314-66-314c-7.7,0-14.2,5-16.3,12.2c-0.6-0.1-1.2-0.2-1.7-0.2
		c-6.1,0-11,4.9-11,11s4.9,11,11,11h36c6.1,0,11-4.9,11-11S-41.9-302-48-302z"/>
	<path class="st2" d="M-305.6-278.2c-0.8,1.1-3.4,4.7-3.4,7.2c0,2.9,2.1,5,5,5s5-2.1,5-5c0-2.5-2.6-6.1-3.4-7.2
		C-303.2-279.2-304.8-279.2-305.6-278.2z"/>
	<path class="st2" d="M-287.6-278.2c-0.8,1.1-3.4,4.7-3.4,7.2c0,2.9,2.1,5,5,5s5-2.1,5-5c0-2.5-2.6-6.1-3.4-7.2
		C-285.2-279.2-286.8-279.2-287.6-278.2z"/>
	<path class="st2" d="M-296.6-267.2c-0.8,1.1-3.4,4.7-3.4,7.2c0,2.9,2.1,5,5,5s5-2.1,5-5c0-2.5-2.6-6.1-3.4-7.2
		C-294.2-268.2-295.8-268.2-296.6-267.2z"/>
	<path class="st4" d="M-276-302c-0.5,0-1.1,0.1-1.7,0.2c-2.1-7.2-8.6-12.2-16.3-12.2c-7.7,0-14.2,5-16.3,12.2
		c-0.6-0.1-1.2-0.2-1.7-0.2c-6.1,0-11,4.9-11,11s4.9,11,11,11h36c6.1,0,11-4.9,11-11S-269.9-302-276-302z"/>
	<path class="st2" d="M-419.6-278.2c-0.8,1.1-3.4,4.7-3.4,7.2c0,2.9,2.1,5,5,5s5-2.1,5-5c0-2.5-2.6-6.1-3.4-7.2
		C-417.2-279.3-418.8-279.3-419.6-278.2z"/>
	<path class="st2" d="M-401.6-278.2c-0.8,1.1-3.4,4.7-3.4,7.2c0,2.9,2.1,5,5,5s5-2.1,5-5c0-2.5-2.6-6.1-3.4-7.2
		C-399.2-279.3-400.8-279.3-401.6-278.2z"/>
	<path class="st2" d="M-410.6-267.2c-0.8,1.1-3.4,4.7-3.4,7.2c0,2.9,2.1,5,5,5s5-2.1,5-5c0-2.5-2.6-6.1-3.4-7.2
		C-408.2-268.3-409.8-268.3-410.6-267.2z"/>
	<g>
		<path class="st2" d="M-177.3-278.4c-0.7-0.8-2.1-0.8-2.8,0c-0.6,0.7-5.9,7-5.9,12.1c0,1.9,0.6,3.6,1.8,5c0.9,1.1,2.6,2.3,5.5,2.3
			c4.8,0,7.3-3.7,7.3-7.3C-171.5-271.4-176.7-277.7-177.3-278.4z M-178.7-261.7C-178.7-261.7-178.7-261.7-178.7-261.7l0,0.9
			L-178.7-261.7z"/>
		<path class="st4" d="M-162-302c-0.5,0-1.1,0.1-1.7,0.2c-2.1-7.2-8.6-12.2-16.3-12.2c-7.7,0-14.2,5-16.3,12.2
			c-0.6-0.1-1.2-0.2-1.7-0.2c-6.1,0-11,4.9-11,11s4.9,11,11,11h36c6.1,0,11-4.9,11-11S-155.9-302-162-302z"/>
	</g>
	<path class="st2" d="M-62.9-278.4c-0.7-0.8-2.1-0.8-2.8,0c-0.6,0.7-5.9,7-5.9,12.1c0,1.9,0.6,3.6,1.8,5c0.9,1.1,2.6,2.3,5.5,2.3
		c4.8,0,7.3-3.7,7.3-7.3C-57-271.3-62.3-277.7-62.9-278.4z M-64.3-261.7L-64.3-261.7l0,0.9L-64.3-261.7z"/>
	<path class="st4" d="M-162-188c-0.5,0-1.1,0.1-1.7,0.2c-2.1-7.2-8.6-12.2-16.3-12.2c-7.7,0-14.2,5-16.3,12.2
		c-0.6-0.1-1.2-0.2-1.7-0.2c-6.1,0-11,4.9-11,11s4.9,11,11,11h36c6.1,0,11-4.9,11-11S-155.9-188-162-188z"/>
	<path class="st4" d="M-276-188c-0.5,0-1.1,0.1-1.7,0.2c-2.1-7.2-8.6-12.2-16.3-12.2c-7.7,0-14.2,5-16.3,12.2
		c-0.6-0.1-1.2-0.2-1.7-0.2c-6.1,0-11,4.9-11,11s4.9,11,11,11h36c6.1,0,11-4.9,11-11S-269.9-188-276-188z"/>
	<path class="st4" d="M66-188c-0.5,0-1.1,0.1-1.7,0.2C62.2-195,55.7-200,48-200c-7.7,0-14.2,5-16.3,12.2c-0.6-0.1-1.2-0.2-1.7-0.2
		c-6.1,0-11,4.9-11,11s4.9,11,11,11h36c6.1,0,11-4.9,11-11S72.1-188,66-188z"/>
	<path class="st4" d="M66-302c-0.5,0-1.1,0.1-1.7,0.2C62.2-309,55.7-314,48-314c-7.7,0-14.2,5-16.3,12.2c-0.6-0.1-1.2-0.2-1.7-0.2
		c-6.1,0-11,4.9-11,11s4.9,11,11,11h36c6.1,0,11-4.9,11-11S72.1-302,66-302z"/>
	<path class="st2" d="M51.1-278.4c-0.7-0.8-2.1-0.8-2.8,0c-0.6,0.7-5.9,7-5.9,12.1c0,1.9,0.6,3.6,1.8,5c0.9,1.1,2.6,2.3,5.5,2.3
		c4.8,0,7.3-3.7,7.3-7.3C57-271.3,51.7-277.7,51.1-278.4z M49.7-261.7L49.7-261.7l0,0.9L49.7-261.7z"/>
	<path class="st4" d="M-390-74c-0.5,0-1.1,0.1-1.7,0.2C-393.8-81-400.3-86-408-86c-7.7,0-14.2,5-16.3,12.2c-0.6-0.1-1.2-0.2-1.7-0.2
		c-6.1,0-11,4.9-11,11s4.9,11,11,11h36c6.1,0,11-4.9,11-11S-383.9-74-390-74z"/>
	<path class="st4" d="M66.8-74.6c-0.5,0-1.1,0.1-1.7,0.2C63-81.8,56.3-87,48.5-87c-7.8,0-14.5,5.2-16.6,12.5
		c-0.6-0.1-1.2-0.2-1.7-0.2C24-74.6,19-69.6,19-63.3C19-57.1,24-52,30.2-52h36.6C73-52,78-57.1,78-63.3C78-69.6,73-74.6,66.8-74.6z"
		/>
	<path class="st4" d="M-47-75c-0.5,0-1.1,0.1-1.7,0.2C-50.8-82-57.3-87-65-87c-7.7,0-14.2,5-16.3,12.2c-0.6-0.1-1.2-0.2-1.7-0.2
		c-6.1,0-11,4.9-11,11s4.9,11,11,11h36c6.1,0,11-4.9,11-11S-40.9-75-47-75z"/>
	<g>
		<path class="st5" d="M-423-418h12c1.1,0,2-0.9,2-2s-0.9-2-2-2h-12c-1.1,0-2,0.9-2,2S-424.1-418-423-418z"/>
		<path class="st5" d="M-435-412h24c1.1,0,2-0.9,2-2s-0.9-2-2-2h-24c-1.1,0-2,0.9-2,2S-436.1-412-435-412z"/>
		<path class="st5" d="M-441-406h24c1.1,0,2-0.9,2-2s-0.9-2-2-2h-24c-1.1,0-2,0.9-2,2S-442.1-406-441-406z"/>
		<path class="st5" d="M-382-402c0-1.1-0.9-2-2-2h-60c-1.1,0-2,0.9-2,2s0.9,2,2,2h60C-382.9-400-382-400.9-382-402z"/>
		<path class="st5" d="M-384-398h-57c-1.1,0-2,0.9-2,2s0.9,2,2,2h57c1.1,0,2-0.9,2-2S-382.9-398-384-398z"/>
		<path class="st5" d="M-423-392l-12,0c-1.1,0-2,0.9-2,2s0.9,2,2,2l12,0c1.1,0,2-0.9,2-2S-421.9-392-423-392z"/>
		<path class="st5" d="M-404-412h8c1.1,0,2-0.9,2-2s-0.9-2-2-2h-8c-1.1,0-2,0.9-2,2S-405.1-412-404-412z"/>
		<path class="st5" d="M-413-408c0,1.1,0.9,2,2,2h21c1.1,0,2-0.9,2-2s-0.9-2-2-2h-21C-412.1-410-413-409.1-413-408z"/>
		<path class="st5" d="M-390-392l-27,0c-1.1,0-2,0.9-2,2s0.9,2,2,2l27,0c1.1,0,2-0.9,2-2S-388.9-392-390-392z"/>
	</g>
	<g>
		<path class="st1" d="M-308-1314c0,2.4,0.7,4.9,1.9,7c0.4,0.6,1,1,1.7,1h20.8c0.7,0,1.4-0.4,1.7-1c1.2-2.1,1.9-4.6,1.9-7
			c0-7.7-6.3-14-14-14S-308-1321.7-308-1314z M-303.2-1310C-303.2-1310-303.2-1310-303.2-1310C-303.2-1310-303.1-1310-303.2-1310
			L-303.2-1310z M-295.2-1323.9c0.4-0.1,0.8-0.1,1.2-0.1c0.1,0,0.1,0,0.2,0C-294.3-1324-294.8-1324-295.2-1323.9z"/>
		<polygon class="st1" points="-293.9,-1340.4 -298.8,-1331.9 -289,-1331.9 		"/>
		<polygon class="st1" points="-311.9,-1318.8 -320.4,-1313.8 -311.9,-1308.9 		"/>
		<polygon class="st1" points="-275.9,-1308.9 -267.4,-1313.8 -275.9,-1318.8 		"/>
		<polygon class="st1" points="-277.2,-1330.6 -282.7,-1328.9 -278.9,-1325.1 		"/>
		<polygon class="st1" points="-309,-1325.1 -305.2,-1328.9 -310.7,-1330.6 		"/>
	</g>
	<g>
		<path class="st1" d="M-167.7-1314.6c-2.4-4.4-7-7.4-12.3-7.4c-7.7,0-14,6.3-14,14c0,1.1,0.9,2,2,2h24c1.1,0,2-0.9,2-2
			c0-2-0.4-3.9-1.2-5.6C-167.3-1314-167.5-1314.3-167.7-1314.6z"/>
		<path class="st1" d="M-189.3-1303.9L-189.3-1303.9C-189.3-1303.9-189.3-1303.9-189.3-1303.9
			C-189.3-1303.9-189.3-1303.9-189.3-1303.9z"/>
		<polygon class="st1" points="-180.1,-1334.2 -185,-1325.7 -175.2,-1325.7 		"/>
		<polygon class="st1" points="-168.9,-1322.8 -165,-1318.9 -163.3,-1324.5 		"/>
		<polygon class="st1" points="-196.9,-1324.5 -195.2,-1318.9 -191.3,-1322.8 		"/>
	</g>
	<g>
		<path class="st1" d="M-66-1316c-5,0-9.6,2.7-12.1,7c-0.4,0.6-0.4,1.4,0,2c0.4,0.6,1,1,1.7,1h20.8c0.7,0,1.4-0.4,1.7-1
			c0.4-0.6,0.4-1.4,0-2C-56.4-1313.3-61-1316-66-1316z M-66.2-1312c0.1,0,0.1,0,0.2,0c0,0,0.1,0,0.1,0C-66-1312-66.1-1312-66.2-1312
			z"/>
		<path class="st1" d="M-75.2-1297.8L-75.2-1297.8C-75.2-1297.8-75.2-1297.8-75.2-1297.8C-75.2-1297.8-75.2-1297.8-75.2-1297.8z"/>
		<polygon class="st1" points="-66,-1328.2 -70.9,-1319.7 -61.1,-1319.7 		"/>
		<polygon class="st1" points="-54.8,-1316.7 -51,-1312.9 -49.3,-1318.4 		"/>
		<polygon class="st1" points="-82.8,-1318.4 -81.1,-1312.9 -77.3,-1316.7 		"/>
	</g>
	<g>
		<path class="st1" d="M-80.1-635.6c0,2.4,0.7,4.9,1.9,7c0.4,0.6,1,1,1.7,1h20.8c0.7,0,1.4-0.4,1.7-1c1.2-2.1,1.9-4.6,1.9-7
			c0-7.7-6.3-14-14-14S-80.1-643.4-80.1-635.6z M-75.2-631.6C-75.3-631.7-75.3-631.7-75.2-631.6C-75.2-631.7-75.2-631.7-75.2-631.6
			L-75.2-631.6z M-67.3-645.6c0.4-0.1,0.8-0.1,1.2-0.1c0.1,0,0.1,0,0.2,0C-66.4-645.6-66.9-645.6-67.3-645.6z"/>
		<polygon class="st1" points="-66,-662 -70.9,-653.5 -61.1,-653.5 		"/>
		<polygon class="st1" points="-84,-640.4 -92.5,-635.5 -84,-630.6 		"/>
		<polygon class="st1" points="-48,-630.6 -39.5,-635.5 -48,-640.4 		"/>
		<polygon class="st1" points="-49.3,-652.3 -54.8,-650.6 -51,-646.7 		"/>
		<polygon class="st1" points="-81.1,-646.7 -77.3,-650.6 -82.8,-652.3 		"/>
	</g>
	<g>
		<path class="st1" d="M34.1-636c0,2.4,0.7,4.9,1.9,7c0.4,0.6,1,1,1.7,1h20.8c0.7,0,1.4-0.4,1.7-1c1.2-2.1,1.9-4.6,1.9-7
			c0-7.7-6.3-14-14-14S34.1-643.7,34.1-636z M38.9-632C38.9-632,38.9-632,38.9-632C38.9-632,39-632,38.9-632L38.9-632z M46.8-645.9
			c0.4-0.1,0.8-0.1,1.2-0.1c0.1,0,0.1,0,0.2,0C47.8-646,47.3-646,46.8-645.9z"/>
		<polygon class="st1" points="48.1,-662.4 43.2,-653.9 53,-653.9 		"/>
		<polygon class="st1" points="30.1,-640.8 21.7,-635.8 30.1,-630.9 		"/>
		<polygon class="st1" points="66.2,-630.9 74.7,-635.8 66.2,-640.8 		"/>
		<polygon class="st1" points="64.9,-652.6 59.3,-650.9 63.2,-647.1 		"/>
		<polygon class="st1" points="33.1,-647.1 36.9,-650.9 31.3,-652.6 		"/>
	</g>
	<g>
		<path class="st4" d="M-162-74c-0.5,0-1.1,0.1-1.7,0.2C-165.8-81-172.3-86-180-86c-7.7,0-14.2,5-16.3,12.2
			c-0.6-0.1-1.2-0.2-1.7-0.2c-6.1,0-11,4.9-11,11s4.9,11,11,11h36c6.1,0,11-4.9,11-11S-155.9-74-162-74z"/>
		<g>
			<path class="st5" d="M-166.2-47l-30,0c-1.1,0-2,0.9-2,2s0.9,2,2,2l30,0c3.9,0,7,3.1,7,7s-3.1,7-7,7c-1.1,0-2,0.9-2,2s0.9,2,2,2
				c6.1,0,11-4.9,11-11S-160.1-47-166.2-47z"/>
			<path class="st5" d="M-172.2-41h-24c-1.1,0-2,0.9-2,2s0.9,2,2,2h24c0.6,0,1,0.4,1,1s-0.4,1-1,1c-1.1,0-2,0.9-2,2s0.9,2,2,2
				c2.8,0,5-2.2,5-5S-169.4-41-172.2-41z"/>
			<path class="st5" d="M-151.2-55c-1.1,0-2,0.9-2,2s0.9,2,2,2c0.6,0,1,0.4,1,1s-0.4,1-1,1h-4c-1.1,0-2,0.9-2,2s0.9,2,2,2h4
				c2.8,0,5-2.2,5-5S-148.4-55-151.2-55z"/>
			<path class="st5" d="M-196.2-49l33,0c4.4,0,8-3.6,8-8s-3.6-8-8-8s-8,3.6-8,8c0,1.1,0.9,2,2,2c1.1,0,2-0.9,2-2c0-2.2,1.8-4,4-4
				s4,1.8,4,4s-1.8,4-4,4l-33,0c-1.1,0-2,0.9-2,2S-197.3-49-196.2-49z"/>
		</g>
	</g>
	<g>
		<path class="st5" d="M-51.5-48l-30,0c-1.1,0-2,0.9-2,2s0.9,2,2,2l30,0c3.9,0,7,3.1,7,7s-3.1,7-7,7c-1.1,0-2,0.9-2,2s0.9,2,2,2
			c6.1,0,11-4.9,11-11S-45.4-48-51.5-48z"/>
		<path class="st5" d="M-57.5-42h-24c-1.1,0-2,0.9-2,2s0.9,2,2,2h24c0.6,0,1,0.4,1,1s-0.4,1-1,1c-1.1,0-2,0.9-2,2s0.9,2,2,2
			c2.8,0,5-2.2,5-5S-54.7-42-57.5-42z"/>
		<path class="st5" d="M-36.5-56c-1.1,0-2,0.9-2,2s0.9,2,2,2c0.6,0,1,0.4,1,1s-0.4,1-1,1h-4c-1.1,0-2,0.9-2,2s0.9,2,2,2h4
			c2.8,0,5-2.2,5-5S-33.7-56-36.5-56z"/>
		<path class="st5" d="M-81.5-50l33,0c4.4,0,8-3.6,8-8s-3.6-8-8-8c-4.4,0-8,3.6-8,8c0,1.1,0.9,2,2,2c1.1,0,2-0.9,2-2
			c0-2.2,1.8-4,4-4c2.2,0,4,1.8,4,4s-1.8,4-4,4l-33,0c-1.1,0-2,0.9-2,2S-82.6-50-81.5-50z"/>
	</g>
	<g>
		<path class="st5" d="M63.3-48l-30,0c-1.1,0-2,0.9-2,2s0.9,2,2,2l30,0c3.9,0,7,3.1,7,7s-3.1,7-7,7c-1.1,0-2,0.9-2,2s0.9,2,2,2
			c6.1,0,11-4.9,11-11S69.3-48,63.3-48z"/>
		<path class="st5" d="M57.3-42h-24c-1.1,0-2,0.9-2,2s0.9,2,2,2h24c0.6,0,1,0.4,1,1s-0.4,1-1,1c-1.1,0-2,0.9-2,2s0.9,2,2,2
			c2.8,0,5-2.2,5-5S60-42,57.3-42z"/>
		<path class="st5" d="M78.3-56c-1.1,0-2,0.9-2,2s0.9,2,2,2c0.6,0,1,0.4,1,1s-0.4,1-1,1h-4c-1.1,0-2,0.9-2,2s0.9,2,2,2h4
			c2.8,0,5-2.2,5-5S81-56,78.3-56z"/>
		<path class="st5" d="M33.3-50l33,0c4.4,0,8-3.6,8-8s-3.6-8-8-8c-4.4,0-8,3.6-8,8c0,1.1,0.9,2,2,2s2-0.9,2-2c0-2.2,1.8-4,4-4
			c2.2,0,4,1.8,4,4s-1.8,4-4,4l-33,0c-1.1,0-2,0.9-2,2S32.2-50,33.3-50z"/>
	</g>
</g>
</svg>
