<?xml version="1.0" encoding="utf-8"?>
<!-- Generator: Adobe Illustrator 19.2.0, SVG Export Plug-In . SVG Version: 6.00 Build 0)  -->
<svg version="1.1" xmlns="http://www.w3.org/2000/svg" xmlns:xlink="http://www.w3.org/1999/xlink" x="0px" y="0px"
	 viewBox="0 0 96 96" style="enable-background:new 0 0 96 96;" xml:space="preserve">
<style type="text/css">
	.st0{display:none;}
	.st1{fill:#FFCC00;}
	.st2{fill:#5AC8FA;}
	.st3{fill:#5856D6;}
	.st4{fill:#007AFF;}
	.st5{fill:#FF9500;}
	.st6{fill:#FF3B30;}
</style>
<g id="Base" class="st0">
</g>
<g id="Dibujo">
	<g>
		<polyline class="st1" points="153.7,-396.9 146.7,-383.8 151.9,-383.8 146.1,-372.4 158.3,-386.6 152.1,-386.5 161,-396.9 		"/>
		<polyline class="st1" points="166.5,-401.8 159.5,-388.7 164.7,-388.7 158.9,-377.3 171.1,-391.5 164.9,-391.4 173.8,-401.8 		"/>
	</g>
	<g>
		<path class="st2" d="M-182.5,282v18c0,1.1,0.9,2,2,2c1.1,0,2-0.9,2-2v-18c0-1.1-0.9-2-2-2C-181.6,280-182.5,280.9-182.5,282z"/>
		<path class="st2" d="M-205.5,301h-2c-1.1,0-2,0.9-2,2v2c0,1.1,0.9,2,2,2h2c1.1,0,2-0.9,2-2v-2C-203.5,301.9-204.4,301-205.5,301z"
			/>
		<path class="st2" d="M-179.5,306h-2c-1.1,0-2,0.9-2,2v2c0,1.1,0.9,2,2,2h2c1.1,0,2-0.9,2-2v-2C-177.5,306.9-178.4,306-179.5,306z"
			/>
		<path class="st2" d="M-152.5,298h-2c-1.1,0-2,0.9-2,2v2c0,1.1,0.9,2,2,2h2c1.1,0,2-0.9,2-2v-2C-150.5,298.9-151.4,298-152.5,298z"
			/>
		<path class="st2" d="M-189.5,286c-1.1,0-2,0.9-2,2v15.1c-1.2-0.7-2.5-1.1-4-1.1h-2c-1.1,0-2,0.9-2,2c0,1.1,0.9,2,2,2h2
			c2.2,0,4,1.8,4,4c0,1.1,0.9,2,2,2c1.1,0,2-0.9,2-2v-22C-187.5,286.9-188.4,286-189.5,286z"/>
		<path class="st2" d="M-162.5,299c-2.7,0-5.1,0.9-7,2.5V288c0-1.1-0.9-2-2-2s-2,0.9-2,2v22c0,0,0,0,0,0c0,1.1,0.9,2,2,2s2-0.9,2-2
			v0c0-3.9,3.1-7,7-7c1.1,0,2-0.9,2-2C-160.5,299.9-161.4,299-162.5,299z"/>
	</g>
	<g>
		<path class="st1" d="M174.2,250c-7.7,0-14,6.3-14,14s6.3,14,14,14s14-6.3,14-14S181.9,250,174.2,250z"/>
		<polygon class="st1" points="174.2,237.5 179.1,246 169.3,246 		"/>
		<polygon class="st1" points="200.8,264 192.3,268.9 192.3,259.1 		"/>
		<polygon class="st1" points="191,247.2 189.3,252.8 185.4,248.9 		"/>
		<polygon class="st1" points="157.4,247.2 163,248.9 159.1,252.8 		"/>
	</g>
	<g>
		<path class="st1" d="M287.9,136c-7.7,0-14,6.3-14,14s6.3,14,14,14s14-6.3,14-14S295.6,136,287.9,136z"/>
		<polygon class="st1" points="287.9,123.5 292.8,132 283,132 		"/>
		<polygon class="st1" points="314.4,150 306,154.9 306,145.1 		"/>
		<polygon class="st1" points="304.6,133.2 302.9,138.8 299.1,134.9 		"/>
		<polygon class="st1" points="271.1,133.2 276.6,134.9 272.8,138.8 		"/>
	</g>
	<g>
		<path class="st2" d="M-64,179.9v-12c0-1.1-0.9-2-2-2s-2,0.9-2,2v12c0,1.1,0.9,2,2,2S-64,181-64,179.9z"/>
		<path class="st2" d="M-73,185.9v-12c0-1.1-0.9-2-2-2c-1.1,0-2,0.9-2,2v12c0,1.1,0.9,2,2,2C-73.9,187.9-73,187-73,185.9z"/>
		<path class="st2" d="M-55,185.9v-12c0-1.1-0.9-2-2-2c-1.1,0-2,0.9-2,2v12c0,1.1,0.9,2,2,2C-55.9,187.9-55,187-55,185.9z"/>
		<path class="st2" d="M-74,191.9h-2c-1.1,0-2,0.9-2,2v2c0,1.1,0.9,2,2,2h2c1.1,0,2-0.9,2-2v-2C-72,192.8-72.9,191.9-74,191.9z"/>
		<path class="st2" d="M-65,185.9h-2c-1.1,0-2,0.9-2,2v2c0,1.1,0.9,2,2,2h2c1.1,0,2-0.9,2-2v-2C-63,186.8-63.9,185.9-65,185.9z"/>
		<path class="st2" d="M-56,191.9h-2c-1.1,0-2,0.9-2,2v2c0,1.1,0.9,2,2,2h2c1.1,0,2-0.9,2-2v-2C-54,192.8-54.9,191.9-56,191.9z"/>
	</g>
	<g>
		<path class="st1" d="M-53.9,136c-7.7,0-14,6.3-14,14s6.3,14,14,14s14-6.3,14-14S-46.2,136-53.9,136z"/>
		<polygon class="st1" points="-53.9,123.5 -49,132 -58.8,132 		"/>
		<polygon class="st1" points="-27.3,150 -35.8,154.9 -35.8,145.1 		"/>
		<polygon class="st1" points="-37.1,133.2 -38.8,138.8 -42.7,134.9 		"/>
		<polygon class="st1" points="-70.7,133.2 -65.1,134.9 -69,138.8 		"/>
	</g>
	<g>
		<path class="st1" d="M-168.2,22.1c-7.7,0-14,6.3-14,14s6.3,14,14,14s14-6.3,14-14S-160.5,22.1-168.2,22.1z"/>
		<polygon class="st1" points="-168.2,9.6 -163.3,18 -173.1,18 		"/>
		<polygon class="st1" points="-141.6,36.1 -150.1,41 -150.1,31.2 		"/>
		<polygon class="st1" points="-151.4,19.3 -153.2,24.8 -157,21 		"/>
		<polygon class="st1" points="-185,19.3 -179.4,21 -183.3,24.8 		"/>
	</g>
	<g>
		<path class="st1" d="M174,22c-7.7,0-14,6.3-14,14s6.3,14,14,14s14-6.3,14-14S181.7,22,174,22z"/>
		<polygon class="st1" points="174,9.5 178.9,18 169.1,18 		"/>
		<polygon class="st1" points="200.6,36 192.1,40.9 192.1,31.1 		"/>
		<polygon class="st1" points="190.8,19.2 189,24.8 185.2,20.9 		"/>
		<polygon class="st1" points="157.2,19.2 162.8,20.9 158.9,24.8 		"/>
	</g>
	<g>
		<path class="st1" d="M60.2-92c-7.7,0-14,6.3-14,14s6.3,14,14,14c7.7,0,14-6.3,14-14S68-92,60.2-92z"/>
		<polygon class="st1" points="60.3,-104.5 65.2,-96 55.4,-96 		"/>
		<polygon class="st1" points="86.8,-78 78.3,-73.1 78.3,-82.9 		"/>
		<polygon class="st1" points="77,-94.8 75.3,-89.2 71.5,-93.1 		"/>
		<polygon class="st1" points="43.5,-94.8 49,-93.1 45.2,-89.2 		"/>
	</g>
	<g>
		<path class="st1" d="M-54-206c-7.7,0-14,6.3-14,14s6.3,14,14,14s14-6.3,14-14S-46.3-206-54-206z"/>
		<polygon class="st1" points="-54,-218.5 -49,-210 -58.9,-210 		"/>
		<polygon class="st1" points="-27.4,-192 -35.9,-187.1 -35.9,-196.9 		"/>
		<polygon class="st1" points="-37.2,-208.8 -38.9,-203.2 -42.8,-207.1 		"/>
		<polygon class="st1" points="-70.8,-208.8 -65.2,-207.1 -69,-203.2 		"/>
	</g>
	<g>
		<path class="st1" d="M-53.9-320c-7.7,0-14,6.3-14,14s6.3,14,14,14s14-6.3,14-14S-46.2-320-53.9-320z"/>
		<polygon class="st1" points="-53.9,-332.5 -49,-324 -58.8,-324 		"/>
		<polygon class="st1" points="-27.3,-306 -35.8,-301.1 -35.8,-310.9 		"/>
		<polygon class="st1" points="-37.1,-322.8 -38.8,-317.2 -42.7,-321.1 		"/>
		<polygon class="st1" points="-70.7,-322.8 -65.1,-321.1 -69,-317.2 		"/>
	</g>
	<g>
		<path class="st1" d="M-167.8-434c-7.7,0-14,6.3-14,14s6.3,14,14,14s14-6.3,14-14S-160.1-434-167.8-434z"/>
		<polygon class="st1" points="-167.8,-446.5 -162.9,-438 -172.7,-438 		"/>
		<polygon class="st1" points="-141.2,-420 -149.7,-415.1 -149.7,-424.9 		"/>
		<polygon class="st1" points="-151,-436.8 -152.8,-431.2 -156.6,-435.1 		"/>
		<polygon class="st1" points="-184.6,-436.8 -179,-435.1 -182.9,-431.2 		"/>
	</g>
	<g>
		<path class="st1" d="M173.9-434c-7.7,0-14,6.3-14,14s6.3,14,14,14c7.7,0,14-6.3,14-14S181.6-434,173.9-434z"/>
		<polygon class="st1" points="173.9,-446.5 178.9,-438 169,-438 		"/>
		<polygon class="st1" points="200.5,-420 192,-415.1 192,-424.9 		"/>
		<polygon class="st1" points="190.7,-436.8 189,-431.2 185.1,-435.1 		"/>
		<polygon class="st1" points="157.1,-436.8 162.7,-435.1 158.9,-431.2 		"/>
	</g>
	<g>
		<path class="st1" d="M60-548c-7.7,0-14,6.3-14,14s6.3,14,14,14s14-6.3,14-14S67.7-548,60-548z"/>
		<polygon class="st1" points="60.1,-560.5 65,-552 55.2,-552 		"/>
		<polygon class="st1" points="86.6,-534 78.1,-529.1 78.1,-538.9 		"/>
		<polygon class="st1" points="76.8,-550.8 75.1,-545.2 71.3,-549.1 		"/>
		<polygon class="st1" points="43.3,-550.8 48.8,-549.1 45,-545.2 		"/>
	</g>
	<g>
		<path class="st1" d="M287.9-662c-7.7,0-14,6.3-14,14s6.3,14,14,14s14-6.3,14-14S295.7-662,287.9-662z"/>
		<polygon class="st1" points="288,-674.5 292.9,-666 283.1,-666 		"/>
		<polygon class="st1" points="314.5,-648 306,-643.1 306,-652.9 		"/>
		<polygon class="st1" points="304.7,-664.7 303,-659.2 299.2,-663 		"/>
		<polygon class="st1" points="271.2,-664.7 276.7,-663 272.9,-659.2 		"/>
	</g>
	<path class="st3" d="M-165.5,247.4c0-1.2,0.2-2.3,0.6-3.4c-1-0.2-2-0.3-3-0.3c-7.7,0-14,6.3-14,14c0,7.7,6.3,14,14,14
		c7.7,0,13.9-6.2,14-13.8c-0.3,0-0.7,0.1-1,0.1C-160.8,257.9-165.5,253.2-165.5,247.4z"/>
	<path class="st3" d="M290.5,247.7c0-1.2,0.2-2.3,0.6-3.4c-1-0.2-2-0.3-3-0.3c-7.7,0-14,6.3-14,14s6.3,14,14,14
		c7.7,0,13.9-6.2,14-13.8c-0.3,0-0.7,0.1-1,0.1C295.2,258.3,290.5,253.5,290.5,247.7z"/>
	<path class="st3" d="M62.5,133.4c0-1.2,0.2-2.3,0.6-3.4c-1-0.2-2-0.3-3-0.3c-7.7,0-14,6.3-14,14s6.3,14,14,14
		c7.7,0,13.9-6.2,14-13.8c-0.3,0-0.7,0.1-1,0.1C67.2,143.9,62.5,139.2,62.5,133.4z"/>
	<path class="st3" d="M290.6,19.7c0-1.2,0.2-2.3,0.6-3.4c-1-0.2-2-0.3-3-0.3c-7.7,0-14,6.3-14,14s6.3,14,14,14
		c7.7,0,13.9-6.2,14-13.8c-0.3,0-0.7,0.1-1,0.1C295.3,30.3,290.6,25.5,290.6,19.7z"/>
	<path class="st3" d="M-51.5,19.7c0-1.2,0.2-2.3,0.6-3.4c-1-0.2-2-0.3-3-0.3c-7.7,0-14,6.3-14,14s6.3,14,14,14
		c7.7,0,13.9-6.2,14-13.8c-0.3,0-0.7,0.1-1,0.1C-46.8,30.3-51.5,25.5-51.5,19.7z"/>
	<path class="st3" d="M-168.5-88.3c0-1.2,0.2-2.3,0.6-3.4c-1-0.2-2-0.3-3-0.3c-7.7,0-14,6.3-14,14s6.3,14,14,14
		c7.7,0,13.9-6.2,14-13.8c-0.3,0-0.7,0.1-1,0.1C-163.8-77.7-168.5-82.5-168.5-88.3z"/>
	<path class="st3" d="M62.5-208.3c0-1.2,0.2-2.3,0.6-3.4c-1-0.2-2-0.3-3-0.3c-7.7,0-14,6.3-14,14s6.3,14,14,14
		c7.7,0,13.9-6.2,14-13.8c-0.3,0-0.7,0.1-1,0.1C67.2-197.7,62.5-202.5,62.5-208.3z"/>
	<path class="st3" d="M176.5-94.3c0-1.2,0.2-2.3,0.6-3.4c-1-0.2-2-0.3-3-0.3c-7.7,0-14,6.3-14,14s6.3,14,14,14
		c7.7,0,13.9-6.2,14-13.8c-0.3,0-0.7,0.1-1,0.1C181.2-83.7,176.5-88.5,176.5-94.3z"/>
	<path class="st3" d="M62.5-322.3c0-1.2,0.2-2.3,0.6-3.4c-1-0.2-2-0.3-3-0.3c-7.7,0-14,6.3-14,14s6.3,14,14,14
		c7.7,0,13.9-6.2,14-13.8c-0.3,0-0.7,0.1-1,0.1C67.2-311.7,62.5-316.5,62.5-322.3z"/>
	<path class="st3" d="M-51.5-436.3c0-1.2,0.2-2.3,0.6-3.4c-1-0.2-2-0.3-3-0.3c-7.7,0-14,6.3-14,14s6.3,14,14,14
		c7.7,0,13.9-6.2,14-13.8c-0.3,0-0.7,0.1-1,0.1C-46.8-425.7-51.5-430.5-51.5-436.3z"/>
	<path class="st3" d="M290.6-436.3c0-1.2,0.2-2.3,0.6-3.4c-1-0.2-2-0.3-3-0.3c-7.7,0-14,6.3-14,14s6.3,14,14,14
		c7.7,0,13.9-6.2,14-13.8c-0.3,0-0.7,0.1-1,0.1C295.3-425.7,290.6-430.5,290.6-436.3z"/>
	<path class="st3" d="M-165.5-550.3c0-1.2,0.2-2.3,0.6-3.4c-1-0.2-2-0.3-3-0.3c-7.7,0-14,6.3-14,14s6.3,14,14,14
		c7.7,0,13.9-6.2,14-13.8c-0.3,0-0.7,0.1-1,0.1C-160.8-539.7-165.5-544.5-165.5-550.3z"/>
	<path class="st3" d="M176.5-550.3c0-1.2,0.2-2.3,0.6-3.4c-1-0.2-2-0.3-3-0.3c-7.7,0-14,6.3-14,14s6.3,14,14,14
		c7.7,0,13.9-6.2,14-13.8c-0.3,0-0.7,0.1-1,0.1C181.2-539.7,176.5-544.5,176.5-550.3z"/>
	<path class="st3" d="M278.4-988.2c0-1.2,0.2-2.3,0.6-3.4c-1-0.2-2-0.3-3-0.3c-7.7,0-14,6.3-14,14c0,7.7,6.3,14,14,14
		c7.7,0,13.9-6.2,14-13.8c-0.3,0-0.7,0.1-1,0.1C283.1-977.7,278.4-982.4,278.4-988.2z"/>
	<g>
		<path class="st2" d="M48-506c-1.1,0-2,0.9-2,2v18c0,1.1,0.9,2,2,2c1.1,0,2-0.9,2-2v-18C50-505.1,49.1-506,48-506z"/>
		<path class="st2" d="M75.7-524.2c-0.3-0.6-0.7-1.2-1.2-1.8c-1.3-1.6-3.2-2.9-5.2-3.5c-1-0.3-2.1-0.5-3.3-0.5
			c-0.5,0-1.1,0.1-1.7,0.2C62.2-537,55.7-542,48-542c-7.7,0-14.2,5-16.3,12.2c-0.6-0.1-1.2-0.2-1.7-0.2c-1.1,0-2.2,0.2-3.3,0.5
			c-2.1,0.6-3.9,1.9-5.2,3.5c-0.4,0.5-0.8,1.1-1.2,1.8c-0.8,1.6-1.3,3.3-1.3,5.2s0.5,3.7,1.3,5.2c0.3,0.6,0.7,1.2,1.2,1.8
			c1.3,1.6,3.2,2.9,5.2,3.5c1,0.3,2.1,0.5,3.3,0.5h7v16c0,1.1,0.9,2,2,2c1.1,0,2-0.9,2-2v-16h14v16c0,1.1,0.9,2,2,2c1.1,0,2-0.9,2-2
			v-16h7c1.1,0,2.2-0.2,3.3-0.5c2.1-0.6,3.9-1.9,5.2-3.5c0.4-0.5,0.8-1.1,1.2-1.8c0.8-1.6,1.3-3.3,1.3-5.2S76.5-522.7,75.7-524.2z"
			/>
	</g>
	<path class="st4" d="M-162-644c-0.5,0-1.1,0.1-1.7,0.2c-2.1-7.2-8.6-12.2-16.3-12.2c-7.7,0-14.2,5-16.3,12.2
		c-0.6-0.1-1.2-0.2-1.7-0.2c-6.1,0-11,4.9-11,11s4.9,11,11,11h36c6.1,0,11-4.9,11-11S-155.9-644-162-644z"/>
	<path class="st3" d="M-180-878c-7.7,0-14,6.3-14,14s6.3,14,14,14s14-6.3,14-14S-172.3-878-180-878z"/>
	<path class="st3" d="M-66-878c-7.7,0-14,6.3-14,14s6.3,14,14,14s14-6.3,14-14S-58.3-878-66-878z M-65.3-854c3.2-2.1,5.3-5.8,5.3-10
		s-2.1-7.8-5.3-10c5.2,0.3,9.3,4.7,9.3,10S-60.1-854.4-65.3-854z"/>
	<path class="st3" d="M48-764c-7.7,0-14,6.3-14,14s6.3,14,14,14c7.7,0,14-6.3,14-14S55.7-764,48-764z M38-750c0-5.3,4.1-9.6,9.3-10
		c-3.2,2.1-5.3,5.8-5.3,10s2.1,7.8,5.3,10C42.1-740.4,38-744.7,38-750z"/>
	<path class="st3" d="M48-878c-7.7,0-14,6.3-14,14s6.3,14,14,14c7.7,0,14-6.3,14-14S55.7-878,48-878z M48-854v-20
		c5.5,0,10,4.5,10,10S53.5-854,48-854z"/>
	<path class="st3" d="M-66-764c-7.7,0-14,6.3-14,14s6.3,14,14,14s14-6.3,14-14S-58.3-764-66-764z M-76-750c0-5.5,4.5-10,10-10v20
		C-71.5-740-76-744.5-76-750z"/>
	<path class="st3" d="M162-878c-7.7,0-14,6.3-14,14s6.3,14,14,14c7.7,0,14-6.3,14-14S169.7-878,162-878z M162-854
		c-0.2,0-0.4,0-0.7,0c-3.2-2.1-5.3-5.8-5.3-10s2.1-7.8,5.3-10c0.2,0,0.4,0,0.7,0c5.5,0,10,4.5,10,10S167.5-854,162-854z"/>
	<path class="st3" d="M-180-764c-7.7,0-14,6.3-14,14s6.3,14,14,14s14-6.3,14-14S-172.3-764-180-764z M-190-750c0-5.5,4.5-10,10-10
		c0.2,0,0.4,0,0.7,0c3.2,2.1,5.3,5.8,5.3,10s-2.1,7.8-5.3,10c-0.2,0-0.4,0-0.7,0C-185.5-740-190-744.5-190-750z"/>
	<path class="st3" d="M276-878c-7.7,0-14,6.3-14,14s6.3,14,14,14c7.7,0,14-6.3,14-14S283.7-878,276-878z M276-854
		c-5.5,0-10-4.5-10-10s4.5-10,10-10s10,4.5,10,10S281.5-854,276-854z"/>
	<path class="st4" d="M164-775.9v-2.1c0-1.1-0.9-2-2-2c-1.1,0-2,0.9-2,2v2.1c-13.4,1-24,12.3-24,25.9c0,1.1,0.9,2,2,2
		c1.1,0,2-0.9,2-2c0-2.2,1.8-4,4-4c2.2,0,4,1.8,4,4c0,1.1,0.9,2,2,2c1.1,0,2-0.9,2-2c0-2.2,1.8-4,4-4c2.2,0,4,1.8,4,4v21
		c0,2.8,2.2,5,5,5c2.8,0,5-2.2,5-5c0-1.1-0.9-2-2-2c-1.1,0-2,0.9-2,2c0,0.6-0.4,1-1,1c-0.6,0-1-0.4-1-1v-21c0-2.2,1.8-4,4-4
		c2.2,0,4,1.8,4,4c0,1.1,0.9,2,2,2c1.1,0,2-0.9,2-2c0-2.2,1.8-4,4-4c2.2,0,4,1.8,4,4c0,1.1,0.9,2,2,2c1.1,0,2-0.9,2-2
		C188-763.7,177.4-774.9,164-775.9z"/>
	<g>
		<path class="st5" d="M153-190h12c1.1,0,2-0.9,2-2s-0.9-2-2-2h-12c-1.1,0-2,0.9-2,2S151.9-190,153-190z"/>
		<path class="st5" d="M141-184h24c1.1,0,2-0.9,2-2s-0.9-2-2-2h-24c-1.1,0-2,0.9-2,2S139.9-184,141-184z"/>
		<path class="st5" d="M135-178h24c1.1,0,2-0.9,2-2s-0.9-2-2-2h-24c-1.1,0-2,0.9-2,2S133.9-178,135-178z"/>
		<path class="st5" d="M194-174c0-1.1-0.9-2-2-2h-60c-1.1,0-2,0.9-2,2s0.9,2,2,2h60C193.1-172,194-172.9,194-174z"/>
		<path class="st5" d="M192-170h-57c-1.1,0-2,0.9-2,2s0.9,2,2,2h57c1.1,0,2-0.9,2-2S193.1-170,192-170z"/>
		<path class="st5" d="M153-164l-12,0c-1.1,0-2,0.9-2,2c0,1.1,0.9,2,2,2l12,0c1.1,0,2-0.9,2-2S154.1-164,153-164z"/>
		<path class="st5" d="M172-184h8c1.1,0,2-0.9,2-2s-0.9-2-2-2h-8c-1.1,0-2,0.9-2,2S170.9-184,172-184z"/>
		<path class="st5" d="M163-180c0,1.1,0.9,2,2,2h21c1.1,0,2-0.9,2-2s-0.9-2-2-2h-21C163.9-182,163-181.1,163-180z"/>
		<path class="st5" d="M186-164l-27,0c-1.1,0-2,0.9-2,2s0.9,2,2,2l27,0c1.1,0,2-0.9,2-2C188-163.1,187.1-164,186-164z"/>
	</g>
	<g>
		<path class="st2" d="M-93-61c1.1,0,2-0.9,2-2c0-3.9,3.1-7,7-7c0.3,0,0.7,0.1,1.2,0.2v1.8c0,1.1,0.9,2,2,2s2-0.9,2-2v-3.2
			C-77.7-77.5-72.4-82-66-82s11.7,4.5,12.8,10.8v3.2c0,1.1,0.9,2,2,2c1.1,0,2-0.9,2-2v-1.8c0.5-0.1,0.9-0.2,1.2-0.2c3.9,0,7,3.1,7,7
			c0,1.1,0.9,2,2,2c1.1,0,2-0.9,2-2c0-6.1-4.9-11-11-11c-0.5,0-1.1,0.1-1.7,0.2C-51.8-81-58.3-86-66-86s-14.2,5-16.3,12.2
			c-0.6-0.1-1.2-0.2-1.7-0.2c-6.1,0-11,4.9-11,11C-95-61.9-94.1-61-93-61z"/>
		<path class="st2" d="M-74-55c0,1.1,0.9,2,2,2h36c1.1,0,2-0.9,2-2s-0.9-2-2-2h-36C-73.1-57-74-56.1-74-55z"/>
		<path class="st2" d="M-66-50c-1.1,0-2,0.9-2,2s0.9,2,2,2h27c1.1,0,2-0.9,2-2s-0.9-2-2-2H-66z"/>
		<path class="st2" d="M-36-43h-24c-1.1,0-2,0.9-2,2s0.9,2,2,2h24c1.1,0,2-0.9,2-2S-34.9-43-36-43z"/>
		<path class="st2" d="M-96-53h18c1.1,0,2-0.9,2-2s-0.9-2-2-2h-18c-1.1,0-2,0.9-2,2S-97.1-53-96-53z"/>
		<path class="st2" d="M-93-50c-1.1,0-2,0.9-2,2s0.9,2,2,2h21c1.1,0,2-0.9,2-2s-0.9-2-2-2H-93z"/>
		<path class="st2" d="M-66-43h-30c-1.1,0-2,0.9-2,2s0.9,2,2,2h30c1.1,0,2-0.9,2-2S-64.9-43-66-43z"/>
	</g>
	<g>
		<path class="st2" d="M294-80c-0.5,0-1.1,0.1-1.7,0.2C290.2-87,283.7-92,276-92c-7.7,0-14.2,5-16.3,12.2c-0.6-0.1-1.2-0.2-1.7-0.2
			c-6.1,0-11,4.9-11,11s4.9,11,11,11c1.1,0,2-0.9,2-2s-0.9-2-2-2c-3.9,0-7-3.1-7-7s3.1-7,7-7c0.3,0,0.7,0.1,1.2,0.2v1.8
			c0,1.1,0.9,2,2,2c1.1,0,2-0.9,2-2v-3.2c1.1-6.3,6.4-10.8,12.8-10.8c6.4,0,11.7,4.5,12.8,10.8v3.2c0,1.1,0.9,2,2,2s2-0.9,2-2v-1.8
			c0.5-0.1,0.9-0.2,1.2-0.2c3.9,0,7,3.1,7,7s-3.1,7-7,7c-1.1,0-2,0.9-2,2s0.9,2,2,2c6.1,0,11-4.9,11-11S300.1-80,294-80z"/>
		<path class="st2" d="M267.6-61.2c-0.8-1-2.4-1-3.2,0c-0.8,1.1-3.4,4.7-3.4,7.2c0,2.9,2.1,5,5,5c2.9,0,5-2.1,5-5
			C271-56.5,268.4-60.1,267.6-61.2z"/>
		<path class="st2" d="M284.4-61.2c-0.8,1.1-3.4,4.7-3.4,7.2c0,2.9,2.1,5,5,5c2.9,0,5-2.1,5-5c0-2.5-2.6-6.1-3.4-7.2
			C286.8-62.2,285.2-62.2,284.4-61.2z"/>
		<path class="st2" d="M274.4-49.2c-0.8,1.1-3.4,4.7-3.4,7.2c0,2.9,2.1,5,5,5c2.9,0,5-2.1,5-5c0-2.5-2.6-6.1-3.4-7.2
			C276.8-50.2,275.2-50.2,274.4-49.2z"/>
	</g>
	<g>
		<path d="M169.6,514.6l-5.6,5.6V507c0-1.1-0.9-2-2-2c-1.1,0-2,0.9-2,2v13.2l-5.6-5.6c-0.8-0.8-2-0.8-2.8,0c-0.8,0.8-0.8,2,0,2.8
			l9,9c0.1,0.1,0.2,0.2,0.3,0.3c0,0,0.1,0.1,0.1,0.1c0.1,0,0.1,0.1,0.2,0.1c0.1,0,0.1,0,0.2,0.1c0.1,0,0.1,0,0.2,0.1
			c0.1,0,0.3,0,0.4,0c0.1,0,0.3,0,0.4,0c0.1,0,0.1,0,0.2-0.1c0.1,0,0.1,0,0.2-0.1c0.1,0,0.1-0.1,0.2-0.1c0,0,0.1,0,0.1-0.1
			c0.1-0.1,0.2-0.2,0.3-0.3l9-9c0.8-0.8,0.8-2,0-2.8C171.6,513.8,170.4,513.8,169.6,514.6z"/>
		<path d="M180,496c-0.5,0-1.1,0.1-1.7,0.2c-2.1-7.2-8.6-12.2-16.3-12.2c-7.7,0-14.2,5-16.3,12.2c-0.6-0.1-1.2-0.2-1.7-0.2
			c-6.1,0-11,4.9-11,11c0,6.1,4.9,11,11,11l2,0c1.1,0,2-0.9,2-2c0-1.1-0.9-2-2-2h0l-2,0c-3.9,0-7-3.1-7-7s3.1-7,7-7
			c0.3,0,0.7,0.1,1.2,0.2v1.8c0,1.1,0.9,2,2,2c1.1,0,2-0.9,2-2v-3.2c1.1-6.3,6.4-10.8,12.8-10.8c6.4,0,11.7,4.5,12.8,10.8v3.2
			c0,1.1,0.9,2,2,2c1.1,0,2-0.9,2-2v-1.8c0.5-0.1,0.9-0.2,1.2-0.2c3.9,0,7,3.1,7,7s-3.1,7-7,7l-2,0h0c-1.1,0-2,0.9-2,2
			c0,1.1,0.9,2,2,2l2,0c6.1,0,11-4.9,11-11C191,500.9,186.1,496,180,496z"/>
	</g>
	<g>
		<path d="M277.4,505.6c-0.1-0.1-0.2-0.2-0.3-0.3c0,0-0.1-0.1-0.1-0.1c-0.1,0-0.1-0.1-0.2-0.1c-0.1,0-0.1,0-0.2-0.1
			c-0.1,0-0.1,0-0.2-0.1c-0.3-0.1-0.5-0.1-0.8,0c-0.1,0-0.1,0-0.2,0.1c-0.1,0-0.1,0-0.2,0.1c-0.1,0-0.1,0.1-0.2,0.1
			c0,0-0.1,0-0.1,0.1c-0.1,0.1-0.2,0.2-0.3,0.3l-9,9c-0.8,0.8-0.8,2,0,2.8c0.8,0.8,2,0.8,2.8,0l5.6-5.6V525c0,1.1,0.9,2,2,2
			c1.1,0,2-0.9,2-2v-13.2l5.6,5.6c0.4,0.4,0.9,0.6,1.4,0.6c0.5,0,1-0.2,1.4-0.6c0.8-0.8,0.8-2,0-2.8L277.4,505.6z"/>
		<path d="M294,496c-0.5,0-1.1,0.1-1.7,0.2c-2.1-7.2-8.6-12.2-16.3-12.2c-7.7,0-14.2,5-16.3,12.2c-0.6-0.1-1.2-0.2-1.7-0.2
			c-6.1,0-11,4.9-11,11c0,6.1,4.9,11,11,11l2,0c1.1,0,2-0.9,2-2c0-1.1-0.9-2-2-2h0l-2,0c-3.9,0-7-3.1-7-7s3.1-7,7-7
			c0.3,0,0.7,0.1,1.2,0.2v1.8c0,1.1,0.9,2,2,2c1.1,0,2-0.9,2-2v-3.2c1.1-6.3,6.4-10.8,12.8-10.8c6.4,0,11.7,4.5,12.8,10.8v3.2
			c0,1.1,0.9,2,2,2s2-0.9,2-2v-1.8c0.5-0.1,0.9-0.2,1.2-0.2c3.9,0,7,3.1,7,7s-3.1,7-7,7l-2,0h0c-1.1,0-2,0.9-2,2c0,1.1,0.9,2,2,2
			l2,0c6.1,0,11-4.9,11-11C305,500.9,300.1,496,294,496z"/>
	</g>
	<g>
		<path class="st2" d="M274,168v18c0,1.1,0.9,2,2,2c1.1,0,2-0.9,2-2v-18c0-1.1-0.9-2-2-2C274.9,166,274,166.9,274,168z"/>
		<path class="st2" d="M251,187h-2c-1.1,0-2,0.9-2,2v2c0,1.1,0.9,2,2,2h2c1.1,0,2-0.9,2-2v-2C253,187.9,252.1,187,251,187z"/>
		<path class="st2" d="M277,192h-2c-1.1,0-2,0.9-2,2v2c0,1.1,0.9,2,2,2h2c1.1,0,2-0.9,2-2v-2C279,192.9,278.1,192,277,192z"/>
		<path class="st2" d="M304,184h-2c-1.1,0-2,0.9-2,2v2c0,1.1,0.9,2,2,2h2c1.1,0,2-0.9,2-2v-2C306,184.9,305.1,184,304,184z"/>
		<path class="st2" d="M267,172c-1.1,0-2,0.9-2,2v15.1c-1.2-0.7-2.5-1.1-4-1.1h-2c-1.1,0-2,0.9-2,2c0,1.1,0.9,2,2,2h2
			c2.2,0,4,1.8,4,4c0,1.1,0.9,2,2,2c1.1,0,2-0.9,2-2v-22C269,172.9,268.1,172,267,172z"/>
		<path class="st2" d="M294,185c-2.7,0-5.1,0.9-7,2.5V174c0-1.1-0.9-2-2-2c-1.1,0-2,0.9-2,2v22c0,0,0,0,0,0c0,1.1,0.9,2,2,2
			c1.1,0,2-0.9,2-2v0c0-3.9,3.1-7,7-7c1.1,0,2-0.9,2-2C296,185.9,295.1,185,294,185z"/>
	</g>
	<g>
		<path class="st5" d="M-60,274l-30,0c-1.1,0-2,0.9-2,2s0.9,2,2,2l30,0c3.9,0,7,3.1,7,7s-3.1,7-7,7c-1.1,0-2,0.9-2,2s0.9,2,2,2
			c6.1,0,11-4.9,11-11S-53.9,274-60,274z"/>
		<path class="st5" d="M-66,280h-24c-1.1,0-2,0.9-2,2s0.9,2,2,2h24c0.6,0,1,0.4,1,1s-0.4,1-1,1c-1.1,0-2,0.9-2,2s0.9,2,2,2
			c2.8,0,5-2.2,5-5S-63.2,280-66,280z"/>
		<path class="st5" d="M-45,266c-1.1,0-2,0.9-2,2s0.9,2,2,2c0.6,0,1,0.4,1,1s-0.4,1-1,1h-4c-1.1,0-2,0.9-2,2s0.9,2,2,2h4
			c2.8,0,5-2.2,5-5S-42.2,266-45,266z"/>
		<path class="st5" d="M-90,272l33,0c4.4,0,8-3.6,8-8s-3.6-8-8-8s-8,3.6-8,8c0,1.1,0.9,2,2,2c1.1,0,2-0.9,2-2c0-2.2,1.8-4,4-4
			c2.2,0,4,1.8,4,4s-1.8,4-4,4l-33,0c-1.1,0-2,0.9-2,2S-91.1,272-90,272z"/>
	</g>
	<g>
		<path class="st5" d="M-204,368h42c1.1,0,2-0.9,2-2s-0.9-2-2-2h-42c-1.1,0-2,0.9-2,2S-205.1,368-204,368z"/>
		<path class="st5" d="M-162,372h-39c-1.1,0-2,0.9-2,2s0.9,2,2,2h39c1.1,0,2-0.9,2-2S-160.9,372-162,372z"/>
		<path class="st5" d="M-166,382c0-1.1-0.9-2-2-2h-36c-1.1,0-2,0.9-2,2s0.9,2,2,2h36C-166.9,384-166,383.1-166,382z"/>
		<path class="st5" d="M-162,388h-33c-1.1,0-2,0.9-2,2s0.9,2,2,2h33c1.1,0,2-0.9,2-2S-160.9,388-162,388z"/>
		<path class="st5" d="M-168,396h-18c-1.1,0-2,0.9-2,2s0.9,2,2,2h18c1.1,0,2-0.9,2-2S-166.9,396-168,396z"/>
		<path class="st5" d="M-174,404h-12c-1.1,0-2,0.9-2,2s0.9,2,2,2h12c1.1,0,2-0.9,2-2S-172.9,404-174,404z"/>
		<path class="st5" d="M-180,412h-6c-1.1,0-2,0.9-2,2s0.9,2,2,2h6c1.1,0,2-0.9,2-2S-178.9,412-180,412z"/>
	</g>
	<g>
		<path class="st2" d="M48,400c-2.8,0-5,2.2-5,5s2.2,5,5,5c2.8,0,5-2.2,5-5S50.8,400,48,400z M48,406c-0.6,0-1-0.4-1-1s0.4-1,1-1
			c0.6,0,1,0.4,1,1S48.6,406,48,406z"/>
		<path class="st2" d="M56,397.5l0-25.5c0-4.4-3.6-8-8-8c-4.4,0-8,3.6-8,8l0,25.5c-1.9,2-3,4.7-3,7.5c0,6.1,4.9,11,11,11
			c6.1,0,11-4.9,11-11C59,402.2,57.9,399.5,56,397.5z M48,412c-3.9,0-7-3.1-7-7c0-2,0.8-3.9,2.3-5.2c0.4-0.4,0.7-0.9,0.7-1.5l0-26.3
			c0-2.2,1.8-4,4-4c2.2,0,4,1.8,4,4l0,26.3c0,0.6,0.2,1.1,0.7,1.5c1.5,1.3,2.3,3.2,2.3,5.2C55,408.9,51.9,412,48,412z"/>
	</g>
	<g>
		<path class="st2" d="M-66,416c-6.1,0-11-4.9-11-11c0-2.8,1.1-5.5,3-7.5l0-25.5c0-4.4,3.6-8,8-8s8,3.6,8,8l0,25.5
			c1.9,2,3,4.7,3,7.5C-55,411.1-59.9,416-66,416L-66,416z M-66,368c-2.2,0-4,1.8-4,4l0,26.3c0,0.6-0.2,1.1-0.7,1.5
			c-1.5,1.3-2.3,3.2-2.3,5.2c0,3.9,3.1,7,7,7c3.9,0,7-3.1,7-7c0-2-0.8-3.9-2.3-5.2c-0.4-0.4-0.7-0.9-0.7-1.5l0-26.3
			C-62,369.8-63.8,368-66,368L-66,368z"/>
	</g>
	<g>
		<path class="st5" d="M164,400.4V389c0-1.1-0.9-2-2-2c-1.1,0-2,0.9-2,2v11.4c-1.8,0.8-3,2.5-3,4.6c0,2.8,2.2,5,5,5c2.8,0,5-2.2,5-5
			C167,403,165.8,401.2,164,400.4z M162,406c-0.6,0-1-0.4-1-1s0.4-1,1-1c0.6,0,1,0.4,1,1S162.6,406,162,406z"/>
		<path class="st5" d="M170,397.5l0-25.5c0-4.4-3.6-8-8-8c-4.4,0-8,3.6-8,8l0,25.5c-1.9,2-3,4.7-3,7.5c0,6.1,4.9,11,11,11
			c6.1,0,11-4.9,11-11C173,402.2,171.9,399.5,170,397.5z M162,412c-3.9,0-7-3.1-7-7c0-2,0.8-3.9,2.3-5.2c0.4-0.4,0.7-0.9,0.7-1.5
			l0-26.3c0-2.2,1.8-4,4-4c2.2,0,4,1.8,4,4l0,26.3c0,0.6,0.2,1.1,0.7,1.5c1.5,1.3,2.3,3.2,2.3,5.2C169,408.9,165.9,412,162,412z"/>
	</g>
	<g>
		<path class="st6" d="M278,400.4V372c0-1.1-0.9-2-2-2c-1.1,0-2,0.9-2,2v28.4c-1.8,0.8-3,2.5-3,4.6c0,2.8,2.2,5,5,5c2.8,0,5-2.2,5-5
			C281,403,279.8,401.2,278,400.4z M276,406c-0.6,0-1-0.4-1-1s0.4-1,1-1c0.6,0,1,0.4,1,1S276.6,406,276,406z"/>
		<path class="st6" d="M284,397.5l0-25.5c0-4.4-3.6-8-8-8s-8,3.6-8,8l0,25.5c-1.9,2-3,4.7-3,7.5c0,6.1,4.9,11,11,11s11-4.9,11-11
			C287,402.2,285.9,399.5,284,397.5z M276,412c-3.9,0-7-3.1-7-7c0-2,0.8-3.9,2.3-5.2c0.4-0.4,0.7-0.9,0.7-1.5l0-26.3
			c0-2.2,1.8-4,4-4c2.2,0,4,1.8,4,4l0,26.3c0,0.6,0.2,1.1,0.7,1.5c1.5,1.3,2.3,3.2,2.3,5.2C283,408.9,279.9,412,276,412z"/>
	</g>
	<path class="st6" d="M308-755.1c0-0.1,0-0.1,0-0.2c0-0.1,0-0.1,0-0.2c0-0.1,0-0.1-0.1-0.2c0-0.1,0-0.1-0.1-0.2c0,0,0,0,0-0.1
		c0,0,0-0.1-0.1-0.1c0-0.1-0.1-0.1-0.1-0.2c0-0.1-0.1-0.1-0.1-0.2c0,0-0.1-0.1-0.1-0.1c-0.1,0-0.1-0.1-0.2-0.1c0,0-0.1-0.1-0.1-0.1
		c-0.1,0-0.1-0.1-0.2-0.1c-0.1,0-0.1-0.1-0.2-0.1c-0.1,0-0.1,0-0.2-0.1c-0.1,0-0.1,0-0.2,0c-0.1,0-0.2,0-0.2,0c0,0-0.1,0-0.1,0h-4
		c0-2.8-2.2-5-5-5h-14c-1.4,0-2.7,0.6-3.6,1.5c-0.3,0.3-0.5,0.7-0.7,1c-0.8-0.4-1.7-0.6-2.7-0.6s-1.8,0.2-2.7,0.6
		c-0.2-0.4-0.4-0.7-0.7-1c-0.9-1-2.2-1.5-3.6-1.5h-14c-2.8,0-5,2.2-5,5h-4c0,0-0.1,0-0.1,0c-0.1,0-0.1,0-0.2,0c-0.1,0-0.1,0-0.2,0
		c-0.1,0-0.1,0-0.2,0.1c-0.1,0-0.1,0.1-0.2,0.1c-0.1,0-0.1,0.1-0.2,0.1c-0.1,0-0.1,0.1-0.2,0.1c-0.1,0-0.1,0.1-0.2,0.1
		c0,0-0.1,0.1-0.1,0.1c0,0-0.1,0.1-0.1,0.1c0,0.1-0.1,0.1-0.1,0.2c0,0,0,0.1-0.1,0.1c0,0,0,0,0,0.1c0,0.1-0.1,0.1-0.1,0.2
		c0,0.1,0,0.1-0.1,0.2c0,0.1,0,0.1,0,0.2c0,0.1,0,0.1,0,0.2c0,0,0,0,0,0.1c0,0,0,0.1,0,0.1c0,0.1,0,0.1,0,0.2c0,0.1,0,0.1,0,0.2
		c0,0.1,0,0.1,0.1,0.2c0,0.1,0,0.1,0.1,0.2c0,0.1,0.1,0.1,0.1,0.2c0,0.1,0.1,0.1,0.1,0.2c0,0.1,0.1,0.1,0.1,0.2c0,0,0.1,0.1,0.1,0.1
		c0,0,0.1,0.1,0.1,0.1c0.1,0,0.1,0.1,0.2,0.1c0,0,0.1,0,0.1,0.1l4.9,2.5c0.1,6,5,10.8,11,10.8c5,0,11-2.5,12.6-13.6
		c0-0.1,0-0.1,0-0.2c0-0.2,0.1-0.4,0.1-0.7c0.3-0.9,1.3-1.6,2.3-1.6c1,0,2,0.7,2.3,1.6c0,0.2,0.1,0.5,0.1,0.7c0,0.1,0,0.1,0,0.2
		C280-742.5,286-740,291-740c6,0,10.9-4.8,11-10.8l4.9-2.5c0,0,0.1,0,0.1-0.1c0.1,0,0.1-0.1,0.2-0.1c0.1,0,0.1-0.1,0.2-0.1
		c0,0,0.1-0.1,0.1-0.1c0-0.1,0.1-0.1,0.1-0.2c0,0,0.1-0.1,0.1-0.1c0-0.1,0.1-0.1,0.1-0.2c0-0.1,0.1-0.1,0.1-0.2c0-0.1,0-0.1,0.1-0.2
		c0-0.1,0-0.1,0-0.2c0-0.1,0-0.1,0-0.2C308-754.9,308-755,308-755.1C308-755,308-755,308-755.1z M262.4-754.6l-5,5
		c-0.4,0.4-0.9,0.6-1.4,0.6c-0.5,0-1-0.2-1.4-0.6c-0.8-0.8-0.8-2,0-2.8l5-5c0.8-0.8,2-0.8,2.8,0
		C263.2-756.6,263.2-755.4,262.4-754.6z M291.4-754.6l-5,5c-0.4,0.4-0.9,0.6-1.4,0.6c-0.5,0-1-0.2-1.4-0.6c-0.8-0.8-0.8-2,0-2.8l5-5
		c0.8-0.8,2-0.8,2.8,0C292.2-756.6,292.2-755.4,291.4-754.6z"/>
	<path class="st5" d="M-149.5,487.1l-24-6c0,0-0.1,0-0.1,0c-0.1,0-0.2,0-0.3,0c-0.1,0-0.1,0-0.1,0c-0.1,0-0.2,0-0.3,0
		c0,0-0.1,0-0.1,0c-0.1,0-0.3,0.1-0.4,0.1c0,0,0,0,0,0c-0.1,0.1-0.2,0.1-0.4,0.2l-8.8,6.6v-6.4c1.8-0.8,3-2.5,3-4.6c0-2.8-2.2-5-5-5
		s-5,2.2-5,5c0,2,1.2,3.8,3,4.6V532h-22c-1.1,0-2,0.9-2,2s0.9,2,2,2h48c1.1,0,2-0.9,2-2s-0.9-2-2-2h-22v-36l8.8,6.6
		c0.1,0.1,0.2,0.1,0.3,0.2c0.1,0,0.1,0.1,0.2,0.1c0.2,0.1,0.4,0.1,0.6,0.1c0,0,0,0,0,0h0c0,0,0,0,0,0c0.2,0,0.3,0,0.4-0.1
		c0,0,0,0,0,0l24-6c0.9-0.2,1.5-1,1.5-1.9v-6C-148,488.1-148.6,487.3-149.5,487.1z M-176,497l-6.7-5l6.7-5V497z M-186,476
		c0.6,0,1,0.4,1,1s-0.4,1-1,1s-1-0.4-1-1S-186.6,476-186,476z M-172,485.6l8,2v8.9l-8,2V485.6z M-152,493.4l-8,2v-6.9l8,2V493.4z"/>
	<path class="st2" d="M75,517.3l-6.2-3.6l3.5-0.9c1.1-0.3,1.7-1.4,1.4-2.4c-0.3-1.1-1.4-1.7-2.4-1.4l-7.4,2l-5.5-3.2l6.5-1.8
		c0.8-0.2,1.4-0.9,1.5-1.8c0.1-0.9-0.4-1.6-1.2-2l-5.8-2.4l4.5-2.6l7.4,2c0.2,0,0.3,0.1,0.5,0.1c0.9,0,1.7-0.6,1.9-1.5
		c0.3-1.1-0.3-2.2-1.4-2.4l-3.5-0.9l6.2-3.6c1-0.6,1.3-1.8,0.7-2.7c-0.6-1-1.8-1.3-2.7-0.7l-6.2,3.6l0.9-3.5
		c0.3-1.1-0.3-2.2-1.4-2.4c-1.1-0.3-2.2,0.3-2.4,1.4l-2,7.4l-4.5,2.6l0.8-6.2c0.1-0.8-0.3-1.6-1-2c-0.7-0.4-1.6-0.3-2.2,0.1l-5,3.8
		v-5.2l5.4-5.4c0.8-0.8,0.8-2,0-2.8c-0.8-0.8-2-0.8-2.8,0l-2.6,2.6V474c0-1.1-0.9-2-2-2c-1.1,0-2,0.9-2,2v7.2l-2.6-2.6
		c-0.8-0.8-2-0.8-2.8,0c-0.8,0.8-0.8,2,0,2.8l5.4,5.4v5.2l-5-3.8c-0.7-0.5-1.6-0.5-2.3-0.1c-0.7,0.5-1,1.4-0.8,2.2l1.8,6.5l-5.5-3.2
		l-2-7.4c-0.3-1.1-1.4-1.7-2.4-1.4c-1.1,0.3-1.7,1.4-1.4,2.4l0.9,3.5l-6.2-3.6c-1-0.6-2.2-0.2-2.7,0.7c-0.6,1-0.2,2.2,0.7,2.7
		l6.2,3.6l-3.5,0.9c-1.1,0.3-1.7,1.4-1.4,2.4c0.2,0.9,1,1.5,1.9,1.5c0.2,0,0.3,0,0.5-0.1l7.4-2l5.5,3.2l-6.5,1.8
		c-0.8,0.2-1.4,0.9-1.5,1.8c-0.1,0.9,0.4,1.6,1.2,2l5.8,2.4l-4.5,2.6l-7.4-2c-1.1-0.3-2.2,0.3-2.4,1.4c-0.3,1.1,0.3,2.2,1.4,2.4
		l3.5,0.9l-6.2,3.6c-1,0.6-1.3,1.8-0.7,2.7c0.4,0.6,1,1,1.7,1c0.3,0,0.7-0.1,1-0.3l6.2-3.6l-0.9,3.5c-0.3,1.1,0.3,2.2,1.4,2.4
		c0.2,0,0.3,0.1,0.5,0.1c0.9,0,1.7-0.6,1.9-1.5l2-7.4l4.5-2.6l-0.8,6.2c-0.1,0.8,0.3,1.6,1,2c0.7,0.4,1.6,0.3,2.2-0.1l5-3.8v5.2
		l-5.4,5.4c-0.8,0.8-0.8,2,0,2.8c0.8,0.8,2,0.8,2.8,0l2.6-2.6v7.2c0,1.1,0.9,2,2,2c1.1,0,2-0.9,2-2v-7.2l2.6,2.6
		c0.4,0.4,0.9,0.6,1.4,0.6c0.5,0,1-0.2,1.4-0.6c0.8-0.8,0.8-2,0-2.8l-5.4-5.4V516l5,3.8c0.4,0.3,0.8,0.4,1.2,0.4
		c0.4,0,0.8-0.1,1.1-0.3c0.7-0.5,1-1.4,0.8-2.2l-1.8-6.5l5.5,3.2l2,7.4c0.2,0.9,1,1.5,1.9,1.5c0.2,0,0.3,0,0.5-0.1
		c1.1-0.3,1.7-1.4,1.4-2.4l-0.9-3.5l6.2,3.6c0.3,0.2,0.7,0.3,1,0.3c0.7,0,1.4-0.4,1.7-1C76.3,519,75.9,517.8,75,517.3z M58.2,503.6
		l-4.8,1.3L52,504l3.1-1.8L58.2,503.6z M53.6,494.3l-0.6,4.5l-3.1,1.8V497L53.6,494.3z M43.2,494.9L46,497v3.5l-1.5-0.9L43.2,494.9z
		 M37.7,504.4l4.8-1.3L44,504l-3.1,1.8L37.7,504.4z M42.4,513.7l0.6-4.5l3.1-1.8v3.5L42.4,513.7z M52.8,513.1L50,511v-3.5l1.5,0.9
		L52.8,513.1z"/>
	<g>
		<path class="st5" d="M-42,482c1.1,0,2-0.9,2-2s-0.9-2-2-2c-7,0-12.9,5.2-13.8,12h-2c1-7.9,7.7-14,15.9-14c1.1,0,2-0.9,2-2
			s-0.9-2-2-2c-10.4,0-18.9,7.9-19.9,18H-70v-10c0-1.5-0.4-2.9-1.1-4.1l1.5-1.5c0.8-0.8,0.8-2,0-2.8c-0.8-0.8-2-0.8-2.8,0l-1.5,1.5
			c-0.6-0.4-1.3-0.7-2.1-0.9V470c0-1.1-0.9-2-2-2s-2,0.9-2,2v2.3c-0.7,0.2-1.4,0.5-2.1,0.9l-1.5-1.5c-0.8-0.8-2-0.8-2.8,0
			c-0.8,0.8-0.8,2,0,2.8l1.5,1.5c-0.5,0.9-0.9,2-1,3.1H-90c-0.9,0-1.7,0.6-1.9,1.5c-0.2,0.9,0.2,1.8,1.1,2.2l4.9,2.4v6.8
			c0,10.4,7.9,18.9,18,19.9V522h-17.2l2.6-2.6c0.8-0.8,0.8-2,0-2.8c-0.8-0.8-2-0.8-2.8,0l-6,6c-0.1,0.1-0.2,0.2-0.2,0.3
			c0,0-0.1,0.1-0.1,0.1c0,0.1-0.1,0.1-0.1,0.2c0,0.1,0,0.1-0.1,0.2c0,0.1,0,0.1-0.1,0.2c-0.1,0.3-0.1,0.5,0,0.8c0,0.1,0,0.1,0.1,0.2
			c0,0.1,0,0.1,0.1,0.2c0,0.1,0.1,0.1,0.1,0.2c0,0,0,0.1,0.1,0.1c0.1,0.1,0.2,0.2,0.2,0.3l6,6c0.4,0.4,0.9,0.6,1.4,0.6
			s1-0.2,1.4-0.6c0.8-0.8,0.8-2,0-2.8l-2.6-2.6H-68v12c0,1.1,0.9,2,2,2s2-0.9,2-2v-12h15.2l5.4,5.4c0.4,0.4,0.9,0.6,1.4,0.6
			c0.5,0,1-0.2,1.4-0.6c0.8-0.8,0.8-2,0-2.8l-4.6-4.6l4.6-4.6c0.8-0.8,0.8-2,0-2.8c-0.8-0.8-2-0.8-2.8,0l-5.4,5.4H-64v-10.1
			c10.1-1,18-9.5,18-19.9c0-2.2,1.8-4,4-4c1.1,0,2-0.9,2-2s-0.9-2-2-2c-3.7,0-6.8,2.6-7.7,6h-2.1C-50.9,485.4-46.8,482-42,482z
			 M-62.6,494c-0.7,1.2-2,2-3.4,2c-1.5,0-2.8-0.8-3.4-2H-62.6z M-50.1,494c-1,7.9-7.7,14-15.9,14c-8.8,0-16-7.2-16-16v-12
			c0-2.2,1.8-4,4-4s4,1.8,4,4v12c0,0,0,0,0,0c0,4.4,3.6,8,8,8c3.7,0,6.8-2.6,7.7-6H-50.1z"/>
		<circle class="st6" cx="-78" cy="480" r="2"/>
	</g>
	<g>
		<path class="st1" d="M-180-992c-7.7,0-14,6.3-14,14s6.3,14,14,14c7.7,0,14-6.3,14-14S-172.3-992-180-992z"/>
		<polygon class="st1" points="-180,-1004.5 -175.1,-996 -184.9,-996 		"/>
		<polygon class="st1" points="-180,-951.6 -184.9,-960 -175.1,-960 		"/>
		<polygon class="st1" points="-206.5,-978 -198,-982.9 -198,-973.1 		"/>
		<polygon class="st1" points="-153.4,-978 -161.9,-973.1 -161.9,-982.9 		"/>
		<polygon class="st1" points="-163.3,-994.8 -165,-989.2 -168.8,-993.1 		"/>
		<polygon class="st1" points="-196.8,-961.2 -195.1,-966.8 -191.3,-962.9 		"/>
		<polygon class="st1" points="-196.8,-994.8 -191.3,-993.1 -195.1,-989.2 		"/>
		<polygon class="st1" points="-163.3,-961.2 -168.8,-962.9 -165,-966.8 		"/>
	</g>
	<g>
		<g>
			<path class="st1" d="M-54.2-662c-7.7,0-14,6.3-14,14s6.3,14,14,14s14-6.3,14-14S-46.4-662-54.2-662z"/>
			<polygon class="st1" points="-54.1,-674.5 -49.2,-666 -59,-666 			"/>
			<polygon class="st1" points="-27.6,-648 -36.1,-643.1 -36.1,-652.9 			"/>
			<polygon class="st1" points="-37.4,-664.7 -39.1,-659.2 -42.9,-663 			"/>
			<polygon class="st1" points="-70.9,-664.7 -65.4,-663 -69.2,-659.2 			"/>
		</g>
		<path class="st4" d="M-48-644c-0.5,0-1.1,0.1-1.7,0.2C-51.8-651-58.3-656-66-656c-7.7,0-14.2,5-16.3,12.2
			c-0.6-0.1-1.2-0.2-1.7-0.2c-6.1,0-11,4.9-11,11s4.9,11,11,11h36c6.1,0,11-4.9,11-11S-41.9-644-48-644z"/>
	</g>
	<g>
		<path class="st3" d="M62.4-664.3c0-1.2,0.2-2.3,0.6-3.4c-1-0.2-2-0.3-3-0.3c-7.7,0-14,6.3-14,14s6.3,14,14,14
			c7.7,0,13.9-6.2,14-13.8c-0.3,0-0.7,0.1-1,0.1C67.1-653.7,62.4-658.5,62.4-664.3z"/>
		<path class="st4" d="M66-644c-0.5,0-1.1,0.1-1.7,0.2C62.2-651,55.7-656,48-656c-7.7,0-14.2,5-16.3,12.2c-0.6-0.1-1.2-0.2-1.7-0.2
			c-6.1,0-11,4.9-11,11s4.9,11,11,11h36c6.1,0,11-4.9,11-11S72.1-644,66-644z"/>
	</g>
	<g>
		<path class="st2" d="M153-612c-1.1,0-2,0.9-2,2v4c0,1.1,0.9,2,2,2c1.1,0,2-0.9,2-2v-4C155-611.1,154.1-612,153-612z"/>
		<path class="st2" d="M162-606c-1.1,0-2,0.9-2,2v4c0,1.1,0.9,2,2,2c1.1,0,2-0.9,2-2v-4C164-605.1,163.1-606,162-606z"/>
		<path class="st2" d="M162-618c-1.1,0-2,0.9-2,2v4c0,1.1,0.9,2,2,2c1.1,0,2-0.9,2-2v-4C164-617.1,163.1-618,162-618z"/>
		<path class="st2" d="M171-612c-1.1,0-2,0.9-2,2v4c0,1.1,0.9,2,2,2c1.1,0,2-0.9,2-2v-4C173-611.1,172.1-612,171-612z"/>
		<path class="st2" d="M189.7-638.2c-0.3-0.6-0.7-1.2-1.2-1.8c-1.3-1.6-3.2-2.9-5.2-3.5c-1-0.3-2.1-0.5-3.3-0.5
			c-0.5,0-1.1,0.1-1.7,0.2c-0.9-3.1-2.7-5.9-5-7.9c-0.3-0.3-0.7-0.6-1-0.8c-0.7-0.5-1.5-1-2.3-1.4c-2.4-1.3-5.1-2-8-2
			c-7.7,0-14.2,5-16.3,12.2c-0.6-0.1-1.2-0.2-1.7-0.2c-1.1,0-2.2,0.2-3.3,0.5c-2.1,0.6-3.9,1.9-5.2,3.5c-0.4,0.5-0.8,1.1-1.2,1.8
			c-0.8,1.6-1.3,3.3-1.3,5.2s0.5,3.7,1.3,5.2c0.3,0.6,0.7,1.2,1.2,1.8c1.3,1.6,3.2,2.9,5.2,3.5c1,0.3,2.1,0.5,3.3,0.5h7v4
			c0,1.1,0.9,2,2,2c1.1,0,2-0.9,2-2v-4h14v4c0,1.1,0.9,2,2,2c1.1,0,2-0.9,2-2v-4h7c1.1,0,2.2-0.2,3.3-0.5c2.1-0.6,3.9-1.9,5.2-3.5
			c0.4-0.5,0.8-1.1,1.2-1.8c0.8-1.6,1.3-3.3,1.3-5.2S190.5-636.7,189.7-638.2z"/>
	</g>
	<g>
		<path class="st2" d="M267-612c-1.1,0-2,0.9-2,2v4c0,1.1,0.9,2,2,2c1.1,0,2-0.9,2-2v-4C269-611.1,268.1-612,267-612z"/>
		<path class="st2" d="M276-606c-1.1,0-2,0.9-2,2v4c0,1.1,0.9,2,2,2c1.1,0,2-0.9,2-2v-4C278-605.1,277.1-606,276-606z"/>
		<path class="st2" d="M276-618c-1.1,0-2,0.9-2,2v4c0,1.1,0.9,2,2,2c1.1,0,2-0.9,2-2v-4C278-617.1,277.1-618,276-618z"/>
		<path class="st2" d="M285-612c-1.1,0-2,0.9-2,2v4c0,1.1,0.9,2,2,2c1.1,0,2-0.9,2-2v-4C287-611.1,286.1-612,285-612z"/>
		<path class="st2" d="M303.7-638.2c-0.3-0.6-0.7-1.2-1.2-1.8c-1.3-1.6-3.2-2.9-5.2-3.5c-1-0.3-2.1-0.5-3.3-0.5
			c-0.5,0-1.1,0.1-1.7,0.2c-0.9-3.1-2.7-5.9-5-7.9c-0.3-0.3-0.7-0.6-1-0.8c-0.7-0.5-1.5-1-2.3-1.4c-2.4-1.3-5.1-2-8-2
			c-7.7,0-14.2,5-16.3,12.2c-0.6-0.1-1.2-0.2-1.7-0.2c-1.1,0-2.2,0.2-3.3,0.5c-2.1,0.6-3.9,1.9-5.2,3.5c-0.4,0.5-0.8,1.1-1.2,1.8
			c-0.8,1.6-1.3,3.3-1.3,5.2s0.5,3.7,1.3,5.2c0.3,0.6,0.7,1.2,1.2,1.8c1.3,1.6,3.2,2.9,5.2,3.5c1,0.3,2.1,0.5,3.3,0.5h7v4
			c0,1.1,0.9,2,2,2c1.1,0,2-0.9,2-2v-4h14v4c0,1.1,0.9,2,2,2c1.1,0,2-0.9,2-2v-4h7c1.1,0,2.2-0.2,3.3-0.5c2.1-0.6,3.9-1.9,5.2-3.5
			c0.4-0.5,0.8-1.1,1.2-1.8c0.8-1.6,1.3-3.3,1.3-5.2S304.5-636.7,303.7-638.2z"/>
	</g>
	<g>
		<path class="st2" d="M-189-498c-1.1,0-2,0.9-2,2v4c0,1.1,0.9,2,2,2c1.1,0,2-0.9,2-2v-4C-187-497.1-187.9-498-189-498z"/>
		<path class="st2" d="M-180-492c-1.1,0-2,0.9-2,2v4c0,1.1,0.9,2,2,2s2-0.9,2-2v-4C-178-491.1-178.9-492-180-492z"/>
		<path class="st2" d="M-180-504c-1.1,0-2,0.9-2,2v4c0,1.1,0.9,2,2,2s2-0.9,2-2v-4C-178-503.1-178.9-504-180-504z"/>
		<path class="st2" d="M-171-498c-1.1,0-2,0.9-2,2v4c0,1.1,0.9,2,2,2c1.1,0,2-0.9,2-2v-4C-169-497.1-169.9-498-171-498z"/>
		<path class="st2" d="M-152.3-524.2c-0.3-0.6-0.7-1.2-1.2-1.8c-1.3-1.6-3.2-2.9-5.2-3.5c-1-0.3-2.1-0.5-3.3-0.5
			c-0.5,0-1.1,0.1-1.7,0.2c-0.9-3.1-2.7-5.9-5-7.9c-0.3-0.3-0.7-0.6-1-0.8c-0.7-0.5-1.5-1-2.3-1.4c-2.4-1.3-5.1-2-8-2
			c-7.7,0-14.2,5-16.3,12.2c-0.6-0.1-1.2-0.2-1.7-0.2c-1.1,0-2.2,0.2-3.3,0.5c-2.1,0.6-3.9,1.9-5.2,3.5c-0.4,0.5-0.8,1.1-1.2,1.8
			c-0.8,1.6-1.3,3.3-1.3,5.2s0.5,3.7,1.3,5.2c0.3,0.6,0.7,1.2,1.2,1.8c1.3,1.6,3.2,2.9,5.2,3.5c1,0.3,2.1,0.5,3.3,0.5h7v4
			c0,1.1,0.9,2,2,2c1.1,0,2-0.9,2-2v-4h14v4c0,1.1,0.9,2,2,2c1.1,0,2-0.9,2-2v-4h7c1.1,0,2.2-0.2,3.3-0.5c2.1-0.6,3.9-1.9,5.2-3.5
			c0.4-0.5,0.8-1.1,1.2-1.8c0.8-1.6,1.3-3.3,1.3-5.2S-151.5-522.7-152.3-524.2z"/>
	</g>
	<g>
		<path class="st2" d="M162-506c-1.1,0-2,0.9-2,2v18c0,1.1,0.9,2,2,2c1.1,0,2-0.9,2-2v-18C164-505.1,163.1-506,162-506z"/>
		<path class="st2" d="M189.7-524.2c-0.3-0.6-0.7-1.2-1.2-1.8c-1.3-1.6-3.2-2.9-5.2-3.5c-1-0.3-2.1-0.5-3.3-0.5
			c-0.5,0-1.1,0.1-1.7,0.2c-2.1-7.2-8.6-12.2-16.3-12.2c-7.7,0-14.2,5-16.3,12.2c-0.6-0.1-1.2-0.2-1.7-0.2c-1.1,0-2.2,0.2-3.3,0.5
			c-2.1,0.6-3.9,1.9-5.2,3.5c-0.4,0.5-0.8,1.1-1.2,1.8c-0.8,1.6-1.3,3.3-1.3,5.2s0.5,3.7,1.3,5.2c0.3,0.6,0.7,1.2,1.2,1.8
			c1.3,1.6,3.2,2.9,5.2,3.5c1,0.3,2.1,0.5,3.3,0.5h7v16c0,1.1,0.9,2,2,2c1.1,0,2-0.9,2-2v-16h14v16c0,1.1,0.9,2,2,2c1.1,0,2-0.9,2-2
			v-16h7c1.1,0,2.2-0.2,3.3-0.5c2.1-0.6,3.9-1.9,5.2-3.5c0.4-0.5,0.8-1.1,1.2-1.8c0.8-1.6,1.3-3.3,1.3-5.2S190.5-522.7,189.7-524.2z
			"/>
	</g>
	<g>
		<circle class="st2" cx="-189" cy="-390" r="2"/>
		<circle class="st2" cx="-171" cy="-390" r="2"/>
		<circle class="st2" cx="-180" cy="-384" r="2"/>
		<circle class="st2" cx="-171" cy="-378" r="2"/>
		<circle class="st2" cx="-180" cy="-372" r="2"/>
		<circle class="st2" cx="-189" cy="-378" r="2"/>
		<path class="st2" d="M-152.3-410.2c-0.3-0.6-0.7-1.2-1.2-1.8c-1.3-1.6-3.2-2.9-5.2-3.5c-1-0.3-2.1-0.5-3.3-0.5
			c-0.3,0-0.5,0-0.8,0.1c-0.3,0-0.6,0.1-0.9,0.1c-0.9-3.1-2.7-5.9-5-7.9c-0.3-0.3-0.7-0.6-1-0.8c-0.7-0.5-1.5-1-2.3-1.4
			c-2.4-1.3-5.1-2-8-2c-7.7,0-14.2,5-16.3,12.2c-0.1,0-0.1,0-0.2,0c-0.5-0.1-1-0.2-1.5-0.2c-1.1,0-2.2,0.2-3.3,0.5
			c-2.1,0.6-3.9,1.9-5.2,3.5c-0.4,0.5-0.8,1.1-1.2,1.8c-0.8,1.6-1.3,3.3-1.3,5.2s0.5,3.7,1.3,5.2c0.3,0.6,0.7,1.2,1.2,1.8
			c1.3,1.6,3.2,2.9,5.2,3.5c1,0.3,2.1,0.5,3.3,0.5h36c1.1,0,2.2-0.2,3.3-0.5c2.1-0.6,3.9-1.9,5.2-3.5c0.4-0.5,0.8-1.1,1.2-1.8
			c0.8-1.6,1.3-3.3,1.3-5.2S-151.5-408.7-152.3-410.2z"/>
	</g>
	<g>
		<circle class="st2" cx="-75" cy="-390" r="2"/>
		<circle class="st2" cx="-57" cy="-390" r="2"/>
		<circle class="st2" cx="-66" cy="-384" r="2"/>
		<circle class="st2" cx="-57" cy="-378" r="2"/>
		<circle class="st2" cx="-66" cy="-372" r="2"/>
		<circle class="st2" cx="-75" cy="-378" r="2"/>
		<path class="st2" d="M-38.3-410.2c-0.3-0.6-0.7-1.2-1.2-1.8c-1.3-1.6-3.2-2.9-5.2-3.5c-1-0.3-2.1-0.5-3.3-0.5
			c-0.3,0-0.5,0-0.8,0.1c-0.3,0-0.6,0.1-0.9,0.1c-0.9-3.1-2.7-5.9-5-7.9c-0.3-0.3-0.7-0.6-1-0.8c-0.7-0.5-1.5-1-2.3-1.4
			c-2.4-1.3-5.1-2-8-2c-7.7,0-14.2,5-16.3,12.2c-0.1,0-0.1,0-0.2,0c-0.5-0.1-1-0.2-1.5-0.2c-1.1,0-2.2,0.2-3.3,0.5
			c-2.1,0.6-3.9,1.9-5.2,3.5c-0.4,0.5-0.8,1.1-1.2,1.8c-0.8,1.6-1.3,3.3-1.3,5.2s0.5,3.7,1.3,5.2c0.3,0.6,0.7,1.2,1.2,1.8
			c1.3,1.6,3.2,2.9,5.2,3.5c1,0.3,2.1,0.5,3.3,0.5h36c1.1,0,2.2-0.2,3.3-0.5c2.1-0.6,3.9-1.9,5.2-3.5c0.4-0.5,0.8-1.1,1.2-1.8
			c0.8-1.6,1.3-3.3,1.3-5.2S-37.5-408.7-38.3-410.2z"/>
	</g>
	<g>
		<g>
			<polyline class="st1" points="38.8,-397.4 31.8,-384.3 36.9,-384.4 31.1,-373 43.4,-387.2 37.1,-387.1 46,-397.4 			"/>
			<polyline class="st1" points="51.6,-402.3 44.6,-389.2 49.8,-389.3 44,-377.9 56.2,-392.1 50,-392 58.8,-402.3 			"/>
		</g>
		<path class="st4" d="M66-416c-0.5,0-1.1,0.1-1.7,0.2C62.2-423,55.7-428,48-428c-7.7,0-14.2,5-16.3,12.2c-0.6-0.1-1.2-0.2-1.7-0.2
			c-6.1,0-11,4.9-11,11s4.9,11,11,11h36c6.1,0,11-4.9,11-11S72.1-416,66-416z"/>
	</g>
	<path class="st4" d="M180-416c-0.5,0-1.1,0.1-1.7,0.2c-2.1-7.2-8.6-12.2-16.3-12.2c-7.7,0-14.2,5-16.3,12.2
		c-0.6-0.1-1.2-0.2-1.7-0.2c-6.1,0-11,4.9-11,11s4.9,11,11,11h36c6.1,0,11-4.9,11-11S186.1-416,180-416z"/>
	<path class="st1" d="M294-416c-0.5,0-1.1,0.1-1.7,0.2c-2.1-7.2-8.6-12.2-16.3-12.2c-7.7,0-14.2,5-16.3,12.2
		c-0.6-0.1-1.2-0.2-1.7-0.2c-6.1,0-11,4.9-11,11s4.9,11,11,11h11.3l-3.9,5.9c-0.4,0.6-0.4,1.4-0.1,2.1c0.3,0.7,1,1.1,1.8,1.1h2.3
		l-3.9,5.9c-0.6,0.9-0.4,2.2,0.6,2.8c0.3,0.2,0.7,0.3,1.1,0.3c0.6,0,1.3-0.3,1.7-0.9l6-9c0.4-0.6,0.4-1.4,0.1-2.1
		c-0.3-0.7-1-1.1-1.8-1.1h-2.3l3.3-5h5.2l-1.9,2.9c-0.4,0.6-0.4,1.4-0.1,2.1c0.3,0.7,1,1.1,1.8,1.1h2.3l-1.9,2.9
		c-0.6,0.9-0.4,2.2,0.6,2.8c0.3,0.2,0.7,0.3,1.1,0.3c0.6,0,1.3-0.3,1.7-0.9l4-6c0.4-0.6,0.4-1.4,0.1-2.1c-0.3-0.7-1-1.1-1.8-1.1
		h-2.3l1.3-2h9.9c6.1,0,11-4.9,11-11S300.1-416,294-416z M294-398h-36c-3.9,0-7-3.1-7-7s3.1-7,7-7c0.3,0,0.7,0.1,1.2,0.2v1.8
		c0,1.1,0.9,2,2,2s2-0.9,2-2v-3.2c1.1-6.3,6.4-10.8,12.8-10.8c6.4,0,11.7,4.5,12.8,10.8v3.2c0,1.1,0.9,2,2,2c1.1,0,2-0.9,2-2v-1.8
		c0.5-0.1,0.9-0.2,1.2-0.2c3.9,0,7,3.1,7,7S297.9-398,294-398z"/>
	<path class="st4" d="M294-416c-0.5,0-1.1,0.1-1.7,0.2c-2.1-7.2-8.6-12.2-16.3-12.2c-7.7,0-14.2,5-16.3,12.2
		c-0.6-0.1-1.2-0.2-1.7-0.2c-6.1,0-11,4.9-11,11s4.9,11,11,11h36c6.1,0,11-4.9,11-11S300.1-416,294-416z"/>
	<g>
		<path class="st2" d="M-70.3-272.3c-0.6-1-1.8-1.3-2.7-0.7c-1,0.6-1.3,1.8-0.7,2.7l1,1.7c0.4,0.6,1,1,1.7,1c0.3,0,0.7-0.1,1-0.3
			c1-0.6,1.3-1.8,0.7-2.7L-70.3-272.3z"/>
		<path class="st2" d="M-75-273.1c-1-0.6-2.2-0.2-2.7,0.7l-1,1.7c-0.6,1-0.2,2.2,0.7,2.7c0.3,0.2,0.7,0.3,1,0.3c0.7,0,1.4-0.4,1.7-1
			l1-1.7C-73.7-271.3-74-272.5-75-273.1z"/>
		<path class="st2" d="M-76-274.8c0-1.1-0.9-2-2-2h-2c-1.1,0-2,0.9-2,2c0,1.1,0.9,2,2,2h2C-76.9-272.8-76-273.7-76-274.8z"/>
		<path class="st2" d="M-68-276.8h-2c-1.1,0-2,0.9-2,2c0,1.1,0.9,2,2,2h2c1.1,0,2-0.9,2-2C-66-275.9-66.9-276.8-68-276.8z"/>
		<path class="st2" d="M-48-302c-0.5,0-1.1,0.1-1.7,0.2C-51.8-309-58.3-314-66-314c-7.7,0-14.2,5-16.3,12.2
			c-0.6-0.1-1.2-0.2-1.7-0.2c-6.1,0-11,4.9-11,11s4.9,11,11,11h5c0,0.3,0.1,0.7,0.3,1l1,1.7c0.4,0.6,1,1,1.7,1c0.3,0,0.7-0.1,1-0.3
			c1-0.6,1.3-1.8,0.7-2.7l-0.4-0.7h1.4l-0.4,0.7c-0.6,1-0.2,2.2,0.7,2.7c0.3,0.2,0.7,0.3,1,0.3c0.7,0,1.4-0.4,1.7-1l1-1.7
			c0.2-0.3,0.3-0.7,0.3-1h21c6.1,0,11-4.9,11-11S-41.9-302-48-302z"/>
		<path class="st2" d="M-53.3-267.3c-0.6-1-1.8-1.3-2.7-0.7c-1,0.6-1.3,1.8-0.7,2.7l1,1.7c0.4,0.6,1,1,1.7,1c0.3,0,0.7-0.1,1-0.3
			c1-0.6,1.3-1.8,0.7-2.7L-53.3-267.3z"/>
		<path class="st2" d="M-58.3-276c-0.6-1-1.8-1.3-2.7-0.7c-1,0.6-1.3,1.8-0.7,2.7l1,1.7c0.4,0.6,1,1,1.7,1c0.3,0,0.7-0.1,1-0.3
			c1-0.6,1.3-1.8,0.7-2.7L-58.3-276z"/>
		<path class="st2" d="M-56-271.5c0.3,0.2,0.7,0.3,1,0.3c0.7,0,1.4-0.4,1.7-1l1-1.7c0.6-1,0.2-2.2-0.7-2.7c-1-0.6-2.2-0.2-2.7,0.7
			l-1,1.7C-57.3-273.3-57-272.1-56-271.5z"/>
		<path class="st2" d="M-58-268.1c-1-0.6-2.2-0.2-2.7,0.7l-1,1.7c-0.6,1-0.2,2.2,0.7,2.7c0.3,0.2,0.7,0.3,1,0.3c0.7,0,1.4-0.4,1.7-1
			l1-1.7C-56.7-266.3-57-267.5-58-268.1z"/>
		<path class="st2" d="M-59-269.8c0-1.1-0.9-2-2-2h-2c-1.1,0-2,0.9-2,2c0,1.1,0.9,2,2,2h2C-59.9-267.8-59-268.7-59-269.8z"/>
		<path class="st2" d="M-51-271.8h-2c-1.1,0-2,0.9-2,2c0,1.1,0.9,2,2,2h2c1.1,0,2-0.9,2-2C-49-270.9-49.9-271.8-51-271.8z"/>
	</g>
	<g>
		<path class="st2" d="M43.7-272.3c-0.6-1-1.8-1.3-2.7-0.7c-1,0.6-1.3,1.8-0.7,2.7l1,1.7c0.4,0.6,1,1,1.7,1c0.3,0,0.7-0.1,1-0.3
			c1-0.6,1.3-1.8,0.7-2.7L43.7-272.3z"/>
		<path class="st2" d="M39-273.1c-1-0.6-2.2-0.2-2.7,0.7l-1,1.7c-0.6,1-0.2,2.2,0.7,2.7c0.3,0.2,0.7,0.3,1,0.3c0.7,0,1.4-0.4,1.7-1
			l1-1.7C40.3-271.3,40-272.5,39-273.1z"/>
		<path class="st2" d="M38-274.8c0-1.1-0.9-2-2-2h-2c-1.1,0-2,0.9-2,2c0,1.1,0.9,2,2,2h2C37.1-272.8,38-273.7,38-274.8z"/>
		<path class="st2" d="M46-276.8h-2c-1.1,0-2,0.9-2,2c0,1.1,0.9,2,2,2h2c1.1,0,2-0.9,2-2C48-275.9,47.1-276.8,46-276.8z"/>
		<path class="st2" d="M66-302c-0.5,0-1.1,0.1-1.7,0.2C62.2-309,55.7-314,48-314c-7.7,0-14.2,5-16.3,12.2c-0.6-0.1-1.2-0.2-1.7-0.2
			c-6.1,0-11,4.9-11,11s4.9,11,11,11h5c0,0.3,0.1,0.7,0.3,1l1,1.7c0.4,0.6,1,1,1.7,1c0.3,0,0.7-0.1,1-0.3c1-0.6,1.3-1.8,0.7-2.7
			l-0.4-0.7h1.4l-0.4,0.7c-0.6,1-0.2,2.2,0.7,2.7c0.3,0.2,0.7,0.3,1,0.3c0.7,0,1.4-0.4,1.7-1l1-1.7c0.2-0.3,0.3-0.7,0.3-1h21
			c6.1,0,11-4.9,11-11S72.1-302,66-302z"/>
		<path class="st2" d="M60.7-267.3c-0.6-1-1.8-1.3-2.7-0.7c-1,0.6-1.3,1.8-0.7,2.7l1,1.7c0.4,0.6,1,1,1.7,1c0.3,0,0.7-0.1,1-0.3
			c1-0.6,1.3-1.8,0.7-2.7L60.7-267.3z"/>
		<path class="st2" d="M55.7-276c-0.6-1-1.8-1.3-2.7-0.7c-1,0.6-1.3,1.8-0.7,2.7l1,1.7c0.4,0.6,1,1,1.7,1c0.3,0,0.7-0.1,1-0.3
			c1-0.6,1.3-1.8,0.7-2.7L55.7-276z"/>
		<path class="st2" d="M58-271.5c0.3,0.2,0.7,0.3,1,0.3c0.7,0,1.4-0.4,1.7-1l1-1.7c0.6-1,0.2-2.2-0.7-2.7c-1-0.6-2.2-0.2-2.7,0.7
			l-1,1.7C56.7-273.3,57-272.1,58-271.5z"/>
		<path class="st2" d="M56-268.1c-1-0.6-2.2-0.2-2.7,0.7l-1,1.7c-0.6,1-0.2,2.2,0.7,2.7c0.3,0.2,0.7,0.3,1,0.3c0.7,0,1.4-0.4,1.7-1
			l1-1.7C57.3-266.3,57-267.5,56-268.1z"/>
		<path class="st2" d="M55-269.8c0-1.1-0.9-2-2-2h-2c-1.1,0-2,0.9-2,2c0,1.1,0.9,2,2,2h2C54.1-267.8,55-268.7,55-269.8z"/>
		<path class="st2" d="M63-271.8h-2c-1.1,0-2,0.9-2,2c0,1.1,0.9,2,2,2h2c1.1,0,2-0.9,2-2C65-270.9,64.1-271.8,63-271.8z"/>
	</g>
	<g>
		<path class="st1" d="M166.6-277.4l-2.6,2.6v-5.2c0-1.1-0.9-2-2-2c-1.1,0-2,0.9-2,2v5.2l-2.6-2.6c-0.8-0.8-2-0.8-2.8,0
			c-0.8,0.8-0.8,2,0,2.8l6,6c0.4,0.4,0.9,0.6,1.4,0.6c0.5,0,1-0.2,1.4-0.6l6-6c0.8-0.8,0.8-2,0-2.8
			C168.6-278.2,167.4-278.2,166.6-277.4z"/>
		<path class="st1" d="M171.9-303.9c-1-1-2-1.8-3.2-2.4c-1.6-0.9-3.4-1.4-5.2-1.6c-0.5,0-0.9-0.1-1.4-0.1c-7.7,0-14,6.3-14,14
			c0,1.5,0.3,3.1,0.7,4.5c0.3,0.9,0.7,1.7,1.1,2.5c0.4,0.6,1,1,1.7,1l0,0h20.8c0.2,0,0.4,0,0.5-0.1c0.5-0.1,0.9-0.5,1.2-0.9
			c0.5-0.8,0.8-1.6,1.1-2.5c0.5-1.4,0.7-3,0.7-4.5c0-2.9-0.9-5.6-2.4-7.8C173.1-302.6,172.5-303.3,171.9-303.9z M162.2-304
			c-0.5,0-1,0-1.4,0.1h0c0.4-0.1,0.8-0.1,1.2-0.1C162.1-304,162.1-304,162.2-304z M152.8-290C152.8-290,152.8-290,152.8-290
			C152.8-290,152.9-290,152.8-290L152.8-290z"/>
	</g>
	<g>
		<path class="st1" d="M277.4-281.4c-0.8-0.8-2-0.8-2.8,0l-6,6c-0.8,0.8-0.8,2,0,2.8c0.8,0.8,2,0.8,2.8,0l2.6-2.6v5.2
			c0,1.1,0.9,2,2,2c1.1,0,2-0.9,2-2v-5.2l2.6,2.6c0.4,0.4,0.9,0.6,1.4,0.6c0.5,0,1-0.2,1.4-0.6c0.8-0.8,0.8-2,0-2.8L277.4-281.4z"/>
		<path class="st1" d="M285.9-303.9c-1-1-2-1.8-3.2-2.4c-1.6-0.9-3.4-1.4-5.2-1.6c-0.5,0-0.9-0.1-1.4-0.1c-7.7,0-14,6.3-14,14
			c0,1.5,0.3,3.1,0.7,4.5c0.3,0.9,0.7,1.7,1.1,2.5c0.4,0.6,1,1,1.7,1l0,0h20.8c0.2,0,0.4,0,0.5-0.1c0.5-0.1,0.9-0.5,1.2-0.9
			c0.5-0.8,0.8-1.6,1.1-2.5c0.5-1.4,0.7-3,0.7-4.5c0-2.9-0.9-5.6-2.4-7.8C287.1-302.6,286.5-303.3,285.9-303.9z M276.2-304
			c-0.5,0-1,0-1.4,0.1h0c0.4-0.1,0.8-0.1,1.2-0.1C276.1-304,276.1-304,276.2-304z M266.8-290C266.8-290,266.8-290,266.8-290
			C266.8-290,266.9-290,266.8-290L266.8-290z"/>
	</g>
	<g>
		<path class="st2" d="M-162-188c-0.5,0-1.1,0.1-1.7,0.2c-2.1-7.2-8.6-12.2-16.3-12.2c-7.7,0-14.2,5-16.3,12.2
			c-0.6-0.1-1.2-0.2-1.7-0.2c-6.1,0-11,4.9-11,11s4.9,11,11,11h5.4l-2.4,9.5c-0.3,1.1,0.4,2.2,1.5,2.4c0.2,0,0.3,0.1,0.5,0.1
			c0.9,0,1.7-0.6,1.9-1.5l2.6-10.5h5.4l-3.9,15.5c-0.3,1.1,0.4,2.2,1.5,2.4c0.2,0,0.3,0.1,0.5,0.1c0.9,0,1.7-0.6,1.9-1.5l4.1-16.5
			h5.4l-2.4,9.5c-0.3,1.1,0.4,2.2,1.5,2.4c0.2,0,0.3,0.1,0.5,0.1c0.9,0,1.7-0.6,1.9-1.5l2.6-10.5h7.4c6.1,0,11-4.9,11-11
			S-155.9-188-162-188z"/>
	</g>
	<path class="st2" d="M-48-188c-0.5,0-1.1,0.1-1.7,0.2C-51.8-195-58.3-200-66-200c-7.7,0-14.2,5-16.3,12.2c-0.6-0.1-1.2-0.2-1.7-0.2
		c-6.1,0-11,4.9-11,11s4.9,11,11,11h5.4l-2.4,9.5c-0.3,1.1,0.4,2.2,1.5,2.4c0.2,0,0.3,0.1,0.5,0.1c0.9,0,1.7-0.6,1.9-1.5l2.6-10.5
		h5.4l-3.9,15.5c-0.3,1.1,0.4,2.2,1.5,2.4c0.2,0,0.3,0.1,0.5,0.1c0.9,0,1.7-0.6,1.9-1.5l4.1-16.5h5.4l-2.4,9.5
		c-0.3,1.1,0.4,2.2,1.5,2.4c0.2,0,0.3,0.1,0.5,0.1c0.9,0,1.7-0.6,1.9-1.5l2.6-10.5h7.4c6.1,0,11-4.9,11-11S-41.9-188-48-188z"/>
	<path class="st2" d="M66-188c-0.5,0-1.1,0.1-1.7,0.2C62.2-195,55.7-200,48-200c-7.7,0-14.2,5-16.3,12.2c-0.6-0.1-1.2-0.2-1.7-0.2
		c-6.1,0-11,4.9-11,11s4.9,11,11,11h5.4l-2.4,9.5c-0.3,1.1,0.4,2.2,1.5,2.4c0.2,0,0.3,0.1,0.5,0.1c0.9,0,1.7-0.6,1.9-1.5l2.6-10.5
		h5.4l-3.9,15.5c-0.3,1.1,0.4,2.2,1.5,2.4c0.2,0,0.3,0.1,0.5,0.1c0.9,0,1.7-0.6,1.9-1.5l4.1-16.5h5.4l-2.4,9.5
		c-0.3,1.1,0.4,2.2,1.5,2.4c0.2,0,0.3,0.1,0.5,0.1c0.9,0,1.7-0.6,1.9-1.5l2.6-10.5H66c6.1,0,11-4.9,11-11S72.1-188,66-188z"/>
	<g>
		<path class="st2" d="M265.8-191h12c1.1,0,2-0.9,2-2s-0.9-2-2-2h-12c-1.1,0-2,0.9-2,2S264.7-191,265.8-191z"/>
		<path class="st2" d="M253.8-185h24c1.1,0,2-0.9,2-2s-0.9-2-2-2h-24c-1.1,0-2,0.9-2,2S252.7-185,253.8-185z"/>
		<path class="st2" d="M247.8-179h24c1.1,0,2-0.9,2-2s-0.9-2-2-2h-24c-1.1,0-2,0.9-2,2S246.7-179,247.8-179z"/>
		<path class="st2" d="M306.8-175c0-1.1-0.9-2-2-2h-60c-1.1,0-2,0.9-2,2s0.9,2,2,2h60C305.9-173,306.8-173.9,306.8-175z"/>
		<path class="st2" d="M304.8-171h-57c-1.1,0-2,0.9-2,2s0.9,2,2,2h57c1.1,0,2-0.9,2-2S305.9-171,304.8-171z"/>
		<path class="st2" d="M265.8-165l-12,0c-1.1,0-2,0.9-2,2c0,1.1,0.9,2,2,2l12,0c1.1,0,2-0.9,2-2S266.9-165,265.8-165z"/>
		<path class="st2" d="M284.8-185h8c1.1,0,2-0.9,2-2s-0.9-2-2-2h-8c-1.1,0-2,0.9-2,2S283.7-185,284.8-185z"/>
		<path class="st2" d="M275.8-181c0,1.1,0.9,2,2,2h21c1.1,0,2-0.9,2-2s-0.9-2-2-2h-21C276.7-183,275.8-182.1,275.8-181z"/>
		<path class="st2" d="M298.8-165l-27,0c-1.1,0-2,0.9-2,2s0.9,2,2,2l27,0c1.1,0,2-0.9,2-2C300.8-164.1,299.9-165,298.8-165z"/>
	</g>
	<path class="st4" d="M-48-74c-0.5,0-1.1,0.1-1.7,0.2C-51.8-81-58.3-86-66-86c-7.7,0-14.2,5-16.3,12.2c-0.6-0.1-1.2-0.2-1.7-0.2
		c-6.1,0-11,4.9-11,11s4.9,11,11,11h36c6.1,0,11-4.9,11-11S-41.9-74-48-74z"/>
	<g>
		<path class="st2" d="M21-61c1.1,0,2-0.9,2-2c0-3.9,3.1-7,7-7c0.3,0,0.7,0.1,1.2,0.2v1.8c0,1.1,0.9,2,2,2s2-0.9,2-2v-3.2
			C36.3-77.5,41.6-82,48-82c6.4,0,11.7,4.5,12.8,10.8v3.2c0,1.1,0.9,2,2,2s2-0.9,2-2v-1.8c0.5-0.1,0.9-0.2,1.2-0.2c3.9,0,7,3.1,7,7
			c0,1.1,0.9,2,2,2c1.1,0,2-0.9,2-2c0-6.1-4.9-11-11-11c-0.5,0-1.1,0.1-1.7,0.2C62.2-81,55.7-86,48-86c-7.7,0-14.2,5-16.3,12.2
			C31.1-73.9,30.5-74,30-74c-6.1,0-11,4.9-11,11C19-61.9,19.9-61,21-61z"/>
		<path class="st2" d="M40-55c0,1.1,0.9,2,2,2h36c1.1,0,2-0.9,2-2s-0.9-2-2-2H42C40.9-57,40-56.1,40-55z"/>
		<path class="st2" d="M48-50c-1.1,0-2,0.9-2,2s0.9,2,2,2h27c1.1,0,2-0.9,2-2s-0.9-2-2-2H48z"/>
		<path class="st2" d="M78-43H54c-1.1,0-2,0.9-2,2s0.9,2,2,2h24c1.1,0,2-0.9,2-2S79.1-43,78-43z"/>
		<path class="st2" d="M18-53h18c1.1,0,2-0.9,2-2s-0.9-2-2-2H18c-1.1,0-2,0.9-2,2S16.9-53,18-53z"/>
		<path class="st2" d="M21-50c-1.1,0-2,0.9-2,2s0.9,2,2,2h21c1.1,0,2-0.9,2-2s-0.9-2-2-2H21z"/>
		<path class="st2" d="M48-43H18c-1.1,0-2,0.9-2,2s0.9,2,2,2h30c1.1,0,2-0.9,2-2S49.1-43,48-43z"/>
	</g>
	<path class="st4" d="M66-74c-0.5,0-1.1,0.1-1.7,0.2C62.2-81,55.7-86,48-86c-7.7,0-14.2,5-16.3,12.2C31.1-73.9,30.5-74,30-74
		c-6.1,0-11,4.9-11,11s4.9,11,11,11h36c6.1,0,11-4.9,11-11S72.1-74,66-74z"/>
	<g>
		<path class="st2" d="M135-61c1.1,0,2-0.9,2-2c0-3.9,3.1-7,7-7c0.3,0,0.7,0.1,1.2,0.2v1.8c0,1.1,0.9,2,2,2c1.1,0,2-0.9,2-2v-3.2
			c1.1-6.3,6.4-10.8,12.8-10.8c6.4,0,11.7,4.5,12.8,10.8v3.2c0,1.1,0.9,2,2,2c1.1,0,2-0.9,2-2v-1.8c0.5-0.1,0.9-0.2,1.2-0.2
			c3.9,0,7,3.1,7,7c0,1.1,0.9,2,2,2c1.1,0,2-0.9,2-2c0-6.1-4.9-11-11-11c-0.5,0-1.1,0.1-1.7,0.2C176.2-81,169.7-86,162-86
			c-7.7,0-14.2,5-16.3,12.2c-0.6-0.1-1.2-0.2-1.7-0.2c-6.1,0-11,4.9-11,11C133-61.9,133.9-61,135-61z"/>
		<path class="st2" d="M154-55c0,1.1,0.9,2,2,2h36c1.1,0,2-0.9,2-2s-0.9-2-2-2h-36C154.9-57,154-56.1,154-55z"/>
		<path class="st2" d="M162-50c-1.1,0-2,0.9-2,2s0.9,2,2,2h27c1.1,0,2-0.9,2-2s-0.9-2-2-2H162z"/>
		<path class="st2" d="M192-43h-24c-1.1,0-2,0.9-2,2s0.9,2,2,2h24c1.1,0,2-0.9,2-2S193.1-43,192-43z"/>
		<path class="st2" d="M132-53h18c1.1,0,2-0.9,2-2s-0.9-2-2-2h-18c-1.1,0-2,0.9-2,2S130.9-53,132-53z"/>
		<path class="st2" d="M135-50c-1.1,0-2,0.9-2,2s0.9,2,2,2h21c1.1,0,2-0.9,2-2s-0.9-2-2-2H135z"/>
		<path class="st2" d="M162-43h-30c-1.1,0-2,0.9-2,2s0.9,2,2,2h30c1.1,0,2-0.9,2-2S163.1-43,162-43z"/>
	</g>
	<path class="st4" d="M180-74c-0.5,0-1.1,0.1-1.7,0.2C176.2-81,169.7-86,162-86c-7.7,0-14.2,5-16.3,12.2c-0.6-0.1-1.2-0.2-1.7-0.2
		c-6.1,0-11,4.9-11,11s4.9,11,11,11h36c6.1,0,11-4.9,11-11S186.1-74,180-74z"/>
	<path class="st4" d="M294-80c-0.5,0-1.1,0.1-1.7,0.2C290.2-87,283.7-92,276-92c-7.7,0-14.2,5-16.3,12.2c-0.6-0.1-1.2-0.2-1.7-0.2
		c-6.1,0-11,4.9-11,11s4.9,11,11,11h36c6.1,0,11-4.9,11-11S300.1-80,294-80z"/>
	<path class="st4" d="M180-644c-0.5,0-1.1,0.1-1.7,0.2c-2.1-7.2-8.6-12.2-16.3-12.2c-7.7,0-14.2,5-16.3,12.2
		c-0.6-0.1-1.2-0.2-1.7-0.2c-6.1,0-11,4.9-11,11s4.9,11,11,11h36c6.1,0,11-4.9,11-11S186.1-644,180-644z"/>
	<path class="st4" d="M294-644c-0.5,0-1.1,0.1-1.7,0.2c-2.1-7.2-8.6-12.2-16.3-12.2c-7.7,0-14.2,5-16.3,12.2
		c-0.6-0.1-1.2-0.2-1.7-0.2c-6.1,0-11,4.9-11,11s4.9,11,11,11h36c6.1,0,11-4.9,11-11S300.1-644,294-644z"/>
	<path class="st4" d="M-162-530c-0.5,0-1.1,0.1-1.7,0.2c-2.1-7.2-8.6-12.2-16.3-12.2c-7.7,0-14.2,5-16.3,12.2
		c-0.6-0.1-1.2-0.2-1.7-0.2c-6.1,0-11,4.9-11,11s4.9,11,11,11h36c6.1,0,11-4.9,11-11S-155.9-530-162-530z"/>
	<g>
		<g>
			<path class="st2" d="M-66-506c-1.1,0-2,0.9-2,2v18c0,1.1,0.9,2,2,2s2-0.9,2-2v-18C-64-505.1-64.9-506-66-506z"/>
			<path class="st2" d="M-38.3-524.2c-0.3-0.6-0.7-1.2-1.2-1.8c-1.3-1.6-3.2-2.9-5.2-3.5c-1-0.3-2.1-0.5-3.3-0.5
				c-0.5,0-1.1,0.1-1.7,0.2C-51.8-537-58.3-542-66-542c-7.7,0-14.2,5-16.3,12.2c-0.6-0.1-1.2-0.2-1.7-0.2c-1.1,0-2.2,0.2-3.3,0.5
				c-2.1,0.6-3.9,1.9-5.2,3.5c-0.4,0.5-0.8,1.1-1.2,1.8c-0.8,1.6-1.3,3.3-1.3,5.2s0.5,3.7,1.3,5.2c0.3,0.6,0.7,1.2,1.2,1.8
				c1.3,1.6,3.2,2.9,5.2,3.5c1,0.3,2.1,0.5,3.3,0.5h7v16c0,1.1,0.9,2,2,2s2-0.9,2-2v-16h14v16c0,1.1,0.9,2,2,2c1.1,0,2-0.9,2-2v-16
				h7c1.1,0,2.2-0.2,3.3-0.5c2.1-0.6,3.9-1.9,5.2-3.5c0.4-0.5,0.8-1.1,1.2-1.8c0.8-1.6,1.3-3.3,1.3-5.2S-37.5-522.7-38.3-524.2z"/>
		</g>
		<path class="st4" d="M-48-530c-0.5,0-1.1,0.1-1.7,0.2C-51.8-537-58.3-542-66-542c-7.7,0-14.2,5-16.3,12.2
			c-0.6-0.1-1.2-0.2-1.7-0.2c-6.1,0-11,4.9-11,11s4.9,11,11,11h36c6.1,0,11-4.9,11-11S-41.9-530-48-530z"/>
	</g>
	<path class="st4" d="M66-530c-0.5,0-1.1,0.1-1.7,0.2C62.2-537,55.7-542,48-542c-7.7,0-14.2,5-16.3,12.2c-0.6-0.1-1.2-0.2-1.7-0.2
		c-6.1,0-11,4.9-11,11s4.9,11,11,11h36c6.1,0,11-4.9,11-11S72.1-530,66-530z"/>
	<path class="st4" d="M180-530c-0.5,0-1.1,0.1-1.7,0.2c-2.1-7.2-8.6-12.2-16.3-12.2c-7.7,0-14.2,5-16.3,12.2
		c-0.6-0.1-1.2-0.2-1.7-0.2c-6.1,0-11,4.9-11,11s4.9,11,11,11h36c6.1,0,11-4.9,11-11S186.1-530,180-530z"/>
	<g>
		<g>
			<circle class="st2" cx="267" cy="-504" r="2"/>
			<circle class="st2" cx="285" cy="-504" r="2"/>
			<circle class="st2" cx="276" cy="-498" r="2"/>
			<circle class="st2" cx="285" cy="-492" r="2"/>
			<circle class="st2" cx="276" cy="-486" r="2"/>
			<circle class="st2" cx="267" cy="-492" r="2"/>
			<path class="st2" d="M303.7-524.2c-0.3-0.6-0.7-1.2-1.2-1.8c-1.3-1.6-3.2-2.9-5.2-3.5c-1-0.3-2.1-0.5-3.3-0.5
				c-0.3,0-0.5,0-0.8,0.1c-0.3,0-0.6,0.1-0.9,0.1c-0.9-3.1-2.7-5.9-5-7.9c-0.3-0.3-0.7-0.6-1-0.8c-0.7-0.5-1.5-1-2.3-1.4
				c-2.4-1.3-5.1-2-8-2c-7.7,0-14.2,5-16.3,12.2c-0.1,0-0.1,0-0.2,0c-0.5-0.1-1-0.2-1.5-0.2c-1.1,0-2.2,0.2-3.3,0.5
				c-2.1,0.6-3.9,1.9-5.2,3.5c-0.4,0.5-0.8,1.1-1.2,1.8c-0.8,1.6-1.3,3.3-1.3,5.2s0.5,3.7,1.3,5.2c0.3,0.6,0.7,1.2,1.2,1.8
				c1.3,1.6,3.2,2.9,5.2,3.5c1,0.3,2.1,0.5,3.3,0.5h36c1.1,0,2.2-0.2,3.3-0.5c2.1-0.6,3.9-1.9,5.2-3.5c0.4-0.5,0.8-1.1,1.2-1.8
				c0.8-1.6,1.3-3.3,1.3-5.2S304.5-522.7,303.7-524.2z"/>
		</g>
		<path class="st4" d="M294-530c-0.5,0-1.1,0.1-1.7,0.2c-2.1-7.2-8.6-12.2-16.3-12.2c-7.7,0-14.2,5-16.3,12.2
			c-0.6-0.1-1.2-0.2-1.7-0.2c-6.1,0-11,4.9-11,11s4.9,11,11,11h36c6.1,0,11-4.9,11-11S300.1-530,294-530z"/>
	</g>
	<path class="st4" d="M-162-416c-0.5,0-1.1,0.1-1.7,0.2c-2.1-7.2-8.6-12.2-16.3-12.2c-7.7,0-14.2,5-16.3,12.2
		c-0.6-0.1-1.2-0.2-1.7-0.2c-6.1,0-11,4.9-11,11s4.9,11,11,11h36c6.1,0,11-4.9,11-11S-155.9-416-162-416z"/>
	<path class="st4" d="M-48-416c-0.5,0-1.1,0.1-1.7,0.2C-51.8-423-58.3-428-66-428c-7.7,0-14.2,5-16.3,12.2c-0.6-0.1-1.2-0.2-1.7-0.2
		c-6.1,0-11,4.9-11,11s4.9,11,11,11h36c6.1,0,11-4.9,11-11S-41.9-416-48-416z"/>
	<g>
		<g>
			<path class="st2" d="M-183.3-271.3c-0.6-1-1.8-1.3-2.7-0.7c-1,0.6-1.3,1.8-0.7,2.7l1,1.7c0.4,0.6,1,1,1.7,1c0.3,0,0.7-0.1,1-0.3
				c1-0.6,1.3-1.8,0.7-2.7L-183.3-271.3z"/>
			<path class="st2" d="M-188-272.1c-1-0.6-2.2-0.2-2.7,0.7l-1,1.7c-0.6,1-0.2,2.2,0.7,2.7c0.3,0.2,0.7,0.3,1,0.3
				c0.7,0,1.4-0.4,1.7-1l1-1.7C-186.7-270.3-187-271.5-188-272.1z"/>
			<path class="st2" d="M-189-273.8c0-1.1-0.9-2-2-2h-2c-1.1,0-2,0.9-2,2c0,1.1,0.9,2,2,2h2C-189.9-271.8-189-272.7-189-273.8z"/>
			<path class="st2" d="M-181-275.8h-2c-1.1,0-2,0.9-2,2c0,1.1,0.9,2,2,2h2c1.1,0,2-0.9,2-2C-179-274.9-179.9-275.8-181-275.8z"/>
			<path class="st2" d="M-161-301c-0.5,0-1.1,0.1-1.7,0.2c-2.1-7.2-8.6-12.2-16.3-12.2c-7.7,0-14.2,5-16.3,12.2
				c-0.6-0.1-1.2-0.2-1.7-0.2c-6.1,0-11,4.9-11,11s4.9,11,11,11h5c0,0.3,0.1,0.7,0.3,1l1,1.7c0.4,0.6,1,1,1.7,1c0.3,0,0.7-0.1,1-0.3
				c1-0.6,1.3-1.8,0.7-2.7l-0.4-0.7h1.4l-0.4,0.7c-0.6,1-0.2,2.2,0.7,2.7c0.3,0.2,0.7,0.3,1,0.3c0.7,0,1.4-0.4,1.7-1l1-1.7
				c0.2-0.3,0.3-0.7,0.3-1h21c6.1,0,11-4.9,11-11S-154.9-301-161-301z"/>
			<path class="st2" d="M-166.3-266.3c-0.6-1-1.8-1.3-2.7-0.7c-1,0.6-1.3,1.8-0.7,2.7l1,1.7c0.4,0.6,1,1,1.7,1c0.3,0,0.7-0.1,1-0.3
				c1-0.6,1.3-1.8,0.7-2.7L-166.3-266.3z"/>
			<path class="st2" d="M-171.3-275c-0.6-1-1.8-1.3-2.7-0.7c-1,0.6-1.3,1.8-0.7,2.7l1,1.7c0.4,0.6,1,1,1.7,1c0.3,0,0.7-0.1,1-0.3
				c1-0.6,1.3-1.8,0.7-2.7L-171.3-275z"/>
			<path class="st2" d="M-169-270.5c0.3,0.2,0.7,0.3,1,0.3c0.7,0,1.4-0.4,1.7-1l1-1.7c0.6-1,0.2-2.2-0.7-2.7c-1-0.6-2.2-0.2-2.7,0.7
				l-1,1.7C-170.3-272.3-170-271.1-169-270.5z"/>
			<path class="st2" d="M-171-267.1c-1-0.6-2.2-0.2-2.7,0.7l-1,1.7c-0.6,1-0.2,2.2,0.7,2.7c0.3,0.2,0.7,0.3,1,0.3
				c0.7,0,1.4-0.4,1.7-1l1-1.7C-169.7-265.3-170-266.5-171-267.1z"/>
			<path class="st2" d="M-172-268.8c0-1.1-0.9-2-2-2h-2c-1.1,0-2,0.9-2,2c0,1.1,0.9,2,2,2h2C-172.9-266.8-172-267.7-172-268.8z"/>
			<path class="st2" d="M-164-270.8h-2c-1.1,0-2,0.9-2,2c0,1.1,0.9,2,2,2h2c1.1,0,2-0.9,2-2C-162-269.9-162.9-270.8-164-270.8z"/>
		</g>
		<path class="st4" d="M-161-301c-0.5,0-1.1,0.1-1.7,0.2c-2.1-7.2-8.6-12.2-16.3-12.2c-7.7,0-14.2,5-16.3,12.2
			c-0.6-0.1-1.2-0.2-1.7-0.2c-6.1,0-11,4.9-11,11s4.9,11,11,11h36c6.1,0,11-4.9,11-11S-154.9-301-161-301z"/>
	</g>
	<path class="st4" d="M-48-302c-0.5,0-1.1,0.1-1.7,0.2C-51.8-309-58.3-314-66-314c-7.7,0-14.2,5-16.3,12.2c-0.6-0.1-1.2-0.2-1.7-0.2
		c-6.1,0-11,4.9-11,11s4.9,11,11,11h36c6.1,0,11-4.9,11-11S-41.9-302-48-302z"/>
	<path class="st4" d="M66-302c-0.5,0-1.1,0.1-1.7,0.2C62.2-309,55.7-314,48-314c-7.7,0-14.2,5-16.3,12.2c-0.6-0.1-1.2-0.2-1.7-0.2
		c-6.1,0-11,4.9-11,11s4.9,11,11,11h36c6.1,0,11-4.9,11-11S72.1-302,66-302z"/>
	<path class="st4" d="M-162-188c-0.5,0-1.1,0.1-1.7,0.2c-2.1-7.2-8.6-12.2-16.3-12.2c-7.7,0-14.2,5-16.3,12.2
		c-0.6-0.1-1.2-0.2-1.7-0.2c-6.1,0-11,4.9-11,11s4.9,11,11,11h36c6.1,0,11-4.9,11-11S-155.9-188-162-188z"/>
	<path class="st4" d="M-48-188c-0.5,0-1.1,0.1-1.7,0.2C-51.8-195-58.3-200-66-200c-7.7,0-14.2,5-16.3,12.2c-0.6-0.1-1.2-0.2-1.7-0.2
		c-6.1,0-11,4.9-11,11s4.9,11,11,11h36c6.1,0,11-4.9,11-11S-41.9-188-48-188z"/>
	<path class="st4" d="M66-188c-0.5,0-1.1,0.1-1.7,0.2C62.2-195,55.7-200,48-200c-7.7,0-14.2,5-16.3,12.2c-0.6-0.1-1.2-0.2-1.7-0.2
		c-6.1,0-11,4.9-11,11s4.9,11,11,11h36c6.1,0,11-4.9,11-11S72.1-188,66-188z"/>
	<path class="st4" d="M-162,40c-0.5,0-1.1,0.1-1.7,0.2C-165.8,33-172.3,28-180,28c-7.7,0-14.2,5-16.3,12.2c-0.6-0.1-1.2-0.2-1.7-0.2
		c-6.1,0-11,4.9-11,11s4.9,11,11,11h36c6.1,0,11-4.9,11-11S-155.9,40-162,40z"/>
	<g>
		<g>
			<path class="st2" d="M-178,180v-12c0-1.1-0.9-2-2-2s-2,0.9-2,2v12c0,1.1,0.9,2,2,2S-178,181.1-178,180z"/>
			<path class="st2" d="M-187,186v-12c0-1.1-0.9-2-2-2c-1.1,0-2,0.9-2,2v12c0,1.1,0.9,2,2,2C-187.9,188-187,187.1-187,186z"/>
			<path class="st2" d="M-169,186v-12c0-1.1-0.9-2-2-2c-1.1,0-2,0.9-2,2v12c0,1.1,0.9,2,2,2C-169.9,188-169,187.1-169,186z"/>
			<path class="st2" d="M-188,192h-2c-1.1,0-2,0.9-2,2v2c0,1.1,0.9,2,2,2h2c1.1,0,2-0.9,2-2v-2C-186,192.9-186.9,192-188,192z"/>
			<path class="st2" d="M-179,186h-2c-1.1,0-2,0.9-2,2v2c0,1.1,0.9,2,2,2h2c1.1,0,2-0.9,2-2v-2C-177,186.9-177.9,186-179,186z"/>
			<path class="st2" d="M-170,192h-2c-1.1,0-2,0.9-2,2v2c0,1.1,0.9,2,2,2h2c1.1,0,2-0.9,2-2v-2C-168,192.9-168.9,192-170,192z"/>
		</g>
		<path class="st4" d="M-162,154c-0.5,0-1.1,0.1-1.7,0.2c-2.1-7.2-8.6-12.2-16.3-12.2c-7.7,0-14.2,5-16.3,12.2
			c-0.6-0.1-1.2-0.2-1.7-0.2c-6.1,0-11,4.9-11,11s4.9,11,11,11h36c6.1,0,11-4.9,11-11S-155.9,154-162,154z"/>
	</g>
	<g>
		<g>
			<path class="st2" d="M159.5,168v18c0,1.1,0.9,2,2,2c1.1,0,2-0.9,2-2v-18c0-1.1-0.9-2-2-2C160.4,166,159.5,166.9,159.5,168z"/>
			<path class="st2" d="M136.5,187h-2c-1.1,0-2,0.9-2,2v2c0,1.1,0.9,2,2,2h2c1.1,0,2-0.9,2-2v-2C138.5,187.9,137.6,187,136.5,187z"
				/>
			<path class="st2" d="M162.5,192h-2c-1.1,0-2,0.9-2,2v2c0,1.1,0.9,2,2,2h2c1.1,0,2-0.9,2-2v-2C164.5,192.9,163.6,192,162.5,192z"
				/>
			<path class="st2" d="M189.5,184h-2c-1.1,0-2,0.9-2,2v2c0,1.1,0.9,2,2,2h2c1.1,0,2-0.9,2-2v-2C191.5,184.9,190.6,184,189.5,184z"
				/>
			<path class="st2" d="M152.5,172c-1.1,0-2,0.9-2,2v15.1c-1.2-0.7-2.5-1.1-4-1.1h-2c-1.1,0-2,0.9-2,2c0,1.1,0.9,2,2,2h2
				c2.2,0,4,1.8,4,4c0,1.1,0.9,2,2,2c1.1,0,2-0.9,2-2v-22C154.5,172.9,153.6,172,152.5,172z"/>
			<path class="st2" d="M179.5,185c-2.7,0-5.1,0.9-7,2.5V174c0-1.1-0.9-2-2-2c-1.1,0-2,0.9-2,2v22c0,0,0,0,0,0c0,1.1,0.9,2,2,2
				c1.1,0,2-0.9,2-2v0c0-3.9,3.1-7,7-7c1.1,0,2-0.9,2-2C181.5,185.9,180.6,185,179.5,185z"/>
		</g>
		<path class="st4" d="M180,154c-0.5,0-1.1,0.1-1.7,0.2c-2.1-7.2-8.6-12.2-16.3-12.2c-7.7,0-14.2,5-16.3,12.2
			c-0.6-0.1-1.2-0.2-1.7-0.2c-6.1,0-11,4.9-11,11s4.9,11,11,11h36c6.1,0,11-4.9,11-11S186.1,154,180,154z"/>
	</g>
	<path class="st4" d="M180,40c-0.5,0-1.1,0.1-1.7,0.2C176.2,33,169.7,28,162,28c-7.7,0-14.2,5-16.3,12.2c-0.6-0.1-1.2-0.2-1.7-0.2
		c-6.1,0-11,4.9-11,11s4.9,11,11,11h36c6.1,0,11-4.9,11-11S186.1,40,180,40z"/>
	<path class="st2" d="M-77.6,63.8c-0.8,1.1-3.4,4.7-3.4,7.2c0,2.9,2.1,5,5,5c2.9,0,5-2.1,5-5c0-2.5-2.6-6.1-3.4-7.2
		C-75.2,62.8-76.8,62.8-77.6,63.8z"/>
	<path class="st2" d="M-59.6,63.8c-0.8,1.1-3.4,4.7-3.4,7.2c0,2.9,2.1,5,5,5c2.9,0,5-2.1,5-5c0-2.5-2.6-6.1-3.4-7.2
		C-57.2,62.8-58.8,62.8-59.6,63.8z"/>
	<path class="st2" d="M-68.6,74.8c-0.8,1.1-3.4,4.7-3.4,7.2c0,2.9,2.1,5,5,5c2.9,0,5-2.1,5-5c0-2.5-2.6-6.1-3.4-7.2
		C-66.2,73.8-67.8,73.8-68.6,74.8z"/>
	<path class="st4" d="M-48,40c-0.5,0-1.1,0.1-1.7,0.2C-51.8,33-58.3,28-66,28c-7.7,0-14.2,5-16.3,12.2c-0.6-0.1-1.2-0.2-1.7-0.2
		c-6.1,0-11,4.9-11,11s4.9,11,11,11h36c6.1,0,11-4.9,11-11S-41.9,40-48,40z"/>
	<path class="st2" d="M-191.6,63.8c-0.8,1.1-3.4,4.7-3.4,7.2c0,2.9,2.1,5,5,5s5-2.1,5-5c0-2.5-2.6-6.1-3.4-7.2
		C-189.2,62.7-190.8,62.7-191.6,63.8z"/>
	<path class="st2" d="M-173.6,63.8c-0.8,1.1-3.4,4.7-3.4,7.2c0,2.9,2.1,5,5,5s5-2.1,5-5c0-2.5-2.6-6.1-3.4-7.2
		C-171.2,62.7-172.8,62.7-173.6,63.8z"/>
	<path class="st2" d="M-182.6,74.8c-0.8,1.1-3.4,4.7-3.4,7.2c0,2.9,2.1,5,5,5s5-2.1,5-5c0-2.5-2.6-6.1-3.4-7.2
		C-180.2,73.7-181.8,73.7-182.6,74.8z"/>
	<g>
		<path class="st2" d="M50.7,63.6c-0.7-0.8-2.1-0.8-2.8,0c-0.6,0.7-5.9,7-5.9,12.1c0,1.9,0.6,3.6,1.8,5c0.9,1.1,2.6,2.3,5.5,2.3
			c4.8,0,7.3-3.7,7.3-7.3C56.5,70.6,51.3,64.3,50.7,63.6z M49.3,80.3C49.3,80.3,49.3,80.3,49.3,80.3l0,0.9L49.3,80.3z"/>
		<path class="st4" d="M66,40c-0.5,0-1.1,0.1-1.7,0.2C62.2,33,55.7,28,48,28c-7.7,0-14.2,5-16.3,12.2C31.1,40.1,30.5,40,30,40
			c-6.1,0-11,4.9-11,11s4.9,11,11,11h36c6.1,0,11-4.9,11-11S72.1,40,66,40z"/>
	</g>
	<path class="st2" d="M165.1,63.6c-0.7-0.8-2.1-0.8-2.8,0c-0.6,0.7-5.9,7-5.9,12.1c0,1.9,0.6,3.6,1.8,5c0.9,1.1,2.6,2.3,5.5,2.3
		c4.8,0,7.3-3.7,7.3-7.3C171,70.7,165.7,64.3,165.1,63.6z M163.7,80.3L163.7,80.3l0,0.9L163.7,80.3z"/>
	<path class="st4" d="M66,154c-0.5,0-1.1,0.1-1.7,0.2C62.2,147,55.7,142,48,142c-7.7,0-14.2,5-16.3,12.2c-0.6-0.1-1.2-0.2-1.7-0.2
		c-6.1,0-11,4.9-11,11s4.9,11,11,11h36c6.1,0,11-4.9,11-11S72.1,154,66,154z"/>
	<path class="st4" d="M-48,154c-0.5,0-1.1,0.1-1.7,0.2C-51.8,147-58.3,142-66,142c-7.7,0-14.2,5-16.3,12.2c-0.6-0.1-1.2-0.2-1.7-0.2
		c-6.1,0-11,4.9-11,11s4.9,11,11,11h36c6.1,0,11-4.9,11-11S-41.9,154-48,154z"/>
	<path class="st4" d="M294,154c-0.5,0-1.1,0.1-1.7,0.2c-2.1-7.2-8.6-12.2-16.3-12.2c-7.7,0-14.2,5-16.3,12.2
		c-0.6-0.1-1.2-0.2-1.7-0.2c-6.1,0-11,4.9-11,11s4.9,11,11,11h36c6.1,0,11-4.9,11-11S300.1,154,294,154z"/>
	<path class="st4" d="M294,40c-0.5,0-1.1,0.1-1.7,0.2C290.2,33,283.7,28,276,28c-7.7,0-14.2,5-16.3,12.2c-0.6-0.1-1.2-0.2-1.7-0.2
		c-6.1,0-11,4.9-11,11s4.9,11,11,11h36c6.1,0,11-4.9,11-11S300.1,40,294,40z"/>
	<path class="st2" d="M279.1,63.6c-0.7-0.8-2.1-0.8-2.8,0c-0.6,0.7-5.9,7-5.9,12.1c0,1.9,0.6,3.6,1.8,5c0.9,1.1,2.6,2.3,5.5,2.3
		c4.8,0,7.3-3.7,7.3-7.3C285,70.7,279.7,64.3,279.1,63.6z M277.7,80.3L277.7,80.3l0,0.9L277.7,80.3z"/>
	<path class="st4" d="M-162,268c-0.5,0-1.1,0.1-1.7,0.2c-2.1-7.2-8.6-12.2-16.3-12.2c-7.7,0-14.2,5-16.3,12.2
		c-0.6-0.1-1.2-0.2-1.7-0.2c-6.1,0-11,4.9-11,11s4.9,11,11,11h36c6.1,0,11-4.9,11-11S-155.9,268-162,268z"/>
	<path class="st4" d="M294.8,267.4c-0.5,0-1.1,0.1-1.7,0.2c-2.1-7.4-8.8-12.5-16.6-12.5c-7.8,0-14.5,5.2-16.6,12.5
		c-0.6-0.1-1.2-0.2-1.7-0.2c-6.2,0-11.2,5.1-11.2,11.3c0,6.2,5,11.3,11.2,11.3h36.6c6.2,0,11.2-5.1,11.2-11.3
		C306,272.4,301,267.4,294.8,267.4z"/>
	<path class="st4" d="M181,267c-0.5,0-1.1,0.1-1.7,0.2c-2.1-7.2-8.6-12.2-16.3-12.2c-7.7,0-14.2,5-16.3,12.2
		c-0.6-0.1-1.2-0.2-1.7-0.2c-6.1,0-11,4.9-11,11s4.9,11,11,11h36c6.1,0,11-4.9,11-11S187.1,267,181,267z"/>
	<g>
		<path class="st5" d="M-195-76h12c1.1,0,2-0.9,2-2s-0.9-2-2-2h-12c-1.1,0-2,0.9-2,2S-196.1-76-195-76z"/>
		<path class="st5" d="M-207-70h24c1.1,0,2-0.9,2-2s-0.9-2-2-2h-24c-1.1,0-2,0.9-2,2S-208.1-70-207-70z"/>
		<path class="st5" d="M-213-64h24c1.1,0,2-0.9,2-2s-0.9-2-2-2h-24c-1.1,0-2,0.9-2,2S-214.1-64-213-64z"/>
		<path class="st5" d="M-154-60c0-1.1-0.9-2-2-2h-60c-1.1,0-2,0.9-2,2s0.9,2,2,2h60C-154.9-58-154-58.9-154-60z"/>
		<path class="st5" d="M-156-56h-57c-1.1,0-2,0.9-2,2s0.9,2,2,2h57c1.1,0,2-0.9,2-2S-154.9-56-156-56z"/>
		<path class="st5" d="M-195-50l-12,0c-1.1,0-2,0.9-2,2s0.9,2,2,2l12,0c1.1,0,2-0.9,2-2S-193.9-50-195-50z"/>
		<path class="st5" d="M-176-70h8c1.1,0,2-0.9,2-2s-0.9-2-2-2h-8c-1.1,0-2,0.9-2,2S-177.1-70-176-70z"/>
		<path class="st5" d="M-185-66c0,1.1,0.9,2,2,2h21c1.1,0,2-0.9,2-2s-0.9-2-2-2h-21C-184.1-68-185-67.1-185-66z"/>
		<path class="st5" d="M-162-50l-27,0c-1.1,0-2,0.9-2,2s0.9,2,2,2l27,0c1.1,0,2-0.9,2-2S-160.9-50-162-50z"/>
	</g>
	<g>
		<path class="st1" d="M-80-972c0,2.4,0.7,4.9,1.9,7c0.4,0.6,1,1,1.7,1h20.8c0.7,0,1.4-0.4,1.7-1c1.2-2.1,1.9-4.6,1.9-7
			c0-7.7-6.3-14-14-14S-80-979.7-80-972z M-75.2-968C-75.2-968-75.2-968-75.2-968C-75.2-968-75.1-968-75.2-968L-75.2-968z
			 M-67.2-981.9c0.4-0.1,0.8-0.1,1.2-0.1c0.1,0,0.1,0,0.2,0C-66.3-982-66.8-982-67.2-981.9z"/>
		<polygon class="st1" points="-65.9,-998.4 -70.8,-989.9 -61,-989.9 		"/>
		<polygon class="st1" points="-83.9,-976.8 -92.4,-971.8 -83.9,-966.9 		"/>
		<polygon class="st1" points="-47.9,-966.9 -39.4,-971.8 -47.9,-976.8 		"/>
		<polygon class="st1" points="-49.2,-988.6 -54.7,-986.9 -50.9,-983.1 		"/>
		<polygon class="st1" points="-81,-983.1 -77.2,-986.9 -82.7,-988.6 		"/>
	</g>
	<g>
		<path class="st1" d="M60.3-972.6C58-977,53.3-980,48-980c-7.7,0-14,6.3-14,14c0,1.1,0.9,2,2,2h24c1.1,0,2-0.9,2-2
			c0-2-0.4-3.9-1.2-5.6C60.7-972,60.5-972.3,60.3-972.6z"/>
		<path class="st1" d="M38.7-961.9L38.7-961.9C38.7-961.9,38.7-961.9,38.7-961.9C38.7-961.9,38.7-961.9,38.7-961.9z"/>
		<polygon class="st1" points="47.9,-992.2 43,-983.7 52.8,-983.7 		"/>
		<polygon class="st1" points="59.1,-980.8 63,-976.9 64.7,-982.5 		"/>
		<polygon class="st1" points="31.1,-982.5 32.8,-976.9 36.7,-980.8 		"/>
	</g>
	<g>
		<path class="st1" d="M162-974c-5,0-9.6,2.7-12.1,7c-0.4,0.6-0.4,1.4,0,2c0.4,0.6,1,1,1.7,1h20.8c0.7,0,1.4-0.4,1.7-1
			c0.4-0.6,0.4-1.4,0-2C171.6-971.3,167-974,162-974z M161.8-970c0.1,0,0.1,0,0.2,0c0,0,0.1,0,0.1,0C162-970,161.9-970,161.8-970z"
			/>
		<path class="st1" d="M152.8-955.8L152.8-955.8C152.8-955.8,152.8-955.8,152.8-955.8C152.8-955.8,152.8-955.8,152.8-955.8z"/>
		<polygon class="st1" points="162,-986.2 157.1,-977.7 166.9,-977.7 		"/>
		<polygon class="st1" points="173.2,-974.7 177,-970.9 178.7,-976.4 		"/>
		<polygon class="st1" points="145.2,-976.4 146.9,-970.9 150.7,-974.7 		"/>
	</g>
	<g>
		<path class="st1" d="M147.9-293.6c0,2.4,0.7,4.9,1.9,7c0.4,0.6,1,1,1.7,1h20.8c0.7,0,1.4-0.4,1.7-1c1.2-2.1,1.9-4.6,1.9-7
			c0-7.7-6.3-14-14-14C154.2-307.6,147.9-301.4,147.9-293.6z M152.8-289.6C152.7-289.7,152.7-289.7,152.8-289.6
			C152.8-289.7,152.8-289.7,152.8-289.6L152.8-289.6z M160.7-303.6c0.4-0.1,0.8-0.1,1.2-0.1c0.1,0,0.1,0,0.2,0
			C161.6-303.6,161.1-303.6,160.7-303.6z"/>
		<polygon class="st1" points="162,-320 157.1,-311.5 166.9,-311.5 		"/>
		<polygon class="st1" points="144,-298.4 135.5,-293.5 144,-288.6 		"/>
		<polygon class="st1" points="180,-288.6 188.5,-293.5 180,-298.4 		"/>
		<polygon class="st1" points="178.7,-310.3 173.2,-308.6 177,-304.7 		"/>
		<polygon class="st1" points="146.9,-304.7 150.7,-308.6 145.2,-310.3 		"/>
	</g>
	<g>
		<path class="st1" d="M262.1-294c0,2.4,0.7,4.9,1.9,7c0.4,0.6,1,1,1.7,1h20.8c0.7,0,1.4-0.4,1.7-1c1.2-2.1,1.9-4.6,1.9-7
			c0-7.7-6.3-14-14-14C268.4-308,262.1-301.7,262.1-294z M266.9-290C266.9-290,266.9-290,266.9-290C266.9-290,267-290,266.9-290
			L266.9-290z M274.8-303.9c0.4-0.1,0.8-0.1,1.2-0.1c0.1,0,0.1,0,0.2,0C275.8-304,275.3-304,274.8-303.9z"/>
		<polygon class="st1" points="276.1,-320.4 271.2,-311.9 281,-311.9 		"/>
		<polygon class="st1" points="258.1,-298.8 249.7,-293.8 258.1,-288.9 		"/>
		<polygon class="st1" points="294.2,-288.9 302.7,-293.8 294.2,-298.8 		"/>
		<polygon class="st1" points="292.9,-310.6 287.3,-308.9 291.2,-305.1 		"/>
		<polygon class="st1" points="261.1,-305.1 264.9,-308.9 259.3,-310.6 		"/>
	</g>
	<g>
		<path class="st4" d="M66,268c-0.5,0-1.1,0.1-1.7,0.2C62.2,261,55.7,256,48,256c-7.7,0-14.2,5-16.3,12.2c-0.6-0.1-1.2-0.2-1.7-0.2
			c-6.1,0-11,4.9-11,11s4.9,11,11,11h36c6.1,0,11-4.9,11-11S72.1,268,66,268z"/>
		<g>
			<path class="st5" d="M61.8,295l-30,0c-1.1,0-2,0.9-2,2s0.9,2,2,2l30,0c3.9,0,7,3.1,7,7s-3.1,7-7,7c-1.1,0-2,0.9-2,2s0.9,2,2,2
				c6.1,0,11-4.9,11-11S67.9,295,61.8,295z"/>
			<path class="st5" d="M55.8,301h-24c-1.1,0-2,0.9-2,2s0.9,2,2,2h24c0.6,0,1,0.4,1,1s-0.4,1-1,1c-1.1,0-2,0.9-2,2s0.9,2,2,2
				c2.8,0,5-2.2,5-5S58.6,301,55.8,301z"/>
			<path class="st5" d="M76.8,287c-1.1,0-2,0.9-2,2s0.9,2,2,2c0.6,0,1,0.4,1,1s-0.4,1-1,1h-4c-1.1,0-2,0.9-2,2s0.9,2,2,2h4
				c2.8,0,5-2.2,5-5S79.6,287,76.8,287z"/>
			<path class="st5" d="M31.8,293l33,0c4.4,0,8-3.6,8-8s-3.6-8-8-8c-4.4,0-8,3.6-8,8c0,1.1,0.9,2,2,2c1.1,0,2-0.9,2-2
				c0-2.2,1.8-4,4-4c2.2,0,4,1.8,4,4s-1.8,4-4,4l-33,0c-1.1,0-2,0.9-2,2S30.7,293,31.8,293z"/>
		</g>
	</g>
	<g>
		<path class="st5" d="M176.5,294l-30,0c-1.1,0-2,0.9-2,2s0.9,2,2,2l30,0c3.9,0,7,3.1,7,7s-3.1,7-7,7c-1.1,0-2,0.9-2,2s0.9,2,2,2
			c6.1,0,11-4.9,11-11S182.6,294,176.5,294z"/>
		<path class="st5" d="M170.5,300h-24c-1.1,0-2,0.9-2,2s0.9,2,2,2h24c0.6,0,1,0.4,1,1s-0.4,1-1,1c-1.1,0-2,0.9-2,2s0.9,2,2,2
			c2.8,0,5-2.2,5-5S173.3,300,170.5,300z"/>
		<path class="st5" d="M191.5,286c-1.1,0-2,0.9-2,2s0.9,2,2,2c0.6,0,1,0.4,1,1s-0.4,1-1,1h-4c-1.1,0-2,0.9-2,2s0.9,2,2,2h4
			c2.8,0,5-2.2,5-5S194.3,286,191.5,286z"/>
		<path class="st5" d="M146.5,292l33,0c4.4,0,8-3.6,8-8s-3.6-8-8-8s-8,3.6-8,8c0,1.1,0.9,2,2,2c1.1,0,2-0.9,2-2c0-2.2,1.8-4,4-4
			s4,1.8,4,4s-1.8,4-4,4l-33,0c-1.1,0-2,0.9-2,2S145.4,292,146.5,292z"/>
	</g>
	<g>
		<path class="st5" d="M291.3,294l-30,0c-1.1,0-2,0.9-2,2s0.9,2,2,2l30,0c3.9,0,7,3.1,7,7s-3.1,7-7,7c-1.1,0-2,0.9-2,2s0.9,2,2,2
			c6.1,0,11-4.9,11-11S297.3,294,291.3,294z"/>
		<path class="st5" d="M285.3,300h-24c-1.1,0-2,0.9-2,2s0.9,2,2,2h24c0.6,0,1,0.4,1,1s-0.4,1-1,1c-1.1,0-2,0.9-2,2s0.9,2,2,2
			c2.8,0,5-2.2,5-5S288,300,285.3,300z"/>
		<path class="st5" d="M306.3,286c-1.1,0-2,0.9-2,2s0.9,2,2,2c0.6,0,1,0.4,1,1s-0.4,1-1,1h-4c-1.1,0-2,0.9-2,2s0.9,2,2,2h4
			c2.8,0,5-2.2,5-5S309,286,306.3,286z"/>
		<path class="st5" d="M261.3,292l33,0c4.4,0,8-3.6,8-8s-3.6-8-8-8s-8,3.6-8,8c0,1.1,0.9,2,2,2s2-0.9,2-2c0-2.2,1.8-4,4-4
			c2.2,0,4,1.8,4,4s-1.8,4-4,4l-33,0c-1.1,0-2,0.9-2,2S260.2,292,261.3,292z"/>
	</g>
</g>
</svg>
