<?xml version="1.0" encoding="utf-8"?>
<!-- Generator: Adobe Illustrator 19.2.0, SVG Export Plug-In . SVG Version: 6.00 Build 0)  -->
<svg version="1.1" xmlns="http://www.w3.org/2000/svg" xmlns:xlink="http://www.w3.org/1999/xlink" x="0px" y="0px"
	 viewBox="0 0 96 96" style="enable-background:new 0 0 96 96;" xml:space="preserve">
<style type="text/css">
	.st0{display:none;}
	.st1{fill:#FFCC00;}
	.st2{fill:#5AC8FA;}
	.st3{fill:#5856D6;}
	.st4{fill:#007AFF;}
	.st5{fill:#FF9500;}
	.st6{fill:#FF3B30;}
</style>
<g id="Base" class="st0">
</g>
<g id="Dibujo">
	<g>
		<polyline class="st1" points="-74.3,173.1 -81.3,186.2 -76.1,186.2 -81.9,197.6 -69.7,183.4 -75.9,183.5 -67,173.1 		"/>
		<polyline class="st1" points="-61.5,168.2 -68.5,181.3 -63.3,181.3 -69.1,192.7 -56.9,178.5 -63.1,178.6 -54.2,168.2 		"/>
	</g>
	<g>
		<path class="st2" d="M-410.5,852v18c0,1.1,0.9,2,2,2c1.1,0,2-0.9,2-2v-18c0-1.1-0.9-2-2-2C-409.6,850-410.5,850.9-410.5,852z"/>
		<path class="st2" d="M-433.5,871h-2c-1.1,0-2,0.9-2,2v2c0,1.1,0.9,2,2,2h2c1.1,0,2-0.9,2-2v-2C-431.5,871.9-432.4,871-433.5,871z"
			/>
		<path class="st2" d="M-407.5,876h-2c-1.1,0-2,0.9-2,2v2c0,1.1,0.9,2,2,2h2c1.1,0,2-0.9,2-2v-2C-405.5,876.9-406.4,876-407.5,876z"
			/>
		<path class="st2" d="M-380.5,868h-2c-1.1,0-2,0.9-2,2v2c0,1.1,0.9,2,2,2h2c1.1,0,2-0.9,2-2v-2C-378.5,868.9-379.4,868-380.5,868z"
			/>
		<path class="st2" d="M-417.5,856c-1.1,0-2,0.9-2,2v15.1c-1.2-0.7-2.5-1.1-4-1.1h-2c-1.1,0-2,0.9-2,2s0.9,2,2,2h2c2.2,0,4,1.8,4,4
			c0,1.1,0.9,2,2,2s2-0.9,2-2v-22C-415.5,856.9-416.4,856-417.5,856z"/>
		<path class="st2" d="M-390.5,869c-2.7,0-5.1,0.9-7,2.5V858c0-1.1-0.9-2-2-2c-1.1,0-2,0.9-2,2v22c0,0,0,0,0,0c0,1.1,0.9,2,2,2
			c1.1,0,2-0.9,2-2v0c0-3.9,3.1-7,7-7c1.1,0,2-0.9,2-2S-389.4,869-390.5,869z"/>
	</g>
	<g>
		<path class="st1" d="M-53.8,820c-7.7,0-14,6.3-14,14s6.3,14,14,14c7.7,0,14-6.3,14-14S-46.1,820-53.8,820z"/>
		<polygon class="st1" points="-53.8,807.5 -48.9,816 -58.7,816 		"/>
		<polygon class="st1" points="-27.2,834 -35.7,838.9 -35.7,829.1 		"/>
		<polygon class="st1" points="-37,817.2 -38.7,822.8 -42.6,818.9 		"/>
		<polygon class="st1" points="-70.6,817.2 -65,818.9 -68.9,822.8 		"/>
	</g>
	<g>
		<path class="st1" d="M59.9,706c-7.7,0-14,6.3-14,14s6.3,14,14,14s14-6.3,14-14S67.6,706,59.9,706z"/>
		<polygon class="st1" points="59.9,693.5 64.8,702 55,702 		"/>
		<polygon class="st1" points="86.4,720 78,724.9 78,715.1 		"/>
		<polygon class="st1" points="76.6,703.2 74.9,708.8 71.1,704.9 		"/>
		<polygon class="st1" points="43.1,703.2 48.6,704.9 44.8,708.8 		"/>
	</g>
	<g>
		<path class="st2" d="M-292,749.9v-12c0-1.1-0.9-2-2-2s-2,0.9-2,2v12c0,1.1,0.9,2,2,2S-292,751-292,749.9z"/>
		<path class="st2" d="M-301,755.9v-12c0-1.1-0.9-2-2-2s-2,0.9-2,2v12c0,1.1,0.9,2,2,2S-301,757-301,755.9z"/>
		<path class="st2" d="M-283,755.9v-12c0-1.1-0.9-2-2-2s-2,0.9-2,2v12c0,1.1,0.9,2,2,2S-283,757-283,755.9z"/>
		<path class="st2" d="M-302,761.9h-2c-1.1,0-2,0.9-2,2v2c0,1.1,0.9,2,2,2h2c1.1,0,2-0.9,2-2v-2C-300,762.8-300.9,761.9-302,761.9z"
			/>
		<path class="st2" d="M-293,755.9h-2c-1.1,0-2,0.9-2,2v2c0,1.1,0.9,2,2,2h2c1.1,0,2-0.9,2-2v-2C-291,756.8-291.9,755.9-293,755.9z"
			/>
		<path class="st2" d="M-284,761.9h-2c-1.1,0-2,0.9-2,2v2c0,1.1,0.9,2,2,2h2c1.1,0,2-0.9,2-2v-2C-282,762.8-282.9,761.9-284,761.9z"
			/>
	</g>
	<g>
		<path class="st1" d="M-281.9,706c-7.7,0-14,6.3-14,14s6.3,14,14,14c7.7,0,14-6.3,14-14S-274.2,706-281.9,706z"/>
		<polygon class="st1" points="-281.9,693.5 -277,702 -286.8,702 		"/>
		<polygon class="st1" points="-255.3,720 -263.8,724.9 -263.8,715.1 		"/>
		<polygon class="st1" points="-265.1,703.2 -266.8,708.8 -270.7,704.9 		"/>
		<polygon class="st1" points="-298.7,703.2 -293.1,704.9 -297,708.8 		"/>
	</g>
	<g>
		<path class="st1" d="M-396.2,592.1c-7.7,0-14,6.3-14,14s6.3,14,14,14s14-6.3,14-14S-388.5,592.1-396.2,592.1z"/>
		<polygon class="st1" points="-396.2,579.6 -391.3,588 -401.1,588 		"/>
		<polygon class="st1" points="-369.6,606.1 -378.1,611 -378.1,601.2 		"/>
		<polygon class="st1" points="-379.4,589.3 -381.2,594.8 -385,591 		"/>
		<polygon class="st1" points="-413,589.3 -407.4,591 -411.3,594.8 		"/>
	</g>
	<g>
		<path class="st1" d="M-54,592c-7.7,0-14,6.3-14,14s6.3,14,14,14c7.7,0,14-6.3,14-14S-46.3,592-54,592z"/>
		<polygon class="st1" points="-54,579.5 -49.1,588 -58.9,588 		"/>
		<polygon class="st1" points="-27.4,606 -35.9,610.9 -35.9,601.1 		"/>
		<polygon class="st1" points="-37.2,589.2 -39,594.8 -42.8,590.9 		"/>
		<polygon class="st1" points="-70.8,589.2 -65.2,590.9 -69.1,594.8 		"/>
	</g>
	<g>
		<path class="st1" d="M-167.8,478c-7.7,0-14,6.3-14,14s6.3,14,14,14s14-6.3,14-14S-160,478-167.8,478z"/>
		<polygon class="st1" points="-167.7,465.5 -162.8,474 -172.6,474 		"/>
		<polygon class="st1" points="-141.2,492 -149.7,496.9 -149.7,487.1 		"/>
		<polygon class="st1" points="-151,475.2 -152.7,480.8 -156.5,476.9 		"/>
		<polygon class="st1" points="-184.5,475.2 -179,476.9 -182.8,480.8 		"/>
	</g>
	<g>
		<path class="st1" d="M57.1,370c-7.7,0-14,6.3-14,14s6.3,14,14,14c7.7,0,14-6.3,14-14S64.8,370,57.1,370z"/>
		<polygon class="st1" points="57.1,357.5 62,366 52.2,366 		"/>
		<polygon class="st1" points="83.7,384 75.2,388.9 75.2,379.1 		"/>
		<polygon class="st1" points="73.9,367.2 72.2,372.8 68.3,368.9 		"/>
		<polygon class="st1" points="40.3,367.2 45.9,368.9 42,372.8 		"/>
	</g>
	<g>
		<path class="st1" d="M-282,364c-7.7,0-14,6.3-14,14s6.3,14,14,14s14-6.3,14-14S-274.3,364-282,364z"/>
		<polygon class="st1" points="-282,351.5 -277,360 -286.9,360 		"/>
		<polygon class="st1" points="-255.4,378 -263.9,382.9 -263.9,373.1 		"/>
		<polygon class="st1" points="-265.2,361.2 -266.9,366.8 -270.8,362.9 		"/>
		<polygon class="st1" points="-298.8,361.2 -293.2,362.9 -297,366.8 		"/>
	</g>
	<g>
		<path class="st1" d="M-281.9,250c-7.7,0-14,6.3-14,14s6.3,14,14,14s14-6.3,14-14S-274.2,250-281.9,250z"/>
		<polygon class="st1" points="-281.9,237.5 -277,246 -286.8,246 		"/>
		<polygon class="st1" points="-255.3,264 -263.8,268.9 -263.8,259.1 		"/>
		<polygon class="st1" points="-265.1,247.2 -266.8,252.8 -270.7,248.9 		"/>
		<polygon class="st1" points="-298.7,247.2 -293.1,248.9 -297,252.8 		"/>
	</g>
	<g>
		<path class="st1" d="M-395.8,136c-7.7,0-14,6.3-14,14s6.3,14,14,14s14-6.3,14-14S-388.1,136-395.8,136z"/>
		<polygon class="st1" points="-395.8,123.5 -390.9,132 -400.7,132 		"/>
		<polygon class="st1" points="-369.2,150 -377.7,154.9 -377.7,145.1 		"/>
		<polygon class="st1" points="-379,133.2 -380.8,138.8 -384.6,134.9 		"/>
		<polygon class="st1" points="-412.6,133.2 -407,134.9 -410.9,138.8 		"/>
	</g>
	<g>
		<path class="st1" d="M-54.1,136c-7.7,0-14,6.3-14,14s6.3,14,14,14s14-6.3,14-14S-46.4,136-54.1,136z"/>
		<polygon class="st1" points="-54.1,123.5 -49.1,132 -59,132 		"/>
		<polygon class="st1" points="-27.5,150 -36,154.9 -36,145.1 		"/>
		<polygon class="st1" points="-37.3,133.2 -39,138.8 -42.9,134.9 		"/>
		<polygon class="st1" points="-70.9,133.2 -65.3,134.9 -69.1,138.8 		"/>
	</g>
	<g>
		<path class="st1" d="M-168,22c-7.7,0-14,6.3-14,14s6.3,14,14,14s14-6.3,14-14S-160.3,22-168,22z"/>
		<polygon class="st1" points="-167.9,9.5 -163,18 -172.8,18 		"/>
		<polygon class="st1" points="-141.4,36 -149.9,40.9 -149.9,31.1 		"/>
		<polygon class="st1" points="-151.2,19.2 -152.9,24.8 -156.7,20.9 		"/>
		<polygon class="st1" points="-184.7,19.2 -179.2,20.9 -183,24.8 		"/>
	</g>
	<g>
		<path class="st1" d="M59.9-92c-7.7,0-14,6.3-14,14s6.3,14,14,14s14-6.3,14-14S67.7-92,59.9-92z"/>
		<polygon class="st1" points="60,-104.5 64.9,-96 55.1,-96 		"/>
		<polygon class="st1" points="86.5,-78 78,-73.1 78,-82.9 		"/>
		<polygon class="st1" points="76.7,-94.7 75,-89.2 71.2,-93 		"/>
		<polygon class="st1" points="43.2,-94.7 48.7,-93 44.9,-89.2 		"/>
	</g>
	<g>
		<path class="st1" d="M-282.2-92c-7.7,0-14,6.3-14,14s6.3,14,14,14s14-6.3,14-14S-274.4-92-282.2-92z"/>
		<polygon class="st1" points="-282.1,-104.5 -277.2,-96 -287,-96 		"/>
		<polygon class="st1" points="-255.6,-78 -264.1,-73.1 -264.1,-82.9 		"/>
		<polygon class="st1" points="-265.4,-94.7 -267.1,-89.2 -270.9,-93 		"/>
		<polygon class="st1" points="-298.9,-94.7 -293.4,-93 -297.2,-89.2 		"/>
	</g>
	<path class="st3" d="M-393.5,817.4c0-1.2,0.2-2.3,0.6-3.4c-1-0.2-2-0.3-3-0.3c-7.7,0-14,6.3-14,14c0,7.7,6.3,14,14,14
		c7.7,0,13.9-6.2,14-13.8c-0.3,0-0.7,0.1-1,0.1C-388.8,827.9-393.5,823.2-393.5,817.4z"/>
	<path class="st3" d="M62.5,817.7c0-1.2,0.2-2.3,0.6-3.4c-1-0.2-2-0.3-3-0.3c-7.7,0-14,6.3-14,14s6.3,14,14,14
		c7.7,0,13.9-6.2,14-13.8c-0.3,0-0.7,0.1-1,0.1C67.2,828.3,62.5,823.5,62.5,817.7z"/>
	<path class="st3" d="M-165.5,703.4c0-1.2,0.2-2.3,0.6-3.4c-1-0.2-2-0.3-3-0.3c-7.7,0-14,6.3-14,14c0,7.7,6.3,14,14,14
		c7.7,0,13.9-6.2,14-13.8c-0.3,0-0.7,0.1-1,0.1C-160.8,713.9-165.5,709.2-165.5,703.4z"/>
	<path class="st3" d="M62.6,589.7c0-1.2,0.2-2.3,0.6-3.4c-1-0.2-2-0.3-3-0.3c-7.7,0-14,6.3-14,14s6.3,14,14,14
		c7.7,0,13.9-6.2,14-13.8c-0.3,0-0.7,0.1-1,0.1C67.3,600.3,62.6,595.5,62.6,589.7z"/>
	<path class="st3" d="M-279.5,589.7c0-1.2,0.2-2.3,0.6-3.4c-1-0.2-2-0.3-3-0.3c-7.7,0-14,6.3-14,14s6.3,14,14,14
		c7.7,0,13.9-6.2,14-13.8c-0.3,0-0.7,0.1-1,0.1C-274.8,600.3-279.5,595.5-279.5,589.7z"/>
	<path class="st3" d="M-396.5,481.7c0-1.2,0.2-2.3,0.6-3.4c-1-0.2-2-0.3-3-0.3c-7.7,0-14,6.3-14,14s6.3,14,14,14
		c7.7,0,13.9-6.2,14-13.8c-0.3,0-0.7,0.1-1,0.1C-391.8,492.3-396.5,487.5-396.5,481.7z"/>
	<path class="st3" d="M-165.5,361.7c0-1.2,0.2-2.3,0.6-3.4c-1-0.2-2-0.3-3-0.3c-7.7,0-14,6.3-14,14s6.3,14,14,14
		c7.7,0,13.9-6.2,14-13.8c-0.3,0-0.7,0.1-1,0.1C-160.8,372.3-165.5,367.5-165.5,361.7z"/>
	<path class="st3" d="M-51.5,475.7c0-1.2,0.2-2.3,0.6-3.4c-1-0.2-2-0.3-3-0.3c-7.7,0-14,6.3-14,14s6.3,14,14,14
		c7.7,0,13.9-6.2,14-13.8c-0.3,0-0.7,0.1-1,0.1C-46.8,486.3-51.5,481.5-51.5,475.7z"/>
	<path class="st3" d="M-165.5,247.7c0-1.2,0.2-2.3,0.6-3.4c-1-0.2-2-0.3-3-0.3c-7.7,0-14,6.3-14,14s6.3,14,14,14
		c7.7,0,13.9-6.2,14-13.8c-0.3,0-0.7,0.1-1,0.1C-160.8,258.3-165.5,253.5-165.5,247.7z"/>
	<path class="st3" d="M-279.5,133.7c0-1.2,0.2-2.3,0.6-3.4c-1-0.2-2-0.3-3-0.3c-7.7,0-14,6.3-14,14s6.3,14,14,14
		c7.7,0,13.9-6.2,14-13.8c-0.3,0-0.7,0.1-1,0.1C-274.8,144.3-279.5,139.5-279.5,133.7z"/>
	<path class="st3" d="M62.6,133.7c0-1.2,0.2-2.3,0.6-3.4c-1-0.2-2-0.3-3-0.3c-7.7,0-14,6.3-14,14s6.3,14,14,14
		c7.7,0,13.9-6.2,14-13.8c-0.3,0-0.7,0.1-1,0.1C67.3,144.3,62.6,139.5,62.6,133.7z"/>
	<path class="st3" d="M-393.5,19.7c0-1.2,0.2-2.3,0.6-3.4c-1-0.2-2-0.3-3-0.3c-7.7,0-14,6.3-14,14s6.3,14,14,14
		c7.7,0,13.9-6.2,14-13.8c-0.3,0-0.7,0.1-1,0.1C-388.8,30.3-393.5,25.5-393.5,19.7z"/>
	<path class="st3" d="M-165.6-94.3c0-1.2,0.2-2.3,0.6-3.4c-1-0.2-2-0.3-3-0.3c-7.7,0-14,6.3-14,14s6.3,14,14,14
		c7.7,0,13.9-6.2,14-13.8c-0.3,0-0.7,0.1-1,0.1C-160.9-83.7-165.6-88.5-165.6-94.3z"/>
	<path class="st3" d="M-51.5,19.7c0-1.2,0.2-2.3,0.6-3.4c-1-0.2-2-0.3-3-0.3c-7.7,0-14,6.3-14,14s6.3,14,14,14
		c7.7,0,13.9-6.2,14-13.8c-0.3,0-0.7,0.1-1,0.1C-46.8,30.3-51.5,25.5-51.5,19.7z"/>
	<path class="st3" d="M50.4-418.2c0-1.2,0.2-2.3,0.6-3.4c-1-0.2-2-0.3-3-0.3c-7.7,0-14,6.3-14,14c0,7.7,6.3,14,14,14
		c7.7,0,13.9-6.2,14-13.8c-0.3,0-0.7,0.1-1,0.1C55.1-407.7,50.4-412.4,50.4-418.2z"/>
	<g>
		<path class="st2" d="M-180,64c-1.1,0-2,0.9-2,2v18c0,1.1,0.9,2,2,2c1.1,0,2-0.9,2-2V66C-178,64.9-178.9,64-180,64z"/>
		<path class="st2" d="M-152.3,45.8c-0.3-0.6-0.7-1.2-1.2-1.8c-1.3-1.6-3.2-2.9-5.2-3.5c-1-0.3-2.1-0.5-3.3-0.5
			c-0.5,0-1.1,0.1-1.7,0.2C-165.8,33-172.3,28-180,28c-7.7,0-14.2,5-16.3,12.2c-0.6-0.1-1.2-0.2-1.7-0.2c-1.1,0-2.2,0.2-3.3,0.5
			c-2.1,0.6-3.9,1.9-5.2,3.5c-0.4,0.5-0.8,1.1-1.2,1.8c-0.8,1.6-1.3,3.3-1.3,5.2s0.5,3.7,1.3,5.2c0.3,0.6,0.7,1.2,1.2,1.8
			c1.3,1.6,3.2,2.9,5.2,3.5c1,0.3,2.1,0.5,3.3,0.5h7v16c0,1.1,0.9,2,2,2c1.1,0,2-0.9,2-2V62h14v16c0,1.1,0.9,2,2,2c1.1,0,2-0.9,2-2
			V62h7c1.1,0,2.2-0.2,3.3-0.5c2.1-0.6,3.9-1.9,5.2-3.5c0.4-0.5,0.8-1.1,1.2-1.8c0.8-1.6,1.3-3.3,1.3-5.2S-151.5,47.3-152.3,45.8z"
			/>
	</g>
	<path class="st4" d="M-390-74c-0.5,0-1.1,0.1-1.7,0.2C-393.8-81-400.3-86-408-86c-7.7,0-14.2,5-16.3,12.2c-0.6-0.1-1.2-0.2-1.7-0.2
		c-6.1,0-11,4.9-11,11s4.9,11,11,11h36c6.1,0,11-4.9,11-11S-383.9-74-390-74z"/>
	<path class="st3" d="M-408-308c-7.7,0-14,6.3-14,14s6.3,14,14,14s14-6.3,14-14S-400.3-308-408-308z"/>
	<path class="st3" d="M-294-308c-7.7,0-14,6.3-14,14s6.3,14,14,14s14-6.3,14-14S-286.3-308-294-308z M-293.3-284
		c3.2-2.1,5.3-5.8,5.3-10s-2.1-7.8-5.3-10c5.2,0.3,9.3,4.7,9.3,10S-288.1-284.4-293.3-284z"/>
	<path class="st3" d="M-180-194c-7.7,0-14,6.3-14,14s6.3,14,14,14c7.7,0,14-6.3,14-14S-172.3-194-180-194z M-190-180
		c0-5.3,4.1-9.6,9.3-10c-3.2,2.1-5.3,5.8-5.3,10s2.1,7.8,5.3,10C-185.9-170.4-190-174.7-190-180z"/>
	<path class="st3" d="M-180-308c-7.7,0-14,6.3-14,14s6.3,14,14,14c7.7,0,14-6.3,14-14S-172.3-308-180-308z M-180-284v-20
		c5.5,0,10,4.5,10,10S-174.5-284-180-284z"/>
	<path class="st3" d="M-294-194c-7.7,0-14,6.3-14,14s6.3,14,14,14s14-6.3,14-14S-286.3-194-294-194z M-304-180c0-5.5,4.5-10,10-10
		v20C-299.5-170-304-174.5-304-180z"/>
	<path class="st3" d="M-66-308c-7.7,0-14,6.3-14,14s6.3,14,14,14c7.7,0,14-6.3,14-14S-58.3-308-66-308z M-66-284c-0.2,0-0.4,0-0.7,0
		c-3.2-2.1-5.3-5.8-5.3-10s2.1-7.8,5.3-10c0.2,0,0.4,0,0.7,0c5.5,0,10,4.5,10,10S-60.5-284-66-284z"/>
	<path class="st3" d="M-408-194c-7.7,0-14,6.3-14,14s6.3,14,14,14s14-6.3,14-14S-400.3-194-408-194z M-418-180c0-5.5,4.5-10,10-10
		c0.2,0,0.4,0,0.7,0c3.2,2.1,5.3,5.8,5.3,10s-2.1,7.8-5.3,10c-0.2,0-0.4,0-0.7,0C-413.5-170-418-174.5-418-180z"/>
	<path class="st3" d="M48-308c-7.7,0-14,6.3-14,14s6.3,14,14,14c7.7,0,14-6.3,14-14S55.7-308,48-308z M48-284c-5.5,0-10-4.5-10-10
		s4.5-10,10-10c5.5,0,10,4.5,10,10S53.5-284,48-284z"/>
	<path class="st4" d="M-64-205.9v-2.1c0-1.1-0.9-2-2-2c-1.1,0-2,0.9-2,2v2.1c-13.4,1-24,12.3-24,25.9c0,1.1,0.9,2,2,2
		c1.1,0,2-0.9,2-2c0-2.2,1.8-4,4-4c2.2,0,4,1.8,4,4c0,1.1,0.9,2,2,2c1.1,0,2-0.9,2-2c0-2.2,1.8-4,4-4c2.2,0,4,1.8,4,4v21
		c0,2.8,2.2,5,5,5c2.8,0,5-2.2,5-5c0-1.1-0.9-2-2-2c-1.1,0-2,0.9-2,2c0,0.6-0.4,1-1,1c-0.6,0-1-0.4-1-1v-21c0-2.2,1.8-4,4-4
		c2.2,0,4,1.8,4,4c0,1.1,0.9,2,2,2c1.1,0,2-0.9,2-2c0-2.2,1.8-4,4-4c2.2,0,4,1.8,4,4c0,1.1,0.9,2,2,2c1.1,0,2-0.9,2-2
		C-40-193.7-50.6-204.9-64-205.9z"/>
	<g>
		<path class="st5" d="M-75,380h12c1.1,0,2-0.9,2-2s-0.9-2-2-2h-12c-1.1,0-2,0.9-2,2S-76.1,380-75,380z"/>
		<path class="st5" d="M-87,386h24c1.1,0,2-0.9,2-2s-0.9-2-2-2h-24c-1.1,0-2,0.9-2,2S-88.1,386-87,386z"/>
		<path class="st5" d="M-93,392h24c1.1,0,2-0.9,2-2s-0.9-2-2-2h-24c-1.1,0-2,0.9-2,2S-94.1,392-93,392z"/>
		<path class="st5" d="M-34,396c0-1.1-0.9-2-2-2h-60c-1.1,0-2,0.9-2,2s0.9,2,2,2h60C-34.9,398-34,397.1-34,396z"/>
		<path class="st5" d="M-36,400h-57c-1.1,0-2,0.9-2,2s0.9,2,2,2h57c1.1,0,2-0.9,2-2S-34.9,400-36,400z"/>
		<path class="st5" d="M-75,406l-12,0c-1.1,0-2,0.9-2,2s0.9,2,2,2l12,0c1.1,0,2-0.9,2-2S-73.9,406-75,406z"/>
		<path class="st5" d="M-56,386h8c1.1,0,2-0.9,2-2s-0.9-2-2-2h-8c-1.1,0-2,0.9-2,2S-57.1,386-56,386z"/>
		<path class="st5" d="M-65,390c0,1.1,0.9,2,2,2h21c1.1,0,2-0.9,2-2s-0.9-2-2-2h-21C-64.1,388-65,388.9-65,390z"/>
		<path class="st5" d="M-42,406l-27,0c-1.1,0-2,0.9-2,2s0.9,2,2,2l27,0c1.1,0,2-0.9,2-2S-40.9,406-42,406z"/>
	</g>
	<g>
		<path class="st2" d="M-321,509c1.1,0,2-0.9,2-2c0-3.9,3.1-7,7-7c0.3,0,0.7,0.1,1.2,0.2v1.8c0,1.1,0.9,2,2,2c1.1,0,2-0.9,2-2v-3.2
			c1.1-6.3,6.4-10.8,12.8-10.8s11.7,4.5,12.8,10.8v3.2c0,1.1,0.9,2,2,2c1.1,0,2-0.9,2-2v-1.8c0.5-0.1,0.9-0.2,1.2-0.2
			c3.9,0,7,3.1,7,7c0,1.1,0.9,2,2,2s2-0.9,2-2c0-6.1-4.9-11-11-11c-0.5,0-1.1,0.1-1.7,0.2c-2.1-7.2-8.6-12.2-16.3-12.2
			s-14.2,5-16.3,12.2c-0.6-0.1-1.2-0.2-1.7-0.2c-6.1,0-11,4.9-11,11C-323,508.1-322.1,509-321,509z"/>
		<path class="st2" d="M-302,515c0,1.1,0.9,2,2,2h36c1.1,0,2-0.9,2-2s-0.9-2-2-2h-36C-301.1,513-302,513.9-302,515z"/>
		<path class="st2" d="M-294,520c-1.1,0-2,0.9-2,2s0.9,2,2,2h27c1.1,0,2-0.9,2-2s-0.9-2-2-2H-294z"/>
		<path class="st2" d="M-264,527h-24c-1.1,0-2,0.9-2,2s0.9,2,2,2h24c1.1,0,2-0.9,2-2S-262.9,527-264,527z"/>
		<path class="st2" d="M-324,517h18c1.1,0,2-0.9,2-2s-0.9-2-2-2h-18c-1.1,0-2,0.9-2,2S-325.1,517-324,517z"/>
		<path class="st2" d="M-321,520c-1.1,0-2,0.9-2,2s0.9,2,2,2h21c1.1,0,2-0.9,2-2s-0.9-2-2-2H-321z"/>
		<path class="st2" d="M-294,527h-30c-1.1,0-2,0.9-2,2s0.9,2,2,2h30c1.1,0,2-0.9,2-2S-292.9,527-294,527z"/>
	</g>
	<g>
		<path class="st2" d="M66,490c-0.5,0-1.1,0.1-1.7,0.2C62.2,483,55.7,478,48,478c-7.7,0-14.2,5-16.3,12.2c-0.6-0.1-1.2-0.2-1.7-0.2
			c-6.1,0-11,4.9-11,11s4.9,11,11,11c1.1,0,2-0.9,2-2s-0.9-2-2-2c-3.9,0-7-3.1-7-7s3.1-7,7-7c0.3,0,0.7,0.1,1.2,0.2v1.8
			c0,1.1,0.9,2,2,2s2-0.9,2-2v-3.2c1.1-6.3,6.4-10.8,12.8-10.8c6.4,0,11.7,4.5,12.8,10.8v3.2c0,1.1,0.9,2,2,2s2-0.9,2-2v-1.8
			c0.5-0.1,0.9-0.2,1.2-0.2c3.9,0,7,3.1,7,7s-3.1,7-7,7c-1.1,0-2,0.9-2,2s0.9,2,2,2c6.1,0,11-4.9,11-11S72.1,490,66,490z"/>
		<path class="st2" d="M39.6,508.8c-0.8-1-2.4-1-3.2,0c-0.8,1.1-3.4,4.7-3.4,7.2c0,2.9,2.1,5,5,5c2.9,0,5-2.1,5-5
			C43,513.5,40.4,509.9,39.6,508.8z"/>
		<path class="st2" d="M56.4,508.8c-0.8,1.1-3.4,4.7-3.4,7.2c0,2.9,2.1,5,5,5c2.9,0,5-2.1,5-5c0-2.5-2.6-6.1-3.4-7.2
			C58.8,507.8,57.2,507.8,56.4,508.8z"/>
		<path class="st2" d="M46.4,520.8c-0.8,1.1-3.4,4.7-3.4,7.2c0,2.9,2.1,5,5,5c2.9,0,5-2.1,5-5c0-2.5-2.6-6.1-3.4-7.2
			C48.8,519.8,47.2,519.8,46.4,520.8z"/>
	</g>
	<g>
		<path d="M-58.4,1084.6l-5.6,5.6V1077c0-1.1-0.9-2-2-2c-1.1,0-2,0.9-2,2v13.2l-5.6-5.6c-0.8-0.8-2-0.8-2.8,0c-0.8,0.8-0.8,2,0,2.8
			l9,9c0.1,0.1,0.2,0.2,0.3,0.3c0,0,0.1,0.1,0.1,0.1c0.1,0,0.1,0.1,0.2,0.1c0.1,0,0.1,0,0.2,0.1c0.1,0,0.1,0,0.2,0.1
			c0.1,0,0.3,0,0.4,0c0.1,0,0.3,0,0.4,0c0.1,0,0.1,0,0.2-0.1c0.1,0,0.1,0,0.2-0.1c0.1,0,0.1-0.1,0.2-0.1c0,0,0.1,0,0.1-0.1
			c0.1-0.1,0.2-0.2,0.3-0.3l9-9c0.8-0.8,0.8-2,0-2.8C-56.4,1083.8-57.6,1083.8-58.4,1084.6z"/>
		<path d="M-48,1066c-0.5,0-1.1,0.1-1.7,0.2c-2.1-7.2-8.6-12.2-16.3-12.2c-7.7,0-14.2,5-16.3,12.2c-0.6-0.1-1.2-0.2-1.7-0.2
			c-6.1,0-11,4.9-11,11s4.9,11,11,11l2,0c1.1,0,2-0.9,2-2s-0.9-2-2-2h0l-2,0c-3.9,0-7-3.1-7-7s3.1-7,7-7c0.3,0,0.7,0.1,1.2,0.2v1.8
			c0,1.1,0.9,2,2,2s2-0.9,2-2v-3.2c1.1-6.3,6.4-10.8,12.8-10.8c6.4,0,11.7,4.5,12.8,10.8v3.2c0,1.1,0.9,2,2,2s2-0.9,2-2v-1.8
			c0.5-0.1,0.9-0.2,1.2-0.2c3.9,0,7,3.1,7,7s-3.1,7-7,7l-2,0h0c-1.1,0-2,0.9-2,2s0.9,2,2,2l2,0c6.1,0,11-4.9,11-11
			S-41.9,1066-48,1066z"/>
	</g>
	<g>
		<path d="M49.4,1075.6c-0.1-0.1-0.2-0.2-0.3-0.3c0,0-0.1-0.1-0.1-0.1c-0.1,0-0.1-0.1-0.2-0.1c-0.1,0-0.1,0-0.2-0.1
			c-0.1,0-0.1,0-0.2-0.1c-0.3-0.1-0.5-0.1-0.8,0c-0.1,0-0.1,0-0.2,0.1c-0.1,0-0.1,0-0.2,0.1c-0.1,0-0.1,0.1-0.2,0.1
			c0,0-0.1,0-0.1,0.1c-0.1,0.1-0.2,0.2-0.3,0.3l-9,9c-0.8,0.8-0.8,2,0,2.8c0.8,0.8,2,0.8,2.8,0l5.6-5.6v13.2c0,1.1,0.9,2,2,2
			c1.1,0,2-0.9,2-2v-13.2l5.6,5.6c0.4,0.4,0.9,0.6,1.4,0.6c0.5,0,1-0.2,1.4-0.6c0.8-0.8,0.8-2,0-2.8L49.4,1075.6z"/>
		<path d="M66,1066c-0.5,0-1.1,0.1-1.7,0.2c-2.1-7.2-8.6-12.2-16.3-12.2c-7.7,0-14.2,5-16.3,12.2c-0.6-0.1-1.2-0.2-1.7-0.2
			c-6.1,0-11,4.9-11,11s4.9,11,11,11l2,0c1.1,0,2-0.9,2-2s-0.9-2-2-2h0l-2,0c-3.9,0-7-3.1-7-7s3.1-7,7-7c0.3,0,0.7,0.1,1.2,0.2v1.8
			c0,1.1,0.9,2,2,2s2-0.9,2-2v-3.2c1.1-6.3,6.4-10.8,12.8-10.8c6.4,0,11.7,4.5,12.8,10.8v3.2c0,1.1,0.9,2,2,2s2-0.9,2-2v-1.8
			c0.5-0.1,0.9-0.2,1.2-0.2c3.9,0,7,3.1,7,7s-3.1,7-7,7l-2,0h0c-1.1,0-2,0.9-2,2s0.9,2,2,2l2,0c6.1,0,11-4.9,11-11
			S72.1,1066,66,1066z"/>
	</g>
	<g>
		<path class="st2" d="M-68.5,738v18c0,1.1,0.9,2,2,2c1.1,0,2-0.9,2-2v-18c0-1.1-0.9-2-2-2C-67.6,736-68.5,736.9-68.5,738z"/>
		<path class="st2" d="M-91.5,757h-2c-1.1,0-2,0.9-2,2v2c0,1.1,0.9,2,2,2h2c1.1,0,2-0.9,2-2v-2C-89.5,757.9-90.4,757-91.5,757z"/>
		<path class="st2" d="M-65.5,762h-2c-1.1,0-2,0.9-2,2v2c0,1.1,0.9,2,2,2h2c1.1,0,2-0.9,2-2v-2C-63.5,762.9-64.4,762-65.5,762z"/>
		<path class="st2" d="M-38.5,754h-2c-1.1,0-2,0.9-2,2v2c0,1.1,0.9,2,2,2h2c1.1,0,2-0.9,2-2v-2C-36.5,754.9-37.4,754-38.5,754z"/>
		<path class="st2" d="M-75.5,742c-1.1,0-2,0.9-2,2v15.1c-1.2-0.7-2.5-1.1-4-1.1h-2c-1.1,0-2,0.9-2,2s0.9,2,2,2h2c2.2,0,4,1.8,4,4
			c0,1.1,0.9,2,2,2c1.1,0,2-0.9,2-2v-22C-73.5,742.9-74.4,742-75.5,742z"/>
		<path class="st2" d="M-48.5,755c-2.7,0-5.1,0.9-7,2.5V744c0-1.1-0.9-2-2-2c-1.1,0-2,0.9-2,2v22c0,0,0,0,0,0c0,1.1,0.9,2,2,2
			c1.1,0,2-0.9,2-2v0c0-3.9,3.1-7,7-7c1.1,0,2-0.9,2-2S-47.4,755-48.5,755z"/>
	</g>
	<g>
		<path class="st2" d="M46,738v18c0,1.1,0.9,2,2,2c1.1,0,2-0.9,2-2v-18c0-1.1-0.9-2-2-2C46.9,736,46,736.9,46,738z"/>
		<path class="st2" d="M23,757h-2c-1.1,0-2,0.9-2,2v2c0,1.1,0.9,2,2,2h2c1.1,0,2-0.9,2-2v-2C25,757.9,24.1,757,23,757z"/>
		<path class="st2" d="M49,762h-2c-1.1,0-2,0.9-2,2v2c0,1.1,0.9,2,2,2h2c1.1,0,2-0.9,2-2v-2C51,762.9,50.1,762,49,762z"/>
		<path class="st2" d="M76,754h-2c-1.1,0-2,0.9-2,2v2c0,1.1,0.9,2,2,2h2c1.1,0,2-0.9,2-2v-2C78,754.9,77.1,754,76,754z"/>
		<path class="st2" d="M39,742c-1.1,0-2,0.9-2,2v15.1c-1.2-0.7-2.5-1.1-4-1.1h-2c-1.1,0-2,0.9-2,2s0.9,2,2,2h2c2.2,0,4,1.8,4,4
			c0,1.1,0.9,2,2,2c1.1,0,2-0.9,2-2v-22C41,742.9,40.1,742,39,742z"/>
		<path class="st2" d="M66,755c-2.7,0-5.1,0.9-7,2.5V744c0-1.1-0.9-2-2-2c-1.1,0-2,0.9-2,2v22c0,0,0,0,0,0c0,1.1,0.9,2,2,2
			c1.1,0,2-0.9,2-2v0c0-3.9,3.1-7,7-7c1.1,0,2-0.9,2-2S67.1,755,66,755z"/>
	</g>
	<g>
		<path class="st5" d="M-288,844l-30,0c-1.1,0-2,0.9-2,2c0,1.1,0.9,2,2,2l30,0c3.9,0,7,3.1,7,7s-3.1,7-7,7c-1.1,0-2,0.9-2,2
			s0.9,2,2,2c6.1,0,11-4.9,11-11S-281.9,844-288,844z"/>
		<path class="st5" d="M-294,850h-24c-1.1,0-2,0.9-2,2s0.9,2,2,2h24c0.6,0,1,0.4,1,1s-0.4,1-1,1c-1.1,0-2,0.9-2,2s0.9,2,2,2
			c2.8,0,5-2.2,5-5S-291.2,850-294,850z"/>
		<path class="st5" d="M-273,836c-1.1,0-2,0.9-2,2s0.9,2,2,2c0.6,0,1,0.4,1,1s-0.4,1-1,1h-4c-1.1,0-2,0.9-2,2s0.9,2,2,2h4
			c2.8,0,5-2.2,5-5S-270.2,836-273,836z"/>
		<path class="st5" d="M-318,842l33,0c4.4,0,8-3.6,8-8s-3.6-8-8-8s-8,3.6-8,8c0,1.1,0.9,2,2,2s2-0.9,2-2c0-2.2,1.8-4,4-4
			c2.2,0,4,1.8,4,4s-1.8,4-4,4l-33,0c-1.1,0-2,0.9-2,2C-320,841.1-319.1,842-318,842z"/>
	</g>
	<g>
		<path class="st5" d="M-432,938h42c1.1,0,2-0.9,2-2c0-1.1-0.9-2-2-2h-42c-1.1,0-2,0.9-2,2C-434,937.1-433.1,938-432,938z"/>
		<path class="st5" d="M-390,942h-39c-1.1,0-2,0.9-2,2s0.9,2,2,2h39c1.1,0,2-0.9,2-2S-388.9,942-390,942z"/>
		<path class="st5" d="M-394,952c0-1.1-0.9-2-2-2h-36c-1.1,0-2,0.9-2,2s0.9,2,2,2h36C-394.9,954-394,953.1-394,952z"/>
		<path class="st5" d="M-390,958h-33c-1.1,0-2,0.9-2,2s0.9,2,2,2h33c1.1,0,2-0.9,2-2S-388.9,958-390,958z"/>
		<path class="st5" d="M-396,966h-18c-1.1,0-2,0.9-2,2s0.9,2,2,2h18c1.1,0,2-0.9,2-2S-394.9,966-396,966z"/>
		<path class="st5" d="M-402,974h-12c-1.1,0-2,0.9-2,2s0.9,2,2,2h12c1.1,0,2-0.9,2-2S-400.9,974-402,974z"/>
		<path class="st5" d="M-408,982h-6c-1.1,0-2,0.9-2,2s0.9,2,2,2h6c1.1,0,2-0.9,2-2S-406.9,982-408,982z"/>
	</g>
	<g>
		<path class="st2" d="M-180,970c-2.8,0-5,2.2-5,5s2.2,5,5,5c2.8,0,5-2.2,5-5S-177.2,970-180,970z M-180,976c-0.6,0-1-0.4-1-1
			s0.4-1,1-1c0.6,0,1,0.4,1,1S-179.4,976-180,976z"/>
		<path class="st2" d="M-172,967.5l0-25.5c0-4.4-3.6-8-8-8c-4.4,0-8,3.6-8,8l0,25.5c-1.9,2-3,4.7-3,7.5c0,6.1,4.9,11,11,11
			s11-4.9,11-11C-169,972.2-170.1,969.5-172,967.5z M-180,982c-3.9,0-7-3.1-7-7c0-2,0.8-3.9,2.3-5.2c0.4-0.4,0.7-0.9,0.7-1.5l0-26.3
			c0-2.2,1.8-4,4-4s4,1.8,4,4l0,26.3c0,0.6,0.2,1.1,0.7,1.5c1.5,1.3,2.3,3.2,2.3,5.2C-173,978.9-176.1,982-180,982z"/>
	</g>
	<g>
		<path class="st2" d="M-294,986c-6.1,0-11-4.9-11-11c0-2.8,1.1-5.5,3-7.5l0-25.5c0-4.4,3.6-8,8-8s8,3.6,8,8l0,25.5
			c1.9,2,3,4.7,3,7.5C-283,981.1-287.9,986-294,986L-294,986z M-294,938c-2.2,0-4,1.8-4,4l0,26.3c0,0.6-0.2,1.1-0.7,1.5
			c-1.5,1.3-2.3,3.2-2.3,5.2c0,3.9,3.1,7,7,7s7-3.1,7-7c0-2-0.8-3.9-2.3-5.2c-0.4-0.4-0.7-0.9-0.7-1.5l0-26.3
			C-290,939.8-291.8,938-294,938L-294,938z"/>
	</g>
	<g>
		<path class="st5" d="M-64,970.4V959c0-1.1-0.9-2-2-2c-1.1,0-2,0.9-2,2v11.4c-1.8,0.8-3,2.5-3,4.6c0,2.8,2.2,5,5,5c2.8,0,5-2.2,5-5
			C-61,973-62.2,971.2-64,970.4z M-66,976c-0.6,0-1-0.4-1-1s0.4-1,1-1c0.6,0,1,0.4,1,1S-65.4,976-66,976z"/>
		<path class="st5" d="M-58,967.5l0-25.5c0-4.4-3.6-8-8-8c-4.4,0-8,3.6-8,8l0,25.5c-1.9,2-3,4.7-3,7.5c0,6.1,4.9,11,11,11
			c6.1,0,11-4.9,11-11C-55,972.2-56.1,969.5-58,967.5z M-66,982c-3.9,0-7-3.1-7-7c0-2,0.8-3.9,2.3-5.2c0.4-0.4,0.7-0.9,0.7-1.5
			l0-26.3c0-2.2,1.8-4,4-4c2.2,0,4,1.8,4,4l0,26.3c0,0.6,0.2,1.1,0.7,1.5c1.5,1.3,2.3,3.2,2.3,5.2C-59,978.9-62.1,982-66,982z"/>
	</g>
	<g>
		<path class="st6" d="M50,970.4V942c0-1.1-0.9-2-2-2c-1.1,0-2,0.9-2,2v28.4c-1.8,0.8-3,2.5-3,4.6c0,2.8,2.2,5,5,5c2.8,0,5-2.2,5-5
			C53,973,51.8,971.2,50,970.4z M48,976c-0.6,0-1-0.4-1-1s0.4-1,1-1c0.6,0,1,0.4,1,1S48.6,976,48,976z"/>
		<path class="st6" d="M56,967.5l0-25.5c0-4.4-3.6-8-8-8c-4.4,0-8,3.6-8,8l0,25.5c-1.9,2-3,4.7-3,7.5c0,6.1,4.9,11,11,11
			c6.1,0,11-4.9,11-11C59,972.2,57.9,969.5,56,967.5z M48,982c-3.9,0-7-3.1-7-7c0-2,0.8-3.9,2.3-5.2c0.4-0.4,0.7-0.9,0.7-1.5l0-26.3
			c0-2.2,1.8-4,4-4c2.2,0,4,1.8,4,4l0,26.3c0,0.6,0.2,1.1,0.7,1.5c1.5,1.3,2.3,3.2,2.3,5.2C55,978.9,51.9,982,48,982z"/>
	</g>
	<path class="st6" d="M80-185.1c0-0.1,0-0.1,0-0.2c0-0.1,0-0.1,0-0.2c0-0.1,0-0.1-0.1-0.2c0-0.1,0-0.1-0.1-0.2c0,0,0,0,0-0.1
		c0,0,0-0.1-0.1-0.1c0-0.1-0.1-0.1-0.1-0.2c0-0.1-0.1-0.1-0.1-0.2c0,0-0.1-0.1-0.1-0.1c-0.1,0-0.1-0.1-0.2-0.1c0,0-0.1-0.1-0.1-0.1
		c-0.1,0-0.1-0.1-0.2-0.1c-0.1,0-0.1-0.1-0.2-0.1c-0.1,0-0.1,0-0.2-0.1c-0.1,0-0.1,0-0.2,0c-0.1,0-0.2,0-0.2,0c0,0-0.1,0-0.1,0h-4
		c0-2.8-2.2-5-5-5H55c-1.4,0-2.7,0.6-3.6,1.5c-0.3,0.3-0.5,0.7-0.7,1c-0.8-0.4-1.7-0.6-2.7-0.6c-0.9,0-1.8,0.2-2.7,0.6
		c-0.2-0.4-0.4-0.7-0.7-1c-0.9-1-2.2-1.5-3.6-1.5H27c-2.8,0-5,2.2-5,5h-4c0,0-0.1,0-0.1,0c-0.1,0-0.1,0-0.2,0c-0.1,0-0.1,0-0.2,0
		c-0.1,0-0.1,0-0.2,0.1c-0.1,0-0.1,0.1-0.2,0.1c-0.1,0-0.1,0.1-0.2,0.1c-0.1,0-0.1,0.1-0.2,0.1c-0.1,0-0.1,0.1-0.2,0.1
		c0,0-0.1,0.1-0.1,0.1c0,0-0.1,0.1-0.1,0.1c0,0.1-0.1,0.1-0.1,0.2c0,0,0,0.1-0.1,0.1c0,0,0,0,0,0.1c0,0.1-0.1,0.1-0.1,0.2
		c0,0.1,0,0.1-0.1,0.2c0,0.1,0,0.1,0,0.2c0,0.1,0,0.1,0,0.2c0,0,0,0,0,0.1c0,0,0,0.1,0,0.1c0,0.1,0,0.1,0,0.2c0,0.1,0,0.1,0,0.2
		c0,0.1,0,0.1,0.1,0.2c0,0.1,0,0.1,0.1,0.2c0,0.1,0.1,0.1,0.1,0.2c0,0.1,0.1,0.1,0.1,0.2c0,0.1,0.1,0.1,0.1,0.2c0,0,0.1,0.1,0.1,0.1
		c0,0,0.1,0.1,0.1,0.1c0.1,0,0.1,0.1,0.2,0.1c0,0,0.1,0,0.1,0.1l4.9,2.5c0.1,6,5,10.8,11,10.8c5,0,11-2.5,12.6-13.6
		c0-0.1,0-0.1,0-0.2c0-0.2,0.1-0.4,0.1-0.7C46-185.3,47-186,48-186c1,0,2,0.7,2.3,1.6c0,0.2,0.1,0.5,0.1,0.7c0,0.1,0,0.1,0,0.2
		C52-172.5,58-170,63-170c6,0,10.9-4.8,11-10.8l4.9-2.5c0,0,0.1,0,0.1-0.1c0.1,0,0.1-0.1,0.2-0.1c0.1,0,0.1-0.1,0.2-0.1
		c0,0,0.1-0.1,0.1-0.1c0-0.1,0.1-0.1,0.1-0.2c0,0,0.1-0.1,0.1-0.1c0-0.1,0.1-0.1,0.1-0.2c0-0.1,0.1-0.1,0.1-0.2c0-0.1,0-0.1,0.1-0.2
		c0-0.1,0-0.1,0-0.2c0-0.1,0-0.1,0-0.2C80-184.9,80-185,80-185.1C80-185,80-185,80-185.1z M34.4-184.6l-5,5
		c-0.4,0.4-0.9,0.6-1.4,0.6c-0.5,0-1-0.2-1.4-0.6c-0.8-0.8-0.8-2,0-2.8l5-5c0.8-0.8,2-0.8,2.8,0C35.2-186.6,35.2-185.4,34.4-184.6z
		 M63.4-184.6l-5,5c-0.4,0.4-0.9,0.6-1.4,0.6c-0.5,0-1-0.2-1.4-0.6c-0.8-0.8-0.8-2,0-2.8l5-5c0.8-0.8,2-0.8,2.8,0
		C64.2-186.6,64.2-185.4,63.4-184.6z"/>
	<path class="st5" d="M-377.5,1057.1l-24-6c0,0-0.1,0-0.1,0c-0.1,0-0.2,0-0.3,0c-0.1,0-0.1,0-0.1,0c-0.1,0-0.2,0-0.3,0
		c0,0-0.1,0-0.1,0c-0.1,0-0.3,0.1-0.4,0.1c0,0,0,0,0,0c-0.1,0.1-0.2,0.1-0.4,0.2l-8.8,6.6v-6.4c1.8-0.8,3-2.5,3-4.6c0-2.8-2.2-5-5-5
		s-5,2.2-5,5c0,2,1.2,3.8,3,4.6v50.4h-22c-1.1,0-2,0.9-2,2s0.9,2,2,2h48c1.1,0,2-0.9,2-2s-0.9-2-2-2h-22v-36l8.8,6.6
		c0.1,0.1,0.2,0.1,0.3,0.2c0.1,0,0.1,0.1,0.2,0.1c0.2,0.1,0.4,0.1,0.6,0.1c0,0,0,0,0,0h0c0,0,0,0,0,0c0.2,0,0.3,0,0.4-0.1
		c0,0,0,0,0,0l24-6c0.9-0.2,1.5-1,1.5-1.9v-6C-376,1058.1-376.6,1057.3-377.5,1057.1z M-404,1067l-6.7-5l6.7-5V1067z M-414,1046
		c0.6,0,1,0.4,1,1s-0.4,1-1,1s-1-0.4-1-1S-414.6,1046-414,1046z M-400,1055.6l8,2v8.9l-8,2V1055.6z M-380,1063.4l-8,2v-6.9l8,2
		V1063.4z"/>
	<path class="st2" d="M-153,1087.3l-6.2-3.6l3.5-0.9c1.1-0.3,1.7-1.4,1.4-2.4c-0.3-1.1-1.4-1.7-2.4-1.4l-7.4,2l-5.5-3.2l6.5-1.8
		c0.8-0.2,1.4-0.9,1.5-1.8c0.1-0.9-0.4-1.6-1.2-2l-5.8-2.4l4.5-2.6l7.4,2c0.2,0,0.3,0.1,0.5,0.1c0.9,0,1.7-0.6,1.9-1.5
		c0.3-1.1-0.3-2.2-1.4-2.4l-3.5-0.9l6.2-3.6c1-0.6,1.3-1.8,0.7-2.7c-0.6-1-1.8-1.3-2.7-0.7l-6.2,3.6l0.9-3.5
		c0.3-1.1-0.3-2.2-1.4-2.4c-1.1-0.3-2.2,0.3-2.4,1.4l-2,7.4l-4.5,2.6l0.8-6.2c0.1-0.8-0.3-1.6-1-2c-0.7-0.4-1.6-0.3-2.2,0.1l-5,3.8
		v-5.2l5.4-5.4c0.8-0.8,0.8-2,0-2.8c-0.8-0.8-2-0.8-2.8,0l-2.6,2.6v-7.2c0-1.1-0.9-2-2-2c-1.1,0-2,0.9-2,2v7.2l-2.6-2.6
		c-0.8-0.8-2-0.8-2.8,0c-0.8,0.8-0.8,2,0,2.8l5.4,5.4v5.2l-5-3.8c-0.7-0.5-1.6-0.5-2.3-0.1c-0.7,0.5-1,1.4-0.8,2.2l1.8,6.5l-5.5-3.2
		l-2-7.4c-0.3-1.1-1.4-1.7-2.4-1.4c-1.1,0.3-1.7,1.4-1.4,2.4l0.9,3.5l-6.2-3.6c-1-0.6-2.2-0.2-2.7,0.7c-0.6,1-0.2,2.2,0.7,2.7
		l6.2,3.6l-3.5,0.9c-1.1,0.3-1.7,1.4-1.4,2.4c0.2,0.9,1,1.5,1.9,1.5c0.2,0,0.3,0,0.5-0.1l7.4-2l5.5,3.2l-6.5,1.8
		c-0.8,0.2-1.4,0.9-1.5,1.8c-0.1,0.9,0.4,1.6,1.2,2l5.8,2.4l-4.5,2.6l-7.4-2c-1.1-0.3-2.2,0.3-2.4,1.4c-0.3,1.1,0.3,2.2,1.4,2.4
		l3.5,0.9l-6.2,3.6c-1,0.6-1.3,1.8-0.7,2.7c0.4,0.6,1,1,1.7,1c0.3,0,0.7-0.1,1-0.3l6.2-3.6l-0.9,3.5c-0.3,1.1,0.3,2.2,1.4,2.4
		c0.2,0,0.3,0.1,0.5,0.1c0.9,0,1.7-0.6,1.9-1.5l2-7.4l4.5-2.6l-0.8,6.2c-0.1,0.8,0.3,1.6,1,2c0.7,0.4,1.6,0.3,2.2-0.1l5-3.8v5.2
		l-5.4,5.4c-0.8,0.8-0.8,2,0,2.8c0.8,0.8,2,0.8,2.8,0l2.6-2.6v7.2c0,1.1,0.9,2,2,2c1.1,0,2-0.9,2-2v-7.2l2.6,2.6
		c0.4,0.4,0.9,0.6,1.4,0.6s1-0.2,1.4-0.6c0.8-0.8,0.8-2,0-2.8l-5.4-5.4v-5.2l5,3.8c0.4,0.3,0.8,0.4,1.2,0.4c0.4,0,0.8-0.1,1.1-0.3
		c0.7-0.5,1-1.4,0.8-2.2l-1.8-6.5l5.5,3.2l2,7.4c0.2,0.9,1,1.5,1.9,1.5c0.2,0,0.3,0,0.5-0.1c1.1-0.3,1.7-1.4,1.4-2.4l-0.9-3.5
		l6.2,3.6c0.3,0.2,0.7,0.3,1,0.3c0.7,0,1.4-0.4,1.7-1C-151.7,1089-152.1,1087.8-153,1087.3z M-169.8,1073.6l-4.8,1.3l-1.5-0.9
		l3.1-1.8L-169.8,1073.6z M-174.4,1064.3l-0.6,4.5l-3.1,1.8v-3.5L-174.4,1064.3z M-184.8,1064.9l2.8,2.1v3.5l-1.5-0.9L-184.8,1064.9
		z M-190.3,1074.4l4.8-1.3l1.5,0.9l-3.1,1.8L-190.3,1074.4z M-185.6,1083.7l0.6-4.5l3.1-1.8v3.5L-185.6,1083.7z M-175.2,1083.1
		l-2.8-2.1v-3.5l1.5,0.9L-175.2,1083.1z"/>
	<g>
		<path class="st5" d="M-270,1052c1.1,0,2-0.9,2-2s-0.9-2-2-2c-7,0-12.9,5.2-13.8,12h-2c1-7.9,7.7-14,15.9-14c1.1,0,2-0.9,2-2
			s-0.9-2-2-2c-10.4,0-18.9,7.9-19.9,18h-8.1v-10c0-1.5-0.4-2.9-1.1-4.1l1.5-1.5c0.8-0.8,0.8-2,0-2.8c-0.8-0.8-2-0.8-2.8,0l-1.5,1.5
			c-0.6-0.4-1.3-0.7-2.1-0.9v-2.3c0-1.1-0.9-2-2-2s-2,0.9-2,2v2.3c-0.7,0.2-1.4,0.5-2.1,0.9l-1.5-1.5c-0.8-0.8-2-0.8-2.8,0
			c-0.8,0.8-0.8,2,0,2.8l1.5,1.5c-0.5,0.9-0.9,2-1,3.1h-4.1c-0.9,0-1.7,0.6-1.9,1.5c-0.2,0.9,0.2,1.8,1.1,2.2l4.9,2.4v6.8
			c0,10.4,7.9,18.9,18,19.9v10.1h-17.2l2.6-2.6c0.8-0.8,0.8-2,0-2.8c-0.8-0.8-2-0.8-2.8,0l-6,6c-0.1,0.1-0.2,0.2-0.2,0.3
			c0,0-0.1,0.1-0.1,0.1c0,0.1-0.1,0.1-0.1,0.2c0,0.1,0,0.1-0.1,0.2c0,0.1,0,0.1-0.1,0.2c-0.1,0.3-0.1,0.5,0,0.8c0,0.1,0,0.1,0.1,0.2
			c0,0.1,0,0.1,0.1,0.2c0,0.1,0.1,0.1,0.1,0.2c0,0,0,0.1,0.1,0.1c0.1,0.1,0.2,0.2,0.2,0.3l6,6c0.4,0.4,0.9,0.6,1.4,0.6
			s1-0.2,1.4-0.6c0.8-0.8,0.8-2,0-2.8l-2.6-2.6h17.2v12c0,1.1,0.9,2,2,2s2-0.9,2-2v-12h15.2l5.4,5.4c0.4,0.4,0.9,0.6,1.4,0.6
			s1-0.2,1.4-0.6c0.8-0.8,0.8-2,0-2.8l-4.6-4.6l4.6-4.6c0.8-0.8,0.8-2,0-2.8c-0.8-0.8-2-0.8-2.8,0l-5.4,5.4H-292v-10.1
			c10.1-1,18-9.5,18-19.9c0-2.2,1.8-4,4-4c1.1,0,2-0.9,2-2s-0.9-2-2-2c-3.7,0-6.8,2.6-7.7,6h-2.1C-278.9,1055.4-274.8,1052-270,1052
			z M-290.6,1064c-0.7,1.2-2,2-3.4,2c-1.5,0-2.8-0.8-3.4-2H-290.6z M-278.1,1064c-1,7.9-7.7,14-15.9,14c-8.8,0-16-7.2-16-16v-12
			c0-2.2,1.8-4,4-4s4,1.8,4,4v12c0,0,0,0,0,0c0,4.4,3.6,8,8,8c3.7,0,6.8-2.6,7.7-6H-278.1z"/>
		<circle class="st6" cx="-306" cy="1050" r="2"/>
	</g>
	<g>
		<path class="st1" d="M-408-422c-7.7,0-14,6.3-14,14s6.3,14,14,14s14-6.3,14-14S-400.3-422-408-422z"/>
		<polygon class="st1" points="-408,-434.5 -403.1,-426 -412.9,-426 		"/>
		<polygon class="st1" points="-408,-381.6 -412.9,-390 -403.1,-390 		"/>
		<polygon class="st1" points="-434.5,-408 -426,-412.9 -426,-403.1 		"/>
		<polygon class="st1" points="-381.4,-408 -389.9,-403.1 -389.9,-412.9 		"/>
		<polygon class="st1" points="-391.3,-424.8 -393,-419.2 -396.8,-423.1 		"/>
		<polygon class="st1" points="-424.8,-391.2 -423.1,-396.8 -419.3,-392.9 		"/>
		<polygon class="st1" points="-424.8,-424.8 -419.3,-423.1 -423.1,-419.2 		"/>
		<polygon class="st1" points="-391.3,-391.2 -396.8,-392.9 -393,-396.8 		"/>
	</g>
	<path class="st4" d="M-276-74c-0.5,0-1.1,0.1-1.7,0.2C-279.8-81-286.3-86-294-86c-7.7,0-14.2,5-16.3,12.2c-0.6-0.1-1.2-0.2-1.7-0.2
		c-6.1,0-11,4.9-11,11s4.9,11,11,11h36c6.1,0,11-4.9,11-11S-269.9-74-276-74z"/>
	<path class="st4" d="M-162-74c-0.5,0-1.1,0.1-1.7,0.2C-165.8-81-172.3-86-180-86c-7.7,0-14.2,5-16.3,12.2c-0.6-0.1-1.2-0.2-1.7-0.2
		c-6.1,0-11,4.9-11,11s4.9,11,11,11h36c6.1,0,11-4.9,11-11S-155.9-74-162-74z"/>
	<g>
		<path class="st2" d="M-75-42c-1.1,0-2,0.9-2,2v4c0,1.1,0.9,2,2,2c1.1,0,2-0.9,2-2v-4C-73-41.1-73.9-42-75-42z"/>
		<path class="st2" d="M-66-36c-1.1,0-2,0.9-2,2v4c0,1.1,0.9,2,2,2c1.1,0,2-0.9,2-2v-4C-64-35.1-64.9-36-66-36z"/>
		<path class="st2" d="M-66-48c-1.1,0-2,0.9-2,2v4c0,1.1,0.9,2,2,2c1.1,0,2-0.9,2-2v-4C-64-47.1-64.9-48-66-48z"/>
		<path class="st2" d="M-57-42c-1.1,0-2,0.9-2,2v4c0,1.1,0.9,2,2,2c1.1,0,2-0.9,2-2v-4C-55-41.1-55.9-42-57-42z"/>
		<path class="st2" d="M-38.3-68.2c-0.3-0.6-0.7-1.2-1.2-1.8c-1.3-1.6-3.2-2.9-5.2-3.5c-1-0.3-2.1-0.5-3.3-0.5
			c-0.5,0-1.1,0.1-1.7,0.2c-0.9-3.1-2.7-5.9-5-7.9c-0.3-0.3-0.7-0.6-1-0.8c-0.7-0.5-1.5-1-2.3-1.4c-2.4-1.3-5.1-2-8-2
			c-7.7,0-14.2,5-16.3,12.2c-0.6-0.1-1.2-0.2-1.7-0.2c-1.1,0-2.2,0.2-3.3,0.5c-2.1,0.6-3.9,1.9-5.2,3.5c-0.4,0.5-0.8,1.1-1.2,1.8
			c-0.8,1.6-1.3,3.3-1.3,5.2s0.5,3.7,1.3,5.2c0.3,0.6,0.7,1.2,1.2,1.8c1.3,1.6,3.2,2.9,5.2,3.5c1,0.3,2.1,0.5,3.3,0.5h7v4
			c0,1.1,0.9,2,2,2c1.1,0,2-0.9,2-2v-4h14v4c0,1.1,0.9,2,2,2c1.1,0,2-0.9,2-2v-4h7c1.1,0,2.2-0.2,3.3-0.5c2.1-0.6,3.9-1.9,5.2-3.5
			c0.4-0.5,0.8-1.1,1.2-1.8c0.8-1.6,1.3-3.3,1.3-5.2S-37.5-66.7-38.3-68.2z"/>
	</g>
	<g>
		<path class="st2" d="M39-42c-1.1,0-2,0.9-2,2v4c0,1.1,0.9,2,2,2c1.1,0,2-0.9,2-2v-4C41-41.1,40.1-42,39-42z"/>
		<path class="st2" d="M48-36c-1.1,0-2,0.9-2,2v4c0,1.1,0.9,2,2,2c1.1,0,2-0.9,2-2v-4C50-35.1,49.1-36,48-36z"/>
		<path class="st2" d="M48-48c-1.1,0-2,0.9-2,2v4c0,1.1,0.9,2,2,2c1.1,0,2-0.9,2-2v-4C50-47.1,49.1-48,48-48z"/>
		<path class="st2" d="M57-42c-1.1,0-2,0.9-2,2v4c0,1.1,0.9,2,2,2c1.1,0,2-0.9,2-2v-4C59-41.1,58.1-42,57-42z"/>
		<path class="st2" d="M75.7-68.2c-0.3-0.6-0.7-1.2-1.2-1.8c-1.3-1.6-3.2-2.9-5.2-3.5c-1-0.3-2.1-0.5-3.3-0.5
			c-0.5,0-1.1,0.1-1.7,0.2c-0.9-3.1-2.7-5.9-5-7.9c-0.3-0.3-0.7-0.6-1-0.8c-0.7-0.5-1.5-1-2.3-1.4c-2.4-1.3-5.1-2-8-2
			c-7.7,0-14.2,5-16.3,12.2C31.1-73.9,30.5-74,30-74c-1.1,0-2.2,0.2-3.3,0.5c-2.1,0.6-3.9,1.9-5.2,3.5c-0.4,0.5-0.8,1.1-1.2,1.8
			C19.5-66.7,19-64.9,19-63s0.5,3.7,1.3,5.2c0.3,0.6,0.7,1.2,1.2,1.8c1.3,1.6,3.2,2.9,5.2,3.5c1,0.3,2.1,0.5,3.3,0.5h7v4
			c0,1.1,0.9,2,2,2c1.1,0,2-0.9,2-2v-4h14v4c0,1.1,0.9,2,2,2c1.1,0,2-0.9,2-2v-4h7c1.1,0,2.2-0.2,3.3-0.5c2.1-0.6,3.9-1.9,5.2-3.5
			c0.4-0.5,0.8-1.1,1.2-1.8c0.8-1.6,1.3-3.3,1.3-5.2S76.5-66.7,75.7-68.2z"/>
	</g>
	<g>
		<path class="st2" d="M-417,72c-1.1,0-2,0.9-2,2v4c0,1.1,0.9,2,2,2s2-0.9,2-2v-4C-415,72.9-415.9,72-417,72z"/>
		<path class="st2" d="M-408,78c-1.1,0-2,0.9-2,2v4c0,1.1,0.9,2,2,2s2-0.9,2-2v-4C-406,78.9-406.9,78-408,78z"/>
		<path class="st2" d="M-408,66c-1.1,0-2,0.9-2,2v4c0,1.1,0.9,2,2,2s2-0.9,2-2v-4C-406,66.9-406.9,66-408,66z"/>
		<path class="st2" d="M-399,72c-1.1,0-2,0.9-2,2v4c0,1.1,0.9,2,2,2s2-0.9,2-2v-4C-397,72.9-397.9,72-399,72z"/>
		<path class="st2" d="M-380.3,45.8c-0.3-0.6-0.7-1.2-1.2-1.8c-1.3-1.6-3.2-2.9-5.2-3.5c-1-0.3-2.1-0.5-3.3-0.5
			c-0.5,0-1.1,0.1-1.7,0.2c-0.9-3.1-2.7-5.9-5-7.9c-0.3-0.3-0.7-0.6-1-0.8c-0.7-0.5-1.5-1-2.3-1.4c-2.4-1.3-5.1-2-8-2
			c-7.7,0-14.2,5-16.3,12.2c-0.6-0.1-1.2-0.2-1.7-0.2c-1.1,0-2.2,0.2-3.3,0.5c-2.1,0.6-3.9,1.9-5.2,3.5c-0.4,0.5-0.8,1.1-1.2,1.8
			c-0.8,1.6-1.3,3.3-1.3,5.2s0.5,3.7,1.3,5.2c0.3,0.6,0.7,1.2,1.2,1.8c1.3,1.6,3.2,2.9,5.2,3.5c1,0.3,2.1,0.5,3.3,0.5h7v4
			c0,1.1,0.9,2,2,2s2-0.9,2-2v-4h14v4c0,1.1,0.9,2,2,2s2-0.9,2-2v-4h7c1.1,0,2.2-0.2,3.3-0.5c2.1-0.6,3.9-1.9,5.2-3.5
			c0.4-0.5,0.8-1.1,1.2-1.8c0.8-1.6,1.3-3.3,1.3-5.2S-379.5,47.3-380.3,45.8z"/>
	</g>
	<g>
		<path class="st2" d="M-294,64c-1.1,0-2,0.9-2,2v18c0,1.1,0.9,2,2,2s2-0.9,2-2V66C-292,64.9-292.9,64-294,64z"/>
		<path class="st2" d="M-266.3,45.8c-0.3-0.6-0.7-1.2-1.2-1.8c-1.3-1.6-3.2-2.9-5.2-3.5c-1-0.3-2.1-0.5-3.3-0.5
			c-0.5,0-1.1,0.1-1.7,0.2C-279.8,33-286.3,28-294,28c-7.7,0-14.2,5-16.3,12.2c-0.6-0.1-1.2-0.2-1.7-0.2c-1.1,0-2.2,0.2-3.3,0.5
			c-2.1,0.6-3.9,1.9-5.2,3.5c-0.4,0.5-0.8,1.1-1.2,1.8c-0.8,1.6-1.3,3.3-1.3,5.2s0.5,3.7,1.3,5.2c0.3,0.6,0.7,1.2,1.2,1.8
			c1.3,1.6,3.2,2.9,5.2,3.5c1,0.3,2.1,0.5,3.3,0.5h7v16c0,1.1,0.9,2,2,2s2-0.9,2-2V62h14v16c0,1.1,0.9,2,2,2s2-0.9,2-2V62h7
			c1.1,0,2.2-0.2,3.3-0.5c2.1-0.6,3.9-1.9,5.2-3.5c0.4-0.5,0.8-1.1,1.2-1.8c0.8-1.6,1.3-3.3,1.3-5.2S-265.5,47.3-266.3,45.8z"/>
	</g>
	<g>
		<path class="st2" d="M-66,64c-1.1,0-2,0.9-2,2v18c0,1.1,0.9,2,2,2c1.1,0,2-0.9,2-2V66C-64,64.9-64.9,64-66,64z"/>
		<path class="st2" d="M-38.3,45.8c-0.3-0.6-0.7-1.2-1.2-1.8c-1.3-1.6-3.2-2.9-5.2-3.5c-1-0.3-2.1-0.5-3.3-0.5
			c-0.5,0-1.1,0.1-1.7,0.2C-51.8,33-58.3,28-66,28c-7.7,0-14.2,5-16.3,12.2c-0.6-0.1-1.2-0.2-1.7-0.2c-1.1,0-2.2,0.2-3.3,0.5
			c-2.1,0.6-3.9,1.9-5.2,3.5c-0.4,0.5-0.8,1.1-1.2,1.8c-0.8,1.6-1.3,3.3-1.3,5.2s0.5,3.7,1.3,5.2c0.3,0.6,0.7,1.2,1.2,1.8
			c1.3,1.6,3.2,2.9,5.2,3.5c1,0.3,2.1,0.5,3.3,0.5h7v16c0,1.1,0.9,2,2,2c1.1,0,2-0.9,2-2V62h14v16c0,1.1,0.9,2,2,2c1.1,0,2-0.9,2-2
			V62h7c1.1,0,2.2-0.2,3.3-0.5c2.1-0.6,3.9-1.9,5.2-3.5c0.4-0.5,0.8-1.1,1.2-1.8c0.8-1.6,1.3-3.3,1.3-5.2S-37.5,47.3-38.3,45.8z"/>
	</g>
	<g>
		<circle class="st2" cx="-417" cy="180" r="2"/>
		<circle class="st2" cx="-399" cy="180" r="2"/>
		<circle class="st2" cx="-408" cy="186" r="2"/>
		<circle class="st2" cx="-399" cy="192" r="2"/>
		<circle class="st2" cx="-408" cy="198" r="2"/>
		<circle class="st2" cx="-417" cy="192" r="2"/>
		<path class="st2" d="M-380.3,159.8c-0.3-0.6-0.7-1.2-1.2-1.8c-1.3-1.6-3.2-2.9-5.2-3.5c-1-0.3-2.1-0.5-3.3-0.5
			c-0.3,0-0.5,0-0.8,0.1c-0.3,0-0.6,0.1-0.9,0.1c-0.9-3.1-2.7-5.9-5-7.9c-0.3-0.3-0.7-0.6-1-0.8c-0.7-0.5-1.5-1-2.3-1.4
			c-2.4-1.3-5.1-2-8-2c-7.7,0-14.2,5-16.3,12.2c-0.1,0-0.1,0-0.2,0c-0.5-0.1-1-0.2-1.5-0.2c-1.1,0-2.2,0.2-3.3,0.5
			c-2.1,0.6-3.9,1.9-5.2,3.5c-0.4,0.5-0.8,1.1-1.2,1.8c-0.8,1.6-1.3,3.3-1.3,5.2s0.5,3.7,1.3,5.2c0.3,0.6,0.7,1.2,1.2,1.8
			c1.3,1.6,3.2,2.9,5.2,3.5c1,0.3,2.1,0.5,3.3,0.5h36c1.1,0,2.2-0.2,3.3-0.5c2.1-0.6,3.9-1.9,5.2-3.5c0.4-0.5,0.8-1.1,1.2-1.8
			c0.8-1.6,1.3-3.3,1.3-5.2S-379.5,161.3-380.3,159.8z"/>
	</g>
	<g>
		<circle class="st2" cx="-303" cy="180" r="2"/>
		<circle class="st2" cx="-285" cy="180" r="2"/>
		<circle class="st2" cx="-294" cy="186" r="2"/>
		<circle class="st2" cx="-285" cy="192" r="2"/>
		<circle class="st2" cx="-294" cy="198" r="2"/>
		<circle class="st2" cx="-303" cy="192" r="2"/>
		<path class="st2" d="M-266.3,159.8c-0.3-0.6-0.7-1.2-1.2-1.8c-1.3-1.6-3.2-2.9-5.2-3.5c-1-0.3-2.1-0.5-3.3-0.5
			c-0.3,0-0.5,0-0.8,0.1c-0.3,0-0.6,0.1-0.9,0.1c-0.9-3.1-2.7-5.9-5-7.9c-0.3-0.3-0.7-0.6-1-0.8c-0.7-0.5-1.5-1-2.3-1.4
			c-2.4-1.3-5.1-2-8-2c-7.7,0-14.2,5-16.3,12.2c-0.1,0-0.1,0-0.2,0c-0.5-0.1-1-0.2-1.5-0.2c-1.1,0-2.2,0.2-3.3,0.5
			c-2.1,0.6-3.9,1.9-5.2,3.5c-0.4,0.5-0.8,1.1-1.2,1.8c-0.8,1.6-1.3,3.3-1.3,5.2s0.5,3.7,1.3,5.2c0.3,0.6,0.7,1.2,1.2,1.8
			c1.3,1.6,3.2,2.9,5.2,3.5c1,0.3,2.1,0.5,3.3,0.5h36c1.1,0,2.2-0.2,3.3-0.5c2.1-0.6,3.9-1.9,5.2-3.5c0.4-0.5,0.8-1.1,1.2-1.8
			c0.8-1.6,1.3-3.3,1.3-5.2S-265.5,161.3-266.3,159.8z"/>
	</g>
	<g>
		<g>
			<polyline class="st1" points="-189.2,172.6 -196.2,185.7 -191.1,185.6 -196.9,197 -184.6,182.8 -190.9,182.9 -182,172.6 			"/>
			<polyline class="st1" points="-176.4,167.7 -183.4,180.8 -178.2,180.7 -184,192.1 -171.8,177.9 -178,178 -169.2,167.7 			"/>
		</g>
		<path class="st4" d="M-162,154c-0.5,0-1.1,0.1-1.7,0.2c-2.1-7.2-8.6-12.2-16.3-12.2c-7.7,0-14.2,5-16.3,12.2
			c-0.6-0.1-1.2-0.2-1.7-0.2c-6.1,0-11,4.9-11,11s4.9,11,11,11h36c6.1,0,11-4.9,11-11S-155.9,154-162,154z"/>
	</g>
	<path class="st4" d="M-48,154c-0.5,0-1.1,0.1-1.7,0.2C-51.8,147-58.3,142-66,142c-7.7,0-14.2,5-16.3,12.2c-0.6-0.1-1.2-0.2-1.7-0.2
		c-6.1,0-11,4.9-11,11s4.9,11,11,11h36c6.1,0,11-4.9,11-11S-41.9,154-48,154z"/>
	<path class="st1" d="M66,154c-0.5,0-1.1,0.1-1.7,0.2C62.2,147,55.7,142,48,142c-7.7,0-14.2,5-16.3,12.2c-0.6-0.1-1.2-0.2-1.7-0.2
		c-6.1,0-11,4.9-11,11s4.9,11,11,11h11.3l-3.9,5.9c-0.4,0.6-0.4,1.4-0.1,2.1c0.3,0.7,1,1.1,1.8,1.1h2.3l-3.9,5.9
		c-0.6,0.9-0.4,2.2,0.6,2.8c0.3,0.2,0.7,0.3,1.1,0.3c0.6,0,1.3-0.3,1.7-0.9l6-9c0.4-0.6,0.4-1.4,0.1-2.1c-0.3-0.7-1-1.1-1.8-1.1
		h-2.3l3.3-5h5.2l-1.9,2.9c-0.4,0.6-0.4,1.4-0.1,2.1c0.3,0.7,1,1.1,1.8,1.1h2.3l-1.9,2.9c-0.6,0.9-0.4,2.2,0.6,2.8
		c0.3,0.2,0.7,0.3,1.1,0.3c0.6,0,1.3-0.3,1.7-0.9l4-6c0.4-0.6,0.4-1.4,0.1-2.1c-0.3-0.7-1-1.1-1.8-1.1h-2.3l1.3-2H66
		c6.1,0,11-4.9,11-11S72.1,154,66,154z M66,172H30c-3.9,0-7-3.1-7-7s3.1-7,7-7c0.3,0,0.7,0.1,1.2,0.2v1.8c0,1.1,0.9,2,2,2s2-0.9,2-2
		v-3.2c1.1-6.3,6.4-10.8,12.8-10.8c6.4,0,11.7,4.5,12.8,10.8v3.2c0,1.1,0.9,2,2,2s2-0.9,2-2v-1.8c0.5-0.1,0.9-0.2,1.2-0.2
		c3.9,0,7,3.1,7,7S69.9,172,66,172z"/>
	<path class="st4" d="M66,154c-0.5,0-1.1,0.1-1.7,0.2C62.2,147,55.7,142,48,142c-7.7,0-14.2,5-16.3,12.2c-0.6-0.1-1.2-0.2-1.7-0.2
		c-6.1,0-11,4.9-11,11s4.9,11,11,11h36c6.1,0,11-4.9,11-11S72.1,154,66,154z"/>
	<g>
		<path class="st2" d="M-298.3,297.7c-0.6-1-1.8-1.3-2.7-0.7c-1,0.6-1.3,1.8-0.7,2.7l1,1.7c0.4,0.6,1,1,1.7,1c0.3,0,0.7-0.1,1-0.3
			c1-0.6,1.3-1.8,0.7-2.7L-298.3,297.7z"/>
		<path class="st2" d="M-303,296.9c-1-0.6-2.2-0.2-2.7,0.7l-1,1.7c-0.6,1-0.2,2.2,0.7,2.7c0.3,0.2,0.7,0.3,1,0.3
			c0.7,0,1.4-0.4,1.7-1l1-1.7C-301.7,298.7-302,297.5-303,296.9z"/>
		<path class="st2" d="M-304,295.2c0-1.1-0.9-2-2-2h-2c-1.1,0-2,0.9-2,2c0,1.1,0.9,2,2,2h2C-304.9,297.2-304,296.3-304,295.2z"/>
		<path class="st2" d="M-296,293.2h-2c-1.1,0-2,0.9-2,2c0,1.1,0.9,2,2,2h2c1.1,0,2-0.9,2-2C-294,294.1-294.9,293.2-296,293.2z"/>
		<path class="st2" d="M-276,268c-0.5,0-1.1,0.1-1.7,0.2c-2.1-7.2-8.6-12.2-16.3-12.2c-7.7,0-14.2,5-16.3,12.2
			c-0.6-0.1-1.2-0.2-1.7-0.2c-6.1,0-11,4.9-11,11s4.9,11,11,11h5c0,0.3,0.1,0.7,0.3,1l1,1.7c0.4,0.6,1,1,1.7,1c0.3,0,0.7-0.1,1-0.3
			c1-0.6,1.3-1.8,0.7-2.7l-0.4-0.7h1.4l-0.4,0.7c-0.6,1-0.2,2.2,0.7,2.7c0.3,0.2,0.7,0.3,1,0.3c0.7,0,1.4-0.4,1.7-1l1-1.7
			c0.2-0.3,0.3-0.7,0.3-1h21c6.1,0,11-4.9,11-11S-269.9,268-276,268z"/>
		<path class="st2" d="M-281.3,302.7c-0.6-1-1.8-1.3-2.7-0.7c-1,0.6-1.3,1.8-0.7,2.7l1,1.7c0.4,0.6,1,1,1.7,1c0.3,0,0.7-0.1,1-0.3
			c1-0.6,1.3-1.8,0.7-2.7L-281.3,302.7z"/>
		<path class="st2" d="M-286.3,294c-0.6-1-1.8-1.3-2.7-0.7c-1,0.6-1.3,1.8-0.7,2.7l1,1.7c0.4,0.6,1,1,1.7,1c0.3,0,0.7-0.1,1-0.3
			c1-0.6,1.3-1.8,0.7-2.7L-286.3,294z"/>
		<path class="st2" d="M-284,298.5c0.3,0.2,0.7,0.3,1,0.3c0.7,0,1.4-0.4,1.7-1l1-1.7c0.6-1,0.2-2.2-0.7-2.7c-1-0.6-2.2-0.2-2.7,0.7
			l-1,1.7C-285.3,296.7-285,297.9-284,298.5z"/>
		<path class="st2" d="M-286,301.9c-1-0.6-2.2-0.2-2.7,0.7l-1,1.7c-0.6,1-0.2,2.2,0.7,2.7c0.3,0.2,0.7,0.3,1,0.3
			c0.7,0,1.4-0.4,1.7-1l1-1.7C-284.7,303.7-285,302.5-286,301.9z"/>
		<path class="st2" d="M-287,300.2c0-1.1-0.9-2-2-2h-2c-1.1,0-2,0.9-2,2c0,1.1,0.9,2,2,2h2C-287.9,302.2-287,301.3-287,300.2z"/>
		<path class="st2" d="M-279,298.2h-2c-1.1,0-2,0.9-2,2c0,1.1,0.9,2,2,2h2c1.1,0,2-0.9,2-2C-277,299.1-277.9,298.2-279,298.2z"/>
	</g>
	<g>
		<path class="st2" d="M-184.3,297.7c-0.6-1-1.8-1.3-2.7-0.7c-1,0.6-1.3,1.8-0.7,2.7l1,1.7c0.4,0.6,1,1,1.7,1c0.3,0,0.7-0.1,1-0.3
			c1-0.6,1.3-1.8,0.7-2.7L-184.3,297.7z"/>
		<path class="st2" d="M-189,296.9c-1-0.6-2.2-0.2-2.7,0.7l-1,1.7c-0.6,1-0.2,2.2,0.7,2.7c0.3,0.2,0.7,0.3,1,0.3
			c0.7,0,1.4-0.4,1.7-1l1-1.7C-187.7,298.7-188,297.5-189,296.9z"/>
		<path class="st2" d="M-190,295.2c0-1.1-0.9-2-2-2h-2c-1.1,0-2,0.9-2,2c0,1.1,0.9,2,2,2h2C-190.9,297.2-190,296.3-190,295.2z"/>
		<path class="st2" d="M-182,293.2h-2c-1.1,0-2,0.9-2,2c0,1.1,0.9,2,2,2h2c1.1,0,2-0.9,2-2C-180,294.1-180.9,293.2-182,293.2z"/>
		<path class="st2" d="M-162,268c-0.5,0-1.1,0.1-1.7,0.2c-2.1-7.2-8.6-12.2-16.3-12.2c-7.7,0-14.2,5-16.3,12.2
			c-0.6-0.1-1.2-0.2-1.7-0.2c-6.1,0-11,4.9-11,11s4.9,11,11,11h5c0,0.3,0.1,0.7,0.3,1l1,1.7c0.4,0.6,1,1,1.7,1c0.3,0,0.7-0.1,1-0.3
			c1-0.6,1.3-1.8,0.7-2.7l-0.4-0.7h1.4l-0.4,0.7c-0.6,1-0.2,2.2,0.7,2.7c0.3,0.2,0.7,0.3,1,0.3c0.7,0,1.4-0.4,1.7-1l1-1.7
			c0.2-0.3,0.3-0.7,0.3-1h21c6.1,0,11-4.9,11-11S-155.9,268-162,268z"/>
		<path class="st2" d="M-167.3,302.7c-0.6-1-1.8-1.3-2.7-0.7c-1,0.6-1.3,1.8-0.7,2.7l1,1.7c0.4,0.6,1,1,1.7,1c0.3,0,0.7-0.1,1-0.3
			c1-0.6,1.3-1.8,0.7-2.7L-167.3,302.7z"/>
		<path class="st2" d="M-172.3,294c-0.6-1-1.8-1.3-2.7-0.7c-1,0.6-1.3,1.8-0.7,2.7l1,1.7c0.4,0.6,1,1,1.7,1c0.3,0,0.7-0.1,1-0.3
			c1-0.6,1.3-1.8,0.7-2.7L-172.3,294z"/>
		<path class="st2" d="M-170,298.5c0.3,0.2,0.7,0.3,1,0.3c0.7,0,1.4-0.4,1.7-1l1-1.7c0.6-1,0.2-2.2-0.7-2.7c-1-0.6-2.2-0.2-2.7,0.7
			l-1,1.7C-171.3,296.7-171,297.9-170,298.5z"/>
		<path class="st2" d="M-172,301.9c-1-0.6-2.2-0.2-2.7,0.7l-1,1.7c-0.6,1-0.2,2.2,0.7,2.7c0.3,0.2,0.7,0.3,1,0.3
			c0.7,0,1.4-0.4,1.7-1l1-1.7C-170.7,303.7-171,302.5-172,301.9z"/>
		<path class="st2" d="M-173,300.2c0-1.1-0.9-2-2-2h-2c-1.1,0-2,0.9-2,2c0,1.1,0.9,2,2,2h2C-173.9,302.2-173,301.3-173,300.2z"/>
		<path class="st2" d="M-165,298.2h-2c-1.1,0-2,0.9-2,2c0,1.1,0.9,2,2,2h2c1.1,0,2-0.9,2-2C-163,299.1-163.9,298.2-165,298.2z"/>
	</g>
	<g>
		<path class="st1" d="M-61.4,292.6l-2.6,2.6V290c0-1.1-0.9-2-2-2c-1.1,0-2,0.9-2,2v5.2l-2.6-2.6c-0.8-0.8-2-0.8-2.8,0
			c-0.8,0.8-0.8,2,0,2.8l6,6c0.4,0.4,0.9,0.6,1.4,0.6c0.5,0,1-0.2,1.4-0.6l6-6c0.8-0.8,0.8-2,0-2.8
			C-59.4,291.8-60.6,291.8-61.4,292.6z"/>
		<path class="st1" d="M-56.1,266.1c-1-1-2-1.8-3.2-2.4c-1.6-0.9-3.4-1.4-5.2-1.6c-0.5,0-0.9-0.1-1.4-0.1c-7.7,0-14,6.3-14,14
			c0,1.5,0.3,3.1,0.7,4.5c0.3,0.9,0.7,1.7,1.1,2.5c0.4,0.6,1,1,1.7,1l0,0h20.8c0.2,0,0.4,0,0.5-0.1c0.5-0.1,0.9-0.5,1.2-0.9
			c0.5-0.8,0.8-1.6,1.1-2.5c0.5-1.4,0.7-3,0.7-4.5c0-2.9-0.9-5.6-2.4-7.8C-54.9,267.4-55.5,266.7-56.1,266.1z M-65.8,266
			c-0.5,0-1,0-1.4,0.1h0c0.4-0.1,0.8-0.1,1.2-0.1C-65.9,266-65.9,266-65.8,266z M-75.2,280C-75.2,280-75.2,280-75.2,280
			C-75.2,280-75.1,280-75.2,280L-75.2,280z"/>
	</g>
	<g>
		<path class="st1" d="M49.4,288.6c-0.8-0.8-2-0.8-2.8,0l-6,6c-0.8,0.8-0.8,2,0,2.8c0.8,0.8,2,0.8,2.8,0l2.6-2.6v5.2
			c0,1.1,0.9,2,2,2c1.1,0,2-0.9,2-2v-5.2l2.6,2.6c0.4,0.4,0.9,0.6,1.4,0.6c0.5,0,1-0.2,1.4-0.6c0.8-0.8,0.8-2,0-2.8L49.4,288.6z"/>
		<path class="st1" d="M57.9,266.1c-1-1-2-1.8-3.2-2.4c-1.6-0.9-3.4-1.4-5.2-1.6c-0.5,0-0.9-0.1-1.4-0.1c-7.7,0-14,6.3-14,14
			c0,1.5,0.3,3.1,0.7,4.5c0.3,0.9,0.7,1.7,1.1,2.5c0.4,0.6,1,1,1.7,1l0,0h20.8c0.2,0,0.4,0,0.5-0.1c0.5-0.1,0.9-0.5,1.2-0.9
			c0.5-0.8,0.8-1.6,1.1-2.5c0.5-1.4,0.7-3,0.7-4.5c0-2.9-0.9-5.6-2.4-7.8C59.1,267.4,58.5,266.7,57.9,266.1z M48.2,266
			c-0.5,0-1,0-1.4,0.1h0c0.4-0.1,0.8-0.1,1.2-0.1C48.1,266,48.1,266,48.2,266z M38.8,280C38.8,280,38.8,280,38.8,280
			C38.8,280,38.9,280,38.8,280L38.8,280z"/>
	</g>
	<path class="st2" d="M-390,382c-0.5,0-1.1,0.1-1.7,0.2c-2.1-7.2-8.6-12.2-16.3-12.2c-7.7,0-14.2,5-16.3,12.2
		c-0.6-0.1-1.2-0.2-1.7-0.2c-6.1,0-11,4.9-11,11s4.9,11,11,11h5.4l-2.4,9.5c-0.3,1.1,0.4,2.2,1.5,2.4c0.2,0,0.3,0.1,0.5,0.1
		c0.9,0,1.7-0.6,1.9-1.5l2.6-10.5h5.4l-3.9,15.5c-0.3,1.1,0.4,2.2,1.5,2.4c0.2,0,0.3,0.1,0.5,0.1c0.9,0,1.7-0.6,1.9-1.5l4.1-16.5
		h5.4l-2.4,9.5c-0.3,1.1,0.4,2.2,1.5,2.4c0.2,0,0.3,0.1,0.5,0.1c0.9,0,1.7-0.6,1.9-1.5l2.6-10.5h7.4c6.1,0,11-4.9,11-11
		S-383.9,382-390,382z"/>
	<path class="st2" d="M-276,382c-0.5,0-1.1,0.1-1.7,0.2c-2.1-7.2-8.6-12.2-16.3-12.2c-7.7,0-14.2,5-16.3,12.2
		c-0.6-0.1-1.2-0.2-1.7-0.2c-6.1,0-11,4.9-11,11s4.9,11,11,11h5.4l-2.4,9.5c-0.3,1.1,0.4,2.2,1.5,2.4c0.2,0,0.3,0.1,0.5,0.1
		c0.9,0,1.7-0.6,1.9-1.5l2.6-10.5h5.4l-3.9,15.5c-0.3,1.1,0.4,2.2,1.5,2.4c0.2,0,0.3,0.1,0.5,0.1c0.9,0,1.7-0.6,1.9-1.5l4.1-16.5
		h5.4l-2.4,9.5c-0.3,1.1,0.4,2.2,1.5,2.4c0.2,0,0.3,0.1,0.5,0.1c0.9,0,1.7-0.6,1.9-1.5l2.6-10.5h7.4c6.1,0,11-4.9,11-11
		S-269.9,382-276,382z"/>
	<path class="st2" d="M-162,382c-0.5,0-1.1,0.1-1.7,0.2c-2.1-7.2-8.6-12.2-16.3-12.2c-7.7,0-14.2,5-16.3,12.2
		c-0.6-0.1-1.2-0.2-1.7-0.2c-6.1,0-11,4.9-11,11s4.9,11,11,11h5.4l-2.4,9.5c-0.3,1.1,0.4,2.2,1.5,2.4c0.2,0,0.3,0.1,0.5,0.1
		c0.9,0,1.7-0.6,1.9-1.5l2.6-10.5h5.4l-3.9,15.5c-0.3,1.1,0.4,2.2,1.5,2.4c0.2,0,0.3,0.1,0.5,0.1c0.9,0,1.7-0.6,1.9-1.5l4.1-16.5
		h5.4l-2.4,9.5c-0.3,1.1,0.4,2.2,1.5,2.4c0.2,0,0.3,0.1,0.5,0.1c0.9,0,1.7-0.6,1.9-1.5l2.6-10.5h7.4c6.1,0,11-4.9,11-11
		S-155.9,382-162,382z"/>
	<g>
		<path class="st5" d="M33,380h12c1.1,0,2-0.9,2-2s-0.9-2-2-2H33c-1.1,0-2,0.9-2,2S31.9,380,33,380z"/>
		<path class="st5" d="M21,386h24c1.1,0,2-0.9,2-2s-0.9-2-2-2H21c-1.1,0-2,0.9-2,2S19.9,386,21,386z"/>
		<path class="st5" d="M15,392h24c1.1,0,2-0.9,2-2s-0.9-2-2-2H15c-1.1,0-2,0.9-2,2S13.9,392,15,392z"/>
		<path class="st5" d="M74,396c0-1.1-0.9-2-2-2H12c-1.1,0-2,0.9-2,2s0.9,2,2,2h60C73.1,398,74,397.1,74,396z"/>
		<path class="st5" d="M72,400H15c-1.1,0-2,0.9-2,2s0.9,2,2,2h57c1.1,0,2-0.9,2-2S73.1,400,72,400z"/>
		<path class="st5" d="M33,406l-12,0c-1.1,0-2,0.9-2,2s0.9,2,2,2l12,0c1.1,0,2-0.9,2-2S34.1,406,33,406z"/>
		<path class="st5" d="M52,386h8c1.1,0,2-0.9,2-2s-0.9-2-2-2h-8c-1.1,0-2,0.9-2,2S50.9,386,52,386z"/>
		<path class="st5" d="M43,390c0,1.1,0.9,2,2,2h21c1.1,0,2-0.9,2-2s-0.9-2-2-2H45C43.9,388,43,388.9,43,390z"/>
		<path class="st5" d="M66,406l-27,0c-1.1,0-2,0.9-2,2s0.9,2,2,2l27,0c1.1,0,2-0.9,2-2S67.1,406,66,406z"/>
	</g>
	<path class="st4" d="M-276,496c-0.5,0-1.1,0.1-1.7,0.2c-2.1-7.2-8.6-12.2-16.3-12.2c-7.7,0-14.2,5-16.3,12.2
		c-0.6-0.1-1.2-0.2-1.7-0.2c-6.1,0-11,4.9-11,11c0,6.1,4.9,11,11,11h36c6.1,0,11-4.9,11-11C-265,500.9-269.9,496-276,496z"/>
	<g>
		<path class="st2" d="M-207,509c1.1,0,2-0.9,2-2c0-3.9,3.1-7,7-7c0.3,0,0.7,0.1,1.2,0.2v1.8c0,1.1,0.9,2,2,2c1.1,0,2-0.9,2-2v-3.2
			c1.1-6.3,6.4-10.8,12.8-10.8c6.4,0,11.7,4.5,12.8,10.8v3.2c0,1.1,0.9,2,2,2c1.1,0,2-0.9,2-2v-1.8c0.5-0.1,0.9-0.2,1.2-0.2
			c3.9,0,7,3.1,7,7c0,1.1,0.9,2,2,2c1.1,0,2-0.9,2-2c0-6.1-4.9-11-11-11c-0.5,0-1.1,0.1-1.7,0.2c-2.1-7.2-8.6-12.2-16.3-12.2
			c-7.7,0-14.2,5-16.3,12.2c-0.6-0.1-1.2-0.2-1.7-0.2c-6.1,0-11,4.9-11,11C-209,508.1-208.1,509-207,509z"/>
		<path class="st2" d="M-188,515c0,1.1,0.9,2,2,2h36c1.1,0,2-0.9,2-2s-0.9-2-2-2h-36C-187.1,513-188,513.9-188,515z"/>
		<path class="st2" d="M-180,520c-1.1,0-2,0.9-2,2s0.9,2,2,2h27c1.1,0,2-0.9,2-2s-0.9-2-2-2H-180z"/>
		<path class="st2" d="M-150,527h-24c-1.1,0-2,0.9-2,2s0.9,2,2,2h24c1.1,0,2-0.9,2-2S-148.9,527-150,527z"/>
		<path class="st2" d="M-210,517h18c1.1,0,2-0.9,2-2s-0.9-2-2-2h-18c-1.1,0-2,0.9-2,2S-211.1,517-210,517z"/>
		<path class="st2" d="M-207,520c-1.1,0-2,0.9-2,2s0.9,2,2,2h21c1.1,0,2-0.9,2-2s-0.9-2-2-2H-207z"/>
		<path class="st2" d="M-180,527h-30c-1.1,0-2,0.9-2,2s0.9,2,2,2h30c1.1,0,2-0.9,2-2S-178.9,527-180,527z"/>
	</g>
	<path class="st4" d="M-162,496c-0.5,0-1.1,0.1-1.7,0.2c-2.1-7.2-8.6-12.2-16.3-12.2c-7.7,0-14.2,5-16.3,12.2
		c-0.6-0.1-1.2-0.2-1.7-0.2c-6.1,0-11,4.9-11,11c0,6.1,4.9,11,11,11h36c6.1,0,11-4.9,11-11C-151,500.9-155.9,496-162,496z"/>
	<g>
		<path class="st2" d="M-93,509c1.1,0,2-0.9,2-2c0-3.9,3.1-7,7-7c0.3,0,0.7,0.1,1.2,0.2v1.8c0,1.1,0.9,2,2,2s2-0.9,2-2v-3.2
			c1.1-6.3,6.4-10.8,12.8-10.8c6.4,0,11.7,4.5,12.8,10.8v3.2c0,1.1,0.9,2,2,2s2-0.9,2-2v-1.8c0.5-0.1,0.9-0.2,1.2-0.2
			c3.9,0,7,3.1,7,7c0,1.1,0.9,2,2,2c1.1,0,2-0.9,2-2c0-6.1-4.9-11-11-11c-0.5,0-1.1,0.1-1.7,0.2C-51.8,489-58.3,484-66,484
			c-7.7,0-14.2,5-16.3,12.2c-0.6-0.1-1.2-0.2-1.7-0.2c-6.1,0-11,4.9-11,11C-95,508.1-94.1,509-93,509z"/>
		<path class="st2" d="M-74,515c0,1.1,0.9,2,2,2h36c1.1,0,2-0.9,2-2s-0.9-2-2-2h-36C-73.1,513-74,513.9-74,515z"/>
		<path class="st2" d="M-66,520c-1.1,0-2,0.9-2,2s0.9,2,2,2h27c1.1,0,2-0.9,2-2s-0.9-2-2-2H-66z"/>
		<path class="st2" d="M-36,527h-24c-1.1,0-2,0.9-2,2s0.9,2,2,2h24c1.1,0,2-0.9,2-2S-34.9,527-36,527z"/>
		<path class="st2" d="M-96,517h18c1.1,0,2-0.9,2-2s-0.9-2-2-2h-18c-1.1,0-2,0.9-2,2S-97.1,517-96,517z"/>
		<path class="st2" d="M-93,520c-1.1,0-2,0.9-2,2s0.9,2,2,2h21c1.1,0,2-0.9,2-2s-0.9-2-2-2H-93z"/>
		<path class="st2" d="M-66,527h-30c-1.1,0-2,0.9-2,2s0.9,2,2,2h30c1.1,0,2-0.9,2-2S-64.9,527-66,527z"/>
	</g>
	<path class="st4" d="M-48,496c-0.5,0-1.1,0.1-1.7,0.2C-51.8,489-58.3,484-66,484c-7.7,0-14.2,5-16.3,12.2c-0.6-0.1-1.2-0.2-1.7-0.2
		c-6.1,0-11,4.9-11,11c0,6.1,4.9,11,11,11h36c6.1,0,11-4.9,11-11C-37,500.9-41.9,496-48,496z"/>
	<path class="st4" d="M66,490c-0.5,0-1.1,0.1-1.7,0.2C62.2,483,55.7,478,48,478c-7.7,0-14.2,5-16.3,12.2c-0.6-0.1-1.2-0.2-1.7-0.2
		c-6.1,0-11,4.9-11,11s4.9,11,11,11h36c6.1,0,11-4.9,11-11S72.1,490,66,490z"/>
	<path class="st4" d="M-48-74c-0.5,0-1.1,0.1-1.7,0.2C-51.8-81-58.3-86-66-86c-7.7,0-14.2,5-16.3,12.2c-0.6-0.1-1.2-0.2-1.7-0.2
		c-6.1,0-11,4.9-11,11s4.9,11,11,11h36c6.1,0,11-4.9,11-11S-41.9-74-48-74z"/>
	<path class="st4" d="M66-74c-0.5,0-1.1,0.1-1.7,0.2C62.2-81,55.7-86,48-86c-7.7,0-14.2,5-16.3,12.2C31.1-73.9,30.5-74,30-74
		c-6.1,0-11,4.9-11,11s4.9,11,11,11h36c6.1,0,11-4.9,11-11S72.1-74,66-74z"/>
	<path class="st4" d="M-390,40c-0.5,0-1.1,0.1-1.7,0.2C-393.8,33-400.3,28-408,28c-7.7,0-14.2,5-16.3,12.2c-0.6-0.1-1.2-0.2-1.7-0.2
		c-6.1,0-11,4.9-11,11s4.9,11,11,11h36c6.1,0,11-4.9,11-11S-383.9,40-390,40z"/>
	<path class="st4" d="M-276,40c-0.5,0-1.1,0.1-1.7,0.2C-279.8,33-286.3,28-294,28c-7.7,0-14.2,5-16.3,12.2c-0.6-0.1-1.2-0.2-1.7-0.2
		c-6.1,0-11,4.9-11,11s4.9,11,11,11h36c6.1,0,11-4.9,11-11S-269.9,40-276,40z"/>
	<path class="st4" d="M-162,40c-0.5,0-1.1,0.1-1.7,0.2C-165.8,33-172.3,28-180,28c-7.7,0-14.2,5-16.3,12.2c-0.6-0.1-1.2-0.2-1.7-0.2
		c-6.1,0-11,4.9-11,11s4.9,11,11,11h36c6.1,0,11-4.9,11-11S-155.9,40-162,40z"/>
	<path class="st4" d="M-48,40c-0.5,0-1.1,0.1-1.7,0.2C-51.8,33-58.3,28-66,28c-7.7,0-14.2,5-16.3,12.2c-0.6-0.1-1.2-0.2-1.7-0.2
		c-6.1,0-11,4.9-11,11s4.9,11,11,11h36c6.1,0,11-4.9,11-11S-41.9,40-48,40z"/>
	<g>
		<g>
			<circle class="st2" cx="39" cy="66" r="2"/>
			<circle class="st2" cx="57" cy="66" r="2"/>
			<circle class="st2" cx="48" cy="72" r="2"/>
			<circle class="st2" cx="57" cy="78" r="2"/>
			<circle class="st2" cx="48" cy="84" r="2"/>
			<circle class="st2" cx="39" cy="78" r="2"/>
			<path class="st2" d="M75.7,45.8c-0.3-0.6-0.7-1.2-1.2-1.8c-1.3-1.6-3.2-2.9-5.2-3.5c-1-0.3-2.1-0.5-3.3-0.5c-0.3,0-0.5,0-0.8,0.1
				c-0.3,0-0.6,0.1-0.9,0.1c-0.9-3.1-2.7-5.9-5-7.9c-0.3-0.3-0.7-0.6-1-0.8c-0.7-0.5-1.5-1-2.3-1.4c-2.4-1.3-5.1-2-8-2
				c-7.7,0-14.2,5-16.3,12.2c-0.1,0-0.1,0-0.2,0C31,40.1,30.4,40,30,40c-1.1,0-2.2,0.2-3.3,0.5c-2.1,0.6-3.9,1.9-5.2,3.5
				c-0.4,0.5-0.8,1.1-1.2,1.8C19.5,47.3,19,49.1,19,51s0.5,3.7,1.3,5.2c0.3,0.6,0.7,1.2,1.2,1.8c1.3,1.6,3.2,2.9,5.2,3.5
				c1,0.3,2.1,0.5,3.3,0.5h36c1.1,0,2.2-0.2,3.3-0.5c2.1-0.6,3.9-1.9,5.2-3.5c0.4-0.5,0.8-1.1,1.2-1.8c0.8-1.6,1.3-3.3,1.3-5.2
				S76.5,47.3,75.7,45.8z"/>
		</g>
		<path class="st4" d="M66,40c-0.5,0-1.1,0.1-1.7,0.2C62.2,33,55.7,28,48,28c-7.7,0-14.2,5-16.3,12.2C31.1,40.1,30.5,40,30,40
			c-6.1,0-11,4.9-11,11s4.9,11,11,11h36c6.1,0,11-4.9,11-11S72.1,40,66,40z"/>
	</g>
	<path class="st4" d="M-390,154c-0.5,0-1.1,0.1-1.7,0.2c-2.1-7.2-8.6-12.2-16.3-12.2c-7.7,0-14.2,5-16.3,12.2
		c-0.6-0.1-1.2-0.2-1.7-0.2c-6.1,0-11,4.9-11,11s4.9,11,11,11h36c6.1,0,11-4.9,11-11S-383.9,154-390,154z"/>
	<path class="st4" d="M-276,154c-0.5,0-1.1,0.1-1.7,0.2c-2.1-7.2-8.6-12.2-16.3-12.2c-7.7,0-14.2,5-16.3,12.2
		c-0.6-0.1-1.2-0.2-1.7-0.2c-6.1,0-11,4.9-11,11s4.9,11,11,11h36c6.1,0,11-4.9,11-11S-269.9,154-276,154z"/>
	<g>
		<g>
			<path class="st2" d="M-411.3,298.7c-0.6-1-1.8-1.3-2.7-0.7c-1,0.6-1.3,1.8-0.7,2.7l1,1.7c0.4,0.6,1,1,1.7,1c0.3,0,0.7-0.1,1-0.3
				c1-0.6,1.3-1.8,0.7-2.7L-411.3,298.7z"/>
			<path class="st2" d="M-416,297.9c-1-0.6-2.2-0.2-2.7,0.7l-1,1.7c-0.6,1-0.2,2.2,0.7,2.7c0.3,0.2,0.7,0.3,1,0.3
				c0.7,0,1.4-0.4,1.7-1l1-1.7C-414.7,299.7-415,298.5-416,297.9z"/>
			<path class="st2" d="M-417,296.2c0-1.1-0.9-2-2-2h-2c-1.1,0-2,0.9-2,2c0,1.1,0.9,2,2,2h2C-417.9,298.2-417,297.3-417,296.2z"/>
			<path class="st2" d="M-409,294.2h-2c-1.1,0-2,0.9-2,2c0,1.1,0.9,2,2,2h2c1.1,0,2-0.9,2-2C-407,295.1-407.9,294.2-409,294.2z"/>
			<path class="st2" d="M-389,269c-0.5,0-1.1,0.1-1.7,0.2c-2.1-7.2-8.6-12.2-16.3-12.2c-7.7,0-14.2,5-16.3,12.2
				c-0.6-0.1-1.2-0.2-1.7-0.2c-6.1,0-11,4.9-11,11s4.9,11,11,11h5c0,0.3,0.1,0.7,0.3,1l1,1.7c0.4,0.6,1,1,1.7,1c0.3,0,0.7-0.1,1-0.3
				c1-0.6,1.3-1.8,0.7-2.7l-0.4-0.7h1.4l-0.4,0.7c-0.6,1-0.2,2.2,0.7,2.7c0.3,0.2,0.7,0.3,1,0.3c0.7,0,1.4-0.4,1.7-1l1-1.7
				c0.2-0.3,0.3-0.7,0.3-1h21c6.1,0,11-4.9,11-11S-382.9,269-389,269z"/>
			<path class="st2" d="M-394.3,303.7c-0.6-1-1.8-1.3-2.7-0.7c-1,0.6-1.3,1.8-0.7,2.7l1,1.7c0.4,0.6,1,1,1.7,1c0.3,0,0.7-0.1,1-0.3
				c1-0.6,1.3-1.8,0.7-2.7L-394.3,303.7z"/>
			<path class="st2" d="M-399.3,295c-0.6-1-1.8-1.3-2.7-0.7c-1,0.6-1.3,1.8-0.7,2.7l1,1.7c0.4,0.6,1,1,1.7,1c0.3,0,0.7-0.1,1-0.3
				c1-0.6,1.3-1.8,0.7-2.7L-399.3,295z"/>
			<path class="st2" d="M-397,299.5c0.3,0.2,0.7,0.3,1,0.3c0.7,0,1.4-0.4,1.7-1l1-1.7c0.6-1,0.2-2.2-0.7-2.7c-1-0.6-2.2-0.2-2.7,0.7
				l-1,1.7C-398.3,297.7-398,298.9-397,299.5z"/>
			<path class="st2" d="M-399,302.9c-1-0.6-2.2-0.2-2.7,0.7l-1,1.7c-0.6,1-0.2,2.2,0.7,2.7c0.3,0.2,0.7,0.3,1,0.3
				c0.7,0,1.4-0.4,1.7-1l1-1.7C-397.7,304.7-398,303.5-399,302.9z"/>
			<path class="st2" d="M-400,301.2c0-1.1-0.9-2-2-2h-2c-1.1,0-2,0.9-2,2c0,1.1,0.9,2,2,2h2C-400.9,303.2-400,302.3-400,301.2z"/>
			<path class="st2" d="M-392,299.2h-2c-1.1,0-2,0.9-2,2c0,1.1,0.9,2,2,2h2c1.1,0,2-0.9,2-2C-390,300.1-390.9,299.2-392,299.2z"/>
		</g>
		<path class="st4" d="M-389,269c-0.5,0-1.1,0.1-1.7,0.2c-2.1-7.2-8.6-12.2-16.3-12.2c-7.7,0-14.2,5-16.3,12.2
			c-0.6-0.1-1.2-0.2-1.7-0.2c-6.1,0-11,4.9-11,11s4.9,11,11,11h36c6.1,0,11-4.9,11-11S-382.9,269-389,269z"/>
	</g>
	<path class="st4" d="M-276,268c-0.5,0-1.1,0.1-1.7,0.2c-2.1-7.2-8.6-12.2-16.3-12.2c-7.7,0-14.2,5-16.3,12.2
		c-0.6-0.1-1.2-0.2-1.7-0.2c-6.1,0-11,4.9-11,11s4.9,11,11,11h36c6.1,0,11-4.9,11-11S-269.9,268-276,268z"/>
	<path class="st4" d="M-162,268c-0.5,0-1.1,0.1-1.7,0.2c-2.1-7.2-8.6-12.2-16.3-12.2c-7.7,0-14.2,5-16.3,12.2
		c-0.6-0.1-1.2-0.2-1.7-0.2c-6.1,0-11,4.9-11,11s4.9,11,11,11h36c6.1,0,11-4.9,11-11S-155.9,268-162,268z"/>
	<path class="st4" d="M-390,382c-0.5,0-1.1,0.1-1.7,0.2c-2.1-7.2-8.6-12.2-16.3-12.2c-7.7,0-14.2,5-16.3,12.2
		c-0.6-0.1-1.2-0.2-1.7-0.2c-6.1,0-11,4.9-11,11s4.9,11,11,11h36c6.1,0,11-4.9,11-11S-383.9,382-390,382z"/>
	<path class="st4" d="M-276,382c-0.5,0-1.1,0.1-1.7,0.2c-2.1-7.2-8.6-12.2-16.3-12.2c-7.7,0-14.2,5-16.3,12.2
		c-0.6-0.1-1.2-0.2-1.7-0.2c-6.1,0-11,4.9-11,11s4.9,11,11,11h36c6.1,0,11-4.9,11-11S-269.9,382-276,382z"/>
	<path class="st4" d="M-162,382c-0.5,0-1.1,0.1-1.7,0.2c-2.1-7.2-8.6-12.2-16.3-12.2c-7.7,0-14.2,5-16.3,12.2
		c-0.6-0.1-1.2-0.2-1.7-0.2c-6.1,0-11,4.9-11,11s4.9,11,11,11h36c6.1,0,11-4.9,11-11S-155.9,382-162,382z"/>
	<path class="st4" d="M-390,610c-0.5,0-1.1,0.1-1.7,0.2c-2.1-7.2-8.6-12.2-16.3-12.2c-7.7,0-14.2,5-16.3,12.2
		c-0.6-0.1-1.2-0.2-1.7-0.2c-6.1,0-11,4.9-11,11s4.9,11,11,11h36c6.1,0,11-4.9,11-11S-383.9,610-390,610z"/>
	<g>
		<g>
			<path class="st2" d="M-406,750v-12c0-1.1-0.9-2-2-2s-2,0.9-2,2v12c0,1.1,0.9,2,2,2S-406,751.1-406,750z"/>
			<path class="st2" d="M-415,756v-12c0-1.1-0.9-2-2-2s-2,0.9-2,2v12c0,1.1,0.9,2,2,2S-415,757.1-415,756z"/>
			<path class="st2" d="M-397,756v-12c0-1.1-0.9-2-2-2s-2,0.9-2,2v12c0,1.1,0.9,2,2,2S-397,757.1-397,756z"/>
			<path class="st2" d="M-416,762h-2c-1.1,0-2,0.9-2,2v2c0,1.1,0.9,2,2,2h2c1.1,0,2-0.9,2-2v-2C-414,762.9-414.9,762-416,762z"/>
			<path class="st2" d="M-407,756h-2c-1.1,0-2,0.9-2,2v2c0,1.1,0.9,2,2,2h2c1.1,0,2-0.9,2-2v-2C-405,756.9-405.9,756-407,756z"/>
			<path class="st2" d="M-398,762h-2c-1.1,0-2,0.9-2,2v2c0,1.1,0.9,2,2,2h2c1.1,0,2-0.9,2-2v-2C-396,762.9-396.9,762-398,762z"/>
		</g>
		<path class="st4" d="M-390,724c-0.5,0-1.1,0.1-1.7,0.2c-2.1-7.2-8.6-12.2-16.3-12.2c-7.7,0-14.2,5-16.3,12.2
			c-0.6-0.1-1.2-0.2-1.7-0.2c-6.1,0-11,4.9-11,11s4.9,11,11,11h36c6.1,0,11-4.9,11-11S-383.9,724-390,724z"/>
	</g>
	<path class="st4" d="M-48,724c-0.5,0-1.1,0.1-1.7,0.2C-51.8,717-58.3,712-66,712c-7.7,0-14.2,5-16.3,12.2c-0.6-0.1-1.2-0.2-1.7-0.2
		c-6.1,0-11,4.9-11,11s4.9,11,11,11h36c6.1,0,11-4.9,11-11S-41.9,724-48,724z"/>
	<path class="st4" d="M-48,610c-0.5,0-1.1,0.1-1.7,0.2C-51.8,603-58.3,598-66,598c-7.7,0-14.2,5-16.3,12.2c-0.6-0.1-1.2-0.2-1.7-0.2
		c-6.1,0-11,4.9-11,11s4.9,11,11,11h36c6.1,0,11-4.9,11-11S-41.9,610-48,610z"/>
	<path class="st2" d="M-305.6,633.8c-0.8,1.1-3.4,4.7-3.4,7.2c0,2.9,2.1,5,5,5s5-2.1,5-5c0-2.5-2.6-6.1-3.4-7.2
		C-303.2,632.8-304.8,632.8-305.6,633.8z"/>
	<path class="st2" d="M-287.6,633.8c-0.8,1.1-3.4,4.7-3.4,7.2c0,2.9,2.1,5,5,5s5-2.1,5-5c0-2.5-2.6-6.1-3.4-7.2
		C-285.2,632.8-286.8,632.8-287.6,633.8z"/>
	<path class="st2" d="M-296.6,644.8c-0.8,1.1-3.4,4.7-3.4,7.2c0,2.9,2.1,5,5,5s5-2.1,5-5c0-2.5-2.6-6.1-3.4-7.2
		C-294.2,643.8-295.8,643.8-296.6,644.8z"/>
	<path class="st4" d="M-276,610c-0.5,0-1.1,0.1-1.7,0.2c-2.1-7.2-8.6-12.2-16.3-12.2c-7.7,0-14.2,5-16.3,12.2
		c-0.6-0.1-1.2-0.2-1.7-0.2c-6.1,0-11,4.9-11,11s4.9,11,11,11h36c6.1,0,11-4.9,11-11S-269.9,610-276,610z"/>
	<path class="st2" d="M-419.6,633.8c-0.8,1.1-3.4,4.7-3.4,7.2c0,2.9,2.1,5,5,5s5-2.1,5-5c0-2.5-2.6-6.1-3.4-7.2
		C-417.2,632.7-418.8,632.7-419.6,633.8z"/>
	<path class="st2" d="M-401.6,633.8c-0.8,1.1-3.4,4.7-3.4,7.2c0,2.9,2.1,5,5,5s5-2.1,5-5c0-2.5-2.6-6.1-3.4-7.2
		C-399.2,632.7-400.8,632.7-401.6,633.8z"/>
	<path class="st2" d="M-410.6,644.8c-0.8,1.1-3.4,4.7-3.4,7.2c0,2.9,2.1,5,5,5s5-2.1,5-5c0-2.5-2.6-6.1-3.4-7.2
		C-408.2,643.7-409.8,643.7-410.6,644.8z"/>
	<path class="st2" d="M-177.3,633.6c-0.7-0.8-2.1-0.8-2.8,0c-0.6,0.7-5.9,7-5.9,12.1c0,1.9,0.6,3.6,1.8,5c0.9,1.1,2.6,2.3,5.5,2.3
		c4.8,0,7.3-3.7,7.3-7.3C-171.5,640.6-176.7,634.3-177.3,633.6z M-178.7,650.3C-178.7,650.3-178.7,650.3-178.7,650.3l0,0.9
		L-178.7,650.3z"/>
	<path class="st4" d="M-162,610c-0.5,0-1.1,0.1-1.7,0.2c-2.1-7.2-8.6-12.2-16.3-12.2c-7.7,0-14.2,5-16.3,12.2
		c-0.6-0.1-1.2-0.2-1.7-0.2c-6.1,0-11,4.9-11,11s4.9,11,11,11h36c6.1,0,11-4.9,11-11S-155.9,610-162,610z"/>
	<path class="st2" d="M-62.9,633.6c-0.7-0.8-2.1-0.8-2.8,0c-0.6,0.7-5.9,7-5.9,12.1c0,1.9,0.6,3.6,1.8,5c0.9,1.1,2.6,2.3,5.5,2.3
		c4.8,0,7.3-3.7,7.3-7.3C-57,640.7-62.3,634.3-62.9,633.6z M-64.3,650.3L-64.3,650.3l0,0.9L-64.3,650.3z"/>
	<path class="st4" d="M-162,724c-0.5,0-1.1,0.1-1.7,0.2c-2.1-7.2-8.6-12.2-16.3-12.2c-7.7,0-14.2,5-16.3,12.2
		c-0.6-0.1-1.2-0.2-1.7-0.2c-6.1,0-11,4.9-11,11s4.9,11,11,11h36c6.1,0,11-4.9,11-11S-155.9,724-162,724z"/>
	<path class="st4" d="M-276,724c-0.5,0-1.1,0.1-1.7,0.2c-2.1-7.2-8.6-12.2-16.3-12.2c-7.7,0-14.2,5-16.3,12.2
		c-0.6-0.1-1.2-0.2-1.7-0.2c-6.1,0-11,4.9-11,11s4.9,11,11,11h36c6.1,0,11-4.9,11-11S-269.9,724-276,724z"/>
	<path class="st4" d="M66,724c-0.5,0-1.1,0.1-1.7,0.2C62.2,717,55.7,712,48,712c-7.7,0-14.2,5-16.3,12.2c-0.6-0.1-1.2-0.2-1.7-0.2
		c-6.1,0-11,4.9-11,11s4.9,11,11,11h36c6.1,0,11-4.9,11-11S72.1,724,66,724z"/>
	<path class="st4" d="M66,610c-0.5,0-1.1,0.1-1.7,0.2C62.2,603,55.7,598,48,598c-7.7,0-14.2,5-16.3,12.2c-0.6-0.1-1.2-0.2-1.7-0.2
		c-6.1,0-11,4.9-11,11s4.9,11,11,11h36c6.1,0,11-4.9,11-11S72.1,610,66,610z"/>
	<path class="st2" d="M51.1,633.6c-0.7-0.8-2.1-0.8-2.8,0c-0.6,0.7-5.9,7-5.9,12.1c0,1.9,0.6,3.6,1.8,5c0.9,1.1,2.6,2.3,5.5,2.3
		c4.8,0,7.3-3.7,7.3-7.3C57,640.7,51.7,634.3,51.1,633.6z M49.7,650.3L49.7,650.3l0,0.9L49.7,650.3z"/>
	<path class="st4" d="M-390,838c-0.5,0-1.1,0.1-1.7,0.2c-2.1-7.2-8.6-12.2-16.3-12.2c-7.7,0-14.2,5-16.3,12.2
		c-0.6-0.1-1.2-0.2-1.7-0.2c-6.1,0-11,4.9-11,11s4.9,11,11,11h36c6.1,0,11-4.9,11-11S-383.9,838-390,838z"/>
	<path class="st4" d="M66.8,837.4c-0.5,0-1.1,0.1-1.7,0.2C63,830.2,56.3,825,48.5,825c-7.8,0-14.5,5.2-16.6,12.5
		c-0.6-0.1-1.2-0.2-1.7-0.2c-6.2,0-11.2,5.1-11.2,11.3c0,6.2,5,11.3,11.2,11.3h36.6c6.2,0,11.2-5.1,11.2-11.3
		C78,842.4,73,837.4,66.8,837.4z"/>
	<path class="st4" d="M-47,837c-0.5,0-1.1,0.1-1.7,0.2C-50.8,830-57.3,825-65,825c-7.7,0-14.2,5-16.3,12.2c-0.6-0.1-1.2-0.2-1.7-0.2
		c-6.1,0-11,4.9-11,11s4.9,11,11,11h36c6.1,0,11-4.9,11-11S-40.9,837-47,837z"/>
	<g>
		<path class="st5" d="M-423,494h12c1.1,0,2-0.9,2-2s-0.9-2-2-2h-12c-1.1,0-2,0.9-2,2S-424.1,494-423,494z"/>
		<path class="st5" d="M-435,500h24c1.1,0,2-0.9,2-2s-0.9-2-2-2h-24c-1.1,0-2,0.9-2,2S-436.1,500-435,500z"/>
		<path class="st5" d="M-441,506h24c1.1,0,2-0.9,2-2s-0.9-2-2-2h-24c-1.1,0-2,0.9-2,2S-442.1,506-441,506z"/>
		<path class="st5" d="M-382,510c0-1.1-0.9-2-2-2h-60c-1.1,0-2,0.9-2,2s0.9,2,2,2h60C-382.9,512-382,511.1-382,510z"/>
		<path class="st5" d="M-384,514h-57c-1.1,0-2,0.9-2,2s0.9,2,2,2h57c1.1,0,2-0.9,2-2S-382.9,514-384,514z"/>
		<path class="st5" d="M-423,520l-12,0c-1.1,0-2,0.9-2,2c0,1.1,0.9,2,2,2l12,0c1.1,0,2-0.9,2-2S-421.9,520-423,520z"/>
		<path class="st5" d="M-404,500h8c1.1,0,2-0.9,2-2s-0.9-2-2-2h-8c-1.1,0-2,0.9-2,2S-405.1,500-404,500z"/>
		<path class="st5" d="M-413,504c0,1.1,0.9,2,2,2h21c1.1,0,2-0.9,2-2s-0.9-2-2-2h-21C-412.1,502-413,502.9-413,504z"/>
		<path class="st5" d="M-390,520l-27,0c-1.1,0-2,0.9-2,2s0.9,2,2,2l27,0c1.1,0,2-0.9,2-2C-388,520.9-388.9,520-390,520z"/>
	</g>
	<g>
		<path class="st1" d="M-308-402c0,2.4,0.7,4.9,1.9,7c0.4,0.6,1,1,1.7,1h20.8c0.7,0,1.4-0.4,1.7-1c1.2-2.1,1.9-4.6,1.9-7
			c0-7.7-6.3-14-14-14S-308-409.7-308-402z M-303.2-398C-303.2-398-303.2-398-303.2-398C-303.2-398-303.1-398-303.2-398L-303.2-398z
			 M-295.2-411.9c0.4-0.1,0.8-0.1,1.2-0.1c0.1,0,0.1,0,0.2,0C-294.3-412-294.8-412-295.2-411.9z"/>
		<polygon class="st1" points="-293.9,-428.4 -298.8,-419.9 -289,-419.9 		"/>
		<polygon class="st1" points="-311.9,-406.8 -320.4,-401.8 -311.9,-396.9 		"/>
		<polygon class="st1" points="-275.9,-396.9 -267.4,-401.8 -275.9,-406.8 		"/>
		<polygon class="st1" points="-277.2,-418.6 -282.7,-416.9 -278.9,-413.1 		"/>
		<polygon class="st1" points="-309,-413.1 -305.2,-416.9 -310.7,-418.6 		"/>
	</g>
	<g>
		<path class="st1" d="M-167.7-402.6c-2.4-4.4-7-7.4-12.3-7.4c-7.7,0-14,6.3-14,14c0,1.1,0.9,2,2,2h24c1.1,0,2-0.9,2-2
			c0-2-0.4-3.9-1.2-5.6C-167.3-402-167.5-402.3-167.7-402.6z"/>
		<path class="st1" d="M-189.3-391.9L-189.3-391.9C-189.3-391.9-189.3-391.9-189.3-391.9C-189.3-391.9-189.3-391.9-189.3-391.9z"/>
		<polygon class="st1" points="-180.1,-422.2 -185,-413.7 -175.2,-413.7 		"/>
		<polygon class="st1" points="-168.9,-410.8 -165,-406.9 -163.3,-412.5 		"/>
		<polygon class="st1" points="-196.9,-412.5 -195.2,-406.9 -191.3,-410.8 		"/>
	</g>
	<g>
		<path class="st1" d="M-66-404c-5,0-9.6,2.7-12.1,7c-0.4,0.6-0.4,1.4,0,2c0.4,0.6,1,1,1.7,1h20.8c0.7,0,1.4-0.4,1.7-1
			c0.4-0.6,0.4-1.4,0-2C-56.4-401.3-61-404-66-404z M-66.2-400c0.1,0,0.1,0,0.2,0c0,0,0.1,0,0.1,0C-66-400-66.1-400-66.2-400z"/>
		<path class="st1" d="M-75.2-385.8L-75.2-385.8C-75.2-385.8-75.2-385.8-75.2-385.8C-75.2-385.8-75.2-385.8-75.2-385.8z"/>
		<polygon class="st1" points="-66,-416.2 -70.9,-407.7 -61.1,-407.7 		"/>
		<polygon class="st1" points="-54.8,-404.7 -51,-400.9 -49.3,-406.4 		"/>
		<polygon class="st1" points="-82.8,-406.4 -81.1,-400.9 -77.3,-404.7 		"/>
	</g>
	<g>
		<path class="st1" d="M-80.1,276.4c0,2.4,0.7,4.9,1.9,7c0.4,0.6,1,1,1.7,1h20.8c0.7,0,1.4-0.4,1.7-1c1.2-2.1,1.9-4.6,1.9-7
			c0-7.7-6.3-14-14-14S-80.1,268.6-80.1,276.4z M-75.2,280.4C-75.3,280.3-75.3,280.3-75.2,280.4C-75.2,280.3-75.2,280.3-75.2,280.4
			L-75.2,280.4z M-67.3,266.4c0.4-0.1,0.8-0.1,1.2-0.1c0.1,0,0.1,0,0.2,0C-66.4,266.4-66.9,266.4-67.3,266.4z"/>
		<polygon class="st1" points="-66,250 -70.9,258.5 -61.1,258.5 		"/>
		<polygon class="st1" points="-84,271.6 -92.5,276.5 -84,281.4 		"/>
		<polygon class="st1" points="-48,281.4 -39.5,276.5 -48,271.6 		"/>
		<polygon class="st1" points="-49.3,259.7 -54.8,261.4 -51,265.3 		"/>
		<polygon class="st1" points="-81.1,265.3 -77.3,261.4 -82.8,259.7 		"/>
	</g>
	<g>
		<path class="st1" d="M34.1,276c0,2.4,0.7,4.9,1.9,7c0.4,0.6,1,1,1.7,1h20.8c0.7,0,1.4-0.4,1.7-1c1.2-2.1,1.9-4.6,1.9-7
			c0-7.7-6.3-14-14-14S34.1,268.3,34.1,276z M38.9,280C38.9,280,38.9,280,38.9,280C38.9,280,39,280,38.9,280L38.9,280z M46.8,266.1
			c0.4-0.1,0.8-0.1,1.2-0.1c0.1,0,0.1,0,0.2,0C47.8,266,47.3,266,46.8,266.1z"/>
		<polygon class="st1" points="48.1,249.6 43.2,258.1 53,258.1 		"/>
		<polygon class="st1" points="30.1,271.2 21.7,276.2 30.1,281.1 		"/>
		<polygon class="st1" points="66.2,281.1 74.7,276.2 66.2,271.2 		"/>
		<polygon class="st1" points="64.9,259.4 59.3,261.1 63.2,264.9 		"/>
		<polygon class="st1" points="33.1,264.9 36.9,261.1 31.3,259.4 		"/>
	</g>
	<g>
		<path class="st4" d="M-162,838c-0.5,0-1.1,0.1-1.7,0.2c-2.1-7.2-8.6-12.2-16.3-12.2c-7.7,0-14.2,5-16.3,12.2
			c-0.6-0.1-1.2-0.2-1.7-0.2c-6.1,0-11,4.9-11,11s4.9,11,11,11h36c6.1,0,11-4.9,11-11S-155.9,838-162,838z"/>
		<g>
			<path class="st5" d="M-166.2,865l-30,0c-1.1,0-2,0.9-2,2c0,1.1,0.9,2,2,2l30,0c3.9,0,7,3.1,7,7s-3.1,7-7,7c-1.1,0-2,0.9-2,2
				s0.9,2,2,2c6.1,0,11-4.9,11-11S-160.1,865-166.2,865z"/>
			<path class="st5" d="M-172.2,871h-24c-1.1,0-2,0.9-2,2s0.9,2,2,2h24c0.6,0,1,0.4,1,1s-0.4,1-1,1c-1.1,0-2,0.9-2,2s0.9,2,2,2
				c2.8,0,5-2.2,5-5S-169.4,871-172.2,871z"/>
			<path class="st5" d="M-151.2,857c-1.1,0-2,0.9-2,2s0.9,2,2,2c0.6,0,1,0.4,1,1s-0.4,1-1,1h-4c-1.1,0-2,0.9-2,2s0.9,2,2,2h4
				c2.8,0,5-2.2,5-5S-148.4,857-151.2,857z"/>
			<path class="st5" d="M-196.2,863l33,0c4.4,0,8-3.6,8-8s-3.6-8-8-8s-8,3.6-8,8c0,1.1,0.9,2,2,2c1.1,0,2-0.9,2-2c0-2.2,1.8-4,4-4
				s4,1.8,4,4s-1.8,4-4,4l-33,0c-1.1,0-2,0.9-2,2C-198.2,862.1-197.3,863-196.2,863z"/>
		</g>
	</g>
	<g>
		<path class="st5" d="M-51.5,864l-30,0c-1.1,0-2,0.9-2,2c0,1.1,0.9,2,2,2l30,0c3.9,0,7,3.1,7,7s-3.1,7-7,7c-1.1,0-2,0.9-2,2
			s0.9,2,2,2c6.1,0,11-4.9,11-11S-45.4,864-51.5,864z"/>
		<path class="st5" d="M-57.5,870h-24c-1.1,0-2,0.9-2,2s0.9,2,2,2h24c0.6,0,1,0.4,1,1s-0.4,1-1,1c-1.1,0-2,0.9-2,2s0.9,2,2,2
			c2.8,0,5-2.2,5-5S-54.7,870-57.5,870z"/>
		<path class="st5" d="M-36.5,856c-1.1,0-2,0.9-2,2s0.9,2,2,2c0.6,0,1,0.4,1,1s-0.4,1-1,1h-4c-1.1,0-2,0.9-2,2s0.9,2,2,2h4
			c2.8,0,5-2.2,5-5S-33.7,856-36.5,856z"/>
		<path class="st5" d="M-81.5,862l33,0c4.4,0,8-3.6,8-8s-3.6-8-8-8c-4.4,0-8,3.6-8,8c0,1.1,0.9,2,2,2c1.1,0,2-0.9,2-2
			c0-2.2,1.8-4,4-4c2.2,0,4,1.8,4,4s-1.8,4-4,4l-33,0c-1.1,0-2,0.9-2,2C-83.5,861.1-82.6,862-81.5,862z"/>
	</g>
	<g>
		<path class="st5" d="M63.3,864l-30,0c-1.1,0-2,0.9-2,2c0,1.1,0.9,2,2,2l30,0c3.9,0,7,3.1,7,7s-3.1,7-7,7c-1.1,0-2,0.9-2,2
			s0.9,2,2,2c6.1,0,11-4.9,11-11S69.3,864,63.3,864z"/>
		<path class="st5" d="M57.3,870h-24c-1.1,0-2,0.9-2,2s0.9,2,2,2h24c0.6,0,1,0.4,1,1s-0.4,1-1,1c-1.1,0-2,0.9-2,2s0.9,2,2,2
			c2.8,0,5-2.2,5-5S60,870,57.3,870z"/>
		<path class="st5" d="M78.3,856c-1.1,0-2,0.9-2,2s0.9,2,2,2c0.6,0,1,0.4,1,1s-0.4,1-1,1h-4c-1.1,0-2,0.9-2,2s0.9,2,2,2h4
			c2.8,0,5-2.2,5-5S81,856,78.3,856z"/>
		<path class="st5" d="M33.3,862l33,0c4.4,0,8-3.6,8-8s-3.6-8-8-8c-4.4,0-8,3.6-8,8c0,1.1,0.9,2,2,2s2-0.9,2-2c0-2.2,1.8-4,4-4
			c2.2,0,4,1.8,4,4s-1.8,4-4,4l-33,0c-1.1,0-2,0.9-2,2C31.3,861.1,32.2,862,33.3,862z"/>
	</g>
</g>
</svg>
