<?xml version="1.0" encoding="UTF-8" standalone="no"?>
<!-- Created with Inkscape (http://www.inkscape.org/) -->

<svg
   xmlns:osb="http://www.openswatchbook.org/uri/2009/osb"
   xmlns:dc="http://purl.org/dc/elements/1.1/"
   xmlns:cc="http://creativecommons.org/ns#"
   xmlns:rdf="http://www.w3.org/1999/02/22-rdf-syntax-ns#"
   xmlns:svg="http://www.w3.org/2000/svg"
   xmlns="http://www.w3.org/2000/svg"
   xmlns:sodipodi="http://sodipodi.sourceforge.net/DTD/sodipodi-0.dtd"
   xmlns:inkscape="http://www.inkscape.org/namespaces/inkscape"
   width="210mm"
   height="297mm"
   viewBox="0 0 744.09448819 1052.3622047"
   id="svg2"
   version="1.1"
   inkscape:version="0.91 r13725"
   sodipodi:docname="Bolt_charging.svg">
  <defs
     id="defs4">
    <linearGradient
       id="linearGradient4278"
       osb:paint="solid">
      <stop
         style="stop-color:#fffff0;stop-opacity:1;"
         offset="0"
         id="stop4280" />
    </linearGradient>
  </defs>
  <sodipodi:namedview
     id="base"
     pagecolor="#000000"
     bordercolor="#666666"
     borderopacity="1.0"
     inkscape:pageopacity="0"
     inkscape:pageshadow="2"
     inkscape:zoom="0.39"
     inkscape:cx="226.33157"
     inkscape:cy="452.91613"
     inkscape:document-units="px"
     inkscape:current-layer="layer1"
     showgrid="false"
     inkscape:window-width="1669"
     inkscape:window-height="998"
     inkscape:window-x="2807"
     inkscape:window-y="1024"
     inkscape:window-maximized="0" />
  <metadata
     id="metadata7">
    <rdf:RDF>
      <cc:Work
         rdf:about="">
        <dc:format>image/svg+xml</dc:format>
        <dc:type
           rdf:resource="http://purl.org/dc/dcmitype/StillImage" />
        <dc:title></dc:title>
      </cc:Work>
    </rdf:RDF>
  </metadata>
  <g
     inkscape:label="Layer 1"
     inkscape:groupmode="layer"
     id="layer1">
    <path
       style="fill:#ffffff;fill-opacity:1;fill-rule:nonzero;stroke:#ffffff;stroke-width:29.89004326;stroke-linecap:butt;stroke-linejoin:miter;stroke-miterlimit:4;stroke-dasharray:none;stroke-opacity:1"
       d="m 291.7664,125.98382 300.5098,1.31779 -150.20843,300.75486 160.727,-1.31579 L 235.48172,991.88962 368.94884,577.94466 220.9848,577.26245 Z"
       id="path3344"
       inkscape:connector-curvature="0"
       sodipodi:nodetypes="cccccccc" />
    <path
       style="color:#000000;clip-rule:nonzero;display:inline;overflow:visible;visibility:visible;opacity:1;isolation:auto;mix-blend-mode:normal;color-interpolation:sRGB;color-interpolation-filters:linearRGB;solid-color:#000000;solid-opacity:1;fill:none;fill-opacity:1;fill-rule:evenodd;stroke:#000000;stroke-width:1.31578946px;stroke-linecap:butt;stroke-linejoin:miter;stroke-miterlimit:4;stroke-dasharray:none;stroke-dashoffset:0;stroke-opacity:1;color-rendering:auto;image-rendering:auto;shape-rendering:auto;text-rendering:auto;enable-background:accumulate"
       d="m 288.41652,880.00746 c 0,-0.89359 22.79605,-72.294 50.6579,-158.66757 27.86184,-86.37355 50.65789,-157.32669 50.65789,-157.67363 0,-0.34695 -33.50232,-0.96876 -74.4496,-1.38183 -40.94728,-0.41306 -74.76602,-1.06745 -75.15275,-1.45417 -0.38673,-0.38674 14.04382,-94.72981 32.06788,-209.65128 l 32.77104,-208.94813 12.4475,-0.43624 c 6.84613,-0.23994 65.84968,-0.0202 131.119,0.48825 l 118.6715,0.92449 -74.9215,149.83841 c -41.20682,82.41112 -74.92149,150.05115 -74.92149,150.31116 0,0.26001 34.93421,0.1762 77.63158,-0.18625 42.69737,-0.36245 77.63158,-0.20708 77.63158,0.34526 0,0.74829 -272.60936,421.11037 -282.43998,435.52086 -0.9738,1.42746 -1.77055,1.86427 -1.77055,0.97067 z"
       id="path4268"
       inkscape:connector-curvature="0" />
    <path
       style="color:#000000;clip-rule:nonzero;display:inline;overflow:visible;visibility:visible;opacity:1;isolation:auto;mix-blend-mode:normal;color-interpolation:sRGB;color-interpolation-filters:linearRGB;solid-color:#000000;solid-opacity:1;fill:none;fill-opacity:1;fill-rule:evenodd;stroke:#000000;stroke-width:1.31578946px;stroke-linecap:butt;stroke-linejoin:miter;stroke-miterlimit:4;stroke-dasharray:none;stroke-dashoffset:0;stroke-opacity:1;color-rendering:auto;image-rendering:auto;shape-rendering:auto;text-rendering:auto;enable-background:accumulate"
       d="m 287.39716,881.04664 c 0.36852,-1.08552 23.33104,-72.43421 51.02783,-158.55263 27.69679,-86.11842 50.61423,-157.2655 50.92765,-158.10463 0.42643,-1.14171 -14.27295,-1.55642 -58.40682,-1.64778 -69.12533,-0.14309 -91.21351,-1.00394 -91.21351,-3.55492 0,-1.46052 15.59303,-101.61959 58.20408,-373.86372 l 6.84765,-43.75 71.86339,0 c 39.52487,0 98.55793,0.39188 131.18458,0.87086 l 59.3212,0.87085 -74.89466,149.78475 c -41.19207,82.38162 -74.89466,149.93934 -74.89466,150.12828 0,0.18894 35.31853,0.12263 78.48561,-0.14733 l 78.48561,-0.49086 -2.64572,3.76804 c -1.45514,2.07242 -31.05112,47.58383 -65.76882,101.13646 -154.02747,237.5899 -215.31521,331.71567 -217.18475,333.55263 -1.78551,1.75438 -1.93425,1.75438 -1.33866,0 z"
       id="path4270"
       inkscape:connector-curvature="0" />
    <path
       style="color:#000000;clip-rule:nonzero;display:inline;overflow:visible;visibility:visible;opacity:1;isolation:auto;mix-blend-mode:normal;color-interpolation:sRGB;color-interpolation-filters:linearRGB;solid-color:#000000;solid-opacity:1;fill:none;fill-opacity:1;fill-rule:evenodd;stroke:#000000;stroke-width:1.31578946px;stroke-linecap:butt;stroke-linejoin:miter;stroke-miterlimit:4;stroke-dasharray:none;stroke-dashoffset:0;stroke-opacity:1;color-rendering:auto;image-rendering:auto;shape-rendering:auto;text-rendering:auto;enable-background:accumulate"
       d="m 287.79749,879.40191 c 0.84936,-2.87675 96.35326,-300.2744 99.84222,-310.90711 l 1.74404,-5.315 -67.25994,-0.31862 c -75.54094,-0.35784 -82.3915,-0.71239 -82.3915,-4.26409 0,-2.47003 11.21438,-74.917 44.69447,-288.73466 10.87837,-69.47368 19.77893,-126.83639 19.77903,-127.47268 2e-4,-1.26521 261.27029,-0.51159 262.53917,0.75728 0.42166,0.42166 -32.72054,67.73895 -73.64933,149.59398 -40.92879,81.85503 -74.41615,149.27245 -74.41637,149.81649 -2.2e-4,0.54402 35.03402,0.79239 77.85385,0.55193 l 77.85423,-0.43721 -2.0038,3.06879 c -1.10208,1.68783 -57.94064,89.22011 -126.30791,194.51616 -145.11438,223.49837 -157.28442,242.10526 -158.3516,242.10526 -0.44036,0 -0.40731,-1.33223 0.0734,-2.96052 z"
       id="path4272"
       inkscape:connector-curvature="0" />
    <path
       style="color:#000000;clip-rule:nonzero;display:inline;overflow:visible;visibility:visible;opacity:1;isolation:auto;mix-blend-mode:normal;color-interpolation:sRGB;color-interpolation-filters:linearRGB;solid-color:#000000;solid-opacity:1;fill:#ffffff;fill-opacity:0;fill-rule:evenodd;stroke:#000000;stroke-width:1.31578946px;stroke-linecap:butt;stroke-linejoin:miter;stroke-miterlimit:4;stroke-dasharray:none;stroke-dashoffset:0;stroke-opacity:1;color-rendering:auto;image-rendering:auto;shape-rendering:auto;text-rendering:auto;enable-background:accumulate"
       d="m 287.51516,879.59816 c 0.43903,-1.73623 23.34948,-73.24387 50.91211,-158.90587 27.56264,-85.66199 49.8807,-155.98228 49.59569,-156.26728 -0.28502,-0.28501 -31.25056,-0.83404 -68.81232,-1.22006 -37.56177,-0.38603 -70.81057,-1.00664 -73.88622,-1.37914 -4.76273,-0.57681 -5.59211,-1.12634 -5.59211,-3.70522 0,-1.66538 4.70977,-33.45475 10.46615,-70.64305 19.4135,-125.41827 52.72822,-338.63971 53.49294,-342.3665 l 0.75898,-3.69876 130.68981,0.40929 c 71.87941,0.2251 131.04863,0.76837 131.48719,1.20725 0.43855,0.43889 -32.67028,67.92691 -73.57517,149.97339 -40.90489,82.04647 -74.37253,149.39696 -74.37253,149.66776 0,0.27079 34.93426,0.28276 77.6317,0.0266 42.69742,-0.25616 77.63163,-0.0787 77.63158,0.39454 -7e-5,0.47314 -17.06795,27.11788 -37.92865,59.21053 -20.86068,32.09267 -78.50984,120.81739 -128.10925,197.16608 -115.81258,178.27105 -117.68146,181.12 -119.58383,182.29573 -1.16047,0.71721 -1.38347,0.11816 -0.80607,-2.16527 z"
       id="path4274"
       inkscape:connector-curvature="0" />
    <path
       style="color:#000000;clip-rule:nonzero;display:inline;overflow:visible;visibility:visible;opacity:1;isolation:auto;mix-blend-mode:normal;color-interpolation:sRGB;color-interpolation-filters:linearRGB;solid-color:#000000;solid-opacity:1;fill:none;fill-opacity:1;fill-rule:evenodd;stroke:#000000;stroke-width:1.31578946px;stroke-linecap:butt;stroke-linejoin:miter;stroke-miterlimit:4;stroke-dasharray:none;stroke-dashoffset:0;stroke-opacity:1;color-rendering:auto;image-rendering:auto;shape-rendering:auto;text-rendering:auto;enable-background:accumulate"
       d="m 287.10073,881.87839 c 0,-1.27937 15.43844,-50.3945 34.30765,-109.14473 18.8692,-58.75023 41.37833,-128.8499 50.0203,-155.77703 8.64195,-26.92715 16.02762,-49.77925 16.41259,-50.78246 0.58876,-1.53429 -10.82395,-1.97467 -71.84751,-2.77238 -39.9011,-0.52159 -73.38311,-1.26902 -74.40445,-1.66094 -3.35467,-1.28731 -5.83331,16.0627 36.24685,-253.72052 13.77119,-88.28948 25.3535,-161.87508 25.73847,-163.52357 l 0.69993,-2.99724 130.77755,0.36566 c 71.92766,0.20112 131.15358,0.74188 131.61315,1.2017 0.45958,0.45981 -32.64887,68.20461 -73.57432,150.544 l -74.40989,149.70797 77.63089,-0.84415 c 48.10842,-0.52314 77.6309,-0.37435 77.6309,0.39125 0,1.46852 -6.36965,11.37014 -102.85687,159.89122 -164.98071,253.95185 -180.27642,277.39185 -182.8421,280.19737 -0.68729,0.75154 -1.14314,0.32241 -1.14314,-1.07615 z"
       id="path4276"
       inkscape:connector-curvature="0" />
    <path
       style="fill:#ffffff;fill-opacity:1;fill-rule:nonzero;stroke:#ffffff;stroke-width:30;stroke-miterlimit:4;stroke-dasharray:none;stroke-opacity:1"
       d="M 303.94737,137.88852 242.10526,560.25694 386.84211,565.5201 289.47368,882.62536 575,443.15168 l -153.94737,0 143.42105,-301.31579 z"
       id="path4309"
       inkscape:connector-curvature="0" />
    <path
       style="fill:#ffffff;fill-opacity:1;fill-rule:nonzero;stroke:#ffffff;stroke-width:4.5999999;stroke-miterlimit:4;stroke-dasharray:none;stroke-opacity:1"
       d="m 223.0326,989.51495 -8.70958,42.01065 30.32834,-31.0635 z"
       id="path4311"
       inkscape:connector-curvature="0"
       sodipodi:nodetypes="cccc" />
  </g>
</svg>
